<svg width="370" height="122" viewBox="0 0 370 122" fill="none" xmlns="http://www.w3.org/2000/svg">
<g clip-path="url(#clip0)">
<path d="M221.09 86.6L196.21 61.73C195.87 61.3896 195.466 61.1194 195.022 60.9352C194.578 60.7509 194.101 60.656 193.62 60.656C193.139 60.656 192.663 60.7509 192.218 60.9352C191.774 61.1194 191.37 61.3896 191.03 61.73L185.86 66.9L192.41 73.45C193.182 73.1845 194.014 73.1419 194.809 73.3269C195.605 73.5119 196.332 73.9171 196.908 74.4962C197.484 75.0753 197.885 75.8048 198.066 76.6013C198.247 77.3978 198.2 78.2291 197.93 79L204.24 85.32C205.183 84.9951 206.208 85.0031 207.146 85.3426C208.083 85.6822 208.876 86.3327 209.392 87.1859C209.908 88.0391 210.116 89.0433 209.981 90.0312C209.846 91.0191 209.377 91.931 208.651 92.6148C207.926 93.2987 206.988 93.7132 205.994 93.7893C204.999 93.8654 204.009 93.5985 203.188 93.033C202.367 92.4675 201.764 91.6377 201.481 90.6818C201.197 89.7259 201.25 88.7018 201.63 87.78L195.74 81.89V97.39C196.167 97.596 196.556 97.8733 196.89 98.21C197.503 98.8206 197.92 99.5992 198.09 100.447C198.26 101.295 198.174 102.175 197.844 102.974C197.513 103.773 196.953 104.457 196.234 104.938C195.515 105.418 194.67 105.675 193.805 105.675C192.94 105.675 192.095 105.418 191.376 104.938C190.657 104.457 190.097 103.773 189.766 102.974C189.436 102.175 189.35 101.295 189.52 100.447C189.69 99.5992 190.107 98.8206 190.72 98.21C191.128 97.8006 191.614 97.4776 192.15 97.26V81.66C191.614 81.4424 191.128 81.1193 190.72 80.71C190.109 80.0974 189.693 79.317 189.525 78.4678C189.358 77.6186 189.447 76.7388 189.78 75.94L183.32 69.48L166.32 86.53C165.634 87.2195 165.249 88.1525 165.249 89.125C165.249 90.0975 165.634 91.0305 166.32 91.72L191.16 116.55C191.85 117.236 192.782 117.621 193.755 117.621C194.727 117.621 195.66 117.236 196.35 116.55L221.11 91.8C221.796 91.1105 222.181 90.1775 222.181 89.205C222.181 88.2325 221.796 87.2996 221.11 86.61" fill="#F05133"/>
<path d="M260.29 50.22C254.29 50.22 249.85 53.16 249.85 60.22C249.85 65.55 252.78 69.22 259.97 69.22C266.05 69.22 270.19 65.63 270.19 59.97C270.19 53.55 266.49 50.18 260.29 50.18V50.22ZM248.29 100.16C246.87 101.9 245.46 103.74 245.46 105.92C245.46 110.27 251.01 111.58 258.62 111.58C264.93 111.58 273.53 111.14 273.53 105.27C273.53 101.78 269.39 101.57 264.17 101.27L248.29 100.19V100.16ZM280.49 50.55C283.064 53.6389 284.479 57.5294 284.49 61.55C284.49 73.62 275.03 80.69 261.33 80.69C258.433 80.7214 255.543 80.3854 252.73 79.69L249.16 85.47L259.82 86.12C278.64 87.32 289.73 87.86 289.73 102.33C289.73 114.84 278.73 121.91 259.82 121.91C240.13 121.91 232.62 116.91 232.62 108.31C232.62 103.41 234.8 100.81 238.62 97.21C237.157 96.6878 235.902 95.7086 235.039 94.4173C234.176 93.1259 233.752 91.5911 233.83 90.04C233.83 87.64 235.02 85.47 236.99 83.4C238.96 81.33 241.12 79.27 243.73 76.87C238.4 74.26 234.37 68.6 234.37 60.55C234.37 48.04 242.64 39.45 259.28 39.45C262.647 39.3582 266.012 39.7249 269.28 40.54H290.5V49.79L280.5 50.55" fill="#413000"/>
<path d="M309.68 30.78C303.48 30.78 299.89 27.18 299.89 20.98C299.89 14.78 303.48 11.41 309.68 11.41C315.88 11.41 319.58 14.79 319.58 20.98C319.58 27.17 315.99 30.78 309.68 30.78ZM295.68 96.15V87.56L301.23 86.8C302.76 86.58 302.97 86.26 302.97 84.62V52.66C302.97 51.47 302.65 50.66 301.56 50.38L295.68 48.31L296.88 39.5H319.36V84.66C319.36 86.41 319.46 86.66 321.1 86.85L326.65 87.6V96.19H295.65" fill="#413000"/>
<path d="M369.67 91.94C364.131 94.6277 358.084 96.1103 351.93 96.29C338.99 96.29 334.09 91.07 334.09 78.77V50.27C334.09 49.62 334.09 49.18 333.22 49.18H325.61V39.5C335.16 38.41 338.99 33.66 340.16 21.77H350.5V37.22C350.5 37.98 350.5 38.31 351.37 38.31H366.71V49.18H350.52V75.18C350.52 81.6 352.04 84.1 357.92 84.1C360.936 84.038 363.917 83.4492 366.73 82.36L369.67 91.94Z" fill="#413000"/>
<path d="M102.85 82.95C102.924 84.5409 103.149 86.1212 103.52 87.67C103.74 88.8852 104.213 90.0403 104.91 91.06C103.886 92.014 102.771 92.8647 101.58 93.6C100.001 94.6118 98.2919 95.4056 96.5 95.96C94.562 96.574 92.5309 96.8415 90.5 96.75C89.0174 96.7084 87.5642 96.326 86.2532 95.6323C84.9421 94.9386 83.8085 93.9524 82.94 92.75C80.9619 90.0477 79.9096 86.7788 79.94 83.43V67.43C79.9433 66.0344 79.5997 64.6599 78.94 63.43C78.7255 62.9064 78.4051 62.4328 77.999 62.0387C77.5929 61.6446 77.1098 61.3387 76.58 61.14C75.37 60.73 74.36 61.46 73.58 63.31C73.42 63.72 72.89 64.7 72 66.31C71.11 67.92 70.13 69.72 69 71.81C67.87 73.9 66.9 76.01 66 78.11C65.1947 79.8359 64.5649 81.6382 64.12 83.49C63.8 84.98 64 85.89 64.73 86.21C64.2091 87.4119 63.6216 88.5837 62.97 89.72C61.9851 91.3812 60.5636 92.7405 58.86 93.65C56.96 94.74 54.28 95.17 50.86 94.92C49 94.76 46.62 93.6333 43.72 91.54C40.82 89.4467 38.0367 85.6133 35.37 80.04C32.87 74.7067 30.8333 71.0967 29.26 69.21C27.6867 67.3233 26.5367 66.4567 25.81 66.61C25.4632 66.6785 25.1408 66.8376 24.8755 67.0713C24.6103 67.3049 24.4117 67.6047 24.3 67.94C23.8586 69.0353 23.5237 70.1705 23.3 71.33C23.1041 72.5296 23.0237 73.7451 23.06 74.96C23.06 76.65 23.14 78.55 23.3 80.65C23.448 82.6441 23.7523 84.6235 24.21 86.57C24.5073 88.0851 25.1021 89.5262 25.96 90.81C25.32 91.21 24.17 91.9 22.52 92.87C20.7408 93.8939 18.8774 94.7637 16.95 95.47C15.0344 96.2073 13.0025 96.5967 10.95 96.62C8.3392 96.6345 5.79327 95.8069 3.69 94.26C1.75 92.7667 0.579993 89.8 0.179993 85.36C0.0999927 84.64 0.0599976 82.5833 0.0599976 79.19V32.14C0.0599976 26.3267 0.0799951 20.9934 0.119995 16.14C0.159995 11.2867 0.179993 5.95335 0.179993 0.140019C1.66616 -0.0417608 3.16624 -0.081967 4.66 0.0199937C6.98261 0.139979 9.28913 0.474741 11.55 1.01999C13.98 1.55408 16.3092 2.47228 18.45 3.74C20.4849 4.91633 22.0315 6.78221 22.81 9C24.3433 11.9933 25.7533 14.6767 27.04 17.05C28.3267 19.4234 29.72 21.9833 31.22 24.73C32.7133 27.4833 34.1633 30.1867 35.57 32.84C36.98 35.5 38.24 37.84 39.32 39.84C40.4 41.84 41.16 43.27 41.56 44.07C42.5283 45.936 43.8693 47.5833 45.5 48.91C46.6811 49.7769 48.0875 50.2839 49.55 50.37C52.53 50.37 55.3933 48.07 58.14 43.47C58.54 42.7367 59.3467 41.1833 60.56 38.81C61.7733 36.4367 63.1867 33.5933 64.8 30.28C66.4134 26.9467 68.08 23.56 69.8 20.12C71.52 16.68 73.1134 13.4333 74.58 10.38C76.0267 7.35334 77.6934 3.94333 79.58 0.149999C80.14 0.0699986 80.97 0.0100059 82.06 -0.0299941C83.2529 -0.0649771 84.4467 -0.00479373 85.63 0.149999C88.069 0.346932 90.4816 0.792597 92.83 1.48002C95.2529 2.14932 97.515 3.3025 99.48 4.87C100.415 5.61823 101.184 6.55355 101.737 7.61603C102.289 8.67852 102.614 9.84475 102.69 11.04C102.85 12.4133 102.97 14.6533 103.05 17.76C103.13 20.8667 103.17 24.5333 103.17 28.76V42.25C103.17 47.01 103.15 51.6767 103.11 56.25C103.07 60.8233 103.03 65.06 102.99 68.96C102.95 72.8333 102.93 76 102.93 78.46L102.85 82.95Z" fill="#413000"/>
<path d="M153.43 25.6C154.216 25.4006 155.041 25.4072 155.824 25.6191C156.607 25.8311 157.322 26.2412 157.9 26.81C159.417 28.2061 160.667 29.8664 161.59 31.71C162.663 33.7322 163.576 35.8353 164.32 38C165.04 40.14 165.807 42.6633 166.62 45.57C163.266 46.1742 159.966 47.0436 156.75 48.17C153.789 49.2786 151.001 50.804 148.47 52.7C146.781 53.98 145.239 55.4421 143.87 57.06C142.272 58.999 141.005 61.1884 140.12 63.54C138.905 66.8715 138.132 70.3477 137.82 73.88C137.574 76.1316 137.533 78.4011 137.7 80.66C137.86 83 137.94 84.9734 137.94 86.58C137.928 87.6462 138.153 88.7018 138.6 89.67L139.51 91.18C137.775 92.5475 135.834 93.6311 133.76 94.39C130.865 95.581 127.76 96.1762 124.63 96.14C121.4 96.14 119.02 95.14 117.49 93C115.96 90.86 115.19 88 115.19 84.29C115.19 83.4 115.19 81.44 115.13 78.42C115.07 75.4 115.05 71.74 115.01 67.47C114.97 63.2 114.93 58.76 114.89 54.16C114.85 49.56 114.81 45.26 114.77 41.27C114.73 37.28 114.67 32.78 114.59 27.78C115.97 27.5657 117.363 27.4455 118.76 27.42C120.92 27.3465 123.082 27.4267 125.23 27.66C127.484 27.8811 129.691 28.4512 131.77 29.35C133.043 29.8488 134.359 30.2337 135.7 30.5C137.289 30.8561 138.912 31.0405 140.54 31.05C141.736 31.1335 142.931 30.8806 143.99 30.32C145.46 29.2248 147.018 28.2548 148.65 27.42C150.168 26.6323 151.772 26.0217 153.43 25.6V25.6Z" fill="#413000"/>
</g>
<defs>
<clipPath id="clip0">
<rect width="369.67" height="121.91" fill="white"/>
</clipPath>
</defs>
</svg>
