<svg width="214" height="81" viewBox="0 0 214 81" fill="none" xmlns="http://www.w3.org/2000/svg">
<path d="M136.83 62.7528L123.908 49.9006C123.731 49.7246 123.522 49.5851 123.291 49.4898C123.06 49.3946 122.813 49.3456 122.563 49.3456C122.313 49.3456 122.065 49.3946 121.835 49.4898C121.604 49.5851 121.394 49.7246 121.218 49.9006L118.532 52.5723L121.934 55.9572C122.335 55.82 122.767 55.7979 123.181 55.8936C123.594 55.9892 123.971 56.1986 124.271 56.4978C124.57 56.7971 124.778 57.1741 124.872 57.5857C124.966 57.9973 124.941 58.4269 124.801 58.8253L128.079 62.0913C128.568 61.9234 129.101 61.9275 129.588 62.103C130.075 62.2784 130.486 62.6146 130.754 63.0555C131.022 63.4964 131.13 64.0154 131.06 64.5259C130.99 65.0364 130.747 65.5077 130.37 65.8611C129.993 66.2145 129.506 66.4287 128.989 66.468C128.473 66.5073 127.959 66.3694 127.532 66.0772C127.106 65.785 126.793 65.3561 126.646 64.8621C126.498 64.3682 126.526 63.8389 126.723 63.3626L123.664 60.3188V68.3288C123.886 68.4352 124.088 68.5785 124.261 68.7525C124.579 69.068 124.796 69.4704 124.884 69.9087C124.973 70.347 124.928 70.8014 124.756 71.2145C124.585 71.6276 124.294 71.9807 123.921 72.2292C123.547 72.4777 123.108 72.6103 122.659 72.6103C122.21 72.6103 121.771 72.4777 121.397 72.2292C121.024 71.9807 120.733 71.6276 120.561 71.2145C120.39 70.8014 120.345 70.347 120.433 69.9087C120.521 69.4704 120.738 69.068 121.057 68.7525C121.269 68.541 121.521 68.374 121.799 68.2616V60.1999C121.521 60.0875 121.269 59.9205 121.057 59.709C120.739 59.3924 120.523 58.9891 120.436 58.5503C120.349 58.1114 120.395 57.6567 120.568 57.2439L117.213 53.9056L108.384 62.7166C108.027 63.0729 107.828 63.5551 107.828 64.0576C107.828 64.5602 108.027 65.0423 108.384 65.3986L121.285 78.2302C121.643 78.5846 122.128 78.7835 122.633 78.7835C123.138 78.7835 123.623 78.5846 123.981 78.2302L136.841 65.44C137.197 65.0837 137.397 64.6015 137.397 64.099C137.397 63.5964 137.197 63.1143 136.841 62.7579" fill="#F05133"/>
<path d="M157.19 43.9524C154.074 43.9524 151.768 45.4717 151.768 49.1202C151.768 51.8746 153.289 53.7712 157.024 53.7712C160.182 53.7712 162.332 51.9159 162.332 48.991C162.332 45.6733 160.41 43.9318 157.19 43.9318V43.9524ZM150.957 69.7602C150.22 70.6594 149.488 71.6102 149.488 72.7368C149.488 74.9848 152.37 75.6617 156.323 75.6617C159.6 75.6617 164.067 75.4343 164.067 72.4009C164.067 70.5973 161.916 70.4888 159.205 70.3338L150.957 69.7757V69.7602ZM167.682 44.123C169.018 45.7192 169.753 47.7297 169.759 49.8075C169.759 56.045 164.846 59.6986 157.73 59.6986C156.225 59.7148 154.724 59.5411 153.263 59.1818L151.409 62.1687L156.946 62.5046C166.721 63.1248 172.481 63.4038 172.481 70.8816C172.481 77.3464 166.767 81 156.946 81C146.719 81 142.819 78.4161 142.819 73.9719C142.819 71.4397 143.951 70.0961 145.935 68.2357C145.175 67.9658 144.523 67.4598 144.075 66.7924C143.627 66.1251 143.407 65.332 143.447 64.5304C143.447 63.2901 144.065 62.1687 145.088 61.099C146.112 60.0293 147.233 58.9647 148.589 57.7245C145.821 56.3757 143.728 53.4508 143.728 49.2907C143.728 42.8259 148.023 38.3868 156.665 38.3868C158.414 38.3393 160.162 38.5288 161.859 38.9501H172.881V43.7302L167.687 44.123" fill="#413000"/>
<path d="M182.842 33.9064C179.622 33.9064 177.758 32.046 177.758 28.842C177.758 25.638 179.622 23.8965 182.842 23.8965C186.062 23.8965 187.984 25.6432 187.984 28.842C187.984 32.0409 186.12 33.9064 182.842 33.9064ZM175.571 67.688V63.2489L178.454 62.8561C179.248 62.7424 179.357 62.5771 179.357 61.7296V45.2134C179.357 44.5985 179.191 44.1799 178.625 44.0352L175.571 42.9655L176.194 38.4127H187.87V61.7502C187.87 62.6546 187.922 62.7838 188.774 62.882L191.656 63.2695V67.7086H175.555" fill="#413000"/>
<path d="M214 65.5122C211.123 66.9012 207.983 67.6673 204.786 67.7602C198.065 67.7602 195.52 65.0626 195.52 58.7063V43.9782C195.52 43.6423 195.52 43.4149 195.069 43.4149H191.116V38.4125C196.076 37.8493 198.065 35.3946 198.673 29.2501H204.043V37.2343C204.043 37.627 204.043 37.7976 204.495 37.7976H212.463V43.4149H204.054V56.8511C204.054 60.1688 204.843 61.4607 207.897 61.4607C209.464 61.4287 211.012 61.1244 212.473 60.5615L214 65.5122Z" fill="#413000"/>
<path d="M75.4192 60.8658C75.4579 61.688 75.5744 62.5047 75.7672 63.305C75.8813 63.933 76.1274 64.5299 76.4891 65.0569C75.9573 65.5499 75.378 65.9895 74.7596 66.3695C73.9393 66.8924 73.0518 67.3026 72.1211 67.5891C71.1146 67.9064 70.0596 68.0446 69.0048 67.9973C68.2348 67.9758 67.48 67.7782 66.7991 67.4197C66.1182 67.0613 65.5294 66.5516 65.0783 65.9302C64.0509 64.5338 63.5044 62.8444 63.5202 61.1139V52.8455C63.5219 52.1243 63.3434 51.4139 63.0008 50.7784C62.8894 50.5078 62.723 50.263 62.5121 50.0594C62.3011 49.8558 62.0502 49.6977 61.7751 49.595C61.1466 49.3831 60.622 49.7603 60.2169 50.7164C60.1338 50.9283 59.8585 51.4347 59.3963 52.2667C58.934 53.0987 58.425 54.0289 57.8381 55.109C57.2512 56.189 56.7474 57.2794 56.28 58.3647C55.8617 59.2565 55.5346 60.1879 55.3035 61.1449C55.1373 61.9149 55.2412 62.3851 55.6204 62.5505C55.3498 63.1716 55.0447 63.7772 54.7063 64.3644C54.1947 65.2228 53.4564 65.9253 52.5716 66.3953C51.5848 66.9586 50.1928 67.1808 48.4165 67.0516C47.4505 66.969 46.2144 66.3867 44.7081 65.3049C43.2019 64.2232 41.7563 62.2422 40.3713 59.362C39.0728 56.6059 38.015 54.7403 37.1979 53.7653C36.3807 52.7904 35.7834 52.3425 35.406 52.4217C35.2259 52.4571 35.0584 52.5394 34.9207 52.6601C34.7829 52.7808 34.6798 52.9357 34.6218 53.109C34.3925 53.6751 34.2186 54.2617 34.1024 54.8609C34.0006 55.4808 33.9589 56.109 33.9777 56.7368C33.9777 57.6101 34.0193 58.592 34.1024 59.6772C34.1792 60.7077 34.3373 61.7307 34.575 62.7366C34.7294 63.5195 35.0384 64.2643 35.4839 64.9277C35.1515 65.1344 34.5542 65.491 33.6972 65.9922C32.7732 66.5214 31.8053 66.9709 30.8043 67.3359C29.8093 67.7169 28.754 67.9181 27.688 67.9301C26.332 67.9376 25.0097 67.5099 23.9173 66.7106C22.9097 65.9388 22.302 64.4057 22.0942 62.1113C22.0527 61.7392 22.0319 60.6764 22.0319 58.9228V34.6085C22.0319 31.6043 22.0423 28.8482 22.0631 26.3401C22.0839 23.832 22.0942 21.0759 22.0942 18.0717C22.8661 17.9778 23.6452 17.957 24.4211 18.0097C25.6274 18.0717 26.8254 18.2447 27.9996 18.5265C29.2617 18.8025 30.4715 19.277 31.5834 19.9321C32.6403 20.54 33.4435 21.5042 33.8479 22.6503C34.6443 24.1972 35.3766 25.5839 36.0449 26.8104C36.7131 28.0369 37.4368 29.3598 38.2159 30.7792C38.9915 32.2021 39.7446 33.5991 40.4752 34.9702C41.2075 36.3449 41.8619 37.5541 42.4229 38.5877C42.9838 39.6212 43.3785 40.3602 43.5863 40.7736C44.0892 41.7379 44.7857 42.5892 45.6326 43.2748C46.2461 43.7228 46.9766 43.9848 47.7362 44.0293C49.2839 44.0293 50.7711 42.8407 52.1976 40.4636C52.4054 40.0846 52.8244 39.2819 53.4545 38.0554C54.0847 36.8289 54.8188 35.3596 55.6567 33.6473C56.4947 31.9247 57.3603 30.1746 58.2536 28.3969C59.147 26.6192 59.9745 24.9414 60.7363 23.3635C61.4877 21.7994 62.3533 20.0372 63.3332 18.0769C63.6241 18.0355 64.0551 18.0045 64.6213 17.9839C65.2408 17.9658 65.8609 17.9969 66.4755 18.0769C67.7422 18.1787 68.9953 18.409 70.215 18.7642C71.4734 19.1101 72.6483 19.706 73.6689 20.5161C74.1546 20.9027 74.5538 21.3861 74.8409 21.9351C75.128 22.4842 75.2967 23.0869 75.3361 23.7046C75.4192 24.4143 75.4815 25.5718 75.5231 27.1773C75.5646 28.7827 75.5854 30.6776 75.5854 32.8618V39.8331C75.5854 42.2929 75.575 44.7046 75.5543 47.0679C75.5335 49.4313 75.5127 51.6207 75.4919 53.6362C75.4711 55.6378 75.4608 57.2742 75.4608 58.5455L75.4192 60.8658Z" fill="#413000"/>
<path d="M101.689 31.2295C102.097 31.1265 102.525 31.1299 102.932 31.2394C103.339 31.3489 103.71 31.5609 104.01 31.8548C104.798 32.5763 105.448 33.4343 105.927 34.387C106.484 35.432 106.958 36.5188 107.345 37.6375C107.719 38.7434 108.117 40.0474 108.539 41.5495C106.798 41.8617 105.084 42.311 103.413 42.8931C101.875 43.466 100.427 44.2543 99.1127 45.2341C98.2355 45.8956 97.4343 46.6512 96.7235 47.4872C95.8936 48.4893 95.2355 49.6207 94.7758 50.8359C94.1449 52.5576 93.7432 54.354 93.5812 56.1794C93.4533 57.343 93.4324 58.5158 93.5189 59.6831C93.602 60.8924 93.6436 61.9121 93.6436 62.7424C93.6373 63.2934 93.7543 63.8389 93.9864 64.3393L94.459 65.1196C93.558 65.8263 92.55 66.3862 91.4725 66.7784C89.969 67.3939 88.3563 67.7015 86.7306 67.6828C85.053 67.6828 83.8169 67.166 83.0222 66.0601C82.2276 64.9542 81.8276 63.4762 81.8276 61.559C81.8276 61.0991 81.8276 60.0862 81.7965 58.5255C81.7653 56.9649 81.7549 55.0735 81.7341 52.8669C81.7134 50.6602 81.6926 48.3658 81.6718 45.9886C81.651 43.6114 81.6303 41.3893 81.6095 39.3274C81.5887 37.2654 81.5575 34.9399 81.516 32.3561C82.2329 32.2454 82.9565 32.1832 83.6818 32.17C84.8035 32.1321 85.9265 32.1735 87.0422 32.2941C88.2131 32.4083 89.359 32.7029 90.439 33.1674C91.1004 33.4252 91.7834 33.6241 92.4801 33.7617C93.3054 33.9457 94.1482 34.041 94.994 34.0459C95.6149 34.0891 96.2357 33.9584 96.7858 33.6687C97.5491 33.1027 98.3587 32.6014 99.2062 32.17C99.9948 31.763 100.828 31.4474 101.689 31.2295V31.2295Z" fill="#413000"/>
<path d="M18.9189 34.4355L21.8686 32.3392C22.2343 32.2259 23.183 31.8383 24.0517 31.1944C25.1376 30.3894 25.1301 30.0794 25.7501 29.5973C26.3701 29.1152 28.076 27.8282 30.2629 26.8383C32.4498 25.8484 32.4461 25.6934 33.3741 24.8927C34.3022 24.0921 35.4033 23.9071 35.7189 23.8986C36.0346 23.89 37.4814 24.9365 38.4359 25.2208C39.3904 25.5052 38.3082 26.4651 38.4962 27.7008C38.6843 28.9365 37.587 29.2765 36.8281 30.5378C36.0691 31.7992 34.9794 32.4492 34.5135 32.772C34.0476 33.0948 32.4806 33.6026 31.2557 35.1868C30.0308 36.771 28.9374 37.266 28.0055 37.9116C27.0736 38.5573 25.8186 38.9015 22.8237 39.1378C19.8287 39.3741 20.4412 38.582 19.9564 38.1298C19.5686 37.7681 19.1031 35.5162 18.9189 34.4355Z" fill="#F05133" stroke="black"/>
<path d="M34.9725 22.1897L35.1571 22.5127L35.5193 22.4285C37.3819 21.9957 38.9481 21.8965 40.1619 22.1041C41.3698 22.3108 42.1894 22.8118 42.6509 23.5529C43.1383 24.3357 43.211 25.2926 42.8934 26.4085C42.5736 27.5317 41.8666 28.7781 40.8546 30.0706C38.8324 32.6533 35.6716 35.3203 32.3022 37.4221C28.9327 39.5239 25.1481 41.1892 21.9408 41.8686C20.3357 42.2086 18.9062 42.2949 17.7579 42.0875C16.617 41.8814 15.7907 41.3946 15.3032 40.6118C14.8417 39.8706 14.7533 38.9134 15.1 37.7371C15.4485 36.5549 16.2274 35.1913 17.4362 33.7083L17.6712 33.4199L17.4629 33.1118C14.1172 28.1636 10.4177 23.3529 6.47407 18.8803L6.47394 18.8802C6.46375 18.8686 6.42644 18.8261 6.3878 18.7799C6.36841 18.7568 6.35043 18.7348 6.33612 18.7165C6.32529 18.7027 6.32043 18.6959 6.31955 18.6947C6.14936 18.4172 6.16695 17.969 6.62812 17.2439C7.07562 16.5402 7.8483 15.7334 8.81971 14.8881C10.7549 13.2042 13.3622 11.4662 15.3623 10.2185C16.6029 9.44471 19.2488 7.82746 21.7711 6.6852C23.0366 6.11213 24.2387 5.67372 25.2016 5.51064C26.2152 5.33898 26.7248 5.50779 26.9301 5.80439C26.9518 5.83585 26.9722 5.87087 26.9906 5.90998C29.3116 11.5347 32.0067 17.0005 34.9725 22.1897ZM36.7799 27.515L36.8918 27.2709L36.7502 27.0428C36.567 26.7476 36.401 26.462 36.231 26.1698C36.1027 25.9491 35.9721 25.7246 35.8303 25.4893L35.4522 24.8619L35.006 25.4429C34.21 26.4792 32.8991 27.6069 31.5754 28.6042C30.2602 29.5953 28.9671 30.4321 28.2342 30.8893C27.5012 31.3465 26.181 32.1398 24.7127 32.885C23.235 33.6351 21.6462 34.3163 20.366 34.575L19.6483 34.7201L20.0445 35.3361C20.1931 35.5672 20.3369 35.7833 20.4783 35.9958C20.6656 36.2773 20.8486 36.5523 21.0327 36.847L21.175 37.0747L21.4433 37.0817C21.7254 37.0891 22.1251 37.0135 22.5952 36.8803C23.0795 36.7432 23.6816 36.5322 24.3864 36.2388C25.7967 35.6519 27.6351 34.7282 29.7883 33.3851C31.9415 32.042 33.5798 30.797 34.7275 29.7883C35.301 29.2842 35.7555 28.8361 36.0919 28.4614C36.4184 28.0977 36.6623 27.7718 36.7799 27.515ZM7.77626 17.2269L6.67859 18.4759L8.28245 18.0398C9.86014 17.6108 13.0424 16.2389 17.4134 13.5123C21.7844 10.7858 24.4167 8.53068 25.4965 7.30203L26.5941 6.05302L24.9903 6.48913C23.4126 6.91813 20.2303 8.29002 15.8593 11.0166C11.4883 13.7431 8.85605 15.9982 7.77626 17.2269Z" fill="#050100" stroke="black"/>
</svg>
