<svg width="282" height="1024" viewBox="0 0 282 1024" fill="none" xmlns="http://www.w3.org/2000/svg">
<g opacity="0.3" clip-path="url(#clip0)">
<path d="M86.1452 338.56C57.0439 338.56 33.3507 362.112 33.3507 391.04L33.3507 596.352M86.1452 338.56C115.247 338.56 138.94 315.008 138.94 286.08L86.1452 338.56Z" stroke="#D6D4CC" stroke-width="4" stroke-miterlimit="10"/>
<path d="M60.3917 446.592C60.3917 461.437 48.285 473.472 33.3507 473.472C18.4163 473.472 6.30957 461.437 6.30957 446.592C6.30957 431.747 18.4163 419.712 33.3507 419.712C48.285 419.712 60.3917 431.747 60.3917 446.592Z" fill="#E5E5E5" stroke="#D6D4CC" stroke-width="4" stroke-miterlimit="10"/>
<path d="M60.3918 569.472C60.3918 584.317 48.285 596.352 33.3507 596.352C18.4163 596.352 6.30957 584.317 6.30957 569.472C6.30957 554.627 18.4163 542.592 33.3507 542.592C48.285 542.592 60.3918 554.627 60.3918 569.472Z" fill="#E5E5E5" stroke="#D6D4CC" stroke-width="4" stroke-miterlimit="10"/>
<path d="M191.734 697.856C220.836 697.856 244.529 721.408 244.529 750.336L244.529 955.648M191.734 697.856C162.633 697.856 138.94 674.304 138.94 645.376L191.734 697.856Z" stroke="#D6D4CC" stroke-width="4" stroke-miterlimit="10"/>
<path d="M271.57 805.76C271.57 820.605 259.463 832.64 244.529 832.64C229.594 832.64 217.488 820.605 217.488 805.76C217.488 790.915 229.594 778.88 244.529 778.88C259.463 778.88 271.57 790.915 271.57 805.76Z" fill="#E5E5E5" stroke="#D6D4CC" stroke-width="4" stroke-miterlimit="10"/>
<path d="M271.57 928.64C271.57 943.486 259.463 955.52 244.529 955.52C229.594 955.52 217.488 943.486 217.488 928.64C217.488 913.795 229.594 901.76 244.529 901.76C259.463 901.76 271.57 913.795 271.57 928.64Z" fill="#E5E5E5" stroke="#D6D4CC" stroke-width="4" stroke-miterlimit="10"/>
<path d="M138.94 68.48L138.94 778.88Z" fill="#E5E5E5"/>
<path d="M138.94 68.48L138.94 778.88" stroke="#D6D4CC" stroke-width="4" stroke-miterlimit="10"/>
<path d="M165.981 95.36C165.981 110.205 153.874 122.24 138.94 122.24C124.005 122.24 111.899 110.205 111.899 95.36C111.899 80.5146 124.005 68.48 138.94 68.48C153.874 68.48 165.981 80.5146 165.981 95.36Z" fill="#E5E5E5" stroke="#D6D4CC" stroke-width="4" stroke-miterlimit="10"/>
<path d="M165.981 218.24C165.981 233.085 153.874 245.12 138.94 245.12C124.005 245.12 111.899 233.085 111.899 218.24C111.899 203.395 124.005 191.36 138.94 191.36C153.874 191.36 165.981 203.395 165.981 218.24Z" fill="#E5E5E5" stroke="#D6D4CC" stroke-width="4" stroke-miterlimit="10"/>
<path d="M165.981 445.312C165.981 460.157 153.874 472.192 138.94 472.192C124.005 472.192 111.899 460.157 111.899 445.312C111.899 430.467 124.005 418.432 138.94 418.432C153.874 418.432 165.981 430.467 165.981 445.312Z" fill="#E5E5E5" stroke="#D6D4CC" stroke-width="4" stroke-miterlimit="10"/>
<path d="M165.981 569.472C165.981 584.317 153.874 596.352 138.94 596.352C124.005 596.352 111.899 584.317 111.899 569.472C111.899 554.627 124.005 542.592 138.94 542.592C153.874 542.592 165.981 554.627 165.981 569.472Z" fill="#E5E5E5" stroke="#D6D4CC" stroke-width="4" stroke-miterlimit="10"/>
<path d="M165.981 805.76C165.981 820.605 153.874 832.64 138.94 832.64C124.005 832.64 111.899 820.605 111.899 805.76C111.899 790.915 124.005 778.88 138.94 778.88C153.874 778.88 165.981 790.915 165.981 805.76Z" fill="#E5E5E5" stroke="#D6D4CC" stroke-width="4" stroke-miterlimit="10"/>
</g>
<defs>
<clipPath id="clip0">
<rect width="1024" height="282" fill="white" transform="matrix(4.37114e-08 1 1 -4.37114e-08 0 0)"/>
</clipPath>
</defs>
</svg>
