<svg width="407" height="112" viewBox="0 0 407 112" fill="none" xmlns="http://www.w3.org/2000/svg">
<path d="M134.564 34.2137C134.564 22.6557 143.925 13.2457 155.423 13.2457H237.027M134.564 34.2137C134.564 45.7717 125.203 55.1817 113.706 55.1817L134.564 34.2137Z" stroke="#D6D4CC" stroke-width="4" stroke-miterlimit="10"/>
<path d="M177.503 23.9854C183.403 23.9854 188.187 19.177 188.187 13.2457C188.187 7.31427 183.403 2.50594 177.503 2.50594C171.602 2.50594 166.819 7.31427 166.819 13.2457C166.819 19.177 171.602 23.9854 177.503 23.9854Z" fill="#B18BE8" stroke="#D6D4CC" stroke-width="4" stroke-miterlimit="10"/>
<path d="M226.343 23.9854C232.243 23.9854 237.027 19.177 237.027 13.2457C237.027 7.31427 232.243 2.50594 226.343 2.50594C220.442 2.50594 215.659 7.31427 215.659 13.2457C215.659 19.177 220.442 23.9854 226.343 23.9854Z" fill="#B18BE8" stroke="#D6D4CC" stroke-width="4" stroke-miterlimit="10"/>
<path d="M277.37 76.1498C277.37 87.7078 286.731 97.1178 298.229 97.1178H379.833M277.37 76.1498C277.37 64.5918 268.009 55.1817 256.512 55.1817L277.37 76.1498Z" stroke="#D6D4CC" stroke-width="4" stroke-miterlimit="10"/>
<path d="M320.258 107.858C326.159 107.858 330.942 103.049 330.942 97.1178C330.942 91.1864 326.159 86.3781 320.258 86.3781C314.358 86.3781 309.574 91.1864 309.574 97.1178C309.574 103.049 314.358 107.858 320.258 107.858Z" fill="#4ED1A1" stroke="#D6D4CC" stroke-width="4" stroke-miterlimit="10"/>
<path d="M369.098 107.858C374.999 107.858 379.782 103.049 379.782 97.1178C379.782 91.1864 374.999 86.3781 369.098 86.3781C363.198 86.3781 358.414 91.1864 358.414 97.1178C358.414 103.049 363.198 107.858 369.098 107.858Z" fill="#4ED1A1" stroke="#D6D4CC" stroke-width="4" stroke-miterlimit="10"/>
<path d="M27.2181 55.1817H309.574Z" fill="#B3E3FF"/>
<path d="M27.2181 55.1817H309.574" stroke="#D6D4CC" stroke-width="4" stroke-miterlimit="10"/>
<path d="M37.9019 65.9215C43.8024 65.9215 48.5856 61.1131 48.5856 55.1817C48.5856 49.2503 43.8024 44.442 37.9019 44.442C32.0014 44.442 27.2181 49.2503 27.2181 55.1817C27.2181 61.1131 32.0014 65.9215 37.9019 65.9215Z" fill="#B3E3FF" stroke="#D6D4CC" stroke-width="4" stroke-miterlimit="10"/>
<path d="M86.7419 65.9215C92.6423 65.9215 97.4256 61.1131 97.4256 55.1817C97.4256 49.2503 92.6423 44.442 86.7419 44.442C80.8414 44.442 76.0581 49.2503 76.0581 55.1817C76.0581 61.1131 80.8414 65.9215 86.7419 65.9215Z" fill="#B3E3FF" stroke="#D6D4CC" stroke-width="4" stroke-miterlimit="10"/>
<path d="M176.994 65.9215C182.895 65.9215 187.678 61.1131 187.678 55.1817C187.678 49.2503 182.895 44.442 176.994 44.442C171.094 44.442 166.31 49.2503 166.31 55.1817C166.31 61.1131 171.094 65.9215 176.994 65.9215Z" fill="#B3E3FF" stroke="#D6D4CC" stroke-width="4" stroke-miterlimit="10"/>
<path d="M226.343 65.9215C232.243 65.9215 237.027 61.1131 237.027 55.1817C237.027 49.2503 232.243 44.442 226.343 44.442C220.442 44.442 215.659 49.2503 215.659 55.1817C215.659 61.1131 220.442 65.9215 226.343 65.9215Z" fill="#B3E3FF" stroke="#D6D4CC" stroke-width="4" stroke-miterlimit="10"/>
<path d="M320.258 65.9215C326.159 65.9215 330.942 61.1131 330.942 55.1817C330.942 49.2503 326.159 44.442 320.258 44.442C314.358 44.442 309.574 49.2503 309.574 55.1817C309.574 61.1131 314.358 65.9215 320.258 65.9215Z" fill="#B3E3FF" stroke="#D6D4CC" stroke-width="4" stroke-miterlimit="10"/>
</svg>
