<svg width="282" height="1021" viewBox="0 0 282 1021" fill="none" xmlns="http://www.w3.org/2000/svg">
<g opacity="0.3" clip-path="url(#clip0)">
<path d="M195.855 335.56C224.956 335.56 248.649 359.112 248.649 388.04L248.649 593.352M195.855 335.56C166.754 335.56 143.06 312.008 143.06 283.08L195.855 335.56Z" stroke="#D6D4CC" stroke-width="4" stroke-miterlimit="10"/>
<path d="M221.608 443.592C221.608 458.437 233.715 470.472 248.649 470.472C263.584 470.472 275.69 458.437 275.69 443.592C275.69 428.747 263.584 416.712 248.649 416.712C233.715 416.712 221.608 428.747 221.608 443.592Z" fill="#E5E5E5" stroke="#D6D4CC" stroke-width="4" stroke-miterlimit="10"/>
<path d="M221.608 566.472C221.608 581.317 233.715 593.352 248.649 593.352C263.584 593.352 275.69 581.317 275.69 566.472C275.69 551.627 263.584 539.592 248.649 539.592C233.715 539.592 221.608 551.627 221.608 566.472Z" fill="#E5E5E5" stroke="#D6D4CC" stroke-width="4" stroke-miterlimit="10"/>
<path d="M90.2658 694.856C61.1644 694.856 37.4713 718.408 37.4713 747.336L37.4713 952.648M90.2658 694.856C119.367 694.856 143.06 671.304 143.06 642.376L90.2658 694.856Z" stroke="#D6D4CC" stroke-width="4" stroke-miterlimit="10"/>
<path d="M10.4303 802.76C10.4303 817.605 22.537 829.64 37.4714 829.64C52.4057 829.64 64.5124 817.605 64.5124 802.76C64.5125 787.915 52.4057 775.88 37.4714 775.88C22.537 775.88 10.4303 787.915 10.4303 802.76Z" fill="#E5E5E5" stroke="#D6D4CC" stroke-width="4" stroke-miterlimit="10"/>
<path d="M10.4303 925.64C10.4303 940.485 22.537 952.52 37.4714 952.52C52.4057 952.52 64.5124 940.485 64.5124 925.64C64.5125 910.795 52.4058 898.76 37.4714 898.76C22.537 898.76 10.4303 910.795 10.4303 925.64Z" fill="#E5E5E5" stroke="#D6D4CC" stroke-width="4" stroke-miterlimit="10"/>
<path d="M143.06 65.48L143.06 775.88Z" fill="#E5E5E5"/>
<path d="M143.06 65.48L143.06 775.88" stroke="#D6D4CC" stroke-width="4" stroke-miterlimit="10"/>
<path d="M116.019 92.36C116.019 107.205 128.126 119.24 143.06 119.24C157.995 119.24 170.101 107.205 170.101 92.36C170.101 77.5146 157.995 65.48 143.06 65.48C128.126 65.48 116.019 77.5146 116.019 92.36Z" fill="#E5E5E5" stroke="#D6D4CC" stroke-width="4" stroke-miterlimit="10"/>
<path d="M116.019 215.24C116.019 230.085 128.126 242.12 143.06 242.12C157.995 242.12 170.101 230.085 170.101 215.24C170.101 200.395 157.995 188.36 143.06 188.36C128.126 188.36 116.019 200.395 116.019 215.24Z" fill="#E5E5E5" stroke="#D6D4CC" stroke-width="4" stroke-miterlimit="10"/>
<path d="M116.019 442.312C116.019 457.157 128.126 469.192 143.06 469.192C157.995 469.192 170.101 457.157 170.101 442.312C170.101 427.467 157.995 415.432 143.06 415.432C128.126 415.432 116.019 427.467 116.019 442.312Z" fill="#E5E5E5" stroke="#D6D4CC" stroke-width="4" stroke-miterlimit="10"/>
<path d="M116.019 566.472C116.019 581.317 128.126 593.352 143.06 593.352C157.995 593.352 170.101 581.317 170.101 566.472C170.101 551.627 157.995 539.592 143.06 539.592C128.126 539.592 116.019 551.627 116.019 566.472Z" fill="#E5E5E5" stroke="#D6D4CC" stroke-width="4" stroke-miterlimit="10"/>
<path d="M116.019 802.76C116.019 817.605 128.126 829.64 143.06 829.64C157.995 829.64 170.101 817.605 170.101 802.76C170.101 787.915 157.995 775.88 143.06 775.88C128.126 775.88 116.019 787.915 116.019 802.76Z" fill="#E5E5E5" stroke="#D6D4CC" stroke-width="4" stroke-miterlimit="10"/>
</g>
<defs>
<clipPath id="clip0">
<rect width="1024" height="282" fill="white" transform="translate(282 -3) rotate(90)"/>
</clipPath>
</defs>
</svg>
