<svg width="512" height="512" viewBox="0 0 512 512" fill="none" xmlns="http://www.w3.org/2000/svg">
<g clip-path="url(#clip0)">
<path d="M165.866 263L115 210L165.866 157H186.212V194.589L208 210L186.212 225.01V263H165.866Z" fill="#A07D05"/>
<path d="M256 37.5C264.284 37.5 271 30.7843 271 22.5C271 14.2157 264.284 7.5 256 7.5C247.716 7.5 241 14.2157 241 22.5C241 30.7843 247.716 37.5 256 37.5Z" fill="#8AE7FF"/>
<path d="M256 130.9C264.284 130.9 271 124.184 271 115.9C271 107.616 264.284 100.9 256 100.9C247.716 100.9 241 107.616 241 115.9C241 124.184 247.716 130.9 256 130.9Z" fill="#00909A"/>
<path d="M256 224.3C264.284 224.3 271 217.584 271 209.3C271 201.016 264.284 194.3 256 194.3C247.716 194.3 241 201.016 241 209.3C241 217.584 247.716 224.3 256 224.3Z" fill="#A07D05"/>
<path d="M256 317.7C264.284 317.7 271 310.984 271 302.7C271 294.416 264.284 287.7 256 287.7C247.716 287.7 241 294.416 241 302.7C241 310.984 247.716 317.7 256 317.7Z" fill="#F54D27"/>
<path d="M256 411.1C264.284 411.1 271 404.384 271 396.1C271 387.816 264.284 381.1 256 381.1C247.716 381.1 241 387.816 241 396.1C241 404.384 247.716 411.1 256 411.1Z" fill="#81D2A6"/>
<path d="M256 504.5C264.284 504.5 271 497.784 271 489.5C271 481.216 264.284 474.5 256 474.5C247.716 474.5 241 481.216 241 489.5C241 497.784 247.716 504.5 256 504.5Z" fill="#8AE7FF"/>
<path d="M435.714 249L385 302.5L435.714 356H456V249H435.714Z" fill="#BA3A1D"/>
<path d="M435 356V249H338.849V286.944L317 302.5L338.849 317.652V356H435Z" fill="#F54D27"/>
<path d="M428.714 63L378 116.5L428.714 170H449V63H428.714Z" fill="#05828B"/>
<path d="M428 170V63H331.849V100.944L310 116.5L331.849 131.652V170H428Z" fill="#00909A"/>
<path d="M69 157H166V263H69V157Z" fill="#CD9F00"/>
<path d="M165.96 450L114 396L165.96 342H186.744V380.299L209 396L186.744 411.294V450H165.96Z" fill="#7BC69D"/>
<path d="M69 342H167V450H69V342Z" fill="#81D2A6"/>
<path d="M278.5 22.5C278.5 10.093 268.406 0 256 0C243.594 0 233.5 10.093 233.5 22.5C233.5 32.277 239.771 40.614 248.5 43.71V94.69C239.771 97.786 233.5 106.122 233.5 115.9C233.5 125.678 239.771 134.014 248.5 137.11V188.09C239.771 191.186 233.5 199.522 233.5 209.3C233.5 219.078 239.771 227.414 248.5 230.51V281.491C239.771 284.587 233.5 292.923 233.5 302.701C233.5 312.479 239.771 320.815 248.5 323.911V374.891C239.771 377.987 233.5 386.323 233.5 396.101C233.5 405.879 239.771 414.215 248.5 417.311V468.291C239.771 471.387 233.5 479.723 233.5 489.501C233.5 501.908 243.594 512.001 256 512.001C268.406 512.001 278.5 501.908 278.5 489.501C278.5 479.724 272.229 471.387 263.5 468.291V417.311C272.229 414.215 278.5 405.879 278.5 396.101C278.5 386.323 272.229 377.987 263.5 374.891V323.911C272.229 320.815 278.5 312.479 278.5 302.701C278.5 292.923 272.229 284.587 263.5 281.491V230.51C272.229 227.414 278.5 219.078 278.5 209.3C278.5 199.522 272.229 191.186 263.5 188.09V137.11C272.229 134.014 278.5 125.678 278.5 115.9C278.5 106.122 272.229 97.786 263.5 94.69V43.71C272.229 40.614 278.5 32.277 278.5 22.5ZM256 15C260.136 15 263.5 18.364 263.5 22.5C263.5 26.636 260.136 30 256 30C251.864 30 248.5 26.636 248.5 22.5C248.5 18.364 251.864 15 256 15ZM256 497C251.864 497 248.5 493.636 248.5 489.5C248.5 485.364 251.864 482 256 482C260.136 482 263.5 485.364 263.5 489.5C263.5 493.636 260.136 497 256 497ZM256 403.6C251.864 403.6 248.5 400.236 248.5 396.1C248.5 391.964 251.864 388.6 256 388.6C260.136 388.6 263.5 391.964 263.5 396.1C263.5 400.236 260.136 403.6 256 403.6ZM256 310.2C251.864 310.2 248.5 306.836 248.5 302.7C248.5 298.564 251.864 295.2 256 295.2C260.136 295.2 263.5 298.564 263.5 302.7C263.5 306.836 260.136 310.2 256 310.2ZM256 216.8C251.864 216.8 248.5 213.436 248.5 209.3C248.5 205.164 251.864 201.8 256 201.8C260.136 201.8 263.5 205.164 263.5 209.3C263.5 213.436 260.136 216.8 256 216.8ZM256 123.4C251.864 123.4 248.5 120.036 248.5 115.9C248.5 111.764 251.864 108.4 256 108.4C260.136 108.4 263.5 111.764 263.5 115.9C263.5 120.036 260.136 123.4 256 123.4Z" fill="#413000" fill-opacity="0.2"/>
<path d="M448.851 57H331.203C328.358 57 326.054 59.3064 326.054 62.1513V97.6818L306.169 111.799C304.799 112.771 303.99 114.351 304 116.032C304.011 117.712 304.84 119.282 306.221 120.237L326.054 133.952V169.849C326.054 172.694 328.358 175 331.203 175H448.851C451.695 175 454 172.694 454 169.849V62.1513C454 59.3064 451.695 57 448.851 57ZM443.703 164.697H336.351V131.251C336.351 129.56 335.521 127.976 334.131 127.014L318.125 115.945L334.183 104.545C335.543 103.578 336.352 102.012 336.352 100.343V67.3027H443.703V164.697Z" fill="black" fill-opacity="0.1"/>
<path d="M455.851 244H338.203C335.358 244 333.054 246.306 333.054 249.151V284.682L313.169 298.799C311.799 299.772 310.99 301.352 311 303.032C311.011 304.713 311.84 306.282 313.221 307.239L333.054 320.953V356.849C333.054 359.694 335.358 362 338.203 362H455.851C458.695 362 461 359.694 461 356.849V313.303C461 310.458 458.695 308.151 455.851 308.151C453.007 308.151 450.703 310.458 450.703 313.303V351.697H343.351V318.251C343.351 316.559 342.521 314.975 341.131 314.013L325.125 302.944L341.183 291.543C342.543 290.577 343.352 289.011 343.352 287.342V254.303H450.703V292.697C450.703 295.542 453.007 297.849 455.851 297.849C458.695 297.849 461 295.542 461 292.697V249.151C461 246.306 458.695 244 455.851 244Z" fill="#524728" fill-opacity="0.1"/>
<path d="M211.831 205.87L191.946 191.992V157.064C191.946 154.267 189.642 152 186.797 152H69.1487C66.3046 152 64 154.267 64 157.064V262.936C64 265.733 66.3046 268 69.1487 268H186.797C189.642 268 191.946 265.733 191.946 262.936V227.648L211.779 214.165C213.161 213.226 213.99 211.683 214 210.031C214.01 208.379 213.201 206.826 211.831 205.87ZM183.869 220.827C182.479 221.772 181.649 223.33 181.649 224.992V257.872H74.2975V162.128H181.649V194.608C181.649 196.249 182.457 197.788 183.818 198.738L199.876 209.945L183.869 220.827Z" fill="#413000" fill-opacity="0.1"/>
<path d="M211.831 391.799L191.946 377.682V342.151C191.946 339.306 189.642 337 186.797 337H69.1487C66.3046 337 64 339.306 64 342.151V449.849C64 452.694 66.3046 455 69.1487 455H186.797C189.642 455 191.946 452.694 191.946 449.849V413.953L211.779 400.238C213.161 399.282 213.99 397.713 214 396.032C214.01 394.352 213.201 392.771 211.831 391.799ZM183.869 407.014C182.479 407.975 181.649 409.56 181.649 411.251V444.697H74.2975V347.303H181.649V380.343C181.649 382.012 182.457 383.578 183.818 384.544L199.876 395.944L183.869 407.014Z" fill="#3D2E05" fill-opacity="0.1"/>
</g>
<defs>
<clipPath id="clip0">
<rect width="512" height="512" fill="white"/>
</clipPath>
</defs>
</svg>
