<svg id="Capa_1" enable-background="new 0 0 511.277 511.277" height="512" viewBox="0 0 511.277 511.277" width="512" xmlns="http://www.w3.org/2000/svg"><g><g><path d="m470.375 194.154c5.158 0 9.339 4.181 9.339 9.339v261.658c0 21.333-17.294 38.627-38.627 38.627h-370.896c-21.333 0-38.627-17.294-38.627-38.627v-261.658c0-5.158 4.181-9.339 9.339-9.339z" fill="#b3e5ee"/><path d="m59.879 194.154v264.009c0 17.474 14.211 31.689 31.68 31.689h329.16c17.468 0 31.68-14.216 31.68-31.689v-264.009z" fill="#86d7e5"/><path d="m424.459 175.283h-336.64c-4.39 0-7.94 3.56-7.94 7.95v238.87l108.484 39.625 67.776 7.795 162.441-29.323 13.818-18.097v-238.87c.001-4.39-3.549-7.95-7.939-7.95z" fill="#f9f7f7"/><path d="m248.639 175.283h15v294.57h-15z" fill="#f8f3f2"/><path d="m163.57 175.283 43.989 68.482v5.313c0 8.797 4.383 16.585 11.076 21.31v8.354c0 17.481 14.222 31.703 31.703 31.703h11.604c17.481 0 31.703-14.222 31.703-31.703v-8.354c6.693-4.725 11.076-12.513 11.076-21.31v-5.313l43.989-68.482z" fill="#f8f3f2"/><g><g><g id="XMLID_248_"><g><g><path d="m121.512 430.53v-255.247h-33.693c-4.39 0-7.94 3.56-7.94 7.95v238.87l42.984 15.7c-.86-2.263-1.351-4.708-1.351-7.273z" fill="#f8f3f2"/></g><g fill="#f2eae7"><path d="m256.139 469.523v.33h-164.58c-6.45 0-11.68-5.23-11.68-11.69v-36.06h128.84c26.19 0 47.42 21.23 47.42 47.42z"/><path d="m432.399 422.103v36.06c0 6.46-5.23 11.69-11.68 11.69h-164.58v-.33c0-26.19 21.23-47.42 47.42-47.42z"/></g></g></g></g><path d="m278.643 248.154h-45.008v30.588c0 9.224 7.478 16.702 16.702 16.702h11.604c9.225 0 16.702-7.478 16.702-16.702z" fill="#a59ca6"/><path d="m278.643 248.154h-32.133-3.803-9.072v30.588c0 9.224 7.478 16.702 16.702 16.702h11.604c6.464 0 12.06-3.679 14.836-9.052-.644.075-1.296.125-1.961.125h-11.604c-7.338 0-13.563-4.735-15.801-11.316-.842-2.475.993-5.048 3.608-5.048h27.625v-21.999z" fill="#8f8390"/><path d="m355.881 107.242c0-55.086-44.656-99.743-99.743-99.743s-99.743 44.656-99.743 99.743c0 21.371 6.724 41.169 18.168 57.402l47.995 74.718v9.716c0 6.117 4.959 11.076 11.076 11.076h45.008c6.117 0 11.076-4.959 11.076-11.076v-9.716l47.995-74.718c11.444-16.232 18.168-36.031 18.168-57.402z" fill="#fbe88c"/><path d="m216.626 177.372c-11.965-17.547-18.995-38.949-18.995-62.051 0-51.393 34.771-94.384 81.322-105.196-7.33-1.716-14.961-2.625-22.814-2.625-55.086 0-99.743 44.656-99.743 99.743 0 21.371 6.724 41.169 18.168 57.402l47.995 74.718v9.716c0 6.117 4.959 11.076 11.076 11.076h28.505z" fill="#fbe372"/></g><g fill="#ede2dd"><path d="m259.873 451.046c-2.404 5.678-3.735 11.922-3.735 18.477v.33h164.58c6.45 0 11.68-5.23 11.68-11.69v-7.116h-172.525z"/><path d="m142.028 451.046c-11.331 0-20.516-9.185-20.516-20.516v-8.427h-41.633v36.06c0 6.46 5.23 11.69 11.68 11.69h164.58v-.33c0-6.555-1.33-12.798-3.735-18.477z"/></g></g><g><path d="m470.375 186.654h-30.471v-3.422c0-8.518-6.93-15.447-15.448-15.447h-60.097c-4.142 0-7.5 3.357-7.5 7.5s3.358 7.5 7.5 7.5h60.097c.247 0 .448.2.448.447v91.447c0 4.143 3.358 7.5 7.5 7.5s7.5-3.357 7.5-7.5v-73.025h30.471c1.014 0 1.839.825 1.839 1.839v261.658c0 17.163-13.963 31.126-31.126 31.126h-370.898c-17.163 0-31.126-13.963-31.126-31.126v-261.658c0-1.014.825-1.839 1.839-1.839h31.471v256.513c0 10.576 8.604 19.181 19.181 19.181h329.167c10.577 0 19.181-8.604 19.181-19.181v-151.499c0-4.143-3.358-7.5-7.5-7.5s-7.5 3.357-7.5 7.5v107.931h-121.344c-15.716 0-29.9 6.646-39.92 17.262v-97.015c0-4.143-3.358-7.5-7.5-7.5s-7.5 3.357-7.5 7.5v97.016c-10.02-10.616-24.205-17.262-39.92-17.262h-34.08c-4.142 0-7.5 3.357-7.5 7.5s3.358 7.5 7.5 7.5h34.08c19.563 0 35.873 14.149 39.263 32.748h-156.427c-2.306 0-4.181-1.875-4.181-4.181v-28.567h55.275c4.142 0 7.5-3.357 7.5-7.5s-3.358-7.5-7.5-7.5h-55.275v-231.368c0-.247.201-.447.448-.447h60.097c4.142 0 7.5-3.357 7.5-7.5s-3.358-7.5-7.5-7.5h-60.097c-8.518 0-15.448 6.93-15.448 15.447v3.422h-31.471c-9.285 0-16.839 7.554-16.839 16.839v261.658c0 25.434 20.692 46.126 46.126 46.126h370.896c25.434 0 46.126-20.692 46.126-46.126v-261.658c.001-9.285-7.552-16.839-16.837-16.839zm-166.816 242.945h121.344v28.568c0 2.306-1.875 4.181-4.181 4.181h-156.425c3.389-18.6 19.699-32.749 39.262-32.749z"/><path d="m156.143 105.231c4.117.382 7.782-2.639 8.171-6.763 2.145-22.744 12.647-43.802 29.575-59.294 17.033-15.588 39.14-24.174 62.25-24.174 50.863 0 92.243 41.38 92.243 92.242 0 19.139-5.809 37.493-16.798 53.081-.062.088-.122.178-.181.268l-47.994 74.718c-.777 1.21-1.19 2.616-1.19 4.054v9.716c0 1.972-1.604 3.576-3.576 3.576h-.49l4.778-81.075h8.544c12.226 0 22.172-9.946 22.172-22.171v-.91c0-12.225-9.946-22.171-22.172-22.171-11.721 0-21.443 9.166-22.133 20.867l-.553 9.385h-26.301l-.553-9.385c-.689-11.701-10.412-20.867-22.133-20.867-12.226 0-22.172 9.946-22.172 22.171v.91c0 12.225 9.946 22.171 22.172 22.171h8.544l4.775 81.023c-1.727-.252-3.062-1.728-3.062-3.524v-9.716c0-1.438-.413-2.844-1.189-4.054l-47.995-74.718c-.058-.09-.118-.18-.18-.268-6.901-9.79-11.761-20.669-14.442-32.336-.929-4.037-4.959-6.556-8.99-5.629-4.037.929-6.557 4.953-5.629 8.99 3.108 13.519 8.729 26.129 16.707 37.482l46.72 72.732v7.515c0 7.573 4.561 14.092 11.076 16.981v12.683c0 13.346 10.857 24.203 24.203 24.203h11.604c13.345 0 24.203-10.857 24.203-24.203v-12.683c6.514-2.889 11.076-9.407 11.076-16.981v-7.515l46.719-72.732c12.72-18.101 19.443-39.395 19.443-61.589-.004-59.133-48.113-107.241-107.246-107.241-26.868 0-52.572 9.983-72.377 28.109-19.677 18.01-31.887 42.496-34.381 68.951-.39 4.125 2.638 7.783 6.762 8.171zm128.173 42.846c.223-3.785 3.368-6.75 7.159-6.75 3.955 0 7.172 3.217 7.172 7.171v.91c0 3.954-3.217 7.171-7.172 7.171h-7.66zm-64.514 8.502c-3.955 0-7.172-3.217-7.172-7.171v-.91c0-3.954 3.217-7.171 7.172-7.171 3.792 0 6.936 2.965 7.159 6.75l.501 8.502zm48.103 15-4.777 81.075h-14.978l-4.777-81.075zm3.238 107.163c0 5.074-4.128 9.203-9.203 9.203h-11.604c-5.074 0-9.203-4.129-9.203-9.203v-11.088h30.009v11.088z"/><path d="m387.513 56.951c1.757 0 3.521-.614 4.945-1.864l16.364-14.368c3.113-2.732 3.42-7.472.688-10.584s-7.471-3.42-10.584-.688l-16.364 14.368c-3.113 2.732-3.42 7.472-.688 10.584 1.483 1.689 3.556 2.552 5.639 2.552z"/><path d="m382.562 102.184 16.364 14.369c1.424 1.251 3.188 1.864 4.946 1.864 2.083 0 4.156-.863 5.639-2.552 2.733-3.112 2.425-7.851-.687-10.584l-16.364-14.369c-3.113-2.734-7.851-2.425-10.584.688-2.734 3.112-2.427 7.85.686 10.584z"/><path d="m103.455 40.719 16.364 14.368c1.424 1.251 3.188 1.864 4.945 1.864 2.083 0 4.156-.863 5.639-2.552 2.733-3.112 2.425-7.852-.688-10.584l-16.364-14.368c-3.112-2.734-7.852-2.425-10.584.688-2.733 3.112-2.425 7.851.688 10.584z"/><path d="m108.406 118.417c1.757 0 3.521-.614 4.946-1.864l16.364-14.369c3.112-2.733 3.42-7.472.687-10.584-2.732-3.112-7.471-3.42-10.584-.688l-16.364 14.369c-3.112 2.733-3.42 7.472-.687 10.584 1.482 1.689 3.554 2.552 5.638 2.552z"/><path d="m189.782 260.154c0-4.143-3.358-7.5-7.5-7.5h-73.879c-4.142 0-7.5 3.357-7.5 7.5s3.358 7.5 7.5 7.5h73.879c4.142 0 7.5-3.357 7.5-7.5z"/><path d="m205.13 290.805h-83.179c-4.142 0-7.5 3.357-7.5 7.5s3.358 7.5 7.5 7.5h83.179c4.142 0 7.5-3.357 7.5-7.5s-3.358-7.5-7.5-7.5z"/><path d="m205.13 327.346h-83.179c-4.142 0-7.5 3.357-7.5 7.5s3.358 7.5 7.5 7.5h83.179c4.142 0 7.5-3.357 7.5-7.5s-3.358-7.5-7.5-7.5z"/><path d="m205.13 363.887h-83.179c-4.142 0-7.5 3.357-7.5 7.5s3.358 7.5 7.5 7.5h83.179c4.142 0 7.5-3.357 7.5-7.5s-3.358-7.5-7.5-7.5z"/><path d="m411.375 260.154c0-4.143-3.358-7.5-7.5-7.5h-73.879c-4.142 0-7.5 3.357-7.5 7.5s3.358 7.5 7.5 7.5h73.879c4.142 0 7.5-3.357 7.5-7.5z"/><path d="m390.326 290.805h-83.179c-4.142 0-7.5 3.357-7.5 7.5s3.358 7.5 7.5 7.5h83.179c4.142 0 7.5-3.357 7.5-7.5s-3.358-7.5-7.5-7.5z"/><path d="m390.326 327.346h-83.179c-4.142 0-7.5 3.357-7.5 7.5s3.358 7.5 7.5 7.5h83.179c4.142 0 7.5-3.357 7.5-7.5s-3.358-7.5-7.5-7.5z"/><path d="m390.326 363.887h-83.179c-4.142 0-7.5 3.357-7.5 7.5s3.358 7.5 7.5 7.5h83.179c4.142 0 7.5-3.357 7.5-7.5s-3.358-7.5-7.5-7.5z"/></g></g></svg>