<?xml version="1.0"?>
<svg xmlns="http://www.w3.org/2000/svg" xmlns:xlink="http://www.w3.org/1999/xlink" xmlns:svgjs="http://svgjs.com/svgjs" version="1.1" width="512" height="512" x="0" y="0" viewBox="0 0 512 512" style="enable-background:new 0 0 512 512" xml:space="preserve" class=""><g>
<path xmlns="http://www.w3.org/2000/svg" style="" d="M501.333,96v362.667c0,23.564-19.103,42.667-42.667,42.667H53.333  c-23.564,0-42.667-19.103-42.667-42.667V96H501.333z" fill="#ffffff" data-original="#ffffff"/>
<g xmlns="http://www.w3.org/2000/svg">
	<path style="" d="M501.333,53.333V96H10.667V53.333c0-23.564,19.103-42.667,42.667-42.667h405.333   C482.231,10.667,501.333,29.769,501.333,53.333z" fill="#87d2f3" data-original="#87d2f3" class=""/>
	<path style="" d="M437.333,245.333V294.4l-42.667,68.267h32v10.667H53.333c-23.564,0-42.667-19.103-42.667-42.667   v-128c0-23.564,19.103-42.667,42.667-42.667h341.333c23.564,0,42.667,19.103,42.667,42.667V245.333z" fill="#87d2f3" data-original="#87d2f3" class=""/>
</g>
<path xmlns="http://www.w3.org/2000/svg" style="" d="M437.333,294.4L448,277.333l53.333,85.333h-32v64h-42.667v-53.333v-10.667h-32L437.333,294.4z" fill="#ffffff" data-original="#ffffff"/>
<g xmlns="http://www.w3.org/2000/svg">
	<path style="" d="M458.667,0H53.333C23.893,0.035,0.035,23.893,0,53.333V128h21.333V53.333c0-17.673,14.327-32,32-32   h405.333c17.673,0,32,14.327,32,32V288H512V53.333C511.965,23.893,488.107,0.035,458.667,0z" fill="#323232" data-original="#2170a6" class=""/>
	<path style="" d="M490.667,458.667c0,17.673-14.327,32-32,32H53.333c-17.673,0-32-14.327-32-32v-53.333H0v53.333   C0.035,488.107,23.893,511.965,53.333,512h405.333c29.441-0.035,53.298-23.893,53.333-53.333v-53.333h-21.333V458.667z" fill="#323232" data-original="#2170a6" class=""/>
	<path style="" d="M42.667,85.333h426.667v21.333H42.667V85.333z" fill="#323232" data-original="#2170a6" class=""/>
	<path style="" d="M53.333,42.667h21.333V64H53.333V42.667z" fill="#323232" data-original="#2170a6" class=""/>
	<path style="" d="M96,42.667h21.333V64H96V42.667z" fill="#323232" data-original="#2170a6" class=""/>
	<path style="" d="M437.333,42.667h21.333V64h-21.333V42.667z" fill="#323232" data-original="#2170a6" class=""/>
	<path style="" d="M426.667,437.333h42.667c5.891,0,10.667-4.776,10.667-10.667v-53.333h21.333   c5.891,0,10.667-4.776,10.667-10.667c0-1.999-0.562-3.958-1.621-5.653l-53.333-85.333c-3.103-5.007-9.678-6.551-14.686-3.448   c-1.4,0.868-2.58,2.048-3.448,3.448l-53.333,85.333c-3.122,4.996-1.604,11.576,3.392,14.699c1.708,1.067,3.682,1.629,5.696,1.621   H416v53.333C416,432.558,420.776,437.333,426.667,437.333z M413.867,352L448,297.461L482.133,352h-12.8   c-5.891,0-10.667,4.776-10.667,10.667V416h-21.333v-53.333c0-5.891-4.776-10.667-10.667-10.667H413.867z" fill="#323232" data-original="#2170a6" class=""/>
	<path style="" d="M53.333,384h309.333v-21.333H53.333c-17.673,0-32-14.327-32-32v-128c0-17.673,14.327-32,32-32   h341.333c17.673,0,32,14.327,32,32v42.667H448v-42.667c-0.035-29.441-23.893-53.298-53.333-53.333H53.333   C23.893,149.369,0.035,173.226,0,202.667v128C0.035,360.107,23.893,383.965,53.333,384z" fill="#323232" data-original="#2170a6" class=""/>
	<path style="" d="M170.667,330.667v-96c0-17.673-14.327-32-32-32H96c-17.673,0-32,14.327-32,32v96h21.333v-53.333h64   v53.333H170.667z M85.333,256v-21.333C85.333,228.776,90.109,224,96,224h42.667c5.891,0,10.667,4.776,10.667,10.667V256H85.333z" fill="#323232" data-original="#2170a6" class=""/>
	<path style="" d="M202.667,202.667c-5.891,0-10.667,4.776-10.667,10.667V320c0,5.891,4.776,10.667,10.667,10.667   h42.667c17.673,0,32-14.327,32-32v-64c0-17.673-14.327-32-32-32H202.667z M256,234.667v64c0,5.891-4.776,10.667-10.667,10.667h-32   V224h32C251.224,224,256,228.776,256,234.667z" fill="#323232" data-original="#2170a6" class=""/>
	<path style="" d="M309.333,202.667c-5.891,0-10.667,4.776-10.667,10.667V320c0,5.891,4.776,10.667,10.667,10.667H352   c17.673,0,32-14.327,32-32v-64c0-17.673-14.327-32-32-32H309.333z M362.667,234.667v64c0,5.891-4.776,10.667-10.667,10.667h-32V224   h32C357.891,224,362.667,228.776,362.667,234.667z" fill="#323232" data-original="#2170a6" class=""/>
</g>
<g xmlns="http://www.w3.org/2000/svg">
</g>
<g xmlns="http://www.w3.org/2000/svg">
</g>
<g xmlns="http://www.w3.org/2000/svg">
</g>
<g xmlns="http://www.w3.org/2000/svg">
</g>
<g xmlns="http://www.w3.org/2000/svg">
</g>
<g xmlns="http://www.w3.org/2000/svg">
</g>
<g xmlns="http://www.w3.org/2000/svg">
</g>
<g xmlns="http://www.w3.org/2000/svg">
</g>
<g xmlns="http://www.w3.org/2000/svg">
</g>
<g xmlns="http://www.w3.org/2000/svg">
</g>
<g xmlns="http://www.w3.org/2000/svg">
</g>
<g xmlns="http://www.w3.org/2000/svg">
</g>
<g xmlns="http://www.w3.org/2000/svg">
</g>
<g xmlns="http://www.w3.org/2000/svg">
</g>
<g xmlns="http://www.w3.org/2000/svg">
</g>
</g></svg>
