<svg id="Capa_1" enable-background="new 0 0 512 512" height="512" viewBox="0 0 512 512" width="512" xmlns="http://www.w3.org/2000/svg"><g><g><path d="m466.366 222.867h21.567c9.15 0 16.567 7.417 16.567 16.567v33.133c0 9.15-7.417 16.567-16.567 16.567h-21.567z" fill="#e9f1ff"/><path d="m487.933 222.867h-21.567v.072c8.477.728 15.134 7.829 15.134 16.494v33.133c0 8.666-6.656 15.767-15.134 16.494v.072h21.567c9.15 0 16.567-7.417 16.567-16.567v-33.133c0-9.148-7.417-16.565-16.567-16.565z" fill="#d7e4f7"/><path d="m335.087 55.62h-158.174c-55.316 21.85-99.409 65.946-121.271 121.256l-.05 158.144c21.839 55.342 65.925 99.46 121.251 121.332l158.201.046c55.35-21.85 99.469-65.972 121.33-121.316v-158.183c-21.855-55.33-65.957-99.423-121.287-121.279zm23.245 254.97c-10.836 20.271-27.524 36.937-47.8 47.765l.003.006-54.53 56.474-54.65-56.532.002-.009c-20.248-10.841-36.91-27.508-47.726-47.772l-56.47-54.578 56.528-54.575.008.004c10.831-20.237 27.481-36.893 47.727-47.712l54.56-45.512 54.593 45.512c20.259 10.826 36.918 27.497 47.748 47.752l.008-.003 56.517 52.142z" fill="#e9f1ff"/><path d="m222.867 45.634v-21.567c0-9.15 7.417-16.567 16.567-16.567h33.133c9.15 0 16.567 7.417 16.567 16.567v21.567z" fill="#e9f1ff"/><path d="m272.567 7.5h-23c9.15 0 16.567 7.417 16.567 16.567v21.567h23v-21.567c-.001-9.15-7.418-16.567-16.567-16.567z" fill="#d7e4f7"/><path d="m289.133 466.366v21.567c0 9.15-7.417 16.567-16.567 16.567h-33.133c-9.149 0-16.567-7.417-16.567-16.567v-21.567z" fill="#e9f1ff"/><path d="m266.133 466.366v21.567c0 9.15-7.417 16.567-16.567 16.567h23c9.15 0 16.567-7.417 16.567-16.567v-21.567z" fill="#d7e4f7"/><path d="m45.634 289.133h-21.567c-9.15 0-16.567-7.417-16.567-16.567v-33.133c0-9.149 7.417-16.567 16.567-16.567h21.567z" fill="#e9f1ff"/><path d="m456.375 176.899c-21.855-55.331-65.958-99.424-121.288-121.28h-23.047c79.835 31.516 136.327 109.344 136.327 200.381 0 91.053-56.512 168.893-136.369 200.397h23.047c55.35-21.85 99.47-65.973 121.33-121.318z" fill="#d7e4f7"/><g fill="#ff405c"><path d="m176.913 55.62 24.51 98.041c16.266-8.693 34.844-13.627 54.577-13.627 19.732 0 38.31 4.934 54.577 13.627l24.51-98.041c-24.484-9.672-51.165-14.987-79.087-14.987s-54.603 5.315-79.087 14.987z"/><path d="m40.633 256c0 27.901 5.306 54.562 14.964 79.031l98.035-24.509c-8.675-16.254-13.598-34.812-13.598-54.522 0-19.754 4.945-38.351 13.656-54.631l-98.046-24.512c-9.687 24.5-15.011 51.2-15.011 79.143z"/><path d="m310.536 358.361c-16.257 8.679-34.82 13.606-54.536 13.606-19.76 0-38.362-4.948-54.645-13.663l-24.512 98.048c24.503 9.689 51.208 15.015 79.157 15.015 27.906 0 54.572-5.308 79.045-14.969z"/><path d="m456.375 176.899-98.042 24.51c8.697 16.27 13.634 34.852 13.634 54.59s-4.937 38.32-13.634 54.59l98.042 24.51c9.675-24.488 14.992-51.173 14.992-79.101s-5.318-54.611-14.992-79.099z"/></g><path d="m456.375 176.901s0-.001-.001-.001l-21.018 5.254c8.409 23.035 13.01 47.901 13.01 73.846s-4.601 50.812-13.01 73.846l21.018 5.254s0-.001.001-.001c9.675-24.487 14.992-51.172 14.992-79.099s-5.317-54.612-14.992-79.099z" fill="#d0004f"/><path d="m335.087 55.62c-24.484-9.672-51.165-14.987-79.087-14.987-3.858 0-7.692.106-11.5.307 31.712 1.669 61.603 10.203 88.223 24.135z" fill="#d0004f"/><path d="m335.045 456.397-2.363-9.451c-26.61 13.919-56.486 22.446-88.182 24.114 3.808.2 7.642.307 11.5.307 27.906 0 54.572-5.309 79.045-14.97z" fill="#d0004f"/></g><path d="m495.434 216.57v-59.97c0-77.214-62.818-140.033-140.033-140.033h-59.97c-3.161-9.608-12.213-16.567-22.865-16.567h-33.133c-10.652 0-19.704 6.959-22.863 16.567h-59.97c-77.214 0-140.033 62.819-140.033 140.033v59.969c-9.608 3.16-16.567 12.213-16.567 22.864v33.134c0 10.652 6.959 19.704 16.567 22.864v59.969c0 77.214 62.819 140.033 140.033 140.033h59.969c3.16 9.608 12.212 16.567 22.863 16.567h33.133c10.652 0 19.704-6.959 22.864-16.567h59.97c77.215 0 140.033-62.819 140.033-140.033v-59.97c9.608-3.16 16.566-12.212 16.566-22.864v-33.134c.002-10.65-6.956-19.703-16.564-22.862zm1.566 31.93h-18.271c-.2-6.091-.644-12.138-1.326-18.133h10.53c4.999 0 9.066 4.067 9.066 9.066v9.067zm-241 215.367c-24.644 0-48.295-4.321-70.248-12.228l20.647-82.586c15.189 6.69 31.967 10.414 49.601 10.414 17.315 0 34.051-3.524 49.505-10.307l20.63 82.519c-21.922 7.881-45.534 12.188-70.135 12.188zm-195.638-278.099 82.579 20.645c-6.686 15.185-10.408 31.959-10.408 49.587 0 17.586 3.704 34.32 10.359 49.476l-82.576 20.644c-7.878-21.918-12.183-45.524-12.183-70.12 0-24.138 4.209-47.879 12.229-70.232zm89.596 133.403c10.493 17.548 25.215 32.286 42.75 42.799l-21.005 84.018c-46.996-20.934-84.843-58.805-105.747-105.817zm190.228 126.866-20.988-83.955c3.998-2.394 7.892-5.012 11.65-7.881 3.292-2.513 3.924-7.22 1.411-10.512-2.514-3.293-7.219-3.925-10.513-1.412-19.019 14.517-41.753 22.189-65.746 22.189-59.809 0-108.467-48.658-108.467-108.467s48.658-108.466 108.467-108.466 108.467 48.658 108.467 108.467c0 24.307-7.855 47.278-22.717 66.431-2.539 3.272-1.944 7.984 1.328 10.523 3.271 2.539 7.983 1.945 10.523-1.328 3.091-3.984 5.909-8.116 8.462-12.373l83.949 20.987c-20.926 47.018-58.802 84.884-105.826 105.797zm-84.186-397.904c24.617 0 48.243 4.312 70.177 12.203l-20.646 82.58c-15.171-6.671-31.924-10.383-49.531-10.383s-34.361 3.713-49.532 10.384l-20.645-82.58c22.331-8.005 46.049-12.204 70.177-12.204zm63.225 101.857 21.003-84.009c47.005 20.917 84.865 58.774 105.786 105.777l-84.011 21.003c-10.505-17.54-25.236-32.269-42.778-42.771zm132.434 176.201-82.51-20.627c6.796-15.461 10.317-32.214 10.317-49.564 0-17.613-3.715-34.371-10.39-49.546l82.582-20.645c7.894 21.938 12.208 45.569 12.208 70.191s-4.313 48.254-12.207 70.191zm28.775-169.591v58.767h-5.255c-8.072-44.058-29.237-84.607-61.587-116.957-32.351-32.351-72.9-53.516-116.958-61.588v-5.255h58.766c68.944 0 125.034 56.09 125.034 125.033zm-198.801-132.533v10.531c-5.995-.682-12.042-1.126-18.133-1.326v-18.272h9.066c4.999 0 9.067 4.067 9.067 9.067zm-42.2-9.067h9.067v18.273c-6.079.204-12.128.647-18.133 1.341v-10.547c0-5 4.067-9.067 9.066-9.067zm-82.833 16.567h58.767v5.303c-13.808 2.558-27.312 6.416-40.343 11.495-.561.146-1.087.355-1.58.613-23.209 9.252-44.876 22.412-63.993 39.111-3.12 2.725-3.439 7.463-.714 10.582 2.726 3.119 7.462 3.439 10.583.714 15.827-13.825 33.532-25.04 52.45-33.423l21.007 84.028c-17.529 10.494-32.251 25.208-42.753 42.732l-84.033-21.008c8.278-18.667 19.313-36.152 32.888-51.81 2.713-3.13 2.375-7.867-.754-10.58-3.13-2.713-7.867-2.375-10.58.754-16.422 18.942-29.39 40.371-38.54 63.308-.262.501-.476 1.036-.623 1.607-5.086 13.041-8.946 26.557-11.507 40.375h-5.307v-58.768c-.001-68.943 56.089-125.033 125.032-125.033zm-132.533 198.8h10.55c-.695 6.006-1.139 12.055-1.344 18.133h-18.273v-9.067c0-4.999 4.067-9.066 9.067-9.066zm-9.067 33.133h18.272c.2 6.091.643 12.138 1.326 18.133h-10.531c-5 0-9.067-4.067-9.067-9.066zm16.567 91.9v-58.767h5.255c8.072 44.058 29.237 84.607 61.588 116.957 32.35 32.351 72.899 53.516 116.957 61.587v5.255h-58.767c-68.943.001-125.033-56.089-125.033-125.032zm198.8 132.533v-10.531c5.995.682 12.043 1.126 18.133 1.326v18.272h-9.067c-4.999 0-9.066-4.067-9.066-9.067zm42.199 9.067h-9.066v-18.272c6.09-.2 12.138-.643 18.133-1.326v10.531c0 5-4.068 9.067-9.067 9.067zm82.834-16.567h-58.768v-5.255c44.058-8.072 84.607-29.237 116.958-61.588 32.35-32.35 53.515-72.899 61.587-116.957h5.255v58.767c.002 68.943-56.088 125.033-125.032 125.033zm132.534-198.8h-10.53c.682-5.995 1.126-12.043 1.326-18.133h18.27v9.067c0 4.999-4.067 9.066-9.066 9.066z"/></g></svg>