<?xml version="1.0" encoding="iso-8859-1"?>
<!-- Generator: Adobe Illustrator 19.0.0, SVG Export Plug-In . SVG Version: 6.00 Build 0)  -->
<svg xmlns="http://www.w3.org/2000/svg" xmlns:xlink="http://www.w3.org/1999/xlink" version="1.1" id="Layer_1" x="0px" y="0px" viewBox="0 0 512 512" style="enable-background:new 0 0 512 512;" xml:space="preserve" width="512" height="512">
<g id="XMLID_682_">
	<g id="XMLID_683_">
		<g id="XMLID_684_">
			<g id="XMLID_685_">
				<path id="XMLID_2382_" style="fill:#BDDFF4;" d="M301.421,395.954l-6.392-41.927h-78.059l-6.392,41.927      c-2.509,16.459-10.041,31.742-21.565,43.758l-8.22,8.572c-6.942,7.239-1.812,19.268,8.218,19.268h133.977      c10.03,0,15.16-12.029,8.218-19.268l-8.22-8.572C311.462,427.696,303.931,412.413,301.421,395.954z"/>
				<path id="XMLID_2379_" style="fill:#ADC9E2;" d="M322.987,467.548h-25.05c10.032,0,15.167-12.024,8.221-19.266l-8.221-8.574      c-11.523-12.013-19.061-27.294-21.566-43.759l-6.388-41.925h25.05l6.388,41.925c2.505,16.465,10.043,31.746,21.566,43.759      l8.221,8.574C338.154,455.524,333.019,467.548,322.987,467.548z"/>
				<path id="XMLID_690_" style="fill:#89B4C9;" d="M504.5,67.14v284.14c0,9.433-7.647,17.08-17.08,17.08H24.58      c-9.433,0-17.08-7.647-17.08-17.08V67.14c0-9.433,7.647-17.08,17.08-17.08h45.514c6.245,0,10.879,5.646,9.836,11.803      c-0.691,4.077-1.05,8.267-1.05,12.537c0,40.829,32.859,73.987,73.587,74.455c40.938,0.47,74.939-32.789,75.329-73.728      c0.043-4.537-0.319-8.987-1.054-13.308c-1.044-6.139,3.612-11.759,9.839-11.759H487.42C496.853,50.06,504.5,57.707,504.5,67.14z      "/>
				<path id="XMLID_693_" style="fill:#618BAA;" d="M504.5,67.148v284.13c0,9.44-7.65,17.08-17.08,17.08h-27.5      c9.43,0,17.08-7.64,17.08-17.08V67.148c0-9.44-7.65-17.08-17.08-17.08h27.5C496.85,50.068,504.5,57.708,504.5,67.148z"/>
				<path id="XMLID_696_" style="fill:#E3F4FF;" d="M504.5,324.398v26.88c0,9.44-7.65,17.08-17.08,17.08H24.58      c-9.43,0-17.08-7.64-17.08-17.08v-26.88H504.5z"/>
				<path id="XMLID_699_" style="fill:#BDDFF4;" d="M504.5,324.398v26.88c0,9.44-7.65,17.08-17.08,17.08h-27.5      c9.43,0,17.08-7.64,17.08-17.08v-26.88H504.5z"/>
			</g>
		</g>
		<g id="XMLID_700_">
			<g id="XMLID_701_">
				<circle id="XMLID_2364_" style="fill:#FDC142;" cx="160.06" cy="160.628" r="22.434"/>
				<path id="XMLID_2363_" style="fill:#1FE7A5;" d="M86.486,102.69l15.637-15.637c10.717-10.717,28.092-10.717,38.809,0      l15.671,15.671c15.035,15.035,15.035,39.411,0,54.446l0,0c-15.035,15.035-39.411,15.035-54.446,0l-15.671-15.671      C75.769,130.782,75.769,113.407,86.486,102.69z"/>
			</g>
		</g>
		<g id="XMLID_702_">
			<g id="XMLID_703_">
				<circle id="XMLID_2360_" style="fill:#EDB48A;" cx="310.482" cy="218.189" r="20.509"/>
				<path id="XMLID_2359_" style="fill:#FC3E81;" d="M257.517,285.449l-14.295-14.295c-9.797-9.797-9.797-25.681,0-35.478      l14.326-14.326c13.744-13.744,36.029-13.744,49.773,0l0,0c13.744,13.744,13.744,36.029,0,49.773l-14.326,14.326      C283.198,295.246,267.314,295.246,257.517,285.449z"/>
			</g>
		</g>
	</g>
	<g id="XMLID_704_">
		<path id="XMLID_705_" d="M487.42,42.56H236.582c-5.154,0-10.016,2.257-13.339,6.193c-3.349,3.966-4.769,9.187-3.895,14.323    c0.667,3.925,0.986,7.955,0.948,11.979c-0.149,15.671-5.769,30.316-15.295,41.857c-0.074,0.068-0.152,0.13-0.224,0.202    c-0.455,0.455-0.974,0.551-1.329,0.551c-0.356,0-0.875-0.096-1.33-0.55l-4.026-4.027c-2.665-2.663-6.208-4.13-9.976-4.13h-17.811    c-2.014-3.934-4.634-7.632-7.854-10.964l17.049-17.049c2.929-2.93,2.929-7.678,0-10.607c-2.93-2.928-7.678-2.928-10.607,0    l-17.035,17.035l-5.623-5.623c-0.217-0.217-0.443-0.421-0.664-0.631V66.413c0-3.77-1.468-7.313-4.132-9.978l-4.024-4.024    c-0.455-0.455-0.551-0.974-0.551-1.329c0-0.356,0.096-0.875,0.551-1.33c2.929-2.93,2.929-7.678,0-10.607    c-2.93-2.928-7.678-2.928-10.607,0c-6.581,6.582-6.581,17.292,0,23.874l3.764,3.763v5.943c-11.66-3.105-24.622-0.103-33.752,9.025    l-8.537,8.537C87.026,85.123,86.38,79.811,86.38,74.4c0-3.787,0.317-7.584,0.944-11.284c0.874-5.159-0.551-10.398-3.909-14.374    c-3.319-3.929-8.175-6.182-13.321-6.182H24.58C11.026,42.56,0,53.587,0,67.14v158.658c0,4.143,3.357,7.5,7.5,7.5    s7.5-3.357,7.5-7.5V67.14c0-5.282,4.298-9.58,9.58-9.58h45.514c0.938,0,1.53,0.469,1.862,0.861    c0.296,0.35,0.764,1.099,0.579,2.189c-0.767,4.525-1.155,9.165-1.155,13.789c0,9.9,1.753,19.536,5.184,28.7    c-5.443,8.401-6.909,18.642-4.406,28.039h-5.944l-3.763-3.764c-3.189-3.188-7.429-4.944-11.938-4.944s-8.749,1.756-11.937,4.945    c-2.929,2.93-2.928,7.678,0.001,10.606c2.93,2.93,7.679,2.927,10.606-0.001c0.455-0.455,0.974-0.551,1.329-0.551    s0.875,0.096,1.33,0.552l4.023,4.023c2.666,2.665,6.209,4.133,9.979,4.133h14.708c0.21,0.221,0.413,0.446,0.629,0.662l5.623,5.624    l-17.035,17.035c-2.929,2.93-2.929,7.678,0,10.607c1.465,1.464,3.385,2.196,5.304,2.196s3.839-0.732,5.304-2.196l17.049-17.049    c3.332,3.22,7.03,5.84,10.963,7.854v17.812c0,3.767,1.467,7.31,4.134,9.979l4.023,4.022c0.733,0.733,0.733,1.928,0,2.66    c-2.929,2.93-2.929,7.678,0,10.607c1.465,1.464,3.385,2.196,5.304,2.196s3.839-0.732,5.304-2.196    c6.58-6.581,6.581-17.291-0.001-23.874l-3.764-3.763v-12.791c1.988,0.259,3.988,0.399,5.989,0.399c1.603,0,3.204-0.091,4.8-0.257    c1.293,2.224,2.865,4.278,4.714,6.127c5.626,5.625,12.949,8.53,20.337,8.733c1.547,7.226,5.131,13.866,10.48,19.216    c1.465,1.465,3.384,2.197,5.304,2.197c1.919,0,3.839-0.732,5.303-2.196c2.93-2.929,2.93-7.678,0.001-10.606    c-3.321-3.321-5.533-7.452-6.462-11.947c2.655-1.376,5.147-3.173,7.371-5.397c2.319-2.319,4.17-4.931,5.567-7.714    c4.549,0.911,8.731,3.139,12.087,6.494c1.465,1.465,3.384,2.196,5.303,2.196s3.84-0.732,5.304-2.197    c2.929-2.929,2.929-7.678-0.001-10.606c-5.429-5.429-12.186-9.043-19.536-10.552c-0.146-3.619-0.946-7.214-2.394-10.598    c28.616-13.192,47.434-41.673,47.739-73.619c0.046-4.913-0.345-9.838-1.161-14.638c-0.18-1.056,0.279-1.788,0.569-2.132    c0.335-0.396,0.932-0.869,1.877-0.869H487.42c5.282,0,9.58,4.298,9.58,9.58v61.658c0,4.143,3.357,7.5,7.5,7.5s7.5-3.357,7.5-7.5    V67.14C512,53.587,500.974,42.56,487.42,42.56z M187.75,123.959l3.762,3.764c0.322,0.322,0.662,0.616,1.003,0.906    c-4.447,3.211-9.335,5.901-14.582,7.988c-0.91-0.679-1.852-1.309-2.832-1.878c0.372-3.585,0.323-7.204-0.143-10.781H187.75z     M121.527,86.525c5.106,0,10.213,1.944,14.101,5.832l15.671,15.671c10.258,10.257,11.805,25.973,4.652,37.882l-51.039-51.038    l2.515-2.515C111.314,88.469,116.421,86.525,121.527,86.525z M107.461,151.868L91.79,136.195    c-3.767-3.767-5.842-8.774-5.842-14.101s2.075-10.334,5.842-14.101l2.514-2.514l51.039,51.038    C133.435,163.671,117.718,162.126,107.461,151.868z M161.906,162.474c3.639-3.64,6.527-7.747,8.689-12.125    c0.367,0.396,0.765,0.757,1.203,1.063c4.603,5.855,4.217,14.381-1.178,19.775c-5.798,5.798-15.211,5.818-21.038,0.074    C154.035,169.089,158.212,166.168,161.906,162.474z"/>
		<path id="XMLID_711_" d="M504.5,155.822c-4.143,0-7.5,3.357-7.5,7.5v153.571H290.915l3.002-3.001    c2.556-2.559,3.964-5.958,3.964-9.574v-13.167c0.139-0.134,0.281-0.262,0.418-0.398l4.685-4.686l15.118,15.118    c1.465,1.464,3.385,2.196,5.304,2.196s3.839-0.732,5.304-2.196c2.929-2.93,2.929-7.678,0-10.607l-15.142-15.142    c2.673-2.846,4.917-5.992,6.692-9.368h15.871c3.619,0,7.021-1.41,9.577-3.967l3.679-3.679c0.419-0.421,1.104-0.419,1.521,0    c2.93,2.928,7.678,2.928,10.607,0c2.929-2.93,2.929-7.678,0-10.607c-6.269-6.267-16.465-6.269-22.735,0l-3.252,3.253h-10.677    c0.179-1.594,0.279-3.205,0.279-4.832c0-1.364-0.068-2.717-0.193-4.058c1.93-1.164,3.723-2.556,5.351-4.183    c5.136-5.136,7.855-11.788,8.159-18.529c6.534-1.496,12.535-4.788,17.391-9.644c2.929-2.93,2.929-7.678,0-10.607    c-2.93-2.928-7.678-2.928-10.607,0c-2.83,2.831-6.33,4.737-10.137,5.614c-1.255-2.314-2.853-4.49-4.807-6.445    c-2.042-2.042-4.324-3.702-6.755-4.98c0.865-3.85,2.783-7.39,5.641-10.248c2.929-2.93,2.929-7.678,0-10.607    c-2.93-2.928-7.678-2.928-10.607,0c-4.932,4.933-8.25,11.045-9.712,17.698c-6.62,0.382-13.13,3.092-18.177,8.139    c-1.623,1.624-3.021,3.415-4.187,5.349c-1.34-0.125-2.691-0.193-4.054-0.193c-1.627,0-3.238,0.101-4.832,0.279v-10.677    l3.253-3.253c6.267-6.269,6.267-16.467,0-22.734c-2.93-2.928-7.678-2.928-10.607,0c-2.929,2.93-2.929,7.678,0,10.607    c0.42,0.419,0.419,1.102,0,1.521l-3.676,3.677c-2.56,2.558-3.97,5.96-3.97,9.579v15.87c-3.375,1.775-6.522,4.02-9.368,6.693    l-15.142-15.142c-2.93-2.928-7.678-2.928-10.607,0c-2.929,2.93-2.929,7.678,0,10.607l15.118,15.118l-4.686,4.686    c-0.136,0.136-0.264,0.279-0.398,0.418h-13.167c-3.616,0-7.016,1.408-9.577,3.966l-3.679,3.68    c-0.261,0.261-0.557,0.315-0.76,0.315s-0.5-0.056-0.761-0.316c-2.93-2.928-7.678-2.928-10.607,0c-2.929,2.93-2.929,7.678,0,10.607    c3.037,3.036,7.074,4.709,11.368,4.709s8.331-1.673,11.367-4.709l3.251-3.252h4.317c-0.589,2.469-0.898,5.022-0.898,7.624    c0,8.705,3.39,16.888,9.544,23.043l14.295,14.295c6.155,6.154,14.338,9.544,23.043,9.544c2.602,0,5.156-0.309,7.624-0.898v4.317    l-3.252,3.25c-2.768,2.768-4.309,6.303-4.632,9.928H15v-56.571c0-4.143-3.357-7.5-7.5-7.5s-7.5,3.357-7.5,7.5v90.958    c0,13.554,11.026,24.58,24.58,24.58h181.475l-2.891,18.964c-1.854,12.164-6.649,23.484-13.994,33.173    c-0.028,0.036-0.054,0.073-0.082,0.109c-1.696,2.228-3.526,4.37-5.488,6.415l-8.221,8.572c-5.327,5.555-6.76,13.403-3.74,20.482    c3.02,7.078,9.676,11.476,17.372,11.476h26.727c4.143,0,7.5-3.357,7.5-7.5s-3.357-7.5-7.5-7.5h-26.727    c-2.317,0-3.272-1.651-3.575-2.361s-0.834-2.543,0.77-4.215l8.221-8.571c1.481-1.544,2.894-3.138,4.25-4.771h114.646    c1.356,1.633,2.769,3.226,4.25,4.771l8.221,8.57c1.604,1.673,1.072,3.506,0.77,4.216s-1.258,2.361-3.575,2.361h-72.727    c-4.143,0-7.5,3.357-7.5,7.5s3.357,7.5,7.5,7.5h72.727c7.696,0,14.353-4.397,17.372-11.476c3.02-7.079,1.587-14.928-3.74-20.483    l-8.221-8.571c-10.511-10.959-17.275-24.687-19.563-39.698l-2.891-18.963H487.42c13.554,0,24.58-11.026,24.58-24.58V163.322    C512,159.179,508.643,155.822,504.5,155.822z M319.681,208.99c4.827,4.828,5.05,12.53,0.691,17.634    c-1.998-3.853-4.59-7.421-7.747-10.578c-3.156-3.156-6.724-5.748-10.577-7.745C307.154,203.94,314.856,204.164,319.681,208.99z     M248.526,240.979l14.326-14.326c5.23-5.231,12.185-8.111,19.582-8.111c4.825,0,9.458,1.233,13.551,3.537l-45.615,45.615    l-1.844-1.844C241.669,258.994,241.669,247.837,248.526,240.979z M262.821,280.145l-1.844-1.844l45.615-45.615    c2.304,4.093,3.537,8.726,3.537,13.55c0,7.397-2.881,14.353-8.112,19.583l-14.326,14.326    C280.836,287.004,269.677,287.003,262.821,280.145z M294.008,397.084c1.511,9.915,4.653,19.36,9.262,28.05H208.73    c4.608-8.69,7.751-18.135,9.262-28.049l3.236-21.225h69.543L294.008,397.084z M487.42,360.86H24.58c-5.282,0-9.58-4.298-9.58-9.58    v-19.387h482v19.387C497,356.562,492.702,360.86,487.42,360.86z"/>
		<path id="XMLID_718_" d="M281.785,146.338c10.608,0,19.239-8.63,19.239-19.238v-14.305c0-10.608-8.631-19.239-19.239-19.239    s-19.239,8.631-19.239,19.239v14.305C262.546,137.708,271.177,146.338,281.785,146.338z M277.546,112.795    c0-2.338,1.901-4.239,4.239-4.239s4.239,1.901,4.239,4.239v14.305c0,2.337-1.901,4.238-4.239,4.238s-4.239-1.901-4.239-4.238    V112.795z"/>
		<path id="XMLID_721_" d="M400.478,146.338c10.608,0,19.239-8.63,19.239-19.238v-14.305c0-10.608-8.631-19.239-19.239-19.239    s-19.239,8.631-19.239,19.239v14.305C381.238,137.708,389.869,146.338,400.478,146.338z M396.238,112.795    c0-2.338,1.901-4.239,4.239-4.239s4.239,1.901,4.239,4.239v14.305c0,2.337-1.901,4.238-4.239,4.238s-4.239-1.901-4.239-4.238    V112.795z"/>
		<path id="XMLID_724_" d="M331.324,100.72c-0.18-4.017-3.489-7.165-7.489-7.165c-0.057,0-0.113,0.001-0.171,0.002    c-4.075,0.091-7.332,3.421-7.332,7.498v0.547c-0.021,0.276-0.082,0.72-0.176,1.089c-3.913,0.253-7.009,3.507-7.009,7.484    c0,4.036,3.188,7.328,7.185,7.493v13.829c-3.403,0.711-5.959,3.726-5.959,7.34c0,4.143,3.357,7.5,7.5,7.5h11.926    c4.143,0,7.5-3.357,7.5-7.5c0-3.617-2.56-6.634-5.967-7.342v-29.702C331.344,101.307,331.334,100.937,331.324,100.72z"/>
		<path id="XMLID_725_" d="M366.938,100.72c-0.179-4.016-3.489-7.165-7.489-7.165c-0.057,0-0.113,0.001-0.17,0.002    c-4.076,0.091-7.333,3.421-7.333,7.498v0.443c-0.017,0.385-0.087,0.837-0.178,1.192c-3.912,0.254-7.008,3.508-7.008,7.484    c0,4.037,3.189,7.328,7.186,7.493v13.829c-3.403,0.711-5.959,3.726-5.959,7.34c0,4.143,3.357,7.5,7.5,7.5h11.926    c4.143,0,7.5-3.357,7.5-7.5c0-3.617-2.56-6.634-5.967-7.342v-29.705C366.958,101.305,366.948,100.937,366.938,100.72z"/>
		<path id="XMLID_726_" d="M451.533,100.72c-0.18-4.017-3.489-7.165-7.489-7.165c-0.057,0-0.113,0.001-0.171,0.002    c-4.075,0.091-7.332,3.421-7.332,7.498v0.547c-0.021,0.276-0.082,0.72-0.176,1.089c-3.913,0.253-7.009,3.507-7.009,7.484    c0,4.036,3.188,7.328,7.185,7.493v13.829c-3.403,0.711-5.959,3.726-5.959,7.34c0,4.143,3.357,7.5,7.5,7.5h11.926    c4.143,0,7.5-3.357,7.5-7.5c0-3.617-2.56-6.634-5.967-7.342v-29.702C451.553,101.307,451.543,100.937,451.533,100.72z"/>
		<path id="XMLID_727_" d="M381.238,255.423c0,10.608,8.631,19.239,19.239,19.239s19.239-8.631,19.239-19.239v-14.304    c0-10.608-8.631-19.239-19.239-19.239s-19.239,8.631-19.239,19.239V255.423z M396.238,241.119c0-2.338,1.901-4.239,4.239-4.239    s4.239,1.901,4.239,4.239v14.304c0,2.338-1.901,4.239-4.239,4.239s-4.239-1.901-4.239-4.239V241.119z"/>
		<path id="XMLID_730_" d="M436.541,245.993v13.829c-3.403,0.711-5.959,3.726-5.959,7.34c0,4.143,3.357,7.5,7.5,7.5h11.926    c4.143,0,7.5-3.357,7.5-7.5c0-3.617-2.56-6.634-5.967-7.342v-29.702c0.012-0.486,0.002-0.856-0.008-1.073    c-0.18-4.017-3.489-7.165-7.489-7.165c-0.057,0-0.113,0.001-0.171,0.002c-4.075,0.091-7.332,3.421-7.332,7.498v0.547    c-0.021,0.276-0.082,0.72-0.176,1.089c-3.913,0.253-7.009,3.507-7.009,7.484C429.356,242.536,432.545,245.828,436.541,245.993z"/>
		<path id="XMLID_731_" d="M381.238,191.194c0,10.608,8.631,19.239,19.239,19.239s19.239-8.631,19.239-19.239V176.89    c0-10.608-8.631-19.239-19.239-19.239s-19.239,8.631-19.239,19.239V191.194z M396.238,176.89c0-2.338,1.901-4.239,4.239-4.239    s4.239,1.901,4.239,4.239v14.304c0,2.338-1.901,4.239-4.239,4.239s-4.239-1.901-4.239-4.239V176.89z"/>
		<path id="XMLID_734_" d="M436.541,181.764v13.829c-3.403,0.711-5.959,3.726-5.959,7.34c0,4.143,3.357,7.5,7.5,7.5h11.926    c4.143,0,7.5-3.357,7.5-7.5c0-3.617-2.56-6.634-5.967-7.342v-29.702c0.012-0.486,0.002-0.856-0.008-1.073    c-0.18-4.017-3.489-7.165-7.489-7.165c-0.057,0-0.113,0.001-0.171,0.002c-4.075,0.091-7.332,3.421-7.332,7.498v0.547    c-0.021,0.276-0.082,0.72-0.176,1.089c-3.913,0.253-7.009,3.507-7.009,7.484C429.356,178.307,432.545,181.599,436.541,181.764z"/>
	</g>
</g>















</svg>
