<?xml version="1.0" encoding="iso-8859-1"?>
<!-- Generator: Adobe Illustrator 19.0.0, SVG Export Plug-In . SVG Version: 6.00 Build 0)  -->
<svg version="1.1" id="Capa_1" xmlns="http://www.w3.org/2000/svg" xmlns:xlink="http://www.w3.org/1999/xlink" x="0px" y="0px"
	 viewBox="0 0 511.999 511.999" style="enable-background:new 0 0 511.999 511.999;" xml:space="preserve">
<path style="fill:#B67F5F;" d="M314.624,112.159c-8.581-32.256-36.909-53.861-58.026-65.922c-8.516-4.864-19.008,1.989-17.874,11.73
	c1.716,14.74-1.431,32.631-22.739,41.738l-36.322,16.431c-24.584,10.059-36.361,38.146-26.302,62.726
	c3.106,7.596,9.311,15.586,15.222,20.471l148.878-60.119C318.334,131.521,316.748,120.142,314.624,112.159z"/>
<path style="fill:#A06E50;" d="M153.76,179.656c3.202,7.355,9.119,14.961,14.825,19.676l148.878-60.119
	c0.827-7.303-0.583-17.852-2.544-25.74c-0.599,0.222-1.204,0.388-1.8,0.632L153.76,179.656z"/>
<path style="fill:#B67F5F;" d="M380.921,172.111c-11.831-28.935-44.873-42.786-73.814-30.952l-190.146,78.214
	c-28.928,11.835-42.786,44.88-30.952,73.814c8.964,21.915,30.102,35.18,52.404,35.18c7.137,0,14.394-1.361,21.411-4.228
	l190.146-78.214C378.897,234.091,392.756,201.044,380.921,172.111z"/>
<g>
	<path style="fill:#A06E50;" d="M138.412,328.367c7.136,0,14.394-1.361,21.411-4.228l190.146-78.214
		c26.169-10.706,39.934-38.766,33.573-65.442L89.632,300.419C99.92,317.968,118.694,328.367,138.412,328.367z"/>
	<path style="fill:#A06E50;" d="M71.643,467.362h368.729c35.416,0,64.127-28.711,64.127-64.127l0,0
		c0-35.416-28.711-64.127-64.127-64.127H71.643V467.362z"/>
</g>
<path style="fill:#8C5A41;" d="M323.728,404.41l144.795-58.727c-8.507-4.17-18.038-6.575-28.151-6.575H71.643v128.254h368.729
	c23.722,0,44.385-12.914,55.478-32.063H329.754C312.145,435.299,307.411,411.028,323.728,404.41z"/>
<path style="fill:#B67F5F;" d="M454.4,246.926c-13.405-32.784-50.843-48.479-83.635-35.069L47.344,343.867
	c-32.776,13.409-48.479,50.851-35.069,83.635c10.156,24.831,34.106,39.86,59.375,39.86c8.086,0,16.31-1.542,24.259-4.791
	L419.331,330.56C452.107,317.15,467.81,279.709,454.4,246.926z"/>
<path style="fill:#A06E50;" d="M142.668,414.476c-7.949,3.249-16.173,4.791-24.259,4.791c-25.269,0-49.219-15.029-59.375-39.86
	c-5.275-12.898-5.985-26.501-2.982-39.093l-8.707,3.554c-32.776,13.409-48.479,50.851-35.069,83.635
	c10.156,24.831,34.106,39.86,59.375,39.86c8.086,0,16.31-1.542,24.259-4.791l323.422-132.011
	c19.881-8.134,33.42-25.126,38.051-44.54L142.668,414.476z"/>
<g>
	<path style="fill:#FFFFFF;" d="M161.259,354.531c-7.961-1.982-13.164,7.942-7.29,13.67c27.522,26.833,63.011,43.049,101.862,43.049
		c38.852,0,74.34-16.217,101.862-43.049c5.874-5.727,0.671-15.652-7.29-13.67c-29.453,7.332-61.282,11.38-94.572,11.38
		C222.54,365.912,190.711,361.863,161.259,354.531z"/>
	<path style="fill:#FFFFFF;" d="M340.175,323.076L340.175,323.076c-15.494,0-28.056-12.56-28.056-28.056v-16.031
		c0-15.494,12.56-28.056,28.056-28.056l0,0c15.494,0,28.056,12.56,28.056,28.056v16.031
		C368.229,310.515,355.669,323.076,340.175,323.076z"/>
	<path style="fill:#FFFFFF;" d="M187.873,323.076L187.873,323.076c-15.494,0-28.056-12.56-28.056-28.056v-16.031
		c0-15.494,12.56-28.056,28.056-28.056l0,0c15.494,0,28.056,12.56,28.056,28.056v16.031
		C215.929,310.515,203.367,323.076,187.873,323.076z"/>
</g>
<path d="M440.373,331.608h-6.851c28.662-18.241,41.127-54.991,27.821-87.522c-7.241-17.71-20.946-31.537-38.589-38.935
	c-9.791-4.105-20.146-5.949-30.45-5.547c1.033-10.266-0.457-20.597-4.439-30.333c-6.434-15.731-18.606-28.014-34.272-34.585
	c-9.381-3.934-19.344-5.52-29.206-4.792c0.073-6.494-0.762-13.081-2.513-19.664c-9.165-34.45-38.532-57.357-61.554-70.507
	c-6.43-3.673-14.266-3.417-20.45,0.669c-6.151,4.064-9.444,11.13-8.593,18.441c1.954,16.782-4.012,27.895-18.237,33.974
	c-0.048,0.021-0.096,0.042-0.144,0.063l-36.202,16.377c-13.681,5.637-24.363,16.253-30.087,29.905
	c-5.743,13.695-5.809,28.807-0.186,42.546c2.115,5.174,5.013,9.994,8.54,14.288l-41.945,17.206
	c-15.726,6.43-28.006,18.602-34.577,34.272c-6.571,15.668-6.647,32.96-0.216,48.687c3.289,8.041,8.116,15.221,14.198,21.214
	l-47.917,19.562c-36.551,14.954-54.124,56.86-39.171,93.416c11.062,27.045,37.094,44.521,66.317,44.521h368.721
	c39.495,0,71.627-32.132,71.627-71.627S479.868,331.608,440.373,331.608z M440.373,459.862H122.395l64.306-26.248
	c3.835-1.565,5.675-5.943,4.109-9.778c-1.565-3.835-5.944-5.675-9.778-4.109l-87.961,35.903c-6.873,2.809-14.08,4.233-21.421,4.233
	c-23.106,0-43.687-13.816-52.434-35.199c-11.82-28.902,2.071-62.032,30.962-73.852l104.638-42.717
	c5.221,13.153,18.065,22.483,33.055,22.483c19.606,0,35.556-15.951,35.556-35.556v-14.924l75.492-30.814
	c3.835-1.565,5.675-5.943,4.109-9.778c-1.565-3.835-5.944-5.674-9.778-4.109l-72.669,29.662c-5.43-12.7-18.047-21.623-32.709-21.623
	c-19.606,0-35.556,15.95-35.556,35.556v13.923l-44.32,18.094c-7.055-5.26-12.524-12.306-15.89-20.534
	c-4.915-12.018-4.856-25.232,0.165-37.206c5.021-11.975,14.404-21.275,26.429-26.191l68.011-27.897
	c3.833-1.572,5.665-5.953,4.093-9.785s-5.953-5.665-9.785-4.093l-11.271,4.623c-4.054-3.901-7.296-8.649-9.443-13.901
	c-4.106-10.033-4.058-21.067,0.135-31.067c4.193-10,12.029-17.771,22.066-21.876c0.084-0.035,0.168-0.07,0.251-0.108l36.253-16.401
	c20.224-8.675,29.871-26.241,27.167-49.47c-0.283-2.425,1.278-3.739,1.962-4.191c0.7-0.462,2.563-1.403,4.74-0.159
	c20.539,11.731,46.665,31.897,54.498,61.338c1.664,6.253,2.299,12.708,1.877,18.813c-1.463,0.48-2.919,0.996-4.358,1.586
	l-91.814,37.661c-3.833,1.572-5.665,5.953-4.093,9.785c1.572,3.832,5.953,5.664,9.785,4.093l91.81-37.66
	c12.019-4.922,25.232-4.868,37.205,0.154c11.972,5.021,21.273,14.408,26.19,26.431c3.539,8.651,4.506,17.912,2.857,26.993
	c-3.005,0.796-5.98,1.773-8.905,2.969l-42.615,17.395c-3.835,1.565-5.675,5.943-4.109,9.778c1.565,3.834,5.941,5.674,9.778,4.109
	l42.619-17.397c14.005-5.728,29.4-5.661,43.348,0.187c13.946,5.848,24.781,16.779,30.505,30.779
	c11.821,28.901-2.07,62.031-30.962,73.851l-58.96,24.066c-2.779-1.001-5.867-1.196-8.946-0.429
	c-29.742,7.404-60.951,11.158-92.76,11.158c-31.811,0-63.019-3.754-92.76-11.158l0,0c-6.815-1.697-13.694,1.281-17.111,7.413
	c-3.499,6.279-2.384,13.876,2.773,18.906c29.882,29.134,67.917,45.179,107.098,45.179s77.215-16.045,107.098-45.179
	c3.803-3.708,5.4-8.813,4.577-13.757l32.354-13.206h40.512c31.224,0,56.627,25.403,56.627,56.627S471.597,459.862,440.373,459.862z
	 M167.317,295.02v-16.031c0-11.334,9.221-20.556,20.556-20.556s20.556,9.221,20.556,20.556v16.031
	c0,11.334-9.221,20.556-20.556,20.556S167.317,306.355,167.317,295.02z M352.457,362.831
	c-27.065,26.388-61.381,40.919-96.627,40.919s-69.562-14.532-96.626-40.919c-0.285-0.277-0.267-0.416-0.251-0.539
	c0.034-0.263,0.199-0.485,0.24-0.518c0.004,0,0.011-0.001,0.021-0.001c0.038,0,0.116,0.006,0.232,0.036
	c30.925,7.699,63.353,11.602,96.384,11.602c33.03,0,65.458-3.904,96.384-11.603c0.147-0.037,0.232-0.037,0.215-0.047
	c0.079,0.045,0.245,0.268,0.278,0.531C352.724,362.415,352.742,362.554,352.457,362.831z"/>
<path d="M340.175,330.577c19.605,0,35.555-15.951,35.555-35.556v-16.031c0-19.606-15.951-35.556-35.556-35.556
	c-19.605,0-35.555,15.951-35.555,35.556v16.031C304.618,314.626,320.569,330.577,340.175,330.577z M319.619,278.989
	c0-11.334,9.221-20.556,20.556-20.556c11.333,0,20.555,9.221,20.555,20.556v16.031c0,11.334-9.221,20.556-20.555,20.556l0,0
	c-11.333,0-20.555-9.221-20.555-20.556L319.619,278.989L319.619,278.989z"/>
<path d="M340.174,298.513c4.142,0,7.5-3.358,7.5-7.5v-8.016c0-4.142-3.358-7.5-7.5-7.5s-7.5,3.358-7.5,7.5v8.016
	C332.673,295.154,336.031,298.513,340.174,298.513z"/>
<path d="M195.372,291.012v-8.016c0-4.142-3.358-7.5-7.5-7.5c-4.142,0-7.5,3.358-7.5,7.5v8.016c0,4.142,3.358,7.5,7.5,7.5
	C192.014,298.513,195.372,295.154,195.372,291.012z"/>
<g>
</g>
<g>
</g>
<g>
</g>
<g>
</g>
<g>
</g>
<g>
</g>
<g>
</g>
<g>
</g>
<g>
</g>
<g>
</g>
<g>
</g>
<g>
</g>
<g>
</g>
<g>
</g>
<g>
</g>
</svg>
