<?xml version="1.0" encoding="iso-8859-1"?>
<!-- Generator: Adobe Illustrator 19.0.0, SVG Export Plug-In . SVG Version: 6.00 Build 0)  -->
<svg version="1.1" id="Capa_1" xmlns="http://www.w3.org/2000/svg" xmlns:xlink="http://www.w3.org/1999/xlink" x="0px" y="0px"
	 viewBox="0 0 512.001 512.001" style="enable-background:new 0 0 512.001 512.001;" xml:space="preserve">
<path style="fill:#00AD94;" d="M481.45,185.773H199.163L468.147,468.89l35.775-254.996
	C507.181,199.483,496.225,185.773,481.45,185.773z"/>
<path style="fill:#EFEDEE;" d="M395.716,43.113H129.49c-16.395,0-29.686,13.291-29.686,29.686v348.03h325.598V72.799
	C425.402,56.403,412.111,43.113,395.716,43.113z"/>
<rect x="136.54" y="178.631" style="fill:#D4D2D3;" width="288.87" height="130.7"/>
<path style="fill:#3AC7B4;" d="M416.832,241.929c-3.546-15.684-17.482-26.82-33.561-26.82h-221.45l-4.49-19.86
	c-2.197-9.718-10.832-16.618-20.795-16.618H28.828c-13.672,0-23.81,12.686-20.795,26.021l54.018,238.914
	c3.348,14.809,16.506,25.324,31.688,25.324h374.407L416.832,241.929z"/>
<path d="M197.011,98.981c-4.142,0-7.5,3.358-7.5,7.5v11.871c0,4.142,3.358,7.5,7.5,7.5s7.5-3.358,7.5-7.5v-11.871
	C204.511,102.339,201.153,98.981,197.011,98.981z"/>
<path d="M328.195,125.852c4.142,0,7.5-3.358,7.5-7.5v-11.871c0-4.142-3.358-7.5-7.5-7.5s-7.5,3.358-7.5,7.5v11.871
	C320.695,122.494,324.053,125.852,328.195,125.852z"/>
<path d="M262.603,134.626c9.916,0,19.224-4.142,25.538-11.364c2.726-3.119,2.408-7.857-0.71-10.583
	c-3.118-2.727-7.856-2.409-10.583,0.71c-3.465,3.963-8.657,6.236-14.245,6.236s-10.779-2.273-14.244-6.236
	c-2.726-3.12-7.465-3.438-10.583-0.711c-3.119,2.726-3.438,7.464-0.711,10.583C243.378,130.483,252.687,134.626,262.603,134.626z"/>
<path d="M93.741,476.388c0,0,374.349,0,374.417,0.001c1.707,0.025,3.415-0.635,4.741-1.736c1.297-1.077,2.677-2.961,2.677-4.723
	l26.843-191.33c0.576-4.102-2.283-7.894-6.385-8.469c-4.103-0.578-7.894,2.284-8.469,6.385L466.42,427.232l-33.516-148.233v-85.727
	h48.548c4.75,0,9.174,2.128,12.139,5.838c2.965,3.71,4.065,8.496,3.018,13.128c-0.046,0.202-4.835,34.277-4.835,34.277
	c-0.576,4.102,2.283,7.894,6.385,8.469c4.106,0.579,7.894-2.284,8.469-6.385l4.683-33.378c1.935-9.003-0.244-18.271-6.002-25.476
	c-5.827-7.292-14.523-11.474-23.857-11.474h-48.548V72.798c0-20.504-16.682-37.186-37.187-37.186H129.49
	c-20.504,0-37.186,16.682-37.186,37.186v98.332H28.829c-8.809,0-17.015,3.946-22.514,10.828s-7.539,15.755-5.597,24.348
	L54.737,445.22C58.886,463.571,74.925,476.388,93.741,476.388z M18.033,191.322c2.637-3.299,6.572-5.192,10.796-5.192h107.708
	c6.502,0,12.045,4.43,13.479,10.772l4.49,19.859c0.773,3.419,3.811,5.846,7.315,5.846h39.375c4.142,0,7.5-3.358,7.5-7.5
	s-3.358-7.5-7.5-7.5h-33.381l-3.168-14.013c-2.991-13.227-14.55-22.465-28.11-22.465h-29.232V72.798
	c0-12.233,9.952-22.186,22.186-22.186h266.227c12.234,0,22.187,9.953,22.187,22.186V225.84c-0.022-0.033-0.048-0.064-0.07-0.097
	c-7.696-11.315-20.907-18.134-34.561-18.134H231.197c-4.142,0-7.5,3.358-7.5,7.5s3.358,7.5,7.5,7.5h152.074
	c12.496,0,23.491,8.792,26.245,20.974l49.247,217.806H93.741c-11.758,0-21.781-8.009-24.373-19.477L15.349,202.998
	C14.418,198.878,15.396,194.622,18.033,191.322z"/>
<g>
</g>
<g>
</g>
<g>
</g>
<g>
</g>
<g>
</g>
<g>
</g>
<g>
</g>
<g>
</g>
<g>
</g>
<g>
</g>
<g>
</g>
<g>
</g>
<g>
</g>
<g>
</g>
<g>
</g>
</svg>
