<svg height="496pt" viewBox="-80 0 496 496.024" width="496pt" xmlns="http://www.w3.org/2000/svg"><g fill="#57a4ff"><path d="m248.066406 8.023438h-.054687l9.511719 9.511718zm0 0"/><path d="m40.011719 456.023438h32l-32-32zm0 0"/><path d="m257.523438 17.535156 70.054687 70.488282h.433594zm0 0"/><path d="m248.011719 8.023438v80h79.566406l-70.054687-70.488282zm0 0"/><path d="m296.011719 272.023438c0 70.691406-57.308594 128-128 128-70.691407 0-128-57.308594-128-128 0-70.691407 57.308593-128 128-128 70.691406 0 128 57.308593 128 128zm0 0"/></g><path d="m333.667969 82.367188-79.929688-80c-.160156-.160157-.375-.214844-.535156-.359376-.527344-.472656-1.117187-.871093-1.75-1.183593-.914063-.375-1.875-.617188-2.855469-.71875-.1875 0-.34375-.105469-.53125-.105469h-240.054687c-4.417969 0-8.0000002 3.582031-8.0000002 8v480.023438c0 4.417968 3.5820312 8 8.0000002 8h320c4.417969 0 8-3.582032 8-8v-399.566407c0-.121093-.0625-.234375-.070313-.351562.046875-2.140625-.773437-4.210938-2.273437-5.738281zm-77.65625-55 52.34375 52.65625h-52.34375zm-240 452.65625v-464h224v72c0 4.417968 3.582031 8 8 8h72v384zm0 0" fill="#004fac"/><path d="m197.667969 178.367188c-3.140625-3.03125-8.128907-2.988282-11.214844.097656-3.085937 3.085937-3.128906 8.074218-.097656 11.214844l82.34375 82.34375-82.34375 82.34375c-2.078125 2.007812-2.914063 4.984374-2.179688 7.78125.730469 2.796874 2.914063 4.980468 5.710938 5.714843 2.796875.730469 5.773437-.105469 7.78125-2.183593l88-88c3.125-3.125 3.125-8.1875 0-11.3125zm0 0" fill="#004fac"/><path d="m149.667969 178.367188c-3.125-3.121094-8.1875-3.121094-11.3125 0l-88 88c-3.121094 3.125-3.121094 8.1875 0 11.3125l88 88c3.140625 3.03125 8.128906 2.988281 11.214843-.097657 3.085938-3.085937 3.128907-8.074219.097657-11.214843l-82.34375-82.34375 82.34375-82.34375c3.125-3.125 3.125-8.1875 0-11.3125zm0 0" fill="#004fac"/><path d="m72.011719 448.023438h-8l-16-16v-8c0-4.417969-3.582031-8-8-8s-8 3.582031-8 8v32c0 4.417968 3.582031 8 8 8h32c4.417969 0 8-3.582032 8-8 0-4.417969-3.582031-8-8-8zm0 0" fill="#004fac"/></svg>