<svg width="934" height="367" viewBox="0 0 934 367" fill="none" xmlns="http://www.w3.org/2000/svg">
<g filter="url(#filter0_d)">
<rect x="4" width="926" height="359" fill="white"/>
<rect x="4.5" y="0.5" width="925" height="358" stroke="black"/>
</g>
<path d="M169.517 94.7725H112.388C109.777 94.7725 107.66 96.8893 107.66 99.4999V207.5C107.66 210.111 109.777 212.228 112.388 212.228H191.268C193.878 212.228 195.995 210.111 195.995 207.5V119.267L169.517 94.7725Z" fill="#E7E7E7"/>
<path d="M195.996 119.268V207.501C195.996 210.111 193.877 212.228 191.269 212.228H185.106C187.718 212.228 189.834 210.111 189.834 207.501V113.567L195.996 119.268Z" fill="#CECECE"/>
<path d="M169.517 94.7725V114.607C169.517 117.218 171.634 119.335 174.245 119.335H195.995L169.517 94.7725Z" fill="#ACACAC"/>
<path d="M156.595 153.8H101.699C99.2288 153.8 97.2256 151.798 97.2256 149.327V128.153C97.2256 125.682 99.2288 123.68 101.699 123.68H156.595C159.065 123.68 161.068 125.682 161.068 128.153V149.327C161.068 151.798 159.065 153.8 156.595 153.8Z" fill="#FF6B81"/>
<path d="M161.067 128.154V149.327C161.067 151.798 159.065 153.8 156.595 153.8H151.827C154.297 153.8 156.299 151.798 156.299 149.327V128.154C156.299 125.683 154.297 123.679 151.827 123.679H156.595C159.065 123.679 161.067 125.683 161.067 128.154V128.154Z" fill="#FF435F"/>
<path d="M112.706 139.127H106.973V146.081C106.973 146.611 106.373 146.887 105.752 146.887C105.153 146.887 104.531 146.611 104.531 146.081V130.836C104.531 130.283 105.153 130.054 105.752 130.054C106.373 130.054 106.973 130.283 106.973 130.836V137.192H112.706V130.836C112.706 130.283 113.328 130.054 113.928 130.054C114.549 130.054 115.148 130.283 115.148 130.836V146.081C115.148 146.611 114.549 146.887 113.928 146.887C113.328 146.887 112.706 146.611 112.706 146.081V139.127Z" fill="black"/>
<path d="M127.352 130.054C127.904 130.054 128.158 130.607 128.158 131.136C128.158 131.735 127.882 132.288 127.352 132.288H123.805V146.081C123.805 146.611 123.184 146.887 122.585 146.887C121.963 146.887 121.365 146.611 121.365 146.081V132.288H117.795C117.288 132.288 116.989 131.758 116.989 131.159C116.989 130.629 117.243 130.054 117.795 130.054H127.352Z" fill="black"/>
<path d="M137.253 140.739C137 141.154 136.677 141.291 136.354 141.291C136.055 141.291 135.733 141.154 135.526 140.739L132.44 134.889V146.081C132.44 146.611 131.841 146.887 131.219 146.887C130.621 146.887 129.999 146.611 129.999 146.081V131.274C129.999 130.376 130.598 130.054 131.219 130.054C132.094 130.054 132.578 130.353 133.154 131.436L136.378 137.538L139.648 131.436C140.223 130.353 140.684 130.054 141.559 130.054C142.205 130.054 142.78 130.376 142.78 131.274V146.081C142.78 146.611 142.181 146.887 141.559 146.887C140.961 146.887 140.339 146.611 140.339 146.081V135.028L137.253 140.739Z" fill="black"/>
<path d="M146.902 146.887C146.372 146.887 145.819 146.611 145.819 146.081V130.836C145.819 130.283 146.441 130.054 147.04 130.054C147.661 130.054 148.261 130.283 148.261 130.836V144.723H154.248C154.732 144.723 154.985 145.252 154.985 145.805C154.985 146.335 154.732 146.887 154.248 146.887H146.902Z" fill="black"/>
<path d="M197.199 117.967C195.392 116.296 193.586 114.625 191.78 112.954C187.192 108.709 182.604 104.466 178.017 100.221C176.216 98.5555 174.416 96.8902 172.616 95.2248C171.817 94.4854 170.684 93.0222 169.545 93.0009C169.535 93.0009 169.526 93 169.517 93H112.387C108.804 93 105.888 95.9162 105.888 99.4999V121.907H101.699C98.2549 121.907 95.4531 124.709 95.4531 128.153V149.327C95.4531 152.771 98.2549 155.572 101.699 155.572H105.888V168.815C105.888 169.794 106.681 170.587 107.66 170.587C108.639 170.587 109.433 169.794 109.433 168.815V155.572H156.596C160.039 155.572 162.841 152.771 162.841 149.327V128.153C162.841 124.709 160.039 121.907 156.596 121.907H136.683C135.705 121.907 134.911 122.701 134.911 123.68C134.911 124.659 135.705 125.453 136.683 125.453H156.596C158.084 125.453 159.295 126.664 159.295 128.153V149.327C159.295 150.815 158.084 152.027 156.596 152.027H101.699C100.21 152.027 98.999 150.815 98.999 149.327V128.153C98.999 126.664 100.21 125.453 101.699 125.453H125.889C126.868 125.453 127.662 124.659 127.662 123.68C127.662 122.701 126.868 121.907 125.889 121.907H109.433V99.4999C109.433 97.8706 110.758 96.5458 112.387 96.5458H167.744V114.607C167.744 118.192 170.66 121.107 174.244 121.107H194.221V207.5C194.221 209.129 192.897 210.455 191.267 210.455H112.387C110.758 210.455 109.433 209.129 109.433 207.5V180.081C109.433 179.103 108.639 178.309 107.66 178.309C106.681 178.309 105.888 179.103 105.888 180.081V207.5C105.888 211.084 108.804 214 112.387 214H191.267C194.851 214 197.767 211.084 197.767 207.5V119.267C197.767 118.774 197.561 118.302 197.199 117.967V117.967ZM174.244 117.561C172.615 117.561 171.289 116.237 171.289 114.607V98.8353L191.477 117.561H174.244Z" fill="black"/>
<path d="M142.063 162.109C141.371 161.417 140.249 161.417 139.556 162.109L128.447 173.218C127.755 173.911 127.755 175.033 128.447 175.726L139.556 186.835C139.902 187.181 140.356 187.354 140.81 187.354C141.263 187.354 141.717 187.181 142.063 186.835C142.755 186.143 142.755 185.02 142.063 184.328L132.207 174.472L142.063 164.616C142.755 163.924 142.755 162.802 142.063 162.109V162.109Z" fill="black"/>
<path d="M161.592 186.835C161.938 187.181 162.392 187.354 162.845 187.354C163.299 187.354 163.753 187.181 164.099 186.835L175.208 175.726C175.9 175.033 175.9 173.911 175.208 173.218L164.099 162.109C163.406 161.417 162.284 161.417 161.592 162.109C160.9 162.802 160.9 163.924 161.592 164.616L171.448 174.472L161.592 184.328C160.899 185.02 160.899 186.143 161.592 186.835V186.835Z" fill="black"/>
<path d="M147.463 187.355C148.17 187.355 148.839 186.928 149.114 186.229L157.842 164.011C158.2 163.1 157.752 162.07 156.84 161.712C155.929 161.354 154.9 161.803 154.542 162.714L145.813 184.933C145.455 185.844 145.904 186.873 146.815 187.231C147.028 187.315 147.247 187.355 147.463 187.355V187.355Z" fill="black"/>
<path d="M769.064 94.7725H711.934C709.324 94.7725 707.207 96.8893 707.207 99.4999V207.5C707.207 210.111 709.324 212.228 711.934 212.228H790.814C793.425 212.228 795.542 210.111 795.542 207.5V119.267L769.064 94.7725Z" fill="#E7E7E7"/>
<path d="M795.543 119.268V207.501C795.543 210.111 793.424 212.228 790.815 212.228H784.653C787.265 212.228 789.381 210.111 789.381 207.501V113.567L795.543 119.268Z" fill="#CECECE"/>
<path d="M769.064 94.7725V114.607C769.064 117.218 771.181 119.335 773.791 119.335H795.542L769.064 94.7725Z" fill="#ACACAC"/>
<path d="M756.142 153.8H701.246C698.776 153.8 696.772 151.798 696.772 149.327V128.153C696.772 125.682 698.776 123.68 701.246 123.68H756.142C758.612 123.68 760.615 125.682 760.615 128.153V149.327C760.615 151.798 758.612 153.8 756.142 153.8Z" fill="#FF6B81"/>
<path d="M760.614 128.154V149.327C760.614 151.798 758.612 153.8 756.141 153.8H751.373C753.844 153.8 755.846 151.798 755.846 149.327V128.154C755.846 125.683 753.844 123.679 751.373 123.679H756.141C758.612 123.679 760.614 125.683 760.614 128.154V128.154Z" fill="#FF435F"/>
<path d="M712.253 139.127H706.519V146.081C706.519 146.611 705.92 146.887 705.299 146.887C704.7 146.887 704.077 146.611 704.077 146.081V130.836C704.077 130.283 704.7 130.054 705.299 130.054C705.92 130.054 706.519 130.283 706.519 130.836V137.192H712.253V130.836C712.253 130.283 712.875 130.054 713.474 130.054C714.095 130.054 714.695 130.283 714.695 130.836V146.081C714.695 146.611 714.095 146.887 713.474 146.887C712.875 146.887 712.253 146.611 712.253 146.081V139.127Z" fill="black"/>
<path d="M726.899 130.054C727.451 130.054 727.705 130.607 727.705 131.136C727.705 131.735 727.429 132.288 726.899 132.288H723.352V146.081C723.352 146.611 722.731 146.887 722.132 146.887C721.51 146.887 720.911 146.611 720.911 146.081V132.288H717.342C716.835 132.288 716.536 131.758 716.536 131.159C716.536 130.629 716.79 130.054 717.342 130.054H726.899Z" fill="black"/>
<path d="M736.8 140.739C736.547 141.154 736.224 141.291 735.901 141.291C735.602 141.291 735.28 141.154 735.073 140.739L731.987 134.889V146.081C731.987 146.611 731.388 146.887 730.766 146.887C730.168 146.887 729.545 146.611 729.545 146.081V131.274C729.545 130.376 730.145 130.054 730.766 130.054C731.641 130.054 732.125 130.353 732.701 131.436L735.924 137.538L739.195 131.436C739.77 130.353 740.231 130.054 741.106 130.054C741.751 130.054 742.327 130.376 742.327 131.274V146.081C742.327 146.611 741.728 146.887 741.106 146.887C740.508 146.887 739.886 146.611 739.886 146.081V135.028L736.8 140.739Z" fill="black"/>
<path d="M746.448 146.887C745.918 146.887 745.365 146.611 745.365 146.081V130.836C745.365 130.283 745.988 130.054 746.587 130.054C747.208 130.054 747.807 130.283 747.807 130.836V144.723H753.795C754.279 144.723 754.532 145.252 754.532 145.805C754.532 146.335 754.279 146.887 753.795 146.887H746.448Z" fill="black"/>
<path d="M796.746 117.967C794.939 116.296 793.133 114.625 791.327 112.954C786.739 108.709 782.151 104.466 777.564 100.221C775.763 98.5555 773.963 96.8902 772.163 95.2248C771.363 94.4854 770.231 93.0222 769.091 93.0009C769.082 93.0009 769.073 93 769.064 93H711.934C708.351 93 705.434 95.9162 705.434 99.4999V121.907H701.246C697.802 121.907 695 124.709 695 128.153V149.327C695 152.771 697.802 155.572 701.246 155.572H705.434V168.815C705.434 169.794 706.228 170.587 707.207 170.587C708.186 170.587 708.98 169.794 708.98 168.815V155.572H756.142C759.586 155.572 762.388 152.771 762.388 149.327V128.153C762.388 124.709 759.586 121.907 756.142 121.907H736.23C735.251 121.907 734.457 122.701 734.457 123.68C734.457 124.659 735.251 125.453 736.23 125.453H756.142C757.631 125.453 758.842 126.664 758.842 128.153V149.327C758.842 150.815 757.631 152.027 756.142 152.027H701.246C699.757 152.027 698.546 150.815 698.546 149.327V128.153C698.546 126.664 699.757 125.453 701.246 125.453H725.435C726.415 125.453 727.209 124.659 727.209 123.68C727.209 122.701 726.415 121.907 725.435 121.907H708.98V99.4999C708.98 97.8706 710.305 96.5458 711.934 96.5458H767.291V114.607C767.291 118.192 770.207 121.107 773.791 121.107H793.768V207.5C793.768 209.129 792.444 210.455 790.814 210.455H711.934C710.305 210.455 708.98 209.129 708.98 207.5V180.081C708.98 179.103 708.186 178.309 707.207 178.309C706.228 178.309 705.434 179.103 705.434 180.081V207.5C705.434 211.084 708.351 214 711.934 214H790.814C794.398 214 797.314 211.084 797.314 207.5V119.267C797.314 118.774 797.107 118.302 796.746 117.967V117.967ZM773.791 117.561C772.162 117.561 770.836 116.237 770.836 114.607V98.8353L791.024 117.561H773.791Z" fill="black"/>
<path d="M741.609 162.109C740.918 161.417 739.795 161.417 739.103 162.109L727.994 173.218C727.301 173.911 727.301 175.033 727.994 175.726L739.103 186.835C739.449 187.181 739.902 187.354 740.357 187.354C740.81 187.354 741.264 187.181 741.609 186.835C742.302 186.143 742.302 185.02 741.609 184.328L731.754 174.472L741.609 164.616C742.302 163.924 742.302 162.802 741.609 162.109V162.109Z" fill="black"/>
<path d="M761.138 186.835C761.485 187.181 761.939 187.354 762.392 187.354C762.846 187.354 763.3 187.181 763.646 186.835L774.755 175.726C775.447 175.033 775.447 173.911 774.755 173.218L763.646 162.109C762.953 161.417 761.831 161.417 761.138 162.109C760.447 162.802 760.447 163.924 761.138 164.616L770.995 174.472L761.138 184.328C760.446 185.02 760.446 186.143 761.138 186.835V186.835Z" fill="black"/>
<path d="M747.01 187.355C747.717 187.355 748.386 186.928 748.66 186.229L757.389 164.011C757.747 163.1 757.298 162.07 756.387 161.712C755.476 161.354 754.447 161.803 754.089 162.714L745.36 184.933C745.002 185.844 745.451 186.873 746.362 187.231C746.575 187.315 746.794 187.355 747.01 187.355V187.355Z" fill="black"/>
<path d="M63.008 249V235.284H55.844V231.144H68.3V249H63.008ZM65.42 228.336C64.388 228.336 63.536 228.048 62.864 227.472C62.216 226.896 61.892 226.116 61.892 225.132C61.892 224.148 62.216 223.356 62.864 222.756C63.536 222.132 64.388 221.82 65.42 221.82C66.452 221.82 67.292 222.132 67.94 222.756C68.612 223.356 68.948 224.148 68.948 225.132C68.948 226.116 68.612 226.896 67.94 227.472C67.292 228.048 66.452 228.336 65.42 228.336ZM77.1779 249V231.144H81.4979L81.8939 233.52H82.0379C82.8059 232.752 83.6819 232.092 84.6659 231.54C85.6739 230.988 86.8499 230.712 88.1939 230.712C90.2099 230.712 91.6859 231.36 92.6219 232.656C93.5579 233.952 94.0259 235.728 94.0259 237.984V249H88.7339V238.668C88.7339 237.468 88.5419 236.592 88.1579 236.04C87.7739 235.488 87.0899 235.212 86.1059 235.212C85.3859 235.212 84.7499 235.368 84.1979 235.68C83.6699 235.992 83.0939 236.46 82.4699 237.084V249H77.1779ZM105.388 249.432C104.26 249.432 103.228 249.216 102.292 248.784C101.38 248.352 100.588 247.74 99.9159 246.948C99.2679 246.132 98.7639 245.148 98.4039 243.996C98.0439 242.844 97.8639 241.536 97.8639 240.072C97.8639 238.608 98.0799 237.3 98.5119 236.148C98.9439 234.996 99.5079 234.024 100.204 233.232C100.924 232.416 101.74 231.792 102.652 231.36C103.564 230.928 104.512 230.712 105.496 230.712C106.504 230.712 107.356 230.88 108.052 231.216C108.748 231.528 109.396 231.996 109.996 232.62H110.14L109.888 229.848V223.764H115.18V249H110.86L110.464 247.164H110.356C109.684 247.812 108.916 248.352 108.052 248.784C107.188 249.216 106.3 249.432 105.388 249.432ZM106.756 245.112C107.356 245.112 107.908 244.992 108.412 244.752C108.916 244.488 109.408 244.056 109.888 243.456V236.22C109.408 235.788 108.916 235.488 108.412 235.32C107.932 235.128 107.428 235.032 106.9 235.032C105.916 235.032 105.064 235.44 104.344 236.256C103.648 237.072 103.3 238.32 103.3 240C103.3 241.776 103.6 243.072 104.2 243.888C104.8 244.704 105.652 245.112 106.756 245.112ZM129.638 249.432C128.246 249.432 126.938 249.228 125.714 248.82C124.514 248.388 123.47 247.776 122.582 246.984C121.694 246.192 120.998 245.22 120.494 244.068C119.99 242.892 119.738 241.56 119.738 240.072C119.738 238.608 119.99 237.3 120.494 236.148C121.022 234.972 121.718 233.988 122.582 233.196C123.446 232.38 124.43 231.768 125.534 231.36C126.662 230.928 127.826 230.712 129.026 230.712C130.394 230.712 131.606 230.928 132.662 231.36C133.718 231.792 134.594 232.392 135.29 233.16C136.01 233.928 136.55 234.84 136.91 235.896C137.27 236.928 137.45 238.056 137.45 239.28C137.45 239.76 137.414 240.228 137.342 240.684C137.294 241.116 137.246 241.44 137.198 241.656H125.03C125.294 242.952 125.882 243.9 126.794 244.5C127.706 245.1 128.894 245.4 130.358 245.4C131.174 245.4 131.942 245.292 132.662 245.076C133.406 244.86 134.174 244.548 134.966 244.14L136.73 247.344C135.698 247.992 134.558 248.508 133.31 248.892C132.062 249.252 130.838 249.432 129.638 249.432ZM129.206 234.744C128.15 234.744 127.262 235.02 126.542 235.572C125.846 236.124 125.366 236.964 125.102 238.092H132.734C132.47 235.86 131.294 234.744 129.206 234.744ZM140.676 249L146.868 239.712L141.072 231.144H146.76L148.596 234.024C148.86 234.528 149.16 235.044 149.496 235.572C149.832 236.076 150.156 236.58 150.468 237.084H150.612C150.852 236.58 151.092 236.064 151.332 235.536C151.596 235.008 151.848 234.504 152.088 234.024L153.672 231.144H159.216L153.384 240.324L159.576 249H153.888L151.836 246.048C151.5 245.544 151.152 245.028 150.792 244.5C150.456 243.972 150.12 243.456 149.784 242.952H149.64C149.376 243.456 149.1 243.972 148.812 244.5C148.524 245.004 148.248 245.52 147.984 246.048L146.22 249H140.676ZM171.73 249.432C170.482 249.432 169.474 249.036 168.706 248.244C167.938 247.428 167.554 246.42 167.554 245.22C167.554 244.62 167.65 244.068 167.842 243.564C168.058 243.036 168.346 242.58 168.706 242.196C169.066 241.812 169.498 241.512 170.002 241.296C170.53 241.08 171.106 240.972 171.73 240.972C172.354 240.972 172.918 241.08 173.422 241.296C173.95 241.512 174.394 241.812 174.754 242.196C175.114 242.58 175.39 243.036 175.582 243.564C175.798 244.068 175.906 244.62 175.906 245.22C175.906 246.42 175.522 247.428 174.754 248.244C173.986 249.036 172.978 249.432 171.73 249.432ZM185.108 249V223.764H190.4V229.956L190.112 233.376H190.22C190.892 232.68 191.708 232.068 192.668 231.54C193.628 230.988 194.792 230.712 196.16 230.712C198.176 230.712 199.64 231.36 200.552 232.656C201.488 233.952 201.956 235.728 201.956 237.984V249H196.664V238.668C196.664 237.468 196.472 236.592 196.088 236.04C195.704 235.488 195.02 235.212 194.036 235.212C193.316 235.212 192.68 235.368 192.128 235.68C191.6 235.992 191.024 236.46 190.4 237.084V249H185.108ZM218.07 249.432C216.654 249.432 215.454 249.24 214.47 248.856C213.486 248.472 212.682 247.944 212.058 247.272C211.458 246.576 211.026 245.748 210.762 244.788C210.498 243.828 210.366 242.76 210.366 241.584V235.284H205.866V231.36L210.618 231.144L211.302 225.672H215.658V231.144H223.218V235.284H215.658V241.548C215.658 242.916 215.958 243.888 216.558 244.464C217.158 245.016 218.118 245.292 219.438 245.292C220.11 245.292 220.722 245.232 221.274 245.112C221.85 244.992 222.414 244.836 222.966 244.644L223.902 248.46C223.11 248.7 222.234 248.916 221.274 249.108C220.338 249.324 219.27 249.432 218.07 249.432ZM226.948 249V231.144H230.944L231.304 233.34H231.448C231.784 232.62 232.252 232.008 232.852 231.504C233.452 230.976 234.268 230.712 235.3 230.712C236.068 230.712 236.716 230.964 237.244 231.468C237.796 231.948 238.18 232.668 238.396 233.628C238.732 232.812 239.212 232.128 239.836 231.576C240.484 231 241.324 230.712 242.356 230.712C243.652 230.712 244.636 231.228 245.308 232.26C246.004 233.268 246.352 234.672 246.352 236.472V249H241.312V236.832C241.312 236.28 241.24 235.872 241.096 235.608C240.952 235.344 240.7 235.212 240.34 235.212C240.004 235.212 239.716 235.356 239.476 235.644C239.236 235.932 238.984 236.364 238.72 236.94V249H234.58V236.832C234.58 235.752 234.244 235.212 233.572 235.212C233.236 235.212 232.948 235.356 232.708 235.644C232.468 235.932 232.228 236.364 231.988 236.94V249H226.948ZM261.493 249.432C259.237 249.432 257.533 248.772 256.381 247.452C255.253 246.108 254.689 244.296 254.689 242.016V227.94H249.073V223.764H259.981V242.232C259.981 242.784 260.053 243.252 260.197 243.636C260.365 243.996 260.581 244.296 260.845 244.536C261.133 244.752 261.445 244.908 261.781 245.004C262.141 245.1 262.513 245.148 262.897 245.148C263.305 245.148 263.725 245.112 264.157 245.04C264.613 244.944 265.117 244.788 265.669 244.572L266.857 248.46C266.377 248.604 265.933 248.736 265.525 248.856C265.117 248.976 264.709 249.072 264.301 249.144C263.893 249.24 263.461 249.312 263.005 249.36C262.549 249.408 262.045 249.432 261.493 249.432Z" fill="black"/>
<path d="M658.008 249V235.284H650.844V231.144H663.3V249H658.008ZM660.42 228.336C659.388 228.336 658.536 228.048 657.864 227.472C657.216 226.896 656.892 226.116 656.892 225.132C656.892 224.148 657.216 223.356 657.864 222.756C658.536 222.132 659.388 221.82 660.42 221.82C661.452 221.82 662.292 222.132 662.94 222.756C663.612 223.356 663.948 224.148 663.948 225.132C663.948 226.116 663.612 226.896 662.94 227.472C662.292 228.048 661.452 228.336 660.42 228.336ZM672.178 249V231.144H676.498L676.894 233.52H677.038C677.806 232.752 678.682 232.092 679.666 231.54C680.674 230.988 681.85 230.712 683.194 230.712C685.21 230.712 686.686 231.36 687.622 232.656C688.558 233.952 689.026 235.728 689.026 237.984V249H683.734V238.668C683.734 237.468 683.542 236.592 683.158 236.04C682.774 235.488 682.09 235.212 681.106 235.212C680.386 235.212 679.75 235.368 679.198 235.68C678.67 235.992 678.094 236.46 677.47 237.084V249H672.178ZM700.388 249.432C699.26 249.432 698.228 249.216 697.292 248.784C696.38 248.352 695.588 247.74 694.916 246.948C694.268 246.132 693.764 245.148 693.404 243.996C693.044 242.844 692.864 241.536 692.864 240.072C692.864 238.608 693.08 237.3 693.512 236.148C693.944 234.996 694.508 234.024 695.204 233.232C695.924 232.416 696.74 231.792 697.652 231.36C698.564 230.928 699.512 230.712 700.496 230.712C701.504 230.712 702.356 230.88 703.052 231.216C703.748 231.528 704.396 231.996 704.996 232.62H705.14L704.888 229.848V223.764H710.18V249H705.86L705.464 247.164H705.356C704.684 247.812 703.916 248.352 703.052 248.784C702.188 249.216 701.3 249.432 700.388 249.432ZM701.756 245.112C702.356 245.112 702.908 244.992 703.412 244.752C703.916 244.488 704.408 244.056 704.888 243.456V236.22C704.408 235.788 703.916 235.488 703.412 235.32C702.932 235.128 702.428 235.032 701.9 235.032C700.916 235.032 700.064 235.44 699.344 236.256C698.648 237.072 698.3 238.32 698.3 240C698.3 241.776 698.6 243.072 699.2 243.888C699.8 244.704 700.652 245.112 701.756 245.112ZM724.638 249.432C723.246 249.432 721.938 249.228 720.714 248.82C719.514 248.388 718.47 247.776 717.582 246.984C716.694 246.192 715.998 245.22 715.494 244.068C714.99 242.892 714.738 241.56 714.738 240.072C714.738 238.608 714.99 237.3 715.494 236.148C716.022 234.972 716.718 233.988 717.582 233.196C718.446 232.38 719.43 231.768 720.534 231.36C721.662 230.928 722.826 230.712 724.026 230.712C725.394 230.712 726.606 230.928 727.662 231.36C728.718 231.792 729.594 232.392 730.29 233.16C731.01 233.928 731.55 234.84 731.91 235.896C732.27 236.928 732.45 238.056 732.45 239.28C732.45 239.76 732.414 240.228 732.342 240.684C732.294 241.116 732.246 241.44 732.198 241.656H720.03C720.294 242.952 720.882 243.9 721.794 244.5C722.706 245.1 723.894 245.4 725.358 245.4C726.174 245.4 726.942 245.292 727.662 245.076C728.406 244.86 729.174 244.548 729.966 244.14L731.73 247.344C730.698 247.992 729.558 248.508 728.31 248.892C727.062 249.252 725.838 249.432 724.638 249.432ZM724.206 234.744C723.15 234.744 722.262 235.02 721.542 235.572C720.846 236.124 720.366 236.964 720.102 238.092H727.734C727.47 235.86 726.294 234.744 724.206 234.744ZM735.676 249L741.868 239.712L736.072 231.144H741.76L743.596 234.024C743.86 234.528 744.16 235.044 744.496 235.572C744.832 236.076 745.156 236.58 745.468 237.084H745.612C745.852 236.58 746.092 236.064 746.332 235.536C746.596 235.008 746.848 234.504 747.088 234.024L748.672 231.144H754.216L748.384 240.324L754.576 249H748.888L746.836 246.048C746.5 245.544 746.152 245.028 745.792 244.5C745.456 243.972 745.12 243.456 744.784 242.952H744.64C744.376 243.456 744.1 243.972 743.812 244.5C743.524 245.004 743.248 245.52 742.984 246.048L741.22 249H735.676ZM766.73 249.432C765.482 249.432 764.474 249.036 763.706 248.244C762.938 247.428 762.554 246.42 762.554 245.22C762.554 244.62 762.65 244.068 762.842 243.564C763.058 243.036 763.346 242.58 763.706 242.196C764.066 241.812 764.498 241.512 765.002 241.296C765.53 241.08 766.106 240.972 766.73 240.972C767.354 240.972 767.918 241.08 768.422 241.296C768.95 241.512 769.394 241.812 769.754 242.196C770.114 242.58 770.39 243.036 770.582 243.564C770.798 244.068 770.906 244.62 770.906 245.22C770.906 246.42 770.522 247.428 769.754 248.244C768.986 249.036 767.978 249.432 766.73 249.432ZM780.108 249V223.764H785.4V229.956L785.112 233.376H785.22C785.892 232.68 786.708 232.068 787.668 231.54C788.628 230.988 789.792 230.712 791.16 230.712C793.176 230.712 794.64 231.36 795.552 232.656C796.488 233.952 796.956 235.728 796.956 237.984V249H791.664V238.668C791.664 237.468 791.472 236.592 791.088 236.04C790.704 235.488 790.02 235.212 789.036 235.212C788.316 235.212 787.68 235.368 787.128 235.68C786.6 235.992 786.024 236.46 785.4 237.084V249H780.108ZM813.07 249.432C811.654 249.432 810.454 249.24 809.47 248.856C808.486 248.472 807.682 247.944 807.058 247.272C806.458 246.576 806.026 245.748 805.762 244.788C805.498 243.828 805.366 242.76 805.366 241.584V235.284H800.866V231.36L805.618 231.144L806.302 225.672H810.658V231.144H818.218V235.284H810.658V241.548C810.658 242.916 810.958 243.888 811.558 244.464C812.158 245.016 813.118 245.292 814.438 245.292C815.11 245.292 815.722 245.232 816.274 245.112C816.85 244.992 817.414 244.836 817.966 244.644L818.902 248.46C818.11 248.7 817.234 248.916 816.274 249.108C815.338 249.324 814.27 249.432 813.07 249.432ZM821.948 249V231.144H825.944L826.304 233.34H826.448C826.784 232.62 827.252 232.008 827.852 231.504C828.452 230.976 829.268 230.712 830.3 230.712C831.068 230.712 831.716 230.964 832.244 231.468C832.796 231.948 833.18 232.668 833.396 233.628C833.732 232.812 834.212 232.128 834.836 231.576C835.484 231 836.324 230.712 837.356 230.712C838.652 230.712 839.636 231.228 840.308 232.26C841.004 233.268 841.352 234.672 841.352 236.472V249H836.312V236.832C836.312 236.28 836.24 235.872 836.096 235.608C835.952 235.344 835.7 235.212 835.34 235.212C835.004 235.212 834.716 235.356 834.476 235.644C834.236 235.932 833.984 236.364 833.72 236.94V249H829.58V236.832C829.58 235.752 829.244 235.212 828.572 235.212C828.236 235.212 827.948 235.356 827.708 235.644C827.468 235.932 827.228 236.364 826.988 236.94V249H821.948ZM856.493 249.432C854.237 249.432 852.533 248.772 851.381 247.452C850.253 246.108 849.689 244.296 849.689 242.016V227.94H844.073V223.764H854.981V242.232C854.981 242.784 855.053 243.252 855.197 243.636C855.365 243.996 855.581 244.296 855.845 244.536C856.133 244.752 856.445 244.908 856.781 245.004C857.141 245.1 857.513 245.148 857.897 245.148C858.305 245.148 858.725 245.112 859.157 245.04C859.613 244.944 860.117 244.788 860.669 244.572L861.857 248.46C861.377 248.604 860.933 248.736 860.525 248.856C860.117 248.976 859.709 249.072 859.301 249.144C858.893 249.24 858.461 249.312 858.005 249.36C857.549 249.408 857.045 249.432 856.493 249.432Z" fill="black"/>
<path d="M673.38 279L667.38 264.33H670.38L673.47 272.31C673.75 273.05 674.01 273.78 674.25 274.5C674.51 275.22 674.77 275.94 675.03 276.66H675.15C675.41 275.94 675.66 275.22 675.9 274.5C676.14 273.78 676.4 273.05 676.68 272.31L679.77 264.33H682.62L676.74 279H673.38ZM693.888 279.36C692.768 279.36 691.728 279.19 690.768 278.85C689.808 278.51 688.968 278.01 688.248 277.35C687.528 276.69 686.958 275.88 686.538 274.92C686.138 273.96 685.938 272.87 685.938 271.65C685.938 270.45 686.148 269.38 686.568 268.44C686.988 267.48 687.538 266.67 688.218 266.01C688.918 265.35 689.718 264.85 690.618 264.51C691.518 264.15 692.458 263.97 693.438 263.97C694.518 263.97 695.478 264.14 696.318 264.48C697.158 264.82 697.858 265.3 698.418 265.92C698.998 266.52 699.438 267.25 699.738 268.11C700.038 268.95 700.188 269.88 700.188 270.9C700.188 271.22 700.178 271.52 700.158 271.8C700.138 272.08 700.108 272.32 700.068 272.52H688.908C689.068 274.04 689.638 275.17 690.618 275.91C691.618 276.65 692.838 277.02 694.278 277.02C695.098 277.02 695.848 276.91 696.528 276.69C697.208 276.45 697.878 276.13 698.538 275.73L699.588 277.62C698.828 278.12 697.968 278.54 697.008 278.88C696.068 279.2 695.028 279.36 693.888 279.36ZM693.528 266.31C692.968 266.31 692.438 266.4 691.938 266.58C691.438 266.74 690.988 266.99 690.588 267.33C690.188 267.67 689.848 268.09 689.568 268.59C689.288 269.09 689.088 269.67 688.968 270.33H697.518C697.418 268.99 697.008 267.99 696.288 267.33C695.588 266.65 694.668 266.31 693.528 266.31ZM706.117 279V264.33H708.577L708.817 267.75H708.907C709.667 266.55 710.587 265.62 711.667 264.96C712.767 264.3 713.977 263.97 715.297 263.97C715.877 263.97 716.387 264.02 716.827 264.12C717.267 264.2 717.717 264.35 718.177 264.57L717.517 267.12C717.017 266.96 716.587 266.84 716.227 266.76C715.867 266.68 715.407 266.64 714.847 266.64C713.787 266.64 712.767 266.94 711.787 267.54C710.807 268.14 709.907 269.18 709.087 270.66V279H706.117ZM729.145 279.36C727.745 279.36 726.425 279.14 725.185 278.7C723.945 278.24 722.875 277.7 721.975 277.08L723.295 275.16C724.155 275.76 725.085 276.23 726.085 276.57C727.105 276.91 728.255 277.08 729.535 277.08C730.675 277.08 731.515 276.89 732.055 276.51C732.595 276.11 732.865 275.63 732.865 275.07C732.865 274.81 732.815 274.57 732.715 274.35C732.615 274.13 732.405 273.93 732.085 273.75C731.785 273.55 731.355 273.36 730.795 273.18C730.235 273 729.495 272.81 728.575 272.61C726.635 272.21 725.195 271.67 724.255 270.99C723.335 270.29 722.875 269.38 722.875 268.26C722.875 267.64 723.005 267.07 723.265 266.55C723.545 266.03 723.945 265.58 724.465 265.2C725.005 264.82 725.665 264.52 726.445 264.3C727.225 264.08 728.125 263.97 729.145 263.97C730.305 263.97 731.405 264.17 732.445 264.57C733.505 264.95 734.405 265.39 735.145 265.89L733.765 267.75C733.065 267.29 732.295 266.93 731.455 266.67C730.635 266.39 729.775 266.25 728.875 266.25C727.755 266.25 726.965 266.43 726.505 266.79C726.065 267.15 725.845 267.59 725.845 268.11C725.845 268.69 726.155 269.13 726.775 269.43C727.395 269.73 728.425 270.03 729.865 270.33C731.065 270.59 732.045 270.87 732.805 271.17C733.585 271.47 734.195 271.8 734.635 272.16C735.095 272.52 735.415 272.93 735.595 273.39C735.775 273.83 735.865 274.33 735.865 274.89C735.865 275.51 735.715 276.09 735.415 276.63C735.115 277.17 734.675 277.65 734.095 278.07C733.535 278.47 732.835 278.78 731.995 279C731.175 279.24 730.225 279.36 729.145 279.36ZM747.133 279V266.73H740.563V264.33H750.103V279H747.133ZM748.363 261.48C747.723 261.48 747.193 261.29 746.773 260.91C746.353 260.51 746.143 259.99 746.143 259.35C746.143 258.71 746.353 258.2 746.773 257.82C747.193 257.42 747.723 257.22 748.363 257.22C749.003 257.22 749.533 257.42 749.953 257.82C750.373 258.2 750.583 258.71 750.583 259.35C750.583 259.99 750.373 260.51 749.953 260.91C749.533 261.29 749.003 261.48 748.363 261.48ZM764.941 279.36C763.981 279.36 763.061 279.19 762.181 278.85C761.301 278.51 760.521 278.01 759.841 277.35C759.161 276.69 758.621 275.89 758.221 274.95C757.821 273.99 757.621 272.9 757.621 271.68C757.621 270.46 757.821 269.37 758.221 268.41C758.621 267.45 759.161 266.64 759.841 265.98C760.521 265.32 761.301 264.82 762.181 264.48C763.061 264.14 763.981 263.97 764.941 263.97C765.901 263.97 766.821 264.14 767.701 264.48C768.581 264.82 769.361 265.32 770.041 265.98C770.721 266.64 771.261 267.45 771.661 268.41C772.061 269.37 772.261 270.46 772.261 271.68C772.261 272.9 772.061 273.99 771.661 274.95C771.261 275.89 770.721 276.69 770.041 277.35C769.361 278.01 768.581 278.51 767.701 278.85C766.821 279.19 765.901 279.36 764.941 279.36ZM764.941 276.93C766.261 276.93 767.301 276.45 768.061 275.49C768.821 274.53 769.201 273.26 769.201 271.68C769.201 270.1 768.821 268.83 768.061 267.87C767.301 266.91 766.261 266.43 764.941 266.43C763.621 266.43 762.581 266.91 761.821 267.87C761.061 268.83 760.681 270.1 760.681 271.68C760.681 273.26 761.061 274.53 761.821 275.49C762.581 276.45 763.621 276.93 764.941 276.93ZM776.57 279V264.33H779L779.24 266.7H779.36C780.1 265.94 780.9 265.3 781.76 264.78C782.62 264.24 783.62 263.97 784.76 263.97C786.48 263.97 787.74 264.48 788.54 265.5C789.34 266.52 789.74 267.99 789.74 269.91V279H786.77V270.3C786.77 269.02 786.54 268.08 786.08 267.48C785.62 266.86 784.83 266.55 783.71 266.55C782.93 266.55 782.23 266.75 781.61 267.15C780.99 267.53 780.3 268.11 779.54 268.89V279H776.57ZM799.148 279.36C798.448 279.36 797.788 279.26 797.168 279.06C796.568 278.86 796.048 278.58 795.608 278.22C795.168 277.84 794.818 277.39 794.558 276.87C794.318 276.35 794.198 275.77 794.198 275.13C794.198 274.31 794.388 273.59 794.768 272.97C795.168 272.35 795.778 271.82 796.598 271.38C797.438 270.94 798.508 270.58 799.808 270.3C801.128 270.02 802.708 269.81 804.548 269.67C804.508 268.77 804.208 268 803.648 267.36C803.108 266.72 802.188 266.4 800.888 266.4C799.988 266.4 799.108 266.57 798.248 266.91C797.408 267.25 796.628 267.63 795.908 268.05L794.798 266.04C795.198 265.8 795.648 265.56 796.148 265.32C796.648 265.06 797.178 264.83 797.738 264.63C798.318 264.43 798.908 264.27 799.508 264.15C800.128 264.03 800.758 263.97 801.398 263.97C803.438 263.97 804.968 264.52 805.988 265.62C807.008 266.72 807.518 268.24 807.518 270.18V279H805.088L804.848 277.11H804.758C803.978 277.71 803.098 278.24 802.118 278.7C801.158 279.14 800.168 279.36 799.148 279.36ZM799.988 276.99C800.768 276.99 801.528 276.82 802.268 276.48C803.028 276.14 803.788 275.66 804.548 275.04V271.56C803.108 271.68 801.908 271.84 800.948 272.04C799.988 272.22 799.218 272.46 798.638 272.76C798.078 273.04 797.678 273.36 797.438 273.72C797.198 274.08 797.078 274.48 797.078 274.92C797.078 275.66 797.358 276.19 797.918 276.51C798.498 276.83 799.188 276.99 799.988 276.99ZM817.916 279.36C816.956 279.36 816.086 279.19 815.306 278.85C814.546 278.51 813.886 278.01 813.326 277.35C812.766 276.69 812.336 275.89 812.036 274.95C811.736 273.99 811.586 272.9 811.586 271.68C811.586 270.48 811.766 269.41 812.126 268.47C812.506 267.51 812.996 266.7 813.596 266.04C814.216 265.38 814.916 264.87 815.696 264.51C816.496 264.15 817.316 263.97 818.156 263.97C819.016 263.97 819.776 264.13 820.436 264.45C821.116 264.77 821.756 265.22 822.356 265.8H822.446L822.296 263.19V257.73H825.266V279H822.836L822.596 277.2H822.506C821.926 277.78 821.236 278.29 820.436 278.73C819.636 279.15 818.796 279.36 817.916 279.36ZM818.606 276.9C819.926 276.9 821.156 276.24 822.296 274.92V267.96C821.716 267.4 821.136 267.01 820.556 266.79C819.976 266.57 819.396 266.46 818.816 266.46C818.236 266.46 817.696 266.58 817.196 266.82C816.696 267.06 816.256 267.41 815.876 267.87C815.496 268.31 815.196 268.85 814.976 269.49C814.756 270.13 814.646 270.85 814.646 271.65C814.646 273.35 814.986 274.65 815.666 275.55C816.366 276.45 817.346 276.9 818.606 276.9ZM836.895 279.36C835.935 279.36 835.015 279.19 834.135 278.85C833.255 278.51 832.475 278.01 831.795 277.35C831.115 276.69 830.575 275.89 830.175 274.95C829.775 273.99 829.575 272.9 829.575 271.68C829.575 270.46 829.775 269.37 830.175 268.41C830.575 267.45 831.115 266.64 831.795 265.98C832.475 265.32 833.255 264.82 834.135 264.48C835.015 264.14 835.935 263.97 836.895 263.97C837.855 263.97 838.775 264.14 839.655 264.48C840.535 264.82 841.315 265.32 841.995 265.98C842.675 266.64 843.215 267.45 843.615 268.41C844.015 269.37 844.215 270.46 844.215 271.68C844.215 272.9 844.015 273.99 843.615 274.95C843.215 275.89 842.675 276.69 841.995 277.35C841.315 278.01 840.535 278.51 839.655 278.85C838.775 279.19 837.855 279.36 836.895 279.36ZM836.895 276.93C838.215 276.93 839.255 276.45 840.015 275.49C840.775 274.53 841.155 273.26 841.155 271.68C841.155 270.1 840.775 268.83 840.015 267.87C839.255 266.91 838.215 266.43 836.895 266.43C835.575 266.43 834.535 266.91 833.775 267.87C833.015 268.83 832.635 270.1 832.635 271.68C832.635 273.26 833.015 274.53 833.775 275.49C834.535 276.45 835.575 276.93 836.895 276.93Z" fill="black"/>
<path d="M560.789 147.406C560.787 147.403 560.785 147.401 560.782 147.398L521.389 108.195C518.438 105.259 513.664 105.269 510.727 108.221C507.79 111.172 507.801 115.946 510.752 118.883L537.201 145.203H377.539C373.375 145.203 370 148.578 370 152.742C370 156.906 373.375 160.281 377.539 160.281H537.2L510.752 186.602C507.801 189.539 507.79 194.312 510.727 197.263C513.665 200.215 518.438 200.225 521.389 197.289L560.782 158.086C560.785 158.084 560.787 158.081 560.789 158.079C563.742 155.132 563.732 150.343 560.789 147.406Z" fill="black"/>
<path d="M414.348 83.432C412.932 83.432 411.624 83.228 410.424 82.82C409.224 82.388 408.168 81.776 407.256 80.984C406.368 80.192 405.672 79.22 405.168 78.068C404.664 76.892 404.412 75.56 404.412 74.072C404.412 72.584 404.688 71.264 405.24 70.112C405.816 68.936 406.572 67.952 407.508 67.16C408.468 66.368 409.572 65.768 410.82 65.36C412.068 64.928 413.376 64.712 414.744 64.712C416.16 64.712 417.432 64.94 418.56 65.396C419.712 65.852 420.672 66.428 421.44 67.124L418.992 70.4C417.672 69.464 416.352 68.996 415.032 68.996C413.496 68.996 412.248 69.452 411.288 70.364C410.328 71.276 409.848 72.512 409.848 74.072C409.848 75.632 410.304 76.868 411.216 77.78C412.152 78.692 413.364 79.148 414.852 79.148C415.788 79.148 416.64 78.98 417.408 78.644C418.2 78.308 418.92 77.912 419.568 77.456L421.692 80.804C420.612 81.716 419.424 82.388 418.128 82.82C416.832 83.228 415.572 83.432 414.348 83.432ZM434.386 83.432C433.21 83.432 432.07 83.228 430.966 82.82C429.886 82.388 428.914 81.776 428.05 80.984C427.21 80.192 426.538 79.22 426.034 78.068C425.53 76.892 425.278 75.56 425.278 74.072C425.278 72.584 425.53 71.264 426.034 70.112C426.538 68.936 427.21 67.952 428.05 67.16C428.914 66.368 429.886 65.768 430.966 65.36C432.07 64.928 433.21 64.712 434.386 64.712C435.562 64.712 436.69 64.928 437.77 65.36C438.874 65.768 439.846 66.368 440.686 67.16C441.55 67.952 442.234 68.936 442.738 70.112C443.242 71.264 443.494 72.584 443.494 74.072C443.494 75.56 443.242 76.892 442.738 78.068C442.234 79.22 441.55 80.192 440.686 80.984C439.846 81.776 438.874 82.388 437.77 82.82C436.69 83.228 435.562 83.432 434.386 83.432ZM434.386 79.148C435.61 79.148 436.522 78.692 437.122 77.78C437.746 76.868 438.058 75.632 438.058 74.072C438.058 72.512 437.746 71.276 437.122 70.364C436.522 69.452 435.61 68.996 434.386 68.996C433.162 68.996 432.238 69.452 431.614 70.364C431.014 71.276 430.714 72.512 430.714 74.072C430.714 75.632 431.014 76.868 431.614 77.78C432.238 78.692 433.162 79.148 434.386 79.148ZM446.432 83V65.144H450.428L450.788 67.34H450.932C451.268 66.62 451.736 66.008 452.336 65.504C452.936 64.976 453.752 64.712 454.784 64.712C455.552 64.712 456.2 64.964 456.728 65.468C457.28 65.948 457.664 66.668 457.88 67.628C458.216 66.812 458.696 66.128 459.32 65.576C459.968 65 460.808 64.712 461.84 64.712C463.136 64.712 464.12 65.228 464.792 66.26C465.488 67.268 465.836 68.672 465.836 70.472V83H460.796V70.832C460.796 70.28 460.724 69.872 460.58 69.608C460.436 69.344 460.184 69.212 459.824 69.212C459.488 69.212 459.2 69.356 458.96 69.644C458.72 69.932 458.468 70.364 458.204 70.94V83H454.064V70.832C454.064 69.752 453.728 69.212 453.056 69.212C452.72 69.212 452.432 69.356 452.192 69.644C451.952 69.932 451.712 70.364 451.472 70.94V83H446.432ZM468.018 83V65.144H472.014L472.374 67.34H472.518C472.854 66.62 473.322 66.008 473.922 65.504C474.522 64.976 475.338 64.712 476.37 64.712C477.138 64.712 477.786 64.964 478.314 65.468C478.866 65.948 479.25 66.668 479.466 67.628C479.802 66.812 480.282 66.128 480.906 65.576C481.554 65 482.394 64.712 483.426 64.712C484.722 64.712 485.706 65.228 486.378 66.26C487.074 67.268 487.422 68.672 487.422 70.472V83H482.382V70.832C482.382 70.28 482.31 69.872 482.166 69.608C482.022 69.344 481.77 69.212 481.41 69.212C481.074 69.212 480.786 69.356 480.546 69.644C480.306 69.932 480.054 70.364 479.79 70.94V83H475.65V70.832C475.65 69.752 475.314 69.212 474.642 69.212C474.306 69.212 474.018 69.356 473.778 69.644C473.538 69.932 473.298 70.364 473.058 70.94V83H468.018ZM498.352 83V69.284H491.188V65.144H503.644V83H498.352ZM500.764 62.336C499.732 62.336 498.88 62.048 498.208 61.472C497.56 60.896 497.236 60.116 497.236 59.132C497.236 58.148 497.56 57.356 498.208 56.756C498.88 56.132 499.732 55.82 500.764 55.82C501.796 55.82 502.636 56.132 503.284 56.756C503.956 57.356 504.292 58.148 504.292 59.132C504.292 60.116 503.956 60.896 503.284 61.472C502.636 62.048 501.796 62.336 500.764 62.336ZM523.898 83.432C522.482 83.432 521.282 83.24 520.298 82.856C519.314 82.472 518.51 81.944 517.886 81.272C517.286 80.576 516.854 79.748 516.59 78.788C516.326 77.828 516.194 76.76 516.194 75.584V69.284H511.694V65.36L516.446 65.144L517.13 59.672H521.486V65.144H529.046V69.284H521.486V75.548C521.486 76.916 521.786 77.888 522.386 78.464C522.986 79.016 523.946 79.292 525.266 79.292C525.938 79.292 526.55 79.232 527.102 79.112C527.678 78.992 528.242 78.836 528.794 78.644L529.73 82.46C528.938 82.7 528.062 82.916 527.102 83.108C526.166 83.324 525.098 83.432 523.898 83.432Z" fill="black"/>
<defs>
<filter id="filter0_d" x="0" y="0" width="934" height="367" filterUnits="userSpaceOnUse" color-interpolation-filters="sRGB">
<feFlood flood-opacity="0" result="BackgroundImageFix"/>
<feColorMatrix in="SourceAlpha" type="matrix" values="0 0 0 0 0 0 0 0 0 0 0 0 0 0 0 0 0 0 127 0"/>
<feOffset dy="4"/>
<feGaussianBlur stdDeviation="2"/>
<feColorMatrix type="matrix" values="0 0 0 0 0 0 0 0 0 0 0 0 0 0 0 0 0 0 0.25 0"/>
<feBlend mode="normal" in2="BackgroundImageFix" result="effect1_dropShadow"/>
<feBlend mode="normal" in="SourceGraphic" in2="effect1_dropShadow" result="shape"/>
</filter>
</defs>
</svg>
