<svg width="1446" height="421" viewBox="0 0 1446 421" fill="none" xmlns="http://www.w3.org/2000/svg">
<g filter="url(#filter0_d)">
<rect x="4" width="1438" height="413" fill="white"/>
<rect x="4.5" y="0.5" width="1437" height="412" stroke="black"/>
</g>
<g clip-path="url(#clip0)">
<path d="M261.034 93.9253H172.316C168.262 93.9253 164.975 97.2125 164.975 101.267V268.982C164.975 273.036 168.262 276.323 172.316 276.323H294.811C298.865 276.323 302.152 273.036 302.152 268.982V131.964L261.034 93.9253Z" fill="#E7E7E7"/>
<path d="M302.153 131.965V268.983C302.153 273.036 298.863 276.324 294.812 276.324H285.243C289.298 276.324 292.584 273.036 292.584 268.983V123.112L302.153 131.965Z" fill="#CECECE"/>
<path d="M261.034 93.9253V124.727C261.034 128.781 264.321 132.069 268.375 132.069H302.152L261.034 93.9253Z" fill="#ACACAC"/>
<path d="M240.967 185.59H155.719C151.882 185.59 148.771 182.481 148.771 178.644V145.762C148.771 141.926 151.882 138.816 155.719 138.816H240.967C244.803 138.816 247.914 141.926 247.914 145.762V178.644C247.914 182.481 244.803 185.59 240.967 185.59Z" fill="#FF6B81"/>
<path d="M247.912 145.764V178.644C247.912 182.481 244.803 185.59 240.966 185.59H233.562C237.398 185.59 240.508 182.481 240.508 178.644V145.764C240.508 141.927 237.398 138.815 233.562 138.815H240.966C244.803 138.815 247.912 141.927 247.912 145.764V145.764Z" fill="#FF435F"/>
<path d="M172.811 162.805H163.907V173.604C163.907 174.427 162.977 174.855 162.012 174.855C161.081 174.855 160.115 174.427 160.115 173.604V149.93C160.115 149.071 161.081 148.714 162.012 148.714C162.977 148.714 163.907 149.071 163.907 149.93V159.8H172.811V149.93C172.811 149.071 173.777 148.714 174.708 148.714C175.672 148.714 176.603 149.071 176.603 149.93V173.604C176.603 174.427 175.672 174.855 174.708 174.855C173.777 174.855 172.811 174.427 172.811 173.604V162.805Z" fill="black"/>
<path d="M195.555 148.714C196.413 148.714 196.807 149.573 196.807 150.394C196.807 151.324 196.378 152.183 195.555 152.183H190.048V173.604C190.048 174.427 189.083 174.855 188.152 174.855C187.186 174.855 186.257 174.427 186.257 173.604V152.183H180.713C179.926 152.183 179.462 151.36 179.462 150.43C179.462 149.607 179.856 148.714 180.713 148.714H195.555Z" fill="black"/>
<path d="M210.93 165.308C210.537 165.951 210.036 166.165 209.535 166.165C209.071 166.165 208.57 165.951 208.249 165.308L203.457 156.223V173.604C203.457 174.427 202.526 174.855 201.56 174.855C200.631 174.855 199.665 174.427 199.665 173.604V150.609C199.665 149.214 200.595 148.714 201.56 148.714C202.919 148.714 203.67 149.178 204.565 150.86L209.571 160.336L214.65 150.86C215.543 149.178 216.259 148.714 217.618 148.714C218.62 148.714 219.513 149.214 219.513 150.609V173.604C219.513 174.427 218.584 174.855 217.618 174.855C216.689 174.855 215.723 174.427 215.723 173.604V156.438L210.93 165.308Z" fill="black"/>
<path d="M225.914 174.855C225.091 174.855 224.232 174.427 224.232 173.604V149.93C224.232 149.071 225.199 148.714 226.129 148.714C227.094 148.714 228.024 149.071 228.024 149.93V171.494H237.322C238.074 171.494 238.466 172.316 238.466 173.175C238.466 173.998 238.074 174.855 237.322 174.855H225.914Z" fill="black"/>
<path d="M304.021 129.944C301.216 127.349 298.412 124.754 295.606 122.16C288.481 115.568 281.358 108.978 274.234 102.386C271.437 99.8001 268.642 97.2139 265.846 94.6277C264.605 93.4794 262.846 91.2072 261.077 91.1742C261.063 91.1742 261.048 91.1728 261.034 91.1728H172.317C166.752 91.1728 162.223 95.7015 162.223 101.267V136.063H155.719C150.37 136.063 146.019 140.413 146.019 145.762V178.644C146.019 183.991 150.37 188.342 155.719 188.342H162.223V208.907C162.223 210.427 163.456 211.66 164.975 211.66C166.496 211.66 167.729 210.427 167.729 208.907V188.342H240.968C246.315 188.342 250.666 183.991 250.666 178.644V145.762C250.666 140.413 246.315 136.063 240.968 136.063H210.046C208.526 136.063 207.293 137.295 207.293 138.816C207.293 140.336 208.526 141.569 210.046 141.569H240.968C243.279 141.569 245.16 143.45 245.16 145.762V178.644C245.16 180.955 243.279 182.836 240.968 182.836H155.719C153.406 182.836 151.525 180.955 151.525 178.644V145.762C151.525 143.45 153.406 141.569 155.719 141.569H193.283C194.804 141.569 196.037 140.336 196.037 138.816C196.037 137.295 194.804 136.063 193.283 136.063H167.729V101.267C167.729 98.7364 169.786 96.6792 172.317 96.6792H258.281V124.727C258.281 130.294 262.809 134.821 268.375 134.821H299.398V268.981C299.398 271.512 297.341 273.57 294.81 273.57H172.317C169.786 273.57 167.729 271.512 167.729 268.981V226.403C167.729 224.883 166.496 223.65 164.975 223.65C163.456 223.65 162.223 224.883 162.223 226.403V268.981C162.223 274.548 166.752 279.075 172.317 279.075H294.81C300.376 279.075 304.904 274.548 304.904 268.981V131.964C304.904 131.197 304.583 130.464 304.021 129.944V129.944ZM268.375 129.315C265.845 129.315 263.786 127.257 263.786 124.727V100.234L295.136 129.315H268.375Z" fill="black"/>
<path d="M218.399 198.494C217.325 197.418 215.582 197.418 214.507 198.494L197.255 215.745C196.18 216.821 196.18 218.564 197.255 219.639L214.507 236.891C215.044 237.428 215.748 237.696 216.454 237.696C217.158 237.696 217.863 237.428 218.399 236.891C219.474 235.816 219.474 234.072 218.399 232.997L203.094 217.692L218.399 202.386C219.474 201.312 219.474 199.569 218.399 198.494V198.494Z" fill="black"/>
<path d="M248.726 236.891C249.264 237.428 249.969 237.696 250.673 237.696C251.378 237.696 252.082 237.428 252.62 236.891L269.872 219.639C270.947 218.564 270.947 216.821 269.872 215.745L252.62 198.494C251.545 197.418 249.802 197.418 248.726 198.494C247.653 199.569 247.653 201.312 248.726 202.386L264.033 217.692L248.726 232.997C247.651 234.072 247.651 235.816 248.726 236.891V236.891Z" fill="black"/>
<path d="M226.786 237.698C227.884 237.698 228.923 237.035 229.349 235.95L242.903 201.447C243.46 200.032 242.763 198.433 241.348 197.877C239.933 197.321 238.335 198.018 237.778 199.433L224.224 233.938C223.668 235.352 224.364 236.949 225.779 237.506C226.11 237.636 226.45 237.698 226.786 237.698V237.698Z" fill="black"/>
</g>
<path d="M1192.08 93.9253H1103.36C1099.31 93.9253 1096.02 97.2125 1096.02 101.267V268.982C1096.02 273.036 1099.31 276.323 1103.36 276.323H1225.86C1229.91 276.323 1233.2 273.036 1233.2 268.982V131.964L1192.08 93.9253Z" fill="#E7E7E7"/>
<path d="M1233.2 131.965V268.983C1233.2 273.036 1229.91 276.324 1225.86 276.324H1216.29C1220.34 276.324 1223.63 273.036 1223.63 268.983V123.112L1233.2 131.965Z" fill="#CECECE"/>
<path d="M1192.08 93.9253V124.727C1192.08 128.781 1195.37 132.069 1199.42 132.069H1233.2L1192.08 93.9253Z" fill="#ACACAC"/>
<path d="M1172.01 185.59H1086.76C1082.93 185.59 1079.82 182.481 1079.82 178.644V145.762C1079.82 141.926 1082.93 138.816 1086.76 138.816H1172.01C1175.85 138.816 1178.96 141.926 1178.96 145.762V178.644C1178.96 182.481 1175.85 185.59 1172.01 185.59Z" fill="#FF6B81"/>
<path d="M1178.96 145.764V178.644C1178.96 182.481 1175.85 185.59 1172.01 185.59H1164.61C1168.44 185.59 1171.55 182.481 1171.55 178.644V145.764C1171.55 141.927 1168.44 138.815 1164.61 138.815H1172.01C1175.85 138.815 1178.96 141.927 1178.96 145.764V145.764Z" fill="#FF435F"/>
<path d="M1103.86 162.805H1094.95V173.604C1094.95 174.427 1094.02 174.855 1093.06 174.855C1092.13 174.855 1091.16 174.427 1091.16 173.604V149.93C1091.16 149.071 1092.13 148.714 1093.06 148.714C1094.02 148.714 1094.95 149.071 1094.95 149.93V159.8H1103.86V149.93C1103.86 149.071 1104.82 148.714 1105.75 148.714C1106.72 148.714 1107.65 149.071 1107.65 149.93V173.604C1107.65 174.427 1106.72 174.855 1105.75 174.855C1104.82 174.855 1103.86 174.427 1103.86 173.604V162.805Z" fill="black"/>
<path d="M1126.6 148.714C1127.46 148.714 1127.85 149.573 1127.85 150.394C1127.85 151.324 1127.42 152.183 1126.6 152.183H1121.09V173.604C1121.09 174.427 1120.13 174.855 1119.2 174.855C1118.23 174.855 1117.3 174.427 1117.3 173.604V152.183H1111.76C1110.97 152.183 1110.51 151.36 1110.51 150.43C1110.51 149.607 1110.9 148.714 1111.76 148.714H1126.6Z" fill="black"/>
<path d="M1141.98 165.308C1141.58 165.951 1141.08 166.165 1140.58 166.165C1140.12 166.165 1139.62 165.951 1139.3 165.308L1134.5 156.223V173.604C1134.5 174.427 1133.57 174.855 1132.61 174.855C1131.68 174.855 1130.71 174.427 1130.71 173.604V150.609C1130.71 149.214 1131.64 148.714 1132.61 148.714C1133.97 148.714 1134.72 149.178 1135.61 150.86L1140.62 160.336L1145.7 150.86C1146.59 149.178 1147.3 148.714 1148.66 148.714C1149.67 148.714 1150.56 149.214 1150.56 150.609V173.604C1150.56 174.427 1149.63 174.855 1148.66 174.855C1147.73 174.855 1146.77 174.427 1146.77 173.604V156.438L1141.98 165.308Z" fill="black"/>
<path d="M1156.96 174.855C1156.14 174.855 1155.28 174.427 1155.28 173.604V149.93C1155.28 149.071 1156.24 148.714 1157.17 148.714C1158.14 148.714 1159.07 149.071 1159.07 149.93V171.494H1168.37C1169.12 171.494 1169.51 172.316 1169.51 173.175C1169.51 173.998 1169.12 174.855 1168.37 174.855H1156.96Z" fill="black"/>
<path d="M1235.07 129.944C1232.26 127.349 1229.46 124.754 1226.65 122.16C1219.53 115.568 1212.4 108.978 1205.28 102.386C1202.48 99.8001 1199.69 97.2139 1196.89 94.6277C1195.65 93.4794 1193.89 91.2072 1192.12 91.1742C1192.11 91.1742 1192.09 91.1728 1192.08 91.1728H1103.36C1097.8 91.1728 1093.27 95.7015 1093.27 101.267V136.063H1086.76C1081.42 136.063 1077.06 140.413 1077.06 145.762V178.644C1077.06 183.991 1081.42 188.342 1086.76 188.342H1093.27V208.907C1093.27 210.427 1094.5 211.66 1096.02 211.66C1097.54 211.66 1098.78 210.427 1098.78 208.907V188.342H1172.01C1177.36 188.342 1181.71 183.991 1181.71 178.644V145.762C1181.71 140.413 1177.36 136.063 1172.01 136.063H1141.09C1139.57 136.063 1138.34 137.295 1138.34 138.816C1138.34 140.336 1139.57 141.569 1141.09 141.569H1172.01C1174.32 141.569 1176.21 143.45 1176.21 145.762V178.644C1176.21 180.955 1174.32 182.836 1172.01 182.836H1086.76C1084.45 182.836 1082.57 180.955 1082.57 178.644V145.762C1082.57 143.45 1084.45 141.569 1086.76 141.569H1124.33C1125.85 141.569 1127.08 140.336 1127.08 138.816C1127.08 137.295 1125.85 136.063 1124.33 136.063H1098.78V101.267C1098.78 98.7364 1100.83 96.6792 1103.36 96.6792H1189.33V124.727C1189.33 130.294 1193.85 134.821 1199.42 134.821H1230.44V268.981C1230.44 271.512 1228.39 273.57 1225.86 273.57H1103.36C1100.83 273.57 1098.78 271.512 1098.78 268.981V226.403C1098.78 224.883 1097.54 223.65 1096.02 223.65C1094.5 223.65 1093.27 224.883 1093.27 226.403V268.981C1093.27 274.548 1097.8 279.075 1103.36 279.075H1225.86C1231.42 279.075 1235.95 274.548 1235.95 268.981V131.964C1235.95 131.197 1235.63 130.464 1235.07 129.944V129.944ZM1199.42 129.315C1196.89 129.315 1194.83 127.257 1194.83 124.727V100.234L1226.18 129.315H1199.42Z" fill="black"/>
<path d="M1149.44 198.494C1148.37 197.418 1146.63 197.418 1145.55 198.494L1128.3 215.745C1127.23 216.821 1127.23 218.564 1128.3 219.639L1145.55 236.891C1146.09 237.428 1146.79 237.696 1147.5 237.696C1148.2 237.696 1148.91 237.428 1149.44 236.891C1150.52 235.816 1150.52 234.072 1149.44 232.997L1134.14 217.692L1149.44 202.386C1150.52 201.312 1150.52 199.569 1149.44 198.494V198.494Z" fill="black"/>
<path d="M1179.77 236.891C1180.31 237.428 1181.02 237.696 1181.72 237.696C1182.42 237.696 1183.13 237.428 1183.67 236.891L1200.92 219.639C1201.99 218.564 1201.99 216.821 1200.92 215.745L1183.67 198.494C1182.59 197.418 1180.85 197.418 1179.77 198.494C1178.7 199.569 1178.7 201.312 1179.77 202.386L1195.08 217.692L1179.77 232.997C1178.7 234.072 1178.7 235.816 1179.77 236.891V236.891Z" fill="black"/>
<path d="M1157.83 237.698C1158.93 237.698 1159.97 237.035 1160.39 235.95L1173.95 201.447C1174.51 200.032 1173.81 198.433 1172.39 197.877C1170.98 197.321 1169.38 198.018 1168.82 199.433L1155.27 233.938C1154.71 235.352 1155.41 236.949 1156.83 237.506C1157.16 237.636 1157.5 237.698 1157.83 237.698V237.698Z" fill="black"/>
<path d="M145.101 314.076V300.36H137.937V296.22H150.393V314.076H145.101ZM147.513 293.412C146.481 293.412 145.629 293.124 144.957 292.548C144.309 291.972 143.985 291.192 143.985 290.208C143.985 289.224 144.309 288.432 144.957 287.832C145.629 287.208 146.481 286.896 147.513 286.896C148.545 286.896 149.385 287.208 150.033 287.832C150.705 288.432 151.041 289.224 151.041 290.208C151.041 291.192 150.705 291.972 150.033 292.548C149.385 293.124 148.545 293.412 147.513 293.412ZM159.271 314.076V296.22H163.591L163.987 298.596H164.131C164.899 297.828 165.775 297.168 166.759 296.616C167.767 296.064 168.943 295.788 170.287 295.788C172.303 295.788 173.779 296.436 174.715 297.732C175.651 299.028 176.119 300.804 176.119 303.06V314.076H170.827V303.744C170.827 302.544 170.635 301.668 170.251 301.116C169.867 300.564 169.183 300.288 168.199 300.288C167.479 300.288 166.843 300.444 166.291 300.756C165.763 301.068 165.187 301.536 164.563 302.16V314.076H159.271ZM187.481 314.508C186.353 314.508 185.321 314.292 184.385 313.86C183.473 313.428 182.681 312.816 182.009 312.024C181.361 311.208 180.857 310.224 180.497 309.072C180.137 307.92 179.957 306.612 179.957 305.148C179.957 303.684 180.173 302.376 180.605 301.224C181.037 300.072 181.601 299.1 182.297 298.308C183.017 297.492 183.833 296.868 184.745 296.436C185.657 296.004 186.605 295.788 187.589 295.788C188.597 295.788 189.449 295.956 190.145 296.292C190.841 296.604 191.489 297.072 192.089 297.696H192.233L191.981 294.924V288.84H197.273V314.076H192.953L192.557 312.24H192.449C191.777 312.888 191.009 313.428 190.145 313.86C189.281 314.292 188.393 314.508 187.481 314.508ZM188.849 310.188C189.449 310.188 190.001 310.068 190.505 309.828C191.009 309.564 191.501 309.132 191.981 308.532V301.296C191.501 300.864 191.009 300.564 190.505 300.396C190.025 300.204 189.521 300.108 188.993 300.108C188.009 300.108 187.157 300.516 186.437 301.332C185.741 302.148 185.393 303.396 185.393 305.076C185.393 306.852 185.693 308.148 186.293 308.964C186.893 309.78 187.745 310.188 188.849 310.188ZM211.731 314.508C210.339 314.508 209.031 314.304 207.807 313.896C206.607 313.464 205.563 312.852 204.675 312.06C203.787 311.268 203.091 310.296 202.587 309.144C202.083 307.968 201.831 306.636 201.831 305.148C201.831 303.684 202.083 302.376 202.587 301.224C203.115 300.048 203.811 299.064 204.675 298.272C205.539 297.456 206.523 296.844 207.627 296.436C208.755 296.004 209.919 295.788 211.119 295.788C212.487 295.788 213.699 296.004 214.755 296.436C215.811 296.868 216.687 297.468 217.383 298.236C218.103 299.004 218.643 299.916 219.003 300.972C219.363 302.004 219.543 303.132 219.543 304.356C219.543 304.836 219.507 305.304 219.435 305.76C219.387 306.192 219.339 306.516 219.291 306.732H207.123C207.387 308.028 207.975 308.976 208.887 309.576C209.799 310.176 210.987 310.476 212.451 310.476C213.267 310.476 214.035 310.368 214.755 310.152C215.499 309.936 216.267 309.624 217.059 309.216L218.823 312.42C217.791 313.068 216.651 313.584 215.403 313.968C214.155 314.328 212.931 314.508 211.731 314.508ZM211.299 299.82C210.243 299.82 209.355 300.096 208.635 300.648C207.939 301.2 207.459 302.04 207.195 303.168H214.827C214.563 300.936 213.387 299.82 211.299 299.82ZM222.769 314.076L228.961 304.788L223.165 296.22H228.853L230.689 299.1C230.953 299.604 231.253 300.12 231.589 300.648C231.925 301.152 232.249 301.656 232.561 302.16H232.705C232.945 301.656 233.185 301.14 233.425 300.612C233.689 300.084 233.941 299.58 234.181 299.1L235.765 296.22H241.309L235.477 305.4L241.669 314.076H235.981L233.929 311.124C233.593 310.62 233.245 310.104 232.885 309.576C232.549 309.048 232.213 308.532 231.877 308.028H231.733C231.469 308.532 231.193 309.048 230.905 309.576C230.617 310.08 230.341 310.596 230.077 311.124L228.313 314.076H222.769ZM253.822 314.508C252.574 314.508 251.566 314.112 250.798 313.32C250.03 312.504 249.646 311.496 249.646 310.296C249.646 309.696 249.742 309.144 249.934 308.64C250.15 308.112 250.438 307.656 250.798 307.272C251.158 306.888 251.59 306.588 252.094 306.372C252.622 306.156 253.198 306.048 253.822 306.048C254.446 306.048 255.01 306.156 255.514 306.372C256.042 306.588 256.486 306.888 256.846 307.272C257.206 307.656 257.482 308.112 257.674 308.64C257.89 309.144 257.998 309.696 257.998 310.296C257.998 311.496 257.614 312.504 256.846 313.32C256.078 314.112 255.07 314.508 253.822 314.508ZM267.2 314.076V288.84H272.492V295.032L272.204 298.452H272.312C272.984 297.756 273.8 297.144 274.76 296.616C275.72 296.064 276.884 295.788 278.252 295.788C280.268 295.788 281.732 296.436 282.644 297.732C283.58 299.028 284.048 300.804 284.048 303.06V314.076H278.756V303.744C278.756 302.544 278.564 301.668 278.18 301.116C277.796 300.564 277.112 300.288 276.128 300.288C275.408 300.288 274.772 300.444 274.22 300.756C273.692 301.068 273.116 301.536 272.492 302.16V314.076H267.2ZM300.162 314.508C298.746 314.508 297.546 314.316 296.562 313.932C295.578 313.548 294.774 313.02 294.15 312.348C293.55 311.652 293.118 310.824 292.854 309.864C292.59 308.904 292.458 307.836 292.458 306.66V300.36H287.958V296.436L292.71 296.22L293.394 290.748H297.75V296.22H305.31V300.36H297.75V306.624C297.75 307.992 298.05 308.964 298.65 309.54C299.25 310.092 300.21 310.368 301.53 310.368C302.202 310.368 302.814 310.308 303.366 310.188C303.942 310.068 304.506 309.912 305.058 309.72L305.994 313.536C305.202 313.776 304.326 313.992 303.366 314.184C302.43 314.4 301.362 314.508 300.162 314.508ZM309.04 314.076V296.22H313.036L313.396 298.416H313.54C313.876 297.696 314.344 297.084 314.944 296.58C315.544 296.052 316.36 295.788 317.392 295.788C318.16 295.788 318.808 296.04 319.336 296.544C319.888 297.024 320.272 297.744 320.488 298.704C320.824 297.888 321.304 297.204 321.928 296.652C322.576 296.076 323.416 295.788 324.448 295.788C325.744 295.788 326.728 296.304 327.4 297.336C328.096 298.344 328.444 299.748 328.444 301.548V314.076H323.404V301.908C323.404 301.356 323.332 300.948 323.188 300.684C323.044 300.42 322.792 300.288 322.432 300.288C322.096 300.288 321.808 300.432 321.568 300.72C321.328 301.008 321.076 301.44 320.812 302.016V314.076H316.672V301.908C316.672 300.828 316.336 300.288 315.664 300.288C315.328 300.288 315.04 300.432 314.8 300.72C314.56 301.008 314.32 301.44 314.08 302.016V314.076H309.04ZM343.586 314.508C341.33 314.508 339.626 313.848 338.474 312.528C337.346 311.184 336.782 309.372 336.782 307.092V293.016H331.166V288.84H342.074V307.308C342.074 307.86 342.146 308.328 342.29 308.712C342.458 309.072 342.674 309.372 342.938 309.612C343.226 309.828 343.538 309.984 343.874 310.08C344.234 310.176 344.606 310.224 344.99 310.224C345.398 310.224 345.818 310.188 346.25 310.116C346.706 310.02 347.21 309.864 347.762 309.648L348.95 313.536C348.47 313.68 348.026 313.812 347.618 313.932C347.21 314.052 346.802 314.148 346.394 314.22C345.986 314.316 345.554 314.388 345.098 314.436C344.642 314.484 344.138 314.508 343.586 314.508Z" fill="black"/>
<path d="M1078.01 314V300.284H1070.84V296.144H1083.3V314H1078.01ZM1080.42 293.336C1079.39 293.336 1078.54 293.048 1077.86 292.472C1077.22 291.896 1076.89 291.116 1076.89 290.132C1076.89 289.148 1077.22 288.356 1077.86 287.756C1078.54 287.132 1079.39 286.82 1080.42 286.82C1081.45 286.82 1082.29 287.132 1082.94 287.756C1083.61 288.356 1083.95 289.148 1083.95 290.132C1083.95 291.116 1083.61 291.896 1082.94 292.472C1082.29 293.048 1081.45 293.336 1080.42 293.336ZM1092.18 314V296.144H1096.5L1096.89 298.52H1097.04C1097.81 297.752 1098.68 297.092 1099.67 296.54C1100.67 295.988 1101.85 295.712 1103.19 295.712C1105.21 295.712 1106.69 296.36 1107.62 297.656C1108.56 298.952 1109.03 300.728 1109.03 302.984V314H1103.73V303.668C1103.73 302.468 1103.54 301.592 1103.16 301.04C1102.77 300.488 1102.09 300.212 1101.11 300.212C1100.39 300.212 1099.75 300.368 1099.2 300.68C1098.67 300.992 1098.09 301.46 1097.47 302.084V314H1092.18ZM1120.39 314.432C1119.26 314.432 1118.23 314.216 1117.29 313.784C1116.38 313.352 1115.59 312.74 1114.92 311.948C1114.27 311.132 1113.76 310.148 1113.4 308.996C1113.04 307.844 1112.86 306.536 1112.86 305.072C1112.86 303.608 1113.08 302.3 1113.51 301.148C1113.94 299.996 1114.51 299.024 1115.2 298.232C1115.92 297.416 1116.74 296.792 1117.65 296.36C1118.56 295.928 1119.51 295.712 1120.5 295.712C1121.5 295.712 1122.36 295.88 1123.05 296.216C1123.75 296.528 1124.4 296.996 1125 297.62H1125.14L1124.89 294.848V288.764H1130.18V314H1125.86L1125.46 312.164H1125.36C1124.68 312.812 1123.92 313.352 1123.05 313.784C1122.19 314.216 1121.3 314.432 1120.39 314.432ZM1121.76 310.112C1122.36 310.112 1122.91 309.992 1123.41 309.752C1123.92 309.488 1124.41 309.056 1124.89 308.456V301.22C1124.41 300.788 1123.92 300.488 1123.41 300.32C1122.93 300.128 1122.43 300.032 1121.9 300.032C1120.92 300.032 1120.06 300.44 1119.34 301.256C1118.65 302.072 1118.3 303.32 1118.3 305C1118.3 306.776 1118.6 308.072 1119.2 308.888C1119.8 309.704 1120.65 310.112 1121.76 310.112ZM1144.64 314.432C1143.25 314.432 1141.94 314.228 1140.71 313.82C1139.51 313.388 1138.47 312.776 1137.58 311.984C1136.69 311.192 1136 310.22 1135.49 309.068C1134.99 307.892 1134.74 306.56 1134.74 305.072C1134.74 303.608 1134.99 302.3 1135.49 301.148C1136.02 299.972 1136.72 298.988 1137.58 298.196C1138.45 297.38 1139.43 296.768 1140.53 296.36C1141.66 295.928 1142.83 295.712 1144.03 295.712C1145.39 295.712 1146.61 295.928 1147.66 296.36C1148.72 296.792 1149.59 297.392 1150.29 298.16C1151.01 298.928 1151.55 299.84 1151.91 300.896C1152.27 301.928 1152.45 303.056 1152.45 304.28C1152.45 304.76 1152.41 305.228 1152.34 305.684C1152.29 306.116 1152.25 306.44 1152.2 306.656H1140.03C1140.29 307.952 1140.88 308.9 1141.79 309.5C1142.71 310.1 1143.89 310.4 1145.36 310.4C1146.17 310.4 1146.94 310.292 1147.66 310.076C1148.41 309.86 1149.17 309.548 1149.97 309.14L1151.73 312.344C1150.7 312.992 1149.56 313.508 1148.31 313.892C1147.06 314.252 1145.84 314.432 1144.64 314.432ZM1144.21 299.744C1143.15 299.744 1142.26 300.02 1141.54 300.572C1140.85 301.124 1140.37 301.964 1140.1 303.092H1147.73C1147.47 300.86 1146.29 299.744 1144.21 299.744ZM1155.68 314L1161.87 304.712L1156.07 296.144H1161.76L1163.6 299.024C1163.86 299.528 1164.16 300.044 1164.5 300.572C1164.83 301.076 1165.16 301.58 1165.47 302.084H1165.61C1165.85 301.58 1166.09 301.064 1166.33 300.536C1166.6 300.008 1166.85 299.504 1167.09 299.024L1168.67 296.144H1174.22L1168.38 305.324L1174.58 314H1168.89L1166.84 311.048C1166.5 310.544 1166.15 310.028 1165.79 309.5C1165.46 308.972 1165.12 308.456 1164.78 307.952H1164.64C1164.38 308.456 1164.1 308.972 1163.81 309.5C1163.52 310.004 1163.25 310.52 1162.98 311.048L1161.22 314H1155.68ZM1186.73 314.432C1185.48 314.432 1184.47 314.036 1183.71 313.244C1182.94 312.428 1182.55 311.42 1182.55 310.22C1182.55 309.62 1182.65 309.068 1182.84 308.564C1183.06 308.036 1183.35 307.58 1183.71 307.196C1184.07 306.812 1184.5 306.512 1185 306.296C1185.53 306.08 1186.11 305.972 1186.73 305.972C1187.35 305.972 1187.92 306.08 1188.42 306.296C1188.95 306.512 1189.39 306.812 1189.75 307.196C1190.11 307.58 1190.39 308.036 1190.58 308.564C1190.8 309.068 1190.91 309.62 1190.91 310.22C1190.91 311.42 1190.52 312.428 1189.75 313.244C1188.99 314.036 1187.98 314.432 1186.73 314.432ZM1200.11 314V288.764H1205.4V294.956L1205.11 298.376H1205.22C1205.89 297.68 1206.71 297.068 1207.67 296.54C1208.63 295.988 1209.79 295.712 1211.16 295.712C1213.18 295.712 1214.64 296.36 1215.55 297.656C1216.49 298.952 1216.96 300.728 1216.96 302.984V314H1211.66V303.668C1211.66 302.468 1211.47 301.592 1211.09 301.04C1210.7 300.488 1210.02 300.212 1209.04 300.212C1208.32 300.212 1207.68 300.368 1207.13 300.68C1206.6 300.992 1206.02 301.46 1205.4 302.084V314H1200.11ZM1233.07 314.432C1231.65 314.432 1230.45 314.24 1229.47 313.856C1228.49 313.472 1227.68 312.944 1227.06 312.272C1226.46 311.576 1226.03 310.748 1225.76 309.788C1225.5 308.828 1225.37 307.76 1225.37 306.584V300.284H1220.87V296.36L1225.62 296.144L1226.3 290.672H1230.66V296.144H1238.22V300.284H1230.66V306.548C1230.66 307.916 1230.96 308.888 1231.56 309.464C1232.16 310.016 1233.12 310.292 1234.44 310.292C1235.11 310.292 1235.72 310.232 1236.27 310.112C1236.85 309.992 1237.41 309.836 1237.97 309.644L1238.9 313.46C1238.11 313.7 1237.23 313.916 1236.27 314.108C1235.34 314.324 1234.27 314.432 1233.07 314.432ZM1241.95 314V296.144H1245.94L1246.3 298.34H1246.45C1246.78 297.62 1247.25 297.008 1247.85 296.504C1248.45 295.976 1249.27 295.712 1250.3 295.712C1251.07 295.712 1251.72 295.964 1252.24 296.468C1252.8 296.948 1253.18 297.668 1253.4 298.628C1253.73 297.812 1254.21 297.128 1254.84 296.576C1255.48 296 1256.32 295.712 1257.36 295.712C1258.65 295.712 1259.64 296.228 1260.31 297.26C1261 298.268 1261.35 299.672 1261.35 301.472V314H1256.31V301.832C1256.31 301.28 1256.24 300.872 1256.1 300.608C1255.95 300.344 1255.7 300.212 1255.34 300.212C1255 300.212 1254.72 300.356 1254.48 300.644C1254.24 300.932 1253.98 301.364 1253.72 301.94V314H1249.58V301.832C1249.58 300.752 1249.24 300.212 1248.57 300.212C1248.24 300.212 1247.95 300.356 1247.71 300.644C1247.47 300.932 1247.23 301.364 1246.99 301.94V314H1241.95ZM1276.49 314.432C1274.24 314.432 1272.53 313.772 1271.38 312.452C1270.25 311.108 1269.69 309.296 1269.69 307.016V292.94H1264.07V288.764H1274.98V307.232C1274.98 307.784 1275.05 308.252 1275.2 308.636C1275.37 308.996 1275.58 309.296 1275.85 309.536C1276.13 309.752 1276.45 309.908 1276.78 310.004C1277.14 310.1 1277.51 310.148 1277.9 310.148C1278.31 310.148 1278.73 310.112 1279.16 310.04C1279.61 309.944 1280.12 309.788 1280.67 309.572L1281.86 313.46C1281.38 313.604 1280.93 313.736 1280.53 313.856C1280.12 313.976 1279.71 314.072 1279.3 314.144C1278.89 314.24 1278.46 314.312 1278.01 314.36C1277.55 314.408 1277.05 314.432 1276.49 314.432Z" fill="black"/>
<path d="M1086.41 363.428L1080.41 348.758H1083.41L1086.5 356.738C1086.78 357.478 1087.04 358.208 1087.28 358.928C1087.54 359.648 1087.8 360.368 1088.06 361.088H1088.18C1088.44 360.368 1088.69 359.648 1088.93 358.928C1089.17 358.208 1089.43 357.478 1089.71 356.738L1092.8 348.758H1095.65L1089.77 363.428H1086.41ZM1106.92 363.788C1105.8 363.788 1104.76 363.618 1103.8 363.278C1102.84 362.938 1102 362.438 1101.28 361.778C1100.56 361.118 1099.99 360.308 1099.57 359.348C1099.17 358.388 1098.97 357.298 1098.97 356.078C1098.97 354.878 1099.18 353.808 1099.6 352.868C1100.02 351.908 1100.57 351.098 1101.25 350.438C1101.95 349.778 1102.75 349.278 1103.65 348.938C1104.55 348.578 1105.49 348.398 1106.47 348.398C1107.55 348.398 1108.51 348.568 1109.35 348.908C1110.19 349.248 1110.89 349.728 1111.45 350.348C1112.03 350.948 1112.47 351.678 1112.77 352.538C1113.07 353.378 1113.22 354.308 1113.22 355.328C1113.22 355.648 1113.21 355.948 1113.19 356.228C1113.17 356.508 1113.14 356.748 1113.1 356.948H1101.94C1102.1 358.468 1102.67 359.598 1103.65 360.338C1104.65 361.078 1105.87 361.448 1107.31 361.448C1108.13 361.448 1108.88 361.338 1109.56 361.118C1110.24 360.878 1110.91 360.558 1111.57 360.158L1112.62 362.048C1111.86 362.548 1111 362.968 1110.04 363.308C1109.1 363.628 1108.06 363.788 1106.92 363.788ZM1106.56 350.738C1106 350.738 1105.47 350.828 1104.97 351.008C1104.47 351.168 1104.02 351.418 1103.62 351.758C1103.22 352.098 1102.88 352.518 1102.6 353.018C1102.32 353.518 1102.12 354.098 1102 354.758H1110.55C1110.45 353.418 1110.04 352.418 1109.32 351.758C1108.62 351.078 1107.7 350.738 1106.56 350.738ZM1119.15 363.428V348.758H1121.61L1121.85 352.178H1121.94C1122.7 350.978 1123.62 350.048 1124.7 349.388C1125.8 348.728 1127.01 348.398 1128.33 348.398C1128.91 348.398 1129.42 348.448 1129.86 348.548C1130.3 348.628 1130.75 348.778 1131.21 348.998L1130.55 351.548C1130.05 351.388 1129.62 351.268 1129.26 351.188C1128.9 351.108 1128.44 351.068 1127.88 351.068C1126.82 351.068 1125.8 351.368 1124.82 351.968C1123.84 352.568 1122.94 353.608 1122.12 355.088V363.428H1119.15ZM1142.18 363.788C1140.78 363.788 1139.46 363.568 1138.22 363.128C1136.98 362.668 1135.91 362.128 1135.01 361.508L1136.33 359.588C1137.19 360.188 1138.12 360.658 1139.12 360.998C1140.14 361.338 1141.29 361.508 1142.57 361.508C1143.71 361.508 1144.55 361.318 1145.09 360.938C1145.63 360.538 1145.9 360.058 1145.9 359.498C1145.9 359.238 1145.85 358.998 1145.75 358.778C1145.65 358.558 1145.44 358.358 1145.12 358.178C1144.82 357.978 1144.39 357.788 1143.83 357.608C1143.27 357.428 1142.53 357.238 1141.61 357.038C1139.67 356.638 1138.23 356.098 1137.29 355.418C1136.37 354.718 1135.91 353.808 1135.91 352.688C1135.91 352.068 1136.04 351.498 1136.3 350.978C1136.58 350.458 1136.98 350.008 1137.5 349.628C1138.04 349.248 1138.7 348.948 1139.48 348.728C1140.26 348.508 1141.16 348.398 1142.18 348.398C1143.34 348.398 1144.44 348.598 1145.48 348.998C1146.54 349.378 1147.44 349.818 1148.18 350.318L1146.8 352.178C1146.1 351.718 1145.33 351.358 1144.49 351.098C1143.67 350.818 1142.81 350.678 1141.91 350.678C1140.79 350.678 1140 350.858 1139.54 351.218C1139.1 351.578 1138.88 352.018 1138.88 352.538C1138.88 353.118 1139.19 353.558 1139.81 353.858C1140.43 354.158 1141.46 354.458 1142.9 354.758C1144.1 355.018 1145.08 355.298 1145.84 355.598C1146.62 355.898 1147.23 356.228 1147.67 356.588C1148.13 356.948 1148.45 357.358 1148.63 357.818C1148.81 358.258 1148.9 358.758 1148.9 359.318C1148.9 359.938 1148.75 360.518 1148.45 361.058C1148.15 361.598 1147.71 362.078 1147.13 362.498C1146.57 362.898 1145.87 363.208 1145.03 363.428C1144.21 363.668 1143.26 363.788 1142.18 363.788ZM1160.16 363.428V351.158H1153.59V348.758H1163.13V363.428H1160.16ZM1161.39 345.908C1160.75 345.908 1160.22 345.718 1159.8 345.338C1159.38 344.938 1159.17 344.418 1159.17 343.778C1159.17 343.138 1159.38 342.628 1159.8 342.248C1160.22 341.848 1160.75 341.648 1161.39 341.648C1162.03 341.648 1162.56 341.848 1162.98 342.248C1163.4 342.628 1163.61 343.138 1163.61 343.778C1163.61 344.418 1163.4 344.938 1162.98 345.338C1162.56 345.718 1162.03 345.908 1161.39 345.908ZM1177.97 363.788C1177.01 363.788 1176.09 363.618 1175.21 363.278C1174.33 362.938 1173.55 362.438 1172.87 361.778C1172.19 361.118 1171.65 360.318 1171.25 359.378C1170.85 358.418 1170.65 357.328 1170.65 356.108C1170.65 354.888 1170.85 353.798 1171.25 352.838C1171.65 351.878 1172.19 351.068 1172.87 350.408C1173.55 349.748 1174.33 349.248 1175.21 348.908C1176.09 348.568 1177.01 348.398 1177.97 348.398C1178.93 348.398 1179.85 348.568 1180.73 348.908C1181.61 349.248 1182.39 349.748 1183.07 350.408C1183.75 351.068 1184.29 351.878 1184.69 352.838C1185.09 353.798 1185.29 354.888 1185.29 356.108C1185.29 357.328 1185.09 358.418 1184.69 359.378C1184.29 360.318 1183.75 361.118 1183.07 361.778C1182.39 362.438 1181.61 362.938 1180.73 363.278C1179.85 363.618 1178.93 363.788 1177.97 363.788ZM1177.97 361.358C1179.29 361.358 1180.33 360.878 1181.09 359.918C1181.85 358.958 1182.23 357.688 1182.23 356.108C1182.23 354.528 1181.85 353.258 1181.09 352.298C1180.33 351.338 1179.29 350.858 1177.97 350.858C1176.65 350.858 1175.61 351.338 1174.85 352.298C1174.09 353.258 1173.71 354.528 1173.71 356.108C1173.71 357.688 1174.09 358.958 1174.85 359.918C1175.61 360.878 1176.65 361.358 1177.97 361.358ZM1189.6 363.428V348.758H1192.03L1192.27 351.128H1192.39C1193.13 350.368 1193.93 349.728 1194.79 349.208C1195.65 348.668 1196.65 348.398 1197.79 348.398C1199.51 348.398 1200.77 348.908 1201.57 349.928C1202.37 350.948 1202.77 352.418 1202.77 354.338V363.428H1199.8V354.728C1199.8 353.448 1199.57 352.508 1199.11 351.908C1198.65 351.288 1197.86 350.978 1196.74 350.978C1195.96 350.978 1195.26 351.178 1194.64 351.578C1194.02 351.958 1193.33 352.538 1192.57 353.318V363.428H1189.6ZM1212.18 363.788C1211.48 363.788 1210.82 363.688 1210.2 363.488C1209.6 363.288 1209.08 363.008 1208.64 362.648C1208.2 362.268 1207.85 361.818 1207.59 361.298C1207.35 360.778 1207.23 360.198 1207.23 359.558C1207.23 358.738 1207.42 358.018 1207.8 357.398C1208.2 356.778 1208.81 356.248 1209.63 355.808C1210.47 355.368 1211.54 355.008 1212.84 354.728C1214.16 354.448 1215.74 354.238 1217.58 354.098C1217.54 353.198 1217.24 352.428 1216.68 351.788C1216.14 351.148 1215.22 350.828 1213.92 350.828C1213.02 350.828 1212.14 350.998 1211.28 351.338C1210.44 351.678 1209.66 352.058 1208.94 352.478L1207.83 350.468C1208.23 350.228 1208.68 349.988 1209.18 349.748C1209.68 349.488 1210.21 349.258 1210.77 349.058C1211.35 348.858 1211.94 348.698 1212.54 348.578C1213.16 348.458 1213.79 348.398 1214.43 348.398C1216.47 348.398 1218 348.948 1219.02 350.048C1220.04 351.148 1220.55 352.668 1220.55 354.608V363.428H1218.12L1217.88 361.538H1217.79C1217.01 362.138 1216.13 362.668 1215.15 363.128C1214.19 363.568 1213.2 363.788 1212.18 363.788ZM1213.02 361.418C1213.8 361.418 1214.56 361.248 1215.3 360.908C1216.06 360.568 1216.82 360.088 1217.58 359.468V355.988C1216.14 356.108 1214.94 356.268 1213.98 356.468C1213.02 356.648 1212.25 356.888 1211.67 357.188C1211.11 357.468 1210.71 357.788 1210.47 358.148C1210.23 358.508 1210.11 358.908 1210.11 359.348C1210.11 360.088 1210.39 360.618 1210.95 360.938C1211.53 361.258 1212.22 361.418 1213.02 361.418ZM1230.95 363.788C1229.99 363.788 1229.12 363.618 1228.34 363.278C1227.58 362.938 1226.92 362.438 1226.36 361.778C1225.8 361.118 1225.37 360.318 1225.07 359.378C1224.77 358.418 1224.62 357.328 1224.62 356.108C1224.62 354.908 1224.8 353.838 1225.16 352.898C1225.54 351.938 1226.03 351.128 1226.63 350.468C1227.25 349.808 1227.95 349.298 1228.73 348.938C1229.53 348.578 1230.35 348.398 1231.19 348.398C1232.05 348.398 1232.81 348.558 1233.47 348.878C1234.15 349.198 1234.79 349.648 1235.39 350.228H1235.48L1235.33 347.618V342.158H1238.3V363.428H1235.87L1235.63 361.628H1235.54C1234.96 362.208 1234.27 362.718 1233.47 363.158C1232.67 363.578 1231.83 363.788 1230.95 363.788ZM1231.64 361.328C1232.96 361.328 1234.19 360.668 1235.33 359.348V352.388C1234.75 351.828 1234.17 351.438 1233.59 351.218C1233.01 350.998 1232.43 350.888 1231.85 350.888C1231.27 350.888 1230.73 351.008 1230.23 351.248C1229.73 351.488 1229.29 351.838 1228.91 352.298C1228.53 352.738 1228.23 353.278 1228.01 353.918C1227.79 354.558 1227.68 355.278 1227.68 356.078C1227.68 357.778 1228.02 359.078 1228.7 359.978C1229.4 360.878 1230.38 361.328 1231.64 361.328ZM1249.92 363.788C1248.96 363.788 1248.04 363.618 1247.16 363.278C1246.28 362.938 1245.5 362.438 1244.82 361.778C1244.14 361.118 1243.6 360.318 1243.2 359.378C1242.8 358.418 1242.6 357.328 1242.6 356.108C1242.6 354.888 1242.8 353.798 1243.2 352.838C1243.6 351.878 1244.14 351.068 1244.82 350.408C1245.5 349.748 1246.28 349.248 1247.16 348.908C1248.04 348.568 1248.96 348.398 1249.92 348.398C1250.88 348.398 1251.8 348.568 1252.68 348.908C1253.56 349.248 1254.34 349.748 1255.02 350.408C1255.7 351.068 1256.24 351.878 1256.64 352.838C1257.04 353.798 1257.24 354.888 1257.24 356.108C1257.24 357.328 1257.04 358.418 1256.64 359.378C1256.24 360.318 1255.7 361.118 1255.02 361.778C1254.34 362.438 1253.56 362.938 1252.68 363.278C1251.8 363.618 1250.88 363.788 1249.92 363.788ZM1249.92 361.358C1251.24 361.358 1252.28 360.878 1253.04 359.918C1253.8 358.958 1254.18 357.688 1254.18 356.108C1254.18 354.528 1253.8 353.258 1253.04 352.298C1252.28 351.338 1251.24 350.858 1249.92 350.858C1248.6 350.858 1247.56 351.338 1246.8 352.298C1246.04 353.258 1245.66 354.528 1245.66 356.108C1245.66 357.688 1246.04 358.958 1246.8 359.918C1247.56 360.878 1248.6 361.358 1249.92 361.358Z" fill="black"/>
<path d="M868.646 175.66C868.643 175.657 868.64 175.653 868.636 175.649L807.461 114.77C802.878 110.209 795.466 110.226 790.904 114.81C786.343 119.393 786.36 126.805 790.943 131.366L832.016 172.24H584.075C577.609 172.24 572.367 177.481 572.367 183.947C572.367 190.413 577.609 195.655 584.075 195.655H832.015L790.944 236.528C786.361 241.089 786.343 248.502 790.905 253.085C795.466 257.669 802.88 257.685 807.462 253.125L868.636 192.246C868.64 192.242 868.643 192.238 868.647 192.234C873.232 187.658 873.217 180.221 868.646 175.66Z" fill="black"/>
<path d="M634.409 56.7236C632.993 56.7236 631.685 56.5196 630.485 56.1116C629.285 55.6796 628.229 55.0676 627.317 54.2756C626.429 53.4836 625.733 52.5116 625.229 51.3596C624.725 50.1836 624.473 48.8516 624.473 47.3636C624.473 45.8756 624.749 44.5556 625.301 43.4036C625.877 42.2276 626.633 41.2436 627.569 40.4516C628.529 39.6596 629.633 39.0596 630.881 38.6516C632.129 38.2196 633.437 38.0036 634.805 38.0036C636.221 38.0036 637.493 38.2316 638.621 38.6876C639.773 39.1436 640.733 39.7196 641.501 40.4156L639.053 43.6916C637.733 42.7556 636.413 42.2876 635.093 42.2876C633.557 42.2876 632.309 42.7436 631.349 43.6556C630.389 44.5676 629.909 45.8036 629.909 47.3636C629.909 48.9236 630.365 50.1596 631.277 51.0716C632.213 51.9836 633.425 52.4396 634.913 52.4396C635.849 52.4396 636.701 52.2716 637.469 51.9356C638.261 51.5996 638.981 51.2036 639.629 50.7476L641.753 54.0956C640.673 55.0076 639.485 55.6796 638.189 56.1116C636.893 56.5196 635.633 56.7236 634.409 56.7236ZM654.446 56.7236C653.27 56.7236 652.13 56.5196 651.026 56.1116C649.946 55.6796 648.974 55.0676 648.11 54.2756C647.27 53.4836 646.598 52.5116 646.094 51.3596C645.59 50.1836 645.338 48.8516 645.338 47.3636C645.338 45.8756 645.59 44.5556 646.094 43.4036C646.598 42.2276 647.27 41.2436 648.11 40.4516C648.974 39.6596 649.946 39.0596 651.026 38.6516C652.13 38.2196 653.27 38.0036 654.446 38.0036C655.622 38.0036 656.75 38.2196 657.83 38.6516C658.934 39.0596 659.906 39.6596 660.746 40.4516C661.61 41.2436 662.294 42.2276 662.798 43.4036C663.302 44.5556 663.554 45.8756 663.554 47.3636C663.554 48.8516 663.302 50.1836 662.798 51.3596C662.294 52.5116 661.61 53.4836 660.746 54.2756C659.906 55.0676 658.934 55.6796 657.83 56.1116C656.75 56.5196 655.622 56.7236 654.446 56.7236ZM654.446 52.4396C655.67 52.4396 656.582 51.9836 657.182 51.0716C657.806 50.1596 658.118 48.9236 658.118 47.3636C658.118 45.8036 657.806 44.5676 657.182 43.6556C656.582 42.7436 655.67 42.2876 654.446 42.2876C653.222 42.2876 652.298 42.7436 651.674 43.6556C651.074 44.5676 650.774 45.8036 650.774 47.3636C650.774 48.9236 651.074 50.1596 651.674 51.0716C652.298 51.9836 653.222 52.4396 654.446 52.4396ZM666.492 56.2916V38.4356H670.488L670.848 40.6316H670.992C671.328 39.9116 671.796 39.2996 672.396 38.7956C672.996 38.2676 673.812 38.0036 674.844 38.0036C675.612 38.0036 676.26 38.2556 676.788 38.7596C677.34 39.2396 677.724 39.9596 677.94 40.9196C678.276 40.1036 678.756 39.4196 679.38 38.8676C680.028 38.2916 680.868 38.0036 681.9 38.0036C683.196 38.0036 684.18 38.5196 684.852 39.5516C685.548 40.5596 685.896 41.9636 685.896 43.7636V56.2916H680.856V44.1236C680.856 43.5716 680.784 43.1636 680.64 42.8996C680.496 42.6356 680.244 42.5036 679.884 42.5036C679.548 42.5036 679.26 42.6476 679.02 42.9356C678.78 43.2236 678.528 43.6556 678.264 44.2316V56.2916H674.124V44.1236C674.124 43.0436 673.788 42.5036 673.116 42.5036C672.78 42.5036 672.492 42.6476 672.252 42.9356C672.012 43.2236 671.772 43.6556 671.532 44.2316V56.2916H666.492ZM688.078 56.2916V38.4356H692.074L692.434 40.6316H692.578C692.914 39.9116 693.382 39.2996 693.982 38.7956C694.582 38.2676 695.398 38.0036 696.43 38.0036C697.198 38.0036 697.846 38.2556 698.374 38.7596C698.926 39.2396 699.31 39.9596 699.526 40.9196C699.862 40.1036 700.342 39.4196 700.966 38.8676C701.614 38.2916 702.454 38.0036 703.486 38.0036C704.782 38.0036 705.766 38.5196 706.438 39.5516C707.134 40.5596 707.482 41.9636 707.482 43.7636V56.2916H702.442V44.1236C702.442 43.5716 702.37 43.1636 702.226 42.8996C702.082 42.6356 701.83 42.5036 701.47 42.5036C701.134 42.5036 700.846 42.6476 700.606 42.9356C700.366 43.2236 700.114 43.6556 699.85 44.2316V56.2916H695.71V44.1236C695.71 43.0436 695.374 42.5036 694.702 42.5036C694.366 42.5036 694.078 42.6476 693.838 42.9356C693.598 43.2236 693.358 43.6556 693.118 44.2316V56.2916H688.078ZM718.412 56.2916V42.5756H711.248V38.4356H723.704V56.2916H718.412ZM720.824 35.6276C719.792 35.6276 718.94 35.3396 718.268 34.7636C717.62 34.1876 717.296 33.4076 717.296 32.4236C717.296 31.4396 717.62 30.6476 718.268 30.0476C718.94 29.4236 719.792 29.1116 720.824 29.1116C721.856 29.1116 722.696 29.4236 723.344 30.0476C724.016 30.6476 724.352 31.4396 724.352 32.4236C724.352 33.4076 724.016 34.1876 723.344 34.7636C722.696 35.3396 721.856 35.6276 720.824 35.6276ZM743.958 56.7236C742.542 56.7236 741.342 56.5316 740.358 56.1476C739.374 55.7636 738.57 55.2356 737.946 54.5636C737.346 53.8676 736.914 53.0396 736.65 52.0796C736.386 51.1196 736.254 50.0516 736.254 48.8756V42.5756H731.754V38.6516L736.506 38.4356L737.19 32.9636H741.546V38.4356H749.106V42.5756H741.546V48.8396C741.546 50.2076 741.846 51.1796 742.446 51.7556C743.046 52.3076 744.006 52.5836 745.326 52.5836C745.998 52.5836 746.61 52.5236 747.162 52.4036C747.738 52.2836 748.302 52.1276 748.854 51.9356L749.79 55.7516C748.998 55.9916 748.122 56.2076 747.162 56.3996C746.226 56.6156 745.158 56.7236 743.958 56.7236Z" fill="black"/>
<defs>
<filter id="filter0_d" x="0" y="0" width="1446" height="421" filterUnits="userSpaceOnUse" color-interpolation-filters="sRGB">
<feFlood flood-opacity="0" result="BackgroundImageFix"/>
<feColorMatrix in="SourceAlpha" type="matrix" values="0 0 0 0 0 0 0 0 0 0 0 0 0 0 0 0 0 0 127 0"/>
<feOffset dy="4"/>
<feGaussianBlur stdDeviation="2"/>
<feColorMatrix type="matrix" values="0 0 0 0 0 0 0 0 0 0 0 0 0 0 0 0 0 0 0.25 0"/>
<feBlend mode="normal" in2="BackgroundImageFix" result="effect1_dropShadow"/>
<feBlend mode="normal" in="SourceGraphic" in2="effect1_dropShadow" result="shape"/>
</filter>
<clipPath id="clip0">
<rect width="187.903" height="187.903" fill="white" transform="translate(131.339 91.1728)"/>
</clipPath>
</defs>
</svg>
