<svg height="512pt" viewBox="0 -40 512 512" width="512pt" xmlns="http://www.w3.org/2000/svg"><path d="m440.621094 425.980469h-373.242188c-34.035156 0-61.878906-27.847657-61.878906-61.878907v-309.25c0-25.492187 20.859375-46.351562 46.351562-46.351562h404.296876c25.492187 0 46.351562 20.859375 46.351562 46.351562v309.25c0 34.035157-27.847656 61.878907-61.878906 61.878907zm0 0" fill="#fff4f1"/><path d="m458.148438 7.5h-24c25.492187 0 46.351562 20.859375 46.351562 46.351562v309.25c0 34.035157-27.847656 61.878907-61.878906 61.878907h24c34.035156 0 61.878906-27.847657 61.878906-61.878907v-309.25c0-25.492187-20.859375-46.351562-46.351562-46.351562zm0 0" fill="#ecedef"/><path d="m7.5 361.835938v1.265624c0 34.035157 27.847656 61.878907 61.878906 61.878907h373.242188c34.03125 0 61.878906-27.847657 61.878906-61.878907v-1.265624zm0 0" fill="#d0cfd1"/><path d="m480.5 363.101562c0 34.035157-27.847656 61.878907-61.878906 61.878907h24c34.035156 0 61.878906-27.847657 61.878906-61.878907v-1.265624h-24zm0 0" fill="#b1b2b3"/><path d="m504.5 67.851562v-14c0-25.492187-20.859375-46.351562-46.351562-46.351562h-404.296876c-25.492187 0-46.351562 20.859375-46.351562 46.351562v14zm0 0" fill="#d0cfd1"/><path d="m482.136719 14.234375c-.636719-.386719-1.285157-.761719-1.941407-1.117187-3.285156-1.789063-6.804687-3.195313-10.5-4.152344-3.691406-.957032-7.5625-1.464844-11.546874-1.464844h-24c25.492187 0 46.351562 20.859375 46.351562 46.351562v14h24v-14c0-16.730468-8.984375-31.464843-22.363281-39.617187zm0 0" fill="#b1b2b3"/><path d="m210.535156 169.367188h-11.878906c0-9.5-2.136719-18.5-5.945312-26.554688l10.742187-5.082031c-5.984375-12.648438-15.394531-23.316407-27.21875-30.847657l-6.382813 10.019532c-8.429687-5.371094-18.242187-8.765625-28.78125-9.53125l.863282-11.851563c-1.800782-.132812-3.632813-.199219-5.445313-.199219-12.132812 0-24.171875 3-34.816406 8.683594l5.59375 10.484375c-9.066406 4.835938-16.792969 11.855469-22.480469 20.355469l-9.875-6.609375c-7.789062 11.636719-12.09375 25.207031-12.445312 39.238281l11.878906.296875c-.015625.53125-.023438 1.066407-.023438 1.597657 0 10.070312 2.398438 19.578124 6.648438 27.992187l-10.609375 5.359375c6.3125 12.492188 15.992187 22.914062 28 30.136719l6.125-10.179688c8.550781 5.140625 18.4375 8.289063 29.019531 8.789063l-.5625 11.871094c1.175782.054687 2.371094.082031 3.546875.082031h.003907c12.792968 0 25.40625-3.320313 36.480468-9.597657l-5.863281-10.339843c8.929687-5.0625 16.480469-12.269531 21.953125-20.921875l10.042969 6.351562c7.476562-11.824218 11.429687-25.496094 11.429687-39.542968zm0 0" fill="#1bacd6"/><path d="m167.699219 169.367188c0 17.242187-13.972657 31.214843-31.210938 31.214843s-31.214843-13.972656-31.214843-31.214843c0-17.238282 13.976562-31.210938 31.214843-31.210938s31.210938 13.972656 31.210938 31.210938zm0 0" fill="#fff4f1"/><path d="m136.488281 138.15625c-4.0625 0-7.941406.785156-11.5 2.195312 11.542969 4.582032 19.710938 15.84375 19.710938 29.015626 0 13.175781-8.167969 24.4375-19.710938 29.019531 3.558594 1.410156 7.4375 2.195312 11.5 2.195312 17.238281 0 31.210938-13.976562 31.210938-31.214843 0-17.234376-13.972657-31.210938-31.210938-31.210938zm0 0" fill="#d0cfd1"/><path d="m331.402344 263.9375h-10.667969c0-8.53125-1.917969-16.609375-5.335937-23.839844l9.644531-4.566406c-5.375-11.351562-13.824219-20.929688-24.4375-27.691406l-5.734375 8.996094c-7.566406-4.820313-16.375-7.871094-25.835938-8.558594l.773438-10.640625c-1.617188-.117188-3.261719-.175781-4.886719-.175781-10.890625 0-21.699219 2.691406-31.257813 7.792968l5.023438 9.414063c-8.140625 4.34375-15.078125 10.640625-20.183594 18.273437l-8.867187-5.933594c-6.992188 10.449219-10.855469 22.628907-11.171875 35.226563l10.664062.269531c-.011718.476563-.019531.957032-.019531 1.433594 0 9.042969 2.152344 17.578125 5.96875 25.128906l-9.523437 4.8125c5.664062 11.214844 14.355468 20.570313 25.136718 27.058594l5.5-9.140625c7.675782 4.617187 16.550782 7.441406 26.050782 7.890625l-.503907 10.65625c1.058594.050781 2.128907.074219 3.183594.074219h.003906c11.484375 0 22.8125-2.980469 32.753907-8.617188l-5.265626-9.28125c8.015626-4.546875 14.792969-11.015625 19.707032-18.785156l9.019531 5.703125c6.710937-10.613281 10.261719-22.890625 10.261719-35.5zm0 0" fill="#1bacd6"/><path d="m292.945312 263.9375c0 15.476562-12.546874 28.023438-28.023437 28.023438s-28.023437-12.546876-28.023437-28.023438 12.546874-28.023438 28.023437-28.023438 28.023437 12.546876 28.023437 28.023438zm0 0" fill="#fff4f1"/><path d="m264.921875 235.914062c-4.101563 0-7.992187.890626-11.5 2.472657 9.738281 4.386719 16.523437 14.175781 16.523437 25.550781s-6.785156 21.164062-16.523437 25.554688c3.507813 1.582031 7.398437 2.46875 11.5 2.46875 15.476563 0 28.023437-12.546876 28.023437-28.023438s-12.546874-28.023438-28.023437-28.023438zm0 0" fill="#d0cfd1"/><path d="m449.535156 172h-9.984375c0-7.984375-1.792969-15.550781-4.996093-22.320312l9.027343-4.273438c-5.027343-10.628906-12.941406-19.59375-22.875-25.925781l-5.367187 8.421875c-7.085938-4.511719-15.332032-7.367188-24.191406-8.011719l.726562-9.960937c-1.515625-.113282-3.054688-.167969-4.578125-.167969-10.195313 0-20.316406 2.523437-29.261719 7.296875l4.703125 8.8125c-7.621093 4.066406-14.117187 9.964844-18.898437 17.109375l-8.300782-5.554688c-6.546874 9.78125-10.164062 21.1875-10.460937 32.980469l9.984375.25c-.011719.449219-.015625.894531-.015625 1.34375 0 8.464844 2.011719 16.457031 5.585937 23.527344l-8.917968 4.503906c5.304687 10.5 13.441406 19.261719 23.53125 25.332031l5.152344-8.558593c7.1875 4.324218 15.496093 6.96875 24.386718 7.386718l-.46875 9.980469c.988282.046875 1.992188.066406 2.980469.066406h.003906c10.75 0 21.355469-2.789062 30.664063-8.066406l-4.929688-8.6875c7.503906-4.257813 13.851563-10.316406 18.449219-17.589844l8.445313 5.339844c6.285156-9.9375 9.605468-21.429687 9.605468-33.234375zm0 0" fill="#1bacd6"/><path d="m413.53125 172c0 14.488281-11.746094 26.234375-26.234375 26.234375s-26.234375-11.746094-26.234375-26.234375 11.746094-26.234375 26.234375-26.234375 26.234375 11.746094 26.234375 26.234375zm0 0" fill="#fff4f1"/><path d="m387.296875 145.765625c-4.125 0-8.027344.957031-11.5 2.652344 8.722656 4.261719 14.734375 13.21875 14.734375 23.582031s-6.011719 19.320312-14.734375 23.585938c3.472656 1.695312 7.375 2.652343 11.5 2.652343 14.488281 0 26.234375-11.746093 26.234375-26.234375 0-14.492187-11.746094-26.238281-26.234375-26.238281zm0 0" fill="#d0cfd1"/><g fill="#18191b"><path d="m458.148438 0h-404.296876c-29.695312 0-53.851562 24.15625-53.851562 53.851562v49.621094c0 4.140625 3.359375 7.5 7.5 7.5s7.5-3.359375 7.5-7.5v-28.121094h482v278.984376h-482v-216.210938c0-4.140625-3.359375-7.5-7.5-7.5s-7.5 3.359375-7.5 7.5v224.976562c0 38.253907 31.121094 69.378907 69.378906 69.378907h373.242188c38.253906 0 69.378906-31.125 69.378906-69.378907v-309.25c0-29.695312-24.15625-53.851562-53.851562-53.851562zm38.332031 370.511719c-.046875.367187-.09375.730469-.148438 1.09375-.085937.539062-.1875 1.070312-.289062 1.605469-.058594.324218-.113281.652343-.179688.976562-.132812.621094-.28125 1.238281-.429687 1.855469-.054688.226562-.101563.457031-.160156.683593-.21875.835938-.453126 1.667969-.710938 2.488282-.058594.191406-.128906.382812-.191406.574218-.203125.625-.410156 1.25-.632813 1.867188-.109375.296875-.230469.589844-.34375.882812-.191406.503907-.382812 1.011719-.59375 1.507813-.136719.320313-.28125.640625-.421875.960937-.203125.460938-.40625.917969-.625 1.375-.15625.328126-.320312.648438-.484375.976563-.214843.433594-.433593.867187-.664062 1.296875-.175781.328125-.359375.652344-.539063.972656-.234375.417969-.472656.832032-.714844 1.242188-.191406.320312-.386718.640625-.585937.957031-.25.402344-.507813.800781-.769531 1.195313-.207032.3125-.417969.621093-.628906.929687-.269532.390625-.542969.773437-.820313 1.15625-.222656.300781-.441406.601563-.667969.894531-.289062.378906-.585937.753906-.882812 1.121094-.230469.289062-.460938.574219-.699219.855469-.308594.371093-.625.734375-.945313 1.09375-.238281.269531-.476562.542969-.722656.808593-.332031.363282-.675781.71875-1.019531 1.070313-.242187.25-.480469.503906-.730469.75-.371094.367187-.75.722656-1.132812 1.078125-.230469.21875-.460938.441406-.699219.65625-.4375.398438-.890625.78125-1.34375 1.167969-.1875.160156-.375.328125-.566406.484375-.648438.539062-1.3125 1.058594-1.988281 1.5625-.09375.074218-.195313.136718-.289063.210937-.582031.429688-1.171875.851563-1.769531 1.257813-.242188.164062-.492188.320312-.738282.480468-.460937.300782-.921874.601563-1.390624.890626-.289063.179687-.585938.34375-.878907.515624-.4375.257813-.875.515626-1.320312.761719-.3125.171875-.632813.335938-.953125.503907-.433594.226562-.867188.453124-1.304688.667968-.335937.164063-.671875.320313-1.007812.476563-.4375.203125-.875.40625-1.316406.597656-.34375.148437-.695313.292969-1.042969.4375-.445313.179687-.890625.355469-1.335938.527344-.359375.132812-.714843.261719-1.074219.390625-.453124.160156-.90625.3125-1.363281.464844-.367187.117187-.730469.230468-1.097656.34375-.460937.136718-.925781.269531-1.394531.394531-.367188.101562-.738282.203125-1.113282.292969-.476562.121093-.953124.226562-1.433593.332031-.371094.082031-.742188.167969-1.117188.242187-.492187.097656-.992187.183594-1.492187.265625-.367188.0625-.730469.128907-1.097656.183594-.527344.078125-1.058594.140625-1.585938.203125-.347656.039062-.695312.089844-1.046875.125-.589844.054688-1.1875.09375-1.789063.132812-.292968.019532-.582031.050782-.878906.0625-.894531.046876-1.792968.070313-2.699218.070313h-373.238282c-.90625 0-1.804687-.023437-2.703125-.070313-.292969-.011718-.582031-.042968-.878906-.0625-.597656-.039062-1.195313-.078124-1.785156-.132812-.351563-.035156-.699219-.085938-1.046875-.125-.53125-.0625-1.058594-.125-1.585938-.203125-.367187-.054687-.730468-.121094-1.097656-.183594-.5-.082031-1-.167969-1.492188-.265625-.375-.074218-.746093-.160156-1.117187-.242187-.480469-.105469-.957031-.210938-1.433594-.332031-.375-.089844-.746093-.191407-1.117187-.292969-.464844-.125-.929688-.257813-1.390625-.394531-.367188-.113282-.734375-.226563-1.097657-.34375-.457031-.148438-.910156-.304688-1.359374-.464844-.363282-.125-.722657-.257813-1.078126-.390625-.449218-.167969-.890624-.347657-1.335937-.527344-.347656-.144531-.699219-.289063-1.046875-.4375-.441406-.191406-.875-.394531-1.3125-.59375-.335938-.15625-.675781-.3125-1.007812-.476563-.4375-.21875-.871094-.441406-1.304688-.671874-.320312-.164063-.636719-.332032-.953125-.503907-.445313-.246093-.882813-.5-1.320313-.757812-.292968-.171875-.585937-.339844-.878906-.519531-.46875-.285157-.925781-.589844-1.386718-.890626-.246094-.160156-.496094-.316406-.742188-.480468-.59375-.402344-1.179688-.824219-1.757812-1.25-.097657-.074219-.203126-.144532-.300782-.21875-.675781-.503906-1.335937-1.023438-1.988281-1.558594-.191406-.160156-.375-.328125-.566406-.492188-.453125-.378906-.902344-.761718-1.34375-1.160156-.238281-.214844-.46875-.441406-.703125-.660156-.378906-.355469-.757813-.710938-1.128906-1.078125-.246094-.246094-.484376-.5-.730469-.75-.339844-.351563-.683594-.707031-1.015625-1.066406-.246094-.269531-.484375-.542969-.726563-.8125-.320312-.359375-.632812-.71875-.941406-1.089844-.238281-.28125-.46875-.570313-.699219-.855469-.300781-.371094-.59375-.742187-.882812-1.121094-.226563-.296874-.445313-.597656-.667969-.898437-.277344-.378906-.550781-.765625-.820313-1.152344-.210937-.308593-.421874-.617187-.628906-.933593-.261718-.390626-.515625-.789063-.765625-1.191407-.199219-.316406-.394531-.636719-.589843-.957031-.242188-.410156-.476563-.824219-.710938-1.242188-.183594-.320312-.367188-.644531-.539062-.972656-.230469-.429687-.449219-.863281-.667969-1.300781-.164063-.324219-.328125-.644531-.484375-.976563-.214844-.453124-.417969-.914062-.621094-1.375-.140625-.320312-.289062-.636718-.425781-.957031-.207031-.5-.398438-1.003906-.59375-1.507812-.113281-.296875-.234375-.585938-.339844-.882813-.226563-.613281-.429687-1.234375-.628906-1.855468-.066407-.199219-.136719-.390626-.199219-.585938-.253906-.824219-.492188-1.652344-.707031-2.492188-.058594-.222656-.101563-.449218-.160157-.671874-.148437-.617188-.300781-1.238282-.429687-1.863282-.066406-.324218-.121094-.65625-.183594-.980468-.101562-.53125-.203125-1.066407-.285156-1.601563-.058594-.363281-.105469-.730469-.152344-1.097656-.054687-.390625-.105469-.78125-.152343-1.171875h481.265624c-.046874.390625-.097656.78125-.152343 1.171875zm.519531-310.160157h-482v-6.5c0-21.421874 17.429688-38.851562 38.851562-38.851562h404.296876c21.421874 0 38.851562 17.429688 38.851562 38.851562zm0 0"/><path d="m267 392.238281c0 6.078125-4.925781 11-11 11s-11-4.921875-11-11c0-6.074219 4.925781-11 11-11s11 4.925781 11 11zm0 0"/><path d="m136.488281 208.082031c21.347657 0 38.710938-17.367187 38.710938-38.714843 0-21.34375-17.363281-38.710938-38.710938-38.710938-21.347656 0-38.714843 17.367188-38.714843 38.710938 0 21.347656 17.367187 38.714843 38.714843 38.714843zm0-62.425781c13.074219 0 23.710938 10.636719 23.710938 23.710938 0 13.078124-10.636719 23.714843-23.710938 23.714843s-23.714843-10.636719-23.714843-23.714843c0-13.074219 10.640624-23.710938 23.714843-23.710938zm0 0"/><path d="m83.0625 124.664062-3.984375-2.664062c-1.652344-1.105469-3.675781-1.507812-5.628906-1.125-1.949219.386719-3.667969 1.535156-4.773438 3.1875-8.578125 12.820312-13.320312 27.765625-13.707031 43.21875-.050781 1.988281.6875 3.917969 2.0625 5.359375 1.371094 1.4375 3.257812 2.277344 5.246094 2.328125l4.773437.121094c.519531 6.464844 1.921875 12.746094 4.199219 18.777344l-4.269531 2.15625c-1.777344.898437-3.125 2.460937-3.746094 4.351562s-.464844 3.949219.429687 5.726562c6.949219 13.753907 17.609376 25.226563 30.828126 33.183594 1.703124 1.023438 3.746093 1.328125 5.675781.851563 1.929687-.480469 3.59375-1.707031 4.617187-3.414063l2.472656-4.105468c5.839844 2.695312 12.054688 4.578124 18.417969 5.578124l-.226562 4.785157c-.191407 4.136719 3 7.652343 7.140625 7.847656 1.296875.058594 2.609375.089844 3.902344.089844 14.085937 0 27.980468-3.65625 40.183593-10.574219 3.601563-2.042969 4.863281-6.621094 2.820313-10.226562l-2.363282-4.167969c5.21875-3.753907 9.910157-8.226563 13.917969-13.261719l4.046875 2.558594c3.503906 2.21875 8.132813 1.171875 10.347656-2.328125 8.238282-13.023438 12.59375-28.082031 12.59375-43.546875 0-4.144532-3.359374-7.5-7.5-7.5h-4.777343c-.558594-5.238282-1.703125-10.355469-3.425781-15.3125l4.328124-2.046875c3.742188-1.773438 5.34375-6.246094 3.570313-9.988281-6.589844-13.925782-16.953125-25.671876-29.964844-33.964844-3.496093-2.222656-8.128906-1.195313-10.355469 2.296875l-2.574218 4.042969c-5.773438-2.847657-11.9375-4.890626-18.273438-6.054688l.347656-4.777344c.144532-1.984375-.503906-3.945312-1.804687-5.449218-1.300781-1.503907-3.144531-2.433594-5.128906-2.578126-1.980469-.144531-3.996094-.214843-5.988281-.214843-13.359376 0-26.621094 3.308593-38.347657 9.5625-3.65625 1.949219-5.035156 6.492187-3.085937 10.148437l2.253906 4.230469c-5.3125 3.617187-10.117188 7.96875-14.25 12.898437zm7.957031 14.347657c5.007813-7.480469 11.84375-13.675781 19.777344-17.90625 3.652344-1.949219 5.035156-6.492188 3.085937-10.148438l-1.859374-3.488281c6.945312-2.738281 14.355468-4.300781 21.851562-4.597656l-.285156 3.953125c-.148438 1.984375.503906 3.945312 1.804687 5.449219 1.300781 1.503906 3.144531 2.429687 5.128907 2.574218 8.972656.65625 17.71875 3.550782 25.296874 8.378906 3.492188 2.226563 8.128907 1.199219 10.355469-2.292968l2.128907-3.34375c5.835937 4.71875 10.832031 10.375 14.777343 16.746094l-3.582031 1.695312c-3.742188 1.773438-5.34375 6.242188-3.570312 9.988281 3.46875 7.328125 5.226562 15.179688 5.226562 23.347657 0 4.140624 3.355469 7.5 7.5 7.5h3.957031c-.839843 7.46875-2.933593 14.71875-6.199219 21.464843l-3.34375-2.117187c-3.5-2.214844-8.132812-1.171875-10.347656 2.328125-4.8125 7.609375-11.492187 13.976562-19.3125 18.410156-1.730468.980469-3 2.609375-3.53125 4.527344-.527344 1.917969-.277344 3.96875.707032 5.699219l1.949218 3.4375c-6.875 2.921874-14.234375 4.671874-21.730468 5.15625l.1875-3.960938c.195312-4.136719-3-7.648438-7.136719-7.84375-8.992188-.425781-17.8125-3.097656-25.503907-7.722656-1.175781-.710938-2.515624-1.074219-3.867187-1.074219-.605469 0-1.214844.070313-1.808594.222656-1.933593.476563-3.59375 1.707031-4.617187 3.410157l-2.042969 3.394531c-5.957031-4.5625-11.09375-10.089844-15.203125-16.359375l3.535156-1.789063c1.777344-.894531 3.125-2.460937 3.746094-4.351562s.464844-3.949219-.433594-5.722657c-3.875-7.671874-5.839844-15.953124-5.839844-24.609374 0-.472657.007813-.945313.019532-1.414063.101562-4.140625-3.167969-7.578125-7.308594-7.683594l-3.960938-.097656c1.03125-7.441406 3.3125-14.636719 6.753907-21.300781l3.289062 2.199218c1.65625 1.109376 3.683594 1.511719 5.628907 1.125 1.953124-.382812 3.671874-1.53125 4.777343-3.183593zm0 0"/><path d="m264.921875 299.460938c19.585937 0 35.523437-15.9375 35.523437-35.523438s-15.9375-35.523438-35.523437-35.523438-35.523437 15.9375-35.523437 35.523438 15.9375 35.523438 35.523437 35.523438zm0-56.046876c11.316406 0 20.523437 9.207032 20.523437 20.523438s-9.207031 20.523438-20.523437 20.523438-20.523437-9.207032-20.523437-20.523438 9.207031-20.523438 20.523437-20.523438zm0 0"/><path d="m216.8125 222.785156-3.003906-2.011718c-3.445313-2.300782-8.101563-1.378907-10.40625 2.0625-7.78125 11.632812-12.082032 25.191406-12.433594 39.210937-.050781 1.984375.6875 3.914063 2.058594 5.355469s3.257812 2.277344 5.25 2.328125l3.601562.09375c.492188 5.402343 1.667969 10.664062 3.515625 15.730469l-3.222656 1.628906c-3.695313 1.867187-5.179687 6.378906-3.3125 10.074218 6.304687 12.480469 15.972656 22.890626 27.964844 30.105469 3.550781 2.136719 8.15625.988281 10.292969-2.5625l1.867187-3.101562c4.917969 2.207031 10.113281 3.777343 15.433594 4.671875l-.171875 3.617187c-.09375 1.988281.609375 3.929688 1.945312 5.402344 1.339844 1.46875 3.207032 2.347656 5.195313 2.441406 1.175781.054688 2.367187.082031 3.539062.082031 12.777344 0 25.386719-3.316406 36.453125-9.59375 1.730469-.980468 3-2.605468 3.527344-4.523437.53125-1.917969.277344-3.96875-.703125-5.699219l-1.785156-3.148437c4.332031-3.191407 8.257812-6.933594 11.65625-11.109375l3.058593 1.933594c1.679688 1.0625 3.714844 1.414062 5.65625.980468 1.9375-.4375 3.625-1.628906 4.691407-3.308594 7.472656-11.816406 11.421875-25.476562 11.421875-39.507812 0-4.140625-3.355469-7.5-7.5-7.5h-3.601563c-.503906-4.292969-1.445312-8.496094-2.816406-12.582031l3.269531-1.542969c1.796875-.851562 3.183594-2.382812 3.851563-4.253906.667969-1.875.566406-3.9375-.28125-5.734375-5.980469-12.632813-15.378907-23.289063-27.1875-30.808594-1.675781-1.070313-3.710938-1.429687-5.652344-1s-3.632813 1.617187-4.703125 3.292969l-1.941406 3.050781c-4.863282-2.332031-10.015625-4.039063-15.3125-5.070313l.265625-3.609374c.144531-1.984376-.507813-3.941407-1.808594-5.449219-1.300781-1.503907-3.144531-2.429688-5.128906-2.574219-13.902344-1.011719-28 1.957031-40.222657 8.480469-3.652343 1.949219-5.035156 6.492187-3.085937 10.144531l1.707031 3.195312c-4.417968 3.078126-8.4375 6.71875-11.941406 10.808594zm7.925781 14.328125c4.425781-6.617187 10.46875-12.089843 17.480469-15.828125 3.652344-1.949218 5.035156-6.496094 3.085938-10.148437l-1.265626-2.367188c5.65625-2.132812 11.644532-3.398437 17.710938-3.726562l-.195312 2.6875c-.148438 1.984375.503906 3.945312 1.804687 5.449219 1.300781 1.507812 3.144531 2.433593 5.128906 2.578124 7.925781.578126 15.65625 3.136719 22.355469 7.402344 1.679688 1.070313 3.710938 1.429688 5.652344 1 1.941406-.429687 3.632812-1.617187 4.703125-3.292968l1.445312-2.269532c4.671875 3.882813 8.707031 8.457032 11.976563 13.570313l-2.433594 1.152343c-3.742188 1.769532-5.34375 6.242188-3.570312 9.984376 3.0625 6.476562 4.617187 13.417968 4.617187 20.632812 0 4.144531 3.355469 7.5 7.5 7.5h2.691406c-.769531 6.035156-2.460937 11.898438-5.023437 17.394531l-2.273438-1.4375c-3.496094-2.214843-8.132812-1.171875-10.347656 2.328125-4.25 6.722656-10.152344 12.351563-17.066406 16.273438-3.605469 2.042968-4.867188 6.621094-2.824219 10.222656l1.324219 2.335938c-5.605469 2.285156-11.550782 3.695312-17.609375 4.179687l.125-2.695313c.195312-4.136718-2.996094-7.648437-7.136719-7.84375-7.945312-.375-15.742188-2.738281-22.539062-6.828124-1.207032-.726563-2.542969-1.074219-3.859376-1.074219-2.542968 0-5.023437 1.296875-6.433593 3.636719l-1.386719 2.308593c-4.769531-3.765625-8.921875-8.234375-12.320312-13.261719l2.402343-1.214843c1.777344-.894531 3.121094-2.460938 3.742188-4.351563.621093-1.890625.46875-3.949218-.429688-5.722656-3.425781-6.78125-5.160156-14.097656-5.160156-21.75 0-.414062.003906-.828125.015625-1.242188.050781-1.988281-.691406-3.917968-2.0625-5.359374-1.371094-1.441407-3.257812-2.277344-5.246094-2.328126l-2.6875-.070312c.921875-6.007812 2.765625-11.824219 5.46875-17.257812l2.234375 1.496093c3.445313 2.300781 8.101563 1.378907 10.40625-2.0625zm0 0"/><path d="m387.296875 205.734375c18.601563 0 33.734375-15.132813 33.734375-33.734375s-15.132812-33.734375-33.734375-33.734375-33.734375 15.132813-33.734375 33.734375 15.132812 33.734375 33.734375 33.734375zm0-52.46875c10.332031 0 18.734375 8.40625 18.734375 18.734375s-8.402344 18.734375-18.734375 18.734375c-10.328125 0-18.734375-8.40625-18.734375-18.734375s8.40625-18.734375 18.734375-18.734375zm0 0"/><path d="m342.171875 132.839844-2.460937-1.648438c-3.445313-2.300781-8.101563-1.378906-10.40625 2.066406-7.335938 10.960938-11.390626 23.742188-11.726563 36.960938-.046875 1.988281.695313 3.914062 2.066406 5.355469 1.371094 1.441406 3.257813 2.277343 5.246094 2.328125l2.945313.074218c.472656 4.8125 1.519531 9.5 3.136718 14.027344l-2.640625 1.335938c-3.695312 1.863281-5.179687 6.375-3.3125 10.074218 5.941407 11.761719 15.058594 21.574219 26.363281 28.375 1.703126 1.027344 3.742188 1.332032 5.675782.855469 1.929687-.480469 3.589844-1.710937 4.617187-3.414062l1.527344-2.542969c4.398437 1.9375 9.023437 3.335938 13.761719 4.167969l-.140625 2.960937c-.195313 4.136719 3 7.652344 7.136719 7.847656 1.101562.050782 2.226562.078126 3.335937.078126 12.046875 0 23.929687-3.128907 34.363281-9.042969 3.605469-2.042969 4.867188-6.621094 2.824219-10.226563l-1.460937-2.578125c3.839843-2.871093 7.335937-6.203125 10.390624-9.902343l2.503907 1.582031c1.683593 1.0625 3.71875 1.417969 5.65625.980469 1.941406-.4375 3.628906-1.625 4.691406-3.308594 7.046875-11.140625 10.769531-24.015625 10.769531-37.242188 0-4.144531-3.355468-7.5-7.5-7.5h-2.949218c-.46875-3.765625-1.292969-7.457031-2.472657-11.050781l2.675781-1.265625c1.800782-.851562 3.1875-2.378906 3.855469-4.253906.667969-1.871094.566407-3.9375-.285156-5.734375-5.632813-11.90625-14.496094-21.949219-25.625-29.042969-1.679687-1.066406-3.710937-1.425781-5.652344-.996094-1.941406.429688-3.636719 1.613282-4.703125 3.292969l-1.59375 2.5c-4.347656-2.050781-8.9375-3.570313-13.648437-4.523437l.214843-2.957032c.300782-4.128906-2.800781-7.722656-6.933593-8.023437-13.074219-.957031-26.394531 1.84375-37.914063 7.992187-3.65625 1.953125-5.039062 6.496094-3.089844 10.148438l1.398438 2.617187c-3.914062 2.769531-7.492188 6.011719-10.640625 9.632813zm7.902344 14.3125c4.097656-6.128906 9.699219-11.199219 16.191406-14.664063 3.65625-1.949219 5.035156-6.492187 3.085937-10.144531l-.925781-1.734375c4.929688-1.804687 10.125-2.898437 15.382813-3.238281l-.144532 1.972656c-.300781 4.132812 2.808594 7.726562 6.9375 8.027344 7.34375.535156 14.503907 2.90625 20.707032 6.859375 1.675781 1.066406 3.710937 1.425781 5.652344.996093 1.941406-.429687 3.632812-1.617187 4.703124-3.292968l1.0625-1.664063c4.019532 3.410157 7.519532 7.378907 10.402344 11.785157l-1.785156.847656c-1.796875.851562-3.183594 2.378906-3.855469 4.253906-.667969 1.871094-.566406 3.933594.285157 5.730469 2.835937 6 4.277343 12.429687 4.277343 19.113281 0 4.140625 3.355469 7.5 7.5 7.5h1.972657c-.71875 5.230469-2.1875 10.3125-4.363282 15.109375l-1.664062-1.054687c-1.683594-1.0625-3.71875-1.414063-5.65625-.980469-1.941406.4375-3.628906 1.628906-4.691406 3.308593-3.9375 6.230469-9.40625 11.441407-15.8125 15.074219-1.730469.980469-3 2.609375-3.53125 4.527344-.527344 1.917969-.273438 3.964844.707031 5.695313l.96875 1.710937c-4.882813 1.933594-10.039063 3.160156-15.292969 3.628906l.089844-1.976562c.195312-4.136719-3-7.648438-7.136719-7.84375-7.359375-.347657-14.578125-2.535157-20.875-6.324219-1.179687-.707031-2.515625-1.070312-3.867187-1.070312-.605469 0-1.214844.070312-1.8125.21875-1.929688.480468-3.589844 1.710937-4.613282 3.414062l-1.019531 1.691406c-4.105469-3.308594-7.710937-7.183594-10.703125-11.519531l1.761719-.890625c1.777343-.894531 3.125-2.460938 3.746093-4.351562.621094-1.890626.464844-3.949219-.433593-5.722657-3.171875-6.28125-4.777344-13.058593-4.777344-20.144531 0-.382812.003906-.765625.011719-1.148438.054687-1.988281-.6875-3.917968-2.058594-5.359374-1.371094-1.445313-3.261719-2.28125-5.25-2.335938l-1.972656-.046875c.855468-5.207031 2.453125-10.253906 4.753906-14.992187l1.636719 1.09375c3.445312 2.304687 8.101562 1.382812 10.40625-2.058594zm0 0"/></g></svg>