<svg height="512" viewBox="0 0 60 60" width="512" xmlns="http://www.w3.org/2000/svg"><g id="Page-1" fill="none" fill-rule="evenodd"><g id="104---Clone-Drive" fill-rule="nonzero"><path id="Shape" d="m39 20v33c0-3.3137085-2.6862915-6-6-6h-26c-3.31165334.0049563-5.99504366 2.6883467-6 6v-33c0-3.3137085 2.6862915-6 6-6h26c3.3137085 0 6 2.6862915 6 6z" fill="#60a917"/><path id="Shape" d="m33 14h-3c3.3137085 0 6 2.6862915 6 6v27.811c1.8541953 1.0705181 2.9974469 3.0479622 3 5.189v-33c0-3.3137085-2.6862915-6-6-6z" fill="#549414"/><path id="Shape" d="m39 53c-.0049563 3.3116533-2.6883467 5.9950437-6 6h-26c-3.3137085 0-6-2.6862915-6-6 .00495634-3.3116533 2.68834666-5.9950437 6-6h26c3.3137085 0 6 2.6862915 6 6z" fill="#f5f5f5"/><path id="Shape" d="m33 47h-3c3.3137085 0 6 2.6862915 6 6-.0049563 3.3116533-2.6883467 5.9950437-6 6h3c3.3116533-.0049563 5.9950437-2.6883467 6-6 0-1.5912989-.632141-3.1174224-1.7573593-4.2426407s-2.6513418-1.7573593-4.2426407-1.7573593z" fill="#cfd8dc"/><circle id="Oval" cx="33" cy="53" fill="#607d8b" r="2"/><path id="Shape" d="m59 7v33c0-3.3137085-2.6862915-6-6-6h-14v-14c0-3.3137085-2.6862915-6-6-6h-12v-7c0-3.3137085 2.6862915-6 6-6h26c3.3137085 0 6 2.6862915 6 6z" fill="#00bcd4"/><path id="Shape" d="m53 1h-3c3.3137085 0 6 2.6862915 6 6v27.811c1.8541953 1.0705181 2.9974469 3.0479622 3 5.189v-33c0-3.3137085-2.6862915-6-6-6z" fill="#00838f"/><path id="Shape" d="m59 40c-.0049563 3.3116533-2.6883467 5.9950437-6 6h-14v-12h14c3.3137085 0 6 2.6862915 6 6z" fill="#cfd8dc"/><path id="Shape" d="m53 34h-3c3.3137085 0 6 2.6862915 6 6-.0049563 3.3116533-2.6883467 5.9950437-6 6h3c3.3116533-.0049563 5.9950437-2.6883467 6-6 0-1.5912989-.632141-3.1174224-1.7573593-4.2426407s-2.6513418-1.7573593-4.2426407-1.7573593z" fill="#9e9e9e"/><circle id="Oval" cx="53" cy="40" fill="#37474f" r="2"/><g fill="#cfd8dc"><path id="Shape" d="m5 22c-.55228475 0-1-.4477153-1-1v-1c0-.5522847.44771525-1 1-1s1 .4477153 1 1v1c0 .5522847-.44771525 1-1 1z"/><path id="Shape" d="m5 42c-.55228475 0-1-.4477153-1-1v-16c0-.5522847.44771525-1 1-1s1 .4477153 1 1v16c0 .5522847-.44771525 1-1 1z"/><path id="Shape" d="m25 9c-.5522847 0-1-.44771525-1-1v-1c0-.55228475.4477153-1 1-1s1 .44771525 1 1v1c0 .55228475-.4477153 1-1 1z"/><path id="Shape" d="m25 15c-.5522847 0-1-.4477153-1-1v-2c0-.5522847.4477153-1 1-1s1 .4477153 1 1v2c0 .5522847-.4477153 1-1 1z"/></g><path id="Shape" d="m33 50c-1.6568542 0-3 1.3431458-3 3s1.3431458 3 3 3 3-1.3431458 3-3-1.3431458-3-3-3zm0 4c-.5522847 0-1-.4477153-1-1s.4477153-1 1-1 1 .4477153 1 1-.4477153 1-1 1z" fill="#000"/><path id="Shape" d="m53 0h-26c-3.8641657.00440864-6.9955914 3.13583434-7 7v6h-13c-3.86416566.0044086-6.99559136 3.1358343-7 7v33c.00440864 3.8641657 3.13583434 6.9955914 7 7h26c3.8641657-.0044086 6.9955914-3.1358343 7-7v-6h13c3.8639376-.0049584 6.9950416-3.1360624 7-7v-33c-.0044086-3.86416566-3.1358343-6.99559136-7-7zm-20 58h-26c-2.76142375 0-5-2.2385763-5-5s2.23857625-5 5-5h26c2.7614237 0 5 2.2385763 5 5s-2.2385763 5-5 5zm0-12h-26c-1.88335904-.0004407-3.68680747.7609752-5 2.111v-28.111c.00330612-2.7600532 2.23994685-4.9966939 5-5h26c2.7600532.0033061 4.9966939 2.2399468 5 5v28.111c-1.3131925-1.3500248-3.116641-2.1114407-5-2.111zm23.53-2.464c-.9319779.9427537-2.2043584 1.4704492-3.53 1.464l-13 .0000584v-10.0000584h13c2.7600532.0033061 4.9966939 2.2399468 5 5 .0059169 1.3284814-.524031 2.6032404-1.47 3.536zm1.47-8.425c-1.3131925-1.3500248-3.116641-2.1114407-5-2.111h-13v-13c-.0044086-3.8641657-3.1358343-6.9955914-7-7h-11v-6c.0033061-2.76005315 2.2399468-4.99669388 5-5h26c2.7600532.00330612 4.9966939 2.23994685 5 5z" fill="#000"/><path id="Shape" d="m53 37c-1.6568542 0-3 1.3431458-3 3s1.3431458 3 3 3 3-1.3431458 3-3-1.3431458-3-3-3zm0 4c-.5522847 0-1-.4477153-1-1s.4477153-1 1-1 1 .4477153 1 1-.4477153 1-1 1z" fill="#000"/></g></g></svg>