<svg width="1448" height="417" viewBox="0 0 1448 417" fill="none" xmlns="http://www.w3.org/2000/svg">
<g filter="url(#filter0_d)">
<rect x="4" width="1440" height="409" fill="white"/>
<rect x="4.5" y="0.5" width="1439" height="408" stroke="black"/>
</g>
<path d="M347.148 147.618H235.073L341.866 260.022L356.07 158.782C357.364 153.061 353.014 147.618 347.148 147.618Z" fill="#00AD94"/>
<path d="M313.109 90.978H207.411C200.901 90.978 195.625 96.2549 195.625 102.764V240.941H324.895V102.764C324.895 96.2545 319.618 90.978 313.109 90.978Z" fill="#EFEDEE"/>
<path d="M324.899 144.782H210.21V196.673H324.899V144.782Z" fill="#D4D2D3"/>
<path d="M321.493 169.913C320.085 163.686 314.552 159.265 308.169 159.265H220.247L218.465 151.38C217.592 147.522 214.164 144.782 210.208 144.782H167.446C162.017 144.782 157.992 149.819 159.189 155.113L180.636 249.968C181.965 255.848 187.189 260.022 193.217 260.022H341.866L321.493 169.913Z" fill="#3AC7B4"/>
<path d="M234.218 113.159C232.574 113.159 231.241 114.492 231.241 116.137V120.85C231.241 122.494 232.574 123.828 234.218 123.828C235.863 123.828 237.196 122.494 237.196 120.85V116.137C237.196 114.492 235.863 113.159 234.218 113.159Z" fill="black"/>
<path d="M286.302 123.828C287.946 123.828 289.28 122.494 289.28 120.85V116.137C289.28 114.492 287.946 113.159 286.302 113.159C284.657 113.159 283.324 114.492 283.324 116.137V120.85C283.324 122.494 284.657 123.828 286.302 123.828Z" fill="black"/>
<path d="M260.26 127.311C264.197 127.311 267.892 125.667 270.399 122.799C271.482 121.561 271.355 119.68 270.117 118.598C268.879 117.515 266.998 117.641 265.916 118.879C264.54 120.453 262.479 121.355 260.26 121.355C258.041 121.355 255.98 120.453 254.605 118.879C253.522 117.641 251.641 117.515 250.403 118.597C249.165 119.679 249.038 121.561 250.121 122.799C252.627 125.666 256.323 127.311 260.26 127.311Z" fill="black"/>
<path d="M193.218 262.999C193.218 262.999 341.844 262.999 341.871 263C342.548 263.01 343.227 262.748 343.753 262.311C344.268 261.883 344.816 261.135 344.816 260.435L355.473 184.472C355.702 182.844 354.567 181.338 352.938 181.11C351.309 180.881 349.804 182.017 349.576 183.645L341.181 243.483L327.874 184.631V150.595H347.149C349.035 150.595 350.791 151.44 351.968 152.913C353.145 154.386 353.582 156.286 353.166 158.125C353.148 158.205 351.247 171.734 351.247 171.734C351.018 173.362 352.153 174.868 353.782 175.096C355.412 175.326 356.916 174.189 357.144 172.561L359.004 159.309C359.772 155.735 358.907 152.055 356.621 149.195C354.307 146.3 350.855 144.639 347.149 144.639H327.874V102.764C327.874 94.6232 321.251 88 313.11 88H207.411C199.27 88 192.647 94.6232 192.647 102.764V141.804H167.446C163.948 141.804 160.69 143.371 158.507 146.103C156.324 148.835 155.514 152.358 156.285 155.77L177.732 250.625C179.379 257.911 185.747 262.999 193.218 262.999ZM163.16 149.821C164.207 148.511 165.769 147.759 167.446 147.759H210.209C212.79 147.759 214.991 149.518 215.56 152.036L217.343 159.921C217.65 161.278 218.856 162.242 220.247 162.242H235.88C237.524 162.242 238.858 160.909 238.858 159.264C238.858 157.62 237.524 156.286 235.88 156.286H222.627L221.369 150.723C220.182 145.471 215.592 141.804 210.209 141.804H198.603V102.764C198.603 97.907 202.554 93.9554 207.411 93.9554H313.11C317.967 93.9554 321.919 97.907 321.919 102.764V163.525C321.91 163.512 321.9 163.5 321.891 163.487C318.836 158.995 313.591 156.287 308.17 156.287H247.791C246.147 156.287 244.813 157.62 244.813 159.265C244.813 160.909 246.147 162.243 247.791 162.243H308.168C313.13 162.243 317.495 165.733 318.588 170.57L338.141 257.044H193.218C188.549 257.044 184.57 253.865 183.541 249.311L162.094 154.457C161.724 152.821 162.113 151.131 163.16 149.821Z" fill="black"/>
<path d="M183.42 334L176.525 311.18H181.985L184.715 321.82C185.065 323.08 185.368 324.305 185.625 325.495C185.905 326.662 186.208 327.875 186.535 329.135H186.675C187.025 327.875 187.34 326.662 187.62 325.495C187.9 324.305 188.203 323.08 188.53 321.82L191.225 311.18H196.475L189.615 334H183.42ZM207.486 334.42C206.273 334.42 205.293 334.035 204.546 333.265C203.8 332.472 203.426 331.492 203.426 330.325C203.426 329.742 203.52 329.205 203.706 328.715C203.916 328.202 204.196 327.758 204.546 327.385C204.896 327.012 205.316 326.72 205.806 326.51C206.32 326.3 206.88 326.195 207.486 326.195C208.093 326.195 208.641 326.3 209.131 326.51C209.645 326.72 210.076 327.012 210.426 327.385C210.776 327.758 211.045 328.202 211.231 328.715C211.441 329.205 211.546 329.742 211.546 330.325C211.546 331.492 211.173 332.472 210.426 333.265C209.68 334.035 208.7 334.42 207.486 334.42ZM242.634 334V311.18H257.789V315.52H247.779V320.805H256.319V325.145H247.779V334H242.634ZM269.675 334V320.665H262.71V316.64H274.82V334H269.675ZM272.02 313.91C271.017 313.91 270.189 313.63 269.535 313.07C268.905 312.51 268.59 311.752 268.59 310.795C268.59 309.838 268.905 309.068 269.535 308.485C270.189 307.878 271.017 307.575 272.02 307.575C273.024 307.575 273.84 307.878 274.47 308.485C275.124 309.068 275.45 309.838 275.45 310.795C275.45 311.752 275.124 312.51 274.47 313.07C273.84 313.63 273.024 313.91 272.02 313.91ZM283.452 334V316.64H287.652L288.037 318.95H288.177C288.923 318.203 289.775 317.562 290.732 317.025C291.712 316.488 292.855 316.22 294.162 316.22C296.122 316.22 297.557 316.85 298.467 318.11C299.377 319.37 299.832 321.097 299.832 323.29V334H294.687V323.955C294.687 322.788 294.5 321.937 294.127 321.4C293.753 320.863 293.088 320.595 292.132 320.595C291.432 320.595 290.813 320.747 290.277 321.05C289.763 321.353 289.203 321.808 288.597 322.415V334H283.452ZM309.758 334.42C308.871 334.42 308.078 334.28 307.378 334C306.678 333.743 306.083 333.382 305.593 332.915C305.103 332.425 304.718 331.865 304.438 331.235C304.181 330.605 304.053 329.917 304.053 329.17C304.053 328.19 304.263 327.338 304.683 326.615C305.103 325.868 305.768 325.238 306.678 324.725C307.611 324.212 308.801 323.803 310.248 323.5C311.695 323.173 313.445 322.952 315.498 322.835C315.405 322.042 315.055 321.423 314.448 320.98C313.865 320.537 312.978 320.315 311.788 320.315C310.948 320.315 310.096 320.467 309.233 320.77C308.393 321.05 307.483 321.435 306.503 321.925L304.683 318.565C305.873 317.888 307.145 317.328 308.498 316.885C309.875 316.442 311.31 316.22 312.803 316.22C315.23 316.22 317.143 316.862 318.543 318.145C319.943 319.428 320.643 321.4 320.643 324.06V334H316.443L316.058 332.04H315.918C315.031 332.717 314.063 333.288 313.013 333.755C311.963 334.198 310.878 334.42 309.758 334.42ZM311.403 330.43C312.173 330.43 312.896 330.278 313.573 329.975C314.25 329.648 314.891 329.252 315.498 328.785V325.915C314.215 325.985 313.153 326.102 312.313 326.265C311.473 326.428 310.808 326.638 310.318 326.895C309.828 327.128 309.478 327.408 309.268 327.735C309.081 328.062 308.988 328.412 308.988 328.785C308.988 329.345 309.198 329.765 309.618 330.045C310.061 330.302 310.656 330.43 311.403 330.43ZM336.729 334.42C334.536 334.42 332.879 333.778 331.759 332.495C330.663 331.188 330.114 329.427 330.114 327.21V313.525H324.654V309.465H335.259V327.42C335.259 327.957 335.329 328.412 335.469 328.785C335.633 329.135 335.843 329.427 336.099 329.66C336.379 329.87 336.683 330.022 337.009 330.115C337.359 330.208 337.721 330.255 338.094 330.255C338.491 330.255 338.899 330.22 339.319 330.15C339.763 330.057 340.253 329.905 340.789 329.695L341.944 333.475C341.478 333.615 341.046 333.743 340.649 333.86C340.253 333.977 339.856 334.07 339.459 334.14C339.063 334.233 338.643 334.303 338.199 334.35C337.756 334.397 337.266 334.42 336.729 334.42Z" fill="black"/>
<path d="M748.148 150.618H636.073L742.866 263.022L757.07 161.782C758.364 156.061 754.014 150.618 748.148 150.618Z" fill="#00AD94"/>
<path d="M714.109 93.978H608.411C601.902 93.978 596.625 99.2549 596.625 105.764V243.941H725.895V105.764C725.895 99.2545 720.619 93.978 714.109 93.978Z" fill="#EFEDEE"/>
<path d="M725.899 147.782H611.21V199.673H725.899V147.782Z" fill="#D4D2D3"/>
<path d="M722.493 172.913C721.085 166.686 715.552 162.265 709.168 162.265H621.247L619.464 154.38C618.592 150.522 615.164 147.782 611.208 147.782H568.445C563.017 147.782 558.992 152.819 560.189 158.113L581.636 252.968C582.965 258.848 588.189 263.022 594.217 263.022H742.866L722.493 172.913Z" fill="#3AC7B4"/>
<path d="M635.218 116.159C633.574 116.159 632.241 117.492 632.241 119.137V123.85C632.241 125.494 633.574 126.828 635.218 126.828C636.863 126.828 638.196 125.494 638.196 123.85V119.137C638.196 117.492 636.863 116.159 635.218 116.159Z" fill="black"/>
<path d="M687.302 126.828C688.946 126.828 690.28 125.494 690.28 123.85V119.137C690.28 117.492 688.946 116.159 687.302 116.159C685.657 116.159 684.324 117.492 684.324 119.137V123.85C684.324 125.494 685.657 126.828 687.302 126.828Z" fill="black"/>
<path d="M661.26 130.311C665.197 130.311 668.892 128.667 671.399 125.799C672.482 124.561 672.355 122.68 671.117 121.598C669.879 120.515 667.998 120.641 666.916 121.879C665.54 123.453 663.479 124.355 661.26 124.355C659.041 124.355 656.98 123.453 655.605 121.879C654.522 120.641 652.641 120.515 651.403 121.597C650.165 122.679 650.038 124.561 651.121 125.799C653.627 128.666 657.323 130.311 661.26 130.311Z" fill="black"/>
<path d="M594.218 265.999C594.218 265.999 742.844 265.999 742.871 266C743.548 266.01 744.227 265.748 744.753 265.311C745.268 264.883 745.816 264.135 745.816 263.435L756.473 187.472C756.702 185.844 755.567 184.338 753.938 184.11C752.309 183.881 750.804 185.017 750.576 186.645L742.181 246.483L728.874 187.631V153.595H748.149C750.035 153.595 751.791 154.44 752.968 155.913C754.145 157.386 754.582 159.286 754.166 161.125C754.148 161.205 752.247 174.734 752.247 174.734C752.018 176.362 753.153 177.868 754.782 178.096C756.412 178.326 757.916 177.189 758.144 175.561L760.004 162.309C760.772 158.735 759.907 155.055 757.621 152.195C755.307 149.3 751.855 147.639 748.149 147.639H728.874V105.764C728.874 97.6232 722.251 91 714.11 91H608.411C600.27 91 593.647 97.6232 593.647 105.764V144.804H568.446C564.948 144.804 561.69 146.371 559.507 149.103C557.324 151.835 556.514 155.358 557.285 158.77L578.732 253.625C580.379 260.911 586.747 265.999 594.218 265.999ZM564.16 152.821C565.207 151.511 566.769 150.759 568.446 150.759H611.209C613.79 150.759 615.991 152.518 616.56 155.036L618.343 162.921C618.65 164.278 619.856 165.242 621.247 165.242H636.88C638.524 165.242 639.858 163.909 639.858 162.264C639.858 160.62 638.524 159.286 636.88 159.286H623.627L622.369 153.723C621.182 148.471 616.592 144.804 611.209 144.804H599.603V105.764C599.603 100.907 603.554 96.9554 608.411 96.9554H714.11C718.967 96.9554 722.919 100.907 722.919 105.764V166.525C722.91 166.512 722.9 166.5 722.891 166.487C719.836 161.995 714.591 159.287 709.17 159.287H648.791C647.147 159.287 645.813 160.62 645.813 162.265C645.813 163.909 647.147 165.243 648.791 165.243H709.168C714.13 165.243 718.495 168.733 719.588 173.57L739.141 260.044H594.218C589.549 260.044 585.57 256.865 584.541 252.311L563.094 157.457C562.724 155.821 563.113 154.131 564.16 152.821Z" fill="black"/>
<path d="M532.42 334L525.525 311.18H530.985L533.715 321.82C534.065 323.08 534.368 324.305 534.625 325.495C534.905 326.662 535.208 327.875 535.535 329.135H535.675C536.025 327.875 536.34 326.662 536.62 325.495C536.9 324.305 537.203 323.08 537.53 321.82L540.225 311.18H545.475L538.615 334H532.42ZM556.486 334.42C555.273 334.42 554.293 334.035 553.546 333.265C552.8 332.472 552.426 331.492 552.426 330.325C552.426 329.742 552.52 329.205 552.706 328.715C552.916 328.202 553.196 327.758 553.546 327.385C553.896 327.012 554.316 326.72 554.806 326.51C555.32 326.3 555.88 326.195 556.486 326.195C557.093 326.195 557.641 326.3 558.131 326.51C558.645 326.72 559.076 327.012 559.426 327.385C559.776 327.758 560.045 328.202 560.231 328.715C560.441 329.205 560.546 329.742 560.546 330.325C560.546 331.492 560.173 332.472 559.426 333.265C558.68 334.035 557.7 334.42 556.486 334.42ZM591.634 334V311.18H606.789V315.52H596.779V320.805H605.319V325.145H596.779V334H591.634ZM618.675 334V320.665H611.71V316.64H623.82V334H618.675ZM621.02 313.91C620.017 313.91 619.189 313.63 618.535 313.07C617.905 312.51 617.59 311.752 617.59 310.795C617.59 309.838 617.905 309.068 618.535 308.485C619.189 307.878 620.017 307.575 621.02 307.575C622.024 307.575 622.84 307.878 623.47 308.485C624.124 309.068 624.45 309.838 624.45 310.795C624.45 311.752 624.124 312.51 623.47 313.07C622.84 313.63 622.024 313.91 621.02 313.91ZM632.452 334V316.64H636.652L637.037 318.95H637.177C637.923 318.203 638.775 317.562 639.732 317.025C640.712 316.488 641.855 316.22 643.162 316.22C645.122 316.22 646.557 316.85 647.467 318.11C648.377 319.37 648.832 321.097 648.832 323.29V334H643.687V323.955C643.687 322.788 643.5 321.937 643.127 321.4C642.753 320.863 642.088 320.595 641.132 320.595C640.432 320.595 639.813 320.747 639.277 321.05C638.763 321.353 638.203 321.808 637.597 322.415V334H632.452ZM658.758 334.42C657.871 334.42 657.078 334.28 656.378 334C655.678 333.743 655.083 333.382 654.593 332.915C654.103 332.425 653.718 331.865 653.438 331.235C653.181 330.605 653.053 329.917 653.053 329.17C653.053 328.19 653.263 327.338 653.683 326.615C654.103 325.868 654.768 325.238 655.678 324.725C656.611 324.212 657.801 323.803 659.248 323.5C660.695 323.173 662.445 322.952 664.498 322.835C664.405 322.042 664.055 321.423 663.448 320.98C662.865 320.537 661.978 320.315 660.788 320.315C659.948 320.315 659.096 320.467 658.233 320.77C657.393 321.05 656.483 321.435 655.503 321.925L653.683 318.565C654.873 317.888 656.145 317.328 657.498 316.885C658.875 316.442 660.31 316.22 661.803 316.22C664.23 316.22 666.143 316.862 667.543 318.145C668.943 319.428 669.643 321.4 669.643 324.06V334H665.443L665.058 332.04H664.918C664.031 332.717 663.063 333.288 662.013 333.755C660.963 334.198 659.878 334.42 658.758 334.42ZM660.403 330.43C661.173 330.43 661.896 330.278 662.573 329.975C663.25 329.648 663.891 329.252 664.498 328.785V325.915C663.215 325.985 662.153 326.102 661.313 326.265C660.473 326.428 659.808 326.638 659.318 326.895C658.828 327.128 658.478 327.408 658.268 327.735C658.081 328.062 657.988 328.412 657.988 328.785C657.988 329.345 658.198 329.765 658.618 330.045C659.061 330.302 659.656 330.43 660.403 330.43ZM685.729 334.42C683.536 334.42 681.879 333.778 680.759 332.495C679.663 331.188 679.114 329.427 679.114 327.21V313.525H673.654V309.465H684.259V327.42C684.259 327.957 684.329 328.412 684.469 328.785C684.633 329.135 684.843 329.427 685.099 329.66C685.379 329.87 685.683 330.022 686.009 330.115C686.359 330.208 686.721 330.255 687.094 330.255C687.491 330.255 687.899 330.22 688.319 330.15C688.763 330.057 689.253 329.905 689.789 329.695L690.944 333.475C690.478 333.615 690.046 333.743 689.649 333.86C689.253 333.977 688.856 334.07 688.459 334.14C688.063 334.233 687.643 334.303 687.199 334.35C686.756 334.397 686.266 334.42 685.729 334.42ZM717.552 334V311.18H732.707V315.52H722.697V320.805H731.237V325.145H722.697V334H717.552ZM744.593 334V320.665H737.628V316.64H749.738V334H744.593ZM746.938 313.91C745.935 313.91 745.107 313.63 744.453 313.07C743.823 312.51 743.508 311.752 743.508 310.795C743.508 309.838 743.823 309.068 744.453 308.485C745.107 307.878 745.935 307.575 746.938 307.575C747.942 307.575 748.758 307.878 749.388 308.485C750.042 309.068 750.368 309.838 750.368 310.795C750.368 311.752 750.042 312.51 749.388 313.07C748.758 313.63 747.942 313.91 746.938 313.91ZM758.37 334V316.64H762.57L762.955 318.95H763.095C763.841 318.203 764.693 317.562 765.65 317.025C766.63 316.488 767.773 316.22 769.08 316.22C771.04 316.22 772.475 316.85 773.385 318.11C774.295 319.37 774.75 321.097 774.75 323.29V334H769.605V323.955C769.605 322.788 769.418 321.937 769.045 321.4C768.671 320.863 768.006 320.595 767.05 320.595C766.35 320.595 765.731 320.747 765.195 321.05C764.681 321.353 764.121 321.808 763.515 322.415V334H758.37ZM784.676 334.42C783.789 334.42 782.996 334.28 782.296 334C781.596 333.743 781.001 333.382 780.511 332.915C780.021 332.425 779.636 331.865 779.356 331.235C779.099 330.605 778.971 329.917 778.971 329.17C778.971 328.19 779.181 327.338 779.601 326.615C780.021 325.868 780.686 325.238 781.596 324.725C782.529 324.212 783.719 323.803 785.166 323.5C786.613 323.173 788.363 322.952 790.416 322.835C790.323 322.042 789.973 321.423 789.366 320.98C788.783 320.537 787.896 320.315 786.706 320.315C785.866 320.315 785.014 320.467 784.151 320.77C783.311 321.05 782.401 321.435 781.421 321.925L779.601 318.565C780.791 317.888 782.063 317.328 783.416 316.885C784.793 316.442 786.228 316.22 787.721 316.22C790.148 316.22 792.061 316.862 793.461 318.145C794.861 319.428 795.561 321.4 795.561 324.06V334H791.361L790.976 332.04H790.836C789.949 332.717 788.981 333.288 787.931 333.755C786.881 334.198 785.796 334.42 784.676 334.42ZM786.321 330.43C787.091 330.43 787.814 330.278 788.491 329.975C789.168 329.648 789.809 329.252 790.416 328.785V325.915C789.133 325.985 788.071 326.102 787.231 326.265C786.391 326.428 785.726 326.638 785.236 326.895C784.746 327.128 784.396 327.408 784.186 327.735C783.999 328.062 783.906 328.412 783.906 328.785C783.906 329.345 784.116 329.765 784.536 330.045C784.979 330.302 785.574 330.43 786.321 330.43ZM811.647 334.42C809.454 334.42 807.797 333.778 806.677 332.495C805.581 331.188 805.032 329.427 805.032 327.21V313.525H799.572V309.465H810.177V327.42C810.177 327.957 810.247 328.412 810.387 328.785C810.551 329.135 810.761 329.427 811.017 329.66C811.297 329.87 811.601 330.022 811.927 330.115C812.277 330.208 812.639 330.255 813.012 330.255C813.409 330.255 813.817 330.22 814.237 330.15C814.681 330.057 815.171 329.905 815.707 329.695L816.862 333.475C816.396 333.615 815.964 333.743 815.567 333.86C815.171 333.977 814.774 334.07 814.377 334.14C813.981 334.233 813.561 334.303 813.117 334.35C812.674 334.397 812.184 334.42 811.647 334.42Z" fill="black"/>
<path d="M1166.15 150.618H1054.07L1160.87 263.022L1175.07 161.782C1176.36 156.061 1172.01 150.618 1166.15 150.618Z" fill="#00AD94"/>
<path d="M1132.11 93.978H1026.41C1019.9 93.978 1014.62 99.2549 1014.62 105.764V243.941H1143.9V105.764C1143.9 99.2545 1138.62 93.978 1132.11 93.978Z" fill="#EFEDEE"/>
<path d="M1143.9 147.782H1029.21V199.673H1143.9V147.782Z" fill="#D4D2D3"/>
<path d="M1140.49 172.913C1139.09 166.686 1133.55 162.265 1127.17 162.265H1039.25L1037.46 154.38C1036.59 150.522 1033.16 147.782 1029.21 147.782H986.445C981.017 147.782 976.992 152.819 978.189 158.113L999.636 252.968C1000.96 258.848 1006.19 263.022 1012.22 263.022H1160.87L1140.49 172.913Z" fill="#3AC7B4"/>
<path d="M1053.22 116.159C1051.57 116.159 1050.24 117.492 1050.24 119.137V123.85C1050.24 125.494 1051.57 126.828 1053.22 126.828C1054.86 126.828 1056.2 125.494 1056.2 123.85V119.137C1056.2 117.492 1054.86 116.159 1053.22 116.159Z" fill="black"/>
<path d="M1105.3 126.828C1106.95 126.828 1108.28 125.494 1108.28 123.85V119.137C1108.28 117.492 1106.95 116.159 1105.3 116.159C1103.66 116.159 1102.32 117.492 1102.32 119.137V123.85C1102.32 125.494 1103.66 126.828 1105.3 126.828Z" fill="black"/>
<path d="M1079.26 130.311C1083.2 130.311 1086.89 128.667 1089.4 125.799C1090.48 124.561 1090.36 122.68 1089.12 121.598C1087.88 120.515 1086 120.641 1084.92 121.879C1083.54 123.453 1081.48 124.355 1079.26 124.355C1077.04 124.355 1074.98 123.453 1073.6 121.879C1072.52 120.641 1070.64 120.515 1069.4 121.597C1068.16 122.679 1068.04 124.561 1069.12 125.799C1071.63 128.666 1075.32 130.311 1079.26 130.311Z" fill="black"/>
<path d="M1012.22 265.999C1012.22 265.999 1160.84 265.999 1160.87 266C1161.55 266.01 1162.23 265.748 1162.75 265.311C1163.27 264.883 1163.82 264.135 1163.82 263.435L1174.47 187.472C1174.7 185.844 1173.57 184.338 1171.94 184.11C1170.31 183.881 1168.8 185.017 1168.58 186.645L1160.18 246.483L1146.87 187.631V153.595H1166.15C1168.03 153.595 1169.79 154.44 1170.97 155.913C1172.15 157.386 1172.58 159.286 1172.17 161.125C1172.15 161.205 1170.25 174.734 1170.25 174.734C1170.02 176.362 1171.15 177.868 1172.78 178.096C1174.41 178.326 1175.92 177.189 1176.14 175.561L1178 162.309C1178.77 158.735 1177.91 155.055 1175.62 152.195C1173.31 149.3 1169.85 147.639 1166.15 147.639H1146.87V105.764C1146.87 97.6232 1140.25 91 1132.11 91H1026.41C1018.27 91 1011.65 97.6232 1011.65 105.764V144.804H986.446C982.948 144.804 979.69 146.371 977.507 149.103C975.324 151.835 974.514 155.358 975.285 158.77L996.732 253.625C998.379 260.911 1004.75 265.999 1012.22 265.999ZM982.16 152.821C983.207 151.511 984.769 150.759 986.446 150.759H1029.21C1031.79 150.759 1033.99 152.518 1034.56 155.036L1036.34 162.921C1036.65 164.278 1037.86 165.242 1039.25 165.242H1054.88C1056.52 165.242 1057.86 163.909 1057.86 162.264C1057.86 160.62 1056.52 159.286 1054.88 159.286H1041.63L1040.37 153.723C1039.18 148.471 1034.59 144.804 1029.21 144.804H1017.6V105.764C1017.6 100.907 1021.55 96.9554 1026.41 96.9554H1132.11C1136.97 96.9554 1140.92 100.907 1140.92 105.764V166.525C1140.91 166.512 1140.9 166.5 1140.89 166.487C1137.84 161.995 1132.59 159.287 1127.17 159.287H1066.79C1065.15 159.287 1063.81 160.62 1063.81 162.265C1063.81 163.909 1065.15 165.243 1066.79 165.243H1127.17C1132.13 165.243 1136.49 168.733 1137.59 173.57L1157.14 260.044H1012.22C1007.55 260.044 1003.57 256.865 1002.54 252.311L981.094 157.457C980.724 155.821 981.113 154.131 982.16 152.821Z" fill="black"/>
<path d="M916.42 334L909.525 311.18H914.985L917.715 321.82C918.065 323.08 918.368 324.305 918.625 325.495C918.905 326.662 919.208 327.875 919.535 329.135H919.675C920.025 327.875 920.34 326.662 920.62 325.495C920.9 324.305 921.203 323.08 921.53 321.82L924.225 311.18H929.475L922.615 334H916.42ZM940.486 334.42C939.273 334.42 938.293 334.035 937.546 333.265C936.8 332.472 936.426 331.492 936.426 330.325C936.426 329.742 936.52 329.205 936.706 328.715C936.916 328.202 937.196 327.758 937.546 327.385C937.896 327.012 938.316 326.72 938.806 326.51C939.32 326.3 939.88 326.195 940.486 326.195C941.093 326.195 941.641 326.3 942.131 326.51C942.645 326.72 943.076 327.012 943.426 327.385C943.776 327.758 944.045 328.202 944.231 328.715C944.441 329.205 944.546 329.742 944.546 330.325C944.546 331.492 944.173 332.472 943.426 333.265C942.68 334.035 941.7 334.42 940.486 334.42ZM979.414 334V320.665H974.829V316.85L979.414 316.64V316.185C979.414 315.182 979.566 314.248 979.869 313.385C980.172 312.522 980.639 311.775 981.269 311.145C981.899 310.492 982.704 309.978 983.684 309.605C984.664 309.232 985.831 309.045 987.184 309.045C988.187 309.045 989.121 309.138 989.984 309.325C990.871 309.512 991.687 309.733 992.434 309.99L991.454 313.77C990.311 313.327 989.097 313.105 987.814 313.105C986.694 313.105 985.866 313.35 985.329 313.84C984.816 314.33 984.559 315.1 984.559 316.15V316.64H990.544V320.665H984.559V334H979.414ZM1002.68 334V320.665H995.71V316.64H1007.82V334H1002.68ZM1005.02 313.91C1004.02 313.91 1003.19 313.63 1002.54 313.07C1001.91 312.51 1001.59 311.752 1001.59 310.795C1001.59 309.838 1001.91 309.068 1002.54 308.485C1003.19 307.878 1004.02 307.575 1005.02 307.575C1006.02 307.575 1006.84 307.878 1007.47 308.485C1008.12 309.068 1008.45 309.838 1008.45 310.795C1008.45 311.752 1008.12 312.51 1007.47 313.07C1006.84 313.63 1006.02 313.91 1005.02 313.91ZM1016.45 334V316.64H1020.65L1021.04 318.95H1021.18C1021.92 318.203 1022.77 317.562 1023.73 317.025C1024.71 316.488 1025.85 316.22 1027.16 316.22C1029.12 316.22 1030.56 316.85 1031.47 318.11C1032.38 319.37 1032.83 321.097 1032.83 323.29V334H1027.69V323.955C1027.69 322.788 1027.5 321.937 1027.13 321.4C1026.75 320.863 1026.09 320.595 1025.13 320.595C1024.43 320.595 1023.81 320.747 1023.28 321.05C1022.76 321.353 1022.2 321.808 1021.6 322.415V334H1016.45ZM1042.76 334.42C1041.87 334.42 1041.08 334.28 1040.38 334C1039.68 333.743 1039.08 333.382 1038.59 332.915C1038.1 332.425 1037.72 331.865 1037.44 331.235C1037.18 330.605 1037.05 329.917 1037.05 329.17C1037.05 328.19 1037.26 327.338 1037.68 326.615C1038.1 325.868 1038.77 325.238 1039.68 324.725C1040.61 324.212 1041.8 323.803 1043.25 323.5C1044.69 323.173 1046.44 322.952 1048.5 322.835C1048.4 322.042 1048.05 321.423 1047.45 320.98C1046.86 320.537 1045.98 320.315 1044.79 320.315C1043.95 320.315 1043.1 320.467 1042.23 320.77C1041.39 321.05 1040.48 321.435 1039.5 321.925L1037.68 318.565C1038.87 317.888 1040.14 317.328 1041.5 316.885C1042.87 316.442 1044.31 316.22 1045.8 316.22C1048.23 316.22 1050.14 316.862 1051.54 318.145C1052.94 319.428 1053.64 321.4 1053.64 324.06V334H1049.44L1049.06 332.04H1048.92C1048.03 332.717 1047.06 333.288 1046.01 333.755C1044.96 334.198 1043.88 334.42 1042.76 334.42ZM1044.4 330.43C1045.17 330.43 1045.9 330.278 1046.57 329.975C1047.25 329.648 1047.89 329.252 1048.5 328.785V325.915C1047.21 325.985 1046.15 326.102 1045.31 326.265C1044.47 326.428 1043.81 326.638 1043.32 326.895C1042.83 327.128 1042.48 327.408 1042.27 327.735C1042.08 328.062 1041.99 328.412 1041.99 328.785C1041.99 329.345 1042.2 329.765 1042.62 330.045C1043.06 330.302 1043.66 330.43 1044.4 330.43ZM1069.73 334.42C1067.54 334.42 1065.88 333.778 1064.76 332.495C1063.66 331.188 1063.11 329.427 1063.11 327.21V313.525H1057.65V309.465H1068.26V327.42C1068.26 327.957 1068.33 328.412 1068.47 328.785C1068.63 329.135 1068.84 329.427 1069.1 329.66C1069.38 329.87 1069.68 330.022 1070.01 330.115C1070.36 330.208 1070.72 330.255 1071.09 330.255C1071.49 330.255 1071.9 330.22 1072.32 330.15C1072.76 330.057 1073.25 329.905 1073.79 329.695L1074.94 333.475C1074.48 333.615 1074.05 333.743 1073.65 333.86C1073.25 333.977 1072.86 334.07 1072.46 334.14C1072.06 334.233 1071.64 334.303 1071.2 334.35C1070.76 334.397 1070.27 334.42 1069.73 334.42ZM1105.72 334.42C1104.83 334.42 1104.04 334.28 1103.34 334C1102.64 333.743 1102.04 333.382 1101.55 332.915C1101.06 332.425 1100.68 331.865 1100.4 331.235C1100.14 330.605 1100.01 329.917 1100.01 329.17C1100.01 328.19 1100.22 327.338 1100.64 326.615C1101.06 325.868 1101.73 325.238 1102.64 324.725C1103.57 324.212 1104.76 323.803 1106.21 323.5C1107.65 323.173 1109.4 322.952 1111.46 322.835C1111.36 322.042 1111.01 321.423 1110.41 320.98C1109.82 320.537 1108.94 320.315 1107.75 320.315C1106.91 320.315 1106.06 320.467 1105.19 320.77C1104.35 321.05 1103.44 321.435 1102.46 321.925L1100.64 318.565C1101.83 317.888 1103.1 317.328 1104.46 316.885C1105.83 316.442 1107.27 316.22 1108.76 316.22C1111.19 316.22 1113.1 316.862 1114.5 318.145C1115.9 319.428 1116.6 321.4 1116.6 324.06V334H1112.4L1112.02 332.04H1111.88C1110.99 332.717 1110.02 333.288 1108.97 333.755C1107.92 334.198 1106.84 334.42 1105.72 334.42ZM1107.36 330.43C1108.13 330.43 1108.86 330.278 1109.53 329.975C1110.21 329.648 1110.85 329.252 1111.46 328.785V325.915C1110.17 325.985 1109.11 326.102 1108.27 326.265C1107.43 326.428 1106.77 326.638 1106.28 326.895C1105.79 327.128 1105.44 327.408 1105.23 327.735C1105.04 328.062 1104.95 328.412 1104.95 328.785C1104.95 329.345 1105.16 329.765 1105.58 330.045C1106.02 330.302 1106.62 330.43 1107.36 330.43ZM1121.38 334V309.465H1126.53V315.485L1126.25 318.81H1126.35C1127.01 318.133 1127.8 317.538 1128.73 317.025C1129.67 316.488 1130.8 316.22 1132.13 316.22C1134.09 316.22 1135.51 316.85 1136.4 318.11C1137.31 319.37 1137.76 321.097 1137.76 323.29V334H1132.62V323.955C1132.62 322.788 1132.43 321.937 1132.06 321.4C1131.68 320.863 1131.02 320.595 1130.06 320.595C1129.36 320.595 1128.74 320.747 1128.21 321.05C1127.69 321.353 1127.13 321.808 1126.53 322.415V334H1121.38ZM1150.35 334.42C1149.21 334.42 1148.1 334.222 1147.02 333.825C1145.97 333.405 1145.03 332.81 1144.19 332.04C1143.37 331.27 1142.72 330.325 1142.23 329.205C1141.74 328.062 1141.49 326.767 1141.49 325.32C1141.49 323.873 1141.74 322.59 1142.23 321.47C1142.72 320.327 1143.37 319.37 1144.19 318.6C1145.03 317.83 1145.97 317.247 1147.02 316.85C1148.1 316.43 1149.21 316.22 1150.35 316.22C1151.49 316.22 1152.59 316.43 1153.64 316.85C1154.71 317.247 1155.66 317.83 1156.47 318.6C1157.31 319.37 1157.98 320.327 1158.47 321.47C1158.96 322.59 1159.2 323.873 1159.2 325.32C1159.2 326.767 1158.96 328.062 1158.47 329.205C1157.98 330.325 1157.31 331.27 1156.47 332.04C1155.66 332.81 1154.71 333.405 1153.64 333.825C1152.59 334.222 1151.49 334.42 1150.35 334.42ZM1150.35 330.255C1151.54 330.255 1152.43 329.812 1153.01 328.925C1153.62 328.038 1153.92 326.837 1153.92 325.32C1153.92 323.803 1153.62 322.602 1153.01 321.715C1152.43 320.828 1151.54 320.385 1150.35 320.385C1149.16 320.385 1148.26 320.828 1147.65 321.715C1147.07 322.602 1146.78 323.803 1146.78 325.32C1146.78 326.837 1147.07 328.038 1147.65 328.925C1148.26 329.812 1149.16 330.255 1150.35 330.255ZM1164.9 334V316.64H1169.1L1169.52 320.42H1169.62C1170.48 318.997 1171.52 317.947 1172.74 317.27C1173.95 316.57 1175.26 316.22 1176.66 316.22C1177.43 316.22 1178.04 316.278 1178.51 316.395C1179 316.512 1179.5 316.687 1180.02 316.92L1178.97 321.225C1178.43 321.062 1177.94 320.945 1177.5 320.875C1177.08 320.782 1176.54 320.735 1175.89 320.735C1174.81 320.735 1173.75 321.05 1172.7 321.68C1171.67 322.31 1170.79 323.407 1170.04 324.97V334H1164.9ZM1189.66 334.42C1188.78 334.42 1187.98 334.28 1187.28 334C1186.58 333.743 1185.99 333.382 1185.5 332.915C1185.01 332.425 1184.62 331.865 1184.34 331.235C1184.09 330.605 1183.96 329.917 1183.96 329.17C1183.96 328.19 1184.17 327.338 1184.59 326.615C1185.01 325.868 1185.67 325.238 1186.58 324.725C1187.52 324.212 1188.71 323.803 1190.15 323.5C1191.6 323.173 1193.35 322.952 1195.4 322.835C1195.31 322.042 1194.96 321.423 1194.35 320.98C1193.77 320.537 1192.88 320.315 1191.69 320.315C1190.85 320.315 1190 320.467 1189.14 320.77C1188.3 321.05 1187.39 321.435 1186.41 321.925L1184.59 318.565C1185.78 317.888 1187.05 317.328 1188.4 316.885C1189.78 316.442 1191.21 316.22 1192.71 316.22C1195.13 316.22 1197.05 316.862 1198.45 318.145C1199.85 319.428 1200.55 321.4 1200.55 324.06V334H1196.35L1195.96 332.04H1195.82C1194.94 332.717 1193.97 333.288 1192.92 333.755C1191.87 334.198 1190.78 334.42 1189.66 334.42ZM1191.31 330.43C1192.08 330.43 1192.8 330.278 1193.48 329.975C1194.15 329.648 1194.8 329.252 1195.4 328.785V325.915C1194.12 325.985 1193.06 326.102 1192.22 326.265C1191.38 326.428 1190.71 326.638 1190.22 326.895C1189.73 327.128 1189.38 327.408 1189.17 327.735C1188.99 328.062 1188.89 328.412 1188.89 328.785C1188.89 329.345 1189.1 329.765 1189.52 330.045C1189.97 330.302 1190.56 330.43 1191.31 330.43ZM1234.15 334.42C1232.59 334.42 1231.06 334.163 1229.57 333.65C1228.08 333.137 1226.77 332.507 1225.65 331.76L1227.85 328.54C1228.93 329.217 1230.05 329.73 1231.21 330.08C1232.38 330.43 1233.59 330.605 1234.85 330.605C1235.81 330.605 1236.51 330.465 1236.95 330.185C1237.4 329.905 1237.62 329.555 1237.62 329.135C1237.62 328.902 1237.55 328.692 1237.41 328.505C1237.29 328.318 1237.07 328.155 1236.74 328.015C1236.44 327.852 1236.01 327.7 1235.45 327.56C1234.89 327.42 1234.19 327.257 1233.35 327.07C1230.99 326.557 1229.3 325.868 1228.27 325.005C1227.25 324.118 1226.73 322.998 1226.73 321.645C1226.73 320.852 1226.92 320.117 1227.29 319.44C1227.67 318.763 1228.19 318.192 1228.87 317.725C1229.57 317.258 1230.41 316.897 1231.39 316.64C1232.37 316.36 1233.48 316.22 1234.71 316.22C1236.28 316.22 1237.69 316.477 1238.95 316.99C1240.23 317.48 1241.33 318.017 1242.24 318.6L1239.93 321.68C1239.04 321.143 1238.12 320.735 1237.16 320.455C1236.21 320.175 1235.24 320.035 1234.26 320.035C1233.44 320.035 1232.84 320.163 1232.44 320.42C1232.04 320.677 1231.84 321.003 1231.84 321.4C1231.84 321.89 1232.15 322.24 1232.75 322.45C1233.36 322.66 1234.4 322.928 1235.87 323.255C1237.2 323.558 1238.31 323.885 1239.19 324.235C1240.08 324.585 1240.78 324.982 1241.29 325.425C1241.81 325.868 1242.17 326.37 1242.38 326.93C1242.59 327.49 1242.69 328.12 1242.69 328.82C1242.69 329.613 1242.51 330.348 1242.13 331.025C1241.76 331.702 1241.21 332.297 1240.49 332.81C1239.79 333.3 1238.9 333.697 1237.83 334C1236.78 334.28 1235.55 334.42 1234.15 334.42ZM1254.51 334V320.665H1247.55V316.64H1259.66V334H1254.51ZM1256.86 313.91C1255.85 313.91 1255.02 313.63 1254.37 313.07C1253.74 312.51 1253.43 311.752 1253.43 310.795C1253.43 309.838 1253.74 309.068 1254.37 308.485C1255.02 307.878 1255.85 307.575 1256.86 307.575C1257.86 307.575 1258.68 307.878 1259.31 308.485C1259.96 309.068 1260.29 309.838 1260.29 310.795C1260.29 311.752 1259.96 312.51 1259.31 313.07C1258.68 313.63 1257.86 313.91 1256.86 313.91ZM1295.57 325.075L1294.87 315.205L1294.7 310.55H1299.81L1299.63 315.205L1298.93 325.075H1295.57ZM1297.25 334.42C1296.25 334.42 1295.41 334.093 1294.73 333.44C1294.08 332.763 1293.75 331.9 1293.75 330.85C1293.75 329.8 1294.08 328.96 1294.73 328.33C1295.41 327.677 1296.25 327.35 1297.25 327.35C1298.26 327.35 1299.09 327.677 1299.74 328.33C1300.42 328.96 1300.75 329.8 1300.75 330.85C1300.75 331.9 1300.42 332.763 1299.74 333.44C1299.09 334.093 1298.26 334.42 1297.25 334.42Z" fill="black"/>
<defs>
<filter id="filter0_d" x="0" y="0" width="1448" height="417" filterUnits="userSpaceOnUse" color-interpolation-filters="sRGB">
<feFlood flood-opacity="0" result="BackgroundImageFix"/>
<feColorMatrix in="SourceAlpha" type="matrix" values="0 0 0 0 0 0 0 0 0 0 0 0 0 0 0 0 0 0 127 0"/>
<feOffset dy="4"/>
<feGaussianBlur stdDeviation="2"/>
<feColorMatrix type="matrix" values="0 0 0 0 0 0 0 0 0 0 0 0 0 0 0 0 0 0 0.25 0"/>
<feBlend mode="normal" in2="BackgroundImageFix" result="effect1_dropShadow"/>
<feBlend mode="normal" in="SourceGraphic" in2="effect1_dropShadow" result="shape"/>
</filter>
</defs>
</svg>
