<svg width="1448" height="417" viewBox="0 0 1448 417" fill="none" xmlns="http://www.w3.org/2000/svg">
<g filter="url(#filter0_d)">
<rect x="4" width="1440" height="409" fill="white"/>
<rect x="4.5" y="0.5" width="1439" height="408" stroke="black"/>
</g>
<path d="M307.698 65.7527H307.667L313.215 70.2017L307.698 65.7527Z" fill="#57A4FF"/>
<path d="M186.333 275.291H205L186.333 260.324V275.291Z" fill="#57A4FF"/>
<path d="M313.215 70.2014L354.08 103.17H354.333L313.215 70.2014Z" fill="#57A4FF"/>
<path d="M307.667 65.7527V103.17H354.08L313.215 70.2015L307.667 65.7527Z" fill="#57A4FF"/>
<path d="M335.667 189.231C335.667 222.294 302.237 249.099 261 249.099C219.764 249.099 186.333 222.294 186.333 189.231C186.333 156.167 219.764 129.363 261 129.363C302.237 129.363 335.667 156.167 335.667 189.231Z" fill="#57A4FF"/>
<path d="M357.633 100.525L311.007 63.1072C310.914 63.0323 310.788 63.0067 310.695 62.9391C310.387 62.718 310.043 62.5317 309.674 62.3855C309.141 62.2101 308.58 62.0968 308.008 62.0493C307.899 62.0493 307.808 62 307.699 62H167.667C165.09 62 163 63.6754 163 65.7418V290.258C163 292.325 165.09 294 167.667 294H354.333C356.91 294 359 292.325 359 290.258V103.373C359 103.316 358.964 103.263 358.959 103.209C358.986 102.207 358.508 101.239 357.633 100.525V100.525ZM312.333 74.8002L342.867 99.4285H312.333V74.8002ZM172.333 286.516V69.4945H303V103.17C303 105.237 305.09 106.912 307.667 106.912H349.667V286.516H172.333Z" fill="#004FAC"/>
<path d="M278.3 145.426C276.468 144.008 273.558 144.028 271.758 145.472C269.958 146.915 269.933 149.248 271.701 150.717L319.735 189.231L271.701 227.745C270.489 228.684 270.001 230.076 270.43 231.384C270.856 232.692 272.13 233.714 273.761 234.057C275.393 234.399 277.129 234.008 278.3 233.036L329.633 191.876C331.456 190.415 331.456 188.047 329.633 186.585L278.3 145.426Z" fill="#004FAC"/>
<path d="M250.3 145.426C248.477 143.966 245.524 143.966 243.701 145.426L192.368 186.585C190.547 188.047 190.547 190.415 192.368 191.876L243.701 233.036C245.533 234.453 248.443 234.433 250.243 232.99C252.043 231.547 252.068 229.214 250.3 227.745L202.266 189.231L250.3 150.717C252.123 149.255 252.123 146.888 250.3 145.426Z" fill="#004FAC"/>
<path d="M205 271.55H200.333L191 264.066V260.324C191 258.258 188.91 256.583 186.333 256.583C183.756 256.583 181.667 258.258 181.667 260.324V275.291C181.667 277.358 183.756 279.033 186.333 279.033H205C207.577 279.033 209.667 277.358 209.667 275.291C209.667 273.225 207.577 271.55 205 271.55Z" fill="#004FAC"/>
<path d="M557.882 213.151H822.997V278.708H557.882V213.151Z" fill="#8BAE2A"/>
<path d="M847.111 162.06H833.488V194.756H847.111V230.51H533.768V194.756H547.392V162.06H533.768V61.7683H847.111V162.06Z" fill="#AFDB35"/>
<path d="M671.015 94.6284H709.864V149.123H671.015V94.6284Z" fill="#EAEAF0"/>
<path d="M737.665 94.6284H776.514V149.123H737.665V94.6284Z" fill="#EAEAF0"/>
<path d="M604.366 94.6284H643.215V149.123H604.366V94.6284Z" fill="#EAEAF0"/>
<path d="M814.414 130.05C818.929 130.05 822.589 126.39 822.589 121.876C822.589 117.361 818.929 113.701 814.414 113.701C809.9 113.701 806.24 117.361 806.24 121.876C806.24 126.39 809.9 130.05 814.414 130.05Z" fill="#EAEAF0"/>
<path d="M566.046 130.05C570.56 130.05 574.22 126.39 574.22 121.876C574.22 117.361 570.56 113.701 566.046 113.701C561.531 113.701 557.871 117.361 557.871 121.876C557.871 126.39 561.531 130.05 566.046 130.05Z" fill="#EAEAF0"/>
<path d="M847.111 96.2169C845.846 96.2169 844.634 96.7193 843.739 97.6135C842.845 98.5077 842.343 99.7206 842.343 100.985V109.159C842.343 110.424 842.845 111.637 843.739 112.531C844.634 113.425 845.846 113.928 847.111 113.928C848.376 113.928 849.588 113.425 850.483 112.531C851.377 111.637 851.879 110.424 851.879 109.159V100.985C851.879 99.7206 851.377 98.5077 850.483 97.6135C849.588 96.7193 848.376 96.2169 847.111 96.2169V96.2169Z" fill="#2D1418"/>
<path d="M847.111 57H533.768C532.504 57 531.291 57.5024 530.397 58.3966C529.502 59.2908 529 60.5036 529 61.7683V162.062C529 163.327 529.502 164.54 530.397 165.434C531.291 166.328 532.504 166.831 533.768 166.831H542.624V189.991H533.768C533.142 189.99 532.522 190.114 531.943 190.353C531.364 190.593 530.839 190.944 530.396 191.387C529.953 191.829 529.602 192.355 529.362 192.934C529.123 193.513 529 194.133 529 194.759V230.51C529 231.775 529.502 232.988 530.397 233.882C531.291 234.776 532.504 235.278 533.768 235.278H818.229V273.939H794.633V254.594C794.633 253.329 794.131 252.117 793.236 251.222C792.342 250.328 791.129 249.826 789.865 249.826C788.6 249.826 787.387 250.328 786.493 251.222C785.599 252.117 785.096 253.329 785.096 254.594V273.939H761.492V254.594C761.492 253.329 760.99 252.117 760.096 251.222C759.201 250.328 757.989 249.826 756.724 249.826C755.459 249.826 754.246 250.328 753.352 251.222C752.458 252.117 751.956 253.329 751.956 254.594V273.939H728.349V254.594C728.349 253.329 727.846 252.117 726.952 251.222C726.058 250.328 724.845 249.826 723.58 249.826C722.316 249.826 721.103 250.328 720.209 251.222C719.315 252.117 718.812 253.329 718.812 254.594V273.939H695.208V254.594C695.208 253.329 694.706 252.117 693.811 251.222C692.917 250.328 691.704 249.826 690.44 249.826C689.175 249.826 687.962 250.328 687.068 251.222C686.174 252.117 685.671 253.329 685.671 254.594V273.939H662.067V254.594C662.067 253.329 661.565 252.117 660.671 251.222C659.776 250.328 658.564 249.826 657.299 249.826C656.034 249.826 654.821 250.328 653.927 251.222C653.033 252.117 652.531 253.329 652.531 254.594V273.939H628.924V254.594C628.924 253.329 628.421 252.117 627.527 251.222C626.633 250.328 625.42 249.826 624.155 249.826C622.891 249.826 621.678 250.328 620.784 251.222C619.889 252.117 619.387 253.329 619.387 254.594V273.939H595.783V254.594C595.783 253.329 595.281 252.117 594.386 251.222C593.492 250.328 592.279 249.826 591.015 249.826C589.75 249.826 588.537 250.328 587.643 251.222C586.749 252.117 586.246 253.329 586.246 254.594V273.939H562.65V249.145C562.65 247.88 562.148 246.667 561.254 245.773C560.359 244.879 559.147 244.376 557.882 244.376C556.617 244.376 555.405 244.879 554.51 245.773C553.616 246.667 553.114 247.88 553.114 249.145V278.708C553.114 279.972 553.616 281.185 554.51 282.079C555.405 282.974 556.617 283.476 557.882 283.476H822.997C824.262 283.476 825.475 282.974 826.369 282.079C827.263 281.185 827.766 279.972 827.766 278.708V235.278H847.111C848.376 235.278 849.588 234.776 850.483 233.882C851.377 232.988 851.879 231.775 851.879 230.51V194.759C851.88 194.133 851.757 193.513 851.517 192.934C851.278 192.355 850.926 191.829 850.484 191.387C850.041 190.944 849.515 190.593 848.936 190.353C848.358 190.114 847.737 189.99 847.111 189.991H838.256V166.831H847.111C848.376 166.831 849.588 166.328 850.483 165.434C851.377 164.54 851.879 163.327 851.879 162.062V126.415C851.879 125.15 851.377 123.938 850.483 123.043C849.588 122.149 848.376 121.647 847.111 121.647C845.846 121.647 844.634 122.149 843.739 123.043C842.845 123.938 842.343 125.15 842.343 126.415V157.294H833.487C832.861 157.294 832.241 157.417 831.662 157.656C831.084 157.896 830.558 158.247 830.115 158.69C829.672 159.133 829.321 159.659 829.081 160.237C828.842 160.816 828.719 161.436 828.719 162.062V194.759C828.719 196.024 829.222 197.237 830.116 198.131C831.01 199.025 832.223 199.527 833.487 199.527H842.343V225.742H538.537V199.527H547.392C548.656 199.527 549.869 199.025 550.764 198.131C551.658 197.237 552.16 196.024 552.16 194.759V162.062C552.16 161.436 552.037 160.816 551.798 160.237C551.558 159.659 551.207 159.133 550.764 158.69C550.321 158.247 549.796 157.896 549.217 157.656C548.638 157.417 548.018 157.294 547.392 157.294H538.537V66.5365H842.343V83.5006C842.343 84.7652 842.845 85.9781 843.739 86.8723C844.634 87.7665 845.846 88.2689 847.111 88.2689C848.376 88.2689 849.588 87.7665 850.483 86.8723C851.377 85.9781 851.879 84.7652 851.879 83.5006V61.7683C851.879 60.5036 851.377 59.2908 850.483 58.3966C849.588 57.5024 848.376 57 847.111 57V57Z" fill="#2D1418"/>
<path d="M604.366 210.756H776.513C777.778 210.756 778.991 210.254 779.885 209.359C780.779 208.465 781.282 207.252 781.282 205.988C781.282 204.723 780.779 203.51 779.885 202.616C778.991 201.722 777.778 201.219 776.513 201.219H604.366C603.101 201.219 601.888 201.722 600.994 202.616C600.1 203.51 599.597 204.723 599.597 205.988C599.597 207.252 600.1 208.465 600.994 209.359C601.888 210.254 603.101 210.756 604.366 210.756V210.756Z" fill="#2D1418"/>
<path d="M671.015 131.409C669.75 131.409 668.538 131.912 667.643 132.806C666.749 133.7 666.247 134.913 666.247 136.178V149.123C666.248 150.387 666.75 151.599 667.644 152.493C668.539 153.386 669.751 153.888 671.015 153.888H709.864C711.129 153.888 712.342 153.386 713.236 152.492C714.13 151.598 714.632 150.385 714.632 149.12V94.6257C714.632 93.3611 714.13 92.1482 713.236 91.254C712.342 90.3598 711.129 89.8574 709.864 89.8574H671.015C669.75 89.8574 668.538 90.3598 667.643 91.254C666.749 92.1482 666.247 93.3611 666.247 94.6257V113.699C666.247 114.963 666.749 116.176 667.643 117.07C668.538 117.965 669.75 118.467 671.015 118.467C672.28 118.467 673.493 117.965 674.387 117.07C675.281 116.176 675.783 114.963 675.783 113.699V99.3939H705.096V144.352H675.783V136.178C675.783 134.913 675.281 133.7 674.387 132.806C673.493 131.912 672.28 131.409 671.015 131.409V131.409Z" fill="#2D1418"/>
<path d="M781.282 94.6284C781.282 93.3637 780.78 92.1509 779.885 91.2567C778.991 90.3625 777.778 89.8601 776.514 89.8601H737.665C736.4 89.8601 735.187 90.3625 734.293 91.2567C733.399 92.1509 732.896 93.3637 732.896 94.6284V149.123C732.897 150.387 733.4 151.599 734.294 152.493C735.188 153.386 736.401 153.888 737.665 153.888H776.514C777.778 153.888 778.991 153.386 779.885 152.492C780.78 151.597 781.282 150.385 781.282 149.12V94.6284ZM771.746 144.352H742.433V99.3939H771.746V144.352Z" fill="#2D1418"/>
<path d="M604.366 153.888H643.215C644.479 153.888 645.692 153.386 646.586 152.492C647.481 151.598 647.983 150.385 647.983 149.12V94.6257C647.983 93.3611 647.481 92.1482 646.586 91.254C645.692 90.3598 644.479 89.8574 643.215 89.8574H604.366C603.101 89.8574 601.888 90.3598 600.994 91.254C600.1 92.1482 599.597 93.3611 599.597 94.6257V149.12C599.597 150.385 600.1 151.598 600.994 152.492C601.888 153.386 603.101 153.888 604.366 153.888ZM609.134 99.3939H638.446V144.352H609.134V99.3939Z" fill="#2D1418"/>
<path d="M801.472 121.876C801.472 124.435 802.231 126.938 803.653 129.066C805.075 131.194 807.097 132.853 809.462 133.833C811.827 134.812 814.429 135.069 816.94 134.569C819.45 134.07 821.756 132.837 823.566 131.027C825.376 129.217 826.609 126.911 827.108 124.4C827.608 121.89 827.351 119.288 826.372 116.923C825.392 114.558 823.733 112.536 821.605 111.114C819.477 109.692 816.974 108.933 814.415 108.933C810.983 108.937 807.694 110.302 805.268 112.729C802.841 115.155 801.476 118.444 801.472 121.876V121.876ZM817.82 121.876C817.82 122.549 817.62 123.207 817.245 123.767C816.871 124.327 816.338 124.763 815.716 125.02C815.094 125.278 814.409 125.345 813.748 125.213C813.088 125.081 812.481 124.757 812.005 124.28C811.529 123.804 811.205 123.197 811.074 122.536C810.943 121.876 811.01 121.191 811.268 120.569C811.526 119.947 811.963 119.415 812.523 119.041C813.083 118.667 813.741 118.467 814.415 118.467C815.318 118.468 816.184 118.828 816.822 119.467C817.461 120.106 817.82 120.972 817.82 121.876Z" fill="#2D1418"/>
<path d="M553.114 121.876C553.114 124.435 553.873 126.938 555.295 129.066C556.717 131.194 558.738 132.853 561.103 133.833C563.468 134.812 566.071 135.069 568.581 134.569C571.092 134.07 573.398 132.837 575.208 131.027C577.018 129.217 578.251 126.911 578.75 124.4C579.249 121.89 578.993 119.288 578.013 116.923C577.034 114.558 575.375 112.536 573.247 111.114C571.118 109.692 568.616 108.933 566.056 108.933C562.625 108.937 559.336 110.302 556.909 112.729C554.483 115.155 553.118 118.444 553.114 121.876V121.876ZM569.462 121.876C569.462 122.549 569.262 123.206 568.888 123.766C568.513 124.325 567.982 124.761 567.36 125.019C566.738 125.277 566.054 125.345 565.394 125.214C564.734 125.083 564.127 124.759 563.651 124.284C563.174 123.809 562.849 123.203 562.717 122.543C562.584 121.883 562.65 121.199 562.907 120.576C563.163 119.954 563.598 119.421 564.156 119.046C564.715 118.671 565.372 118.469 566.045 118.467C566.494 118.466 566.937 118.554 567.352 118.725C567.766 118.896 568.143 119.147 568.46 119.463C568.777 119.78 569.029 120.156 569.201 120.57C569.373 120.984 569.462 121.427 569.462 121.876V121.876Z" fill="#2D1418"/>
<path d="M1163.33 109.397C1220.23 109.397 1266.36 95.9419 1266.36 79.3448C1266.36 62.7477 1220.23 49.2931 1163.33 49.2931C1106.42 49.2931 1060.29 62.7477 1060.29 79.3448C1060.29 95.9419 1106.42 109.397 1163.33 109.397Z" fill="#BDDBFF"/>
<path d="M1163.33 169.5C1220.21 169.5 1266.36 156.063 1266.36 139.448V79.3448C1266.36 95.9592 1220.21 109.397 1163.33 109.397C1106.44 109.397 1060.29 95.9592 1060.29 79.3448V139.448C1060.29 156.063 1106.44 169.5 1163.33 169.5Z" fill="#9BC9FF"/>
<path d="M1163.33 229.603C1220.21 229.603 1266.36 216.166 1266.36 199.552V139.448C1266.36 156.063 1220.21 169.5 1163.33 169.5C1106.44 169.5 1060.29 156.063 1060.29 139.448V199.552C1060.29 216.166 1106.44 229.603 1163.33 229.603Z" fill="#57A4FF"/>
<path d="M1266.36 199.552C1266.36 216.166 1220.21 229.603 1163.33 229.603C1106.44 229.603 1060.29 216.166 1060.29 199.552V259.655C1060.29 276.27 1106.44 289.707 1163.33 289.707C1220.21 289.707 1266.36 276.27 1266.36 259.655V199.552Z" fill="#2488FF"/>
<path d="M1163.33 45C1111.3 45 1056 57.0207 1056 79.3448V259.655C1056 281.979 1111.3 294 1163.33 294C1215.36 294 1270.66 281.979 1270.66 259.655V79.3448C1270.66 57.0207 1215.36 45 1163.33 45ZM1262.07 153.59V199.552C1262.07 210.306 1224.5 225.31 1163.33 225.31C1102.15 225.31 1064.59 210.306 1064.59 199.552V153.59C1064.68 153.667 1064.81 153.736 1064.91 153.813C1065.89 154.53 1066.91 155.23 1068.02 155.912C1068.2 156.02 1068.39 156.123 1068.57 156.23C1069.57 156.822 1070.62 157.402 1071.72 157.969L1072.62 158.432C1073.89 159.059 1075.19 159.669 1076.59 160.261L1077.41 160.596C1078.62 161.103 1079.88 161.594 1081.18 162.069L1082.24 162.459C1083.76 162.998 1085.32 163.518 1086.93 164.022L1088.02 164.348C1089.42 164.778 1090.85 165.177 1092.31 165.576C1092.7 165.679 1093.08 165.786 1093.46 165.885C1095.18 166.34 1096.95 166.77 1098.77 167.173C1099.2 167.272 1099.63 167.362 1100.06 167.456C1101.64 167.809 1103.25 168.146 1104.88 168.47L1106.02 168.697C1107.92 169.064 1109.85 169.408 1111.82 169.732C1112.3 169.813 1112.78 169.886 1113.26 169.964C1114.98 170.243 1116.74 170.509 1118.52 170.758L1119.58 170.908C1121.61 171.194 1123.67 171.451 1125.74 171.677L1127.3 171.848C1129.21 172.054 1131.12 172.246 1133.04 172.424L1133.83 172.497C1135.97 172.685 1138.12 172.844 1140.27 172.99L1141.87 173.098C1143.91 173.226 1145.96 173.338 1148.01 173.432L1148.52 173.458C1150.71 173.553 1152.9 173.624 1155.09 173.673L1156.7 173.707C1158.91 173.75 1161.12 173.78 1163.33 173.78C1165.53 173.78 1167.75 173.75 1169.96 173.707L1171.56 173.673C1173.76 173.621 1175.95 173.55 1178.13 173.458L1178.65 173.432C1180.7 173.338 1182.74 173.226 1184.78 173.098L1186.39 172.99C1188.54 172.844 1190.68 172.685 1192.83 172.497L1193.61 172.424C1195.54 172.249 1197.45 172.057 1199.35 171.848L1200.91 171.677C1202.99 171.436 1205.04 171.18 1207.08 170.908L1208.14 170.758C1209.91 170.509 1211.66 170.243 1213.39 169.964C1213.87 169.886 1214.36 169.813 1214.84 169.732C1216.8 169.406 1218.73 169.06 1220.64 168.697L1221.78 168.47C1223.41 168.146 1225.02 167.809 1226.6 167.456C1227.02 167.362 1227.45 167.272 1227.88 167.173C1229.69 166.761 1231.47 166.332 1233.19 165.885C1233.58 165.786 1233.96 165.679 1234.34 165.576C1235.81 165.177 1237.24 164.769 1238.64 164.348L1239.72 164.022C1241.34 163.518 1242.9 162.998 1244.42 162.459L1245.48 162.069C1246.77 161.594 1248.03 161.103 1249.25 160.596L1250.07 160.261C1251.45 159.669 1252.77 159.059 1254.04 158.432L1254.93 157.969C1256.03 157.402 1257.08 156.822 1258.09 156.23C1258.27 156.123 1258.46 156.02 1258.63 155.912C1259.74 155.23 1260.78 154.53 1261.74 153.813C1261.84 153.736 1261.97 153.667 1262.07 153.59ZM1262.07 93.4863V139.448C1262.07 150.181 1224.5 165.207 1163.33 165.207C1102.15 165.207 1064.59 150.181 1064.59 139.448V93.4863C1064.68 93.5636 1064.81 93.6323 1064.91 93.7095C1065.89 94.4265 1066.91 95.1263 1068.02 95.8089C1068.2 95.9162 1068.39 96.0192 1068.57 96.1266C1069.57 96.719 1070.62 97.2986 1071.72 97.8438L1072.62 98.3075C1073.89 98.9343 1075.19 99.5439 1076.59 100.136L1077.41 100.471C1078.62 100.978 1079.88 101.469 1081.18 101.944L1082.24 102.334C1083.76 102.873 1085.32 103.393 1086.93 103.897L1088.02 104.223C1089.42 104.653 1090.85 105.052 1092.31 105.451C1092.7 105.554 1093.08 105.662 1093.46 105.76C1095.18 106.215 1096.95 106.645 1098.77 107.048C1099.2 107.147 1099.63 107.237 1100.06 107.332C1101.64 107.684 1103.25 108.021 1104.88 108.345L1106.02 108.572C1107.92 108.939 1109.85 109.283 1111.82 109.607C1112.3 109.688 1112.78 109.761 1113.26 109.839C1114.98 110.118 1116.74 110.384 1118.52 110.633L1119.58 110.783C1121.61 111.069 1123.67 111.326 1125.74 111.552L1127.3 111.723C1129.21 111.929 1131.12 112.121 1133.04 112.299L1133.83 112.372C1135.97 112.561 1138.12 112.719 1140.27 112.865L1141.87 112.973C1143.91 113.101 1145.96 113.213 1148.01 113.308L1148.52 113.333C1150.71 113.428 1152.9 113.499 1155.09 113.548L1156.7 113.582C1158.91 113.625 1161.12 113.655 1163.33 113.655C1165.53 113.655 1167.75 113.625 1169.96 113.582L1171.56 113.548C1173.76 113.496 1175.95 113.425 1178.13 113.333L1178.65 113.308C1180.7 113.213 1182.74 113.101 1184.78 112.973L1186.39 112.865C1188.54 112.719 1190.68 112.561 1192.83 112.372L1193.61 112.299C1195.54 112.124 1197.45 111.932 1199.35 111.723L1200.91 111.552C1202.99 111.311 1205.04 111.055 1207.08 110.783L1208.14 110.633C1209.91 110.384 1211.66 110.118 1213.39 109.839C1213.87 109.761 1214.36 109.688 1214.84 109.607C1216.8 109.281 1218.73 108.936 1220.64 108.572L1221.78 108.345C1223.41 108.021 1225.02 107.684 1226.6 107.332C1227.02 107.237 1227.45 107.147 1227.88 107.048C1229.69 106.636 1231.47 106.207 1233.19 105.76C1233.58 105.662 1233.96 105.554 1234.34 105.451C1235.81 105.052 1237.24 104.644 1238.64 104.223L1239.72 103.897C1241.34 103.393 1242.9 102.873 1244.42 102.334L1245.48 101.944C1246.77 101.469 1248.03 100.978 1249.25 100.471L1250.07 100.136C1251.45 99.5439 1252.77 98.9343 1254.04 98.3075L1254.93 97.8438C1256.03 97.2771 1257.08 96.6976 1258.09 96.1266C1258.27 96.0192 1258.46 95.9162 1258.63 95.8089C1259.74 95.1263 1260.78 94.4265 1261.74 93.7095C1261.84 93.6323 1261.97 93.5636 1262.07 93.4863ZM1163.33 53.5862C1224.5 53.5862 1262.07 68.5906 1262.07 79.3448C1262.07 90.099 1224.5 105.103 1163.33 105.103C1102.15 105.103 1064.59 90.099 1064.59 79.3448C1064.59 68.5906 1102.15 53.5862 1163.33 53.5862ZM1262.07 259.655C1262.07 270.409 1224.5 285.414 1163.33 285.414C1102.15 285.414 1064.59 270.409 1064.59 259.655V213.693C1064.68 213.77 1064.81 213.839 1064.91 213.916C1065.89 214.633 1066.91 215.333 1068.02 216.016C1068.2 216.123 1068.39 216.226 1068.57 216.333C1069.57 216.926 1070.62 217.505 1071.72 218.072L1072.62 218.536C1073.89 219.163 1075.19 219.772 1076.59 220.365L1077.41 220.7C1078.62 221.206 1079.88 221.697 1081.18 222.172L1082.24 222.563C1083.76 223.101 1085.32 223.622 1086.93 224.125L1088.02 224.452C1089.42 224.881 1090.85 225.28 1092.31 225.68C1092.7 225.783 1093.08 225.89 1093.46 225.989C1095.18 226.444 1096.95 226.873 1098.77 227.277C1099.2 227.375 1099.63 227.465 1100.06 227.56C1101.64 227.912 1103.25 228.249 1104.88 228.573L1106.02 228.801C1107.92 229.164 1109.85 229.509 1111.82 229.835C1112.3 229.917 1112.78 229.99 1113.26 230.067C1114.98 230.346 1116.74 230.612 1118.52 230.861L1119.58 231.012C1121.61 231.298 1123.67 231.554 1125.74 231.78L1127.3 231.952C1129.21 232.158 1131.12 232.349 1133.04 232.527L1133.83 232.6C1135.97 232.789 1138.12 232.948 1140.27 233.094L1141.87 233.201C1143.91 233.33 1145.96 233.441 1148.01 233.536L1148.52 233.562C1150.71 233.656 1152.9 233.728 1155.09 233.776L1156.7 233.811C1158.91 233.854 1161.12 233.884 1163.33 233.884C1165.53 233.884 1167.75 233.854 1169.96 233.811L1171.56 233.776C1173.76 233.725 1175.95 233.653 1178.13 233.562L1178.65 233.536C1180.7 233.441 1182.74 233.33 1184.78 233.201L1186.39 233.094C1188.54 232.948 1190.68 232.789 1192.83 232.6L1193.61 232.527C1195.54 232.353 1197.45 232.161 1199.35 231.952L1200.91 231.78C1202.99 231.54 1205.04 231.284 1207.08 231.012L1208.14 230.861C1209.91 230.612 1211.66 230.346 1213.39 230.067C1213.87 229.99 1214.36 229.917 1214.84 229.835C1216.8 229.509 1218.73 229.164 1220.64 228.801L1221.78 228.573C1223.41 228.253 1225.02 227.915 1226.6 227.56C1227.02 227.465 1227.45 227.375 1227.88 227.277C1229.69 226.864 1231.47 226.435 1233.19 225.989C1233.58 225.89 1233.96 225.783 1234.34 225.68C1235.81 225.28 1237.24 224.872 1238.64 224.452L1239.72 224.125C1241.34 223.625 1242.9 223.104 1244.42 222.563L1245.48 222.172C1246.77 221.697 1248.03 221.206 1249.25 220.7L1250.07 220.365C1251.45 219.772 1252.77 219.163 1254.04 218.536L1254.93 218.072C1256.03 217.505 1257.08 216.926 1258.09 216.333C1258.27 216.226 1258.46 216.123 1258.63 216.016C1259.74 215.333 1260.78 214.633 1261.74 213.916C1261.84 213.839 1261.97 213.77 1262.07 213.693V259.655V259.655Z" fill="#231F20"/>
<path d="M153.84 357.42C152.953 357.42 152.16 357.28 151.46 357C150.76 356.743 150.165 356.382 149.675 355.915C149.185 355.425 148.8 354.865 148.52 354.235C148.263 353.605 148.135 352.917 148.135 352.17C148.135 351.19 148.345 350.338 148.765 349.615C149.185 348.868 149.85 348.238 150.76 347.725C151.693 347.212 152.883 346.803 154.33 346.5C155.777 346.173 157.527 345.952 159.58 345.835C159.487 345.042 159.137 344.423 158.53 343.98C157.947 343.537 157.06 343.315 155.87 343.315C155.03 343.315 154.178 343.467 153.315 343.77C152.475 344.05 151.565 344.435 150.585 344.925L148.765 341.565C149.955 340.888 151.227 340.328 152.58 339.885C153.957 339.442 155.392 339.22 156.885 339.22C159.312 339.22 161.225 339.862 162.625 341.145C164.025 342.428 164.725 344.4 164.725 347.06V357H160.525L160.14 355.04H160C159.113 355.717 158.145 356.288 157.095 356.755C156.045 357.198 154.96 357.42 153.84 357.42ZM155.485 353.43C156.255 353.43 156.978 353.278 157.655 352.975C158.332 352.648 158.973 352.252 159.58 351.785V348.915C158.297 348.985 157.235 349.102 156.395 349.265C155.555 349.428 154.89 349.638 154.4 349.895C153.91 350.128 153.56 350.408 153.35 350.735C153.163 351.062 153.07 351.412 153.07 351.785C153.07 352.345 153.28 352.765 153.7 353.045C154.143 353.302 154.738 353.43 155.485 353.43ZM171.046 357V339.64H175.246L175.666 343.42H175.771C176.635 341.997 177.673 340.947 178.886 340.27C180.1 339.57 181.406 339.22 182.806 339.22C183.576 339.22 184.195 339.278 184.661 339.395C185.151 339.512 185.653 339.687 186.166 339.92L185.116 344.225C184.58 344.062 184.09 343.945 183.646 343.875C183.226 343.782 182.69 343.735 182.036 343.735C180.963 343.735 179.901 344.05 178.851 344.68C177.825 345.31 176.938 346.407 176.191 347.97V357H171.046ZM199.978 357.42C198.601 357.42 197.329 357.222 196.163 356.825C194.996 356.405 193.969 355.81 193.083 355.04C192.219 354.27 191.543 353.325 191.053 352.205C190.563 351.062 190.318 349.767 190.318 348.32C190.318 346.873 190.586 345.59 191.123 344.47C191.683 343.327 192.418 342.37 193.328 341.6C194.261 340.83 195.334 340.247 196.548 339.85C197.761 339.43 199.033 339.22 200.363 339.22C201.739 339.22 202.976 339.442 204.073 339.885C205.193 340.328 206.126 340.888 206.873 341.565L204.493 344.75C203.209 343.84 201.926 343.385 200.643 343.385C199.149 343.385 197.936 343.828 197.003 344.715C196.069 345.602 195.603 346.803 195.603 348.32C195.603 349.837 196.046 351.038 196.933 351.925C197.843 352.812 199.021 353.255 200.468 353.255C201.378 353.255 202.206 353.092 202.953 352.765C203.723 352.438 204.423 352.053 205.053 351.61L207.118 354.865C206.068 355.752 204.913 356.405 203.653 356.825C202.393 357.222 201.168 357.42 199.978 357.42ZM211.479 357V332.465H216.624V338.485L216.344 341.81H216.449C217.102 341.133 217.896 340.538 218.829 340.025C219.762 339.488 220.894 339.22 222.224 339.22C224.184 339.22 225.607 339.85 226.494 341.11C227.404 342.37 227.859 344.097 227.859 346.29V357H222.714V346.955C222.714 345.788 222.527 344.937 222.154 344.4C221.781 343.863 221.116 343.595 220.159 343.595C219.459 343.595 218.841 343.747 218.304 344.05C217.791 344.353 217.231 344.808 216.624 345.415V357H211.479ZM239.675 357V343.665H232.71V339.64H244.82V357H239.675ZM242.02 336.91C241.017 336.91 240.189 336.63 239.535 336.07C238.905 335.51 238.59 334.752 238.59 333.795C238.59 332.838 238.905 332.068 239.535 331.485C240.189 330.878 241.017 330.575 242.02 330.575C243.024 330.575 243.84 330.878 244.47 331.485C245.124 332.068 245.45 332.838 245.45 333.795C245.45 334.752 245.124 335.51 244.47 336.07C243.84 336.63 243.024 336.91 242.02 336.91ZM258.562 357L252.017 339.64H257.197L259.927 347.83C260.207 348.717 260.475 349.603 260.732 350.49C260.988 351.377 261.245 352.275 261.502 353.185H261.642C261.898 352.275 262.143 351.377 262.377 350.49C262.633 349.603 262.902 348.717 263.182 347.83L265.912 339.64H270.847L264.477 357H258.562ZM282.418 357.42C281.275 357.42 280.166 357.222 279.093 356.825C278.043 356.405 277.098 355.81 276.258 355.04C275.441 354.27 274.788 353.325 274.298 352.205C273.808 351.062 273.563 349.767 273.563 348.32C273.563 346.873 273.808 345.59 274.298 344.47C274.788 343.327 275.441 342.37 276.258 341.6C277.098 340.83 278.043 340.247 279.093 339.85C280.166 339.43 281.275 339.22 282.418 339.22C283.561 339.22 284.658 339.43 285.708 339.85C286.781 340.247 287.726 340.83 288.543 341.6C289.383 342.37 290.048 343.327 290.538 344.47C291.028 345.59 291.273 346.873 291.273 348.32C291.273 349.767 291.028 351.062 290.538 352.205C290.048 353.325 289.383 354.27 288.543 355.04C287.726 355.81 286.781 356.405 285.708 356.825C284.658 357.222 283.561 357.42 282.418 357.42ZM282.418 353.255C283.608 353.255 284.495 352.812 285.078 351.925C285.685 351.038 285.988 349.837 285.988 348.32C285.988 346.803 285.685 345.602 285.078 344.715C284.495 343.828 283.608 343.385 282.418 343.385C281.228 343.385 280.33 343.828 279.723 344.715C279.14 345.602 278.848 346.803 278.848 348.32C278.848 349.837 279.14 351.038 279.723 351.925C280.33 352.812 281.228 353.255 282.418 353.255ZM303.404 357.42C302.191 357.42 301.211 357.035 300.464 356.265C299.718 355.472 299.344 354.492 299.344 353.325C299.344 352.742 299.438 352.205 299.624 351.715C299.834 351.202 300.114 350.758 300.464 350.385C300.814 350.012 301.234 349.72 301.724 349.51C302.238 349.3 302.798 349.195 303.404 349.195C304.011 349.195 304.559 349.3 305.049 349.51C305.563 349.72 305.994 350.012 306.344 350.385C306.694 350.758 306.963 351.202 307.149 351.715C307.359 352.205 307.464 352.742 307.464 353.325C307.464 354.492 307.091 355.472 306.344 356.265C305.598 357.035 304.618 357.42 303.404 357.42ZM327.471 357.42C326.094 357.42 324.927 357.233 323.971 356.86C323.014 356.487 322.232 355.973 321.626 355.32C321.042 354.643 320.622 353.838 320.366 352.905C320.109 351.972 319.981 350.933 319.981 349.79V343.665H315.606V339.85L320.226 339.64L320.891 334.32H325.126V339.64H332.476V343.665H325.126V349.755C325.126 351.085 325.417 352.03 326.001 352.59C326.584 353.127 327.517 353.395 328.801 353.395C329.454 353.395 330.049 353.337 330.586 353.22C331.146 353.103 331.694 352.952 332.231 352.765L333.141 356.475C332.371 356.708 331.519 356.918 330.586 357.105C329.676 357.315 328.637 357.42 327.471 357.42ZM336.172 357L342.192 347.97L336.557 339.64H342.087L343.872 342.44C344.129 342.93 344.42 343.432 344.747 343.945C345.074 344.435 345.389 344.925 345.692 345.415H345.832C346.065 344.925 346.299 344.423 346.532 343.91C346.789 343.397 347.034 342.907 347.267 342.44L348.807 339.64H354.197L348.527 348.565L354.547 357H349.017L347.022 354.13C346.695 353.64 346.357 353.138 346.007 352.625C345.68 352.112 345.354 351.61 345.027 351.12H344.887C344.63 351.61 344.362 352.112 344.082 352.625C343.802 353.115 343.534 353.617 343.277 354.13L341.562 357H336.172ZM369.443 357.42C368.067 357.42 366.9 357.233 365.943 356.86C364.987 356.487 364.205 355.973 363.598 355.32C363.015 354.643 362.595 353.838 362.338 352.905C362.082 351.972 361.953 350.933 361.953 349.79V343.665H357.578V339.85L362.198 339.64L362.863 334.32H367.098V339.64H374.448V343.665H367.098V349.755C367.098 351.085 367.39 352.03 367.973 352.59C368.557 353.127 369.49 353.395 370.773 353.395C371.427 353.395 372.022 353.337 372.558 353.22C373.118 353.103 373.667 352.952 374.203 352.765L375.113 356.475C374.343 356.708 373.492 356.918 372.558 357.105C371.648 357.315 370.61 357.42 369.443 357.42Z" fill="black"/>
<path d="M661.45 357V334.18H669.535C670.748 334.18 671.88 334.297 672.93 334.53C674.003 334.763 674.937 335.16 675.73 335.72C676.547 336.257 677.188 336.98 677.655 337.89C678.122 338.8 678.355 339.932 678.355 341.285C678.355 342.965 677.982 344.353 677.235 345.45C676.488 346.523 675.508 347.328 674.295 347.865L679.44 357H673.665L669.29 348.775H666.595V357H661.45ZM666.595 344.68H669.115C671.892 344.68 673.28 343.548 673.28 341.285C673.28 340.165 672.93 339.383 672.23 338.94C671.53 338.497 670.492 338.275 669.115 338.275H666.595V344.68ZM688.526 345.45L688.001 347.55H692.796L692.271 345.45C691.968 344.307 691.653 343.105 691.326 341.845C691 340.562 690.708 339.313 690.451 338.1H690.311C690.031 339.313 689.74 340.562 689.436 341.845C689.133 343.105 688.83 344.307 688.526 345.45ZM680.301 357L687.406 334.18H693.566L700.671 357H695.211L693.846 351.575H686.951L685.551 357H680.301ZM703.003 357V334.18H708.393L710.633 342.265L711.403 345.415H711.543L712.313 342.265L714.553 334.18H719.943V357H715.603V349.93C715.603 349.3 715.626 348.507 715.673 347.55C715.719 346.593 715.778 345.613 715.848 344.61C715.918 343.607 715.988 342.638 716.058 341.705C716.151 340.748 716.221 339.967 716.268 339.36H716.163L714.413 345.45L712.663 350.945H710.143L708.358 345.45L706.713 339.36H706.608C706.678 339.967 706.748 340.748 706.818 341.705C706.888 342.638 706.958 343.607 707.028 344.61C707.098 345.613 707.156 346.593 707.203 347.55C707.249 348.507 707.273 349.3 707.273 349.93V357H703.003Z" fill="black"/>
<path d="M1065.45 357V334.18H1073.54C1074.75 334.18 1075.88 334.297 1076.93 334.53C1078 334.763 1078.94 335.16 1079.73 335.72C1080.55 336.257 1081.19 336.98 1081.66 337.89C1082.12 338.8 1082.36 339.932 1082.36 341.285C1082.36 342.965 1081.98 344.353 1081.24 345.45C1080.49 346.523 1079.51 347.328 1078.3 347.865L1083.44 357H1077.67L1073.29 348.775H1070.6V357H1065.45ZM1070.6 344.68H1073.12C1075.89 344.68 1077.28 343.548 1077.28 341.285C1077.28 340.165 1076.93 339.383 1076.23 338.94C1075.53 338.497 1074.49 338.275 1073.12 338.275H1070.6V344.68ZM1095.54 357.42C1094.18 357.42 1092.91 357.222 1091.72 356.825C1090.55 356.405 1089.54 355.81 1088.68 355.04C1087.81 354.27 1087.14 353.325 1086.65 352.205C1086.16 351.062 1085.91 349.767 1085.91 348.32C1085.91 346.897 1086.16 345.625 1086.65 344.505C1087.16 343.362 1087.84 342.405 1088.68 341.635C1089.52 340.842 1090.47 340.247 1091.55 339.85C1092.64 339.43 1093.77 339.22 1094.94 339.22C1096.27 339.22 1097.45 339.43 1098.48 339.85C1099.5 340.27 1100.35 340.853 1101.03 341.6C1101.73 342.347 1102.26 343.233 1102.61 344.26C1102.96 345.263 1103.13 346.36 1103.13 347.55C1103.13 348.017 1103.1 348.472 1103.03 348.915C1102.98 349.335 1102.93 349.65 1102.89 349.86H1091.06C1091.31 351.12 1091.88 352.042 1092.77 352.625C1093.66 353.208 1094.81 353.5 1096.24 353.5C1097.03 353.5 1097.78 353.395 1098.48 353.185C1099.2 352.975 1099.95 352.672 1100.72 352.275L1102.43 355.39C1101.43 356.02 1100.32 356.522 1099.11 356.895C1097.89 357.245 1096.7 357.42 1095.54 357.42ZM1095.12 343.14C1094.09 343.14 1093.23 343.408 1092.53 343.945C1091.85 344.482 1091.38 345.298 1091.13 346.395H1098.55C1098.29 344.225 1097.15 343.14 1095.12 343.14ZM1107.49 363.44V339.64H1111.69L1112.08 341.39H1112.18C1112.88 340.76 1113.69 340.247 1114.6 339.85C1115.51 339.43 1116.43 339.22 1117.36 339.22C1118.44 339.22 1119.4 339.43 1120.27 339.85C1121.13 340.27 1121.87 340.865 1122.47 341.635C1123.08 342.405 1123.53 343.338 1123.84 344.435C1124.16 345.508 1124.33 346.71 1124.33 348.04C1124.33 349.533 1124.12 350.863 1123.7 352.03C1123.28 353.173 1122.72 354.153 1122.02 354.97C1121.32 355.763 1120.51 356.37 1119.6 356.79C1118.72 357.21 1117.78 357.42 1116.8 357.42C1115.22 357.42 1113.79 356.79 1112.53 355.53H1112.39L1112.64 358.365V363.44H1107.49ZM1115.61 353.22C1116.59 353.22 1117.41 352.823 1118.06 352.03C1118.72 351.213 1119.04 349.907 1119.04 348.11C1119.04 344.983 1117.98 343.42 1115.86 343.42C1114.76 343.42 1113.69 343.957 1112.64 345.03V352.065C1113.13 352.485 1113.63 352.788 1114.14 352.975C1114.68 353.138 1115.17 353.22 1115.61 353.22ZM1136.46 357.42C1135.32 357.42 1134.21 357.222 1133.13 356.825C1132.08 356.405 1131.14 355.81 1130.3 355.04C1129.48 354.27 1128.83 353.325 1128.34 352.205C1127.85 351.062 1127.6 349.767 1127.6 348.32C1127.6 346.873 1127.85 345.59 1128.34 344.47C1128.83 343.327 1129.48 342.37 1130.3 341.6C1131.14 340.83 1132.08 340.247 1133.13 339.85C1134.21 339.43 1135.32 339.22 1136.46 339.22C1137.6 339.22 1138.7 339.43 1139.75 339.85C1140.82 340.247 1141.77 340.83 1142.58 341.6C1143.42 342.37 1144.09 343.327 1144.58 344.47C1145.07 345.59 1145.31 346.873 1145.31 348.32C1145.31 349.767 1145.07 351.062 1144.58 352.205C1144.09 353.325 1143.42 354.27 1142.58 355.04C1141.77 355.81 1140.82 356.405 1139.75 356.825C1138.7 357.222 1137.6 357.42 1136.46 357.42ZM1136.46 353.255C1137.65 353.255 1138.54 352.812 1139.12 351.925C1139.73 351.038 1140.03 349.837 1140.03 348.32C1140.03 346.803 1139.73 345.602 1139.12 344.715C1138.54 343.828 1137.65 343.385 1136.46 343.385C1135.27 343.385 1134.37 343.828 1133.76 344.715C1133.18 345.602 1132.89 346.803 1132.89 348.32C1132.89 349.837 1133.18 351.038 1133.76 351.925C1134.37 352.812 1135.27 353.255 1136.46 353.255ZM1157.31 357.42C1155.74 357.42 1154.21 357.163 1152.72 356.65C1151.23 356.137 1149.92 355.507 1148.8 354.76L1151.01 351.54C1152.08 352.217 1153.2 352.73 1154.37 353.08C1155.53 353.43 1156.75 353.605 1158.01 353.605C1158.96 353.605 1159.66 353.465 1160.11 353.185C1160.55 352.905 1160.77 352.555 1160.77 352.135C1160.77 351.902 1160.7 351.692 1160.56 351.505C1160.44 351.318 1160.22 351.155 1159.9 351.015C1159.59 350.852 1159.16 350.7 1158.6 350.56C1158.04 350.42 1157.34 350.257 1156.5 350.07C1154.14 349.557 1152.45 348.868 1151.43 348.005C1150.4 347.118 1149.89 345.998 1149.89 344.645C1149.89 343.852 1150.07 343.117 1150.45 342.44C1150.82 341.763 1151.34 341.192 1152.02 340.725C1152.72 340.258 1153.56 339.897 1154.54 339.64C1155.52 339.36 1156.63 339.22 1157.87 339.22C1159.43 339.22 1160.84 339.477 1162.1 339.99C1163.38 340.48 1164.48 341.017 1165.39 341.6L1163.08 344.68C1162.19 344.143 1161.27 343.735 1160.32 343.455C1159.36 343.175 1158.39 343.035 1157.41 343.035C1156.59 343.035 1155.99 343.163 1155.59 343.42C1155.19 343.677 1155 344.003 1155 344.4C1155 344.89 1155.3 345.24 1155.91 345.45C1156.51 345.66 1157.55 345.928 1159.02 346.255C1160.35 346.558 1161.46 346.885 1162.35 347.235C1163.23 347.585 1163.93 347.982 1164.45 348.425C1164.96 348.868 1165.32 349.37 1165.53 349.93C1165.74 350.49 1165.85 351.12 1165.85 351.82C1165.85 352.613 1165.66 353.348 1165.29 354.025C1164.91 354.702 1164.36 355.297 1163.64 355.81C1162.94 356.3 1162.05 356.697 1160.98 357C1159.93 357.28 1158.71 357.42 1157.31 357.42ZM1177.66 357V343.665H1170.7V339.64H1182.81V357H1177.66ZM1180.01 336.91C1179 336.91 1178.17 336.63 1177.52 336.07C1176.89 335.51 1176.58 334.752 1176.58 333.795C1176.58 332.838 1176.89 332.068 1177.52 331.485C1178.17 330.878 1179 330.575 1180.01 330.575C1181.01 330.575 1181.83 330.878 1182.46 331.485C1183.11 332.068 1183.44 332.838 1183.44 333.795C1183.44 334.752 1183.11 335.51 1182.46 336.07C1181.83 336.63 1181.01 336.91 1180.01 336.91ZM1202.5 357.42C1201.12 357.42 1199.95 357.233 1199 356.86C1198.04 356.487 1197.26 355.973 1196.65 355.32C1196.07 354.643 1195.65 353.838 1195.39 352.905C1195.14 351.972 1195.01 350.933 1195.01 349.79V343.665H1190.63V339.85L1195.25 339.64L1195.92 334.32H1200.15V339.64H1207.5V343.665H1200.15V349.755C1200.15 351.085 1200.44 352.03 1201.03 352.59C1201.61 353.127 1202.54 353.395 1203.83 353.395C1204.48 353.395 1205.08 353.337 1205.61 353.22C1206.17 353.103 1206.72 352.952 1207.26 352.765L1208.17 356.475C1207.4 356.708 1206.55 356.918 1205.61 357.105C1204.7 357.315 1203.66 357.42 1202.5 357.42ZM1220.4 357.42C1219.26 357.42 1218.15 357.222 1217.08 356.825C1216.03 356.405 1215.08 355.81 1214.24 355.04C1213.43 354.27 1212.77 353.325 1212.28 352.205C1211.79 351.062 1211.55 349.767 1211.55 348.32C1211.55 346.873 1211.79 345.59 1212.28 344.47C1212.77 343.327 1213.43 342.37 1214.24 341.6C1215.08 340.83 1216.03 340.247 1217.08 339.85C1218.15 339.43 1219.26 339.22 1220.4 339.22C1221.55 339.22 1222.64 339.43 1223.69 339.85C1224.77 340.247 1225.71 340.83 1226.53 341.6C1227.37 342.37 1228.03 343.327 1228.52 344.47C1229.01 345.59 1229.26 346.873 1229.26 348.32C1229.26 349.767 1229.01 351.062 1228.52 352.205C1228.03 353.325 1227.37 354.27 1226.53 355.04C1225.71 355.81 1224.77 356.405 1223.69 356.825C1222.64 357.222 1221.55 357.42 1220.4 357.42ZM1220.4 353.255C1221.59 353.255 1222.48 352.812 1223.06 351.925C1223.67 351.038 1223.97 349.837 1223.97 348.32C1223.97 346.803 1223.67 345.602 1223.06 344.715C1222.48 343.828 1221.59 343.385 1220.4 343.385C1219.21 343.385 1218.32 343.828 1217.71 344.715C1217.13 345.602 1216.83 346.803 1216.83 348.32C1216.83 349.837 1217.13 351.038 1217.71 351.925C1218.32 352.812 1219.21 353.255 1220.4 353.255ZM1234.95 357V339.64H1239.15L1239.57 343.42H1239.68C1240.54 341.997 1241.58 340.947 1242.79 340.27C1244 339.57 1245.31 339.22 1246.71 339.22C1247.48 339.22 1248.1 339.278 1248.57 339.395C1249.06 339.512 1249.56 339.687 1250.07 339.92L1249.02 344.225C1248.48 344.062 1247.99 343.945 1247.55 343.875C1247.13 343.782 1246.59 343.735 1245.94 343.735C1244.87 343.735 1243.81 344.05 1242.76 344.68C1241.73 345.31 1240.84 346.407 1240.1 347.97V357H1234.95ZM1261.61 357V343.665H1254.64V339.64H1266.75V357H1261.61ZM1263.95 336.91C1262.95 336.91 1262.12 336.63 1261.47 336.07C1260.84 335.51 1260.52 334.752 1260.52 333.795C1260.52 332.838 1260.84 332.068 1261.47 331.485C1262.12 330.878 1262.95 330.575 1263.95 330.575C1264.96 330.575 1265.77 330.878 1266.4 331.485C1267.06 332.068 1267.38 332.838 1267.38 333.795C1267.38 334.752 1267.06 335.51 1266.4 336.07C1265.77 336.63 1264.96 336.91 1263.95 336.91ZM1283.36 357.42C1282.22 357.42 1281.11 357.222 1280.04 356.825C1278.99 356.405 1278.04 355.81 1277.2 355.04C1276.39 354.27 1275.73 353.325 1275.24 352.205C1274.75 351.062 1274.51 349.767 1274.51 348.32C1274.51 346.873 1274.75 345.59 1275.24 344.47C1275.73 343.327 1276.39 342.37 1277.2 341.6C1278.04 340.83 1278.99 340.247 1280.04 339.85C1281.11 339.43 1282.22 339.22 1283.36 339.22C1284.51 339.22 1285.6 339.43 1286.65 339.85C1287.73 340.247 1288.67 340.83 1289.49 341.6C1290.33 342.37 1290.99 343.327 1291.48 344.47C1291.97 345.59 1292.22 346.873 1292.22 348.32C1292.22 349.767 1291.97 351.062 1291.48 352.205C1290.99 353.325 1290.33 354.27 1289.49 355.04C1288.67 355.81 1287.73 356.405 1286.65 356.825C1285.6 357.222 1284.51 357.42 1283.36 357.42ZM1283.36 353.255C1284.55 353.255 1285.44 352.812 1286.02 351.925C1286.63 351.038 1286.93 349.837 1286.93 348.32C1286.93 346.803 1286.63 345.602 1286.02 344.715C1285.44 343.828 1284.55 343.385 1283.36 343.385C1282.17 343.385 1281.27 343.828 1280.67 344.715C1280.08 345.602 1279.79 346.803 1279.79 348.32C1279.79 349.837 1280.08 351.038 1280.67 351.925C1281.27 352.812 1282.17 353.255 1283.36 353.255Z" fill="black"/>
<path d="M153.184 391L151.096 375.352H154.768L155.248 383.68C155.264 384.352 155.272 385 155.272 385.624C155.288 386.232 155.304 386.896 155.32 387.616H155.416C155.528 386.896 155.648 386.232 155.776 385.624C155.92 385 156.056 384.352 156.184 383.68L157.24 379.312H159.496L160.48 383.68C160.608 384.336 160.736 384.976 160.864 385.6C160.992 386.224 161.12 386.896 161.248 387.616H161.344C161.36 386.896 161.368 386.224 161.368 385.6C161.384 384.976 161.408 384.336 161.44 383.68L161.872 375.352H165.304L163.384 391H159.592L158.68 386.152C158.584 385.656 158.496 385.152 158.416 384.64C158.336 384.128 158.28 383.64 158.248 383.176H158.176C158.128 383.64 158.072 384.128 158.008 384.64C157.944 385.152 157.864 385.656 157.768 386.152L156.856 391H153.184ZM172.591 391.288C171.807 391.288 171.047 391.152 170.311 390.88C169.591 390.592 168.943 390.184 168.367 389.656C167.807 389.128 167.359 388.48 167.023 387.712C166.687 386.928 166.519 386.04 166.519 385.048C166.519 384.056 166.687 383.176 167.023 382.408C167.359 381.624 167.807 380.968 168.367 380.44C168.943 379.912 169.591 379.512 170.311 379.24C171.047 378.952 171.807 378.808 172.591 378.808C173.375 378.808 174.127 378.952 174.847 379.24C175.583 379.512 176.231 379.912 176.791 380.44C177.367 380.968 177.823 381.624 178.159 382.408C178.495 383.176 178.663 384.056 178.663 385.048C178.663 386.04 178.495 386.928 178.159 387.712C177.823 388.48 177.367 389.128 176.791 389.656C176.231 390.184 175.583 390.592 174.847 390.88C174.127 391.152 173.375 391.288 172.591 391.288ZM172.591 388.432C173.407 388.432 174.015 388.128 174.415 387.52C174.831 386.912 175.039 386.088 175.039 385.048C175.039 384.008 174.831 383.184 174.415 382.576C174.015 381.968 173.407 381.664 172.591 381.664C171.775 381.664 171.159 381.968 170.743 382.576C170.343 383.184 170.143 384.008 170.143 385.048C170.143 386.088 170.343 386.912 170.743 387.52C171.159 388.128 171.775 388.432 172.591 388.432ZM182.565 391V379.096H185.445L185.733 381.688H185.805C186.397 380.712 187.109 379.992 187.941 379.528C188.773 379.048 189.669 378.808 190.629 378.808C191.157 378.808 191.581 378.848 191.901 378.928C192.237 379.008 192.581 379.128 192.933 379.288L192.213 382.24C191.845 382.128 191.509 382.048 191.205 382C190.917 381.936 190.549 381.904 190.101 381.904C189.365 381.904 188.637 382.12 187.917 382.552C187.213 382.984 186.605 383.736 186.093 384.808V391H182.565ZM195.996 391V374.176H199.524V383.896H199.62L203.988 379.096H207.852L203.316 383.944L208.212 391H204.396L201.276 386.128L199.524 388V391H195.996ZM215.235 391V381.856H210.459V379.096H218.763V391H215.235ZM216.843 377.224C216.155 377.224 215.587 377.032 215.139 376.648C214.707 376.264 214.491 375.744 214.491 375.088C214.491 374.432 214.707 373.904 215.139 373.504C215.587 373.088 216.155 372.88 216.843 372.88C217.531 372.88 218.091 373.088 218.523 373.504C218.971 373.904 219.195 374.432 219.195 375.088C219.195 375.744 218.971 376.264 218.523 376.648C218.091 377.032 217.531 377.224 216.843 377.224ZM224.681 391V379.096H227.561L227.825 380.68H227.921C228.433 380.168 229.017 379.728 229.673 379.36C230.345 378.992 231.129 378.808 232.025 378.808C233.369 378.808 234.353 379.24 234.977 380.104C235.601 380.968 235.913 382.152 235.913 383.656V391H232.385V384.112C232.385 383.312 232.257 382.728 232.001 382.36C231.745 381.992 231.289 381.808 230.633 381.808C230.153 381.808 229.729 381.912 229.361 382.12C229.009 382.328 228.625 382.64 228.209 383.056V391H224.681ZM243.992 396.064C243.224 396.064 242.504 396 241.832 395.872C241.176 395.76 240.608 395.576 240.128 395.32C239.648 395.08 239.272 394.768 239 394.384C238.728 394 238.592 393.544 238.592 393.016C238.592 392.04 239.208 391.248 240.44 390.64V390.544C240.104 390.336 239.816 390.072 239.576 389.752C239.352 389.432 239.24 389.016 239.24 388.504C239.24 388.104 239.368 387.704 239.624 387.304C239.896 386.904 240.24 386.56 240.656 386.272V386.176C240.224 385.888 239.856 385.488 239.552 384.976C239.248 384.448 239.096 383.832 239.096 383.128C239.096 382.408 239.232 381.784 239.504 381.256C239.792 380.712 240.168 380.264 240.632 379.912C241.096 379.544 241.632 379.272 242.24 379.096C242.864 378.904 243.512 378.808 244.184 378.808C244.92 378.808 245.576 378.904 246.152 379.096H250.976V381.688H248.576C248.704 381.864 248.824 382.096 248.936 382.384C249.048 382.656 249.104 382.944 249.104 383.248C249.104 383.936 248.976 384.528 248.72 385.024C248.464 385.52 248.112 385.936 247.664 386.272C247.232 386.592 246.712 386.832 246.104 386.992C245.512 387.152 244.872 387.232 244.184 387.232C243.672 387.232 243.128 387.152 242.552 386.992C242.376 387.12 242.24 387.248 242.144 387.376C242.064 387.504 242.024 387.672 242.024 387.88C242.024 388.2 242.184 388.432 242.504 388.576C242.824 388.704 243.336 388.768 244.04 388.768H246.248C247.816 388.768 249.008 389 249.824 389.464C250.656 389.928 251.072 390.696 251.072 391.768C251.072 392.392 250.904 392.968 250.568 393.496C250.232 394.024 249.76 394.472 249.152 394.84C248.544 395.224 247.8 395.52 246.92 395.728C246.04 395.952 245.064 396.064 243.992 396.064ZM244.184 385.096C244.68 385.096 245.104 384.936 245.456 384.616C245.808 384.28 245.984 383.784 245.984 383.128C245.984 382.504 245.808 382.024 245.456 381.688C245.104 381.352 244.68 381.184 244.184 381.184C243.688 381.184 243.264 381.352 242.912 381.688C242.576 382.024 242.408 382.504 242.408 383.128C242.408 383.784 242.576 384.28 242.912 384.616C243.264 384.936 243.688 385.096 244.184 385.096ZM244.496 393.832C245.456 393.832 246.232 393.696 246.824 393.424C247.416 393.152 247.712 392.808 247.712 392.392C247.712 392.008 247.536 391.76 247.184 391.648C246.832 391.536 246.312 391.48 245.624 391.48H244.136C243.704 391.48 243.344 391.464 243.056 391.432C242.784 391.416 242.536 391.376 242.312 391.312C242.008 391.504 241.792 391.688 241.664 391.864C241.536 392.056 241.472 392.264 241.472 392.488C241.472 392.936 241.736 393.272 242.264 393.496C242.808 393.72 243.552 393.832 244.496 393.832ZM267.805 391V375.352H272.125C273.261 375.352 274.293 375.504 275.221 375.808C276.149 376.112 276.941 376.584 277.597 377.224C278.253 377.848 278.757 378.648 279.109 379.624C279.477 380.6 279.661 381.76 279.661 383.104C279.661 384.448 279.485 385.616 279.133 386.608C278.781 387.6 278.277 388.424 277.621 389.08C276.981 389.72 276.213 390.2 275.317 390.52C274.421 390.84 273.429 391 272.341 391H267.805ZM271.357 388.144H271.933C272.541 388.144 273.093 388.056 273.589 387.88C274.101 387.704 274.533 387.424 274.885 387.04C275.253 386.64 275.533 386.12 275.725 385.48C275.933 384.84 276.037 384.048 276.037 383.104C276.037 382.176 275.933 381.4 275.725 380.776C275.533 380.136 275.253 379.632 274.885 379.264C274.533 378.88 274.101 378.608 273.589 378.448C273.093 378.288 272.541 378.208 271.933 378.208H271.357V388.144ZM287.188 391V381.856H282.412V379.096H290.716V391H287.188ZM288.796 377.224C288.108 377.224 287.54 377.032 287.092 376.648C286.66 376.264 286.444 375.744 286.444 375.088C286.444 374.432 286.66 373.904 287.092 373.504C287.54 373.088 288.108 372.88 288.796 372.88C289.484 372.88 290.044 373.088 290.476 373.504C290.924 373.904 291.148 374.432 291.148 375.088C291.148 375.744 290.924 376.264 290.476 376.648C290.044 377.032 289.484 377.224 288.796 377.224ZM297.69 391V379.096H300.57L300.858 381.688H300.93C301.522 380.712 302.234 379.992 303.066 379.528C303.898 379.048 304.794 378.808 305.754 378.808C306.282 378.808 306.706 378.848 307.026 378.928C307.362 379.008 307.706 379.128 308.058 379.288L307.338 382.24C306.97 382.128 306.634 382.048 306.33 382C306.042 381.936 305.674 381.904 305.226 381.904C304.49 381.904 303.762 382.12 303.042 382.552C302.338 382.984 301.73 383.736 301.218 384.808V391H297.69ZM317.217 391.288C316.289 391.288 315.417 391.152 314.601 390.88C313.801 390.592 313.105 390.184 312.513 389.656C311.921 389.128 311.457 388.48 311.121 387.712C310.785 386.928 310.617 386.04 310.617 385.048C310.617 384.072 310.785 383.2 311.121 382.432C311.473 381.648 311.937 380.992 312.513 380.464C313.089 379.92 313.745 379.512 314.481 379.24C315.233 378.952 316.009 378.808 316.809 378.808C317.721 378.808 318.529 378.952 319.233 379.24C319.937 379.528 320.521 379.928 320.985 380.44C321.465 380.952 321.825 381.56 322.065 382.264C322.305 382.952 322.425 383.704 322.425 384.52C322.425 384.84 322.401 385.152 322.353 385.456C322.321 385.744 322.289 385.96 322.257 386.104H314.145C314.321 386.968 314.713 387.6 315.321 388C315.929 388.4 316.721 388.6 317.697 388.6C318.241 388.6 318.753 388.528 319.233 388.384C319.729 388.24 320.241 388.032 320.769 387.76L321.945 389.896C321.257 390.328 320.497 390.672 319.665 390.928C318.833 391.168 318.017 391.288 317.217 391.288ZM316.929 381.496C316.225 381.496 315.633 381.68 315.153 382.048C314.689 382.416 314.369 382.976 314.193 383.728H319.281C319.105 382.24 318.321 381.496 316.929 381.496ZM331.92 391.288C330.976 391.288 330.104 391.152 329.304 390.88C328.504 390.592 327.8 390.184 327.192 389.656C326.6 389.128 326.136 388.48 325.8 387.712C325.464 386.928 325.296 386.04 325.296 385.048C325.296 384.056 325.48 383.176 325.848 382.408C326.232 381.624 326.736 380.968 327.36 380.44C328 379.912 328.736 379.512 329.568 379.24C330.4 378.952 331.272 378.808 332.184 378.808C333.128 378.808 333.976 378.96 334.728 379.264C335.496 379.568 336.136 379.952 336.648 380.416L335.016 382.6C334.136 381.976 333.256 381.664 332.376 381.664C331.352 381.664 330.52 381.968 329.88 382.576C329.24 383.184 328.92 384.008 328.92 385.048C328.92 386.088 329.224 386.912 329.832 387.52C330.456 388.128 331.264 388.432 332.256 388.432C332.88 388.432 333.448 388.32 333.96 388.096C334.488 387.872 334.968 387.608 335.4 387.304L336.816 389.536C336.096 390.144 335.304 390.592 334.44 390.88C333.576 391.152 332.736 391.288 331.92 391.288ZM347.39 391.288C346.446 391.288 345.646 391.16 344.99 390.904C344.334 390.648 343.798 390.296 343.382 389.848C342.982 389.384 342.694 388.832 342.518 388.192C342.342 387.552 342.254 386.84 342.254 386.056V381.856H339.254V379.24L342.422 379.096L342.878 375.448H345.782V379.096H350.822V381.856H345.782V386.032C345.782 386.944 345.982 387.592 346.382 387.976C346.782 388.344 347.422 388.528 348.302 388.528C348.75 388.528 349.158 388.488 349.526 388.408C349.91 388.328 350.286 388.224 350.654 388.096L351.278 390.64C350.75 390.8 350.166 390.944 349.526 391.072C348.902 391.216 348.19 391.288 347.39 391.288ZM359.669 391.288C358.885 391.288 358.125 391.152 357.389 390.88C356.669 390.592 356.021 390.184 355.445 389.656C354.885 389.128 354.437 388.48 354.101 387.712C353.765 386.928 353.597 386.04 353.597 385.048C353.597 384.056 353.765 383.176 354.101 382.408C354.437 381.624 354.885 380.968 355.445 380.44C356.021 379.912 356.669 379.512 357.389 379.24C358.125 378.952 358.885 378.808 359.669 378.808C360.453 378.808 361.205 378.952 361.925 379.24C362.661 379.512 363.309 379.912 363.869 380.44C364.445 380.968 364.901 381.624 365.237 382.408C365.573 383.176 365.741 384.056 365.741 385.048C365.741 386.04 365.573 386.928 365.237 387.712C364.901 388.48 364.445 389.128 363.869 389.656C363.309 390.184 362.661 390.592 361.925 390.88C361.205 391.152 360.453 391.288 359.669 391.288ZM359.669 388.432C360.485 388.432 361.093 388.128 361.493 387.52C361.909 386.912 362.117 386.088 362.117 385.048C362.117 384.008 361.909 383.184 361.493 382.576C361.093 381.968 360.485 381.664 359.669 381.664C358.853 381.664 358.237 381.968 357.821 382.576C357.421 383.184 357.221 384.008 357.221 385.048C357.221 386.088 357.421 386.912 357.821 387.52C358.237 388.128 358.853 388.432 359.669 388.432ZM369.643 391V379.096H372.523L372.811 381.688H372.883C373.475 380.712 374.187 379.992 375.019 379.528C375.851 379.048 376.747 378.808 377.707 378.808C378.235 378.808 378.659 378.848 378.979 378.928C379.315 379.008 379.659 379.128 380.011 379.288L379.291 382.24C378.923 382.128 378.587 382.048 378.283 382C377.995 381.936 377.627 381.904 377.179 381.904C376.443 381.904 375.715 382.12 374.995 382.552C374.291 382.984 373.683 383.736 373.171 384.808V391H369.643ZM384.682 395.656C384.33 395.656 384.002 395.632 383.698 395.584C383.394 395.552 383.114 395.496 382.858 395.416L383.482 392.728C383.786 392.824 384.098 392.872 384.418 392.872C385.106 392.872 385.642 392.728 386.026 392.44C386.426 392.152 386.722 391.776 386.914 391.312L387.154 390.688L381.994 379.096H385.498L387.49 384.208C387.714 384.768 387.922 385.352 388.114 385.96C388.306 386.552 388.498 387.16 388.69 387.784H388.786C388.946 387.192 389.122 386.6 389.314 386.008C389.506 385.4 389.69 384.8 389.866 384.208L391.618 379.096H394.954L390.25 391.12C389.962 391.872 389.65 392.528 389.314 393.088C388.978 393.664 388.594 394.136 388.162 394.504C387.73 394.888 387.226 395.176 386.65 395.368C386.09 395.56 385.434 395.656 384.682 395.656Z" fill="black"/>
<path d="M611.152 391.288C610.096 391.288 609.048 391.104 608.008 390.736C606.984 390.352 606.048 389.784 605.2 389.032L607.24 386.608C607.832 387.088 608.48 387.48 609.184 387.784C609.888 388.088 610.624 388.24 611.392 388.24C612.16 388.24 612.72 388.112 613.072 387.856C613.424 387.6 613.6 387.272 613.6 386.872C613.6 386.6 613.544 386.376 613.432 386.2C613.32 386.008 613.16 385.84 612.952 385.696C612.744 385.552 612.488 385.416 612.184 385.288C611.88 385.16 611.544 385.016 611.176 384.856L609.16 383.992C608.728 383.832 608.304 383.624 607.888 383.368C607.488 383.112 607.136 382.816 606.832 382.48C606.528 382.128 606.28 381.728 606.088 381.28C605.912 380.816 605.824 380.296 605.824 379.72C605.824 379.08 605.96 378.48 606.232 377.92C606.52 377.344 606.912 376.848 607.408 376.432C607.92 376 608.528 375.664 609.232 375.424C609.936 375.184 610.712 375.064 611.56 375.064C612.52 375.064 613.448 375.24 614.344 375.592C615.24 375.944 616.048 376.456 616.768 377.128L614.968 379.36C614.424 378.96 613.88 378.656 613.336 378.448C612.792 378.224 612.136 378.112 611.368 378.112C610.776 378.112 610.296 378.232 609.928 378.472C609.576 378.712 609.4 379.064 609.4 379.528C609.4 379.992 609.632 380.352 610.096 380.608C610.576 380.848 611.2 381.104 611.968 381.376L613.864 382.192C614.904 382.576 615.72 383.104 616.312 383.776C616.92 384.448 617.224 385.336 617.224 386.44C617.224 387.096 617.088 387.72 616.816 388.312C616.544 388.888 616.152 389.4 615.64 389.848C615.128 390.28 614.496 390.632 613.744 390.904C612.992 391.16 612.128 391.288 611.152 391.288ZM627.703 391.288C626.759 391.288 625.959 391.16 625.303 390.904C624.647 390.648 624.111 390.296 623.695 389.848C623.295 389.384 623.007 388.832 622.831 388.192C622.655 387.552 622.567 386.84 622.567 386.056V381.856H619.567V379.24L622.735 379.096L623.191 375.448H626.095V379.096H631.135V381.856H626.095V386.032C626.095 386.944 626.295 387.592 626.695 387.976C627.095 388.344 627.735 388.528 628.615 388.528C629.063 388.528 629.471 388.488 629.839 388.408C630.223 388.328 630.599 388.224 630.967 388.096L631.591 390.64C631.063 390.8 630.479 390.944 629.839 391.072C629.215 391.216 628.503 391.288 627.703 391.288ZM638.157 391.288C637.549 391.288 637.005 391.192 636.525 391C636.045 390.824 635.637 390.576 635.301 390.256C634.965 389.92 634.701 389.536 634.509 389.104C634.333 388.672 634.245 388.2 634.245 387.688C634.245 387.016 634.389 386.432 634.677 385.936C634.965 385.424 635.421 384.992 636.045 384.64C636.685 384.288 637.501 384.008 638.493 383.8C639.485 383.576 640.685 383.424 642.093 383.344C642.029 382.8 641.789 382.376 641.373 382.072C640.973 381.768 640.365 381.616 639.549 381.616C638.973 381.616 638.389 381.72 637.797 381.928C637.221 382.12 636.597 382.384 635.925 382.72L634.677 380.416C635.493 379.952 636.365 379.568 637.293 379.264C638.237 378.96 639.221 378.808 640.245 378.808C641.909 378.808 643.221 379.248 644.181 380.128C645.141 381.008 645.621 382.36 645.621 384.184V391H642.741L642.477 389.656H642.381C641.773 390.12 641.109 390.512 640.389 390.832C639.669 391.136 638.925 391.288 638.157 391.288ZM639.285 388.552C639.813 388.552 640.309 388.448 640.773 388.24C641.237 388.016 641.677 387.744 642.093 387.424V385.456C641.213 385.504 640.485 385.584 639.909 385.696C639.333 385.808 638.877 385.952 638.541 386.128C638.205 386.288 637.965 386.48 637.821 386.704C637.693 386.928 637.629 387.168 637.629 387.424C637.629 387.808 637.773 388.096 638.061 388.288C638.365 388.464 638.773 388.552 639.285 388.552ZM653.82 396.064C653.052 396.064 652.332 396 651.66 395.872C651.004 395.76 650.436 395.576 649.956 395.32C649.476 395.08 649.1 394.768 648.828 394.384C648.556 394 648.42 393.544 648.42 393.016C648.42 392.04 649.036 391.248 650.268 390.64V390.544C649.932 390.336 649.644 390.072 649.404 389.752C649.18 389.432 649.068 389.016 649.068 388.504C649.068 388.104 649.196 387.704 649.452 387.304C649.724 386.904 650.068 386.56 650.484 386.272V386.176C650.052 385.888 649.684 385.488 649.38 384.976C649.076 384.448 648.924 383.832 648.924 383.128C648.924 382.408 649.06 381.784 649.332 381.256C649.62 380.712 649.996 380.264 650.46 379.912C650.924 379.544 651.46 379.272 652.068 379.096C652.692 378.904 653.34 378.808 654.012 378.808C654.748 378.808 655.404 378.904 655.98 379.096H660.804V381.688H658.404C658.532 381.864 658.652 382.096 658.764 382.384C658.876 382.656 658.932 382.944 658.932 383.248C658.932 383.936 658.804 384.528 658.548 385.024C658.292 385.52 657.94 385.936 657.492 386.272C657.06 386.592 656.54 386.832 655.932 386.992C655.34 387.152 654.7 387.232 654.012 387.232C653.5 387.232 652.956 387.152 652.38 386.992C652.204 387.12 652.068 387.248 651.972 387.376C651.892 387.504 651.852 387.672 651.852 387.88C651.852 388.2 652.012 388.432 652.332 388.576C652.652 388.704 653.164 388.768 653.868 388.768H656.076C657.644 388.768 658.836 389 659.652 389.464C660.484 389.928 660.9 390.696 660.9 391.768C660.9 392.392 660.732 392.968 660.396 393.496C660.06 394.024 659.588 394.472 658.98 394.84C658.372 395.224 657.628 395.52 656.748 395.728C655.868 395.952 654.892 396.064 653.82 396.064ZM654.012 385.096C654.508 385.096 654.932 384.936 655.284 384.616C655.636 384.28 655.812 383.784 655.812 383.128C655.812 382.504 655.636 382.024 655.284 381.688C654.932 381.352 654.508 381.184 654.012 381.184C653.516 381.184 653.092 381.352 652.74 381.688C652.404 382.024 652.236 382.504 652.236 383.128C652.236 383.784 652.404 384.28 652.74 384.616C653.092 384.936 653.516 385.096 654.012 385.096ZM654.324 393.832C655.284 393.832 656.06 393.696 656.652 393.424C657.244 393.152 657.54 392.808 657.54 392.392C657.54 392.008 657.364 391.76 657.012 391.648C656.66 391.536 656.14 391.48 655.452 391.48H653.964C653.532 391.48 653.172 391.464 652.884 391.432C652.612 391.416 652.364 391.376 652.14 391.312C651.836 391.504 651.62 391.688 651.492 391.864C651.364 392.056 651.3 392.264 651.3 392.488C651.3 392.936 651.564 393.272 652.092 393.496C652.636 393.72 653.38 393.832 654.324 393.832ZM668.235 391V381.856H663.459V379.096H671.763V391H668.235ZM669.843 377.224C669.155 377.224 668.587 377.032 668.139 376.648C667.707 376.264 667.491 375.744 667.491 375.088C667.491 374.432 667.707 373.904 668.139 373.504C668.587 373.088 669.155 372.88 669.843 372.88C670.531 372.88 671.091 373.088 671.523 373.504C671.971 373.904 672.195 374.432 672.195 375.088C672.195 375.744 671.971 376.264 671.523 376.648C671.091 377.032 670.531 377.224 669.843 377.224ZM677.681 391V379.096H680.561L680.825 380.68H680.921C681.433 380.168 682.017 379.728 682.673 379.36C683.345 378.992 684.129 378.808 685.025 378.808C686.369 378.808 687.353 379.24 687.977 380.104C688.601 380.968 688.913 382.152 688.913 383.656V391H685.385V384.112C685.385 383.312 685.257 382.728 685.001 382.36C684.745 381.992 684.289 381.808 683.633 381.808C683.153 381.808 682.729 381.912 682.361 382.12C682.009 382.328 681.625 382.64 681.209 383.056V391H677.681ZM696.992 396.064C696.224 396.064 695.504 396 694.832 395.872C694.176 395.76 693.608 395.576 693.128 395.32C692.648 395.08 692.272 394.768 692 394.384C691.728 394 691.592 393.544 691.592 393.016C691.592 392.04 692.208 391.248 693.44 390.64V390.544C693.104 390.336 692.816 390.072 692.576 389.752C692.352 389.432 692.24 389.016 692.24 388.504C692.24 388.104 692.368 387.704 692.624 387.304C692.896 386.904 693.24 386.56 693.656 386.272V386.176C693.224 385.888 692.856 385.488 692.552 384.976C692.248 384.448 692.096 383.832 692.096 383.128C692.096 382.408 692.232 381.784 692.504 381.256C692.792 380.712 693.168 380.264 693.632 379.912C694.096 379.544 694.632 379.272 695.24 379.096C695.864 378.904 696.512 378.808 697.184 378.808C697.92 378.808 698.576 378.904 699.152 379.096H703.976V381.688H701.576C701.704 381.864 701.824 382.096 701.936 382.384C702.048 382.656 702.104 382.944 702.104 383.248C702.104 383.936 701.976 384.528 701.72 385.024C701.464 385.52 701.112 385.936 700.664 386.272C700.232 386.592 699.712 386.832 699.104 386.992C698.512 387.152 697.872 387.232 697.184 387.232C696.672 387.232 696.128 387.152 695.552 386.992C695.376 387.12 695.24 387.248 695.144 387.376C695.064 387.504 695.024 387.672 695.024 387.88C695.024 388.2 695.184 388.432 695.504 388.576C695.824 388.704 696.336 388.768 697.04 388.768H699.248C700.816 388.768 702.008 389 702.824 389.464C703.656 389.928 704.072 390.696 704.072 391.768C704.072 392.392 703.904 392.968 703.568 393.496C703.232 394.024 702.76 394.472 702.152 394.84C701.544 395.224 700.8 395.52 699.92 395.728C699.04 395.952 698.064 396.064 696.992 396.064ZM697.184 385.096C697.68 385.096 698.104 384.936 698.456 384.616C698.808 384.28 698.984 383.784 698.984 383.128C698.984 382.504 698.808 382.024 698.456 381.688C698.104 381.352 697.68 381.184 697.184 381.184C696.688 381.184 696.264 381.352 695.912 381.688C695.576 382.024 695.408 382.504 695.408 383.128C695.408 383.784 695.576 384.28 695.912 384.616C696.264 384.936 696.688 385.096 697.184 385.096ZM697.496 393.832C698.456 393.832 699.232 393.696 699.824 393.424C700.416 393.152 700.712 392.808 700.712 392.392C700.712 392.008 700.536 391.76 700.184 391.648C699.832 391.536 699.312 391.48 698.624 391.48H697.136C696.704 391.48 696.344 391.464 696.056 391.432C695.784 391.416 695.536 391.376 695.312 391.312C695.008 391.504 694.792 391.688 694.664 391.864C694.536 392.056 694.472 392.264 694.472 392.488C694.472 392.936 694.736 393.272 695.264 393.496C695.808 393.72 696.552 393.832 697.496 393.832ZM724.981 383.08L724.621 384.52H727.909L727.549 383.08C727.341 382.296 727.125 381.472 726.901 380.608C726.677 379.728 726.477 378.872 726.301 378.04H726.205C726.013 378.872 725.813 379.728 725.605 380.608C725.397 381.472 725.189 382.296 724.981 383.08ZM719.341 391L724.213 375.352H728.437L733.309 391H729.565L728.629 387.28H723.901L722.941 391H719.341ZM736.3 391V379.096H739.18L739.468 381.688H739.54C740.132 380.712 740.844 379.992 741.676 379.528C742.508 379.048 743.404 378.808 744.364 378.808C744.892 378.808 745.316 378.848 745.636 378.928C745.972 379.008 746.316 379.128 746.668 379.288L745.948 382.24C745.58 382.128 745.244 382.048 744.94 382C744.652 381.936 744.284 381.904 743.836 381.904C743.1 381.904 742.372 382.12 741.652 382.552C740.948 382.984 740.34 383.736 739.828 384.808V391H736.3ZM755.826 391.288C754.898 391.288 754.026 391.152 753.21 390.88C752.41 390.592 751.714 390.184 751.122 389.656C750.53 389.128 750.066 388.48 749.73 387.712C749.394 386.928 749.226 386.04 749.226 385.048C749.226 384.072 749.394 383.2 749.73 382.432C750.082 381.648 750.546 380.992 751.122 380.464C751.698 379.92 752.354 379.512 753.09 379.24C753.842 378.952 754.618 378.808 755.418 378.808C756.33 378.808 757.138 378.952 757.842 379.24C758.546 379.528 759.13 379.928 759.594 380.44C760.074 380.952 760.434 381.56 760.674 382.264C760.914 382.952 761.034 383.704 761.034 384.52C761.034 384.84 761.01 385.152 760.962 385.456C760.93 385.744 760.898 385.96 760.866 386.104H752.754C752.93 386.968 753.322 387.6 753.93 388C754.538 388.4 755.33 388.6 756.306 388.6C756.85 388.6 757.362 388.528 757.842 388.384C758.338 388.24 758.85 388.032 759.378 387.76L760.554 389.896C759.866 390.328 759.106 390.672 758.274 390.928C757.442 391.168 756.626 391.288 755.826 391.288ZM755.538 381.496C754.834 381.496 754.242 381.68 753.762 382.048C753.298 382.416 752.978 382.976 752.802 383.728H757.89C757.714 382.24 756.93 381.496 755.538 381.496ZM767.673 391.288C767.065 391.288 766.521 391.192 766.041 391C765.561 390.824 765.153 390.576 764.817 390.256C764.481 389.92 764.217 389.536 764.025 389.104C763.849 388.672 763.761 388.2 763.761 387.688C763.761 387.016 763.905 386.432 764.193 385.936C764.481 385.424 764.937 384.992 765.561 384.64C766.201 384.288 767.017 384.008 768.009 383.8C769.001 383.576 770.201 383.424 771.609 383.344C771.545 382.8 771.305 382.376 770.889 382.072C770.489 381.768 769.881 381.616 769.065 381.616C768.489 381.616 767.905 381.72 767.313 381.928C766.737 382.12 766.113 382.384 765.441 382.72L764.193 380.416C765.009 379.952 765.881 379.568 766.809 379.264C767.753 378.96 768.737 378.808 769.761 378.808C771.425 378.808 772.737 379.248 773.697 380.128C774.657 381.008 775.137 382.36 775.137 384.184V391H772.257L771.993 389.656H771.897C771.289 390.12 770.625 390.512 769.905 390.832C769.185 391.136 768.441 391.288 767.673 391.288ZM768.801 388.552C769.329 388.552 769.825 388.448 770.289 388.24C770.753 388.016 771.193 387.744 771.609 387.424V385.456C770.729 385.504 770.001 385.584 769.425 385.696C768.849 385.808 768.393 385.952 768.057 386.128C767.721 386.288 767.481 386.48 767.337 386.704C767.209 386.928 767.145 387.168 767.145 387.424C767.145 387.808 767.289 388.096 767.577 388.288C767.881 388.464 768.289 388.552 768.801 388.552Z" fill="black"/>
<path d="M1085.23 387.288C1084.22 387.288 1083.28 387.12 1082.4 386.784C1081.54 386.432 1080.78 385.92 1080.12 385.248C1079.48 384.576 1078.98 383.744 1078.61 382.752C1078.24 381.744 1078.06 380.584 1078.06 379.272C1078.06 377.96 1078.24 376.8 1078.61 375.792C1078.99 374.768 1079.5 373.912 1080.14 373.224C1080.8 372.52 1081.57 371.984 1082.45 371.616C1083.33 371.248 1084.27 371.064 1085.28 371.064C1086.34 371.064 1087.23 371.272 1087.97 371.688C1088.72 372.088 1089.35 372.544 1089.86 373.056L1087.92 375.24C1087.58 374.904 1087.22 374.632 1086.82 374.424C1086.42 374.216 1085.9 374.112 1085.28 374.112C1084.77 374.112 1084.3 374.232 1083.86 374.472C1083.43 374.696 1083.06 375.024 1082.74 375.456C1082.42 375.888 1082.16 376.416 1081.97 377.04C1081.79 377.664 1081.7 378.368 1081.7 379.152C1081.7 380.768 1082.01 382.024 1082.62 382.92C1083.24 383.8 1084.18 384.24 1085.42 384.24C1085.73 384.24 1086.02 384.2 1086.29 384.12C1086.56 384.04 1086.78 383.92 1086.96 383.76V381.072H1084.68V378.192H1090.13V385.392C1089.6 385.888 1088.9 386.328 1088.04 386.712C1087.18 387.096 1086.24 387.288 1085.23 387.288ZM1098.06 387V377.856H1093.29V375.096H1101.59V387H1098.06ZM1099.67 373.224C1098.98 373.224 1098.41 373.032 1097.97 372.648C1097.53 372.264 1097.32 371.744 1097.32 371.088C1097.32 370.432 1097.53 369.904 1097.97 369.504C1098.41 369.088 1098.98 368.88 1099.67 368.88C1100.36 368.88 1100.92 369.088 1101.35 369.504C1101.8 369.904 1102.02 370.432 1102.02 371.088C1102.02 371.744 1101.8 372.264 1101.35 372.648C1100.92 373.032 1100.36 373.224 1099.67 373.224ZM1115.09 387.288C1114.15 387.288 1113.35 387.16 1112.69 386.904C1112.04 386.648 1111.5 386.296 1111.09 385.848C1110.69 385.384 1110.4 384.832 1110.22 384.192C1110.05 383.552 1109.96 382.84 1109.96 382.056V377.856H1106.96V375.24L1110.13 375.096L1110.58 371.448H1113.49V375.096H1118.53V377.856H1113.49V382.032C1113.49 382.944 1113.69 383.592 1114.09 383.976C1114.49 384.344 1115.13 384.528 1116.01 384.528C1116.45 384.528 1116.86 384.488 1117.23 384.408C1117.61 384.328 1117.99 384.224 1118.36 384.096L1118.98 386.64C1118.45 386.8 1117.87 386.944 1117.23 387.072C1116.61 387.216 1115.89 387.288 1115.09 387.288ZM1136.24 387V371.352H1141.79C1142.62 371.352 1143.39 371.432 1144.11 371.592C1144.85 371.752 1145.49 372.024 1146.03 372.408C1146.59 372.776 1147.03 373.272 1147.35 373.896C1147.67 374.52 1147.83 375.296 1147.83 376.224C1147.83 377.376 1147.58 378.328 1147.07 379.08C1146.55 379.816 1145.88 380.368 1145.05 380.736L1148.58 387H1144.62L1141.62 381.36H1139.77V387H1136.24ZM1139.77 378.552H1141.5C1143.4 378.552 1144.35 377.776 1144.35 376.224C1144.35 375.456 1144.11 374.92 1143.63 374.616C1143.15 374.312 1142.44 374.16 1141.5 374.16H1139.77V378.552ZM1156.87 387.288C1155.95 387.288 1155.07 387.152 1154.26 386.88C1153.46 386.592 1152.76 386.184 1152.17 385.656C1151.58 385.128 1151.11 384.48 1150.78 383.712C1150.44 382.928 1150.27 382.04 1150.27 381.048C1150.27 380.072 1150.44 379.2 1150.78 378.432C1151.13 377.648 1151.59 376.992 1152.17 376.464C1152.75 375.92 1153.4 375.512 1154.14 375.24C1154.89 374.952 1155.67 374.808 1156.47 374.808C1157.38 374.808 1158.19 374.952 1158.89 375.24C1159.59 375.528 1160.18 375.928 1160.64 376.44C1161.12 376.952 1161.48 377.56 1161.72 378.264C1161.96 378.952 1162.08 379.704 1162.08 380.52C1162.08 380.84 1162.06 381.152 1162.01 381.456C1161.98 381.744 1161.95 381.96 1161.91 382.104H1153.8C1153.98 382.968 1154.37 383.6 1154.98 384C1155.59 384.4 1156.38 384.6 1157.35 384.6C1157.9 384.6 1158.41 384.528 1158.89 384.384C1159.39 384.24 1159.9 384.032 1160.43 383.76L1161.6 385.896C1160.91 386.328 1160.15 386.672 1159.32 386.928C1158.49 387.168 1157.67 387.288 1156.87 387.288ZM1156.59 377.496C1155.88 377.496 1155.29 377.68 1154.81 378.048C1154.35 378.416 1154.03 378.976 1153.85 379.728H1158.94C1158.76 378.24 1157.98 377.496 1156.59 377.496ZM1165.07 391.416V375.096H1167.95L1168.22 376.296H1168.29C1168.77 375.864 1169.32 375.512 1169.94 375.24C1170.57 374.952 1171.2 374.808 1171.84 374.808C1172.58 374.808 1173.24 374.952 1173.83 375.24C1174.42 375.528 1174.93 375.936 1175.34 376.464C1175.76 376.992 1176.07 377.632 1176.28 378.384C1176.5 379.12 1176.62 379.944 1176.62 380.856C1176.62 381.88 1176.47 382.792 1176.18 383.592C1175.9 384.376 1175.51 385.048 1175.03 385.608C1174.55 386.152 1174 386.568 1173.38 386.856C1172.77 387.144 1172.13 387.288 1171.46 387.288C1170.37 387.288 1169.39 386.856 1168.53 385.992H1168.43L1168.6 387.936V391.416H1165.07ZM1170.64 384.408C1171.31 384.408 1171.87 384.136 1172.32 383.592C1172.77 383.032 1172.99 382.136 1172.99 380.904C1172.99 378.76 1172.26 377.688 1170.81 377.688C1170.06 377.688 1169.32 378.056 1168.6 378.792V383.616C1168.94 383.904 1169.28 384.112 1169.63 384.24C1170 384.352 1170.34 384.408 1170.64 384.408ZM1184.93 387.288C1184.15 387.288 1183.39 387.152 1182.65 386.88C1181.93 386.592 1181.29 386.184 1180.71 385.656C1180.15 385.128 1179.7 384.48 1179.37 383.712C1179.03 382.928 1178.86 382.04 1178.86 381.048C1178.86 380.056 1179.03 379.176 1179.37 378.408C1179.7 377.624 1180.15 376.968 1180.71 376.44C1181.29 375.912 1181.93 375.512 1182.65 375.24C1183.39 374.952 1184.15 374.808 1184.93 374.808C1185.72 374.808 1186.47 374.952 1187.19 375.24C1187.93 375.512 1188.57 375.912 1189.13 376.44C1189.71 376.968 1190.17 377.624 1190.5 378.408C1190.84 379.176 1191.01 380.056 1191.01 381.048C1191.01 382.04 1190.84 382.928 1190.5 383.712C1190.17 384.48 1189.71 385.128 1189.13 385.656C1188.57 386.184 1187.93 386.592 1187.19 386.88C1186.47 387.152 1185.72 387.288 1184.93 387.288ZM1184.93 384.432C1185.75 384.432 1186.36 384.128 1186.76 383.52C1187.17 382.912 1187.38 382.088 1187.38 381.048C1187.38 380.008 1187.17 379.184 1186.76 378.576C1186.36 377.968 1185.75 377.664 1184.93 377.664C1184.12 377.664 1183.5 377.968 1183.09 378.576C1182.69 379.184 1182.49 380.008 1182.49 381.048C1182.49 382.088 1182.69 382.912 1183.09 383.52C1183.5 384.128 1184.12 384.432 1184.93 384.432ZM1199.23 387.288C1198.16 387.288 1197.11 387.112 1196.09 386.76C1195.06 386.408 1194.17 385.976 1193.4 385.464L1194.91 383.256C1195.65 383.72 1196.41 384.072 1197.21 384.312C1198.01 384.552 1198.85 384.672 1199.71 384.672C1200.37 384.672 1200.85 384.576 1201.15 384.384C1201.45 384.192 1201.61 383.952 1201.61 383.664C1201.61 383.504 1201.56 383.36 1201.46 383.232C1201.38 383.104 1201.23 382.992 1201.01 382.896C1200.8 382.784 1200.5 382.68 1200.12 382.584C1199.73 382.488 1199.25 382.376 1198.68 382.248C1197.06 381.896 1195.9 381.424 1195.2 380.832C1194.49 380.224 1194.14 379.456 1194.14 378.528C1194.14 377.984 1194.27 377.48 1194.53 377.016C1194.78 376.552 1195.14 376.16 1195.61 375.84C1196.09 375.52 1196.66 375.272 1197.33 375.096C1198.01 374.904 1198.77 374.808 1199.61 374.808C1200.69 374.808 1201.65 374.984 1202.52 375.336C1203.4 375.672 1204.15 376.04 1204.77 376.44L1203.19 378.552C1202.58 378.184 1201.95 377.904 1201.29 377.712C1200.64 377.52 1199.97 377.424 1199.3 377.424C1198.74 377.424 1198.33 377.512 1198.05 377.688C1197.78 377.864 1197.65 378.088 1197.65 378.36C1197.65 378.696 1197.85 378.936 1198.27 379.08C1198.69 379.224 1199.4 379.408 1200.41 379.632C1201.32 379.84 1202.08 380.064 1202.69 380.304C1203.29 380.544 1203.77 380.816 1204.12 381.12C1204.48 381.424 1204.73 381.768 1204.87 382.152C1205.01 382.536 1205.09 382.968 1205.09 383.448C1205.09 383.992 1204.96 384.496 1204.7 384.96C1204.45 385.424 1204.07 385.832 1203.57 386.184C1203.09 386.52 1202.49 386.792 1201.75 387C1201.03 387.192 1200.19 387.288 1199.23 387.288ZM1213.19 387V377.856H1208.41V375.096H1216.72V387H1213.19ZM1214.8 373.224C1214.11 373.224 1213.54 373.032 1213.09 372.648C1212.66 372.264 1212.44 371.744 1212.44 371.088C1212.44 370.432 1212.66 369.904 1213.09 369.504C1213.54 369.088 1214.11 368.88 1214.8 368.88C1215.48 368.88 1216.04 369.088 1216.48 369.504C1216.92 369.904 1217.15 370.432 1217.15 371.088C1217.15 371.744 1216.92 372.264 1216.48 372.648C1216.04 373.032 1215.48 373.224 1214.8 373.224ZM1230.22 387.288C1229.27 387.288 1228.47 387.16 1227.82 386.904C1227.16 386.648 1226.63 386.296 1226.21 385.848C1225.81 385.384 1225.52 384.832 1225.35 384.192C1225.17 383.552 1225.08 382.84 1225.08 382.056V377.856H1222.08V375.24L1225.25 375.096L1225.71 371.448H1228.61V375.096H1233.65V377.856H1228.61V382.032C1228.61 382.944 1228.81 383.592 1229.21 383.976C1229.61 384.344 1230.25 384.528 1231.13 384.528C1231.58 384.528 1231.99 384.488 1232.35 384.408C1232.74 384.328 1233.11 384.224 1233.48 384.096L1234.11 386.64C1233.58 386.8 1232.99 386.944 1232.35 387.072C1231.73 387.216 1231.02 387.288 1230.22 387.288ZM1242.5 387.288C1241.71 387.288 1240.95 387.152 1240.22 386.88C1239.5 386.592 1238.85 386.184 1238.27 385.656C1237.71 385.128 1237.26 384.48 1236.93 383.712C1236.59 382.928 1236.42 382.04 1236.42 381.048C1236.42 380.056 1236.59 379.176 1236.93 378.408C1237.26 377.624 1237.71 376.968 1238.27 376.44C1238.85 375.912 1239.5 375.512 1240.22 375.24C1240.95 374.952 1241.71 374.808 1242.5 374.808C1243.28 374.808 1244.03 374.952 1244.75 375.24C1245.49 375.512 1246.14 375.912 1246.7 376.44C1247.27 376.968 1247.73 377.624 1248.06 378.408C1248.4 379.176 1248.57 380.056 1248.57 381.048C1248.57 382.04 1248.4 382.928 1248.06 383.712C1247.73 384.48 1247.27 385.128 1246.7 385.656C1246.14 386.184 1245.49 386.592 1244.75 386.88C1244.03 387.152 1243.28 387.288 1242.5 387.288ZM1242.5 384.432C1243.31 384.432 1243.92 384.128 1244.32 383.52C1244.74 382.912 1244.94 382.088 1244.94 381.048C1244.94 380.008 1244.74 379.184 1244.32 378.576C1243.92 377.968 1243.31 377.664 1242.5 377.664C1241.68 377.664 1241.06 377.968 1240.65 378.576C1240.25 379.184 1240.05 380.008 1240.05 381.048C1240.05 382.088 1240.25 382.912 1240.65 383.52C1241.06 384.128 1241.68 384.432 1242.5 384.432ZM1252.47 387V375.096H1255.35L1255.64 377.688H1255.71C1256.3 376.712 1257.02 375.992 1257.85 375.528C1258.68 375.048 1259.58 374.808 1260.54 374.808C1261.06 374.808 1261.49 374.848 1261.81 374.928C1262.14 375.008 1262.49 375.128 1262.84 375.288L1262.12 378.24C1261.75 378.128 1261.42 378.048 1261.11 378C1260.82 377.936 1260.46 377.904 1260.01 377.904C1259.27 377.904 1258.54 378.12 1257.82 378.552C1257.12 378.984 1256.51 379.736 1256 380.808V387H1252.47ZM1267.51 391.656C1267.16 391.656 1266.83 391.632 1266.53 391.584C1266.22 391.552 1265.94 391.496 1265.69 391.416L1266.31 388.728C1266.61 388.824 1266.93 388.872 1267.25 388.872C1267.93 388.872 1268.47 388.728 1268.85 388.44C1269.25 388.152 1269.55 387.776 1269.74 387.312L1269.98 386.688L1264.82 375.096H1268.33L1270.32 380.208C1270.54 380.768 1270.75 381.352 1270.94 381.96C1271.13 382.552 1271.33 383.16 1271.52 383.784H1271.61C1271.77 383.192 1271.95 382.6 1272.14 382.008C1272.33 381.4 1272.52 380.8 1272.69 380.208L1274.45 375.096H1277.78L1273.08 387.12C1272.79 387.872 1272.48 388.528 1272.14 389.088C1271.81 389.664 1271.42 390.136 1270.99 390.504C1270.56 390.888 1270.05 391.176 1269.48 391.368C1268.92 391.56 1268.26 391.656 1267.51 391.656Z" fill="black"/>
<defs>
<filter id="filter0_d" x="0" y="0" width="1448" height="417" filterUnits="userSpaceOnUse" color-interpolation-filters="sRGB">
<feFlood flood-opacity="0" result="BackgroundImageFix"/>
<feColorMatrix in="SourceAlpha" type="matrix" values="0 0 0 0 0 0 0 0 0 0 0 0 0 0 0 0 0 0 127 0"/>
<feOffset dy="4"/>
<feGaussianBlur stdDeviation="2"/>
<feColorMatrix type="matrix" values="0 0 0 0 0 0 0 0 0 0 0 0 0 0 0 0 0 0 0.25 0"/>
<feBlend mode="normal" in2="BackgroundImageFix" result="effect1_dropShadow"/>
<feBlend mode="normal" in="SourceGraphic" in2="effect1_dropShadow" result="shape"/>
</filter>
</defs>
</svg>
