<?xml version="1.0" encoding="iso-8859-1"?>
<!-- Generator: Adobe Illustrator 19.0.0, SVG Export Plug-In . SVG Version: 6.00 Build 0)  -->
<svg version="1.1" id="Capa_1" xmlns="http://www.w3.org/2000/svg" xmlns:xlink="http://www.w3.org/1999/xlink" x="0px" y="0px"
	 viewBox="0 0 512 512" style="enable-background:new 0 0 512 512;" xml:space="preserve">
<path style="fill:#FF993B;" d="M371,504.5H51V7.5h230c35.147,35.147,54.853,54.853,90,90V504.5z"/>
<path style="fill:#FF7B48;" d="M281,7.5h-30c35.147,35.147,54.853,54.853,90,90v407h30v-407C335.853,62.353,316.147,42.647,281,7.5z
	"/>
<rect x="51" y="7.5" style="fill:#7A666C;" width="230" height="50"/>
<polygon style="fill:#6A545A;" points="281,7.5 371,97.5 281,97.5 "/>
<g>
	<rect x="51" y="7.5" style="fill:#FF5A51;" width="112" height="50"/>
	<circle style="fill:#FF5A51;" cx="371" cy="414.5" r="90"/>
</g>
<rect x="351.001" y="364.498" transform="matrix(-0.7071 -0.7071 0.7071 -0.7071 340.2449 969.9282)" style="fill:#FFBD2A;" width="40" height="99.999"/>
<rect x="351.003" y="364.502" transform="matrix(0.7071 -0.7071 0.7071 0.7071 -184.4323 383.7433)" style="fill:#FFD681;" width="40" height="99.999"/>
<path d="M51,455c4.142,0,7.5-3.357,7.5-7.5V65H179l0,0c4.142,0,7.5-3.357,7.5-7.5S183.142,50,179,50h-8.5V15h103v35H211
	c-4.142,0-7.5,3.357-7.5,7.5s3.358,7.5,7.5,7.5h62.5v32.5c0,4.143,3.358,7.5,7.5,7.5h82.5v22.667c0,4.143,3.358,7.5,7.5,7.5
	s7.5-3.357,7.5-7.5V97.5c0-0.084-0.01-0.168-0.013-0.252s-0.007-0.168-0.013-0.253c-0.022-0.319-0.056-0.636-0.118-0.946
	c-0.001-0.004-0.001-0.009-0.002-0.013c-0.063-0.317-0.154-0.627-0.257-0.933c-0.026-0.078-0.054-0.154-0.083-0.231
	c-0.108-0.289-0.229-0.572-0.372-0.846c-0.008-0.016-0.014-0.033-0.023-0.048c-0.152-0.286-0.329-0.558-0.518-0.823
	c-0.048-0.068-0.098-0.134-0.149-0.201c-0.201-0.263-0.414-0.519-0.65-0.756l-90-90c-0.018-0.018-0.038-0.033-0.057-0.051
	c-0.156-0.153-0.317-0.301-0.486-0.44c-0.055-0.045-0.113-0.083-0.169-0.126c-0.015-0.012-0.031-0.023-0.046-0.035
	c-0.061-0.046-0.121-0.093-0.184-0.137c-0.064-0.046-0.125-0.095-0.191-0.139c-0.051-0.034-0.105-0.063-0.156-0.095
	c-0.156-0.099-0.312-0.197-0.475-0.284c-0.005-0.003-0.01-0.005-0.016-0.008c-0.017-0.009-0.034-0.015-0.051-0.024
	c-0.015-0.008-0.03-0.014-0.045-0.021c-0.181-0.094-0.365-0.183-0.554-0.262c-0.024-0.01-0.049-0.017-0.074-0.027
	c-0.062-0.025-0.126-0.046-0.188-0.069c-0.06-0.022-0.12-0.045-0.181-0.066c-0.082-0.028-0.163-0.06-0.246-0.085
	c-0.027-0.008-0.054-0.013-0.081-0.021c-0.206-0.06-0.415-0.115-0.628-0.158c-0.004,0-0.008-0.001-0.012-0.002
	c-0.004,0-0.007-0.001-0.011-0.001c-0.056-0.011-0.114-0.016-0.17-0.025c-0.177-0.031-0.354-0.062-0.536-0.08
	c-0.081-0.008-0.163-0.007-0.244-0.013c-0.084-0.005-0.168-0.009-0.252-0.012C281.169,0.01,281.085,0,281,0H51l0,0
	c-4.142,0-7.5,3.357-7.5,7.5l0,0v440C43.5,451.643,46.858,455,51,455z M288.5,90V25.606l0,0L352.894,90H288.5z M58.5,15h97v35h-97
	V15z"/>
<circle cx="80" cy="32.5" r="7.5"/>
<circle cx="136" cy="32.5" r="7.5"/>
<circle cx="108" cy="32.5" r="7.5"/>
<path d="M109.037,298.535c2.502,3.291,7.206,3.931,10.503,1.435c0.35-0.265,35.604-26.47,91.376-26.47
	c55.783,0,91.205,26.215,91.544,26.471c1.357,1.031,2.952,1.529,4.534,1.529c2.263,0,4.5-1.02,5.976-2.961
	c2.507-3.297,1.866-8.002-1.431-10.51c-1.586-1.205-39.541-29.529-100.623-29.529c-61.091,0-98.89,28.334-100.469,29.54
	C107.161,290.55,106.533,295.243,109.037,298.535z"/>
<path d="M165.29,156.232c-2.634-3.197-7.36-3.655-10.557-1.021l-17,14c-1.73,1.424-2.732,3.548-2.732,5.789s1.002,4.365,2.732,5.789
	l17,14c1.396,1.15,3.085,1.711,4.763,1.711c2.164,0,4.311-0.932,5.794-2.732c2.633-3.197,2.176-7.924-1.022-10.557l-9.97-8.211
	l9.97-8.211C167.465,164.156,167.923,159.43,165.29,156.232z"/>
<path d="M256.71,193.768c1.483,1.801,3.63,2.732,5.794,2.732c1.678,0,3.367-0.561,4.763-1.711l17-14
	c1.73-1.424,2.732-3.548,2.732-5.789s-1.002-4.365-2.732-5.789l-17-14c-3.197-2.634-7.924-2.176-10.557,1.021
	c-2.633,3.197-2.176,7.924,1.022,10.557l9.97,8.211l-9.97,8.211C254.535,185.844,254.077,190.57,256.71,193.768z"/>
<path d="M378.5,317.286V161c0-4.143-3.358-7.5-7.5-7.5s-7.5,3.357-7.5,7.5v156.286c-50.271,3.842-90,45.976-90,97.214
	c0,34.698,18.223,65.216,45.597,82.5H58.5v-17.167c0-4.143-3.358-7.5-7.5-7.5s-7.5,3.357-7.5,7.5V504.5c0,4.143,3.358,7.5,7.5,7.5
	h320c53.762,0,97.5-43.738,97.5-97.5C468.5,363.262,428.771,321.128,378.5,317.286z M371,497c-45.491,0-82.5-37.01-82.5-82.5
	S325.509,332,371,332s82.5,37.01,82.5,82.5S416.491,497,371,497z"/>
<path d="M425.803,387.986l-28.29-28.29c-2.929-2.928-7.678-2.928-10.606,0l-15.91,15.91l-15.907-15.907
	c-2.929-2.928-7.678-2.928-10.606,0L316.2,387.983c-1.407,1.407-2.197,3.314-2.197,5.304s0.79,3.896,2.197,5.304l15.907,15.906
	l-15.909,15.909c-2.929,2.93-2.929,7.678,0,10.607l28.29,28.29c1.464,1.464,3.384,2.196,5.303,2.196s3.839-0.732,5.303-2.196
	l15.91-15.91l15.907,15.907c1.464,1.464,3.384,2.196,5.303,2.196s3.839-0.732,5.303-2.196l28.284-28.284
	c1.407-1.407,2.197-3.314,2.197-5.304s-0.79-3.896-2.197-5.304l-15.907-15.906l15.909-15.909
	C428.732,395.664,428.732,390.916,425.803,387.986z M349.79,453.394l-17.684-17.684l10.606-10.606l17.683,17.683L349.79,453.394z
	 M392.213,453.391l-60.104-60.104l17.678-17.678l60.104,60.104L392.213,453.391z M381.604,386.213l10.606-10.606l17.684,17.684
	l-10.606,10.606L381.604,386.213z"/>
<g>
</g>
<g>
</g>
<g>
</g>
<g>
</g>
<g>
</g>
<g>
</g>
<g>
</g>
<g>
</g>
<g>
</g>
<g>
</g>
<g>
</g>
<g>
</g>
<g>
</g>
<g>
</g>
<g>
</g>
</svg>
