<svg id="Capa_1" enable-background="new 0 0 512.653 512.653" height="512" viewBox="0 0 512.653 512.653" width="512" xmlns="http://www.w3.org/2000/svg"><g><path d="m7.5 86.748h497.653v305.845h-497.653z" fill="#f9f6f9"/><path d="m483.174 86.748h21.979v305.845h-21.979z" fill="#dddaec"/><path d="m505.154 86.748h-497.654v-36.626c0-9.869 8.001-17.87 17.87-17.87h461.913c9.869 0 17.87 8.001 17.87 17.87v36.626z" fill="#ffe07d"/><path d="m487.283 32.252h-21.979c9.869 0 17.87 8.001 17.87 17.87v36.626h21.979v-36.626c.001-9.869-8-17.87-17.87-17.87z" fill="#ffd064"/><path d="m483.673 480.401h-454.692c-11.863 0-21.481-9.617-21.481-21.481v-66.327h497.653v66.327c.001 11.864-9.617 21.481-21.48 21.481z" fill="#95d6a4"/><path d="m483.976 392.593v66.299c0 11.879-9.605 21.509-21.452 21.509h21.178c11.848 0 21.452-9.63 21.452-21.509v-66.299z" fill="#78c2a4"/><circle cx="256.327" cy="205.618" fill="#ffe07d" r="81.345"/><path d="m256.327 124.273c-4.443 0-8.799.37-13.048 1.055 38.72 6.245 68.296 39.808 68.296 80.29s-29.576 74.044-68.296 80.289c4.25.686 8.605 1.055 13.048 1.055 44.926 0 81.345-36.419 81.345-81.345 0-44.925-36.419-81.344-81.345-81.344z" fill="#ffd064"/><path d="m256.327 257.5c20.994 0 38.013-17.019 38.013-38.014h-76.027c0 20.995 17.02 38.014 38.014 38.014z" fill="#dd636e"/><g><path d="m174.91 329.822h162.834c4.143 0 7.5-3.357 7.5-7.5s-3.357-7.5-7.5-7.5h-162.834c-4.143 0-7.5 3.357-7.5 7.5s3.358 7.5 7.5 7.5z"/><path d="m391.158 348.444h-269.662c-4.143 0-7.5 3.357-7.5 7.5s3.357 7.5 7.5 7.5h269.662c4.143 0 7.5-3.357 7.5-7.5s-3.357-7.5-7.5-7.5z"/><path d="m46.992 52c-4.143 0-7.5 3.357-7.5 7.5s3.357 7.5 7.5 7.5h10.629c4.143 0 7.5-3.357 7.5-7.5s-3.357-7.5-7.5-7.5z"/><path d="m89.051 52c-4.143 0-7.5 3.357-7.5 7.5s3.357 7.5 7.5 7.5h10.629c4.143 0 7.5-3.357 7.5-7.5s-3.357-7.5-7.5-7.5z"/><path d="m131.109 52c-4.143 0-7.5 3.357-7.5 7.5s3.357 7.5 7.5 7.5h10.629c4.143 0 7.5-3.357 7.5-7.5s-3.357-7.5-7.5-7.5z"/><path d="m487.283 24.752h-106.6c-4.143 0-7.5 3.357-7.5 7.5s3.357 7.5 7.5 7.5h106.6c5.718 0 10.37 4.652 10.37 10.37v29.126h-482.653v-29.125c0-5.718 4.652-10.37 10.37-10.37h325.287c4.143 0 7.5-3.357 7.5-7.5s-3.357-7.5-7.5-7.5h-325.287c-13.989-.001-25.37 11.38-25.37 25.37v408.77c0 15.995 12.988 29.009 28.953 29.009h268.964c4.143 0 7.5-3.357 7.5-7.5s-3.357-7.5-7.5-7.5h-268.964c-7.693 0-13.953-6.284-13.953-14.009v-58.799h482.653v58.799c0 7.725-6.259 14.009-13.952 14.009h-155.837c-4.143 0-7.5 3.357-7.5 7.5s3.357 7.5 7.5 7.5h155.837c15.964 0 28.952-13.014 28.952-29.009v-408.77c0-13.99-11.381-25.371-25.37-25.371zm-472.283 360.341v-290.844h482.653v290.845h-482.653z"/><path d="m274.761 415.962-25.251 25.251-11.059-10.676c-2.979-2.877-7.728-2.793-10.604.187s-2.794 7.728.187 10.604l16.36 15.795c1.454 1.404 3.332 2.104 5.209 2.104 1.921 0 3.84-.733 5.304-2.197l30.462-30.463c2.929-2.929 2.929-7.677 0-10.606-2.931-2.927-7.679-2.928-10.608.001z"/><path d="m237.394 183.741v-9.81c0-4.143-3.357-7.5-7.5-7.5s-7.5 3.357-7.5 7.5v9.81c0 4.143 3.357 7.5 7.5 7.5s7.5-3.358 7.5-7.5z"/><path d="m290.26 183.741v-9.81c0-4.143-3.357-7.5-7.5-7.5s-7.5 3.357-7.5 7.5v9.81c0 4.143 3.357 7.5 7.5 7.5s7.5-3.358 7.5-7.5z"/><path d="m210.813 219.486c0 25.097 20.417 45.515 45.514 45.515s45.514-20.418 45.514-45.515c0-4.143-3.357-7.5-7.5-7.5h-76.027c-4.143 0-7.501 3.357-7.501 7.5zm75.095 7.5c-3.35 13.212-15.343 23.014-29.581 23.014s-26.23-9.803-29.581-23.015h59.162z"/><path d="m191.932 255.85c3.484-2.24 4.493-6.881 2.253-10.364-7.655-11.907-11.702-25.693-11.702-39.868 0-40.718 33.127-73.845 73.845-73.845s73.845 33.127 73.845 73.845-33.127 73.845-73.845 73.845c-15.719 0-30.733-4.887-43.423-14.131-3.345-2.44-8.039-1.704-10.478 1.646-2.439 3.348-1.703 8.039 1.646 10.478 15.271 11.127 33.341 17.008 52.255 17.008 48.989 0 88.845-39.855 88.845-88.845s-39.855-88.845-88.845-88.845-88.845 39.855-88.845 88.845c0 17.058 4.87 33.648 14.085 47.979 2.24 3.483 6.879 4.491 10.364 2.252z"/></g></g></svg>