<?xml version="1.0" encoding="iso-8859-1"?>
<!-- Generator: Adobe Illustrator 19.0.0, SVG Export Plug-In . SVG Version: 6.00 Build 0)  -->
<svg version="1.1" id="Capa_1" xmlns="http://www.w3.org/2000/svg" xmlns:xlink="http://www.w3.org/1999/xlink" x="0px" y="0px"
	 viewBox="0 0 512 512" style="enable-background:new 0 0 512 512;" xml:space="preserve">
<path style="fill:#EA473B;" d="M504.5,337.453c0,6.628-5.372,12.001-12.001,12.001H19.501c-6.627,0-12.001-5.372-12.001-12.001
	V174.548c0-6.628,5.373-12.001,12.001-12.001h472.998c6.628,0,12.001,5.372,12.001,12.001V337.453z"/>
<path style="fill:#D82B27;" d="M27.502,337.453V174.548c0-6.629,5.373-12.001,12.001-12.001H19.501
	c-6.627,0-12.001,5.371-12.001,12.001v162.904c0,6.627,5.373,12.001,12.001,12.001h20.001
	C32.875,349.454,27.502,344.08,27.502,337.453z"/>
<path d="M122.599,278.372l0.04-3.232c0.001-0.098-0.007-0.194-0.025-0.29l-0.131-0.714c-0.383-2.098-0.555-2.68-2.36-3.531
	c-0.205-0.097-0.436-0.206-0.697-0.336c-0.15-0.074-0.313-0.123-0.479-0.143l-2.474-0.31c-0.062-0.008-0.124-0.012-0.186-0.012
	H93.352c-0.036,0-0.071,0.001-0.107,0.004l-4.252,0.304c-0.077,0.006-0.152,0.017-0.227,0.034l-1.158,0.265
	c-0.347,0.079-0.654,0.278-0.867,0.564l-0.739,0.988c-0.142,0.19-0.237,0.411-0.277,0.646c-0.05,0.295-0.047,0.748-0.014,2.406
	c0.017,0.861,0.04,1.974,0.04,3.406c0,0.65-0.006,1.253-0.011,1.829c-0.031,3.175-0.047,4.923,1.062,6.044
	c1.353,1.365,4.108,1.423,10.212,1.423l17.588-0.002c0.057,0,0.114-0.003,0.17-0.01l4.744-0.542
	c0.128-0.015,0.254-0.046,0.374-0.093l0.75-0.292c0.277-0.107,0.516-0.295,0.686-0.539c0.187-0.267,0.352-0.483,0.496-0.671
	c0.545-0.712,0.827-1.129,0.776-2.141l-0.232-3.014l0.225-1.881C122.595,278.48,122.598,278.426,122.599,278.372z M113.833,275.817
	c-0.006,0.238-0.013,0.529-0.013,0.911v6.265H94.189v-2.461c0-0.082-0.007-0.165-0.021-0.246l-0.313-1.882l0.331-3.315
	c0.005-0.05,0.007-0.1,0.007-0.151l-0.002-0.75h19.427C113.856,274.933,113.851,275.112,113.833,275.817z"/>
<path d="M156.949,274.187c0.829,0,1.5-0.672,1.5-1.5v-1.383c0-0.828-0.671-1.5-1.5-1.5h-27.762c-0.829,0-1.5,0.672-1.5,1.5v14.911
	c0,0.828,0.671,1.5,1.5,1.5h5.44c0.829,0,1.5-0.672,1.5-1.5v-5.265h19.223c0.829,0,1.5-0.672,1.5-1.5v-1.714
	c0-0.401-0.161-0.786-0.447-1.067c-0.286-0.282-0.678-0.441-1.074-0.433l-0.822,0.012c-0.062-0.008-0.123-0.004-0.189-0.01
	l-18.191,0.268v-2.319h20.821V274.187z"/>
<path d="M205.791,252.877c0.796,0,1.559-0.316,2.122-0.879c1.078-1.079,0.878-2.054,0.877-4.901c-0.001-1.656-1.344-2.998-3-2.998
	h-46.709l-0.001-5.419h41.549c1.657,0,3-1.343,3-3v-3.136c0-1.657-1.343-3-3-3h-41.552l-0.001-5.705h46.041c1.657,0,3-1.343,3-3
	v-2.824c0-1.657-1.343-3-3-3h-61.663c-1.657,0-3,1.343-3,3v31.568c0,1.657,1.343,3,3,3l15.024-0.001
	C171.684,252.991,160.148,252.879,205.791,252.877z"/>
<path d="M454.981,222.743c1.474-1.67,1.215-4.964-4.539-6.983c-3.979-1.536-2.366-0.329-48.05-0.778
	c-8.328-0.125-18.009-0.47-19.042,7.763c-0.038,0.308,0.019,8.174,0.021,8.515c0.002,0.39,0.08,0.771,0.226,1.124
	c0.154,2.931,0.324,4.804,4.343,5.638c0.458,0.091,1.437,0.314,1.869,0.318c39.788,0.317,40.743,0.336,47.292,0.336
	c0,6.372,0.113,1.776,0.014,5.423h-1.233c-0.696-0.209-0.434-0.128-12.121,0c-40.01,0-38.108-0.423-39.352,1.111
	c-0.569,0.703-0.792,1.625-0.604,2.511c1.115,5.263,7.809,5.206,13.961,5.164c0.545-0.004,1.086-0.008,1.617-0.008
	c47.185,0.002,28.371,0.052,44.127,0.07c0.005,0,0.707,0.034,1.167,0.034c0.472,0,0.512-0.014,0.895-0.032
	c7.237-0.023,9.074-3.672,9.404-4.526l0.004,0.001c0.874-2.448,1.115-4.026,0.819-10.476c-0.459-9.946,4.06-7.958-53.21-8.454
	v-5.666C456.82,223.789,453.67,224.229,454.981,222.743z"/>
<path d="M262.409,215.014c-12.328,0.019-12.4-0.259-13.558,0.856l-33.074,31.845c-1.793,1.727-0.931,5.149,2.322,5.162
	c12.38,0,12.587,0.263,13.745-0.938l24.49-25.408l9.957,10.129c-16.707-0.232-16.776-0.587-17.995,0.811
	c-2.475,2.841-4.059,4.049-3.077,6.207c0.487,1.07,1.555,1.758,2.73,1.758h26.766c7.007,7.005,7.064,7.432,8.676,7.432
	c0.007,0,0.015,0,0.022,0c12.397-0.092,13.704,0.447,14.672-1.974c0.452-1.132,0.176-2.425-0.701-3.271
	C261.689,213.122,264.014,215.014,262.409,215.014z"/>
<path d="M257.495,291.553c-0.88,0.848-1.159,2.144-0.704,3.277c0.455,1.134,1.551,1.879,2.773,1.884
	c0.028,0,0.244,0.001,0.271,0.001c0.177,0,3.497-0.002,3.673-0.016c8.441-0.003,8.908,0.266,10.054-0.921l24.489-25.41l9.957,10.131
	c-16.723-0.232-16.775-0.587-17.995,0.811c-2.475,2.841-4.059,4.049-3.077,6.207c0.487,1.07,1.555,1.758,2.73,1.758h26.766
	c7.004,7.003,7.051,7.427,8.698,7.431c12.396-0.09,13.703,0.448,14.671-1.973c0.453-1.132,0.176-2.425-0.7-3.272
	c-35.914-34.714-33.312-32.611-34.973-32.611l-11.481,0.017C290.926,258.871,293.283,257.095,257.495,291.553z"/>
<path d="M124.895,252.866c7.719,0,7.462-7.526,7.462-7.526l-0.026-0.017c0.041-0.581,0.026-10.849,0.026-11.432
	c0-1.648-1.33-2.988-2.978-3c-0.066,0-21.553-0.156-21.553-0.156c-1.535,0-2.824,1.16-2.983,2.688
	c-0.16,1.536,0.872,2.943,2.386,3.251l7.219,1.469v5.963H74.185v-20.109c59.203-0.557,56.269,0.072,57.444-2.075
	c0.652-1.192,0.396-2.258-0.302-3.373c-1.008-1.607-4.646-2.415-8.347-3.429c-0.608-0.166,3.013-0.106-55.79-0.105
	c-5.602,0.127-11.254,2.317-11.254,6.926v24.351c0,5.402,11.835,6.586,16.395,6.586h52.066
	C124.399,252.877,124.534,252.866,124.895,252.866z"/>
<path d="M197.076,296.346c5.997,0,6.963,0.297,8.107-1.097c0.322-0.392,0.672-0.773,0.869-1.185c0,0,9.259-11.939,11.082-14.29
	c7.361,9.167-7.664-9.537,12.248,15.246c0.539,0.671,1.34,1.078,2.2,1.118l7.563,0.347c0.046,0.002,0.092,0.003,0.138,0.003
	c0.871,0,1.702-0.379,2.273-1.043l3.539-4.112c0.034-0.036,0.067-0.075,0.1-0.114l1.701-1.976l1.967-1.967l5.878-5.537
	l17.608-17.101c0.878-0.85,1.152-2.147,0.694-3.281c-0.458-1.133-1.559-1.874-2.781-1.874c-9.761,0-10.137-0.263-11.279,0.889
	l-21.559,21.767c-18-21.232-17.335-21.425-20.028-21.298l-0.003,0.013c-0.046-0.002-0.089-0.017-0.135-0.017
	c-11.128,0-12.492-0.513-13.479,1.838c-0.985,2.346,0.758,3.399,5.238,7.969c-1.69,2.318-5.639,7.745-7.58,10.319
	c-0.23,0.307-0.83,1.179-1.213,1.179c-0.139,0-0.402-0.152-0.781-0.453c-24.154-23.602-22.675-22.617-24.381-22.617
	c-10.076,0.044-11.617-0.47-12.585,1.914c-0.458,1.127-0.19,2.418,0.678,3.27C197.848,298.308,195.376,296.346,197.076,296.346z"/>
<path d="M347.86,261.875v31.864c0,1.657,1.343,3,3,3h12.248c1.657,0,3-1.343,3-3c0-15.658,0-11.364,0-26.084h33.159v5.762
	l-23.915,0.29c-1.354,0.017-2.529,0.938-2.868,2.25c-0.338,1.312,0.244,2.688,1.42,3.357c32.211,18.336,30.268,17.424,31.403,17.424
	h13.162c1.354,0,2.541-0.907,2.895-2.215c0.355-1.307-0.211-2.689-1.38-3.374l-17.018-9.964c5.152-0.004,14.549-0.14,14.549-5.59
	c0-9.815,0.647-10.724-1.466-13.158c-0.623-0.724-1.683-1.688-2.621-1.939c-7.805-2.077,7.835-1.624-62.568-1.624
	C349.204,258.875,347.86,260.218,347.86,261.875z"/>
<path d="M373.222,224.677c0.103-2.591,0.165-4.155-1.524-6.1c-0.625-0.724-1.69-1.693-2.622-1.94
	c-2.133-0.569-3.364-1.624-6.896-1.624h-55.671c-1.657,0-3,1.343-3,3v31.864c0,1.657,1.343,3,3,3h12.249c1.657,0,3-1.343,3-3v-9.987
	v-8.282v-2.899v-4.915h33.158v5.762L331,229.846c-1.354,0.017-2.529,0.938-2.868,2.25c-0.338,1.311,0.244,2.688,1.42,3.357
	c32.211,18.337,30.267,17.424,31.402,17.424h13.163c3.045,0,4.149-4.047,1.516-5.589l-17.017-9.964
	C375.746,237.31,372.881,233.271,373.222,224.677z"/>
<path d="M492.499,155.047H273.501c-4.142,0-7.5,3.357-7.5,7.5c0,4.143,3.358,7.5,7.5,7.5h218.997c2.481,0,4.5,2.018,4.5,4.5v67.063
	c0,4.143,3.358,7.5,7.5,7.5s7.5-3.357,7.5-7.5v-67.063C512,163.795,503.251,155.047,492.499,155.047z"/>
<path d="M504.5,269.113c-4.142,0-7.5,3.357-7.5,7.5v60.84c0,2.481-2.019,4.5-4.5,4.5H19.501c-2.481,0-4.5-2.019-4.5-4.5V174.548
	c0-2.482,2.019-4.5,4.5-4.5h218.997c4.142,0,7.5-3.357,7.5-7.5c0-4.143-3.358-7.5-7.5-7.5H19.501C8.749,155.047,0,163.795,0,174.548
	v162.904c0,10.753,8.749,19.501,19.501,19.501h472.998c10.753,0,19.501-8.749,19.501-19.501v-60.84
	C512,272.47,508.642,269.113,504.5,269.113z"/>
<g>
</g>
<g>
</g>
<g>
</g>
<g>
</g>
<g>
</g>
<g>
</g>
<g>
</g>
<g>
</g>
<g>
</g>
<g>
</g>
<g>
</g>
<g>
</g>
<g>
</g>
<g>
</g>
<g>
</g>
</svg>
