<svg width="30" height="30" viewBox="0 0 30 30" fill="none" xmlns="http://www.w3.org/2000/svg">
<path d="M29.0027 13.4072L16.0804 0.555003C15.9039 0.379062 15.6942 0.239472 15.4634 0.144239C15.2326 0.0490054 14.9851 0 14.7352 0C14.4854 0 14.2379 0.0490054 14.0071 0.144239C13.7763 0.239472 13.5666 0.379062 13.39 0.555003L10.7048 3.22672L14.1068 6.6116C14.5079 6.47441 14.9398 6.45237 15.353 6.54798C15.7662 6.6436 16.1439 6.853 16.4431 7.15225C16.7422 7.45151 16.9506 7.82851 17.0445 8.24012C17.1383 8.65172 17.1138 9.0813 16.9738 9.47969L20.2511 12.7457C20.7407 12.5778 21.2733 12.5819 21.7602 12.7574C22.247 12.9329 22.6588 13.2691 22.9268 13.71C23.1947 14.1509 23.3027 14.6698 23.2327 15.1803C23.1628 15.6909 22.919 16.1621 22.5422 16.5155C22.1654 16.8689 21.6782 17.0831 21.1618 17.1224C20.6455 17.1618 20.1312 17.0238 19.7047 16.7316C19.2782 16.4394 18.9652 16.0105 18.818 15.5166C18.6707 15.0226 18.6981 14.4933 18.8955 14.017L15.8363 10.9732V18.9832C16.0582 19.0896 16.2602 19.2329 16.4336 19.4069C16.7518 19.7225 16.9687 20.1248 17.0569 20.5631C17.145 21.0014 17.1005 21.4558 16.929 21.8689C16.7574 22.282 16.4665 22.6351 16.0931 22.8836C15.7197 23.1321 15.2806 23.2647 14.8313 23.2647C14.3821 23.2647 13.943 23.1321 13.5696 22.8836C13.1962 22.6351 12.9052 22.282 12.7337 21.8689C12.5621 21.4558 12.5176 21.0014 12.6058 20.5631C12.694 20.1248 12.9109 19.7225 13.229 19.4069C13.441 19.1954 13.6936 19.0284 13.9717 18.916V10.8543C13.6936 10.7419 13.441 10.5749 13.229 10.3634C12.9114 10.0468 12.6955 9.64352 12.6086 9.20467C12.5217 8.76582 12.5677 8.31116 12.7408 7.89837L9.38559 4.56001L0.556091 13.371C0.199915 13.7273 0 14.2095 0 14.712C0 15.2146 0.199915 15.6967 0.556091 16.0531L13.4576 28.8846C13.8157 29.239 14.3002 29.4379 14.8053 29.4379C15.3104 29.4379 15.795 29.239 16.1531 28.8846L29.0131 16.0944C29.3692 15.7381 29.5691 15.2559 29.5691 14.7534C29.5691 14.2508 29.3692 13.7687 29.0131 13.4124" fill="#F05133"/>
</svg>
