<svg height="512pt" viewBox="-40 0 512 512.001" width="512pt" xmlns="http://www.w3.org/2000/svg"><path d="m313.394531 7.5h-241.738281c-11.046875 0-20.003906 8.957031-20.003906 20.003906v456.992188c0 11.046875 8.957031 20.003906 20.003906 20.003906h333.773438c11.046874 0 20.003906-8.957031 20.003906-20.003906v-373.347656zm0 0" fill="#e7e7e7"/><path d="m425.4375 111.152344v373.347656c0 11.042969-8.964844 20.003906-20.003906 20.003906h-26.074219c11.050781 0 20.003906-8.960937 20.003906-20.003906v-397.472656zm0 0" fill="#cecece"/><path d="m313.394531 7.5v83.929688c0 11.046874 8.957031 20.003906 20.003907 20.003906h92.035156zm0 0" fill="#acacac"/><path d="m258.714844 257.269531h-232.285156c-10.453126 0-18.929688-8.472656-18.929688-18.925781v-89.597656c0-10.453125 8.476562-18.925782 18.929688-18.925782h232.285156c10.453125 0 18.929687 8.472657 18.929687 18.925782v89.597656c0 10.453125-8.476562 18.925781-18.929687 18.925781zm0 0" fill="#ff6b81"/><path d="m277.640625 148.75v89.59375c0 10.453125-8.472656 18.925781-18.925781 18.925781h-20.175782c10.453126 0 18.925782-8.472656 18.925782-18.925781v-89.59375c0-10.453125-8.472656-18.933594-18.925782-18.933594h20.175782c10.453125 0 18.925781 8.480469 18.925781 18.933594zm0 0" fill="#ff435f"/><path d="m73.003906 195.183594h-24.261718v29.425781c0 2.242187-2.535157 3.410156-5.164063 3.410156-2.535156 0-5.167969-1.167969-5.167969-3.410156v-64.507813c0-2.339843 2.632813-3.3125 5.167969-3.3125 2.628906 0 5.164063.972657 5.164063 3.3125v26.894532h24.261718v-26.894532c0-2.339843 2.632813-3.3125 5.167969-3.3125 2.628906 0 5.164063.972657 5.164063 3.3125v64.507813c0 2.242187-2.535157 3.410156-5.164063 3.410156-2.535156 0-5.167969-1.167969-5.167969-3.410156zm0 0"/><path d="m134.976562 156.789062c2.335938 0 3.410157 2.339844 3.410157 4.578126 0 2.535156-1.167969 4.875-3.410157 4.875h-15.007812v58.367187c0 2.242187-2.628906 3.410156-5.164062 3.410156-2.632813 0-5.164063-1.167969-5.164063-3.410156v-58.367187h-15.105469c-2.144531 0-3.410156-2.242188-3.410156-4.777344 0-2.242188 1.074219-4.675782 3.410156-4.675782zm0 0"/><path d="m176.871094 202.003906c-1.070313 1.753906-2.4375 2.335938-3.800782 2.335938-1.265624 0-2.628906-.582032-3.503906-2.335938l-13.058594-24.753906v47.359375c0 2.242187-2.535156 3.410156-5.167968 3.410156-2.53125 0-5.164063-1.167969-5.164063-3.410156v-62.65625c0-3.800781 2.535157-5.164063 5.164063-5.164063 3.703125 0 5.75 1.265626 8.1875 5.847657l13.640625 25.820312 13.839843-25.820312c2.433594-4.582031 4.382813-5.847657 8.085938-5.847657 2.730469 0 5.164062 1.363282 5.164062 5.164063v62.65625c0 2.242187-2.53125 3.410156-5.164062 3.410156-2.53125 0-5.164062-1.167969-5.164062-3.410156v-46.773437zm0 0"/><path d="m217.699219 228.019531c-2.242188 0-4.582031-1.167969-4.582031-3.410156v-64.507813c0-2.339843 2.632812-3.3125 5.167968-3.3125 2.628906 0 5.164063.972657 5.164063 3.3125v58.757813h25.335937c2.046875 0 3.117188 2.242187 3.117188 4.582031 0 2.242188-1.070313 4.578125-3.117188 4.578125zm0 0"/><path d="m430.527344 105.644531c-7.644532-7.070312-15.285156-14.140625-22.929688-21.210937-19.414062-17.960938-38.824218-35.917969-58.234375-53.878906-7.621093-7.046876-15.238281-14.09375-22.855469-21.140626-3.382812-3.128906-8.175781-9.320312-12.996093-9.41015575-.039063 0-.078125-.00390625-.117188-.00390625h-241.738281c-15.164062 0-27.503906 12.339844-27.503906 27.503906v94.8125h-17.722656c-14.574219 0-26.429688 11.855469-26.429688 26.429688v89.597656c0 14.570312 11.855469 26.425781 26.429688 26.425781h17.722656v56.035157c0 4.140624 3.359375 7.5 7.5 7.5 4.144531 0 7.503906-3.359376 7.503906-7.5v-56.035157h199.5625c14.570312 0 26.425781-11.855469 26.425781-26.425781v-89.597656c0-14.574219-11.855469-26.429688-26.425781-26.429688h-84.257812c-4.140626 0-7.5 3.359375-7.5 7.503906 0 4.140626 3.359374 7.5 7.5 7.5h84.257812c6.296875 0 11.421875 5.125 11.421875 11.425782v89.597656c0 6.296875-5.125 11.421875-11.421875 11.421875h-232.289062c-6.300782 0-11.425782-5.125-11.425782-11.421875v-89.597656c0-6.300782 5.125-11.425782 11.425782-11.425782h102.355468c4.144532 0 7.503906-3.359374 7.503906-7.5 0-4.144531-3.359374-7.503906-7.503906-7.503906h-69.628906v-94.8125c0-6.894531 5.605469-12.5 12.5-12.5h234.238281v76.425782c0 15.167968 12.335938 27.503906 27.503907 27.503906h84.53125v365.5625c0 6.894531-5.605469 12.503906-12.5 12.503906h-333.773438c-6.894531 0-12.5-5.609375-12.5-12.503906v-116.019532c0-4.140624-3.359375-7.5-7.503906-7.5-4.140625 0-7.5 3.359376-7.5 7.5v116.019532c0 15.167968 12.339844 27.503906 27.503906 27.503906h333.773438c15.164062 0 27.503906-12.335938 27.503906-27.503906v-373.347656c0-2.089844-.875-4.085938-2.40625-5.503907zm-97.128906-1.714843c-6.894532 0-12.503907-5.605469-12.503907-12.5v-66.738282l85.421875 79.238282zm0 0"/><path d="m197.222656 292.429688c-2.925781-2.929688-7.675781-2.929688-10.605468 0l-47.007813 47.007812c-2.929687 2.929688-2.929687 7.679688 0 10.609375l47.007813 47.007813c1.464843 1.464843 3.382812 2.195312 5.304687 2.195312 1.917969 0 3.839844-.730469 5.300781-2.195312 2.929688-2.929688 2.929688-7.679688 0-10.609376l-41.703125-41.703124 41.703125-41.707032c2.929688-2.925781 2.929688-7.675781 0-10.605468zm0 0"/><path d="m279.859375 397.054688c1.464844 1.464843 3.386719 2.195312 5.304687 2.195312 1.921876 0 3.839844-.730469 5.304688-2.195312l47.007812-47.007813c2.929688-2.929687 2.929688-7.679687 0-10.609375l-47.007812-47.007812c-2.929688-2.929688-7.679688-2.929688-10.609375 0-2.925781 2.929687-2.925781 7.679687 0 10.605468l41.707031 41.707032-41.707031 41.703124c-2.929687 2.929688-2.929687 7.679688 0 10.609376zm0 0"/><path d="m220.074219 399.253906c2.992187 0 5.824219-1.804687 6.984375-4.761718l36.933594-94.015626c1.515624-3.855468-.382813-8.210937-4.238282-9.726562-3.855468-1.515625-8.210937.382812-9.726562 4.238281l-36.933594 94.019531c-1.515625 3.855469.382812 8.207032 4.238281 9.722657.902344.355469 1.828125.523437 2.742188.523437zm0 0"/></svg>