<svg height="496pt" viewBox="0 0 496 496" width="496pt" xmlns="http://www.w3.org/2000/svg"><path d="m176 296v-169.609375c0-29.703125 11.800781-58.191406 32.808594-79.191406l39.191406-39.199219 39.191406 39.191406c21.007813 21.007813 32.808594 49.496094 32.808594 79.199219v169.609375" fill="#bab8b9"/><path d="m244 12-35.191406 35.191406c-21.007813 21.007813-32.808594 49.496094-32.808594 79.199219v153.609375h120v-169.609375c0-29.703125-11.800781-58.191406-32.808594-79.191406zm0 0" fill="#d9d7d8"/><path d="m287.191406 47.191406-39.191406-39.191406-39.191406 39.191406c-7.097656 7.097656-13.046875 15.105469-17.945313 23.664063l1.136719 1.144531 15.601562 15.601562c10.503907 10.503907 24.742188 16.398438 39.597657 16.398438h1.609375c14.855468 0 29.09375-5.894531 39.597656-16.398438l15.59375-15.601562 1.136719-1.136719c-4.898438-8.566406-10.839844-16.566406-17.945313-23.671875zm0 0" fill="#ca5057"/><path d="m265.535156 87.601562 16.738282-16.738281c-4.898438-8.566406-10.839844-16.566406-17.945313-23.664062l-27.769531-27.765625-27.765625 27.765625c-7.097657 7.097656-13.050781 15.105469-17.945313 23.664062l1.152344 1.136719 15.601562 15.601562c7.957032 7.957032 18.070313 13.261719 28.964844 15.367188 10.898438-2.113281 21.007813-7.410156 28.96875-15.367188zm0 0" fill="#dc6068"/><path d="m176 216-64 80h64" fill="#575c61"/><path d="m176 296v-48l-38.398438 48zm0 0" fill="#5b6673"/><path d="m320 216 64 80h-64" fill="#575c61"/><path d="m320 248v48h38.398438zm0 0" fill="#5b6673"/><path d="m160 296h176v32h-176zm0 0" fill="#bab8b9"/><path d="m160 296h136v32h-136zm0 0" fill="#d9d7d8"/><path d="m224 328h48v80h-48zm0 0" fill="#df9363"/><path d="m224 328h48v72h-48zm0 0" fill="#5789d6"/><path d="m224 328h48v40h-48zm0 0" fill="#699ce6"/><path d="m192 344h32v24h-32zm0 0" fill="#df9363"/><path d="m192 328h32v32h-32zm0 0" fill="#ca5057"/><path d="m272 344h32v24h-32zm0 0" fill="#df9363"/><path d="m272 328h32v32h-32zm0 0" fill="#ca5057"/><path d="m176 264h32v-48h-32" fill="#eebc5a"/><path d="m176 264h16v-48h-16" fill="#f8cf6a"/><path d="m320 216h-32v-48h32" fill="#eebc5a"/><path d="m304 216h-16v-48h16" fill="#f8cf6a"/><path d="m168 488c10.488281 0 19.3125-6.769531 22.574219-16.144531.480469.03125.9375.144531 1.425781.144531 13.257812 0 24-10.742188 24-24 0-11.328125-7.871094-20.761719-18.425781-23.28125 1.503906-3.964844 2.425781-8.222656 2.425781-12.71875 0-19.878906-16.121094-36-36-36-4.367188 0-8.496094.894531-12.367188 2.320312-2.816406-23.832031-23.046874-42.320312-47.632812-42.320312-15 0-28.382812 6.886719-37.183594 17.664062-3.464844-.976562-7.039062-1.664062-10.816406-1.664062-22.089844 0-40 17.910156-40 40 0 9.054688 3.121094 17.3125 8.199219 24.015625-9.785157 7.296875-16.199219 18.847656-16.199219 31.984375 0 22.089844 17.910156 40 40 40" fill="#bab8b9"/><path d="m168 488c10.488281 0 19.3125-6.769531 22.574219-16.144531.480469.03125.9375.144531 1.425781.144531 13.257812 0 24-10.742188 24-24 0-11.328125-7.871094-20.761719-18.425781-23.28125 1.503906-3.964844 2.425781-8.222656 2.425781-12.71875 0-19.878906-16.121094-36-36-36-4.367188 0-8.496094.894531-12.367188 2.320312-2.816406-23.832031-23.046874-42.320312-47.632812-42.320312-15 0-28.382812 6.886719-37.183594 17.664062-3.464844-.976562-7.039062-1.664062-10.816406-1.664062-22.089844 0-40 17.910156-40 40 0 9.054688 3.121094 17.3125 8.199219 24.015625-9.785157 7.296875-16.199219 18.847656-16.199219 31.984375 0 22.089844 17.910156 40 40 40" fill="#bab8b9"/><path d="m216 448c0-11.328125-7.871094-20.761719-18.425781-23.28125 1.503906-3.964844 2.425781-8.222656 2.425781-12.71875 0-3.609375-.695312-7.03125-1.679688-10.320312-3.289062-.984376-6.710937-1.679688-10.320312-1.679688-4.367188 0-8.496094.894531-12.367188 2.320312-1.191406-10.089843-5.640624-19.097656-12.082031-26.273437-4.191406.066406-8.183593.90625-11.917969 2.273437-.585937-4.960937-2.082031-9.601562-4.058593-13.984374-6-2.695313-12.566407-4.335938-19.574219-4.335938-15 0-28.382812 6.886719-37.183594 17.664062-3.464844-.976562-7.039062-1.664062-10.816406-1.664062-22.089844 0-40 17.910156-40 40 0 9.054688 3.121094 17.3125 8.199219 24.015625-9.785157 7.296875-16.199219 18.847656-16.199219 31.984375 0 4.761719.976562 9.265625 2.503906 13.496094 4.230469 1.527344 8.734375 2.503906 13.496094 2.503906h120c10.488281 0 19.3125-6.769531 22.574219-16.144531.480469.03125.9375.144531 1.425781.144531 13.257812 0 24-10.742188 24-24zm0 0" fill="#d9d7d8"/><path d="m328 488c-10.488281 0-19.3125-6.769531-22.574219-16.144531-.480469.03125-.9375.144531-1.425781.144531-13.257812 0-24-10.742188-24-24 0-11.328125 7.871094-20.761719 18.425781-23.28125-1.503906-3.964844-2.425781-8.222656-2.425781-12.71875 0-19.878906 16.121094-36 36-36 4.367188 0 8.496094.894531 12.367188 2.320312 2.816406-23.832031 23.046874-42.320312 47.632812-42.320312 15 0 28.382812 6.886719 37.183594 17.664062 3.464844-.976562 7.039062-1.664062 10.816406-1.664062 22.089844 0 40 17.910156 40 40 0 9.054688-3.121094 17.3125-8.199219 24.015625 9.785157 7.296875 16.199219 18.847656 16.199219 31.984375 0 22.089844-17.910156 40-40 40" fill="#bab8b9"/><path d="m280 448c0-11.328125 7.871094-20.761719 18.425781-23.28125-1.503906-3.964844-2.425781-8.222656-2.425781-12.71875 0-3.609375.695312-7.03125 1.679688-10.320312 3.289062-.984376 6.710937-1.679688 10.320312-1.679688 4.367188 0 8.496094.894531 12.367188 2.320312 1.191406-10.089843 5.640624-19.097656 12.082031-26.273437 4.191406.066406 8.183593.90625 11.917969 2.273437.585937-4.960937 2.082031-9.601562 4.058593-13.984374 6-2.695313 12.566407-4.335938 19.574219-4.335938 15 0 28.382812 6.886719 37.183594 17.664062 3.464844-.976562 7.039062-1.664062 10.816406-1.664062 22.089844 0 40 17.910156 40 40 0 9.054688-3.121094 17.3125-8.199219 24.015625 9.785157 7.296875 16.199219 18.847656 16.199219 31.984375 0 4.761719-.976562 9.265625-2.503906 13.496094-4.230469 1.527344-8.734375 2.503906-13.496094 2.503906h-120c-10.488281 0-19.3125-6.769531-22.574219-16.144531-.480469.03125-.9375.144531-1.425781.144531-13.257812 0-24-10.742188-24-24zm0 0" fill="#d9d7d8"/><path d="m328 296h-16v-169.609375c0-27.773437-10.816406-53.894531-30.464844-73.535156l-33.535156-33.542969-33.535156 33.535156c-19.648438 19.648438-30.464844 45.769532-30.464844 73.542969v169.609375h-16v-169.609375c0-32.046875 12.480469-62.183594 35.152344-84.847656l39.191406-39.191407c3.128906-3.128906 8.183594-3.128906 11.3125 0l39.191406 39.191407c22.671875 22.65625 35.152344 52.792969 35.152344 84.847656zm0 0"/><path d="m248.808594 112h-1.609375c-17.09375 0-33.167969-6.65625-45.253907-18.742188l-15.601562-15.601562 11.3125-11.3125 15.601562 15.601562c9.0625 9.0625 21.117188 14.054688 33.933594 14.054688h1.609375c12.824219 0 24.871094-4.992188 33.941407-14.054688l15.601562-15.601562 11.3125 11.3125-15.601562 15.601562c-12.078126 12.085938-28.160157 18.742188-45.246094 18.742188zm0 0"/><path d="m336 336h-176c-4.414062 0-8-3.585938-8-8v-32c0-4.414062 3.585938-8 8-8h176c4.414062 0 8 3.585938 8 8v32c0 4.414062-3.585938 8-8 8zm-168-16h160v-16h-160zm0 0"/><path d="m208 272h-32v-16h24v-32h-24v-16h32c4.414062 0 8 3.585938 8 8v48c0 4.414062-3.585938 8-8 8zm0 0"/><path d="m320 224h-32c-4.414062 0-8-3.585938-8-8v-48c0-4.414062 3.585938-8 8-8h32v16h-24v32h24zm0 0"/><path d="m240 128h16v16h-16zm0 0"/><path d="m240 160h16v16h-16zm0 0"/><path d="m240 192h16v16h-16zm0 0"/><path d="m216 328h16v64h-16zm0 0"/><path d="m264 328h16v64h-16zm0 0"/><path d="m224 360h48v16h-48zm0 0"/><path d="m184 328h16v24h-16zm0 0"/><path d="m296 328h16v24h-16zm0 0"/><path d="m48 496c-26.472656 0-48-21.527344-48-48 0-12.6875 4.9375-24.542969 13.742188-33.464844-3.773438-6.960937-5.742188-14.632812-5.742188-22.535156 0-26.472656 21.527344-48 48-48 2.617188 0 5.238281.257812 8.03125.792969 10.503906-10.730469 24.800781-16.792969 39.96875-16.792969 24.863281 0 46.671875 16.753906 53.632812 40.0625 27.34375-1.476562 50.367188 20.679688 50.367188 47.9375 0 1.398438-.070312 2.816406-.214844 4.265625 9.917969 5.566406 16.214844 16 16.214844 27.734375 0 17.648438-14.351562 32-32 32v-16c8.824219 0 16-7.175781 16-16 0-7.046875-4.601562-13.167969-11.441406-15.214844-4.046875-1.21875-6.453125-5.371094-5.496094-9.488281.632812-2.679687.9375-5.066406.9375-7.296875 0-17.648438-14.351562-32-32-32-2.191406 0-4.441406.257812-6.871094.785156-2.167968.480469-4.433594.023438-6.25-1.242187-1.824218-1.261719-3.039062-3.214844-3.359375-5.414063-2.871093-19.457031-19.855469-34.128906-39.519531-34.128906-12.054688 0-23.351562 5.367188-30.992188 14.726562-2.015624 2.472657-5.304687 3.519532-8.367187 2.640626-3.304687-.933594-6.046875-1.367188-8.640625-1.367188-17.648438 0-32 14.351562-32 32 0 6.863281 2.273438 13.503906 6.574219 19.191406 1.289062 1.695313 1.832031 3.839844 1.539062 5.953125-.304687 2.113281-1.433593 4.015625-3.144531 5.289063-8.242188 6.152344-12.96875 15.46875-12.96875 25.566406 0 17.648438 14.351562 32 32 32zm0 0"/><path d="m176 432h-16c0-8.824219-7.175781-16-16-16v-16c17.648438 0 32 14.351562 32 32zm0 0"/><path d="m104 408h-16c0-8.824219-7.175781-16-16-16s-16 7.175781-16 16h-16c0-17.648438 14.351562-32 32-32s32 14.351562 32 32zm0 0"/><path d="m72 464c-17.648438 0-32-14.351562-32-32h16c0 8.824219 7.175781 16 16 16zm0 0"/><path d="m448 496v-16c17.648438 0 32-14.351562 32-32 0-10.097656-4.726562-19.414062-12.976562-25.566406-1.710938-1.273438-2.839844-3.175782-3.144532-5.289063-.292968-2.113281.257813-4.25 1.535156-5.953125 4.3125-5.6875 6.585938-12.328125 6.585938-19.191406 0-17.648438-14.351562-32-32-32-2.59375 0-5.335938.433594-8.640625 1.367188-3.0625.878906-6.351563-.167969-8.367187-2.640626-7.640626-9.359374-18.9375-14.726562-30.992188-14.726562-19.664062 0-36.648438 14.671875-39.511719 34.136719-.328125 2.191406-1.542969 4.160156-3.367187 5.414062-1.824219 1.265625-4.097656 1.695313-6.257813 1.234375-2.421875-.527344-4.671875-.785156-6.863281-.785156-17.648438 0-32 14.351562-32 32 0 2.230469.304688 4.617188.929688 7.296875.964843 4.117187-1.441407 8.269531-5.496094 9.488281-6.832032 2.046875-11.433594 8.167969-11.433594 15.214844 0 8.824219 7.175781 16 16 16v16c-17.648438 0-32-14.351562-32-32 0-11.734375 6.296875-22.167969 16.214844-27.734375-.144532-1.449219-.214844-2.867187-.214844-4.265625 0-27.257812 22.992188-49.441406 50.367188-47.9375 6.960937-23.308594 28.769531-40.0625 53.632812-40.0625 15.167969 0 29.464844 6.0625 39.96875 16.792969 2.792969-.535157 5.414062-.792969 8.03125-.792969 26.472656 0 48 21.527344 48 48 0 7.902344-1.96875 15.574219-5.742188 22.535156 8.804688 8.921875 13.742188 20.777344 13.742188 33.464844 0 26.472656-21.527344 48-48 48zm0 0"/><path d="m336 432h-16c0-17.648438 14.351562-32 32-32v16c-8.824219 0-16 7.175781-16 16zm0 0"/><path d="m456 408h-16c0-8.824219-7.175781-16-16-16s-16 7.175781-16 16h-16c0-17.648438 14.351562-32 32-32s32 14.351562 32 32zm0 0"/><path d="m424 464v-16c8.824219 0 16-7.175781 16-16h16c0 17.648438-14.351562 32-32 32zm0 0"/><path d="m160 304h-48c-3.070312 0-5.878906-1.761719-7.207031-4.535156-1.335938-2.769532-.960938-6.066406.96875-8.464844l64-80 12.496093 9.992188-53.609374 67.007812h31.351562zm0 0"/><path d="m384 304h-48v-16h31.351562l-53.597656-67 12.492188-9.992188 64 80c1.921875 2.398438 2.296875 5.6875.96875 8.464844-1.335938 2.765625-4.144532 4.527344-7.214844 4.527344zm0 0"/><path d="m120 0h16v96h-16zm0 0"/><path d="m88 64h16v80h-16zm0 0"/><path d="m360 88h16v96h-16zm0 0"/><path d="m392 152h16v80h-16zm0 0"/></svg>
