<svg id="Capa_1" enable-background="new 0 0 512.005 512.005" height="512" viewBox="0 0 512.005 512.005" width="512" xmlns="http://www.w3.org/2000/svg"><g><g><g clip-rule="evenodd" fill-rule="evenodd"><path d="m144.08 504.505h90.577c6.427 0 16.147-7.822 21.328-15.634 5.181 7.812 14.901 15.634 21.328 15.634h90.577c104.681 0 164.236-378.39 41.457-378.39h-82.285c-18.237 0-31.51 24.875-49.75 24.875h-42.657c-18.239 0-31.512-24.875-49.749-24.875h-82.285c-122.777 0-63.222 378.39 41.459 378.39z" fill="#e08ea2"/><path d="m255.985 50.032c53.3 72.142 89.361 38.872 141.538 0-52.176-38.872-88.238-72.142-141.538 0z" fill="#aae79a"/><path d="m255.985 50.032c27.472 37.184 50.365 46.363 73.245 41.206-15.766-3.792-32.214-16.122-50.745-41.206 18.532-25.083 34.979-37.414 50.745-41.205-22.88-5.158-45.772 4.021-73.245 41.205z" fill="#8edf78"/><path d="m144.08 504.505h22.5c-104.681 0-164.236-378.39-41.457-378.39h-22.5c-122.779 0-63.224 378.39 41.457 378.39z" fill="#d15573"/></g><g><path d="m189.08 482.005h-15v-15h15zm-30 0h-15c-20.043 0-38.527-29.725-45.543-42.505l13.148-7.219c11.047 20.12 24.671 34.724 32.395 34.724h15zm293.796-184.898-14.951-1.197c3.89-48.584 1.771-107.297-15.842-126.376-3.729-4.039-7.775-5.92-12.734-5.92h-15v-15h15c9.182 0 17.174 3.615 23.756 10.745 25.581 27.711 22.348 105.563 19.771 137.748zm-73.527-133.493h-15v-15h15zm-33.364-106.082h-15v-15h15z" fill="#fff"/></g></g><g><path d="m468.658 161.492c-13.087-28.051-33.597-42.878-59.31-42.878h-82.285c-11.722 0-21.178 7.464-29.521 14.048-6.8 5.367-13.224 10.438-19.492 10.802l.871 14.975c10.983-.639 19.979-7.738 27.914-14.002 7.052-5.565 13.713-10.822 20.229-10.822h82.285c19.741 0 35.123 11.514 45.717 34.22 10.065 21.573 15.386 52.369 15.386 89.057 0 54.067-11.495 114.627-30.751 161.996-20.18 49.646-46.354 78.118-71.81 78.118h-37.788v15h37.788c32.34 0 62.777-31.064 85.706-87.47 19.946-49.07 31.854-111.741 31.854-167.645 0-38.865-5.806-71.853-16.793-95.399z"/><path d="m263.485 486.477v-16.171h-15v16.171c-4.674 6.116-11.333 10.528-13.829 10.528h-90.576c-13.972 0-27.874-8.169-41.317-24.281-21.504-25.772-40.161-70.611-51.187-123.018-10.952-52.06-13.052-104.888-5.76-144.937l-14.757-2.688c-7.627 41.891-5.499 96.823 5.839 150.713 11.514 54.729 31.323 101.944 54.348 129.539 16.428 19.688 34.204 29.672 52.834 29.672h90.577c7.021 0 15.087-5.092 21.329-11.385 6.241 6.293 14.308 11.385 21.328 11.385h37.789v-15h-37.789c-2.496 0-9.154-4.412-13.829-10.528z"/><path d="m102.623 133.614h82.285c6.516 0 13.176 5.257 20.228 10.822 7.937 6.264 16.932 13.363 27.916 14.002l.871-14.975c-6.27-.364-12.693-5.435-19.494-10.802-8.343-6.585-17.799-14.048-29.521-14.048h-82.285c-23.003 0-53.512 11.845-68.223 68.271l14.515 3.784c9.869-37.858 27.939-57.054 53.708-57.054z"/><path d="m248.485 22.505v150.984h-22.5v15h60v-15h-22.5v-102.423c15.519 16.958 30.551 26.107 46.407 28.423 2.67.39 5.313.576 7.936.576 25.579 0 49.207-17.757 76.169-38.02 2.629-1.975 16.079-12.013 16.079-12.013s-13.451-10.038-16.08-12.014c-29.726-22.34-55.399-41.633-84.104-37.442-15.857 2.315-30.888 11.464-46.407 28.422v-6.494c0-12.406-10.093-22.5-22.5-22.5h-22.5v15h22.5c4.136.001 7.5 3.365 7.5 7.501zm63.575-7.087c22.527-3.282 44.766 13.428 72.926 34.592.01.007.02.015.03.022-.01.008-.02.015-.029.022-28.162 21.162-50.396 37.883-72.927 34.591-13.07-1.909-26.406-10.813-40.519-27.113h44.445v-15h-44.446c14.114-16.3 27.449-25.205 40.52-27.114z"/><path d="m263.485 307.81h15v15h-15z"/><path d="m233.485 307.81h15v15h-15z"/></g></g></svg>