<svg height="512" viewBox="0 0 128 128" width="512" xmlns="http://www.w3.org/2000/svg"><g><g><path d="m15.35 79.75h97.3v24.06h-97.3z" fill="#8bae2a"/><path d="m121.5 60.999h-5v12h5v13.122h-115v-13.122h5v-12h-5v-36.808h115z" fill="#afdb35"/><g fill="#eaeaf0"><g><path d="m56.871 36.251h14.258v20h-14.258z"/><g><path d="m81.332 36.251h14.258v20h-14.258z"/><path d="m32.41 36.251h14.258v20h-14.258z"/></g></g><g><circle cx="109.5" cy="46.251" r="3"/><circle cx="18.346" cy="46.251" r="3"/></g></g></g><g fill="#2d1418"><path d="m121.5 36.834a1.75 1.75 0 0 0 -1.75 1.75v3a1.75 1.75 0 0 0 3.5 0v-3a1.75 1.75 0 0 0 -1.75-1.75z"/><path d="m121.5 22.441h-115a1.75 1.75 0 0 0 -1.75 1.75v36.809a1.75 1.75 0 0 0 1.75 1.75h3.25v8.5h-3.25a1.749 1.749 0 0 0 -1.75 1.75v13.121a1.75 1.75 0 0 0 1.75 1.75h104.4v14.189h-8.66v-7.1a1.75 1.75 0 0 0 -3.5 0v7.1h-8.663v-7.1a1.75 1.75 0 0 0 -3.5 0v7.1h-8.664v-7.1a1.75 1.75 0 0 0 -3.5 0v7.1h-8.663v-7.1a1.75 1.75 0 0 0 -3.5 0v7.1h-8.663v-7.1a1.75 1.75 0 0 0 -3.5 0v7.1h-8.664v-7.1a1.75 1.75 0 0 0 -3.5 0v7.1h-8.663v-7.1a1.75 1.75 0 0 0 -3.5 0v7.1h-8.66v-9.1a1.75 1.75 0 0 0 -3.5 0v10.85a1.75 1.75 0 0 0 1.75 1.75h97.3a1.75 1.75 0 0 0 1.75-1.75v-15.939h7.1a1.75 1.75 0 0 0 1.75-1.75v-13.121a1.749 1.749 0 0 0 -1.75-1.75h-3.25v-8.5h3.25a1.75 1.75 0 0 0 1.75-1.75v-13.083a1.75 1.75 0 0 0 -3.5 0v11.333h-3.25a1.749 1.749 0 0 0 -1.75 1.75v12a1.75 1.75 0 0 0 1.75 1.75h3.25v9.621h-111.5v-9.621h3.25a1.75 1.75 0 0 0 1.75-1.75v-12a1.749 1.749 0 0 0 -1.75-1.75h-3.25v-33.309h111.5v6.226a1.75 1.75 0 0 0 3.5 0v-7.976a1.75 1.75 0 0 0 -1.75-1.75z"/><path d="m32.41 78.871h63.18a1.75 1.75 0 0 0 0-3.5h-63.18a1.75 1.75 0 1 0 0 3.5z"/><path d="m56.871 49.75a1.75 1.75 0 0 0 -1.75 1.75v4.751a1.75 1.75 0 0 0 1.75 1.749h14.258a1.75 1.75 0 0 0 1.75-1.75v-20a1.75 1.75 0 0 0 -1.75-1.75h-14.258a1.75 1.75 0 0 0 -1.75 1.75v7a1.75 1.75 0 0 0 3.5 0v-5.25h10.758v16.5h-10.758v-3a1.75 1.75 0 0 0 -1.75-1.75z"/><path d="m97.34 36.251a1.75 1.75 0 0 0 -1.75-1.75h-14.258a1.75 1.75 0 0 0 -1.75 1.75v20a1.75 1.75 0 0 0 1.75 1.749h14.258a1.75 1.75 0 0 0 1.75-1.75zm-3.5 18.249h-10.758v-16.5h10.758z"/><path d="m32.41 58h14.258a1.75 1.75 0 0 0 1.75-1.75v-20a1.75 1.75 0 0 0 -1.75-1.75h-14.258a1.75 1.75 0 0 0 -1.75 1.75v20a1.75 1.75 0 0 0 1.75 1.75zm1.75-20h10.758v16.5h-10.758z"/><path d="m104.75 46.251a4.75 4.75 0 1 0 4.75-4.75 4.756 4.756 0 0 0 -4.75 4.75zm6 0a1.25 1.25 0 1 1 -1.25-1.251 1.252 1.252 0 0 1 1.25 1.251z"/><path d="m13.6 46.251a4.75 4.75 0 1 0 4.75-4.75 4.756 4.756 0 0 0 -4.75 4.75zm6 0a1.25 1.25 0 1 1 -1.254-1.251 1.252 1.252 0 0 1 1.254 1.251z"/></g></g></svg>