<svg width="512" height="512" viewBox="0 0 512 512" fill="none" xmlns="http://www.w3.org/2000/svg">
<g clip-path="url(#clip0)">
<path d="M475.733 245.333C475.733 252.672 475.392 259.947 474.709 267.115C473.707 277.867 490.432 297.728 488 308.011C485.845 317.12 464.661 316.693 461.461 325.355C428.949 413.141 344.448 475.733 245.333 475.733C118.08 475.733 14.9333 372.587 14.9333 245.333C14.9333 118.08 118.08 14.9333 245.333 14.9333C372.587 14.9333 475.733 118.08 475.733 245.333V245.333Z" fill="#FFD54F"/>
<path d="M149.333 205.227C168.42 205.227 183.893 189.754 183.893 170.667C183.893 151.58 168.42 136.107 149.333 136.107C130.246 136.107 114.773 151.58 114.773 170.667C114.773 189.754 130.246 205.227 149.333 205.227Z" fill="#6D4C41"/>
<path d="M362.667 205.227C381.754 205.227 397.227 189.754 397.227 170.667C397.227 151.58 381.754 136.107 362.667 136.107C343.58 136.107 328.107 151.58 328.107 170.667C328.107 189.754 343.58 205.227 362.667 205.227Z" fill="#6D4C41"/>
<path d="M245.333 490.667C110.059 490.667 0 380.608 0 245.333C0 110.059 110.059 0 245.333 0C380.608 0 490.667 110.059 490.667 245.333C490.667 253.419 490.219 261.525 489.323 269.611C488.363 278.4 480.725 284.672 471.659 283.755C462.891 282.773 456.555 274.859 457.536 266.091C458.304 259.157 458.688 252.267 458.688 245.333C458.688 127.701 362.987 32 245.355 32C127.723 32 32.0213 127.701 32.0213 245.333C32.0213 362.965 127.723 458.667 245.355 458.667C333.931 458.667 411.968 405.376 444.139 322.923C447.339 314.688 456.64 310.677 464.853 313.835C473.088 317.035 477.163 326.315 473.941 334.549C436.907 429.376 347.179 490.667 245.333 490.667V490.667Z" fill="black"/>
<path d="M149.333 213.333C125.803 213.333 106.667 194.197 106.667 170.667C106.667 147.136 125.803 128 149.333 128C172.864 128 192 147.136 192 170.667C192 194.197 172.864 213.333 149.333 213.333ZM149.333 160C143.467 160 138.667 164.779 138.667 170.667C138.667 176.555 143.467 181.333 149.333 181.333C155.2 181.333 160 176.555 160 170.667C160 164.779 155.2 160 149.333 160Z" fill="black"/>
<path d="M362.667 213.333C339.136 213.333 320 194.197 320 170.667C320 147.136 339.136 128 362.667 128C386.197 128 405.333 147.136 405.333 170.667C405.333 194.197 386.197 213.333 362.667 213.333ZM362.667 160C356.8 160 352 164.779 352 170.667C352 176.555 356.8 181.333 362.667 181.333C368.533 181.333 373.333 176.555 373.333 170.667C373.333 164.779 368.533 160 362.667 160Z" fill="black"/>
<path d="M214.656 384.709C218.752 384.709 222.848 386.267 225.963 389.403C242.709 406.149 271.915 406.149 288.661 389.403C294.891 383.173 305.024 383.131 311.296 389.403C317.547 395.632 317.547 405.787 311.296 412.037C282.453 440.901 232.171 440.901 203.328 412.037C197.077 405.787 197.077 395.653 203.328 389.403C206.485 386.288 210.581 384.709 214.656 384.709Z" fill="black"/>
<path d="M469.333 341.333H250.667C241.835 341.333 234.667 334.165 234.667 325.333C234.667 316.501 241.835 309.333 250.667 309.333H469.333C475.2 309.333 480 304.555 480 298.667C480 292.779 475.2 288 469.333 288H250.667C241.835 288 234.667 280.832 234.667 272C234.667 263.168 241.835 256 250.667 256H469.333C492.864 256 512 275.136 512 298.667C512 322.197 492.864 341.333 469.333 341.333Z" fill="black"/>
</g>
<defs>
<clipPath id="clip0">
<rect width="512" height="512" fill="white"/>
</clipPath>
</defs>
</svg>
