<svg enable-background="new 0 0 24 24" height="512" viewBox="0 0 24 24" width="512" xmlns="http://www.w3.org/2000/svg"><path d="m22.3 11.5c0 .344-.016.685-.048 1.021-.047.504.737 1.435.623 1.917-.101.427-1.094.407-1.244.813-1.524 4.115-5.485 7.049-10.131 7.049-5.965 0-10.8-4.835-10.8-10.8s4.835-10.8 10.8-10.8 10.8 4.835 10.8 10.8z" fill="#ffd54f"/><circle cx="7" cy="8" fill="#6d4c41" r="1.62"/><circle cx="17" cy="8" fill="#6d4c41" r="1.62"/><path d="m11.5 23c-6.341 0-11.5-5.159-11.5-11.5s5.159-11.5 11.5-11.5 11.5 5.159 11.5 11.5c0 .379-.021.759-.063 1.138-.045.412-.403.706-.828.663-.411-.046-.708-.417-.662-.828.036-.325.054-.648.054-.973 0-5.514-4.486-10-10-10s-10 4.486-10 10 4.486 10 10 10c4.152 0 7.81-2.498 9.318-6.363.15-.386.586-.574.971-.426.386.15.577.585.426.971-1.736 4.445-5.942 7.318-10.716 7.318z"/><path d="m7 10c-1.103 0-2-.897-2-2s.897-2 2-2 2 .897 2 2-.897 2-2 2zm0-2.5c-.275 0-.5.224-.5.5s.225.5.5.5.5-.224.5-.5-.225-.5-.5-.5z"/><path d="m17 10c-1.103 0-2-.897-2-2s.897-2 2-2 2 .897 2 2-.897 2-2 2zm0-2.5c-.275 0-.5.224-.5.5s.225.5.5.5.5-.224.5-.5-.225-.5-.5-.5z"/><path d="m14.061 20.329c-.192 0-.384-.073-.53-.22-.785-.785-2.154-.785-2.939 0-.292.292-.767.294-1.061 0-.293-.292-.293-.768 0-1.061 1.352-1.353 3.709-1.353 5.061 0 .293.293.293.768 0 1.061-.148.146-.34.22-.531.22z"/><path d="m22 16h-10.25c-.414 0-.75-.336-.75-.75s.336-.75.75-.75h10.25c.275 0 .5-.224.5-.5s-.225-.5-.5-.5h-10.25c-.414 0-.75-.336-.75-.75s.336-.75.75-.75h10.25c1.103 0 2 .897 2 2s-.897 2-2 2z"/></svg>