<svg id="Layer_1" enable-background="new 0 0 512 512" height="512" viewBox="0 0 512 512" width="512" xmlns="http://www.w3.org/2000/svg"><g><path d="m406 504.5h-300v-74.363c0-49.87 40.427-90.297 90.297-90.297h119.406c49.87 0 90.297 40.427 90.297 90.297z" fill="#42a5f5"/><path d="m315.703 339.84h-30c49.87 0 90.297 40.427 90.297 90.297v74.363h30v-74.363c0-49.87-40.427-90.297-90.297-90.297z" fill="#2196f3"/><path d="m226 277.696h60v97.564h-60z" fill="#e8916f"/><g><path d="m170.464 182.575c0 19.865-12.18 35.968-27.205 35.968s-23.753-18.493-23.753-38.358 8.728-33.578 23.753-33.578 27.205 16.104 27.205 35.968z" fill="#e8916f"/><path d="m341.536 182.575c0 19.865 12.18 35.968 27.205 35.968s23.753-18.493 23.753-38.358-8.728-33.578-23.753-33.578-27.205 16.104-27.205 35.968z" fill="#d98868"/></g><path d="m156.396 194.322v-73.978c0-51.88 42.057-93.938 93.938-93.938h11.332c51.88 0 93.938 42.057 93.938 93.938v73.978c0 54.974-44.565 99.539-99.539 99.539h-.13c-54.974 0-99.539-44.565-99.539-99.539z" fill="#ebad88"/><path d="m261.666 26.406h-11.332c-2.753 0-5.475.125-8.168.357 48.055 4.14 85.77 44.452 85.77 93.58v73.978c0 50.301-37.314 91.88-85.77 98.586 4.501.623 9.096.952 13.769.952h.13c54.974 0 99.539-44.565 99.539-99.539v-73.978c0-51.878-42.057-93.936-93.938-93.936z" fill="#e8916f"/><path d="m298 88.529s-9.562 52.941-110.744 39.355c-16.793-2.255-30.86 32.135-30.86 32.135s-11.93-6.149-17.025-38.489c-6.974-44.275 8.706-114.03 102.795-114.03 56.719 0 73.911 23.841 73.911 23.841s57.846-2.05 57.846 62.312c0 39.765-18.051 67.847-18.051 67.847s-5.16-14.275-27.936-31.976c-12.461-9.685-31.809-20.902-29.936-40.995z" fill="#d66d3c"/><g><path d="m316.077 31.341s-17.192-23.841-73.911-23.841c-5.141 0-10.034.22-14.716.621 24.147 2.029 39.336 8.673 48.186 14.337 7.912 5.063 16.699 8.56 25.814 10.828 17.137 4.265 42.472 17.773 42.472 60.367 0 17.036-3.315 31.916-7.102 43.374 15.279 14.062 19.051 24.473 19.051 24.473s18.051-28.081 18.051-67.847c.001-64.362-57.845-62.312-57.845-62.312z" fill="#c75d2d"/></g><g fill="#f1f1f1"><path d="m226 316.331s-2.871 39.777 30 58.929c0 0-18.691 20.871-37.598 14.241-14.98-5.253-23.457-33.195-26.331-44.574-.725-2.869.428-5.878 2.877-7.539z"/><path d="m286 316.331s2.871 39.777-30 58.929c0 0 18.691 20.871 37.598 14.241 14.98-5.253 23.457-33.195 26.331-44.574.725-2.869-.428-5.878-2.877-7.539z"/><circle cx="255.923" cy="431.272" r="18"/></g><g><path d="m159.865 497h-46.365v-66.86c0-21.539 8.229-41.939 23.169-57.444 13.07-13.562 30.058-22.132 48.48-24.603 9.378 36.033 23.269 45.854 30.772 48.485 3.458 1.213 6.869 1.731 10.182 1.73 12.521-.001 23.57-7.415 29.897-12.747 6.327 5.333 17.375 12.748 29.898 12.748 3.311 0 6.726-.519 10.182-1.731 7.503-2.63 21.392-12.451 30.77-48.475 14.26 1.91 27.69 7.466 39.217 16.313 1.362 1.046 2.968 1.551 4.561 1.551 2.252 0 4.479-1.01 5.955-2.934 2.522-3.286 1.903-7.994-1.383-10.516-15.175-11.646-33.136-18.483-52.138-19.891-.555-.523-1.155-1.008-1.8-1.445l-27.762-18.826v-17.755c31.412-11.765 55.865-37.888 65.333-70.342 3.184 1.173 6.512 1.781 9.907 1.781 18.107 0 31.25-19.282 31.25-45.85 0-22.607-10.067-37.967-26.075-40.657 4.012-12.105 7.508-27.826 7.508-45.88 0-22.277-6.45-39.798-19.17-52.075-15.163-14.636-34.744-17.236-42.783-17.665-7.078-7.077-28.993-23.912-77.304-23.912-21.852 0-41.017 3.667-56.963 10.899-3.772 1.711-5.443 6.155-3.732 9.928 1.71 3.772 6.153 5.447 9.928 3.732 13.987-6.343 31.067-9.56 50.768-9.56 50.356 0 67.055 19.777 67.858 20.772 1.441 2.086 3.756 3.146 6.293 3.064.207-.003 21.146-.437 35.623 13.636 9.61 9.34 14.482 23.195 14.482 41.181 0 22.521-6.219 41.217-11.103 52.427-4.617-6.12-11.803-13.945-22.781-22.478-1.647-1.28-3.35-2.541-5.151-3.876-13.563-10.049-23.074-18.119-21.92-30.501.373-4-2.465-7.624-6.444-8.168-3.989-.545-7.675 2.104-8.389 6.057-.094.458-2.444 11.334-15.578 20.947-22.94 16.794-59.866 16.005-86.802 12.389-15.269-2.04-27.084 14.066-33.605 25.919-2.716-4.982-5.838-13.113-7.869-26.006-1.819-11.551-5.688-51.402 20.939-79.237 2.863-2.993 2.758-7.741-.235-10.604-2.993-2.862-7.74-2.758-10.604.235-31.39 32.815-27.007 78.669-24.916 91.94 1.059 6.722 2.411 12.435 3.918 17.306-14.72 3.684-23.872 18.638-23.872 40.188 0 26.567 13.143 45.85 31.25 45.85 3.396 0 6.723-.608 9.907-1.781 9.468 32.454 33.922 58.577 65.333 70.342v17.755l-27.762 18.826c-.652.442-1.257.933-1.817 1.463-23.979 1.784-46.259 12.216-63.053 29.643-17.649 18.314-27.369 42.41-27.369 67.852v74.36c0 4.143 3.357 7.5 7.5 7.5h53.865c4.143 0 7.5-3.357 7.5-7.5s-3.357-7.5-7.5-7.5zm61.019-114.576c-7.696-2.699-16.104-17.994-21.459-39.01l19.8-13.427c1.8 12.962 7.472 32.132 24.654 46.013-5.87 4.413-14.8 9.296-22.995 6.424zm70.232 0c-8.203 2.876-17.129-2.014-22.996-6.424 17.184-13.881 22.855-33.051 24.655-46.013l19.8 13.427c-5.353 21.016-13.762 36.311-21.459 39.01zm77.624-228.314c7.855 0 16.25 6.852 16.25 26.08 0 15.164-6.078 30.85-16.25 30.85-2.588 0-4.837-.766-6.69-1.763.687-4.889 1.05-9.881 1.05-14.957v-30.277c1.066-1.815 2.937-5.195 5.094-9.914.182-.007.363-.019.546-.019zm-196.88-6.977c5.36-7.887 10.727-12.315 14.398-11.815 44.01 5.909 77.279.505 98.878-16.065 4.239-3.252 7.612-6.653 10.29-9.94 5.724 9.644 15.261 16.71 23.031 22.468 1.73 1.281 3.364 2.492 4.876 3.667 16.276 12.65 22.788 23.292 24.766 27.099v12.042c-6.503-17.676-23.51-30.318-43.414-30.318-22.943 0-42.028 16.799-45.623 38.74h-6.125c-3.595-21.941-22.68-38.74-45.623-38.74-19.905 0-36.911 12.642-43.414 30.318v-13.02c1.156-2.587 4.028-8.65 7.96-14.436zm164.066 43.377c0 17.226-14.015 31.24-31.24 31.24-17.226 0-31.24-14.015-31.24-31.24s14.015-31.24 31.24-31.24 31.24 14.014 31.24 31.24zm-97.371 0c0 17.226-14.015 31.24-31.24 31.24s-31.24-14.015-31.24-31.24 14.015-31.24 31.24-31.24 31.24 14.014 31.24 31.24zm-95.295 20.53c-10.172 0-16.25-15.686-16.25-30.85 0-18.036 7.386-25.182 14.784-26 2.543 4.543 5.064 7.536 7.106 9.467v30.662c0 5.076.363 10.067 1.05 14.957-1.853.998-4.103 1.764-6.69 1.764zm21.892-1.58c7.252 16.071 23.416 27.29 42.162 27.29 22.943 0 42.028-16.799 45.623-38.74h6.125c3.595 21.941 22.68 38.74 45.623 38.74 18.746 0 34.91-11.219 42.162-27.29-7.241 43.572-45.188 76.9-90.777 76.9h-.141c-45.589 0-83.535-33.328-90.777-76.9zm90.778 91.9h.141c7.692 0 15.194-.823 22.43-2.372v22.562c0 .08.01.157.012.236-.443 9.679-3.662 31.235-22.512 44.545-18.849-13.309-22.069-34.864-22.512-44.543.002-.08.012-.157.012-.237v-22.562c7.235 1.549 14.737 2.371 22.429 2.371z"/><path d="m388.389 376.035c-3.514 2.193-4.584 6.819-2.391 10.334 8.179 13.104 12.502 28.239 12.502 43.771v66.86h-206.644c-4.143 0-7.5 3.357-7.5 7.5s3.357 7.5 7.5 7.5h214.144c4.143 0 7.5-3.357 7.5-7.5v-74.36c0-18.343-5.11-36.225-14.777-51.714-2.194-3.514-6.821-4.583-10.334-2.391z"/><path d="m271.846 249.352c3.99-1.114 6.321-5.251 5.207-9.24-1.113-3.989-5.249-6.322-9.24-5.207-7.066 1.973-16.56 1.973-23.626 0-3.989-1.115-8.126 1.217-9.24 5.207-1.114 3.989 1.217 8.127 5.207 9.24 4.888 1.364 10.367 2.047 15.847 2.047s10.958-.683 15.845-2.047z"/><path d="m206.5 190c0 4.143 3.357 7.5 7.5 7.5s7.5-3.357 7.5-7.5v-6c0-4.143-3.357-7.5-7.5-7.5s-7.5 3.357-7.5 7.5z"/><path d="m298 176.5c-4.143 0-7.5 3.357-7.5 7.5v6c0 4.143 3.357 7.5 7.5 7.5s7.5-3.357 7.5-7.5v-6c0-4.143-3.357-7.5-7.5-7.5z"/><path d="m230.423 431.272c0 14.061 11.439 25.5 25.5 25.5s25.5-11.439 25.5-25.5-11.439-25.5-25.5-25.5-25.5 11.44-25.5 25.5zm36 0c0 5.79-4.71 10.5-10.5 10.5s-10.5-4.71-10.5-10.5 4.71-10.5 10.5-10.5 10.5 4.71 10.5 10.5z"/><path d="m66.184 166.758-10.42 25.298c-1.346 3.266-.229 7.027 2.679 9.032l20.179 13.906-7.282 28.676c-.688 2.708.188 5.574 2.271 7.437l24.476 21.883c1.432 1.28 3.217 1.909 4.996 1.909 2.061 0 4.112-.845 5.594-2.501 2.761-3.088 2.496-7.829-.592-10.59l-21.086-18.853 7.447-29.329c.771-3.041-.431-6.241-3.014-8.021l-19.492-13.433 9.524-23.125c.89-2.158.723-4.607-.45-6.626l-21.745-37.401 22.173-32.566c1.191-1.75 1.588-3.922 1.092-5.979l-4.844-20.08 9.42-14.261c2.283-3.456 1.332-8.108-2.124-10.392s-8.108-1.332-10.392 2.124l-11.217 16.983c-1.146 1.736-1.521 3.87-1.033 5.893l4.829 20.019-22.961 33.724c-1.625 2.387-1.736 5.494-.285 7.99z"/><path d="m108.915 299.046c-2.606-3.22-7.329-3.715-10.549-1.111l-17.133 13.867c-1.613 1.307-2.614 3.224-2.762 5.295l-2.194 30.645-37.464 26.268c-2.854 2.001-3.953 5.706-2.652 8.94l11.653 28.966-16.995 24.727c-.994 1.445-1.449 3.193-1.287 4.94l2.142 23.11c.36 3.889 3.629 6.809 7.459 6.809.231-.001.466-.011.701-.033 4.124-.382 7.158-4.035 6.775-8.16l-1.89-20.409 17.736-25.805c1.424-2.07 1.715-4.717.777-7.048l-10.934-27.175 35.511-24.897c1.848-1.295 3.014-3.354 3.175-5.605l2.216-30.956 14.604-11.819c3.219-2.607 3.716-7.329 1.111-10.549z"/><path d="m408.918 274.898c1.779 0 3.565-.63 4.996-1.909l24.476-21.883c2.083-1.862 2.958-4.729 2.271-7.437l-7.282-28.676 20.179-13.906c2.908-2.005 4.024-5.767 2.679-9.032l-10.42-25.298 22.258-38.284c1.451-2.496 1.34-5.604-.285-7.99l-22.963-33.723 4.829-20.019c.487-2.022.113-4.156-1.033-5.893l-11.218-16.982c-2.282-3.456-6.936-4.407-10.392-2.124s-4.407 6.936-2.124 10.392l9.42 14.261-4.844 20.079c-.496 2.058-.1 4.229 1.092 5.979l22.173 32.566-21.744 37.401c-1.173 2.019-1.34 4.468-.45 6.626l9.524 23.125-19.492 13.433c-2.583 1.78-3.785 4.98-3.014 8.021l7.447 29.329-21.086 18.853c-3.088 2.761-3.353 7.502-.592 10.59 1.483 1.658 3.534 2.501 5.595 2.501z"/><path d="m481.181 436.642-16.995-24.727 11.653-28.966c1.301-3.234.202-6.939-2.652-8.94l-37.464-26.268-2.194-30.645c-.147-2.071-1.148-3.988-2.762-5.295l-17.133-13.867c-3.22-2.603-7.942-2.107-10.549 1.111-2.605 3.22-2.108 7.942 1.111 10.549l14.604 11.819 2.216 30.956c.161 2.251 1.327 4.311 3.175 5.605l35.511 24.897-10.934 27.175c-.938 2.331-.646 4.978.777 7.048l17.736 25.805-1.891 20.407c-.383 4.125 2.651 7.778 6.775 8.16.235.022.47.033.701.033 3.83-.001 7.099-2.92 7.459-6.809l2.142-23.11c.163-1.745-.292-3.493-1.286-4.938z"/></g></g></svg>