<?xml version="1.0"?>
<svg xmlns="http://www.w3.org/2000/svg" xmlns:xlink="http://www.w3.org/1999/xlink" xmlns:svgjs="http://svgjs.com/svgjs" version="1.1" width="512" height="512" x="0" y="0" viewBox="0 0 512.004 512.004" style="enable-background:new 0 0 512 512" xml:space="preserve" class=""><g>
<path xmlns="http://www.w3.org/2000/svg" style="" d="M493.932,273.205c0-9.323-4.212-17.642-10.817-23.22c-0.671-0.567-0.646-1.614,0.057-2.141  c7.408-5.549,12.208-14.388,12.208-24.356c0-10.706-5.541-20.102-13.901-25.523c-0.719-0.466-0.84-1.472-0.25-2.094  c5.171-5.451,8.358-12.799,8.358-20.905c0-12.565-7.63-23.322-18.498-27.962c-0.844-0.36-1.109-1.421-0.53-2.133  c4.252-5.228,6.818-11.879,6.818-19.143c0-16.805-13.623-30.428-30.428-30.428c-0.258,0-0.516,0.004-0.772,0.011  c-0.991,0.027-1.668-0.971-1.307-1.894c3.669-9.392,2.907-20.987-5.717-32.519c-0.078-0.104-0.172-0.201-0.273-0.282  c-11.076-8.843-22.101-10.113-31.318-7.245c-0.908,0.283-1.801-0.401-1.8-1.352c0-0.007,0-0.014,0-0.021  c0-16.805-13.623-30.428-30.428-30.428c-6.79,0-13.054,2.232-18.115,5.992c-0.723,0.537-1.755,0.252-2.095-0.582  c-4.535-11.103-15.419-18.937-28.153-18.937c-10.596,0-19.919,5.422-25.366,13.637c-0.579,0.873-1.849,0.834-2.368-0.075  c-5.238-9.17-15.086-15.363-26.403-15.363c-5.912,0-11.426,1.693-16.095,4.612c-0.454,0.284-1.019,0.284-1.473,0  c-4.669-2.918-10.183-4.612-16.095-4.612c-11.317,0-21.165,6.193-26.403,15.363c-0.519,0.909-1.79,0.948-2.368,0.075  c-5.447-8.216-14.77-13.637-25.366-13.637c-12.734,0-23.619,7.834-28.153,18.937c-0.341,0.834-1.372,1.119-2.095,0.582  c-5.061-3.761-11.325-5.992-18.115-5.992c-16.805,0-30.428,13.623-30.428,30.428c0,0.007,0,0.014,0,0.021  c0.002,0.951-0.891,1.634-1.8,1.352c-9.217-2.868-20.242-1.598-31.318,7.245c-0.101,0.081-0.195,0.178-0.273,0.282  c-8.623,11.532-9.386,23.127-5.717,32.519c0.361,0.923-0.317,1.921-1.307,1.894c-0.257-0.007-0.514-0.011-0.772-0.011  c-16.805,0-30.428,13.623-30.428,30.428c0,7.264,2.567,13.915,6.818,19.143c0.579,0.712,0.314,1.773-0.53,2.133  c-10.869,4.64-18.498,15.397-18.498,27.962c0,8.107,3.188,15.454,8.358,20.905c0.59,0.622,0.469,1.627-0.25,2.094  c-8.36,5.421-13.901,14.817-13.901,25.523c0,9.968,4.8,18.807,12.208,24.356c0.703,0.527,0.729,1.574,0.057,2.141  c-6.605,5.578-10.817,13.898-10.817,23.22c0,11.539,6.438,21.552,15.905,26.707c0.808,0.44,0.964,1.531,0.311,2.18  c-5.534,5.507-8.975,13.112-8.975,21.537c0,12.462,7.504,23.149,18.231,27.852c0.649,0.285,0.98,0.994,0.78,1.674  c-2.702,9.192-1.334,20.113,7.615,31.113c0.08,0.098,0.175,0.19,0.277,0.265c8.732,6.461,17.6,8.386,25.503,7.289  c0.91-0.126,1.681,0.645,1.555,1.555c-1.093,7.873,0.816,16.705,7.202,25.398c0.076,0.104,0.168,0.201,0.268,0.282  c10.94,8.956,21.749,10.389,30.887,7.801c0.833-0.236,1.675,0.344,1.745,1.206c1.275,15.63,14.337,27.924,30.296,27.924  c9.994,0,18.847-4.828,24.393-12.268c0.548-0.735,1.649-0.735,2.197,0c5.545,7.441,14.399,12.268,24.393,12.268  c13.168,0,24.372-8.37,28.608-20.076c0.22-0.607,0.808-0.992,1.45-0.922c8.296,0.9,16.733,1.372,25.29,1.372  c12.602,0,24.952-1.003,36.962-2.928c0.692-0.111,1.339,0.314,1.543,0.984c3.795,12.478,15.36,21.571,29.079,21.571  c6.966,0,13.385-2.342,18.514-6.28c0.511-0.392,1.208-0.392,1.719,0c5.129,3.938,11.547,6.28,18.514,6.28  c15.959,0,29.021-12.293,30.296-27.924c0.07-0.863,0.912-1.442,1.745-1.206c9.138,2.588,19.948,1.155,30.887-7.801  c0.099-0.081,0.192-0.178,0.268-0.282c6.386-8.694,8.295-17.525,7.202-25.398c-0.126-0.91,0.645-1.682,1.555-1.555  c7.903,1.097,16.772-0.828,25.503-7.289c0.102-0.076,0.197-0.167,0.277-0.265c8.948-11,10.316-21.921,7.615-31.113  c-0.2-0.68,0.131-1.389,0.78-1.674c10.726-4.702,18.231-15.39,18.231-27.852c0-8.424-3.441-16.03-8.975-21.537  c-0.653-0.649-0.497-1.74,0.311-2.18C487.494,294.757,493.932,284.744,493.932,273.205z" fill="#423e3c" data-original="#423e3c" class=""/>
<path xmlns="http://www.w3.org/2000/svg" style="" d="M107.382,119.668v117.188h-1.741c-16.13,0-29.206,13.076-29.206,29.206l0,0  c0,16.13,13.076,29.206,29.206,29.206h1.847c2.437,56.907,49.335,102.296,106.842,102.296h21.507c0,4.873,0,9.05,0,9.06  c0,9.709-0.124,9.428-9.396,10.733c-7.15,1.007-14.009,3.773-19.865,7.997c-11.588,8.359-18.6,22.034-18.6,36.323v42.797H324.03  v-42.795c0-14.29-7.011-27.965-18.6-36.323c-5.856-4.224-12.715-6.99-19.865-7.997c-9.272-1.305-9.396-1.024-9.396-10.733  c0-0.011,0-4.188,0-9.06h21.502c59.066,0,106.948-47.883,106.948-106.949V119.668H107.382z" fill="#ddccc5" data-original="#8b6859" class=""/>
<path xmlns="http://www.w3.org/2000/svg" style="" d="M406.861,236.856h-2.237V119.668h-42.413v170.608c0,59.259-48.024,107.283-107.283,107.283h42.414  c57.572,0,104.555-45.351,107.163-102.291h2.356c8.475,0,16.107-3.61,21.442-9.376c4.819-5.208,7.764-12.175,7.764-19.83l0,0  C436.067,249.932,422.991,236.856,406.861,236.856z" fill="#d1b5ac" data-original="#875b4c" class=""/>
<path xmlns="http://www.w3.org/2000/svg" d="M428.304,285.892h0.01H428.304z" fill="#000000" data-original="#000000" style="" class=""/>
<g xmlns="http://www.w3.org/2000/svg">
	<circle style="" cx="169.211" cy="284.939" r="15.984" fill="#ce6b55" data-original="#ce6b55" class=""/>
	<circle style="" cx="342.791" cy="284.939" r="15.984" fill="#ce6b55" data-original="#ce6b55" class=""/>
</g>
<path xmlns="http://www.w3.org/2000/svg" style="" d="M219.275,328.713v1.683c0,20.284,16.443,36.727,36.727,36.727l0,0  c20.284,0,36.727-16.443,36.727-36.727v-1.683H219.275z" fill="#ffffff" data-original="#ffffff"/>
<path xmlns="http://www.w3.org/2000/svg" style="" d="M293.17,419.128c-2.478-0.803-5.026-1.405-7.604-1.776c-1.124-0.151-2.117-0.291-2.979-0.421v37.988  h-53.166v-37.988c-0.863,0.13-1.856,0.271-2.979,0.421c-2.578,0.371-5.126,0.973-7.604,1.776c-2.408,0.782-4.735,1.775-6.972,2.959  v20.524v7.223v54.641h88.276v-54.641v-7.223v-20.524C297.905,420.904,295.577,419.911,293.17,419.128z" fill="#8fba1e" data-original="#8fba1e"/>
<path xmlns="http://www.w3.org/2000/svg" style="" d="M435.64,92.199H76.362c-0.777,0-1.402,0.631-1.388,1.408c0.249,13.21,2.168,114.977,2.168,117.023  c0,17.649,14.307,31.956,31.956,31.956c16.119,0,29.442-11.938,31.631-27.453c0.127-0.902,1.074-1.436,1.908-1.071  c9.898,4.326,22.393,3.81,34.561-4.748c0.105-0.074,0.204-0.164,0.287-0.261c8.436-9.881,10.772-19.767,9.59-28.543  c-0.121-0.899,0.644-1.663,1.543-1.542c8.68,1.169,18.444-1.103,28.241-9.314c0.097-0.081,0.186-0.177,0.261-0.28  c7.435-10.271,8.994-20.713,6.795-29.683c-0.25-1.021,0.658-1.924,1.679-1.673c2.437,0.597,4.982,0.917,7.603,0.917  c8.445,0,16.122-3.279,21.835-8.63c0.55-0.515,1.388-0.515,1.938,0c5.713,5.351,13.389,8.63,21.835,8.63  c2.621,0,5.166-0.32,7.603-0.917c1.021-0.25,1.93,0.652,1.679,1.673c-2.2,8.97-0.641,19.413,6.795,29.683  c0.074,0.102,0.164,0.198,0.261,0.28c9.798,8.211,19.562,10.483,28.241,9.314c0.899-0.121,1.664,0.643,1.543,1.542  c-1.182,8.776,1.153,18.662,9.59,28.543c0.083,0.098,0.182,0.187,0.287,0.261c12.169,8.559,24.663,9.074,34.561,4.748  c0.834-0.365,1.781,0.17,1.908,1.071c2.189,15.515,15.512,27.453,31.631,27.453c17.649,0,31.956-14.307,31.956-31.956  c0-2.046,1.919-103.812,2.168-117.023C437.042,92.831,436.417,92.199,435.64,92.199z" fill="#423e3c" data-original="#423e3c" class=""/>
<path xmlns="http://www.w3.org/2000/svg" style="" d="M476.312,300.781c6.349,5.57,10.375,13.731,10.375,22.844c0,12.912-8.04,23.905-19.382,28.334  c1.034,3.06,1.611,6.322,1.611,9.718c0,16.804-13.623,30.428-30.428,30.428c-2.08,0-4.107-0.201-6.08-0.604  c0.403,1.96,0.618,4,0.618,6.08c0,16.804-13.624,30.428-30.428,30.428c-3.463,0-6.778-0.604-9.879-1.664  c-0.416,16.429-13.851,29.636-30.388,29.636c-7.355,0-14.107-2.604-19.368-6.953c-5.261,4.349-12.013,6.953-19.381,6.953  c-2.631,0-5.181-0.336-7.624-0.966c11.116-2.881,19.759-11.902,22.12-23.23c0.581-2.787,3.294-4.518,6.11-4.1  c1.43,0.212,2.895,0.324,4.386,0.324c16.805,0,30.428-13.623,30.428-30.428c0-0.021,0-0.042,0-0.062  c-0.006-3.021,2.386-5.42,5.407-5.414c0.023,0,0.046,0,0.069,0c16.805,0,30.428-13.623,30.428-30.428  c0-1.968-0.198-3.891-0.566-5.756c-0.453-2.297,0.643-4.588,2.688-5.727c9.328-5.197,15.649-15.13,15.649-26.569  c0-6.894-2.304-13.242-6.18-18.337c-1.836-2.413-1.407-5.82,1.033-7.62c7.507-5.538,12.381-14.424,12.381-24.47  c0-7.882-3.01-15.05-7.939-20.452c-1.961-2.15-1.909-5.438,0.177-7.466c5.679-5.52,9.211-13.24,9.211-21.798  c0-9.346-4.221-17.693-10.857-23.265c-2.168-1.82-2.517-4.993-0.839-7.272c3.71-5.038,5.911-11.246,5.911-17.983  c0-11.059-5.914-20.722-14.751-26.043c-2.61-1.572-3.437-4.891-1.855-7.495c6.449-10.617,6.599-25.444-5-39.538  c-0.526-0.639-1.218-1.149-1.976-1.481c-6.601-2.889-11.274-4.302-15.203-4.837c-3.108-0.424-5.34-3.332-4.631-6.387  c1.987-8.568,0.338-18.484-7.194-28.317c-0.305-0.398-0.674-0.763-1.075-1.064c-11.58-8.695-22.979-9.313-32.245-5.769  c0.04-0.671,0.094-1.342,0.094-2.027c0-16.804-13.624-30.428-30.428-30.428c-7.449,0-14.268,2.684-19.556,7.141  c-4.08-12.013,13.758-20.67,25.22-20.67c13.382,0,24.724,8.657,28.791,20.67c5.288-4.456,12.107-7.141,19.569-7.141  c16.805,0,30.428,13.623,30.428,30.428c0,0.685-0.067,1.356-0.107,2.027c4.396-1.675,9.246-2.42,14.344-1.823  c14.644,1.716,26.194,14.024,26.907,28.751c0.252,5.202-0.841,10.118-2.917,14.492c0.966-0.094,1.96-0.148,2.953-0.148  c16.805,0,30.428,13.623,30.428,30.428c0,7.946-3.073,15.154-8.053,20.576c11.798,4.188,20.268,15.422,20.268,28.656  c0,8.724-3.691,16.563-9.57,22.12c9.167,5.235,15.369,15.086,15.369,26.401c0,10.617-5.436,19.945-13.664,25.381  c7.396,5.557,12.214,14.375,12.214,24.334C493.935,285.426,486.714,295.936,476.312,300.781z" fill="#302d2c" data-original="#302d2c" class=""/>
<path xmlns="http://www.w3.org/2000/svg" d="M256.149,299.874c-9.395,0-17.83-5.592-21.49-14.245c-1.619-3.827,0.171-8.242,3.998-9.86  c3.827-1.618,8.242,0.171,9.86,3.998c1.3,3.074,4.296,5.06,7.632,5.06c3.174,0,6.11-1.852,7.478-4.718  c1.791-3.75,6.282-5.336,10.031-3.546c3.75,1.791,5.337,6.282,3.546,10.032C273.352,294.662,265.087,299.874,256.149,299.874z" fill="#000000" data-original="#000000" style="" class=""/>
<path xmlns="http://www.w3.org/2000/svg" d="M256.002,374.647c-24.4,0-44.251-19.851-44.251-44.251v-1.683c0-4.155,3.368-7.524,7.524-7.524h73.455  c4.156,0,7.524,3.368,7.524,7.524v1.683C300.252,354.796,280.401,374.647,256.002,374.647z M227.385,336.236  c2.713,13.315,14.513,23.363,28.617,23.363s25.904-10.049,28.617-23.363H227.385z" fill="#000000" data-original="#000000" style="" class=""/>
<path xmlns="http://www.w3.org/2000/svg" d="M210.701,265.024c-4.156,0-7.524-3.368-7.524-7.524v-39.786c0-4.155,3.368-7.524,7.524-7.524s7.524,3.368,7.524,7.524V257.5  C218.224,261.655,214.856,265.024,210.701,265.024z" fill="#000000" data-original="#000000" style="" class=""/>
<path xmlns="http://www.w3.org/2000/svg" d="M301.303,265.024c-4.156,0-7.524-3.368-7.524-7.524v-39.786c0-4.155,3.368-7.524,7.524-7.524  c4.156,0,7.524,3.368,7.524,7.524V257.5C308.826,261.655,305.458,265.024,301.303,265.024z" fill="#000000" data-original="#000000" style="" class=""/>
<path xmlns="http://www.w3.org/2000/svg" d="M501.456,273.205c0-8.928-3.054-17.322-8.581-24.022c6.387-6.925,10.028-16.045,10.028-25.696  c0-10.581-4.462-20.587-12.03-27.683c4.063-6.128,6.237-13.296,6.237-20.839c0-12.749-6.436-24.45-16.686-31.399  c2.92-5.451,4.475-11.558,4.475-17.84c0-18.52-13.335-33.984-30.906-37.296c0.318-1.975,0.479-3.979,0.479-6.005  c0-20.926-17.025-37.951-37.951-37.951c-1.32,0-2.635,0.07-3.944,0.209c-3.418-17.439-18.819-30.636-37.244-30.636  c-5.752,0-11.404,1.318-16.524,3.797c-6.876-10.631-18.768-17.323-31.838-17.323c-9.89,0-19.235,3.863-26.197,10.507  c-4.573-4.992-10.437-8.726-17.02-10.706c-3.978-1.2-8.175,1.057-9.372,5.036c-1.198,3.979,1.057,8.175,5.036,9.372  c6.199,1.866,11.347,6.321,14.125,12.222c1.202,2.555,3.735,4.222,6.558,4.316c2.824,0.074,5.461-1.401,6.83-3.872  c4.044-7.296,11.723-11.828,20.041-11.828c9.809,0,18.519,6.252,21.673,15.557c0.797,2.354,2.707,4.162,5.101,4.831  c2.39,0.667,4.963,0.113,6.866-1.488c4.12-3.465,9.35-5.374,14.723-5.374c12.629,0,22.904,10.275,22.904,22.904  c0,0.379-0.031,0.752-0.058,1.124l-0.029,0.417c-0.167,2.558,0.981,5.025,3.044,6.547c2.064,1.521,4.758,1.887,7.154,0.97  c2.66-1.018,5.408-1.535,8.172-1.535c12.629,0,22.904,10.275,22.904,22.904c0,3.382-0.75,6.678-2.23,9.795  c-1.163,2.448-0.919,5.331,0.637,7.549s4.182,3.429,6.882,3.168c0.798-0.077,1.529-0.115,2.236-0.115  c12.629,0,22.904,10.274,22.904,22.904c0,5.733-2.157,11.232-6.075,15.486c-1.712,1.859-2.377,4.453-1.768,6.906  c0.607,2.453,2.407,4.437,4.789,5.281c9.131,3.237,15.265,11.903,15.265,21.565c0,6.343-2.56,12.252-7.207,16.639  c-1.732,1.635-2.588,3.995-2.306,6.361s1.667,4.458,3.736,5.641c7.137,4.081,11.57,11.699,11.57,19.881  c0,7.7-3.848,14.843-10.293,19.109c-2.041,1.35-3.298,3.608-3.369,6.054c-0.071,2.445,1.05,4.773,3.009,6.24  c5.85,4.386,9.206,11.061,9.206,18.315c0,8.854-5.21,17-13.272,20.752c-2.305,1.073-3.913,3.236-4.273,5.753  c-0.362,2.516,0.573,5.045,2.483,6.722c4.97,4.364,7.82,10.632,7.82,17.197c0,9.494-5.73,17.863-14.598,21.322  c-3.744,1.461-5.68,5.606-4.395,9.415c0.81,2.399,1.221,4.861,1.221,7.318c0,12.629-10.275,22.904-22.905,22.904  c-1.537,0-3.08-0.155-4.584-0.46c-2.472-0.501-5.031,0.269-6.816,2.053c-1.784,1.784-2.555,4.343-2.053,6.816  c0.306,1.505,0.46,3.047,0.46,4.585c0,12.629-10.274,22.904-22.904,22.904c-2.491,0-4.991-0.425-7.43-1.262  c-2.266-0.779-4.77-0.429-6.736,0.938c-1.968,1.368-3.166,3.591-3.228,5.987c-0.318,12.513-10.363,22.315-22.866,22.315  c-5.314,0-10.492-1.861-14.58-5.24c-2.782-2.299-6.804-2.299-9.587,0c-2.516,2.08-5.447,3.572-8.566,4.416  c-3.164-11.292-10.059-21.383-19.767-28.386c-7.386-5.328-14.169-8.134-23.265-9.356c-1.076-0.145-2.027-0.279-2.855-0.404  c-0.019-0.923-0.019-1.976-0.019-2.867v-1.537h13.642c59.184,0,108.047-45.015,114.16-102.605c8.5-1.09,16.456-5.132,22.33-11.482  l0.001-0.001c6.296-6.806,9.764-15.663,9.764-24.938c0-11.039-4.907-20.941-12.642-27.677c1.387-1.397,2.687-2.891,3.862-4.502  c2.45-3.356,1.715-8.063-1.641-10.512s-8.064-1.716-10.512,1.642c-4.594,6.292-11.977,10.049-19.753,10.049  c-12.625,0-23.317-9.846-24.341-22.415c-0.204-2.5-1.641-4.734-3.83-5.957s-4.846-1.273-7.081-0.137  c-3.657,1.861-7.622,2.759-11.722,2.639c-12.095-0.322-22.247-9.652-23.613-21.703c-0.277-2.447-0.177-4.936,0.299-7.398  c0.473-2.453-0.302-4.981-2.069-6.748c-1.766-1.766-4.293-2.54-6.749-2.066c-3.301,0.639-6.635,0.599-9.913-0.12  c-10.048-2.204-17.874-10.85-19.031-21.025c-0.405-3.561-0.05-7.076,1.054-10.446c0.882-2.695,0.174-5.657-1.831-7.662  c-2.003-2.004-4.964-2.711-7.662-1.83c-2.461,0.806-5.022,1.215-7.611,1.215c-6.607,0-12.798-2.601-17.433-7.323  c-1.415-1.442-3.349-2.254-5.369-2.254c-2.019,0-3.955,0.812-5.369,2.253c-4.635,4.723-10.828,7.324-17.434,7.324  c-2.588,0-5.149-0.409-7.612-1.215c-2.695-0.884-5.656-0.175-7.662,1.83c-2.004,2.005-2.712,4.967-1.83,7.662  c1.104,3.37,1.459,6.885,1.054,10.446c-1.156,10.175-8.982,18.821-19.031,21.025c-3.278,0.719-6.614,0.759-9.914,0.121  c-2.456-0.474-4.982,0.3-6.749,2.067s-2.542,4.296-2.067,6.749c0.475,2.458,0.576,4.947,0.298,7.396  c-1.366,12.05-11.517,21.38-23.611,21.703c-4.121,0.121-8.068-0.778-11.724-2.639c-2.236-1.138-4.891-1.086-7.081,0.137  s-3.626,3.457-3.83,5.957c-1.024,12.57-11.715,22.415-24.34,22.415c-7.775,0-15.16-3.756-19.752-10.048  c-2.45-3.357-7.157-4.09-10.512-1.641c-3.356,2.45-4.091,7.157-1.641,10.512c1.24,1.698,2.615,3.271,4.089,4.731  c-7.58,6.731-12.372,16.534-12.372,27.445c0,18.513,13.77,33.862,31.604,36.364c0.874,8.305,2.624,16.469,5.278,24.382  c1.055,3.146,3.987,5.133,7.132,5.133c0.792,0,1.6-0.126,2.393-0.392c3.939-1.322,6.062-5.586,4.74-9.525  c-3.42-10.198-5.154-20.878-5.154-31.744v-40.612c14.64-2.205,26.885-12.594,31.592-26.443c3.259,0.754,6.611,1.091,9.978,1.009  c19.548-0.521,35.954-15.589,38.161-35.049c0.093-0.817,0.16-1.636,0.201-2.457c2.176-0.109,4.347-0.4,6.503-0.873  c16.496-3.618,28.858-17.291,30.759-34.023c0.205-1.802,0.288-3.598,0.251-5.383c0.282,0.006,0.564,0.009,0.847,0.009  c8.296,0,16.184-2.535,22.804-7.243c6.843,4.868,15.075,7.414,23.65,7.235c-0.037,1.785,0.046,3.581,0.251,5.384  c1.903,16.732,14.265,30.405,30.759,34.023c2.156,0.473,4.327,0.764,6.503,0.872c0.041,0.821,0.108,1.64,0.201,2.457  c2.207,19.46,18.614,34.528,38.163,35.049c3.362,0.084,6.716-0.254,9.976-1.009c4.707,13.85,16.953,24.238,31.593,26.443v40.611  c0,55.009-44.752,99.761-99.762,99.761h-82.67c-25.626,0-49.982-9.699-68.58-27.31c-3.018-2.857-7.778-2.728-10.637,0.29  c-2.857,3.017-2.726,7.779,0.29,10.636c21.406,20.269,49.436,31.431,78.927,31.431h13.647v1.537c0,0.891,0,1.944-0.021,2.867  c-0.826,0.125-1.777,0.26-2.922,0.413c-0.907,0.13-1.815,0.295-2.724,0.476c-0.311,0.061-0.621,0.13-0.931,0.197  c-7.015,1.513-13.721,4.478-19.54,8.676c-7.976,5.753-14.047,13.595-17.722,22.469c-1.106-1.111-2.112-2.341-2.99-3.688  c-1.388-2.13-3.759-3.414-6.302-3.414s-4.914,1.284-6.302,3.414c-4.257,6.53-11.431,10.429-19.189,10.429  c-12.504,0-22.549-9.802-22.867-22.315c-0.061-2.396-1.259-4.619-3.227-5.987c-1.967-1.368-4.47-1.717-6.736-0.938  c-2.439,0.837-4.939,1.262-7.43,1.262c-12.629,0-22.904-10.275-22.904-22.904c0-1.538,0.155-3.08,0.46-4.585  c0.502-2.473-0.269-5.032-2.053-6.816c-1.784-1.784-4.343-2.553-6.816-2.053c-1.505,0.305-3.048,0.46-4.585,0.46  c-12.629,0-22.905-10.275-22.905-22.904c0-2.456,0.41-4.919,1.221-7.318c1.285-3.809-0.651-7.955-4.395-9.415  c-8.869-3.459-14.598-11.828-14.598-21.322c0-6.565,2.851-12.833,7.821-17.196c1.91-1.677,2.845-4.206,2.483-6.722  c-0.36-2.517-1.968-4.68-4.273-5.753c-8.063-3.752-13.273-11.898-13.273-20.752c0-7.254,3.355-13.929,9.206-18.315  c1.958-1.467,3.08-3.795,3.009-6.24c-0.073-2.446-1.328-4.704-3.369-6.054c-6.445-4.265-10.293-11.409-10.293-19.109  c0-8.182,4.433-15.8,11.569-19.881c2.069-1.183,3.454-3.275,3.736-5.641c0.282-2.366-0.574-4.726-2.306-6.361  c-4.647-4.387-7.207-10.296-7.207-16.639c0-9.662,6.134-18.328,15.266-21.565c2.381-0.844,4.181-2.828,4.788-5.281  c0.608-2.453-0.056-5.047-1.767-6.906c-3.918-4.255-6.076-9.754-6.076-15.486c0-12.629,10.274-22.904,22.904-22.904  c0.706,0,1.437,0.037,2.236,0.115c2.691,0.262,5.325-0.95,6.882-3.168c1.556-2.218,1.8-5.101,0.637-7.549  c-1.48-3.117-2.231-6.413-2.231-9.795c0-12.629,10.275-22.904,22.905-22.904c2.764,0,5.512,0.516,8.171,1.534  c2.394,0.919,5.091,0.551,7.154-0.97c2.063-1.521,3.21-3.989,3.044-6.547l-0.028-0.417c-0.026-0.372-0.058-0.745-0.058-1.124  c0-12.629,10.274-22.904,22.904-22.904c5.373,0,10.603,1.908,14.723,5.374c1.903,1.599,4.471,2.156,6.866,1.488  c2.394-0.669,4.303-2.477,5.101-4.831c3.155-9.305,11.864-15.557,21.673-15.557c8.318,0,15.997,4.532,20.041,11.828  c1.369,2.471,3.975,3.944,6.83,3.872c2.822-0.094,5.355-1.76,6.558-4.316c2.577-5.477,7.3-9.791,12.957-11.835  c3.908-1.413,5.931-5.725,4.519-9.633c-1.413-3.908-5.727-5.927-9.633-4.519c-5.764,2.083-10.94,5.583-15.063,10.074  C204.28,4.39,194.932,0.523,185.035,0.523c-13.07,0-24.962,6.692-31.839,17.323c-5.12-2.479-10.772-3.797-16.524-3.797  c-18.424,0-33.825,13.199-37.244,30.636c-1.308-0.139-2.624-0.209-3.943-0.209c-20.927,0-37.952,17.025-37.952,37.951  c0,2.025,0.161,4.029,0.479,6.005c-17.572,3.312-30.906,18.776-30.906,37.296c0,6.281,1.555,12.389,4.475,17.84  c-10.251,6.949-16.686,18.65-16.686,31.399c0,7.543,2.175,14.711,6.237,20.839c-7.568,7.096-12.03,17.102-12.03,27.683  c0,9.65,3.641,18.77,10.028,25.696c-5.526,6.7-8.581,15.094-8.581,24.022c0,11.397,5.196,22.081,13.763,29.197  c-4.208,6.218-6.521,13.599-6.521,21.227c0,13.487,6.969,25.603,18.203,32.399c-0.287,1.875-0.431,3.764-0.431,5.656  c0,20.255,15.951,36.854,35.95,37.899c1.045,19.999,17.644,35.95,37.899,35.95c1.2,0,2.399-0.058,3.594-0.174  c4.276,16.338,18.988,28.153,36.667,28.153c9.568,0,18.594-3.569,25.491-9.845c1.696,1.543,3.525,2.915,5.455,4.117  c-0.098,1.293-0.164,2.591-0.164,3.897v42.797c0,4.155,3.368,7.524,7.524,7.524h23.889h88.276h23.889  c4.156,0,7.524-3.368,7.524-7.524v-41.835c4.011-0.862,7.87-2.353,11.404-4.448c5.83,3.457,12.534,5.319,19.373,5.319  c17.678,0,32.39-11.814,36.667-28.153c1.195,0.116,2.394,0.174,3.594,0.174c20.254,0,36.854-15.951,37.899-35.95  c19.999-1.045,35.95-17.645,35.95-37.899c0-1.892-0.144-3.781-0.431-5.656c11.234-6.796,18.203-18.912,18.203-32.399  c0-7.628-2.312-15.008-6.521-21.227C496.26,295.286,501.456,284.601,501.456,273.205z M83.959,266.062  c0-7.967,4.325-14.935,10.744-18.704c1.675,0.658,3.39,1.217,5.145,1.643v37.958C90.695,284.419,83.959,276.013,83.959,266.062z   M422.782,280.782c-2.801,3.027-6.283,5.137-10.128,6.191v-38.108c1.687-0.433,3.339-0.98,4.949-1.628  c6.53,3.74,10.942,10.776,10.942,18.826C428.544,271.538,426.497,276.765,422.782,280.782z M204.342,496.952H195.5v-35.273  c0.001-8.88,3.209-17.406,8.842-24.069V496.952z M275.063,422.631v24.765h-38.119v-24.765c1.343-0.659,2.545-1.556,3.598-2.842  c2.629-3.212,2.806-6.975,2.817-12.047h25.288c0.012,5.071,0.188,8.834,2.817,12.047  C272.518,421.075,273.72,421.971,275.063,422.631z M292.618,496.952h-73.229v-70.027c0.306-0.118,0.615-0.23,0.924-0.34  c0.262-0.093,0.523-0.193,0.786-0.279c0.264-0.087,0.532-0.159,0.798-0.24v28.853c0,4.155,3.368,7.523,7.524,7.523h53.166  c4.156,0,7.524-3.368,7.524-7.523v-28.853c0.264,0.081,0.531,0.152,0.793,0.239c0.269,0.088,0.536,0.19,0.804,0.285  c0.305,0.108,0.609,0.219,0.911,0.335L292.618,496.952L292.618,496.952z M316.507,496.952h-8.842V437.61  c5.633,6.663,8.842,15.188,8.842,24.068V496.952z" fill="#000000" data-original="#000000" style="" class=""/>
<g xmlns="http://www.w3.org/2000/svg">
</g>
<g xmlns="http://www.w3.org/2000/svg">
</g>
<g xmlns="http://www.w3.org/2000/svg">
</g>
<g xmlns="http://www.w3.org/2000/svg">
</g>
<g xmlns="http://www.w3.org/2000/svg">
</g>
<g xmlns="http://www.w3.org/2000/svg">
</g>
<g xmlns="http://www.w3.org/2000/svg">
</g>
<g xmlns="http://www.w3.org/2000/svg">
</g>
<g xmlns="http://www.w3.org/2000/svg">
</g>
<g xmlns="http://www.w3.org/2000/svg">
</g>
<g xmlns="http://www.w3.org/2000/svg">
</g>
<g xmlns="http://www.w3.org/2000/svg">
</g>
<g xmlns="http://www.w3.org/2000/svg">
</g>
<g xmlns="http://www.w3.org/2000/svg">
</g>
<g xmlns="http://www.w3.org/2000/svg">
</g>
</g></svg>
