<svg id="Capa_1" enable-background="new 0 0 512.043 512.043" height="512" viewBox="0 0 512.043 512.043" width="512" xmlns="http://www.w3.org/2000/svg"><g><path d="m256.022 335.074c61.908 0 126.831-16.542 171.259-37.945 13.038-6.281 19.523-21.321 14.687-34.962-7.898-22.282-2.634-56.165-2.634-106.364 0-86.006-67.314-177.572-176.479-139.309-4.43 1.553-9.236 1.553-13.665 0-109.166-38.263-176.48 53.302-176.48 139.308 0 50.199 5.264 84.083-2.634 106.364-4.836 13.641 1.649 28.681 14.687 34.962 44.428 21.404 109.351 37.946 171.259 37.946z" fill="#565e75"/><path d="m96.799 400.589c-12.428-11.124-13.484-30.216-2.359-42.643 39.58-44.216 72.656-74.19 101.118-91.633 14.217-8.714 32.811-4.253 41.529 9.968 8.715 14.22 4.253 32.813-9.968 41.529-23.062 14.134-52.561 41.191-87.677 80.421-11.107 12.406-30.198 13.497-42.643 2.358z" fill="#939597"/><path d="m271.805 238.268h-31.566c-35.93 0-65.057 29.127-65.057 65.057v61.914c0 44.646 36.193 80.84 80.84 80.84 44.646 0 80.84-36.193 80.84-80.84v-61.914c0-35.93-29.127-65.057-65.057-65.057z" fill="#d4d5d5"/><path d="m256.022 309.302c29.292 0 56.354-5.036 80.23-14.78-4.299-31.764-31.505-56.254-64.448-56.254h-31.565c-32.943 0-60.148 24.491-64.448 56.254 23.877 9.744 50.939 14.78 80.231 14.78z" fill="#939597"/><ellipse cx="256.022" cy="161.08" fill="#c99b80" rx="144.925" ry="118.223"/><path d="m263.829 25.216c74.119-24.446 118.591 35.094 130.846 71.894 1.813 5.443-2.375 10.97-8.11 10.816-33.662-.902-96.604-24.629-123.524-40.778-4.323-2.593-9.716-2.593-14.039 0-26.969 16.178-90.091 39.961-123.707 40.782-5.657.138-9.716-5.449-7.928-10.818 12.255-36.8 56.726-96.342 130.847-71.896 5.078 1.675 10.537 1.675 15.615 0z" fill="#565e75"/><path d="m463.573 504.543h-415.102c-14.497 0-26.249-11.752-26.249-26.249v-70.378c0-14.497 11.752-26.249 26.249-26.249h415.102c14.497 0 26.249 11.752 26.249 26.249v70.378c-.001 14.498-11.753 26.249-26.249 26.249z" fill="#939597"/><path d="m159.848 457.301h-56.277c-13.349 0-24.17-10.821-24.17-24.17v-56.277c0-13.349 10.821-24.17 24.17-24.17h56.277c13.349 0 24.17 10.821 24.17 24.17v56.277c0 13.349-10.821 24.17-24.17 24.17z" fill="#f5df4d"/><path d="m372.276 362.27-41.631 60.069c-10.238 14.772.334 34.962 18.307 34.962h83.263c17.973 0 28.545-20.19 18.307-34.962l-41.631-60.069c-8.859-12.782-27.757-12.782-36.615 0z" fill="#f5df4d"/><path d="m347.004 328.199c-.008 0-.015 0-.024 0-39.594-.029-89.756-16.716-127.796-42.511-13.804-9.361-17.406-28.14-8.045-41.944 9.363-13.804 28.139-17.404 41.944-8.045 32.49 22.033 71.472 32.085 93.942 32.101 16.678.012 30.189 13.542 30.177 30.221-.012 16.671-13.531 30.178-30.198 30.178z" fill="#939597"/><g><g><g><g><ellipse cx="176.465" cy="184.565" fill="#f1bdc4" rx="29.355" ry="23.377"/></g><g><ellipse cx="335.578" cy="184.565" fill="#f1bdc4" rx="29.355" ry="23.377"/></g></g></g></g><path d="m269.359 245.504c-5.531-2.959-10.99-6.221-16.276-9.805-13.804-9.358-32.581-5.758-41.944 8.045-9.361 13.804-5.759 32.583 8.045 41.944 6.848 4.644 14.094 8.987 21.596 12.996.195-14.624 15.237-41.743 28.579-53.18z" fill="#b5836b"/><path d="m463.573 374.168h-37.311l-11.207-16.17c-11.831-17.072-37.116-17.068-48.943 0l-11.207 16.17h-11.004c.77-7.603.332-9.957.461-38.505 2.66.048 2.136.03 2.643.036 9.935 0 18.981-3.873 25.724-10.18 20.91-6.009 40.863-13.471 57.808-21.633 16.644-8.017 24.597-27.03 18.501-44.225-7.293-20.572-2.203-54.167-2.203-103.858 0-30.694-8.271-61.938-23.287-87.977-2.069-3.588-6.656-4.819-10.244-2.75s-4.819 6.656-2.75 10.244c13.724 23.795 21.281 52.378 21.281 80.482 0 51.227-5.476 84.774 3.064 108.87 3.532 9.963-1.142 21.012-10.872 25.699-12.067 5.814-25.768 11.263-40.286 16.055.62-2.703.959-5.511.961-8.399.015-19.296-14.301-34.7-32.138-37.321 57.509-37.183 70.709-105.995 39.282-156.778-1.31-2.118-3.587-3.447-6.076-3.547-32.805-1.323-93.774-24.61-118.869-39.664-6.711-4.024-15.045-4.024-21.756 0-25.095 15.053-86.065 38.34-118.87 39.663-2.489.1-4.766 1.429-6.076 3.547-33.912 54.8-15.944 131.484 55.678 165.911-.184.353-.364.708-.542 1.064-13.438 9.795-27.73 21.965-43.14 36.779-16.071-5.116-30.924-10.925-44.176-17.31-9.73-4.688-14.404-15.736-10.872-25.699 8.539-24.092 3.065-57.664 3.065-108.87 0-81.054 62.559-168.663 166.497-132.231 6.008 2.105 12.622 2.105 18.628 0 48.282-16.922 92.569-8.207 124.711 24.539 2.903 2.957 7.652 3 10.607.099 2.956-2.902 3-7.65.099-10.606-36.449-37.132-86.302-47.142-140.381-28.187-2.805.983-5.898.983-8.704 0-57.676-20.218-98.498-4.1-122.586 12.982-41.233 29.241-63.873 82.475-63.873 133.404 0 49.696 5.09 83.286-2.203 103.858-6.096 17.195 1.857 36.207 18.501 44.225 11.8 5.685 24.785 10.919 38.694 15.636-8.174 8.264-16.657 17.23-25.48 26.93-12.34 3.598-21.584 14.515-22.699 27.717h-23.552c-18.609 0-33.749 15.14-33.749 33.749v70.378c0 18.609 15.14 33.749 33.749 33.749h97.074c4.143 0 7.5-3.358 7.5-7.5s-3.357-7.5-7.5-7.5h-97.074c-10.338 0-18.749-8.411-18.749-18.749v-70.378c0-10.338 8.411-18.749 18.749-18.749h23.43v43.962c0 17.463 14.207 31.67 31.67 31.67h56.277c17.463 0 31.67-14.207 31.67-31.67v-43.962h152.991l-20.028 28.898c-13.669 19.723.463 46.734 24.471 46.734h83.263c23.994 0 38.149-27.001 24.472-46.734l-20.028-28.899h26.915c10.338 0 18.749 8.411 18.749 18.749v70.378c0 10.338-8.411 18.749-18.749 18.749h-282.556c-4.143 0-7.5 3.358-7.5 7.5s3.357 7.5 7.5 7.5h282.555c18.609 0 33.749-15.14 33.749-33.749v-70.378c0-18.608-15.14-33.748-33.749-33.748zm-93.872-76.152c-.009 12.507-10.19 22.683-22.697 22.683h-.018c-29.914-.022-66.154-9.952-98.181-26.27 2.342-11.543 12.216-29.543 21.884-39.81 28.225 14.103 57.665 20.667 76.33 20.681 12.544.009 22.693 10.169 22.682 22.716zm-134.479-11.055c-4.049-2.395-8.004-4.887-11.828-7.48-10.359-7.025-13.072-21.168-6.048-31.526 7.014-10.342 21.154-13.08 31.528-6.048 2.739 1.857 5.527 3.624 8.345 5.319-9.137 10.707-18.155 26.313-21.997 39.735zm-67.124 8.626c-.722 6.8-.286 7.474-.416 50.579-6.669-1.704-7.859-.678-51.364-.982 18.824-20.048 35.959-36.46 51.78-49.597zm8.42 137.544c0 9.192-7.479 16.67-16.67 16.67h-56.277c-9.191 0-16.67-7.478-16.67-16.67v-56.277c0-9.192 7.479-16.67 16.67-16.67h56.277c9.191 0 16.67 7.479 16.67 16.67zm-45.52-318.018c36.812-3.015 96.708-26.444 121.862-41.533 1.947-1.17 4.371-1.171 6.322 0 25.155 15.089 85.052 38.52 121.862 41.534 27.185 47.739 10.063 114.041-55.006 142.902-20.565-3.979-46.223-13.251-68.748-28.526-17.205-11.664-40.692-7.157-52.359 10.044-4.834 7.128-6.883 15.335-6.412 23.333-74.52-25.155-96.797-96.341-67.521-147.754zm197.8 259.055h-137.402c-.627-7.432-3.83-14.139-8.714-19.226v-51.618c0-9.744 2.434-19.184 7.069-27.623 4.567 1.678 9.28 3.178 14.13 4.488 2.727 4.526 6.442 8.551 11.095 11.706 33.762 22.894 76.878 38.814 114.386 42.81-.165 29.433.387 31.639-.564 39.463zm115.56 52.444c6.805 9.817-.21 23.189-12.143 23.189h-83.263c-11.945 0-18.941-13.382-12.143-23.19l41.631-60.069c5.862-8.456 18.382-8.52 24.287 0zm-125.888-257.05c4.143 0 7.5-3.358 7.5-7.5v-12c0-4.142-3.357-7.5-7.5-7.5-4.142 0-7.5 3.358-7.5 7.5v12c0 4.142 3.357 7.5 7.5 7.5zm-117.396-7.5c-.209-11.173.508-12.601-.728-15.207 2.915-.691 5.722-1.812 8.308-3.366 3.55-2.133 4.699-6.741 2.566-10.291-2.134-3.551-6.74-4.698-10.292-2.566-4.422 2.657-10.286 2.657-14.708 0-3.552-2.132-8.158-.985-10.292 2.566-2.134 3.55-.984 8.158 2.565 10.291 2.586 1.554 5.393 2.675 8.309 3.366-1.235 2.602-.518 3.985-.727 15.206 0 4.142 3.357 7.5 7.5 7.5 4.141.001 7.499-3.357 7.499-7.499zm38.484 10.225h.12.111c6.203 0 20.472.023 29.857 3.861 3.817 1.56 8.207-.252 9.781-4.104 1.567-3.834-.27-8.213-4.104-9.781-11.675-4.773-24.689-4.734-35.767-4.976-4.143 0-7.5 3.358-7.5 7.5s3.359 7.5 7.502 7.5z"/></g></svg>