<svg id="Capa_1" enable-background="new 0 0 512.006 512.006" height="512" viewBox="0 0 512.006 512.006" width="512" xmlns="http://www.w3.org/2000/svg"><g><g><g clip-rule="evenodd" fill-rule="evenodd"><path d="m105.982 401.248c0 56.792 46.466 103.258 103.258 103.258h25.435c6.426 0 16.147-7.822 21.328-15.634 5.181 7.812 14.903 15.634 21.328 15.634h25.435c56.793 0 103.259-46.466 103.259-103.258v-50.495c0-25.202-9.156-48.367-24.298-66.344l-11.925-74.353c-7.964-49.658-41.148-91.441-91.44-91.441h-44.716c-50.292 0-83.476 41.783-91.441 91.441l-11.925 74.354c-15.142 17.977-24.298 41.141-24.298 66.344z" fill="#aae79a"/><path d="m256.003 50.034c53.3 72.142 89.361 38.872 141.538 0-52.177-38.873-88.238-72.142-141.538 0z" fill="#aae79a"/><path d="m256.003 50.034c27.472 37.184 50.365 46.363 73.245 41.206-15.766-3.792-32.214-16.122-50.745-41.206 18.532-25.083 34.979-37.414 50.745-41.205-22.88-5.159-45.773 4.021-73.245 41.205z" fill="#8edf78"/><path d="m105.982 401.248c0 56.792 46.466 103.258 103.258 103.258 0 0-80.759-8.759-80.759-103.258v-50.495c0-25.202 9.156-48.367 24.298-66.344l11.925-74.353c13.743-85.691 68.941-91.441 68.941-91.441-50.292 0-83.476 41.783-91.441 91.441l-11.924 74.354c-15.142 17.977-24.298 41.141-24.298 66.344z" fill="#8edf78"/></g><g><path d="m209.239 482.006c-44.53 0-80.758-36.229-80.758-80.759h15c0 36.26 29.499 65.759 65.758 65.759zm-65.757-95.758h-15v-15.001h15zm199.898-104.131-2.376-14.812 14.811-2.375 2.376 14.81zm-4.751-29.623-5.854-36.499c-3.612-22.526-14.194-41.876-28.307-51.761l8.605-12.285c17.627 12.347 30.206 34.825 34.512 61.671l5.854 36.499zm7.374-194.96h-15v-15h15z" fill="#fff"/></g></g><g><path d="m302.766 497.006h-25.435c-2.495 0-9.153-4.412-13.828-10.528v-16.171h-15v16.171c-4.675 6.116-11.333 10.528-13.828 10.528h-25.436c-52.801 0-95.758-42.957-95.758-95.759v-50.494c0-22.414 8.003-44.259 22.534-61.513l1.34-1.59 11.066-69.001-14.811-2.375-10.414 64.933c-15.953 19.69-24.716 44.303-24.716 69.546v50.494c0 61.072 49.686 110.759 110.758 110.759h25.436c7.021 0 15.087-5.092 21.328-11.385 6.241 6.293 14.308 11.385 21.328 11.385h25.435c31.148 0 61.081-13.35 82.121-36.626l-11.127-10.059c-18.201 20.136-44.077 31.685-70.993 31.685z"/><path d="m388.809 281.207-11.602-72.338c-4.283-26.703-15.568-50.952-31.775-68.278-18.038-19.283-41.23-29.476-67.07-29.476v15c48.618 0 77.238 42.756 84.035 85.129l12.254 76.406 1.34 1.59c14.531 17.254 22.534 39.099 22.534 61.513v50.494c0 18.96-5.602 37.325-16.2 53.11l12.453 8.361c12.265-18.267 18.747-39.523 18.747-61.472v-50.494c0-25.242-8.763-49.854-24.716-69.545z"/><path d="m233.645 126.116v-15c-47.439 0-85.668 35.326-97.39 89.997l14.666 3.145c10.179-47.469 42.65-78.142 82.724-78.142z"/><path d="m248.503 22.506v120.984h-22.5v15h60v-15h-22.5v-72.423c15.519 16.958 30.551 26.107 46.407 28.423 2.67.39 5.313.576 7.936.576 25.579 0 49.207-17.757 76.169-38.02 2.629-1.975 16.079-12.013 16.079-12.013s-13.451-10.038-16.08-12.014c-29.726-22.339-55.399-41.638-84.104-37.441-15.856 2.315-30.888 11.463-46.407 28.422v-6.494c0-12.406-10.093-22.5-22.499-22.5h-22.5v15h22.5c4.135 0 7.499 3.365 7.499 7.5zm63.574-7.087c22.523-3.283 44.766 13.428 72.926 34.592.01.007.02.015.03.022-.01.008-.02.015-.029.022-28.162 21.163-50.397 37.874-72.927 34.591-13.071-1.909-26.406-10.813-40.519-27.113h44.445v-15h-44.445c14.113-16.3 27.449-25.205 40.519-27.114z"/><path d="m233.503 304.061h15v15h-15z"/><path d="m263.503 304.061h15v15h-15z"/></g></g></svg>