<svg id="Capa_1" enable-background="new 0 0 512 512" height="512" viewBox="0 0 512 512" width="512" xmlns="http://www.w3.org/2000/svg"><g><path d="m95.568 71.637v160.396c0 9.643 7.817 17.46 17.46 17.46h285.943c9.643 0 17.46-7.817 17.46-17.46v-160.396c0-35.422-28.715-64.137-64.137-64.137-10.901 0-21.47 3.749-29.934 10.617l-3.518 2.855c-1.068.866-2.58.922-3.709.137l-7.338-5.103c-7.962-5.538-17.428-8.506-27.126-8.506h-120.964c-35.422 0-64.137 28.715-64.137 64.137z" fill="#365e7d"/><g><path d="m352.294 7.5c-5.418 0-10.754.928-15.79 2.703 26.433 7.922 45.701 32.423 45.701 61.434v160.396c0 9.643-7.817 17.46-17.46 17.46h34.227c9.643 0 17.46-7.817 17.46-17.46v-160.396c-.001-35.422-28.716-64.137-64.138-64.137z" fill="#2b4d66"/></g><path d="m301.77 345.03h-18.801-53.939-18.801c-37.413 0-67.742 30.329-67.742 67.742v83.1c0 4.765 3.863 8.628 8.628 8.628h209.77c4.765 0 8.628-3.863 8.628-8.628v-83.1c-.001-37.413-30.33-67.742-67.743-67.742z" fill="#dd636e"/><path d="m301.77 345.03h-33.008c37.413 0 67.742 30.329 67.742 67.742v83.1c0 4.765-3.863 8.628-8.628 8.628h33.008c4.765 0 8.627-3.863 8.627-8.628v-83.1c.001-37.413-30.328-67.742-67.741-67.742z" fill="#da4a54"/><g><path d="m274.88 295.08-36.221-2.131c-9.248 0-9.654 43.328-9.654 43.328v26.524c0 14.895 12.075 26.97 26.97 26.97 14.895 0 26.97-12.075 26.97-26.97v-26.524s1.183-41.197-8.065-41.197z" fill="#eaac9d"/></g><path d="m256 345.03c-71.877 0-130.145-58.268-130.145-130.144v-78.716c0-1.89 1.537-3.415 3.427-3.419 60.234-.111 113.469-8.738 160.955-39.423 1.419-.917 3.315-.624 4.332.725 21.444 28.468 50.691 36.346 88.165 38.514 1.911.111 3.411 1.68 3.411 3.595v78.724c-.001 71.877-58.268 130.144-130.145 130.144z" fill="#ffcbbe"/><path d="m382.733 132.568c-11.027-.638-21.336-1.778-30.949-3.783v86.102c0 66.052-49.209 120.606-112.965 129.014 5.622.741 11.355 1.13 17.18 1.13 71.877 0 130.144-58.268 130.144-130.144v-78.724c.001-1.915-1.499-3.485-3.41-3.595z" fill="#eaac9d"/><ellipse cx="200.74" cy="208.31" fill="#f6f9f9" rx="21.604" ry="23.604"/><ellipse cx="311.259" cy="208.31" fill="#f6f9f9" rx="21.604" ry="23.604"/><g><path d="m416.432 85.305c4.143 0 7.5-3.357 7.5-7.5v-6.168c0-39.501-32.137-71.637-71.638-71.637-12.582 0-24.892 4.366-34.66 12.293l-.942.765-4.614-3.209c-9.263-6.444-20.125-9.849-31.41-9.849h-120.963c-39.501 0-71.637 32.136-71.637 71.637v160.396c0 13.763 11.197 24.96 24.96 24.96h11.923c11.595 36.002 37.636 65.581 71.27 81.865-34.815 6.585-61.234 37.214-61.234 73.914v83.1c0 8.893 7.235 16.128 16.127 16.128h139.646c4.143 0 7.5-3.357 7.5-7.5s-3.357-7.5-7.5-7.5h-139.645c-.622 0-1.127-.506-1.127-1.128v-83.1c0-33.218 27.024-60.242 60.242-60.242h11.276v10.271c0 19.007 15.463 34.47 34.47 34.47 19.006 0 34.469-15.463 34.469-34.47v-10.271h11.325c33.218 0 60.242 27.024 60.242 60.242v83.1c0 .622-.506 1.128-1.128 1.128h-40.137c-4.143 0-7.5 3.357-7.5 7.5s3.357 7.5 7.5 7.5h40.137c8.893 0 16.128-7.235 16.128-16.128v-83.1c0-36.7-26.419-67.329-61.234-73.914 33.634-16.284 59.675-45.863 71.27-81.865h11.923c13.764 0 24.961-11.197 24.961-24.96v-124.241c0-4.143-3.357-7.5-7.5-7.5s-7.5 3.357-7.5 7.5v124.241c0 5.492-4.469 9.96-9.961 9.96h-8.014c1.758-8.767 2.687-17.831 2.687-27.107v-78.724c0-5.872-4.601-10.739-10.477-11.082-35.044-2.027-62.502-8.847-82.608-35.539-3.355-4.455-9.678-5.56-14.393-2.512-40.713 26.309-89.103 38.098-156.896 38.223-6.019.01-10.915 4.907-10.915 10.918v41.631c0 4.143 3.358 7.5 7.5 7.5s7.5-3.357 7.5-7.5v-37.57c66.977-.582 115.95-12.54 157.679-38.527 23.845 29.284 55.957 35.972 87.609 38.122v75.061c0 67.626-55.018 122.645-122.644 122.645s-122.645-55.019-122.645-122.645v-7.098c0-4.143-3.358-7.5-7.5-7.5s-7.5 3.357-7.5 7.5v7.098c0 9.277.928 18.34 2.687 27.107h-8.014c-5.492 0-9.96-4.468-9.96-9.96v-160.397c0-31.229 25.407-56.637 56.637-56.637h120.963c8.208 0 16.107 2.477 22.845 7.163l7.338 5.104c3.848 2.675 9.077 2.481 12.716-.471l3.519-2.855c7.105-5.766 16.058-8.94 25.209-8.94 31.23 0 56.638 25.407 56.638 56.637v6.168c0 4.141 3.357 7.499 7.5 7.499zm-140.987 265.845v11.65c0 10.735-8.734 19.47-19.47 19.47s-19.469-8.734-19.469-19.47v-11.657c6.371.907 12.877 1.387 19.494 1.387 6.6 0 13.09-.477 19.445-1.38z"/><path d="m200.74 198.165c-4.142 0-7.5 3.357-7.5 7.5v5.289c0 4.143 3.358 7.5 7.5 7.5s7.5-3.357 7.5-7.5v-5.289c0-4.143-3.358-7.5-7.5-7.5z"/><path d="m303.759 210.954c0 4.143 3.357 7.5 7.5 7.5s7.5-3.357 7.5-7.5v-5.289c0-4.143-3.357-7.5-7.5-7.5s-7.5 3.357-7.5 7.5z"/><path d="m297.661 266.063c-9.688 10.989-25.263 17.55-41.662 17.55-16.4 0-31.974-6.561-41.662-17.55-2.739-3.106-7.479-3.406-10.585-.666-3.107 2.739-3.406 7.479-.667 10.586 12.678 14.382 31.965 22.63 52.914 22.63s40.235-8.248 52.914-22.63c2.739-3.107 2.44-7.847-.666-10.586-3.107-2.739-7.846-2.441-10.586.666z"/><path d="m201.968 154.284c-18.107-4.576-30.813 7.61-35 14.696-2.107 3.566-.924 8.166 2.642 10.272 1.197.708 2.511 1.044 3.808 1.044 2.566 0 5.065-1.317 6.464-3.686.064-.108 6.535-10.784 18.407-7.784 4.018 1.01 8.095-1.417 9.11-5.433 1.016-4.014-1.415-8.092-5.431-9.109z"/><path d="m313.709 168.827c11.427-2.894 17.724 6.678 18.435 7.828 1.404 2.342 3.888 3.642 6.438 3.642 1.297 0 2.611-.336 3.809-1.044 3.566-2.107 4.749-6.706 2.642-10.272-4.187-7.085-16.889-19.271-35-14.696-4.016 1.017-6.448 5.095-5.432 9.11 1.014 4.015 5.096 6.44 9.108 5.432z"/></g></g></svg>