<?xml version="1.0" encoding="iso-8859-1"?>
<!-- Generator: Adobe Illustrator 19.0.0, SVG Export Plug-In . SVG Version: 6.00 Build 0)  -->
<svg version="1.1" id="Capa_1" xmlns="http://www.w3.org/2000/svg" xmlns:xlink="http://www.w3.org/1999/xlink" x="0px" y="0px"
	 viewBox="0 0 464 464" style="enable-background:new 0 0 464 464;" xml:space="preserve">
<ellipse style="fill:#BDDBFF;" cx="232" cy="64" rx="192" ry="56"/>
<path style="fill:#9BC9FF;" d="M232,232c106,0,192-25.04,192-56V64c0,30.96-86,56-192,56S40,94.96,40,64v112
	C40,206.96,126,232,232,232z"/>
<path style="fill:#57A4FF;" d="M232,344c106,0,192-25.04,192-56V176c0,30.96-86,56-192,56S40,206.96,40,176v112
	C40,318.96,126,344,232,344z"/>
<path style="fill:#2488FF;" d="M424,288c0,30.96-86,56-192,56S40,318.96,40,288v112c0,30.96,86,56,192,56s192-25.04,192-56V288z"/>
<path style="fill:#231F20;" d="M232,0C135.04,0,32,22.4,32,64v336c0,41.6,103.04,64,200,64s200-22.4,200-64V64
	C432,22.4,328.96,0,232,0z M416,202.352V288c0,20.04-70,48-184,48S48,308.04,48,288v-85.648c0.184,0.144,0.424,0.272,0.608,0.416
	c1.816,1.336,3.728,2.64,5.792,3.912c0.328,0.2,0.688,0.392,1.016,0.592c1.864,1.104,3.832,2.184,5.88,3.24l1.672,0.864
	c2.36,1.168,4.8,2.304,7.392,3.408l1.528,0.624c2.272,0.944,4.616,1.859,7.032,2.744l1.976,0.728
	c2.827,1.003,5.741,1.973,8.744,2.912l2.024,0.608c2.616,0.8,5.28,1.544,8,2.288c0.72,0.192,1.424,0.392,2.144,0.576
	c3.2,0.848,6.499,1.648,9.896,2.4c0.8,0.184,1.6,0.352,2.4,0.528c2.944,0.656,5.936,1.285,8.976,1.888l2.128,0.424
	c3.541,0.683,7.144,1.325,10.808,1.928c0.888,0.152,1.792,0.288,2.688,0.432c3.2,0.52,6.488,1.016,9.792,1.48l1.976,0.28
	c3.792,0.533,7.621,1.011,11.488,1.432l2.912,0.32c3.547,0.384,7.112,0.741,10.696,1.072l1.456,0.136c4,0.352,8,0.648,12,0.92
	l2.992,0.2c3.808,0.24,7.621,0.448,11.44,0.624l0.952,0.048c4.08,0.176,8.163,0.309,12.248,0.4l2.992,0.064
	c4.12,0.08,8.24,0.136,12.352,0.136c4.112,0,8.232-0.056,12.352-0.136l2.992-0.064c4.091-0.096,8.173-0.229,12.248-0.4l0.952-0.048
	c3.824-0.176,7.637-0.384,11.44-0.624l2.992-0.2c4-0.272,8-0.568,12-0.92l1.456-0.136c3.595-0.325,7.16-0.683,10.696-1.072
	l2.912-0.32c3.867-0.448,7.696-0.925,11.488-1.432l1.976-0.28c3.304-0.464,6.56-0.96,9.792-1.48c0.896-0.144,1.8-0.28,2.688-0.432
	c3.659-0.608,7.261-1.251,10.808-1.928l2.128-0.424c3.04-0.603,6.032-1.232,8.976-1.888c0.8-0.176,1.6-0.344,2.4-0.528
	c3.376-0.768,6.675-1.568,9.896-2.4c0.72-0.184,1.424-0.384,2.144-0.576c2.736-0.744,5.4-1.504,8-2.288l2.024-0.608
	c3.008-0.939,5.923-1.909,8.744-2.912l1.976-0.728c2.416-0.885,4.76-1.8,7.032-2.744l1.528-0.624
	c2.576-1.104,5.032-2.24,7.392-3.408l1.672-0.864c2.048-1.056,4-2.136,5.88-3.24c0.328-0.2,0.688-0.392,1.016-0.592
	c2.064-1.272,4-2.576,5.792-3.912C415.576,202.624,415.816,202.496,416,202.352L416,202.352z M416,90.352V176c0,20-70,48-184,48
	S48,196,48,176V90.352c0.184,0.144,0.424,0.272,0.608,0.416c1.816,1.336,3.728,2.64,5.792,3.912c0.328,0.2,0.688,0.392,1.016,0.592
	c1.864,1.104,3.832,2.184,5.88,3.2l1.672,0.864c2.36,1.168,4.8,2.304,7.392,3.408l1.528,0.624c2.272,0.944,4.616,1.859,7.032,2.744
	l1.976,0.728c2.827,1.003,5.741,1.973,8.744,2.912l2.024,0.608c2.616,0.8,5.28,1.544,8,2.288c0.72,0.192,1.424,0.392,2.144,0.576
	c3.2,0.848,6.499,1.648,9.896,2.4c0.8,0.184,1.6,0.352,2.4,0.528c2.944,0.656,5.936,1.285,8.976,1.888l2.128,0.424
	c3.541,0.683,7.144,1.325,10.808,1.928c0.888,0.152,1.792,0.288,2.688,0.432c3.2,0.52,6.488,1.016,9.792,1.48l1.976,0.28
	c3.792,0.533,7.621,1.011,11.488,1.432l2.912,0.32c3.547,0.384,7.112,0.741,10.696,1.072l1.456,0.136c4,0.352,8,0.648,12,0.92
	l2.992,0.2c3.808,0.24,7.621,0.448,11.44,0.624l0.952,0.048c4.08,0.176,8.163,0.309,12.248,0.4l2.992,0.064
	c4.12,0.08,8.24,0.136,12.352,0.136c4.112,0,8.232-0.056,12.352-0.136l2.992-0.064c4.091-0.096,8.173-0.229,12.248-0.4l0.952-0.048
	c3.824-0.176,7.637-0.384,11.44-0.624l2.992-0.2c4-0.272,8-0.568,12-0.92l1.456-0.136c3.595-0.325,7.16-0.683,10.696-1.072
	l2.912-0.32c3.867-0.448,7.696-0.925,11.488-1.432l1.976-0.28c3.304-0.464,6.56-0.96,9.792-1.48c0.896-0.144,1.8-0.28,2.688-0.432
	c3.659-0.608,7.261-1.251,10.808-1.928l2.128-0.424c3.04-0.603,6.032-1.232,8.976-1.888c0.8-0.176,1.6-0.344,2.4-0.528
	c3.376-0.768,6.675-1.568,9.896-2.4c0.72-0.184,1.424-0.384,2.144-0.576c2.736-0.744,5.4-1.504,8-2.288l2.024-0.608
	c3.008-0.939,5.923-1.909,8.744-2.912l1.976-0.728c2.416-0.885,4.76-1.8,7.032-2.744l1.528-0.624
	c2.576-1.104,5.032-2.24,7.392-3.408l1.672-0.864c2.048-1.056,4-2.136,5.88-3.2c0.328-0.2,0.688-0.392,1.016-0.592
	c2.064-1.272,4-2.576,5.792-3.912C415.576,90.624,415.816,90.496,416,90.352z M232,16c114,0,184,27.96,184,48s-70,48-184,48
	S48,84.04,48,64S118,16,232,16z M416,400c0,20.04-70,48-184,48S48,420.04,48,400v-85.648c0.184,0.144,0.424,0.272,0.608,0.416
	c1.816,1.336,3.728,2.64,5.792,3.912c0.328,0.2,0.688,0.392,1.016,0.592c1.864,1.104,3.832,2.184,5.88,3.24l1.672,0.864
	c2.36,1.168,4.8,2.304,7.392,3.408l1.528,0.624c2.272,0.944,4.616,1.859,7.032,2.744l1.976,0.728
	c2.827,1.003,5.741,1.973,8.744,2.912l2.024,0.608c2.616,0.8,5.28,1.544,8,2.288c0.72,0.192,1.424,0.392,2.144,0.576
	c3.2,0.848,6.499,1.648,9.896,2.4c0.8,0.184,1.6,0.352,2.4,0.528c2.944,0.656,5.936,1.285,8.976,1.888l2.128,0.424
	c3.541,0.677,7.144,1.32,10.808,1.928c0.888,0.152,1.792,0.288,2.688,0.432c3.2,0.52,6.488,1.016,9.792,1.48l1.976,0.28
	c3.792,0.533,7.621,1.011,11.488,1.432l2.912,0.32c3.547,0.384,7.112,0.741,10.696,1.072l1.456,0.136c4,0.352,8,0.648,12,0.92
	l2.992,0.2c3.808,0.24,7.621,0.448,11.44,0.624l0.952,0.048c4.08,0.176,8.163,0.309,12.248,0.4l2.992,0.064
	c4.12,0.08,8.24,0.136,12.352,0.136c4.112,0,8.232-0.056,12.352-0.136l2.992-0.064c4.091-0.096,8.173-0.229,12.248-0.4l0.952-0.048
	c3.824-0.176,7.637-0.384,11.44-0.624l2.992-0.2c4-0.272,8-0.568,12-0.92l1.456-0.136c3.595-0.325,7.16-0.683,10.696-1.072
	l2.912-0.32c3.867-0.448,7.696-0.925,11.488-1.432l1.976-0.28c3.304-0.464,6.56-0.96,9.792-1.48c0.896-0.144,1.8-0.28,2.688-0.432
	c3.659-0.608,7.261-1.251,10.808-1.928l2.128-0.424c3.04-0.597,6.032-1.227,8.976-1.888c0.8-0.176,1.6-0.344,2.4-0.528
	c3.376-0.768,6.675-1.568,9.896-2.4c0.72-0.184,1.424-0.384,2.144-0.576c2.736-0.744,5.4-1.504,8-2.288l2.024-0.608
	c3.008-0.933,5.923-1.904,8.744-2.912l1.976-0.728c2.416-0.885,4.76-1.8,7.032-2.744l1.528-0.624
	c2.576-1.104,5.032-2.24,7.392-3.408l1.672-0.864c2.048-1.056,4-2.136,5.88-3.24c0.328-0.2,0.688-0.392,1.016-0.592
	c2.064-1.272,4-2.576,5.792-3.912c0.184-0.144,0.424-0.272,0.608-0.416V400z"/>
<g>
</g>
<g>
</g>
<g>
</g>
<g>
</g>
<g>
</g>
<g>
</g>
<g>
</g>
<g>
</g>
<g>
</g>
<g>
</g>
<g>
</g>
<g>
</g>
<g>
</g>
<g>
</g>
<g>
</g>
</svg>
