<svg id="Capa_1" enable-background="new 0 0 512 512" height="512" viewBox="0 0 512 512" width="512" xmlns="http://www.w3.org/2000/svg"><g><g><circle cx="256" cy="112.565" fill="#eb5569" r="105.065"/><circle cx="256" cy="112.565" fill="#fdd1d5" r="78.284"/><path d="m81.434 412.186h24.176v80.225h-24.176z" fill="#5a5a5a"/><path d="m41.14 492.412c0-6.676 5.412-12.088 12.088-12.088h80.588c6.676 0 12.088 5.412 12.088 12.088 0 6.676-5.412 12.088-12.088 12.088h-80.588c-6.676 0-12.088-5.412-12.088-12.088z" fill="#838383"/><path d="m243.912 412.186h24.176v80.225h-24.176z" fill="#5a5a5a"/><path d="m203.618 492.412c0-6.676 5.412-12.088 12.088-12.088h80.588c6.676 0 12.088 5.412 12.088 12.088 0 6.676-5.412 12.088-12.088 12.088h-80.588c-6.676 0-12.088-5.412-12.088-12.088z" fill="#838383"/><path d="m406.39 412.186h24.176v80.225h-24.176z" fill="#5a5a5a"/><path d="m366.095 492.412c0-6.676 5.412-12.088 12.088-12.088h80.588c6.676 0 12.088 5.412 12.088 12.088 0 6.676-5.412 12.088-12.088 12.088h-80.588c-6.675 0-12.088-5.412-12.088-12.088z" fill="#838383"/><g fill="#444"><path d="m81.434 418.989h24.177v37.419h-24.177z"/><path d="m243.912 418.989h24.177v37.419h-24.177z"/><path d="m406.39 418.989h24.177v37.419h-24.177z"/></g><path d="m161.714 393.477h-136.383v-86.901c0-27.328 22.154-49.482 49.482-49.482h37.419c27.328 0 49.482 22.154 49.482 49.482z" fill="#08a9f1"/><path d="m12.283 423.511v-22.648c0-4.079 3.307-7.385 7.385-7.385h147.707c4.079 0 7.385 3.307 7.385 7.385v22.648c0 4.079-3.307 7.385-7.385 7.385h-147.706c-4.079 0-7.386-3.307-7.386-7.385z" fill="#01c0fa"/><path d="m324.191 393.477h-136.382v-86.901c0-27.328 22.154-49.482 49.482-49.482h37.419c27.328 0 49.482 22.154 49.482 49.482v86.901z" fill="#08a9f1"/><path d="m174.761 423.511v-22.648c0-4.079 3.307-7.385 7.385-7.385h147.707c4.079 0 7.385 3.307 7.385 7.385v22.648c0 4.079-3.307 7.385-7.385 7.385h-147.707c-4.078 0-7.385-3.307-7.385-7.385z" fill="#01c0fa"/><path d="m486.669 393.477h-136.383v-86.901c0-27.328 22.154-49.482 49.482-49.482h37.419c27.328 0 49.482 22.154 49.482 49.482z" fill="#08a9f1"/><path d="m337.239 423.511v-22.648c0-4.079 3.307-7.385 7.385-7.385h147.707c4.079 0 7.385 3.307 7.385 7.385v22.648c0 4.079-3.307 7.385-7.385 7.385h-147.707c-4.079 0-7.385-3.307-7.385-7.385z" fill="#01c0fa"/><path d="m256 7.5c-4.536 0-9.005.289-13.39.85 51.634 6.597 91.675 50.818 91.675 104.216s-40.041 97.619-91.675 104.216c4.386.56 8.855.849 13.39.849 57.933 0 105.065-47.132 105.065-105.065s-47.132-105.066-105.065-105.066z" fill="#e53950"/><path d="m112.232 257.094h-31.181c27.328 0 49.482 22.154 49.482 49.482v86.901h31.181v-86.901c0-27.328-22.154-49.482-49.482-49.482z" fill="#0290cf"/><path d="m274.71 257.094h-31.181c27.328 0 49.482 22.154 49.482 49.482v86.901h31.181v-86.901c-.001-27.328-22.154-49.482-49.482-49.482z" fill="#0290cf"/><path d="m437.188 257.094h-31.181c27.328 0 49.482 22.154 49.482 49.482v86.901h31.181v-86.901c-.001-27.328-22.154-49.482-49.482-49.482z" fill="#0290cf"/><path d="m167.376 393.477h-31.181c4.079 0 7.385 3.307 7.385 7.385v22.648c0 4.079-3.307 7.385-7.385 7.385h31.181c4.079 0 7.385-3.307 7.385-7.385v-22.648c0-4.079-3.306-7.385-7.385-7.385z" fill="#08a9f1"/><path d="m329.854 393.477h-31.181c4.079 0 7.385 3.307 7.385 7.385v22.648c0 4.079-3.307 7.385-7.385 7.385h31.181c4.079 0 7.385-3.307 7.385-7.385v-22.648c0-4.079-3.307-7.385-7.385-7.385z" fill="#08a9f1"/><path d="m492.331 393.477h-31.181c4.079 0 7.385 3.307 7.385 7.385v22.648c0 4.079-3.306 7.385-7.385 7.385h31.181c4.079 0 7.385-3.307 7.385-7.385v-22.648c.001-4.079-3.306-7.385-7.385-7.385z" fill="#08a9f1"/></g><g><path d="m494.169 386.102v-79.526c0-9.135-2.216-18.221-6.408-26.277-1.913-3.675-6.445-5.101-10.115-3.191-3.675 1.912-5.104 6.441-3.191 10.115 3.129 6.012 4.715 12.523 4.715 19.354v79.4h-121.384v-79.4c0-23.149 18.833-41.982 41.982-41.982h37.419c5.454 0 10.755 1.027 15.755 3.055 3.841 1.556 8.212-.295 9.769-4.134 1.556-3.839-.295-8.212-4.134-9.769-6.799-2.755-13.995-4.152-21.39-4.152h-37.419c-31.42 0-56.982 25.563-56.982 56.982v79.526c-1.999.248-3.873.892-5.547 1.854-1.674-.962-3.548-1.606-5.548-1.854v-79.526c0-31.42-25.562-56.982-56.981-56.982h-37.42c-31.42 0-56.981 25.563-56.981 56.982v79.526c-1.999.248-3.874.892-5.548 1.854-1.674-.962-3.548-1.606-5.547-1.854v-79.526c0-31.42-25.563-56.982-56.982-56.982h-37.419c-31.42 0-56.981 25.563-56.981 56.982v79.526c-7.342.91-13.048 7.176-13.048 14.76v22.648c0 8.208 6.678 14.886 14.886 14.886h13.179c4.143 0 7.5-3.357 7.5-7.5s-3.357-7.5-7.5-7.5h-13.066v-22.42h147.478v22.42h-61.65c-13.946 0-23.527 0-37.763 0-4.143 0-7.5 3.357-7.5 7.5s3.357 7.5 7.5 7.5h6.086v34.427h-20.706c-10.801 0-19.588 8.787-19.588 19.589 0 10.801 8.787 19.588 19.588 19.588h80.589c10.801 0 19.588-8.787 19.588-19.588 0-10.802-8.787-19.589-19.588-19.589h-20.707v-34.427h54.266c2.688 0 5.206-.727 7.385-1.979 2.179 1.252 4.697 1.979 7.386 1.979h54.266v34.427h-20.706c-10.802 0-19.589 8.787-19.589 19.589 0 10.801 8.787 19.588 19.589 19.588h80.588c10.802 0 19.589-8.787 19.589-19.588 0-10.802-8.787-19.589-19.589-19.589h-20.706v-34.427h54.266c2.689 0 5.206-.727 7.386-1.979 2.179 1.252 4.696 1.979 7.385 1.979h54.266v34.427h-20.706c-10.801 0-19.588 8.787-19.588 19.589 0 10.801 8.787 19.588 19.588 19.588h80.589c10.801 0 19.588-8.787 19.588-19.588 0-10.802-8.787-19.589-19.588-19.589h-20.706v-34.427h54.265c8.208 0 14.886-6.678 14.886-14.886v-22.648c-.003-7.585-5.709-13.851-13.051-14.761zm-298.86-79.526c0-23.149 18.833-41.982 41.981-41.982h37.42c23.148 0 41.981 18.833 41.981 41.982v79.4h-121.382zm-162.478 79.401v-79.4c0-23.149 18.833-41.982 41.981-41.982h37.419c23.149 0 41.982 18.833 41.982 41.982v79.4zm105.573 106.435c0 2.529-2.059 4.588-4.588 4.588h-80.588c-2.529 0-4.588-2.059-4.588-4.588 0-2.53 2.059-4.589 4.588-4.589h80.589c2.529 0 4.587 2.059 4.587 4.589zm-40.294-19.589h-9.177v-34.427h9.177zm84.151-49.311c0-.001 0-.001 0 0zm0-22.535h147.479v22.42c-7.184 0-140.595 0-147.479 0zm118.622 91.435c0 2.529-2.059 4.588-4.589 4.588h-80.588c-2.53 0-4.589-2.059-4.589-4.588 0-2.53 2.059-4.589 4.589-4.589h80.588c2.53 0 4.589 2.059 4.589 4.589zm-40.295-19.589h-9.176v-34.427h9.176zm84.151-49.311c0-.001 0-.001 0 0zm118.621 68.9c0 2.529-2.059 4.588-4.588 4.588h-80.589c-2.529 0-4.588-2.059-4.588-4.588 0-2.53 2.059-4.589 4.588-4.589h80.589c2.53 0 4.588 2.059 4.588 4.589zm-40.294-19.589h-9.177v-34.427h9.177zm69.151-49.427c-6.882 0-140.289 0-147.478 0v-22.42h147.478z"/><path d="m256 120.065h30.936c4.143 0 7.5-3.357 7.5-7.5s-3.357-7.5-7.5-7.5h-23.436v-32.624c0-4.143-3.357-7.5-7.5-7.5s-7.5 3.357-7.5 7.5v40.124c0 4.143 3.357 7.5 7.5 7.5z"/><path d="m256 225.131c62.068 0 112.565-50.497 112.565-112.565s-50.497-112.566-112.565-112.566-112.565 50.497-112.565 112.565 50.497 112.566 112.565 112.566zm0-210.131c53.798 0 97.565 43.768 97.565 97.565s-43.767 97.566-97.565 97.566-97.565-43.768-97.565-97.565 43.767-97.566 97.565-97.566z"/><path d="m256 198.35c47.302 0 85.784-38.482 85.784-85.784s-38.482-85.786-85.784-85.786-85.784 38.483-85.784 85.785 38.482 85.785 85.784 85.785zm-7.56-156.161v6.31c0 4.143 3.357 7.5 7.5 7.5s7.5-3.357 7.5-7.5v-6.325c32.961 3.459 59.247 29.632 62.898 62.537h-6.541c-4.143 0-7.5 3.357-7.5 7.5s3.357 7.5 7.5 7.5h6.627c-3.345 33.218-29.754 59.728-62.924 63.238v-6.941c0-4.143-3.357-7.5-7.5-7.5s-7.5 3.357-7.5 7.5v6.941c-33.17-3.51-59.579-30.02-62.924-63.238h6.627c4.143 0 7.5-3.357 7.5-7.5s-3.357-7.5-7.5-7.5h-6.541c3.646-32.865 29.874-59.012 62.778-62.522z"/></g></g></svg>