<svg id="Layer_1" enable-background="new 0 0 479.801 479.801" height="512" viewBox="0 0 479.801 479.801" width="512" xmlns="http://www.w3.org/2000/svg"><path d="m420 65.901v348c0 17.67-14.33 32-32 32h-348c-17.67 0-32-14.33-32-32v-348c0-17.67 14.33-32 32-32h348c17.67 0 32 14.33 32 32z" fill="#ffaa64"/><path d="m420 65.901c0 15.464-12.536 28-28 28h-174c-82.843 0-150 67.157-150 150v174c0 15.464-12.536 28-28 28-17.673 0-32-14.327-32-32v-348c0-17.673 14.327-32 32-32h348c17.673 0 32 14.327 32 32z" fill="#ffbd7b"/><path d="m277.34 33.901v98.36c0 12.07-12.85 19.79-23.51 14.13l-31.75-16.87c-4.7-2.49-10.32-2.49-15.02 0l-31.75 16.87c-10.66 5.66-23.51-2.06-23.51-14.13v-98.36z" fill="#e8f8fc"/><path d="m277.34 93.901v38.36c0 12.07-12.85 19.79-23.51 14.13l-31.75-16.87c-4.7-2.49-10.32-2.49-15.02 0l-31.75 16.87c-10.66 5.66-23.51-2.06-23.51-14.13v-23c19.96-9.83 42.44-15.36 66.2-15.36z" fill="#d6f4fc"/><path d="m464.59 322.701c9.61 9.6 9.61 25.18 0 34.78-14.853 14.853-24.684 25.965-44.59 36.75-50.99 27.67-116.09 19.95-159.21-23.16l-13.59-13.59c-9.6-9.6-9.6-25.18 0-34.78l13.59-13.59c52.62-52.607 137.794-52.416 190.21 0z" fill="#d6f4fc"/><path d="m328.119 384.319c6.087 10.414-4.275 22.84-15.693 18.952-18.866-6.424-36.588-17.159-51.636-32.201l-13.59-13.59c-9.604-9.604-9.604-25.176 0-34.78l13.59-13.59c24.328-24.322 55.646-37.379 87.482-39.171 13.983-.787 19.744 18.204 6.076 25.148-34.693 17.627-43.707 59.328-26.229 89.232z" fill="#e8f8fc"/><path d="m355.9 297.991c23.25 0 42.1 18.85 42.1 42.1s-18.85 42.1-42.1 42.1c-23.26 0-42.11-18.85-42.11-42.1s18.85-42.1 42.11-42.1z" fill="#42434d"/><path d="m360.499 320.867c-10.696 4.356-19.41 13.057-23.789 23.744-4.997 12.196-23.04 8.699-22.876-4.479.272-21.861 16.585-42.443 42.57-42.139 12.967.152 16.106 17.982 4.095 22.874z" fill="#4d4e59"/><path d="m137.834 344.338h-56.792c-4.418 0-8-3.582-8-8s3.582-8 8-8h56.792c4.418 0 8 3.582 8 8s-3.582 8-8 8zm3.775 44.704c4.293-2.298 5.437-7.194 3.444-10.917-1.977-3.693-6.671-5.503-10.995-3.188-3.896 2.085-5.363 6.933-3.278 10.828 2.086 3.894 6.933 5.364 10.829 3.277zm-60.567-15.052c-4.418 0-8 3.582-8 8s3.582 8 8 8h25.708c4.418 0 8-3.582 8-8s-3.582-8-8-8zm338.958 63.911h-380c-13.234 0-24-10.767-24-24v-348c0-13.233 10.766-24 24-24h103.801v90.362c0 18.104 19.277 29.686 35.259 21.195l31.758-16.871c2.35-1.248 5.156-1.249 7.506.001l31.757 16.869c15.999 8.501 35.26-3.107 35.26-21.194v-60.157c0-4.418-3.582-8-8-8s-8 3.582-8 8v60.157c0 6.039-6.424 9.895-11.753 7.064l-31.756-16.869c-7.051-3.747-15.47-3.744-22.52-.001l-31.757 16.871c-5.335 2.83-11.753-1.033-11.753-7.065v-90.362h228.198c13.234 0 24 10.767 24 24v177c0 4.418 3.582 8 8 8s8-3.582 8-8v-177c0-22.056-17.944-40-40-40h-348c-22.056 0-40 17.944-40 40v348c0 22.056 17.944 40 40 40h380c4.418 0 8-3.582 8-8s-3.582-8-8-8zm50.247-74.763-13.586 13.587c-55.558 55.557-145.964 55.563-201.527 0l-13.587-13.587c-12.739-12.739-12.74-33.356 0-46.096l13.587-13.587c55.69-55.691 145.83-55.697 201.527 0l13.586 13.587c12.739 12.739 12.74 33.357 0 46.096zm-11.313-34.781-13.586-13.587c-49.438-49.439-129.457-49.444-178.9 0l-13.587 13.587c-6.485 6.484-6.486 16.982 0 23.467l13.587 13.587c49.296 49.296 129.549 49.35 178.9 0l13.586-13.587c6.485-6.485 6.486-16.982 0-23.467zm-52.934 11.733c0 27.627-22.476 50.103-50.103 50.103s-50.103-22.476-50.103-50.103 22.476-50.104 50.103-50.104 50.103 22.477 50.103 50.104zm-16 0c0-18.805-15.298-34.104-34.103-34.104s-34.103 15.299-34.103 34.104 15.298 34.103 34.103 34.103 34.103-15.298 34.103-34.103z"/></svg>