<svg id="Layer_1" enable-background="new 0 0 512.943 512.943" height="512" viewBox="0 0 512.943 512.943" width="512" xmlns="http://www.w3.org/2000/svg"><g><g><path d="m445.092 505.443h-377.241c-33.071 0-59.88-27.566-59.88-61.571v-374.8c0-34.006 26.809-61.572 59.88-61.572h116.34c7.941 0 15.556 3.243 21.171 9.017l42.341 43.538c5.615 5.773 13.23 9.017 21.171 9.017h176.219c33.071 0 59.88 27.566 59.88 61.571v313.229c-.002 34.005-26.811 61.571-59.881 61.571z" fill="#fef0ae"/><g fill="#fee97d"><path d="m217.702 60.054c5.615 5.773 13.23 9.017 21.171 9.017h30c-7.941 0-15.556-3.243-21.171-9.017l-42.341-43.538c-5.615-5.773-13.23-9.017-21.171-9.017h-30c7.941 0 15.556 3.243 21.171 9.017z"/><path d="m445.092 69.071h-30c33.071 0 59.88 27.567 59.88 61.572v313.229c0 34.005-26.809 61.572-59.88 61.572h30c33.071 0 59.88-27.567 59.88-61.572v-313.229c-.001-34.005-26.81-61.572-59.88-61.572z"/></g><path d="m444.252 505.443h-375.561c-33.535 0-60.72-27.185-60.72-60.72v-240.692c0-33.535 27.185-60.72 60.72-60.72h375.561c33.535 0 60.72 27.185 60.72 60.72v240.693c-.001 33.534-27.186 60.719-60.72 60.719z" fill="#fee97d"/><path d="m444.252 143.311h-30c33.535 0 60.72 27.185 60.72 60.719v240.693c0 33.534-27.185 60.72-60.72 60.72h30c33.535 0 60.72-27.185 60.72-60.72v-240.692c-.001-33.535-27.186-60.72-60.72-60.72z" fill="#fedf30"/><g><g><g><circle cx="256.471" cy="324.377" fill="#f9f7f8" r="95.92"/><path d="m256.471 228.457c-5.103 0-10.112.403-15 1.17 45.849 7.201 80.92 46.878 80.92 94.75s-35.071 87.549-80.92 94.75c4.888.768 9.897 1.17 15 1.17 52.975 0 95.92-42.945 95.92-95.92.001-52.975-42.944-95.92-95.92-95.92z" fill="#efedef"/></g></g><g><path d="m291.349 375.344h-69.755c-5.523 0-10-4.477-10-10v-37.878c0-5.523 4.477-10 10-10h69.755c5.523 0 10 4.477 10 10v37.878c0 5.523-4.477 10-10 10z" fill="#c1e9af"/><path d="m291.349 317.466h-30c5.523 0 10 4.477 10 10v37.878c0 5.523-4.477 10-10 10h30c5.523 0 10-4.477 10-10v-37.878c0-5.523-4.477-10-10-10z" fill="#ade194"/></g></g><circle cx="441.207" cy="401.58" fill="#c1e9af" r="18.765"/><path d="m441.207 382.815c-3.422 0-6.62.931-9.382 2.531 5.603 3.246 9.382 9.292 9.382 16.234 0 6.941-3.779 12.988-9.382 16.234 2.762 1.6 5.96 2.531 9.382 2.531 10.364 0 18.765-8.401 18.765-18.764-.001-10.365-8.402-18.766-18.765-18.766z" fill="#ade194"/><g fill="#c1e9af"><circle cx="441.207" cy="247.174" r="18.765"/><circle cx="71.736" cy="401.58" r="18.765"/><circle cx="71.736" cy="247.174" r="18.765"/><circle cx="441.207" cy="324.377" r="18.765"/><circle cx="71.736" cy="324.377" r="18.765"/></g><path d="m441.207 305.612c-3.422 0-6.62.931-9.382 2.531 5.603 3.246 9.382 9.292 9.382 16.234 0 6.941-3.779 12.988-9.382 16.234 2.762 1.6 5.96 2.531 9.382 2.531 10.364 0 18.765-8.401 18.765-18.764-.001-10.364-8.402-18.766-18.765-18.766z" fill="#ade194"/><path d="m441.207 228.41c-3.422 0-6.62.931-9.382 2.531 5.603 3.246 9.382 9.292 9.382 16.234 0 6.941-3.779 12.988-9.382 16.234 2.762 1.6 5.96 2.531 9.382 2.531 10.364 0 18.765-8.401 18.765-18.764-.001-10.365-8.402-18.766-18.765-18.766z" fill="#ade194"/><path d="m71.737 382.815c-3.422 0-6.62.931-9.382 2.531 5.603 3.246 9.382 9.292 9.382 16.234 0 6.941-3.779 12.988-9.382 16.234 2.762 1.6 5.96 2.531 9.382 2.531 10.364 0 18.765-8.401 18.765-18.764-.001-10.365-8.402-18.766-18.765-18.766z" fill="#ade194"/><path d="m71.737 305.612c-3.422 0-6.62.931-9.382 2.531 5.603 3.246 9.382 9.292 9.382 16.234 0 6.941-3.779 12.988-9.382 16.234 2.762 1.6 5.96 2.531 9.382 2.531 10.364 0 18.765-8.401 18.765-18.764-.001-10.364-8.402-18.766-18.765-18.766z" fill="#ade194"/><path d="m71.737 228.41c-3.422 0-6.62.931-9.382 2.531 5.603 3.246 9.382 9.292 9.382 16.234 0 6.941-3.779 12.988-9.382 16.234 2.762 1.6 5.96 2.531 9.382 2.531 10.364 0 18.765-8.401 18.765-18.764-.001-10.365-8.402-18.766-18.765-18.766z" fill="#ade194"/></g><path d="m504.971 301.609c4.143 0 7.5-3.358 7.5-7.5v-163.466c0-38.086-30.227-69.072-67.38-69.072h-176.218c-5.954 0-11.563-2.396-15.794-6.746l-42.342-43.538c-6.977-7.173-16.652-11.287-26.547-11.287h-116.339c-37.153 0-67.38 30.985-67.38 69.071v374.8c0 38.086 30.227 69.071 67.38 69.071h377.24c37.153 0 67.38-30.985 67.38-69.071v-114.762c0-4.142-3.357-7.5-7.5-7.5s-7.5 3.358-7.5 7.5v114.763c0 29.815-23.497 54.071-52.38 54.071h-377.24c-28.883 0-52.38-24.256-52.38-54.071v-239.841c0-29.346 23.874-53.22 53.22-53.22h77.033c4.143 0 7.5-3.358 7.5-7.5s-3.357-7.5-7.5-7.5h-77.033c-21.506 0-40.707 10.013-53.22 25.611v-92.35c0-29.816 23.498-54.072 52.38-54.072h116.339c5.954 0 11.563 2.396 15.794 6.746l42.341 43.538c6.978 7.173 16.653 11.288 26.548 11.288h176.219c28.883 0 52.38 24.256 52.38 54.072v30.779c-12.513-15.597-31.714-25.611-53.22-25.611h-263.528c-4.143 0-7.5 3.358-7.5 7.5s3.357 7.5 7.5 7.5h263.527c29.346 0 53.22 23.875 53.22 53.22v90.078c0 4.141 3.358 7.499 7.5 7.499zm-117.919-30.849c0-4.155 1.617-8.06 4.554-10.997 2.936-2.936 6.841-4.553 10.996-4.553h13.603c3.403 10.563 13.322 18.229 25.003 18.229 14.482 0 26.265-11.782 26.265-26.265s-11.782-26.265-26.265-26.265c-12.071 0-22.26 8.188-25.32 19.3h-13.285c-8.161 0-15.834 3.177-21.604 8.947-5.769 5.77-8.946 13.441-8.946 21.603 0 8.58-6.976 15.56-15.55 15.56h-3.866c-15.191-38.249-52.569-65.363-96.164-65.363-43.593 0-80.971 27.112-96.162 65.359l-3.868.004c-8.574 0-15.55-6.98-15.55-15.56 0-8.162-3.178-15.833-8.946-21.603-5.77-5.77-13.442-8.947-21.604-8.947h-13.287c-3.06-11.112-13.249-19.3-25.32-19.3-14.482 0-26.265 11.782-26.265 26.265s11.782 26.265 26.265 26.265c11.68 0 21.599-7.666 25.003-18.229h13.603c4.155 0 8.061 1.617 10.996 4.553 2.937 2.937 4.554 6.842 4.554 10.997 0 16.583 13.275 30.113 29.758 30.54-1.119 4.892-1.892 9.914-2.288 15.04h-56.624c-3.404-10.563-13.322-18.228-25.002-18.228-14.482 0-26.265 11.782-26.265 26.265s11.782 26.265 26.265 26.265c12.072 0 22.261-8.189 25.321-19.302h56.234c.368 5.5 1.162 10.886 2.36 16.12-16.48.422-29.76 13.95-29.76 30.53 0 4.155-1.617 8.06-4.554 10.997-2.936 2.936-6.841 4.553-10.996 4.553h-13.604c-3.404-10.561-13.323-18.225-25.001-18.225-14.482 0-26.265 11.782-26.265 26.264s11.782 26.265 26.265 26.265c12.073 0 22.262-8.19 25.321-19.304h13.284c8.161 0 15.834-3.177 21.604-8.947 5.769-5.769 8.946-13.441 8.946-21.603 0-10.248 9.779-16.976 19.418-15.55 15.192 38.246 52.569 65.357 96.162 65.357s80.97-27.111 96.162-65.357c9.647-1.524 19.418 5.344 19.418 15.55 0 8.162 3.178 15.834 8.946 21.603 5.77 5.77 13.442 8.947 21.604 8.947h13.284c3.059 11.114 13.249 19.304 25.321 19.304 14.482 0 26.265-11.782 26.265-26.265 0-14.482-11.782-26.264-26.265-26.264-11.679 0-21.597 7.664-25.001 18.225h-13.604c-4.155 0-8.061-1.617-10.996-4.553-2.937-2.937-4.554-6.842-4.554-10.997 0-16.581-13.28-30.108-29.76-30.53 1.163-5.081 1.948-10.304 2.329-15.638l56.28-.431c3.077 11.086 13.253 19.25 25.306 19.25 14.482 0 26.265-11.782 26.265-26.265s-11.782-26.265-26.265-26.265c-11.698 0-21.63 7.688-25.018 18.276l-56.574.433c-.384-5.293-1.167-10.477-2.321-15.521 16.479-.422 29.759-13.954 29.759-30.539zm54.155-34.85c6.211 0 11.265 5.053 11.265 11.265s-5.054 11.265-11.265 11.265-11.265-5.053-11.265-11.265 5.054-11.265 11.265-11.265zm-369.471 22.529c-6.211 0-11.265-5.053-11.265-11.265s5.054-11.265 11.265-11.265 11.265 5.053 11.265 11.265-5.054 11.265-11.265 11.265zm0 77.203c-6.211 0-11.265-5.053-11.265-11.265s5.054-11.265 11.265-11.265 11.265 5.053 11.265 11.265-5.054 11.265-11.265 11.265zm0 77.202c-6.211 0-11.265-5.053-11.265-11.265 0-6.211 5.054-11.264 11.265-11.264s11.265 5.053 11.265 11.264c0 6.212-5.054 11.265-11.265 11.265zm184.735-.047c-49.253 0-88.41-40.009-88.41-88.958 0-48.492 40.002-87.883 88.41-87.883 48.755 0 88.42 39.665 88.42 88.42 0 48.756-39.665 88.421-88.42 88.421zm184.736-22.482c6.211 0 11.265 5.053 11.265 11.264s-5.054 11.265-11.265 11.265-11.265-5.053-11.265-11.265c0-6.21 5.054-11.264 11.265-11.264zm0-77.203c6.211 0 11.265 5.053 11.265 11.265s-5.054 11.265-11.265 11.265-11.265-5.053-11.265-11.265 5.054-11.265 11.265-11.265zm-148.295-3.067v-18.445c0-9.735-3.792-18.888-10.683-25.779-6.889-6.875-16.036-10.661-25.758-10.661-20.094 0-36.44 16.347-36.44 36.44v18.445c-8.919.795-15.937 8.299-15.937 17.421v37.878c0 9.649 7.851 17.5 17.5 17.5h69.754c9.649 0 17.5-7.851 17.5-17.5v-37.878c0-9.122-7.018-16.626-15.936-17.421zm-57.881-18.445c0-11.822 9.618-21.44 21.44-21.44 5.721 0 11.105 2.229 15.156 6.273 4.053 4.052 6.284 9.438 6.284 15.167v18.366h-42.881v-18.366zm58.817 73.744c0 1.378-1.121 2.5-2.5 2.5h-69.754c-1.379 0-2.5-1.122-2.5-2.5v-37.878c0-1.378 1.121-2.5 2.5-2.5h69.754c1.379 0 2.5 1.122 2.5 2.5z"/></g></svg>