<svg height="512" viewBox="0 0 64 64" width="512" xmlns="http://www.w3.org/2000/svg"><g id="play_game-game-video_game-hands-game_controller" data-name="play game-game-video game-hands-game controller"><path d="m11 57.52v-52.52a2.006 2.006 0 0 1 2-2h38a2.006 2.006 0 0 1 2 2v52.52z" fill="#c6c5ca"/><path d="m59.95 36.34a2.026 2.026 0 0 1 .93 1.89l-1.88 19.77v3h-14v-3.34a4.008 4.008 0 0 1 1.17-2.83l2.83-2.83-5.53-5.53-.83-.83a3 3 0 0 1 4.24-4.25l.1.1 6.02 6.03v-15.52z" fill="#ffc477"/><path d="m57 11v12a3 3 0 0 1 -3 3h-1v-18h1a3 3 0 0 1 3 3z" fill="#898890"/><path d="m15 7h34v18h-34z" fill="#46f8ff"/><path d="m49 52-2.83 2.83a4.008 4.008 0 0 0 -1.17 2.83v.34h-26v-.34a4.008 4.008 0 0 0 -1.17-2.83l-2.83-2.83z" fill="#898890"/><path d="m47 41c0 .17-.01.33-.02.49l-.1-.1a3 3 0 0 0 -4.24 4.25l.83.83a6 6 0 1 1 3.53-5.47z" fill="#ff3051"/><path d="m30 30h4v4h-4z" fill="#ff7956"/><path d="m29 39v4h-5v5h-5l1-1 1.36-1.36a3 3 0 1 0 -4.24-4.25l-1.61 1.61-.51.51v-4.51h5v-5h4v5z" fill="#9cdd05"/><path d="m21.36 41.39a3.006 3.006 0 0 1 0 4.25l-1.36 1.36-1 1-4 4 2.83 2.83a4.008 4.008 0 0 1 1.17 2.83v3.34h-14v-3l-1.88-19.77a2.026 2.026 0 0 1 .93-1.89l6.95-4.34v15.52l4-4.01.51-.51 1.61-1.61a3 3 0 0 1 4.24 0z" fill="#ffc477"/><path d="m11 21v6h-2a2.006 2.006 0 0 1 -2-2v-2a2.006 2.006 0 0 1 2-2z" fill="#898890"/><path d="m11 9v6h-2a2.006 2.006 0 0 1 -2-2v-2a2.006 2.006 0 0 1 2-2z" fill="#898890"/><path d="m43 7h6v18h-6z" fill="#00d7df"/><path d="m46.88 41.39 6.12 6.12-2 2.01-8.02-8.03-.1-.1a1.2 1.2 0 0 0 -.12-.11 3 3 0 0 1 4.12.11z" fill="#ffa733"/><path d="m60.88 38.23-1.88 19.77v3h-4v-3l1.88-19.77a2.026 2.026 0 0 0 -.93-1.89l-2.95-1.84v-2.5l6.95 4.34a2.026 2.026 0 0 1 .93 1.89z" fill="#ffa733"/><path d="m15 26h34a1 1 0 0 0 1-1v-18a1 1 0 0 0 -1-1h-34a1 1 0 0 0 -1 1v18a1 1 0 0 0 1 1zm1-18h32v16h-32z"/><path d="m40 38h2v2h-2z"/><path d="m38 40h2v2h-2z"/><path d="m34 29h-4a1 1 0 0 0 -1 1v4a1 1 0 0 0 1 1h4a1 1 0 0 0 1-1v-4a1 1 0 0 0 -1-1zm-1 4h-2v-2h2z"/><path d="m16 29h2v2h-2z"/><path d="m20 29h2v2h-2z"/><path d="m24 29h2v2h-2z"/><path d="m38 29h2v2h-2z"/><path d="m42 29h2v2h-2z"/><path d="m46 29h2v2h-2z"/><path d="m45 10h-4v2h3v3h2v-4a1 1 0 0 0 -1-1z"/><path d="m44 17h2v2h-2z"/><path d="m60.48 35.49-6.48-4.04v-4.45a4 4 0 0 0 4-4v-12a4 4 0 0 0 -4-4v-2a3.009 3.009 0 0 0 -3-3h-38a3.009 3.009 0 0 0 -3 3v3h-1a3.009 3.009 0 0 0 -3 3v2a3.009 3.009 0 0 0 3 3h1v4h-1a3.009 3.009 0 0 0 -3 3v2a3.009 3.009 0 0 0 3 3h1v3.45l-6.49 4.05a3.022 3.022 0 0 0 -1.39 2.82l1.88 19.68v3a1 1 0 0 0 1 1h14a1 1 0 0 0 1-1v-2h24v2a1 1 0 0 0 1 1h14a1 1 0 0 0 1-1v-2.91l1.88-19.77a3.036 3.036 0 0 0 -1.4-2.83zm-6.48-26.49a2.006 2.006 0 0 1 2 2v12a2.006 2.006 0 0 1 -2 2zm-42-4a1 1 0 0 1 1-1h38a1 1 0 0 1 1 1v40.1l-4-4.01v-.09a7 7 0 1 0 -7 7 6.885 6.885 0 0 0 2.22-.36l3.37 3.36h-29.18l2-2h4.59a1 1 0 0 0 1-1v-4h4a1 1 0 0 0 1-1v-4a1 1 0 0 0 -1-1h-4v-4a1 1 0 0 0 -1-1h-4a1 1 0 0 0 -1 1v4h-4a1 1 0 0 0 -1 1v4.1l-2 2zm28.81 39a3.859 3.859 0 0 0 .79 1.94c-.2.02-.4.06-.6.06a5 5 0 1 1 4.8-6.33 4 4 0 0 0 -3.87 1.01 4.1 4.1 0 0 0 -.87 1.32h-1.06v2zm-16.81-4h4v2h-4a1 1 0 0 0 -.89.56 4.033 4.033 0 0 0 -1.04-1.88 3.985 3.985 0 0 0 -1.45-.91 1.012 1.012 0 0 0 .38-.77v-4h2v4a1 1 0 0 0 1 1zm-1.93 6.35a4.02 4.02 0 0 0 .93-1.51v2.16h-1.59zm-4.7-6.35a4.2 4.2 0 0 0 -.96.68l-.41.42v-1.1zm-8.37-26a1 1 0 0 1 -1-1v-2a1 1 0 0 1 1-1h1v4zm0 12a1 1 0 0 1 -1-1v-2a1 1 0 0 1 1-1h1v4zm9 34h-12v-2.09l-1.88-19.77a1 1 0 0 1 .46-.95l5.42-3.39v13.72a.987.987 0 0 0 .62.92 1 1 0 0 0 1.09-.21l6.12-6.13a2 2 0 1 1 2.82 2.83l-6.36 6.36a1.008 1.008 0 0 0 0 1.42l2.83 2.83a2.843 2.843 0 0 1 .61.87 3.025 3.025 0 0 1 .27 1.25zm26.45-4.41a5.291 5.291 0 0 0 -.4 1.41h-24.1a4.939 4.939 0 0 0 -1.41-2.88l-1.13-1.12h29.18l-1.13 1.12a5.263 5.263 0 0 0 -1.01 1.47zm13.55 2.41v2h-12v-2.34a2.946 2.946 0 0 1 .27-1.24 2.772 2.772 0 0 1 .61-.88l2.83-2.83a1.014 1.014 0 0 0 0-1.42l-6.36-6.36a2 2 0 0 1 2.82-2.83l6.12 6.13a1 1 0 0 0 1.09.21.987.987 0 0 0 .62-.92v-13.72l5.41 3.38a1.012 1.012 0 0 1 .47.96z"/></g></svg>