<?xml version="1.0" encoding="iso-8859-1"?>
<!-- Generator: Adobe Illustrator 19.0.0, SVG Export Plug-In . SVG Version: 6.00 Build 0)  -->
<svg version="1.1" id="Capa_1" xmlns="http://www.w3.org/2000/svg" xmlns:xlink="http://www.w3.org/1999/xlink" x="0px" y="0px"
	 viewBox="0 0 384 384" style="enable-background:new 0 0 384 384;" xml:space="preserve">
<polygon style="fill:#EFEEEE;" points="72,8 376,8 376,280 280,376 72,376 "/>
<polygon style="fill:#ABABAB;" points="280,280 376,280 280,376 "/>
<rect x="8" y="88" style="fill:#E16344;" width="256" height="128"/>
<path style="fill:#010101;" d="M64,0v80H0v144h64v160h224l96-96V0H64z M16,96h240v112H16V96z M288,361.376V288h73.376L288,361.376z
	 M368,272h-96v96H80V224h192V80H80V16h288V272z"/>
<g>
	<path style="fill:#FFFFFF;" d="M78.8,134.288c-0.288-1.344-0.752-2.576-1.392-3.696c-0.64-1.104-1.456-2.048-2.432-2.784
		c-0.992-0.736-2.208-1.104-3.616-1.104c-3.328,0-5.712,1.856-7.2,5.584c-1.472,3.696-2.208,9.856-2.208,18.416
		c0,4.112,0.128,7.808,0.384,11.136c0.256,3.328,0.72,6.16,1.392,8.496c0.672,2.336,1.632,4.128,2.88,5.376s2.864,1.872,4.848,1.872
		c0.848,0,1.744-0.24,2.752-0.672c0.992-0.448,1.904-1.12,2.784-2.016c0.864-0.912,1.584-2.032,2.16-3.408S80,168.48,80,166.624
		v-7.008h-9.104V149.44h22.352v36.96H83.072v-6.336h-0.176c-1.664,2.704-3.664,4.592-6,5.712c-2.336,1.12-5.136,1.68-8.4,1.68
		c-4.224,0-7.664-0.752-10.336-2.224s-4.736-3.728-6.24-6.816s-2.512-6.864-3.008-11.376c-0.512-4.512-0.784-9.744-0.784-15.696
		c0-5.744,0.368-10.816,1.104-15.152c0.736-4.352,2-7.984,3.792-10.912c1.776-2.912,4.16-5.088,7.088-6.576
		c2.96-1.472,6.624-2.208,11.04-2.208c7.552,0,12.992,1.872,16.32,5.632c3.328,3.728,4.992,9.088,4.992,16.08H79.232
		C79.232,136.944,79.088,135.632,78.8,134.288z"/>
	<path style="fill:#FFFFFF;" d="M112.448,117.856h13.824V186.4h-13.824V117.856z"/>
	<path style="fill:#FFFFFF;" d="M186.272,129.184h-14.976V186.4h-13.824v-57.216h-14.976v-11.328h43.776V129.184z"/>
</g>
<g>
</g>
<g>
</g>
<g>
</g>
<g>
</g>
<g>
</g>
<g>
</g>
<g>
</g>
<g>
</g>
<g>
</g>
<g>
</g>
<g>
</g>
<g>
</g>
<g>
</g>
<g>
</g>
<g>
</g>
</svg>
