<svg id="Capa_1" enable-background="new 0 0 512 512" height="512" viewBox="0 0 512 512" width="512" xmlns="http://www.w3.org/2000/svg"><g><g><path d="m167.993 373.834c0-32.436 26.295-58.731 58.731-58.731.065 0 .128.005.193.005v-137.394l-11.831 11.831c-2.046 2.046-5.311 2.277-7.589.493-6.498-5.086-12.36-10.948-17.446-17.446-1.784-2.279-1.553-5.543.493-7.589l14.577-14.577c1.796-1.796 2.175-4.542.994-6.791-2.008-3.822-3.68-7.847-4.982-12.036-.754-2.424-2.964-4.096-5.502-4.096h-20.625c-2.893 0-5.364-2.143-5.714-5.014-.492-4.045-.748-8.162-.748-12.34 0-.19.008-.378.009-.568h-112.376c-2.652 0-5.196 1.054-7.071 2.929l-38.677 38.677c-1.875 1.875-2.929 4.419-2.929 7.071v216.137c0 5.523 4.477 10 10 10h151.459c-.623-3.428-.966-6.954-.966-10.561z" fill="#fef1da"/><g><path d="m49 374.394v-216.136c0-2.652 1.054-5.196 2.929-7.071l38.677-38.677c1.875-1.875 4.419-2.929 7.071-2.929h-41.5c-2.652 0-5.196 1.054-7.071 2.929l-38.677 38.677c-1.875 1.875-2.929 4.419-2.929 7.071v216.137c0 5.523 4.477 10 10 10h41.5c-5.523-.001-10-4.478-10-10.001z" fill="#fae2c0"/></g></g><g><g><circle cx="226.724" cy="373.834" fill="#05e39c" r="58.731"/></g><g><path d="m201.539 373.834c0-26.606 17.697-49.067 41.958-56.287-5.316-1.582-10.943-2.444-16.773-2.444-32.436 0-58.731 26.295-58.731 58.731s26.295 58.731 58.731 58.731c5.83 0 11.457-.862 16.773-2.444-24.261-7.22-41.958-29.681-41.958-56.287z" fill="#0ed290"/></g></g><g><g><path d="m334.759 69.871 14.577-14.577c2.046-2.046 2.277-5.311.493-7.589-5.086-6.498-10.948-12.36-17.446-17.446-2.279-1.783-5.543-1.553-7.589.493l-14.577 14.577c-1.796 1.796-4.542 2.175-6.791.994-3.822-2.008-7.847-3.68-12.036-4.982-2.424-.754-4.096-2.964-4.096-5.502v-20.626c0-2.893-2.143-5.364-5.014-5.714-4.045-.492-8.162-.748-12.34-.748s-8.295.255-12.34.748c-2.872.35-5.014 2.821-5.014 5.714v20.625c0 2.538-1.672 4.749-4.096 5.502-4.189 1.303-8.214 2.975-12.036 4.982-2.249 1.181-4.995.802-6.791-.994l-14.577-14.577c-2.046-2.046-5.311-2.277-7.589-.493-6.498 5.086-12.36 10.948-17.446 17.446-1.783 2.279-1.553 5.543.493 7.589l14.577 14.577c1.796 1.796 2.175 4.542.994 6.791-2.008 3.822-3.68 7.847-4.982 12.036-.754 2.424-2.964 4.096-5.502 4.096h-20.625c-2.893 0-5.364 2.143-5.714 5.014-.492 4.045-.748 8.162-.748 12.34s.255 8.295.748 12.34c.35 2.872 2.821 5.014 5.714 5.014h20.625c2.538 0 4.749 1.672 5.502 4.096 1.303 4.189 2.975 8.214 4.982 12.036 1.181 2.249.802 4.995-.994 6.791l-14.577 14.577c-2.046 2.046-2.277 5.311-.493 7.589 5.086 6.498 10.948 12.36 17.446 17.446 2.279 1.784 5.543 1.553 7.589-.493l14.577-14.577c1.796-1.796 4.542-2.175 6.791-.994 3.822 2.008 7.847 3.68 12.036 4.982 2.424.754 4.096 2.964 4.096 5.502v20.625c0 2.893 2.143 5.364 5.014 5.714 4.045.492 8.162.748 12.34.748s8.295-.255 12.34-.748c2.872-.35 5.014-2.821 5.014-5.714v-20.625c0-2.538 1.672-4.749 4.096-5.502 4.189-1.303 8.214-2.975 12.036-4.982 2.249-1.181 4.995-.802 6.791.994l14.577 14.577c2.046 2.046 5.311 2.277 7.589.493 6.498-5.086 12.36-10.948 17.446-17.446 1.784-2.279 1.553-5.543-.493-7.589l-14.577-14.577c-1.796-1.796-2.175-4.542-.994-6.791 2.008-3.822 3.68-7.847 4.982-12.036.754-2.424 2.964-4.096 5.502-4.096h20.625c2.893 0 5.364-2.143 5.714-5.014.492-4.045.748-8.162.748-12.34s-.255-8.295-.748-12.34c-.35-2.872-2.821-5.014-5.714-5.014h-20.624c-2.538 0-4.749-1.672-5.502-4.096-1.303-4.189-2.975-8.214-4.982-12.036-1.182-2.247-.803-4.994.993-6.79z" fill="#7ca1b1"/></g><g><path d="m253.798 160.588c-21.334-6.843-36.822-26.863-36.822-50.44s15.489-43.597 36.823-50.44c8.904-10.283 20.475-18.194 33.645-22.645-.088-.398-.15-.805-.15-1.226v-20.624c0-2.893-2.143-5.364-5.014-5.714-4.045-.492-8.162-.748-12.34-.748s-8.295.255-12.34.748c-2.872.35-5.014 2.821-5.014 5.714v20.625c0 2.538-1.672 4.749-4.096 5.502-4.189 1.303-8.214 2.975-12.036 4.982-2.249 1.181-4.995.802-6.791-.994l-14.577-14.577c-2.046-2.046-5.311-2.277-7.589-.493-6.498 5.086-12.36 10.948-17.446 17.446-1.784 2.279-1.553 5.543.493 7.589l14.577 14.577c1.796 1.796 2.175 4.542.994 6.791-2.008 3.822-3.68 7.847-4.982 12.036-.754 2.424-2.964 4.096-5.502 4.096h-20.625c-2.893 0-5.364 2.143-5.714 5.014-.492 4.045-.748 8.162-.748 12.34s.255 8.295.748 12.34c.35 2.872 2.821 5.014 5.714 5.014h20.625c2.538 0 4.749 1.672 5.502 4.096 1.303 4.189 2.975 8.214 4.982 12.036 1.181 2.249.802 4.995-.994 6.791l-14.577 14.577c-2.046 2.046-2.277 5.311-.493 7.589 5.086 6.498 10.948 12.36 17.446 17.446 2.279 1.784 5.543 1.553 7.589-.493l14.577-14.577c1.796-1.796 4.542-2.175 6.791-.994 3.822 2.008 7.847 3.68 12.036 4.982 2.424.754 4.096 2.964 4.096 5.502v20.625c0 2.893 2.143 5.364 5.014 5.714 4.045.492 8.162.748 12.34.748s8.295-.255 12.34-.748c2.872-.35 5.014-2.821 5.014-5.714v-20.625c0-.421.062-.828.15-1.226-13.17-4.448-24.742-12.359-33.646-22.642z" fill="#678d98"/></g><g><circle cx="269.94" cy="110.148" fill="#3e5959" r="45.463"/></g><g><path d="m250 110.148c0-20.676 13.808-38.117 32.701-43.634-4.05-1.183-8.33-1.829-12.762-1.829-25.109 0-45.463 20.355-45.463 45.463s20.355 45.463 45.463 45.463c4.432 0 8.712-.646 12.762-1.829-18.893-5.517-32.701-22.957-32.701-43.634z" fill="#384949"/></g><g><circle cx="269.94" cy="110.148" fill="#fff" r="15.784"/></g></g><g><path d="m499.5 313.766h-171.16c-2.761 0-5-2.239-5-5v-54.7c0-2.761 2.239-5 5-5h171.16c2.761 0 5 2.239 5 5v54.7c0 2.762-2.239 5-5 5z" fill="#01d0fb"/></g><g><path d="m357 308.766v-54.7c0-2.761 2.239-5 5-5h-33.66c-2.761 0-5 2.239-5 5v54.7c0 2.761 2.239 5 5 5h33.66c-2.761 0-5-2.238-5-5z" fill="#01c0fa"/></g><g><path d="m499.5 408.506h-171.16c-2.761 0-5-2.239-5-5v-54.7c0-2.761 2.239-5 5-5h171.16c2.761 0 5 2.239 5 5v54.7c0 2.761-2.239 5-5 5z" fill="#fed402"/></g><g><path d="m357 403.506v-54.7c0-2.761 2.239-5 5-5h-33.66c-2.761 0-5 2.239-5 5v54.7c0 2.761 2.239 5 5 5h33.66c-2.761 0-5-2.239-5-5z" fill="#fac600"/></g><g><path d="m499.5 503.245h-171.16c-2.761 0-5-2.239-5-5v-54.7c0-2.761 2.239-5 5-5h171.16c2.761 0 5 2.239 5 5v54.7c0 2.762-2.239 5-5 5z" fill="#fd5426"/></g><g><path d="m357 498.245v-54.7c0-2.761 2.239-5 5-5h-33.66c-2.761 0-5 2.239-5 5v54.7c0 2.761 2.239 5 5 5h33.66c-2.761 0-5-2.238-5-5z" fill="#ef4424"/></g><g><path d="m406.42 124.58v1.509c0 4.142 3.357 7.5 7.5 7.5s7.5-3.358 7.5-7.5v-1.509c0-5.293-1.875-10.436-5.28-14.482-2.667-3.168-7.398-3.577-10.567-.91s-3.576 7.398-.909 10.568c.8.953 1.756 2.563 1.756 4.824z"/><path d="m413.92 180.589c-4.143 0-7.5 3.358-7.5 7.5v12c0 4.142 3.357 7.5 7.5 7.5s7.5-3.358 7.5-7.5v-12c0-4.142-3.357-7.5-7.5-7.5z"/><path d="m421.42 151.089c0-4.142-3.357-7.5-7.5-7.5s-7.5 3.358-7.5 7.5v12c0 4.142 3.357 7.5 7.5 7.5s7.5-3.358 7.5-7.5z"/><path d="m292 463.395h-12c-4.143 0-7.5 3.358-7.5 7.5s3.357 7.5 7.5 7.5h12c4.143 0 7.5-3.358 7.5-7.5s-3.357-7.5-7.5-7.5z"/><path d="m255 463.395h-12c-4.142 0-7.5 3.358-7.5 7.5s3.358 7.5 7.5 7.5h12c4.143 0 7.5-3.358 7.5-7.5s-3.357-7.5-7.5-7.5z"/><path d="m218 463.395h-12c-4.142 0-7.5 3.358-7.5 7.5s3.358 7.5 7.5 7.5h12c4.142 0 7.5-3.358 7.5-7.5s-3.358-7.5-7.5-7.5z"/><path d="m181 463.395h-12c-4.142 0-7.5 3.358-7.5 7.5s3.358 7.5 7.5 7.5h12c4.142 0 7.5-3.358 7.5-7.5s-3.358-7.5-7.5-7.5z"/><path d="m147.104 462.801c-1.856-.791-3.338-2.323-4.064-4.204-1.495-3.864-5.838-5.783-9.7-4.291-3.863 1.494-5.785 5.836-4.291 9.7 2.178 5.634 6.615 10.224 12.173 12.593.959.409 1.957.603 2.938.603 2.915 0 5.688-1.71 6.903-4.561 1.624-3.811-.148-8.216-3.959-9.84z"/><path d="m135.04 443.927c4.142 0 7.5-3.358 7.5-7.5v-12c0-4.142-3.358-7.5-7.5-7.5s-7.5 3.358-7.5 7.5v12c0 4.143 3.358 7.5 7.5 7.5z"/><path d="m169.217 172.244h-104.018c-4.142 0-7.5 3.358-7.5 7.5s3.358 7.5 7.5 7.5h104.018c4.142 0 7.5-3.358 7.5-7.5s-3.358-7.5-7.5-7.5z"/><path d="m169.217 208.582h-104.018c-4.142 0-7.5 3.358-7.5 7.5s3.358 7.5 7.5 7.5h104.018c4.142 0 7.5-3.358 7.5-7.5s-3.358-7.5-7.5-7.5z"/><path d="m169.217 244.756h-104.018c-4.142 0-7.5 3.358-7.5 7.5s3.358 7.5 7.5 7.5h104.018c4.142 0 7.5-3.358 7.5-7.5s-3.358-7.5-7.5-7.5z"/><path d="m176.717 288.756c0-4.142-3.358-7.5-7.5-7.5h-104.018c-4.142 0-7.5 3.358-7.5 7.5s3.358 7.5 7.5 7.5h104.018c4.142 0 7.5-3.358 7.5-7.5z"/><path d="m65.199 317.593c-4.142 0-7.5 3.358-7.5 7.5s3.358 7.5 7.5 7.5h46.629c4.142 0 7.5-3.358 7.5-7.5s-3.358-7.5-7.5-7.5z"/><path d="m217.689 395.744c1.464 1.464 3.384 2.197 5.303 2.197s3.839-.732 5.303-2.197l30.275-30.275c2.929-2.929 2.929-7.678 0-10.606-2.93-2.929-7.678-2.929-10.606 0l-24.972 24.972-17.51-17.51c-2.929-2.929-7.678-2.929-10.606 0-2.929 2.929-2.929 7.678 0 10.606z"/><path d="m337.006 195.944c6.97-5.456 13.271-11.757 18.729-18.73 4.109-5.251 3.638-12.781-1.096-17.515l-13.671-13.67c1.792-3.548 3.323-7.246 4.564-11.026h19.342c6.696 0 12.354-4.99 13.159-11.608.254-2.091.445-4.201.578-6.314h8.389c4.143 0 7.5-3.358 7.5-7.5s-3.357-7.5-7.5-7.5h-8.473c-.128-1.733-.284-3.462-.492-5.178-.806-6.618-6.463-11.608-13.159-11.608h-19.342c-1.24-3.778-2.771-7.476-4.564-11.026l13.671-13.671c4.734-4.735 5.205-12.265 1.096-17.515-5.457-6.971-11.759-13.272-18.729-18.729-5.251-4.111-12.781-3.642-17.515 1.095l-13.672 13.67c-3.546-1.792-7.244-3.323-11.025-4.564v-19.342c0-6.696-4.99-12.354-11.607-13.159-8.747-1.066-17.744-1.066-26.493 0-6.618.806-11.608 6.462-11.608 13.159v19.341c-3.78 1.241-7.479 2.772-11.026 4.565l-13.67-13.67c-4.735-4.736-12.266-5.207-17.515-1.097-6.972 5.457-13.273 11.758-18.729 18.729-4.111 5.251-3.64 12.781 1.095 17.516l13.67 13.67c-1.792 3.547-3.324 7.247-4.565 11.026h-19.341c-6.696 0-12.353 4.99-13.159 11.607-.209 1.716-.366 3.445-.493 5.179h-105.178c-4.674 0-9.069 1.82-12.375 5.126l-38.677 38.679c-3.305 3.305-5.125 7.699-5.125 12.374v216.137c0 9.649 7.851 17.5 17.5 17.5h110.04v7.533c0 4.142 3.358 7.5 7.5 7.5s7.5-3.358 7.5-7.5v-7.533h20.477c7.884 27.766 33.449 48.17 63.707 48.17 36.52 0 66.23-29.711 66.23-66.23 0-33.916-25.631-61.943-58.538-65.769v-34.066c0-4.142-3.358-7.5-7.5-7.5s-7.5 3.358-7.5 7.5v34.017c-33.093 3.65-58.923 31.769-58.923 65.818 0 1.026.031 2.045.078 3.061h-143.071c-1.378 0-2.5-1.122-2.5-2.5v-216.138c0-.658.267-1.302.732-1.768l38.677-38.677c.473-.472 1.1-.732 1.768-.732h105.089c.134 2.114.325 4.224.579 6.314.806 6.618 6.462 11.608 13.159 11.608h19.341c1.241 3.78 2.772 7.479 4.565 11.026l-13.67 13.67c-4.735 4.734-5.207 12.265-1.096 17.516 5.458 6.972 11.759 13.273 18.729 18.729 4.904 3.838 11.797 3.678 16.542-.218v43.273c0 4.142 3.358 7.5 7.5 7.5s7.5-3.358 7.5-7.5v-57.649c3.44 1.717 7.016 3.193 10.669 4.392v19.341c0 6.696 4.99 12.354 11.608 13.16 4.375.532 8.833.802 13.246.802 4.414 0 8.871-.27 13.246-.803 6.618-.805 11.608-6.463 11.608-13.159v-19.341c3.78-1.241 7.479-2.772 11.026-4.564l13.67 13.67c4.738 4.734 12.266 5.205 17.518 1.096zm-110.282 126.659c28.249 0 51.23 22.982 51.23 51.23s-22.982 51.23-51.23 51.23-51.23-22.982-51.23-51.23 22.981-51.23 51.23-51.23zm73.214-155.269c-3.438 1.805-7.063 3.306-10.776 4.46-5.604 1.743-9.368 6.832-9.368 12.664v19.072c-6.531.683-13.175.683-19.708 0v-19.072c0-5.832-3.765-10.921-9.37-12.665-3.712-1.154-7.338-2.654-10.775-4.46-5.196-2.729-11.458-1.793-15.582 2.33l-13.48 13.48c-5.114-4.144-9.791-8.821-13.936-13.936l13.479-13.48c4.124-4.124 5.06-10.385 2.331-15.581-1.805-3.437-3.306-7.062-4.461-10.776-1.743-5.604-6.833-9.369-12.664-9.369h-19.072c-.341-3.265-.514-6.573-.514-9.854s.173-6.588.514-9.854h19.072c5.832 0 10.921-3.765 12.664-9.369 1.155-3.713 2.656-7.339 4.46-10.775 2.73-5.197 1.793-11.458-2.33-15.582l-13.479-13.48c4.144-5.114 8.821-9.792 13.936-13.936l13.48 13.479c4.123 4.123 10.384 5.06 15.582 2.331 3.437-1.805 7.063-3.306 10.775-4.461 5.604-1.742 9.37-6.832 9.37-12.664v-19.071c6.529-.683 13.177-.683 19.708 0v19.072c0 5.833 3.766 10.922 9.368 12.664 3.714 1.155 7.34 2.656 10.776 4.461 5.197 2.729 11.46 1.792 15.581-2.331l13.481-13.478c5.114 4.144 9.792 8.821 13.936 13.936l-13.479 13.48c-.001 0-.001 0-.001 0-4.124 4.124-5.06 10.386-2.33 15.581 1.807 3.44 3.308 7.066 4.461 10.775 1.741 5.605 6.831 9.371 12.664 9.371h19.072c.342 3.268.515 6.576.515 9.854s-.173 6.586-.515 9.854h-19.073c-5.834 0-10.923 3.766-12.663 9.369-1.155 3.712-2.656 7.338-4.46 10.775-2.731 5.196-1.795 11.458 2.328 15.583l13.48 13.48c-4.145 5.115-8.822 9.792-13.936 13.936l-13.479-13.48c-4.123-4.126-10.384-5.062-15.582-2.333z"/><path d="m308.465 84.882c-3.786 1.68-5.493 6.111-3.813 9.897 2.158 4.863 3.252 10.034 3.252 15.369 0 20.933-17.03 37.963-37.964 37.963-20.933 0-37.963-17.03-37.963-37.963s17.03-37.963 37.963-37.963c4.632 0 9.171.833 13.491 2.476 3.87 1.469 8.203-.472 9.676-4.344s-.472-8.204-4.344-9.676c-6.029-2.293-12.362-3.456-18.823-3.456-29.204 0-52.963 23.759-52.963 52.963s23.759 52.963 52.963 52.963 52.964-23.759 52.964-52.963c0-7.444-1.528-14.662-4.541-21.453-1.68-3.786-6.113-5.492-9.898-3.813z"/><path d="m269.939 86.864c-12.839 0-23.284 10.445-23.284 23.284s10.445 23.284 23.284 23.284 23.284-10.445 23.284-23.284-10.445-23.284-23.284-23.284zm0 31.568c-4.568 0-8.284-3.716-8.284-8.284s3.716-8.284 8.284-8.284 8.284 3.716 8.284 8.284-3.715 8.284-8.284 8.284z"/><path d="m499.5 321.266c6.893 0 12.5-5.607 12.5-12.5v-54.7c0-6.893-5.607-12.5-12.5-12.5h-79.573c.934-1.25 1.493-2.797 1.493-4.477v-12c0-4.142-3.357-7.5-7.5-7.5s-7.5 3.358-7.5 7.5v12c0 1.68.559 3.227 1.493 4.477h-79.573c-6.893 0-12.5 5.607-12.5 12.5v54.7c0 6.893 5.607 12.5 12.5 12.5h78.08v15.039h-78.08c-6.893 0-12.5 5.607-12.5 12.5v54.7c0 6.893 5.607 12.5 12.5 12.5h78.08v15.04h-78.08c-6.893 0-12.5 5.607-12.5 12.5v19.949c-3.59.559-6.34 3.655-6.34 7.401s2.75 6.842 6.34 7.401v19.949c0 6.893 5.607 12.5 12.5 12.5h171.16c6.893 0 12.5-5.607 12.5-12.5v-54.7c0-6.893-5.607-12.5-12.5-12.5h-78.08v-15.04h19.58c4.143 0 7.5-3.358 7.5-7.5s-3.357-7.5-7.5-7.5h-110.16v-49.7h166.16v49.7h-21c-4.143 0-7.5 3.358-7.5 7.5s3.357 7.5 7.5 7.5h23.5c6.893 0 12.5-5.607 12.5-12.5v-54.7c0-6.893-5.607-12.5-12.5-12.5h-78.08v-15.039zm-2.5 124.779v49.7h-166.16v-49.7zm-166.16-139.779v-49.7h166.16v49.7z"/><path d="m468.915 273.916h-109.99c-4.143 0-7.5 3.358-7.5 7.5s3.357 7.5 7.5 7.5h109.99c4.143 0 7.5-3.358 7.5-7.5s-3.357-7.5-7.5-7.5z"/><path d="m476.415 376.156c0-4.142-3.357-7.5-7.5-7.5h-109.99c-4.143 0-7.5 3.358-7.5 7.5s3.357 7.5 7.5 7.5h109.99c4.143 0 7.5-3.358 7.5-7.5z"/><path d="m358.925 478.395h109.99c4.143 0 7.5-3.358 7.5-7.5s-3.357-7.5-7.5-7.5h-109.99c-4.143 0-7.5 3.358-7.5 7.5s3.357 7.5 7.5 7.5z"/></g></g></svg>