<svg id="Capa_1" enable-background="new 0 0 511.916 511.916" height="512" viewBox="0 0 511.916 511.916" width="512" xmlns="http://www.w3.org/2000/svg"><g><g><path d="m457.382 55.678c-134.282-10.584-268.565-10.584-402.847 0-20.049 1.58-36.067 17.257-38.235 37.251-11.786 108.689-11.786 217.377 0 326.066 2.168 19.994 18.186 35.671 38.234 37.251 134.282 10.584 268.565 10.584 402.847 0 20.049-1.58 36.066-17.257 38.234-37.251 11.786-108.689 11.786-217.377 0-326.066-2.167-19.994-18.185-35.671-38.233-37.251z" fill="#e4f6ff"/><path d="m501.14 156.097-.2-.02c-163.318-14.4-326.637-14.4-489.955 0l-.2.03c1.39-21.06 3.23-42.11 5.52-63.169 2.17-20 18.19-35.68 38.23-37.26 134.288-10.58 268.567-10.58 402.856 0 20.04 1.58 36.06 17.26 38.23 37.26 2.289 21.049 4.129 42.109 5.519 63.159z" fill="#617881"/><circle cx="70.74" cy="100.843" fill="#da4a54" r="23.457"/><circle cx="211.481" cy="100.843" fill="#86f1a7" r="23.457"/><circle cx="141.11" cy="100.843" fill="#f4dd45" r="23.457"/><g><path d="m418.694 130.423 13.407-24.82c3.388-6.273 1.046-14.119-5.227-17.508l-19.251-10.398c-6.282-3.393-14.119-1.046-17.508 5.227l-13.407 24.82" fill="#e4f6ff"/><path d="m423.407 86.222c-6.282-3.393-14.119-1.046-17.508 5.227l-13.407 24.82-15.784-8.526 13.407-24.82c3.388-6.273 11.226-8.621 17.508-5.227z" fill="#b9e4ef"/><path d="m371.47 258.121c-45.833 84.852-99.929 144.498-120.825 133.211s-.674-89.23 45.159-174.082c23.239-43.024 48.608-79.572 70.685-103.668 6.001-6.549 15.695-8.154 23.51-3.933l19.813 10.702c7.816 4.222 11.788 13.208 9.601 21.818-8.047 31.674-24.704 72.928-47.943 115.952z" fill="#6bbef6"/><path d="m250.645 391.332c-20.896-11.287-.674-89.23 45.159-174.082 23.239-43.024 48.605-79.57 70.683-103.673 6.001-6.544 15.698-8.148 23.511-3.928l7.18 3.878c-2.147-1.16-6.882 3.125-11.493 10.42-17.001 26.845-39.208 65.097-62.448 108.121-45.832 84.852-78.337 156.161-72.592 159.264z" fill="#528ecb"/></g></g><g><path d="m503.072 92.124c-2.56-23.595-21.526-42.069-45.097-43.927-115.929-9.136-233.467-10.388-349.346-3.721-4.135.238-7.295 3.783-7.057 7.918s3.785 7.294 7.918 7.057c115.204-6.627 232.054-5.383 347.306 3.699 16.39 1.292 29.58 14.158 31.363 30.592 1.953 18.007 3.572 36.058 4.872 54.136-12.982-1.105-26.02-2.127-39.068-3.056-3.32-10.285-10.542-18.717-21.242-24.588l5.979-11.068c5.351-9.907 1.644-22.32-8.262-27.671l-19.251-10.398c-9.906-5.35-22.32-1.645-27.671 8.262l-11.92 22.068c-3.966 1.438-7.635 3.811-10.638 7.088-8.1 8.841-16.439 19.078-24.822 30.426-105.329-3.028-211.987-.018-317.251 8.937 1.3-18.078 2.918-36.129 4.872-54.136 1.783-16.434 14.973-29.3 31.365-30.592 8.43-.667 16.702-1.277 24.588-1.814 4.132-.281 7.254-3.86 6.973-7.992s-3.852-7.253-7.992-6.973c-7.939.541-16.267 1.155-24.749 1.826-23.572 1.858-42.538 20.333-45.098 43.928-11.792 108.714-11.792 218.96 0 327.675 2.56 23.595 21.526 42.069 45.097 43.927 67.079 5.282 134.67 7.927 202.194 7.926 51.04 0 102.048-1.511 152.728-4.536 4.135-.247 7.287-3.799 7.04-7.933-.247-4.135-3.789-7.286-7.934-7.04-117.04 6.985-235.756 5.851-352.85-3.37-16.39-1.292-29.58-14.158-31.363-30.592-9.177-84.609-11.137-170.154-5.887-255.164 102.097-8.771 205.535-11.911 307.791-9.348-11.231 16.367-22.398 34.516-33.041 53.773h-145.714c-4.142 0-7.5 3.358-7.5 7.5s3.358 7.5 7.5 7.5h137.652c-4.84 9.259-9.396 18.474-13.65 27.57h-124.002c-4.142 0-7.5 3.358-7.5 7.5s3.358 7.5 7.5 7.5h117.22c-4.109 9.414-7.847 18.633-11.182 27.569h-189.063c-4.142 0-7.5 3.358-7.5 7.5s3.358 7.5 7.5 7.5h183.758c-2.589 7.773-4.847 15.281-6.697 22.414-.455 1.754-.876 3.466-1.28 5.156h-175.781c-4.142 0-7.5 3.358-7.5 7.5s3.358 7.5 7.5 7.5h172.732c-3.291 20.231-1.822 34.467 4.387 42.554l-1.732 2.821c-2.167 3.53-1.063 8.148 2.467 10.316 1.224.751 2.579 1.109 3.917 1.109 2.521 0 4.983-1.271 6.399-3.577l2.013-3.279c.758.083 1.528.129 2.315.129 13.069 0 30.126-11.52 50.884-34.406 4.382-4.831 8.833-10.07 13.322-15.667h127.453c4.142 0 7.5-3.358 7.5-7.5s-3.358-7.5-7.5-7.5h-115.965c6.314-8.607 12.65-17.839 18.924-27.57h9.153c-1.252 4.069-1.759 7.624-1.423 10.7.419 3.842 3.669 6.688 7.446 6.688.271 0 .546-.015.823-.045 4.118-.449 7.091-4.151 6.642-8.269-.108-.996.075-3.491 2.446-9.073h71.952c4.142 0 7.5-3.358 7.5-7.5s-3.358-7.5-7.5-7.5h-64.17c4.838-8.287 10.914-17.641 17.508-27.569h46.662c4.142 0 7.5-3.358 7.5-7.5s-3.358-7.5-7.5-7.5h-36.648c6.173-9.242 12.325-18.525 18-27.57h18.648c4.142 0 7.5-3.358 7.5-7.5s-3.358-7.5-7.5-7.5h-9.597c8.657-15.067 15.09-28.933 16.894-40.124.402-2.498.625-4.936.692-7.316 12.703.918 25.392 1.93 38.022 3.016 5.25 85.01 3.291 170.555-5.887 255.164-1.783 16.434-14.973 29.3-31.363 30.592-7.042.554-13.253 1.017-18.989 1.415-4.132.286-7.25 3.868-6.963 8 .274 3.956 3.568 6.982 7.474 6.982.174 0 .35-.006.526-.018 5.784-.401 12.041-.867 19.13-1.425 23.571-1.858 42.537-20.332 45.097-43.927 11.793-108.719 11.793-218.964.001-327.679zm-66.059 51.534c-3.381-.22-6.75-.42-10.125-.627.619-2.882.756-5.777.442-8.595 4.179 2.563 7.411 5.639 9.683 9.222zm-32.955-59.363 19.251 10.398c2.629 1.42 3.613 4.715 2.193 7.344l-7.875 14.58c-1.308-1.068-2.719-2.038-4.251-2.865l-19.813-10.702c-1.53-.827-3.114-1.475-4.724-1.983l7.875-14.579c1.42-2.629 4.716-3.613 7.344-2.193zm-32.04 34.354c2.304-2.515 5.493-3.841 8.737-3.841 1.932 0 3.883.471 5.679 1.441l19.813 10.702c4.811 2.599 7.236 8.097 5.896 13.372-8.263 32.526-25.052 73.095-47.272 114.234-8.976 16.617-18.375 32.461-27.887 47.078l-58.652-31.681c7.011-15.974 15.093-32.517 24.071-49.139 22.22-41.139 46.944-77.422 69.615-102.166zm-75.867 237.091c-24.87 27.42-38.311 30.955-41.941 28.993-3.632-1.962-8.044-15.14 1.251-50.972 3.937-15.175 9.722-32.082 16.997-49.932l56.146 30.327c-10.945 15.877-21.917 29.968-32.453 41.584zm70.554-63.159h-6.327c5.392-8.886 10.704-18.102 15.882-27.569h7.171c-6.898 10.581-12.56 19.715-16.726 27.569zm29.056-46.182c-.816 1.221-1.619 2.423-2.414 3.613h-9.123c4.793-9.271 9.32-18.49 13.513-27.57h13.856c-5.188 8.037-10.602 16.136-15.832 23.957zm44.763-81.467c-1.74 10.796-9.542 26.034-19.518 42.51h-16.578c7.511-17.456 13.723-34.203 18.395-49.634 6.07.366 12.146.747 18.237 1.155-.025 1.912-.203 3.901-.536 5.969z"/><path d="m39.783 100.842c0 17.07 13.887 30.957 30.957 30.957 17.069 0 30.957-13.887 30.957-30.957s-13.887-30.956-30.957-30.956c-17.069 0-30.957 13.887-30.957 30.956zm46.914 0c0 8.799-7.158 15.957-15.957 15.957s-15.957-7.158-15.957-15.957 7.158-15.957 15.957-15.957c8.799.001 15.957 7.159 15.957 15.957z"/><path d="m242.437 100.842c0-17.07-13.887-30.957-30.957-30.957s-30.957 13.887-30.957 30.957 13.887 30.957 30.957 30.957 30.957-13.887 30.957-30.957zm-46.913 0c0-8.799 7.158-15.957 15.957-15.957s15.957 7.158 15.957 15.957-7.158 15.957-15.957 15.957-15.957-7.158-15.957-15.957z"/><path d="m172.067 100.842c0-17.07-13.887-30.957-30.957-30.957s-30.957 13.887-30.957 30.957 13.887 30.957 30.957 30.957 30.957-13.887 30.957-30.957zm-46.913 0c0-8.799 7.158-15.957 15.957-15.957s15.957 7.158 15.957 15.957-7.158 15.957-15.957 15.957-15.957-7.158-15.957-15.957z"/><path d="m63.883 377.726c-4.142 0-7.5 3.358-7.5 7.5s3.358 7.5 7.5 7.5h134.233c4.142 0 7.5-3.358 7.5-7.5s-3.358-7.5-7.5-7.5z"/><path d="m85.371 176.161h-21.491c-4.142 0-7.5 3.358-7.5 7.5v34.069.055 39.863c0 1.995.795 3.908 2.208 5.315 1.406 1.4 3.309 2.185 5.292 2.185h.033s19.764-.088 25.211-.088c15.117 0 27.415-12.298 27.415-27.415 0-9.191-4.551-17.333-11.512-22.31 3.056-4.09 4.868-9.162 4.868-14.649.001-13.524-11.001-24.525-24.524-24.525zm0 15c5.252 0 9.524 4.272 9.524 9.524s-4.272 9.524-9.524 9.524c-1.58 0-4.556.009-7.8.02h-6.191v-19.069h13.991zm3.754 58.898c-3.241 0-11.535.031-17.745.056v-24.863c1.99-.008 4.157-.016 6.218-.024h11.527c6.846 0 12.415 5.569 12.415 12.415 0 6.847-5.57 12.416-12.415 12.416z"/></g></g></svg>