<svg id="Layer_1" enable-background="new 0 0 512 512" height="512" viewBox="0 0 512 512" width="512" xmlns="http://www.w3.org/2000/svg"><g><g><path d="m344.486 489.443v.06c0 8.271-6.71 14.971-14.98 14.971h-147.02c-8.27 0-14.98-6.701-14.98-14.971v-.06c0-8.271 6.71-14.971 14.98-14.971h147.02c8.27-.001 14.98 6.7 14.98 14.971z" fill="#555760"/><path d="m344.486 489.443v.06c0 8.271-6.71 14.971-14.98 14.971h-35.75c8.27 0 14.97-6.701 14.97-14.971v-.06c0-8.271-6.7-14.971-14.97-14.971h35.75c8.27-.001 14.98 6.7 14.98 14.971z" fill="#36383f"/><path d="m300.996 474.471h-90l20-59.366h50z" fill="#a8b3ba"/><path d="m300.996 474.471h-29l-20-59.366h29z" fill="#879299"/><path d="m504.496 105.724v281.699c0 15.292-12.39 27.683-27.68 27.683h-441.64c-15.29 0-27.68-12.391-27.68-27.683v-281.699c0-15.292 12.39-27.693 27.68-27.693h441.64c15.29 0 27.68 12.401 27.68 27.693z" fill="#555760"/><path d="m504.496 105.724v281.699c0 15.292-12.39 27.683-27.68 27.683h-29.98c15.29 0 27.68-12.391 27.68-27.683v-281.699c0-15.292-12.39-27.693-27.68-27.693h29.98c15.29 0 27.68 12.401 27.68 27.693z" fill="#36383f"/><path d="m37.472 108.039h437.048v277.064h-437.048z" fill="#eef6ff"/><path d="m443.195 108.039h31.325v277.064h-31.325z" fill="#dae6ef"/></g><path d="m359.39 251.249-103.39 60.386-103.39-60.386.19-104.72h206.4z" fill="#555760"/><path d="m256 311.635 73-66.386-.12-98.72h30.32l.19 104.72z" fill="#36383f"/><path d="m426.69 107.175-170.69 99.7-170.69-99.7 170.69-99.7z" fill="#52deff"/><path d="m256 206.875 120-99.7-120-99.7 170.69 99.7z" fill="#55baff"/><path d="m396.95 124.546v82.329h29.741v-99.7z" fill="#36383f"/></g><g><g><g><path d="m504.5 174.707c4.142 0 7.5-3.358 7.5-7.5v-61.901c0-19.421-15.783-35.221-35.184-35.221h-98.787l-118.247-69.062c-2.337-1.364-5.228-1.364-7.564 0l-118.247 69.062h-98.787c-19.401 0-35.184 15.8-35.184 35.221v282.01c0 19.421 15.783 35.221 35.184 35.221h185.378l-14.951 44.424h-23.136c-12.384 0-22.46 10.075-22.46 22.459v.121c0 12.384 10.076 22.459 22.46 22.459h147.052c12.384 0 22.46-10.075 22.46-22.459v-.121c0-12.384-10.076-22.459-22.46-22.459h-23.136l-14.951-44.424h185.378c19.4 0 35.184-15.8 35.184-35.221v-185.451c0-4.142-3.358-7.5-7.5-7.5s-7.5 3.358-7.5 7.5v185.451c0 11.15-9.054 20.221-20.184 20.221h-441.634c-11.129 0-20.184-9.071-20.184-20.221v-282.01c0-11.15 9.054-20.221 20.184-20.221h73.104l-25.752 15.04h-45.06c-4.142 0-7.5 3.358-7.5 7.5v277.371c0 4.142 3.358 7.5 7.5 7.5h30.55c4.142 0 7.5-3.358 7.5-7.5s-3.358-7.5-7.5-7.5h-23.05v-262.371h39.048l61.264 35.781-.175 100.332c-.005 2.671 1.411 5.143 3.718 6.49l103.388 60.383c1.168.682 2.475 1.023 3.782 1.023s2.614-.341 3.782-1.023l103.388-60.383c2.307-1.347 3.723-3.819 3.718-6.49l-.175-100.332 22.737-13.28v69.254c0 4.142 3.358 7.5 7.5 7.5h29.741c4.142 0 7.5-3.358 7.5-7.5v-91.755h32.833v262.371h-364.27c-4.142 0-7.5 3.358-7.5 7.5s3.358 7.5 7.5 7.5h371.769c4.142 0 7.5-3.358 7.5-7.5v-277.371c0-4.142-3.358-7.5-7.5-7.5h-45.06l-25.752-15.04h73.104c11.129 0 20.184 9.071 20.184 20.221v61.901c0 4.142 3.358 7.5 7.5 7.5zm-174.974 307.253c4.113 0 7.46 3.346 7.46 7.459v.121c0 4.113-3.347 7.459-7.46 7.459h-147.052c-4.113 0-7.46-3.346-7.46-7.459v-.121c0-4.113 3.347-7.459 7.46-7.459zm-93.137-59.424h39.222l14.952 44.424h-69.125zm182.801-223.156h-14.74v-70.515l14.741-8.609v79.124zm-7.371-92.19-155.819 91.005-32.203-18.808c-3.577-2.089-8.17-.883-10.259 2.693-2.089 3.577-.883 8.17 2.694 10.259l35.986 21.017c1.169.683 2.476 1.024 3.783 1.024s2.614-.341 3.782-1.023l91.945-53.7.153 87.292-95.881 55.999-95.88-55.998.153-87.292 26.576 15.521c3.575 2.088 8.169.883 10.259-2.694 2.089-3.577.883-8.169-2.694-10.259l-94.232-55.035 155.818-91.006z"/></g></g></g></svg>