<?xml version="1.0" encoding="iso-8859-1"?>
<!-- Generator: Adobe Illustrator 19.0.0, SVG Export Plug-In . SVG Version: 6.00 Build 0)  -->
<svg version="1.1" id="Capa_1" xmlns="http://www.w3.org/2000/svg" xmlns:xlink="http://www.w3.org/1999/xlink" x="0px" y="0px"
	 viewBox="0 0 512 512" style="enable-background:new 0 0 512 512;" xml:space="preserve">
<path style="fill:#F1EBE0;" d="M492.5,467h-473c-6.627,0-12-5.373-12-12V57c0-6.627,5.373-12,12-12h473c6.627,0,12,5.373,12,12v398
	C504.5,461.627,499.127,467,492.5,467z"/>
<path style="fill:#E8E1D7;" d="M492.419,45h-30c6.626,0,11.998,5.372,11.998,11.998v398.004c0,6.626-5.372,11.998-11.998,11.998h30
	c6.626,0,11.998-5.372,11.998-11.998V56.998C504.417,50.372,499.045,45,492.419,45z"/>
<path style="fill:#7A666C;" d="M504.5,125H7.5V57c0-6.627,5.373-12,12-12h473c6.627,0,12,5.373,12,12V125z"/>
<path style="fill:#6A545A;" d="M492.5,45h-30.081c6.627,0,12,5.373,12,12v68H504.5V57C504.5,50.373,499.127,45,492.5,45z"/>
<path style="fill:#F07F2E;" d="M188.5,125H7.5V57c0-6.627,5.373-12,12-12h169V125z"/>
<rect x="7.333" y="125" style="fill:#00E7FF;" width="497" height="30"/>
<rect x="474.42" y="125" style="fill:#00CAE1;" width="30" height="30"/>
<path style="fill:#00E7FF;" d="M492.5,467h-473c-6.627,0-12-5.373-12-12v-18h497v18C504.5,461.627,499.127,467,492.5,467z"/>
<path style="fill:#00CAE1;" d="M474.417,437v18c0,6.627-5.373,12-12,12H492.5c6.627,0,12-5.373,12-12v-18H474.417z"/>
<circle style="fill:#0087D5;" cx="47" cy="85" r="15"/>
<circle style="fill:#FFBD2A;" cx="99" cy="85" r="15"/>
<circle style="fill:#F15D5F;" cx="150" cy="85" r="15"/>
<rect x="374.5" y="337" style="fill:#FF5A51;" width="100" height="100"/>
<rect x="50" y="125" style="fill:#FFD681;" width="100" height="100"/>
<g>
	<path style="fill:#444455;" d="M276,234.027h-40V207c0-11.046,8.954-20,20-20l0,0c11.046,0,20,8.954,20,20V234.027z"/>
	<path style="fill:#444455;" d="M256,405L256,405c-11.046,0-20-8.954-20-20v-27.027h40V385C276,396.046,267.046,405,256,405z"/>
	<path style="fill:#444455;" d="M313.964,266.32l-28.284-28.284l19.111-19.111c7.81-7.81,20.474-7.81,28.284,0l0,0
		c7.81,7.81,7.81,20.474,0,28.284L313.964,266.32z"/>
	<path style="fill:#444455;" d="M178.925,373.075L178.925,373.075c-7.811-7.81-7.811-20.474,0-28.284l19.111-19.111l28.284,28.284
		l-19.111,19.111C199.399,380.885,186.736,380.885,178.925,373.075z"/>
	<path style="fill:#444455;" d="M317.973,316v-40H345c11.046,0,20,8.954,20,20l0,0c0,11.046-8.954,20-20,20H317.973z"/>
	<path style="fill:#444455;" d="M147,296L147,296c0-11.046,8.954-20,20-20h27.027v40H167C155.954,316,147,307.046,147,296z"/>
	<path style="fill:#444455;" d="M285.68,353.964l28.284-28.284l19.111,19.111c7.81,7.81,7.81,20.474,0,28.284l0,0
		c-7.81,7.81-20.474,7.81-28.284,0L285.68,353.964z"/>
	<path style="fill:#444455;" d="M178.925,218.925L178.925,218.925c7.811-7.811,20.474-7.811,28.284,0l19.111,19.111l-28.284,28.284
		l-19.111-19.111C171.115,239.399,171.115,226.736,178.925,218.925z"/>
</g>
<path style="fill:#5B5B75;" d="M305.5,246.5c-27.34-27.33-71.66-27.33-99,0c-27.33,27.34-27.33,71.66,0,99
	c27.34,27.33,71.66,27.33,99,0C332.83,318.16,332.83,273.84,305.5,246.5z M278.63,318.63c-12.5,12.49-32.76,12.49-45.26,0
	c-12.49-12.5-12.49-32.76,0-45.26c12.5-12.49,32.76-12.49,45.26,0C291.12,285.87,291.12,306.13,278.63,318.63z"/>
<path d="M492.5,37.5h-473l0,0C8.748,37.5,0,46.248,0,57l0,0v120.5l0,0c0,4.142,3.358,7.5,7.5,7.5s7.5-3.358,7.5-7.5v-15h27.5V225
	c0,4.142,3.358,7.5,7.5,7.5h100c4.142,0,7.5-3.358,7.5-7.5v-62.5H497v267h-15V337c0-4.142-3.357-7.5-7.5-7.5h-100
	c-4.143,0-7.5,3.358-7.5,7.5v92.5h-15c-4.143,0-7.5,3.358-7.5,7.5s3.357,7.5,7.5,7.5l0,0h145l0,0V455c0,2.481-2.019,4.5-4.5,4.5
	h-473c-2.481,0-4.5-2.019-4.5-4.5v-10.5h304.833c4.143,0,7.5-3.358,7.5-7.5s-3.357-7.5-7.5-7.5H15V210c0-4.142-3.358-7.5-7.5-7.5
	S0,205.858,0,210v245l0,0c0,10.752,8.748,19.5,19.5,19.5h473c10.752,0,19.5-8.748,19.5-19.5l0,0V57l0,0l0,0
	C512,46.248,503.252,37.5,492.5,37.5z M382,429.5v-85h85v85H382z M15,57c0-2.481,2.019-4.5,4.5-4.5H181v65l0,0H15l0,0V57z M15,147.5
	v-15h27.5v15H15z M57.5,217.5v-85h85v85H57.5 M157.5,147.5v-15l0,0H416c4.143,0,7.5-3.358,7.5-7.5s-3.357-7.5-7.5-7.5H196v-65h296.5
	c2.481,0,4.5,2.019,4.5,4.5v60.5h-48.497c-4.143,0-7.5,3.358-7.5,7.5s3.357,7.5,7.5,7.5H497v15H157.5z"/>
<path d="M69.5,85c0-12.407-10.093-22.5-22.5-22.5S24.5,72.593,24.5,85s10.093,22.5,22.5,22.5S69.5,97.407,69.5,85z M47,92.5
	c-4.136,0-7.5-3.364-7.5-7.5s3.364-7.5,7.5-7.5s7.5,3.364,7.5,7.5S51.136,92.5,47,92.5z"/>
<path d="M99,107.5c12.407,0,22.5-10.093,22.5-22.5S111.407,62.5,99,62.5S76.5,72.593,76.5,85S86.593,107.5,99,107.5z M99,77.5
	c4.136,0,7.5,3.364,7.5,7.5s-3.364,7.5-7.5,7.5s-7.5-3.364-7.5-7.5S94.864,77.5,99,77.5z"/>
<path d="M150,107.5c12.407,0,22.5-10.093,22.5-22.5S162.407,62.5,150,62.5S127.5,72.593,127.5,85S137.593,107.5,150,107.5z
	 M150,77.5c4.136,0,7.5,3.364,7.5,7.5s-3.364,7.5-7.5,7.5s-7.5-3.364-7.5-7.5S145.864,77.5,150,77.5z"/>
<path d="M395,193.5h60c4.143,0,7.5-3.358,7.5-7.5s-3.357-7.5-7.5-7.5h-60c-4.143,0-7.5,3.358-7.5,7.5S390.857,193.5,395,193.5z"/>
<path d="M395,221.5h60c4.143,0,7.5-3.358,7.5-7.5s-3.357-7.5-7.5-7.5h-60c-4.143,0-7.5,3.358-7.5,7.5S390.857,221.5,395,221.5z"/>
<path d="M167,268.5c-15.164,0-27.5,12.336-27.5,27.5s12.336,27.5,27.5,27.5h16.571c0.545,1.441,1.128,2.869,1.761,4.282
	l-11.702,11.702c-5.201,5.194-8.065,12.101-8.065,19.446c0,7.346,2.864,14.252,8.059,19.44c5.194,5.201,12.101,8.065,19.447,8.065
	c7.346,0,14.252-2.864,19.443-8.062l11.679-11.679c1.417,0.638,2.854,1.233,4.307,1.784V385c0,15.164,12.336,27.5,27.5,27.5
	c15.163,0,27.5-12.336,27.5-27.5v-16.522c1.454-0.551,2.89-1.146,4.307-1.784l11.679,11.679c5.202,5.202,12.107,8.067,19.443,8.067
	c7.337,0,14.242-2.865,19.44-8.063c5.201-5.194,8.064-12.101,8.064-19.447c0-7.346-2.863-14.252-8.062-19.443l-11.705-11.705
	c0.633-1.413,1.217-2.841,1.761-4.282H345c7.342,0,14.247-2.861,19.443-8.057c5.195-5.196,8.057-12.101,8.057-19.443
	c0-15.164-12.337-27.5-27.5-27.5h-16.571c-0.545-1.441-1.128-2.869-1.761-4.282l11.706-11.705
	c5.201-5.202,8.066-12.107,8.066-19.443c0-7.337-2.865-14.242-8.063-19.439c-5.194-5.201-12.102-8.065-19.448-8.065
	s-14.252,2.865-19.441,8.062l-11.68,11.679c-1.418-0.639-2.854-1.233-4.307-1.784V207c0-7.343-2.861-14.248-8.058-19.444
	c-5.195-5.195-12.101-8.056-19.442-8.056c-15.164,0-27.5,12.336-27.5,27.5v16.522c-1.454,0.551-2.89,1.146-4.307,1.784
	l-11.676-11.676c-5.194-5.201-12.101-8.065-19.446-8.065c-7.346,0-14.252,2.864-19.44,8.059c-5.201,5.194-8.065,12.101-8.065,19.447
	c0,7.346,2.864,14.252,8.062,19.443l11.705,11.705c-0.633,1.412-1.217,2.841-1.761,4.282H167V268.5z M167,308.5
	c-6.893,0-12.5-5.607-12.5-12.5s5.607-12.5,12.5-12.5h12.564c-1.342,8.276-1.342,16.724,0,25H167z M226.171,241.055
	c0.012-0.006,0.024-0.014,0.036-0.02c3.759-2.044,7.712-3.692,11.811-4.917c0.086-0.024,0.173-0.044,0.258-0.071
	c5.683-1.672,11.635-2.546,17.724-2.546c6.089,0,12.041,0.875,17.724,2.546c0.086,0.027,0.174,0.048,0.261,0.072
	c4.089,1.222,8.033,2.865,11.784,4.903c0.022,0.012,0.043,0.025,0.065,0.037c5.211,2.839,10.047,6.435,14.36,10.748
	c24.369,24.369,24.369,64.02,0,88.389c-4.313,4.314-9.151,7.911-14.362,10.749c-0.017,0.009-0.032,0.019-0.049,0.028
	c-3.755,2.041-7.703,3.687-11.797,4.91c-0.087,0.024-0.175,0.045-0.261,0.072c-5.682,1.671-11.635,2.546-17.724,2.546
	c-6.089,0-12.042-0.875-17.724-2.546c-0.085-0.027-0.172-0.047-0.258-0.071c-4.099-1.225-8.052-2.873-11.811-4.917
	c-0.012-0.006-0.024-0.014-0.036-0.02c-5.213-2.839-10.051-6.436-14.365-10.751c-24.368-24.369-24.368-64.02,0-88.389
	C216.12,247.491,220.958,243.894,226.171,241.055z M201.903,367.77c-2.36,2.363-5.498,3.665-8.833,3.665
	c-3.336,0-6.473-1.302-8.84-3.672c-2.363-2.36-3.665-5.498-3.665-8.833c0-3.335,1.302-6.473,3.668-8.836l8.852-8.852
	c2.41,3.347,5.105,6.55,8.114,9.559c2.99,2.99,6.192,5.69,9.554,8.119L201.903,367.77z M268.5,385c0,6.893-5.607,12.5-12.5,12.5
	s-12.5-5.607-12.5-12.5v-12.515c4.096,0.661,8.27,1.015,12.5,1.015c4.23,0,8.404-0.354,12.5-1.015V385z M327.771,350.097
	c2.363,2.36,3.664,5.497,3.664,8.833s-1.301,6.473-3.668,8.837c-2.368,2.369-5.507,3.673-8.837,3.673
	c-3.329,0-6.468-1.305-8.837-3.673l-8.846-8.846c3.363-2.429,6.564-5.129,9.554-8.12c3.009-3.009,5.705-6.212,8.114-9.56
	L327.771,350.097z M345,283.5c6.893,0,12.5,5.607,12.5,12.5c0,3.336-1.301,6.474-3.663,8.836c-2.363,2.362-5.501,3.664-8.837,3.664
	h-12.564c1.342-8.276,1.342-16.724,0-25H345z M310.097,224.23c2.36-2.363,5.497-3.665,8.833-3.665s6.474,1.302,8.838,3.669
	c2.368,2.368,3.673,5.506,3.673,8.836s-1.305,6.468-3.673,8.837l-8.852,8.852c-2.41-3.347-5.106-6.551-8.114-9.56
	c-2.99-2.99-6.191-5.69-9.554-8.119L310.097,224.23z M243.5,207c0-6.893,5.607-12.5,12.5-12.5c3.336,0,6.474,1.301,8.836,3.663
	c2.363,2.363,3.664,5.501,3.664,8.837v12.515c-4.096-0.661-8.27-1.015-12.5-1.015c-4.23,0-8.404,0.354-12.5,1.015V207z
	 M184.23,241.903c-2.363-2.36-3.665-5.498-3.665-8.833c0-3.336,1.302-6.473,3.672-8.84c2.36-2.363,5.498-3.665,8.833-3.665
	s6.473,1.302,8.836,3.668l8.847,8.847c-3.363,2.429-6.564,5.129-9.554,8.119c-3.009,3.009-5.704,6.212-8.114,9.559L184.23,241.903z"
	/>
<path d="M256,335.5c10.551,0,20.47-4.109,27.931-11.569h-0.001c7.461-7.46,11.57-17.38,11.57-27.931s-4.109-20.47-11.569-27.931
	c-7.461-7.46-17.38-11.569-27.931-11.569s-20.47,4.109-27.931,11.569c-15.401,15.401-15.401,40.46,0,55.861
	C235.53,331.391,245.449,335.5,256,335.5z M238.676,278.676c4.627-4.627,10.78-7.176,17.324-7.176s12.696,2.548,17.324,7.176
	c4.627,4.627,7.176,10.78,7.176,17.324s-2.549,12.697-7.176,17.324c-0.001,0-0.001,0-0.001,0
	c-4.627,4.627-10.779,7.176-17.323,7.176s-12.697-2.548-17.324-7.176C229.124,303.771,229.124,288.229,238.676,278.676z"/>
<g>
</g>
<g>
</g>
<g>
</g>
<g>
</g>
<g>
</g>
<g>
</g>
<g>
</g>
<g>
</g>
<g>
</g>
<g>
</g>
<g>
</g>
<g>
</g>
<g>
</g>
<g>
</g>
<g>
</g>
</svg>
