<svg id="_x31__x2C_5_copy" height="512" viewBox="0 0 24 24" width="512" xmlns="http://www.w3.org/2000/svg"><path d="m21.25 6.75v14.5c0 1.1-.9 2-2 2h-14.5c-1.1 0-2-.9-2-2v-18.5c0-1.1.9-2 2-2h10.5v4c0 1.1.9 2 2 2z" fill="#cfd8dc"/><path d="m21.25 6.75h-4c-1.1 0-2-.9-2-2v-4z" fill="#90a4ae"/><path d="m15.87 14.2c.04-.23.07-.46.07-.7s-.03-.47-.07-.7l1.19-.88c.19-.15.25-.42.13-.63l-.74-1.33c-.12-.21-.38-.3-.59-.19l-1.34.62c-.35-.3-.74-.54-1.17-.7l-.15-1.51c-.02-.24-.22-.43-.46-.43h-1.48c-.24 0-.44.19-.46.43l-.15 1.51c-.43.16-.82.4-1.17.7l-1.34-.62c-.21-.11-.47-.02-.59.19l-.74 1.33c-.12.21-.06.48.13.63l1.19.88c-.04.23-.07.46-.07.7s.03.47.07.7l-1.19.88c-.19.15-.25.42-.13.63l.74 1.33c.12.21.38.3.59.19l1.34-.62c.35.3.74.54 1.17.7l.15 1.51c.02.24.22.43.46.43h1.48c.24 0 .44-.19.46-.43l.15-1.51c.43-.16.82-.4 1.17-.7l1.34.62c.21.11.47.02.59-.19l.74-1.33c.12-.21.06-.48-.13-.63zm-3.87 1.05c-.97 0-1.75-.78-1.75-1.75s.78-1.75 1.75-1.75 1.75.78 1.75 1.75-.78 1.75-1.75 1.75z" fill="#00bcd4"/><path d="m19.25 24h-14.5c-1.517 0-2.75-1.233-2.75-2.75v-18.5c0-1.517 1.233-2.75 2.75-2.75h10.5c.414 0 .75.336.75.75v4c0 .689.561 1.25 1.25 1.25h4c.414 0 .75.336.75.75v14.5c0 1.517-1.233 2.75-2.75 2.75zm-14.5-22.5c-.689 0-1.25.561-1.25 1.25v18.5c0 .689.561 1.25 1.25 1.25h14.5c.689 0 1.25-.561 1.25-1.25v-13.75h-3.25c-1.517 0-2.75-1.233-2.75-2.75v-3.25z"/><path d="m21.25 7.5h-4c-1.517 0-2.75-1.233-2.75-2.75v-4c0-.304.183-.577.463-.693.28-.114.603-.052.817.163l6 6c.214.215.279.537.163.817s-.39.463-.693.463zm-5.25-4.939v2.189c0 .689.561 1.25 1.25 1.25h2.189z"/><path d="m12 16c-1.378 0-2.5-1.121-2.5-2.5s1.122-2.5 2.5-2.5 2.5 1.121 2.5 2.5-1.122 2.5-2.5 2.5zm0-3.5c-.551 0-1 .448-1 1s.449 1 1 1 1-.448 1-1-.449-1-1-1z"/><path d="m12.739 20h-1.479c-.628 0-1.147-.478-1.208-1.11l-.104-1.068c-.195-.099-.383-.212-.564-.339l-.923.432c-.58.269-1.251.049-1.564-.511l-.74-1.324c-.302-.541-.157-1.227.337-1.597l.833-.618c-.01-.115-.017-.237-.017-.365s.007-.25.017-.365l-.831-.618c-.496-.368-.642-1.054-.338-1.596l.739-1.324c.313-.559.985-.778 1.562-.512l.926.433c.181-.127.37-.24.564-.339l.104-1.069c.06-.632.58-1.11 1.208-1.11h1.479c.628 0 1.147.478 1.208 1.11l.104 1.068c.195.099.384.212.565.338l.923-.431c.579-.268 1.251-.049 1.564.511l.74 1.324c.303.542.158 1.229-.338 1.597l-.831.617c.01.115.017.237.017.365s-.007.25-.017.365l.831.616c.496.371.641 1.058.338 1.598l-.739 1.324c-.313.559-.985.777-1.562.512l-.926-.433c-.181.127-.37.24-.564.339l-.104 1.069c-.062.633-.582 1.111-1.21 1.111zm-1.217-1.5h.956l.122-1.26c.028-.284.214-.528.482-.63.338-.127.656-.318.944-.568.224-.193.54-.236.809-.112l1.089.509.498-.892-.997-.74c-.227-.169-.339-.45-.292-.729.032-.188.058-.38.058-.578s-.026-.39-.058-.578c-.047-.278.065-.56.292-.728l.997-.741-.498-.892-1.089.509c-.269.123-.585.081-.809-.113-.286-.249-.604-.439-.943-.567-.268-.102-.454-.346-.482-.63l-.123-1.26h-.956l-.122 1.26c-.028.284-.214.528-.482.63-.338.127-.656.318-.944.568-.224.193-.542.235-.809.112l-1.089-.509-.498.892.997.741c.227.168.339.449.292.728-.032.188-.058.38-.058.578s.026.39.058.578c.047.278-.065.56-.292.729l-.997.74.498.892 1.089-.509c.269-.124.585-.081.809.112.288.25.605.441.944.568.268.102.454.346.482.63zm5.086-2.815h.01z"/></svg>