<svg id="Digital_content" height="512" viewBox="0 0 64 64" width="512" xmlns="http://www.w3.org/2000/svg" data-name="Digital content"><path d="m59 61h-54a2 2 0 0 1 -2-2v-6h58v6a2 2 0 0 1 -2 2z" fill="#57565c"/><path d="m25 53h14v4h-14z" fill="#e9e9ea"/><path d="m6 19h52a2 2 0 0 1 2 2v32a0 0 0 0 1 0 0h-56a0 0 0 0 1 0 0v-32a2 2 0 0 1 2-2z" fill="#e9e9ea"/><path d="m8 24h48v29h-48z" fill="#2488ff"/><path d="m19 3h42v33h-42z" fill="#91d1f5"/><path d="m23 15h20v14h-20z" fill="#46f8ff"/><circle cx="29" cy="20" fill="#ffc740" r="2"/><path d="m28 29 7-8 7 8z" fill="#70a61b"/><path d="m19 3h42v8h-42z" fill="none"/><path d="m19 3h42v8h-42z" fill="#006ca9"/><path d="m38 47h-33a3 3 0 0 1 -3-3 3 3 0 0 1 3-3h33l5 3z" fill="#acabb1"/><path d="m7 41h4v6h-4z" fill="#fff"/><path d="m11 41h27v3h-27z" fill="#ec455a"/><path d="m11 44h27v3h-27z" fill="#ffc740"/><path d="m29 23a3 3 0 1 0 -3-3 3 3 0 0 0 3 3zm0-4a1 1 0 1 1 -1 1 1 1 0 0 1 1-1z"/><path d="m62 36v-33a1 1 0 0 0 -1-1h-42a1 1 0 0 0 -1 1v15h-12a3.009 3.009 0 0 0 -3 3v19.56a3.958 3.958 0 0 0 0 6.88v4.56a1 1 0 0 0 -1 1v6a3.009 3.009 0 0 0 3 3h54a3.009 3.009 0 0 0 3-3v-6a1 1 0 0 0 -1-1v-15a1 1 0 0 0 1-1zm-43 1h36v15h-46v-4h29a1 1 0 0 0 .51-.14l5-3a1 1 0 0 0 0-1.72l-5-3a1 1 0 0 0 -.51-.14h-29v-15h9v11a1 1 0 0 0 1 1zm19 17v2h-12v-2zm-30-8v-4h2v4zm29-1v1h-25v-1zm-25-2v-1h25v1zm27 2.23v-2.46l2.06 1.23zm-34-24.23a1 1 0 0 1 1-1h12v3h-10a1 1 0 0 0 -1 1v16h-2zm-2 23a2.006 2.006 0 0 1 2-2h1v4h-1a2.006 2.006 0 0 1 -2-2zm4 4v4h-2v-4zm53 11a1 1 0 0 1 -1 1h-54a1 1 0 0 1 -1-1v-5h20v3a1 1 0 0 0 1 1h14a1 1 0 0 0 1-1v-3h20zm-3-7v-15h2v15zm3-17h-40v-23h40zm0-25h-40v-6h40z"/><path d="m43 14h-20a1 1 0 0 0 -1 1v14a1 1 0 0 0 1 1h20a1 1 0 0 0 1-1v-14a1 1 0 0 0 -1-1zm-12.8 14 4.8-5.48 4.8 5.48zm11.8-.52-6.25-7.14a1.033 1.033 0 0 0 -1.5 0l-6.7 7.66h-3.55v-12h18z"/><path d="m22 6h2v2h-2z"/><path d="m26 6h2v2h-2z"/><path d="m30 6h2v2h-2z"/><path d="m46 15h6v2h-6z"/><path d="m46 19h4v2h-4z"/><path d="m52 19h6v2h-6z"/><path d="m46 23h12v2h-12z"/><path d="m46 27h12v2h-12z"/><path d="m54 15h4v2h-4z"/></svg>