<?xml version="1.0" encoding="iso-8859-1"?>
<!-- Generator: Adobe Illustrator 19.0.0, SVG Export Plug-In . SVG Version: 6.00 Build 0)  -->
<svg version="1.1" id="Layer_1" xmlns="http://www.w3.org/2000/svg" xmlns:xlink="http://www.w3.org/1999/xlink" x="0px" y="0px"
	 viewBox="0 0 512 512" style="enable-background:new 0 0 512 512;" xml:space="preserve">
<g>
	<g>
		<path d="M257.732,45.957c-6.344,0-11.487,5.149-11.487,11.493c0,6.344,5.143,11.487,11.487,11.487
			c6.344,0,11.487-5.143,11.487-11.487v-0.013C269.219,51.093,264.076,45.957,257.732,45.957z"/>
	</g>
</g>
<g>
	<g>
		<path d="M225.729,60.525c-2.069-5.996-8.609-9.182-14.606-7.11c-19.272,6.654-36.438,17.355-51.018,31.807
			c-25.572,25.348-39.806,59.316-40.082,95.648c-0.048,6.344,5.056,11.526,11.4,11.573c0.03,0,0.059,0,0.088,0
			c6.303,0,11.438-5.087,11.485-11.4c0.229-30.223,12.049-58.458,33.282-79.505c12.11-12.003,26.355-20.889,42.34-26.407
			C224.617,73.062,227.8,66.521,225.729,60.525z"/>
	</g>
</g>
<g>
	<g>
		<path d="M437.929,181.93c0-48.157-18.633-93.551-52.464-127.816c-33.8-34.233-78.887-53.445-126.955-54.096
			c-49.016-0.672-95.167,17.727-129.952,51.785c-34.763,34.036-54.111,79.749-54.482,128.719
			c-0.37,48.81,18.34,94.777,52.681,129.438c12.212,12.325,21.41,23.708,28.366,35.144c-8.519,6.774-13.996,17.216-13.996,28.921
			c0,9.861,3.891,18.824,10.209,25.456c-6.318,6.632-10.209,15.595-10.209,25.456c0,20.37,16.573,36.943,36.943,36.943h0.428
			l9.443,41.199c1.197,5.22,5.841,8.921,11.197,8.921h113.725c5.355,0,10.001-3.701,11.197-8.921l9.443-41.199h0.428
			c20.37,0,36.943-16.573,36.943-36.943c0-9.861-3.891-18.824-10.209-25.456c6.318-6.632,10.209-15.595,10.209-25.456
			c0-11.662-5.437-22.072-13.903-28.847c7.02-11.525,16.338-23.085,28.74-35.691C419.384,275.252,437.929,229.952,437.929,181.93z
			 M303.71,489.026h-95.42l-6.222-27.146h107.863L303.71,489.026z M333.93,438.907h-9.58H187.65h-9.58
			c-7.702,0-13.969-6.266-13.969-13.969s6.266-13.969,13.969-13.969h155.86c7.702,0,13.969,6.266,13.969,13.969
			S341.632,438.907,333.93,438.907z M333.931,387.991h-155.86c-7.702,0-13.969-6.266-13.969-13.969
			c0-6.706,4.752-12.32,11.065-13.661c0.105-0.022,0.21-0.038,0.315-0.057c0.314-0.059,0.631-0.108,0.951-0.146
			c0.123-0.015,0.246-0.029,0.369-0.04c0.418-0.038,0.841-0.064,1.269-0.064h49.654v0.002h56.551h49.655
			c0.432,0,0.857,0.026,1.279,0.064c0.119,0.01,0.239,0.025,0.357,0.039c0.327,0.038,0.651,0.088,0.972,0.148
			c0.1,0.018,0.2,0.034,0.299,0.055c6.311,1.342,11.062,6.954,11.062,13.66C347.899,381.725,341.633,387.991,333.931,387.991z
			 M255.999,281.123c-6.344,0-11.487,5.143-11.487,11.487v44.471h-8.761l-37.536-102.5h115.568l-37.536,102.5h-8.761v-44.471
			C267.487,286.266,262.344,281.123,255.999,281.123z M335.052,337.099c-0.373-0.011-0.748-0.017-1.122-0.017h-33.214
			l40.296-110.037c1.29-3.523,0.779-7.454-1.37-10.529c-2.149-3.075-5.664-4.907-9.416-4.907h-148.45
			c-3.752,0-7.268,1.832-9.416,4.907c-2.148,3.075-2.66,7.006-1.37,10.529l40.296,110.037h-33.214c-0.331,0-0.662,0.005-0.992,0.014
			c-8.171-14.362-19.137-28.305-34-43.306c-30.005-30.282-46.351-70.446-46.027-113.093c0.325-42.808,17.223-82.753,47.582-112.476
			C175.015,38.473,215.34,22.41,258.2,22.991c86.434,1.171,156.754,72.47,156.754,158.939c0,41.956-16.203,81.535-45.623,111.444
			C354.318,308.637,343.262,322.716,335.052,337.099z"/>
	</g>
</g>
<g>
	<g>
		<path d="M267.257,252.451c-0.138-0.724-0.368-1.447-0.655-2.148c-0.287-0.689-0.643-1.356-1.057-1.976
			c-0.414-0.632-0.896-1.218-1.424-1.746c-2.665-2.665-6.628-3.894-10.362-3.136c-0.735,0.138-1.459,0.368-2.148,0.655
			c-0.701,0.287-1.367,0.632-1.987,1.045c-0.632,0.425-1.218,0.908-1.746,1.436c-0.528,0.528-1.011,1.114-1.424,1.746
			c-0.414,0.62-0.77,1.287-1.057,1.976c-0.287,0.701-0.517,1.424-0.655,2.148c-0.149,0.747-0.23,1.505-0.23,2.252
			c0,0.747,0.08,1.505,0.23,2.24c0.138,0.735,0.368,1.459,0.655,2.148c0.287,0.701,0.643,1.367,1.057,1.987
			c0.414,0.632,0.896,1.218,1.424,1.746c0.528,0.528,1.114,1.011,1.746,1.424c0.62,0.414,1.287,0.77,1.987,1.057
			c0.689,0.287,1.413,0.505,2.148,0.655c0.735,0.149,1.493,0.23,2.24,0.23c3.021,0,5.985-1.229,8.122-3.366
			c0.528-0.528,1.011-1.114,1.424-1.746c0.414-0.62,0.77-1.287,1.057-1.987c0.287-0.689,0.517-1.413,0.655-2.148
			c0.149-0.735,0.23-1.493,0.23-2.24S267.406,253.198,267.257,252.451z"/>
	</g>
</g>
<g>
</g>
<g>
</g>
<g>
</g>
<g>
</g>
<g>
</g>
<g>
</g>
<g>
</g>
<g>
</g>
<g>
</g>
<g>
</g>
<g>
</g>
<g>
</g>
<g>
</g>
<g>
</g>
<g>
</g>
</svg>
