<?xml version="1.0"?>
<svg xmlns="http://www.w3.org/2000/svg" id="filled_outline" data-name="filled outline" viewBox="0 0 512 512" width="512" height="512"><path d="M176,400V224l-80.00058-.00031A15.99969,15.99969,0,0,0,79.99972,208h0A15.99969,15.99969,0,0,0,64,224.00028l-.00059,16A15.99968,15.99968,0,0,0,47.99972,224h0A15.9997,15.9997,0,0,0,32,239.99969v80.90414a88,88,0,0,0,39.18638,73.22043L80,400Z" style="fill:#f5c99d"/><rect x="96" y="184.00001" width="160" height="160" style="fill:#8760e6"/><path d="M336,400V224l80.00058-.00031A15.9997,15.9997,0,0,1,432.00028,208h0A15.99969,15.99969,0,0,1,448,224.00028l.00058,16A15.9997,15.9997,0,0,1,464.00028,224h0A15.9997,15.9997,0,0,1,480,239.99969v80.90414a88,88,0,0,1-39.18638,73.22043L432,400Z" style="fill:#f5c99d"/><rect x="336" y="400" width="96" height="88" style="fill:#548aff"/><path d="M416,312V184H256v64H233.884a24,24,0,1,0,0,32H256v64H384A32,32,0,0,0,416,312Z" style="fill:#f6bb00"/><rect x="79.99999" y="400" width="96" height="88" style="fill:#548aff"/><path d="M248,24H384a32,32,0,0,1,32,32V184H352v22.116a24,24,0,1,1-32,0V184H248Z" style="fill:#548aff"/><path d="M256,88h22.116a24.00066,24.00066,0,1,1,0,32H256v64H96V120h22.116a24,24,0,1,0,0-32H96V56a32,32,0,0,1,32-32H256V88Z" style="fill:#ef5e3b"/><path d="M392,376V364.85059a53.90209,53.90209,0,0,1,24.00655-44.8519l0,0L416,288.00261A16,16,0,0,1,432,272h0a16,16,0,0,1,16,15.99736V376Z" style="fill:#f5c99d"/><path d="M120,376V364.85059a53.90211,53.90211,0,0,0-24.00654-44.8519l0,0L96,288.00261A16,16,0,0,0,80,272h0a16,16,0,0,0-16,15.99736V376Z" style="fill:#f5c99d"/><path d="M66.74854,400.78027,72,404.28143V488a7.99977,7.99977,0,0,0,8,8h96a7.99977,7.99977,0,0,0,8-8V352H328V488a7.99977,7.99977,0,0,0,8,8h96a7.99977,7.99977,0,0,0,8-8V404.28131l5.251-3.501A95.807,95.807,0,0,0,488,320.90381v-80.9043a23.98494,23.98494,0,0,0-32.83936-22.3053A23.99276,23.99276,0,0,0,424,201.37634V56a40.04521,40.04521,0,0,0-40-40H128A40.04521,40.04521,0,0,0,88,56V88a7.99977,7.99977,0,0,0,8,8h22.11621a7.99937,7.99937,0,0,0,5.96045-2.66406A16.02536,16.02536,0,0,1,136,88a16.00151,16.00151,0,0,1,15.96777,17.03516,16.15745,16.15745,0,0,1-15.04492,14.939,15.95293,15.95293,0,0,1-12.84619-5.31006A7.99937,7.99937,0,0,0,118.11621,112H96a7.99977,7.99977,0,0,0-8,8v81.37628a23.98544,23.98544,0,0,0-31.1543,16.32044A23.985,23.985,0,0,0,24,239.99951v80.9043A95.80768,95.80768,0,0,0,66.74854,400.78027ZM168,480H88V408h80ZM103.99463,315.90234,103.99847,296H104V192H248v48H237.165a32.00259,32.00259,0,1,0-.00586,48H248v48H120.85675A61.76115,61.76115,0,0,0,103.99463,315.90234ZM256,272H233.88428a7.99937,7.99937,0,0,0-5.96045,2.66406A16.02563,16.02563,0,0,1,216,280a16.00151,16.00151,0,0,1-15.96777-17.03516,16.15751,16.15751,0,0,1,15.04541-14.939,15.96145,15.96145,0,0,1,12.84619,5.31006A7.99937,7.99937,0,0,0,233.88428,256H256a7.99977,7.99977,0,0,0,8-8V192h48v10.84131a31.998,31.998,0,1,0,48-.00635V192h48V315.90674A61.76236,61.76236,0,0,0,391.14331,336H264V280A7.99977,7.99977,0,0,0,256,272ZM424,480H344V408h80Zm40.00049-248A8.00833,8.00833,0,0,1,472,239.99951v80.9043a79.839,79.839,0,0,1-35.62451,66.564L429.57751,392H344V352h41.36414A62.08634,62.08634,0,0,0,384,364.85059V376h16V364.85059a45.81075,45.81075,0,0,1,20.44336-38.19532,7.99971,7.99971,0,0,0,3.563-6.6582L424,288.001a8,8,0,0,1,16-.00342V328h16V295.99707h.00244l-.00195-55.99658A8.00927,8.00927,0,0,1,464.00049,232Zm-32-16A7.99955,7.99955,0,0,1,440,224l-.00171,41.37567a24.05754,24.05754,0,0,0-15.9978-.01391V223.99951A8.00875,8.00875,0,0,1,432.00049,216ZM408,56V176H352a7.99977,7.99977,0,0,0-8,8v22.11621a7.99937,7.99937,0,0,0,2.66406,5.96045,15.96451,15.96451,0,0,1,5.31006,12.84619,16.15739,16.15739,0,0,1-14.93848,15.04492A16.00155,16.00155,0,0,1,320,224a16.02536,16.02536,0,0,1,5.33594-11.92334A7.99937,7.99937,0,0,0,328,206.11621V184a7.99977,7.99977,0,0,0-8-8H264V128h10.835a32.0028,32.0028,0,1,0,.00635-48H264V32H384A24.0275,24.0275,0,0,1,408,56ZM104,128h10.835a32.0028,32.0028,0,1,0,.00635-48H104V56a24.02718,24.02718,0,0,1,24-24H248V88a7.99977,7.99977,0,0,0,8,8h22.11621a7.99937,7.99937,0,0,0,5.96045-2.66406A16.02536,16.02536,0,0,1,296,88a16.00151,16.00151,0,0,1,15.96777,17.03516,16.15745,16.15745,0,0,1-15.04492,14.939,15.95671,15.95671,0,0,1-12.84619-5.31006A7.99937,7.99937,0,0,0,278.11621,112H256a7.99977,7.99977,0,0,0-8,8v56H104ZM79.99951,216a8.00917,8.00917,0,0,1,8,8l-.00171,41.36121A24.05707,24.05707,0,0,0,72,265.37628V223.99951A8.00833,8.00833,0,0,1,79.99951,216ZM40,239.99951A7.99976,7.99976,0,1,1,55.99951,240l-.002,55.99707H56V328H72V287.999a8,8,0,0,1,16,.002l-.00635,31.99609a7.99971,7.99971,0,0,0,3.563,6.6582A45.81075,45.81075,0,0,1,112,364.85059V376h16V364.85059A62.08634,62.08634,0,0,0,126.63586,352H168v40H82.42236L75.624,387.46777A79.8397,79.8397,0,0,1,40,320.90381Z"/></svg>
