<svg id="icons" enable-background="new 0 0 64 64" height="512" viewBox="0 0 64 64" width="512" xmlns="http://www.w3.org/2000/svg"><path d="m8.5 16.015h-3-3.5c-.54 0-1-.46-1-1v-6c0-.55.46-1 1-1h10c.55 0 1 .45 1 1v6c0 .54-.45 1-1 1z" fill="#5d9cec"/><path d="m8.5 16.015 1 2.99h-5l1-2.99z" fill="#545c66"/><path d="m8.5 52.995 1 3h-5l1-3z" fill="#545c66"/><path d="m13 46.005v5.99c0 .55-.45 1-1 1h-3.5-3-3.5c-.54 0-1-.45-1-1v-5.99c0-.55.46-1 1-1h10c.55 0 1 .45 1 1z" fill="#5d9cec"/><path d="m58.5 52.995 1 3h-5l1-3z" fill="#545c66"/><path d="m63 46.005v5.99c0 .55-.45 1-1 1h-3.5-3-3.49c-.55 0-1-.45-1-1v-5.99c0-.55.45-1 1-1h9.99c.55 0 1 .45 1 1z" fill="#5d9cec"/><path d="m58.5 15.995 1 3h-5l1-3z" fill="#545c66"/><path d="m63 9.005v5.99c0 .55-.45 1-1 1h-3.5-3-3.49c-.55 0-1-.45-1-1v-5.99c0-.55.45-1 1-1h9.99c.55 0 1 .45 1 1z" fill="#5d9cec"/><path d="m40 40.005c3.32 0 6-2.69 6-6v4c0 3.31-2.68 6-6 6h-17c-2.76 0-4.99-2.24-4.99-4.99v-4.01c0 2.76 2.23 4.99 4.99 4.99h17z" fill="#ccd1d9"/><path d="m40.49 28.024c3.09.25 5.51 2.83 5.51 5.98 0 3.31-2.68 6-6 6v-.01h-17c-2.76 0-4.99-2.23-4.99-4.99s2.23-4.99 4.99-4.99h.06.011c.489-4.5 4.3-8 8.939-8 3.92 0 7.25 2.51 8.471 6.01z" fill="#e6e9ed"/><path d="m40.002 41.001h-17c-.553 0-1-.447-1-1s.447-1 1-1h17c.553 0 1 .447 1 1s-.447 1-1 1z"/><path d="m41 32.01c-.553 0-1-.447-1-1 0-4.409-3.587-7.996-7.996-7.996s-7.996 3.587-7.996 7.996c0 .553-.447 1-1 1s-1-.447-1-1c0-5.512 4.484-9.996 9.996-9.996s9.996 4.484 9.996 9.996c0 .553-.447 1-1 1z"/><path d="m40.002 41.002c-.553 0-1-.447-1-1s.447-1 1-1c2.757 0 5-2.241 5-4.996 0-2.59-2.02-4.778-4.599-4.981-.55-.044-.961-.525-.918-1.076.045-.55.514-.96 1.076-.918 3.611.285 6.44 3.35 6.44 6.976.001 3.856-3.14 6.995-6.999 6.995z"/><path d="m23.002 41.001c-3.307 0-5.996-2.688-5.996-5.993 0-3.306 2.689-5.994 5.996-5.994.553 0 1 .447 1 1s-.447 1-1 1c-2.203 0-3.996 1.792-3.996 3.994s1.793 3.993 3.996 3.993c.553 0 1 .447 1 1s-.447 1-1 1z"/><path d="m40.002 45.006h-17c-.553 0-1-.447-1-1s.447-1 1-1h17c.553 0 1 .447 1 1s-.447 1-1 1z"/><path d="m40.002 45.007c-.553 0-1-.447-1-1s.447-1 1-1c2.757 0 5-2.241 5-4.996 0-.553.447-1 1-1s1 .447 1 1c0 3.857-3.141 6.996-7 6.996z"/><path d="m23.002 45.006c-3.307 0-5.996-2.688-5.996-5.993 0-.553.447-1 1-1s1 .447 1 1c0 2.202 1.793 3.993 3.996 3.993.553 0 1 .447 1 1s-.447 1-1 1z"/><path d="m23.063 31.014h-.061c-.553 0-1-.447-1-1s.447-1 1-1 1.03.447 1.03 1-.417 1-.969 1z"/><path d="m18.006 40.013c-.553 0-1-.447-1-1v-4.005c0-.553.447-1 1-1s1 .447 1 1v4.005c0 .552-.447 1-1 1z"/><path d="m46.002 39.011c-.553 0-1-.447-1-1v-4.005c0-.553.447-1 1-1s1 .447 1 1v4.005c0 .552-.447 1-1 1z"/><path d="m13.997 37.011h-6.998c-.553 0-1-.447-1-1s.447-1 1-1h6.998c.553 0 1 .447 1 1s-.447 1-1 1z"/><path d="m6.999 42.008c-.553 0-1-.447-1-1v-4.988c0-.553.447-1 1-1s1 .447 1 1v4.988c0 .553-.447 1-1 1z"/><path d="m11.998 39.02c-.256 0-.512-.098-.707-.293-.391-.391-.391-1.023 0-1.414l2-2c.391-.391 1.023-.391 1.414 0s.391 1.023 0 1.414l-2 2c-.195.195-.451.293-.707.293z"/><path d="m13.998 37.02c-.256 0-.512-.098-.707-.293l-2-2c-.391-.391-.391-1.023 0-1.414s1.023-.391 1.414 0l2 2c.391.391.391 1.023 0 1.414-.195.195-.451.293-.707.293z"/><path d="m13.997 37.011h-6.998c-.553 0-1-.447-1-1s.447-1 1-1h6.998c.553 0 1 .447 1 1s-.447 1-1 1z"/><path d="m6.999 42.008c-.553 0-1-.447-1-1v-4.988c0-.553.447-1 1-1s1 .447 1 1v4.988c0 .553-.447 1-1 1z"/><path d="m11.998 39.02c-.256 0-.512-.098-.707-.293-.391-.391-.391-1.023 0-1.414l2-2c.391-.391 1.023-.391 1.414 0s.391 1.023 0 1.414l-2 2c-.195.195-.451.293-.707.293z"/><path d="m13.998 37.02c-.256 0-.512-.098-.707-.293l-2-2c-.391-.391-.391-1.023 0-1.414s1.023-.391 1.414 0l2 2c.391.391.391 1.023 0 1.414-.195.195-.451.293-.707.293z"/><path d="m13.997 29.005h-6.998c-.553 0-1-.447-1-1s.447-1 1-1h6.998c.553 0 1 .447 1 1s-.447 1-1 1z"/><path d="m6.999 28.996c-.553 0-1-.447-1-1v-4.988c0-.553.447-1 1-1s1 .447 1 1v4.988c0 .553-.447 1-1 1z"/><path d="m13.998 28.996c-.256 0-.512-.098-.707-.293l-2-2c-.391-.391-.391-1.023 0-1.414s1.023-.391 1.414 0l2 2c.391.391.391 1.023 0 1.414-.195.195-.451.293-.707.293z"/><path d="m11.998 30.996c-.256 0-.512-.098-.707-.293-.391-.391-.391-1.023 0-1.414l2-2c.391-.391 1.023-.391 1.414 0s.391 1.023 0 1.414l-2 2c-.195.195-.451.293-.707.293z"/><path d="m57.012 37.01h-6.998c-.553 0-1-.447-1-1s.447-1 1-1h6.998c.553 0 1 .447 1 1s-.448 1-1 1z"/><path d="m57.012 42.007c-.553 0-1-.447-1-1v-4.988c0-.553.447-1 1-1s1 .447 1 1v4.988c0 .553-.448 1-1 1z"/><path d="m52.013 39.019c-.256 0-.512-.098-.707-.293l-2-2c-.391-.391-.391-1.023 0-1.414s1.023-.391 1.414 0l2 2c.391.391.391 1.023 0 1.414-.196.195-.451.293-.707.293z"/><path d="m50.013 37.019c-.256 0-.512-.098-.707-.293-.391-.391-.391-1.023 0-1.414l2-2c.391-.391 1.023-.391 1.414 0s.391 1.023 0 1.414l-2 2c-.196.195-.451.293-.707.293z"/><path d="m57.012 37.01h-6.998c-.553 0-1-.447-1-1s.447-1 1-1h6.998c.553 0 1 .447 1 1s-.448 1-1 1z"/><path d="m57.012 42.007c-.553 0-1-.447-1-1v-4.988c0-.553.447-1 1-1s1 .447 1 1v4.988c0 .553-.448 1-1 1z"/><path d="m52.013 39.019c-.256 0-.512-.098-.707-.293l-2-2c-.391-.391-.391-1.023 0-1.414s1.023-.391 1.414 0l2 2c.391.391.391 1.023 0 1.414-.196.195-.451.293-.707.293z"/><path d="m50.013 37.019c-.256 0-.512-.098-.707-.293-.391-.391-.391-1.023 0-1.414l2-2c.391-.391 1.023-.391 1.414 0s.391 1.023 0 1.414l-2 2c-.196.195-.451.293-.707.293z"/><path d="m57.012 29.004h-6.998c-.553 0-1-.447-1-1s.447-1 1-1h6.998c.553 0 1 .447 1 1s-.448 1-1 1z"/><path d="m57.012 28.995c-.553 0-1-.447-1-1v-4.988c0-.553.447-1 1-1s1 .447 1 1v4.988c0 .553-.448 1-1 1z"/><path d="m50.013 28.995c-.256 0-.512-.098-.707-.293-.391-.391-.391-1.023 0-1.414l2-2c.391-.391 1.023-.391 1.414 0s.391 1.023 0 1.414l-2 2c-.196.195-.451.293-.707.293z"/><path d="m52.013 30.995c-.256 0-.512-.098-.707-.293l-2-2c-.391-.391-.391-1.023 0-1.414s1.023-.391 1.414 0l2 2c.391.391.391 1.023 0 1.414-.196.195-.451.293-.707.293z"/><path d="m61.997 17.001h-9.992c-1.103 0-2-.897-2-2v-5.994c0-1.103.897-2 2-2h9.992c1.103 0 2 .897 2 2v5.994c0 1.103-.897 2-2 2zm0-2v1zm-9.992-5.994v5.994h9.988l.004-5.994z"/><path d="m54.502 19.994c-.104 0-.211-.017-.316-.052-.523-.174-.807-.74-.632-1.265l1-2.999c.175-.523.735-.809 1.265-.632.523.174.807.74.632 1.265l-1 2.999c-.14.419-.53.684-.949.684z"/><path d="m59.501 19.994c-.419 0-.809-.265-.948-.684l-1-2.999c-.175-.524.108-1.091.632-1.265.529-.177 1.09.108 1.265.632l1 2.999c.175.524-.108 1.091-.632 1.265-.106.036-.213.052-.317.052z"/><path d="m60 19.994h-5.998c-.553 0-1-.447-1-1s.447-1 1-1h5.998c.553 0 1 .447 1 1s-.447 1-1 1z"/><path d="m61.997 54h-9.992c-1.103 0-2-.897-2-2v-5.994c0-1.103.897-2 2-2h9.992c1.103 0 2 .897 2 2v5.994c0 1.103-.897 2-2 2zm0-2v1zm-9.992-5.994v5.994h9.988l.004-5.994z"/><path d="m54.502 56.993c-.104 0-.211-.017-.316-.052-.523-.174-.807-.74-.632-1.265l1-2.999c.175-.523.735-.807 1.265-.632.523.174.807.74.632 1.265l-1 2.999c-.14.42-.53.684-.949.684z"/><path d="m59.501 56.993c-.419 0-.809-.265-.948-.684l-1-2.999c-.175-.524.108-1.091.632-1.265.529-.175 1.09.108 1.265.632l1 2.999c.175.524-.108 1.091-.632 1.265-.106.036-.213.052-.317.052z"/><path d="m60 56.993h-5.998c-.553 0-1-.447-1-1s.447-1 1-1h5.998c.553 0 1 .447 1 1s-.447 1-1 1z"/><path d="m11.995 54h-9.992c-1.103 0-2-.897-2-2v-5.994c0-1.103.897-2 2-2h9.992c1.103 0 2 .897 2 2v5.994c0 1.103-.897 2-2 2zm0-2v1zm-9.992-5.994v5.994h9.988l.004-5.994z"/><path d="m4.5 56.993c-.104 0-.211-.017-.316-.052-.523-.174-.807-.74-.632-1.265l1-2.999c.175-.523.736-.807 1.265-.632.523.174.807.74.632 1.265l-1 2.999c-.14.42-.53.684-.949.684z"/><path d="m9.499 56.993c-.419 0-.809-.265-.948-.684l-1-2.999c-.175-.524.108-1.091.632-1.265.528-.175 1.09.108 1.265.632l1 2.999c.175.524-.108 1.091-.632 1.265-.106.036-.212.052-.317.052z"/><path d="m9.998 56.993h-5.998c-.553 0-1-.447-1-1s.447-1 1-1h5.998c.553 0 1 .447 1 1s-.447 1-1 1z"/><path d="m11.995 17.013h-9.992c-1.103 0-2-.897-2-2v-5.994c0-1.103.897-2 2-2h9.992c1.103 0 2 .897 2 2v5.994c0 1.102-.897 2-2 2zm0-2v1zm-9.992-5.994v5.994h9.988l.004-5.994z"/><path d="m4.5 20.006c-.104 0-.211-.017-.316-.052-.523-.174-.807-.74-.632-1.265l1-2.999c.175-.523.736-.808 1.265-.632.523.174.807.74.632 1.265l-1 2.999c-.14.419-.53.684-.949.684z"/><path d="m9.499 20.006c-.419 0-.809-.265-.948-.684l-1-2.999c-.175-.524.108-1.091.632-1.265.528-.176 1.09.108 1.265.632l1 2.999c.175.524-.108 1.091-.632 1.265-.106.035-.212.052-.317.052z"/><path d="m9.998 20.006h-5.998c-.553 0-1-.447-1-1s.447-1 1-1h5.998c.553 0 1 .447 1 1s-.447 1-1 1z"/></svg>