<svg height="512" viewBox="0 0 62 62" width="512" xmlns="http://www.w3.org/2000/svg"><g id="Page-1" fill="none" fill-rule="evenodd"><g id="013---Tradin-g-Options"><g id="Icons" transform="translate(1 1)"><path id="Path" d="m23.989 5.411 2.12-3.9c.1749325-.32232442.5122652-.52303546.879-.523h6.024c.3667348-.00003546.7040675.20067558.879.523l2.12 3.9 7.126 2.952 4.263-1.263c.3515524-.10400869.7318347-.00730724.991.252l4.26 4.26c.2593072.2591653.3560087.6394476.252.991l-1.263 4.26 2.952 7.126 3.905 2.12c.3223244.1749325.5230355.5122652.523.879v6.024c.0000355.3667348-.2006756.7040675-.523.879l-3.905 2.12-2.952 7.126 1.26 4.263c.1040087.3515524.0073072.7318347-.252.991l-4.26 4.26c-.2591653.2593072-.6394476.3560087-.991.252l-4.26-1.263-7.126 2.952-2.12 3.905c-.1749325.3223244-.5122652.5230355-.879.523h-6.024c-.3667348.0000355-.7040675-.2006756-.879-.523l-2.12-3.905-7.126-2.952-4.263 1.26c-.3515524.1040087-.7318347.0073072-.991-.252l-4.26-4.26c-.25713441-.2591859-.35258087-.6379051-.249-.988l1.263-4.26-2.952-7.129-3.9-2.12c-.32232442-.1749325-.52303546-.5122652-.523-.879v-6.024c-.00003546-.3667348.20067558-.7040675.523-.879l3.9-2.12 2.952-7.126-1.263-4.263c-.10400869-.3515524-.00730724-.7318347.252-.991l4.26-4.26c.2591859-.25713441.6379051-.35258087.988-.249l4.26 1.263z" fill="#7f8e94"/><g fill="#545c60"><path id="Path" d="m13.863 8.363 1.252-.518-2.515-.745c-.3515524-.10400869-.7318347-.00730724-.991.252l-.265.265z"/><path id="Path" d="m13.863 51.637-2.516.746.265.265c.2591653.2593072.6394476.3560087.991.252l2.512-.745z"/><path id="Path" d="m30.891 1.506 2.12 3.9 7.126 2.952 1.748-.518-5.874-2.429-2.12-3.9c-.1749325-.32232442-.5122652-.52303546-.879-.523l-3-.00000401c.365671-.00102959.7027473.19761148.879.51800401z"/><path id="Path" d="m40.137 51.637-7.126 2.952-2.12 3.905c-.1749325.3223244-.5122652.5230355-.879.523h3c.3667348.0000355.7040675-.2006756.879-.523l2.12-3.905 5.874-2.434z"/><path id="Path" d="m58.494 26.109-3.905-2.12-2.952-7.126 1.263-4.263c.1040087-.3515524.0073072-.7318347-.252-.991l-4.26-4.26c-.2591859-.25713441-.6379051-.35258087-.988-.249l-1.744.517 4 4c.2593072.2591653.3560087.6394476.252.991l-1.263 4.26 2.952 7.126 3.905 2.12c.3223244.1749325.5230355.5122652.523.879v6.024c.0000355.3667348-.2006756.7040675-.523.879l-3.905 2.12-2.952 7.126 1.255 4.258c.1040087.3515524.0073072.7318347-.252.991l-4 4 1.752.509c.3515524.1040087.7318347.0073072.991-.252l4.26-4.26c.2571344-.2591859.3525809-.6379051.249-.988l-1.263-4.26 2.952-7.126 3.905-2.12c.3223244-.1749325.5230355-.5122652.523-.879v-6.027c.0000355-.3667348-.2006756-.7040675-.523-.879z"/></g><circle id="Oval" cx="30" cy="30" fill="#37474f" r="20"/><rect id="Rectangle" fill="#60a917" height="7" rx="1" width="4" x="16" y="24"/><rect id="Rectangle" fill="#60a917" height="14" rx="1" width="4" x="32" y="21"/><rect id="Rectangle" fill="#f44335" height="7" rx="1" width="4" x="40" y="29"/><rect id="Rectangle" fill="#f44335" height="22" rx="1" width="4" x="24" y="19"/></g><g id="Icons_copy" fill="#000" fill-rule="nonzero"><path id="Shape" d="m59.971 26.23-3.594-1.951-2.677-6.471 1.161-3.92c.2107926-.7026501.0187481-1.4642986-.5-1.983l-4.261-4.26c-.5191708-.51719303-1.2796238-.70903284-1.982-.5l-3.926 1.155-6.471-2.68-1.951-3.591c-.349865-.64464883-1.0245304-1.04607093-1.758-1.046h-6.024c-.7334696-.00007093-1.408135.40135117-1.758 1.046l-1.951 3.594-6.471 2.677-3.92-1.161c-.702645-.21102064-1.4644113-.01894645-1.983.5l-4.26 4.26c-.51719303.5191708-.70903284 1.2796238-.5 1.982l1.155 3.927-2.68 6.471-3.591 1.951c-.64464883.349865-1.04607093 1.0245304-1.046 1.758v6.024c-.00007093.7334696.40135117 1.408135 1.046 1.758l3.594 1.951 2.677 6.471-1.161 3.92c-.21079259.7026501-.01874807 1.4642986.5 1.983l4.26 4.26c.5191708.517193 1.2796238.7090328 1.982.5l3.927-1.155 6.471 2.68 1.951 3.594c.349865.6446488 1.0245304 1.0460709 1.758 1.046h6.024c.7334696.0000709 1.408135-.4013512 1.758-1.046l1.951-3.594 6.471-2.68 3.92 1.161c.702645.2110206 1.4644113.0189464 1.983-.5l4.26-4.26c.517193-.5191708.7090328-1.2796238.5-1.982l-1.155-3.927 2.68-6.471 3.594-1.951c.6446488-.349865 1.0460709-1.0245304 1.046-1.758v-6.024c-.0005255-.7341102-.4031914-1.4089307-1.049-1.758zm-.954 7.782-3.905 2.12c-.2021138.1102424-.3599985.2868472-.447.5l-2.952 7.126c-.0877665.211751-.1001227.4472263-.035.667l1.263 4.26-4.26 4.26-4.26-1.263c-.2198874-.0641535-.4550345-.0518145-.667.035l-7.126 2.952c-.2131528.0870015-.3897576.2448862-.5.447l-2.12 3.905h-6.02l-2.12-3.905c-.1102424-.2021138-.2868472-.3599985-.5-.447l-7.126-2.952c-.1215077-.0500052-.2516051-.0758208-.383-.076-.0961247.0002295-.1917354.0140325-.284.041l-4.26 1.263-4.26-4.26 1.263-4.26c.0651227-.2197737.0527665-.455249-.035-.667l-2.948-7.13c-.0870015-.2131528-.24488619-.3897576-.447-.5l-3.9-2.12v-6.02l3.905-2.12c.20211381-.1102424.3599985-.2868472.447-.5l2.952-7.126c.0877665-.211751.1001227-.4472263.035-.667l-1.263-4.26 4.26-4.26 4.26 1.263c.2198312.064635.4551408.0522874.667-.035l7.126-2.952c.2131528-.0870015.3897576-.24488619.5-.447l2.12-3.9h6.024l2.12 3.905c.1102424.20211381.2868472.3599985.5.447l7.126 2.952c.2118592.0872874.4471688.099635.667.035l4.26-1.263 4.26 4.26-1.263 4.26c-.0651227.2197737-.0527665.455249.035.667l2.952 7.126c.0870015.2131528.2448862.3897576.447.5l3.905 2.12z"/><path id="Shape" d="m31 10c-11.5979797 0-21 9.4020203-21 21s9.4020203 21 21 21 21-9.4020203 21-21c-.012676-11.5927251-9.4072749-20.987324-21-21zm0 40c-10.4934102 0-19-8.5065898-19-19s8.5065898-19 19-19 19 8.5065898 19 19c-.0115735 10.4886126-8.5113874 18.9884265-19 19z"/><path id="Shape" d="m20 24v-2c0-.5522847-.4477153-1-1-1s-1 .4477153-1 1v2c-1.1045695 0-2 .8954305-2 2v5c0 1.1045695.8954305 2 2 2v3c0 .5522847.4477153 1 1 1s1-.4477153 1-1v-3c1.1045695 0 2-.8954305 2-2v-5c0-1.1045695-.8954305-2-2-2zm-2 7v-5h2v5z"/><path id="Shape" d="m36 21v-4c0-.5522847-.4477153-1-1-1s-1 .4477153-1 1v4c-1.1045695 0-2 .8954305-2 2v12c0 1.1045695.8954305 2 2 2v4c0 .5522847.4477153 1 1 1s1-.4477153 1-1v-4c1.1045695 0 2-.8954305 2-2v-12c0-1.1045695-.8954305-2-2-2zm-2 14v-12h2v12z"/><path id="Shape" d="m28 19v-2c0-.5522847-.4477153-1-1-1s-1 .4477153-1 1v2c-1.1045695 0-2 .8954305-2 2v20c0 1.1045695.8954305 2 2 2v2c0 .5522847.4477153 1 1 1s1-.4477153 1-1v-2c1.1045695 0 2-.8954305 2-2v-20c0-1.1045695-.8954305-2-2-2zm-2 22v-20h2v20z"/><path id="Shape" d="m44 27c0-.5522847-.4477153-1-1-1s-1 .4477153-1 1v2c-1.1045695 0-2 .8954305-2 2v5c0 1.1045695.8954305 2 2 2v2c0 .5522847.4477153 1 1 1s1-.4477153 1-1v-2c1.1045695 0 2-.8954305 2-2v-5c0-1.1045695-.8954305-2-2-2zm0 9h-2v-5h2z"/></g></g></g></svg>