<svg enable-background="new 0 0 24 24" height="512" viewBox="0 0 24 24" width="512" xmlns="http://www.w3.org/2000/svg"><path d="m16.292 20.25v-14.615c0-1.453-1.182-2.635-2.636-2.635h-11.021c-1.453 0-2.635 1.182-2.635 2.635v11.979c0 1.453 1.182 2.635 2.635 2.635h13.657z" fill="#2196f3"/><path d="m19.042 10h-5.042c-1.105 0-2 .895-2 2v10c0 1.105.895 2 2 2h8c1.105 0 2-.895 2-2v-10c0-1.105-.895-2-2-2z" fill="#eceff1"/><path d="m12.25 2h-1.104c-.327-1.153-1.39-2-2.646-2s-2.319.847-2.646 2h-1.104c-.414 0-.75.336-.75.75v2c0 .965.785 1.75 1.75 1.75h5.5c.965 0 1.75-.785 1.75-1.75v-2c0-.414-.336-.75-.75-.75z" fill="#1976d2"/><path d="m9.75 21h-7c-1.517 0-2.75-1.233-2.75-2.75v-12.5c0-1.517 1.233-2.75 2.75-2.75h2c.414 0 .75.336.75.75s-.336.75-.75.75h-2c-.689 0-1.25.561-1.25 1.25v12.5c0 .689.561 1.25 1.25 1.25h7c.414 0 .75.336.75.75s-.336.75-.75.75z"/><path d="m16.25 8.5c-.414 0-.75-.336-.75-.75v-2c0-.689-.561-1.25-1.25-1.25h-2c-.414 0-.75-.336-.75-.75s.336-.75.75-.75h2c1.517 0 2.75 1.233 2.75 2.75v2c0 .414-.336.75-.75.75z"/><path d="m11.25 6.5h-5.5c-.965 0-1.75-.785-1.75-1.75v-2c0-.414.336-.75.75-.75h1.104c.327-1.153 1.39-2 2.646-2s2.319.847 2.646 2h1.104c.414 0 .75.336.75.75v2c0 .965-.785 1.75-1.75 1.75zm-5.75-3v1.25c0 .138.112.25.25.25h5.5c.138 0 .25-.112.25-.25v-1.25h-1c-.414 0-.75-.336-.75-.75 0-.689-.561-1.25-1.25-1.25s-1.25.561-1.25 1.25c0 .414-.336.75-.75.75z"/><path d="m22.25 24h-8.5c-.965 0-1.75-.785-1.75-1.75v-10.5c0-.965.785-1.75 1.75-1.75h8.5c.965 0 1.75.785 1.75 1.75v10.5c0 .965-.785 1.75-1.75 1.75zm-8.5-12.5c-.138 0-.25.112-.25.25v10.5c0 .138.112.25.25.25h8.5c.138 0 .25-.112.25-.25v-10.5c0-.138-.112-.25-.25-.25z"/><path d="m20.125 17h-4.5c-.414 0-.75-.336-.75-.75s.336-.75.75-.75h4.5c.414 0 .75.336.75.75s-.336.75-.75.75z"/><path d="m20.125 20h-4.5c-.414 0-.75-.336-.75-.75s.336-.75.75-.75h4.5c.414 0 .75.336.75.75s-.336.75-.75.75z"/></svg>