<?xml version="1.0" encoding="iso-8859-1"?>
<!-- Generator: Adobe Illustrator 19.0.0, SVG Export Plug-In . SVG Version: 6.00 Build 0)  -->
<svg xmlns="http://www.w3.org/2000/svg" xmlns:xlink="http://www.w3.org/1999/xlink" version="1.1" id="Layer_1" x="0px" y="0px" viewBox="0 0 512 512" style="enable-background:new 0 0 512 512;" xml:space="preserve" width="512" height="512">
<g id="XMLID_246_">
	<g id="XMLID_247_">
		<g id="XMLID_248_">
			<g id="XMLID_249_">
				<g id="XMLID_250_">
					<path id="XMLID_2385_" style="fill:#1FE7A5;" d="M487.42,51.529H24.58c-9.433,0-17.08,7.647-17.08,17.08v344.138       c0,9.433,7.647,17.08,17.08,17.08h462.84c9.433,0,17.08-7.647,17.08-17.08V68.609C504.5,59.176,496.853,51.529,487.42,51.529z"/>
					<path id="XMLID_2384_" style="fill:#19C88D;" d="M504.5,412.743V68.613c0-9.44-7.65-17.08-17.08-17.08h-27.5       c9.43,0,17.08,7.64,17.08,17.08v344.13c0,9.44-7.65,17.08-17.08,17.08h27.5C496.85,429.823,504.5,422.183,504.5,412.743z"/>
					<path id="XMLID_2381_" style="fill:#E3F4FF;" d="M504.5,125.493v-56.88c0-9.44-7.65-17.08-17.08-17.08H24.58       c-9.43,0-17.08,7.64-17.08,17.08v56.88H504.5z"/>
					<path id="XMLID_2378_" style="fill:#BDDFF4;" d="M504.5,125.493v-56.88c0-9.44-7.65-17.08-17.08-17.08h-27.5       c9.43,0,17.08,7.64,17.08,17.08v56.88H504.5z"/>
				</g>
			</g>
		</g>
		<g id="XMLID_251_">
			<g id="XMLID_254_">
				<path id="XMLID_2374_" style="fill:#E29C6D;" d="M128.405,384.896l-7.928-7.928c-10.313-10.313-10.313-27.033,0-37.345      l15.123-15.123l45.274,45.274l-15.123,15.123C155.438,395.209,138.717,395.209,128.405,384.896z"/>
				<g id="XMLID_255_">
					<g id="XMLID_256_">
						<path id="XMLID_2373_" style="fill:#E29C6D;" d="M266.675,396.272l-43.999-43.999c-4.402-4.402-4.402-11.54,0-15.941        s11.54-4.402,15.942,0l43.999,43.999c4.402,4.402,4.402,11.54,0,15.942S271.077,400.674,266.675,396.272z"/>
					</g>
					<g id="XMLID_257_">
						<path id="XMLID_2371_" style="fill:#E29C6D;" d="M151.896,281.493l-43.999-43.999c-4.402-4.402-4.402-11.54,0-15.942        c4.402-4.402,11.54-4.402,15.942,0l43.999,43.999c4.402,4.402,4.402,11.54,0,15.942        C163.436,285.895,156.298,285.895,151.896,281.493z"/>
					</g>
				</g>
				<g id="XMLID_258_">
					<g id="XMLID_259_">
						<g id="XMLID_260_">
							<path id="XMLID_2368_" style="fill:#E29C6D;" d="M247.864,335.376c-2.04-2.04-3.302-4.858-3.302-7.971         c0-6.226,5.046-11.272,11.272-11.272h34.866l22.842-22.842c4.402-4.402,11.54-4.402,15.941,0l9.565,9.565         c4.402,4.402,4.402,11.54,0,15.942s-11.54,4.402-15.941,0l-1.594-1.594l-18.173,18.173c-2.114,2.114-4.981,3.301-7.971,3.302         h-39.535C252.723,338.677,249.904,337.416,247.864,335.376z"/>
						</g>
					</g>
					<g id="XMLID_261_">
						<g id="XMLID_262_">
							<path id="XMLID_2365_" style="fill:#E29C6D;" d="M168.794,256.306c2.04,2.04,4.858,3.302,7.971,3.302         c6.226,0,11.272-5.046,11.272-11.272v-34.866l22.842-22.842c4.402-4.402,4.402-11.54,0-15.942l-9.565-9.565         c-4.402-4.402-11.54-4.402-15.942,0s-4.402,11.54,0,15.942l1.594,1.594l-18.173,18.173c-2.114,2.114-3.301,4.981-3.302,7.971         v39.535C165.493,251.447,166.754,254.266,168.794,256.306z"/>
						</g>
					</g>
				</g>
				<g id="XMLID_263_">
					<g id="XMLID_264_">
						<g id="XMLID_265_">
							<path id="XMLID_2361_" style="fill:#E29C6D;" d="M138.187,286.914c2.04,2.04,3.302,4.858,3.302,7.971         c0,6.226-5.046,11.272-11.272,11.272H95.35l-22.842,22.842c-4.402,4.402-11.54,4.402-15.942,0l-9.565-9.565         c-4.402-4.402-4.402-11.54,0-15.941s11.54-4.402,15.942,0l1.594,1.594l18.173-18.173c2.114-2.114,4.981-3.301,7.971-3.302         h39.535C133.328,283.612,136.147,284.873,138.187,286.914z"/>
						</g>
					</g>
					<g id="XMLID_266_">
						<g id="XMLID_267_">
							<path id="XMLID_2358_" style="fill:#E29C6D;" d="M217.257,365.984c-2.04-2.04-4.858-3.302-7.971-3.302         c-6.226,0-11.272,5.047-11.272,11.272v34.866l-22.842,22.842c-4.402,4.402-4.402,11.54,0,15.942l9.565,9.565         c4.402,4.402,11.54,4.402,15.942,0c4.402-4.402,4.402-11.54,0-15.942l-1.594-1.594l18.173-18.173         c2.114-2.114,3.301-4.981,3.302-7.971v-39.535C220.558,370.842,219.297,368.024,217.257,365.984z"/>
						</g>
					</g>
				</g>
				<circle id="XMLID_2354_" style="fill:#C97F4C;" cx="252.32" cy="251.85" r="38.255"/>
				<path id="XMLID_2353_" style="fill:#FC3E81;" d="M157.505,373.33l-26.665-26.665c-18.275-18.275-18.275-47.904,0-66.179      l26.723-26.723c25.638-25.638,67.205-25.638,92.843,0l0,0c25.638,25.638,25.638,67.205,0,92.843l-26.723,26.723      C205.409,391.605,175.78,391.605,157.505,373.33z"/>
				<path id="XMLID_2352_" style="fill:#F01054;" d="M250.412,346.605l-26.728,26.728c-18.273,18.273-47.903,18.273-66.177,0      l-15.118-15.118c18.28,18.28,47.911,18.28,66.184,0.007l26.728-26.728c12.822-12.822,19.226-29.623,19.226-46.416      c0-13.429-4.101-26.858-12.288-38.251c2.859,2.05,5.595,4.368,8.166,6.938c12.822,12.822,19.234,29.616,19.233,46.423      C269.638,316.982,263.234,333.783,250.412,346.605z"/>
			</g>
		</g>
	</g>
	<g id="XMLID_268_">
		<path id="XMLID_269_" d="M380.738,422.326h-154.88c1.437-2.687,2.199-5.702,2.2-8.837v-33.973    c0.309-0.295,0.625-0.579,0.929-0.883l4.721-4.721l27.663,27.663c3.66,3.659,8.467,5.489,13.274,5.489s9.615-1.83,13.275-5.49    c7.318-7.32,7.318-19.229,0-26.548l-27.875-27.875c0.273-0.325,0.554-0.646,0.821-0.974h34.507    c5.014-0.002,9.727-1.954,13.271-5.499l13.396-13.396c7.127,3.909,16.278,2.848,22.313-3.182    c3.545-3.546,5.498-8.261,5.498-13.274c0-5.015-1.953-9.729-5.498-13.273l-9.565-9.566c-7.318-7.319-19.229-7.316-26.549,0.001    l-20.645,20.646h-10.999c0.687-5.955,0.647-11.975-0.123-17.922c2.959-1.842,5.709-4.014,8.201-6.506    c8.642-8.643,13.401-20.133,13.401-32.354c0-1.37-0.069-2.73-0.187-4.079c13.706-1.494,26.403-7.545,36.293-17.434    c2.929-2.93,2.929-7.678,0-10.607c-2.93-2.928-7.678-2.928-10.607,0c-7.973,7.974-18.369,12.635-29.526,13.319    c-2.248-4.982-5.393-9.573-9.373-13.553c-4.032-4.032-8.638-7.143-13.555-9.353c0.68-11.165,5.342-21.569,13.321-29.547    c2.929-2.93,2.929-7.678,0-10.607c-2.93-2.928-7.678-2.928-10.607,0c-9.894,9.894-15.946,22.6-17.436,36.313    c-13.035-1.156-26.474,3.237-36.43,13.193c-2.481,2.481-4.648,5.22-6.486,8.166c-3.125-0.403-6.292-0.627-9.495-0.627    c-2.846,0-5.662,0.181-8.448,0.499v-10.958l20.646-20.645c3.545-3.546,5.498-8.261,5.498-13.274c0-5.015-1.953-9.729-5.498-13.274    l-9.565-9.565c-7.319-7.319-19.229-7.316-26.549,0.001c-6.031,6.032-7.092,15.184-3.181,22.312l-13.398,13.396    c-3.544,3.545-5.496,8.258-5.498,13.274v34.504c-0.33,0.268-0.653,0.543-0.979,0.817l-27.871-27.87    c-3.545-3.546-8.26-5.499-13.274-5.499c-5.014,0-9.729,1.953-13.274,5.498c-7.318,7.319-7.318,19.229,0.001,26.549l27.663,27.662    l-4.722,4.721c-0.304,0.304-0.588,0.62-0.884,0.93H90.681c-5.013,0-9.727,1.952-13.274,5.498L64.01,295.008    c-7.128-3.914-16.278-2.85-22.313,3.181c-3.545,3.546-5.498,8.261-5.498,13.274c0,5.015,1.953,9.729,5.499,13.275l9.564,9.563    c3.545,3.546,8.26,5.499,13.274,5.499c5.014,0,9.729-1.953,13.274-5.499l20.645-20.646h11.205    c0.011,7.398,1.534,14.79,4.541,21.684c-12.235,13.285-11.916,34.044,0.97,46.93l7.929,7.93c6.61,6.609,15.293,9.915,23.976,9.915    c8.463,0,16.92-3.149,23.464-9.428c6.399,2.533,13.184,3.811,19.973,3.821v11.205l-16.612,16.612H24.58    c-5.282,0-9.58-4.297-9.58-9.579V217.261c0-4.143-3.357-7.5-7.5-7.5s-7.5,3.357-7.5,7.5v195.486    c0,13.553,11.026,24.579,24.58,24.579h139.945c-0.093,0.761-0.156,1.529-0.156,2.308c0,5.014,1.953,9.729,5.499,13.274    l9.564,9.563c3.545,3.546,8.26,5.499,13.274,5.499c5.014,0,9.729-1.953,13.274-5.499c6.03-6.031,7.091-15.181,3.181-22.311    l2.835-2.835h168.741c4.143,0,7.5-3.357,7.5-7.5S384.881,422.326,380.738,422.326z M162.809,368.026l-8.384-8.384l95.319-95.318    c17.894,22.799,16.357,55.983-4.64,76.979l-26.724,26.724C203.061,383.348,178.13,383.35,162.809,368.026z M277.313,390.969    c-1.472,1.474-3.865,1.472-5.335,0l-27.663-27.663l5.334-5.334l27.664,27.664C278.784,387.105,278.784,389.498,277.313,390.969z     M290.701,323.633c1.989,0,3.896-0.79,5.304-2.197l22.841-22.842c1.472-1.47,3.864-1.471,5.336-0.001l9.565,9.566    c0.961,0.961,1.104,2.083,1.104,2.667c0,0.583-0.144,1.706-1.104,2.667c-1.471,1.471-3.866,1.471-5.335,0l-1.595-1.595    c-1.407-1.406-3.314-2.196-5.304-2.196s-3.896,0.79-5.304,2.197l-18.173,18.173c-0.712,0.713-1.66,1.105-2.667,1.105h-25.125    c1.151-2.467,2.147-4.988,3.008-7.545H290.701z M230.573,230.104c11.991-11.992,31.503-11.992,43.494,0    c5.809,5.809,9.008,13.532,9.008,21.747s-3.199,15.938-9.009,21.747c-0.467,0.467-0.958,0.903-1.45,1.337    c-3.539-9.665-9.162-18.731-16.905-26.475c-7.618-7.617-16.624-13.336-26.442-16.945    C229.693,231.036,230.118,230.558,230.573,230.104z M239.052,253.8l-95.235,95.234l-7.673-7.673    c-15.321-15.321-15.321-40.25-0.001-55.571l26.725-26.724c10.982-10.982,25.585-17.032,41.118-17.032    C216.816,242.034,229.006,246.173,239.052,253.8z M172.992,208.803c0-1.01,0.393-1.958,1.104-2.67l18.174-18.173    c1.407-1.407,2.197-3.314,2.197-5.304s-0.79-3.896-2.196-5.304l-1.595-1.595c-1.471-1.471-1.471-3.863-0.001-5.334    c1.471-1.471,3.866-1.471,5.335,0l9.566,9.565c0.961,0.961,1.104,2.083,1.104,2.667c0,0.583-0.144,1.706-1.104,2.667    l-22.843,22.842c-1.407,1.407-2.197,3.314-2.197,5.304v17.407c-2.569,0.867-5.09,1.864-7.545,3.013V208.803z M113.201,232.192    c-1.471-1.472-1.471-3.864,0-5.335c0.961-0.962,2.084-1.105,2.667-1.105c0.584,0,1.706,0.144,2.668,1.105L146.2,254.52    l-5.335,5.335L113.201,232.192z M95.35,298.656c-1.989,0-3.896,0.79-5.304,2.197l-22.842,22.842    c-0.961,0.962-2.084,1.105-2.667,1.105c-0.584,0-1.706-0.144-2.668-1.105l-9.564-9.564c-1.472-1.471-1.472-3.864-0.001-5.335    s3.866-1.471,5.335,0l1.595,1.595c1.407,1.406,3.314,2.196,5.304,2.196s3.896-0.79,5.304-2.197l18.171-18.172    c0.714-0.713,1.661-1.105,2.669-1.105h23.825c-1.113,2.456-2.032,4.978-2.761,7.544H95.35z M133.708,379.594l-7.928-7.93    c-6.152-6.151-7.15-15.513-3.035-22.73c0.89,1.036,1.81,2.054,2.791,3.035l26.665,26.665c1.4,1.4,2.862,2.701,4.371,3.917    C149.338,386.754,139.898,385.781,133.708,379.594z M195.374,451.865c-0.961,0.962-2.084,1.105-2.667,1.105    c-0.584,0-1.706-0.144-2.668-1.105l-9.564-9.564c-0.962-0.961-1.105-2.084-1.105-2.667c0-0.584,0.144-1.706,1.105-2.667    l22.843-22.843c1.406-1.407,2.196-3.314,2.196-5.304v-16.395c2.566-0.729,5.089-1.648,7.545-2.761v23.822    c0,1.01-0.393,1.958-1.105,2.67l-18.174,18.174c-1.406,1.407-2.196,3.315-2.196,5.305s0.791,3.897,2.198,5.304l1.593,1.592    C196.845,448.001,196.845,450.396,195.374,451.865z"/>
		<path id="XMLID_281_" d="M487.42,44.029H262.262c-4.143,0-7.5,3.357-7.5,7.5s3.357,7.5,7.5,7.5H487.42    c5.282,0,9.58,4.298,9.58,9.58v49.388H15V68.609c0-5.282,4.298-9.58,9.58-9.58h203.158c4.143,0,7.5-3.357,7.5-7.5    s-3.357-7.5-7.5-7.5H24.58C11.026,44.029,0,55.056,0,68.609v114.129c0,4.143,3.357,7.5,7.5,7.5s7.5-3.357,7.5-7.5v-49.741h482    v279.75c0,5.282-4.298,9.579-9.58,9.579h-72.158c-4.143,0-7.5,3.357-7.5,7.5s3.357,7.5,7.5,7.5h72.158    c13.554,0,24.58-11.026,24.58-24.579V68.609C512,55.056,500.974,44.029,487.42,44.029z"/>
		<path id="XMLID_282_" d="M96.013,88.441c0,4.143,3.357,7.5,7.5,7.5h0.094c4.143,0,7.453-3.357,7.453-7.5s-3.404-7.5-7.547-7.5    S96.013,84.299,96.013,88.441z"/>
		<path id="XMLID_283_" d="M71.534,88.513c0,4.143,3.357,7.5,7.5,7.5h0.095c4.143,0,7.453-3.357,7.453-7.5s-3.405-7.5-7.548-7.5    S71.534,84.37,71.534,88.513z"/>
		<path id="XMLID_284_" d="M47.057,88.584c0,4.143,3.357,7.5,7.5,7.5h0.094c4.143,0,7.453-3.357,7.453-7.5s-3.404-7.5-7.547-7.5    S47.057,84.441,47.057,88.584z"/>
		<path id="XMLID_285_" d="M149.253,81.084c-4.143,0-7.5,3.357-7.5,7.5s3.357,7.5,7.5,7.5h26.028c4.143,0,7.5-3.357,7.5-7.5    s-3.357-7.5-7.5-7.5H149.253z"/>
		<path id="XMLID_286_" d="M396.086,192.106c0.026,0,0.052,0,0.078,0c4.105,0,7.456-3.308,7.498-7.424    c0.042-4.142-3.281-7.533-7.424-7.576l-0.096-0.001c-0.026,0-0.052,0-0.078,0c-4.105,0-7.408,3.309-7.45,7.424    C388.572,188.671,391.943,192.063,396.086,192.106z"/>
		<path id="XMLID_287_" d="M421,192.178c4.143,0,7.5-3.357,7.5-7.5s-3.357-7.5-7.5-7.5h-0.096c-4.143,0-7.452,3.357-7.452,7.5    S416.857,192.178,421,192.178z"/>
		<path id="XMLID_288_" d="M453.338,184.75c0-4.143-3.357-7.5-7.5-7.5h-0.095c-4.143,0-7.452,3.357-7.452,7.5s3.404,7.5,7.547,7.5    S453.338,188.893,453.338,184.75z"/>
		<path id="XMLID_289_" d="M420.904,228.2h24.839c4.143,0,7.5-3.357,7.5-7.5s-3.357-7.5-7.5-7.5h-24.839c-4.143,0-7.5,3.357-7.5,7.5    S416.762,228.2,420.904,228.2z"/>
		<path id="XMLID_290_" d="M396.066,259.351h49.677c4.143,0,7.5-3.357,7.5-7.5s-3.357-7.5-7.5-7.5h-49.677    c-4.143,0-7.5,3.357-7.5,7.5S391.924,259.351,396.066,259.351z"/>
		<path id="XMLID_291_" d="M453.243,283.001c0-4.143-3.357-7.5-7.5-7.5h-49.677c-4.143,0-7.5,3.357-7.5,7.5s3.357,7.5,7.5,7.5    h49.677C449.886,290.501,453.243,287.144,453.243,283.001z"/>
	</g>
</g>















</svg>
