<?xml version="1.0" encoding="iso-8859-1"?>
<!-- Generator: Adobe Illustrator 19.0.0, SVG Export Plug-In . SVG Version: 6.00 Build 0)  -->
<svg version="1.1" id="Layer_1" xmlns="http://www.w3.org/2000/svg" xmlns:xlink="http://www.w3.org/1999/xlink" x="0px" y="0px"
	 viewBox="0 0 512.001 512.001" style="enable-background:new 0 0 512.001 512.001;" xml:space="preserve">
<path d="M257.732,68.937c-6.344,0-11.487-5.143-11.487-11.487s5.143-11.493,11.487-11.493s11.487,5.137,11.487,11.482v0.013
	C269.219,63.794,264.076,68.937,257.732,68.937z"/>
<path d="M131.512,192.445c-0.03,0-0.059,0-0.088,0c-6.343-0.048-11.448-5.229-11.4-11.574c0.275-36.331,14.51-70.3,40.082-95.648
	c14.58-14.452,31.745-25.154,51.018-31.807c5.998-2.072,12.537,1.113,14.607,7.11c2.07,5.996-1.113,12.537-7.11,14.607
	c-15.986,5.519-30.23,14.404-42.34,26.407c-21.233,21.047-33.053,49.282-33.282,79.505
	C142.95,187.358,137.817,192.445,131.512,192.445z"/>
<path style="fill:#0071AB;" d="M333.93,399.481h-155.86c-14.059,0-25.456-11.397-25.456-25.456l0,0
	c0-14.059,11.397-25.456,25.456-25.456h155.86c14.059,0,25.456,11.397,25.456,25.456l0,0
	C359.386,388.084,347.989,399.481,333.93,399.481z"/>
<path style="fill:#FFD355;" d="M258.354,11.504C163.43,10.219,86.282,85.678,85.563,180.609
	c-0.358,47.3,18.554,90.181,49.354,121.265c15.405,15.547,27.452,30.934,35.836,47.767c2.318-0.694,4.772-1.072,7.315-1.072h155.86
	c2.58,0,5.071,0.387,7.417,1.102c8.49-16.973,20.681-32.49,36.174-48.24c30.254-30.757,48.921-72.947,48.921-119.501
	C426.441,88.584,351.402,12.764,258.354,11.504z"/>
<path style="fill:#009EDB;" d="M333.93,450.393h-155.86c-14.059,0-25.456-11.397-25.456-25.456l0,0
	c0-14.059,11.397-25.456,25.456-25.456h155.86c14.059,0,25.456,11.397,25.456,25.456l0,0
	C359.386,438.996,347.989,450.393,333.93,450.393z"/>
<polygon style="fill:#00CFA6;" points="312.862,500.513 199.137,500.513 187.65,450.393 324.349,450.393 "/>
<polygon style="fill:#FF9013;" points="284.274,348.569 227.725,348.569 181.775,223.095 330.224,223.095 "/>
<path d="M437.929,181.93c0-48.157-18.632-93.551-52.464-127.816c-33.8-34.233-78.887-53.445-126.955-54.096
	c-49.016-0.672-95.167,17.727-129.952,51.785c-34.763,34.036-54.111,79.749-54.482,128.719c-0.37,48.81,18.34,94.777,52.681,129.438
	c12.212,12.325,21.41,23.708,28.366,35.144c-8.519,6.774-13.996,17.216-13.996,28.921c0,9.861,3.891,18.824,10.209,25.456
	c-6.318,6.632-10.209,15.595-10.209,25.456c0,20.371,16.573,36.943,36.943,36.943h0.428l9.443,41.199
	c1.197,5.22,5.841,8.921,11.197,8.921h113.725c5.355,0,10.001-3.701,11.197-8.921l9.443-41.199h0.428
	c20.371,0,36.943-16.573,36.943-36.943c0-9.861-3.891-18.824-10.209-25.456c6.318-6.632,10.209-15.595,10.209-25.456
	c0-11.662-5.437-22.072-13.903-28.847c7.02-11.525,16.338-23.085,28.74-35.691C419.384,275.252,437.929,229.952,437.929,181.93z
	 M256,281.123c-6.344,0-11.487,5.143-11.487,11.487v44.471h-8.761l-37.536-102.5h115.568l-37.536,102.5h-8.761v-44.471
	C267.487,286.266,262.344,281.123,256,281.123z M227.725,360.056h56.551h49.655c0.432,0,0.857,0.026,1.279,0.064
	c0.119,0.01,0.239,0.025,0.357,0.039c0.327,0.038,0.651,0.088,0.972,0.148c0.1,0.018,0.2,0.034,0.299,0.055
	c6.311,1.342,11.062,6.954,11.062,13.66c0,7.702-6.266,13.969-13.969,13.969h-155.86c-7.702,0-13.969-6.266-13.969-13.969
	c0-6.706,4.752-12.32,11.065-13.661c0.105-0.022,0.21-0.038,0.315-0.057c0.314-0.059,0.631-0.108,0.951-0.146
	c0.123-0.015,0.246-0.029,0.369-0.04c0.418-0.038,0.841-0.064,1.269-0.064h49.654V360.056z M303.71,489.026h-95.42l-6.222-27.146
	h107.863L303.71,489.026z M333.93,438.907h-9.58H187.65h-9.58c-7.702,0-13.969-6.266-13.969-13.969
	c0-7.702,6.266-13.969,13.969-13.969h155.86c7.702,0,13.969,6.266,13.969,13.969C347.898,432.64,341.632,438.907,333.93,438.907z
	 M335.052,337.099c-0.373-0.011-0.748-0.017-1.122-0.017h-33.214l40.296-110.037c1.29-3.523,0.779-7.454-1.37-10.529
	c-2.149-3.075-5.664-4.907-9.416-4.907h-148.45c-3.752,0-7.268,1.832-9.416,4.907s-2.66,7.006-1.37,10.529l40.296,110.037h-33.215
	c-0.331,0-0.662,0.005-0.993,0.014c-8.171-14.362-19.137-28.305-34-43.306c-30.005-30.282-46.351-70.446-46.027-113.093
	c0.325-42.808,17.223-82.753,47.582-112.476c30.383-29.748,70.708-45.81,113.568-45.229c86.434,1.171,156.754,72.47,156.754,158.939
	c0,41.956-16.203,81.535-45.623,111.444C354.319,308.637,343.262,322.716,335.052,337.099z"/>
<path d="M256,266.19c-0.747,0-1.505-0.08-2.24-0.23s-1.459-0.368-2.148-0.655c-0.701-0.287-1.367-0.643-1.987-1.057
	c-0.632-0.414-1.218-0.896-1.746-1.424s-1.011-1.114-1.424-1.746c-0.414-0.62-0.77-1.287-1.057-1.987
	c-0.287-0.689-0.517-1.413-0.655-2.148c-0.149-0.735-0.23-1.493-0.23-2.24c0-0.747,0.08-1.505,0.23-2.252
	c0.138-0.724,0.368-1.447,0.655-2.148c0.287-0.689,0.643-1.355,1.057-1.976c0.414-0.632,0.896-1.218,1.424-1.746
	s1.114-1.011,1.746-1.436c0.62-0.414,1.287-0.758,1.987-1.045c0.689-0.287,1.413-0.517,2.148-0.655
	c3.733-0.758,7.697,0.471,10.362,3.136c0.528,0.528,1.011,1.114,1.424,1.746c0.414,0.62,0.77,1.287,1.057,1.976
	c0.287,0.701,0.517,1.424,0.655,2.148c0.149,0.747,0.23,1.505,0.23,2.252c0,0.747-0.08,1.505-0.23,2.24
	c-0.138,0.735-0.368,1.459-0.655,2.148c-0.287,0.701-0.643,1.367-1.057,1.987c-0.414,0.632-0.896,1.218-1.424,1.746
	C261.984,264.961,259.021,266.19,256,266.19z"/>
<g>
</g>
<g>
</g>
<g>
</g>
<g>
</g>
<g>
</g>
<g>
</g>
<g>
</g>
<g>
</g>
<g>
</g>
<g>
</g>
<g>
</g>
<g>
</g>
<g>
</g>
<g>
</g>
<g>
</g>
</svg>
