<?xml version="1.0" encoding="iso-8859-1"?>
<!-- Generator: Adobe Illustrator 19.0.0, SVG Export Plug-In . SVG Version: 6.00 Build 0)  -->
<svg version="1.1" id="Capa_1" xmlns="http://www.w3.org/2000/svg" xmlns:xlink="http://www.w3.org/1999/xlink" x="0px" y="0px"
	 viewBox="0 0 512.003 512.003" style="enable-background:new 0 0 512.003 512.003;" xml:space="preserve">
<path style="fill:#FFDECC;" d="M410.446,87l-56.326,23.896L243.176,324.251h-51.205v25.603h-8.534v162.15h119.479v-93.876
	c0-9.388,7.681-17.068,17.068-17.068h93.876c9.388,0,17.068-7.681,17.068-17.068v-76.808c0-9.388,7.681-17.068,17.068-17.068h34.137
	c9.388,0,17.068-7.681,17.068-17.068c0-2.56,0-4.267-0.853-5.974l-24.749-61.446c0-0.853,0-0.853,0-1.707l-15.362-63.153
	c-0.853-2.56-1.707-5.121-4.267-7.681L410.446,87z"/>
<g>
	<path style="fill:#E69C5A;" d="M285.847,145.033c0,69.127-51.205,127.159-119.479,135.694v34.99h25.603v8.534h51.205
		L354.12,110.896L410.446,87l-42.671-46.938c-3.414-4.267-7.681-5.974-12.801-5.974H228.668
		C264.511,59.691,285.847,100.655,285.847,145.033z"/>
	<polygon style="fill:#E69C5A;" points="166.368,315.716 132.231,315.716 106.629,315.716 106.629,349.853 115.163,349.853 
		183.437,349.853 191.971,349.853 191.971,324.251 191.971,315.716 	"/>
</g>
<path style="fill:#FFDECC;" d="M166.368,280.726c-1.707,0-4.267,0.853-5.974,0.853c-4.267,0-7.681,0-11.094,0
	c-3.414,0-6.827,0-11.094-0.853c-1.707,0-4.267,0-5.974-0.853v35.844h34.137V280.726z"/>
<path style="fill:#E69C5A;" d="M115.163,469.332c0,18.775,15.362,34.137,34.137,34.137s34.137-15.362,34.137-34.137V349.853h-68.273
	C115.163,349.853,115.163,469.332,115.163,469.332z"/>
<path style="fill:#FFDECC;" d="M132.231,280.726L132.231,280.726c1.707,0,4.267,0.853,5.974,0.853c3.414,0,6.827,0.853,11.094,0.853
	c4.267,0,6.827,0,11.094-0.853c1.707,0,4.267,0,5.974-0.853l0,0c75.101-9.388,128.013-77.661,118.625-151.909
	c-5.121-37.55-24.749-71.687-56.326-93.876l0,0C167.222-9.436,81.88,4.219,38.355,65.665S8.486,212.453,69.932,255.977
	C87.854,268.778,110.043,277.313,132.231,280.726z M149.3,42.623c56.326,0,102.41,46.085,102.41,102.41
	s-46.085,102.41-102.41,102.41S46.89,201.358,46.89,145.033S92.974,42.623,149.3,42.623z"/>
<path style="fill:#98CDF4;" d="M149.3,247.443c56.326,0,102.41-46.085,102.41-102.41S205.625,42.623,149.3,42.623
	S46.89,88.707,46.89,145.033S92.974,247.443,149.3,247.443z"/>
<path d="M123.697,287.554v19.629h-17.068c-5.121,0-8.534,3.414-8.534,8.534v34.137c0,5.121,3.414,8.534,8.534,8.534v110.944
	c0,23.896,18.775,42.671,42.671,42.671s42.671-18.775,42.671-42.671V358.387c5.121,0,8.534-3.414,8.534-8.534v-17.068h42.671
	c3.414,0,5.974-1.707,7.681-4.267l109.238-210.794l48.645-20.482l38.404,41.818c0.853,0.853,1.707,2.56,1.707,3.414l15.362,63.153
	c0,0.853,0.853,2.56,0.853,3.414l24.749,60.593c1.707,4.267,0,9.388-5.12,11.094c0,0.853-0.853,0.853-2.56,0.853h-34.137
	c-14.508,0-25.603,11.094-25.603,25.603v76.808c0,5.121-3.414,8.534-8.534,8.534h-93.876c-14.508,0-25.603,11.094-25.603,25.603
	v93.876h17.068v-93.876c0-5.121,3.414-8.534,8.534-8.534h93.876c14.508,0,25.603-11.094,25.603-25.603v-76.808
	c0-5.12,3.414-8.534,8.534-8.534h34.137c14.508,0,25.603-11.094,25.603-25.603c0-3.414-0.853-6.827-1.707-9.388l-23.896-60.593
	v-0.853l-15.362-63.153c-0.853-4.267-3.414-7.681-5.974-11.094l-87.049-93.876c-5.121-5.121-11.948-8.534-18.775-8.534H231.228
	C165.515-19.677,75.052-3.462,29.821,63.105S0.805,219.28,67.372,264.511C84.44,276.459,103.215,284.14,123.697,287.554z
	 M140.766,289.26c2.56,0,5.974,0.853,8.534,0.853c2.56,0,5.974,0,8.534-0.853v17.922h-17.068V289.26z M115.163,324.251h68.273
	v17.068h-68.273C115.163,341.319,115.163,324.251,115.163,324.251z M174.902,469.332c0,14.508-11.094,25.603-25.603,25.603
	c-14.508,0-25.603-11.094-25.603-25.603V358.387h51.205V469.332z M361.801,45.183l34.99,38.404l-45.231,19.629
	c-1.707,0.853-3.414,2.56-4.267,4.267L238.055,315.716h-37.55c0-5.12-3.414-8.534-8.534-8.534h-17.068v-19.629
	c78.514-13.655,131.426-89.609,116.918-168.123c-5.12-29.016-19.629-56.326-40.111-76.808h103.264
	C357.534,42.623,360.094,43.476,361.801,45.183z M149.3,17.02c70.834,0,128.013,57.179,128.013,128.013
	S220.134,273.046,149.3,273.046S21.287,215.866,21.287,145.033S78.466,17.02,149.3,17.02z"/>
<path d="M149.3,255.977c61.446,0,110.944-49.498,110.944-110.944S210.746,34.088,149.3,34.088S38.355,83.587,38.355,145.033
	S87.854,255.977,149.3,255.977z M149.3,51.157c52.059,0,93.876,41.818,93.876,93.876s-41.818,93.876-93.876,93.876
	s-93.876-41.818-93.876-93.876S97.241,51.157,149.3,51.157z"/>
<path d="M206.479,202.212c31.576-31.577,31.576-82.782,0-114.358l-11.948,11.948c24.749,24.749,24.749,65.713,0,90.462
	L206.479,202.212z"/>
<rect x="174.033" y="200.503" transform="matrix(-0.8944 0.4472 -0.4472 -0.8944 440.96 313.9777)" width="18.775" height="17.068"/>
<rect x="319.984" y="349.853" width="85.342" height="17.068"/>
<g>
</g>
<g>
</g>
<g>
</g>
<g>
</g>
<g>
</g>
<g>
</g>
<g>
</g>
<g>
</g>
<g>
</g>
<g>
</g>
<g>
</g>
<g>
</g>
<g>
</g>
<g>
</g>
<g>
</g>
</svg>
