<svg width="301" height="117" viewBox="0 0 301 117" fill="none" xmlns="http://www.w3.org/2000/svg">
<rect x="0.5" y="0.5" width="300" height="116" rx="26.5" fill="#F0F0E8" stroke="#413000"/>
<path d="M186.136 85.0266L170.586 69.5499C170.373 69.3381 170.121 69.17 169.843 69.0553C169.566 68.9406 169.268 68.8816 168.967 68.8816C168.666 68.8816 168.369 68.9406 168.091 69.0553C167.813 69.17 167.561 69.3381 167.348 69.5499L164.117 72.7672L168.211 76.8433C168.694 76.6781 169.213 76.6516 169.711 76.7667C170.208 76.8819 170.662 77.134 171.022 77.4944C171.382 77.8547 171.633 78.3087 171.746 78.8044C171.859 79.3001 171.829 79.8174 171.661 80.2971L175.605 84.2301C176.194 84.0279 176.835 84.0328 177.421 84.2441C178.007 84.4554 178.502 84.8603 178.825 85.3912C179.147 85.9221 179.277 86.5471 179.193 87.1619C179.109 87.7766 178.815 88.3441 178.362 88.7696C177.908 89.1952 177.322 89.4532 176.701 89.5005C176.079 89.5479 175.461 89.3818 174.947 89.0299C174.434 88.678 174.057 88.1616 173.88 87.5667C173.703 86.9719 173.736 86.3345 173.973 85.7609L170.292 82.0956V91.7413C170.559 91.8694 170.802 92.042 171.011 92.2515C171.394 92.6315 171.655 93.1161 171.761 93.6438C171.867 94.1716 171.813 94.7188 171.607 95.2163C171.401 95.7137 171.051 96.139 170.601 96.4382C170.152 96.7374 169.623 96.8971 169.083 96.8971C168.542 96.8971 168.014 96.7374 167.564 96.4382C167.115 96.139 166.765 95.7137 166.559 95.2163C166.352 94.7188 166.299 94.1716 166.405 93.6438C166.511 93.1161 166.772 92.6315 167.155 92.2515C167.41 91.9968 167.714 91.7958 168.048 91.6604V81.9524C167.714 81.817 167.41 81.616 167.155 81.3612C166.772 80.98 166.513 80.4944 166.408 79.9659C166.303 79.4374 166.359 78.8899 166.567 78.3929L162.53 74.3728L151.904 84.983C151.476 85.4122 151.235 85.9927 151.235 86.5979C151.235 87.2031 151.476 87.7837 151.904 88.2128L167.43 103.665C167.861 104.091 168.444 104.331 169.052 104.331C169.659 104.331 170.242 104.091 170.673 103.665L186.149 88.2626C186.577 87.8335 186.818 87.2529 186.818 86.6477C186.818 86.0425 186.577 85.4619 186.149 85.0328" fill="#F05133"/>
<path d="M210.637 62.3871C206.887 62.3871 204.112 64.2166 204.112 68.6101C204.112 71.927 205.943 74.2108 210.437 74.2108C214.237 74.2108 216.824 71.9768 216.824 68.4545C216.824 64.4593 214.512 62.3622 210.637 62.3622V62.3871ZM203.137 93.4649C202.249 94.5477 201.368 95.6928 201.368 97.0494C201.368 99.7564 204.837 100.572 209.593 100.572C213.537 100.572 218.912 100.298 218.912 96.6449C218.912 94.473 216.324 94.3424 213.062 94.1557L203.137 93.4836V93.4649ZM223.262 62.5924C224.87 64.5146 225.755 66.9357 225.762 69.4378C225.762 76.949 219.849 81.3487 211.287 81.3487C209.476 81.3682 207.67 81.1591 205.912 80.7264L203.68 84.3233L210.343 84.7278C222.105 85.4745 229.037 85.8106 229.037 94.8153C229.037 102.6 222.162 107 210.343 107C198.036 107 193.343 103.889 193.343 98.5367C193.343 95.4874 194.705 93.8694 197.093 91.6291C196.179 91.3042 195.394 90.6948 194.855 89.8912C194.315 89.0876 194.05 88.1324 194.099 87.1672C194.099 85.6737 194.843 84.3233 196.074 83.0351C197.305 81.7469 198.655 80.465 200.286 78.9715C196.955 77.3472 194.436 73.825 194.436 68.8155C194.436 61.0305 199.605 55.6849 210.005 55.6849C212.11 55.6277 214.213 55.8559 216.255 56.3632H229.518V62.1195L223.268 62.5924" fill="#413000"/>
<path d="M241.506 50.2896C237.631 50.2896 235.387 48.0493 235.387 44.191C235.387 40.3328 237.631 38.2356 241.506 38.2356C245.381 38.2356 247.693 40.339 247.693 44.191C247.693 48.0431 245.45 50.2896 241.506 50.2896ZM232.756 90.9696V85.624L236.224 85.1511C237.181 85.0142 237.312 84.815 237.312 83.7944V63.9056C237.312 63.1651 237.112 62.661 236.431 62.4868L232.756 61.1986L233.506 55.7161H247.556V83.8193C247.556 84.9084 247.618 85.0639 248.643 85.1822L252.112 85.6489V90.9945H232.737" fill="#413000"/>
<path d="M279 88.3494C275.538 90.022 271.759 90.9447 267.912 91.0565C259.825 91.0565 256.762 87.808 256.762 80.1537V62.418C256.762 62.0135 256.762 61.7397 256.218 61.7397H251.462V55.7158C257.431 55.0375 259.825 52.0816 260.556 44.6824H267.019V54.297C267.019 54.7699 267.019 54.9753 267.562 54.9753H277.15V61.7397H267.031V77.9196C267.031 81.9148 267.981 83.4706 271.656 83.4706C273.541 83.432 275.405 83.0656 277.163 82.3878L279 88.3494Z" fill="#413000"/>
<path d="M112.236 82.7544C112.283 83.7444 112.423 84.7279 112.655 85.6917C112.792 86.4479 113.088 87.1667 113.524 87.8013C112.884 88.3949 112.186 88.9244 111.442 89.3819C110.455 90.0116 109.387 90.5056 108.267 90.8506C107.056 91.2327 105.786 91.3991 104.517 91.3422C103.59 91.3163 102.682 91.0783 101.863 90.6466C101.043 90.215 100.335 89.6012 99.7921 88.853C98.5557 87.1713 97.8981 85.137 97.9171 83.0531V73.0962C97.9191 72.2277 97.7043 71.3724 97.292 70.607C97.1579 70.2812 96.9577 69.9864 96.7039 69.7412C96.4501 69.496 96.1482 69.3056 95.817 69.1819C95.0608 68.9268 94.4295 69.3811 93.942 70.5323C93.842 70.7875 93.5107 71.3973 92.9545 72.3993C92.3982 73.4012 91.7857 74.5213 91.0795 75.8219C90.3732 77.1225 89.7669 78.4356 89.2044 79.7424C88.7011 80.8164 88.3075 81.9381 88.0294 83.0904C87.8294 84.0177 87.9544 84.584 88.4107 84.7831C88.0851 85.531 87.7179 86.2602 87.3106 86.9674C86.6951 88.0011 85.8066 88.847 84.7419 89.413C83.5544 90.0913 81.8793 90.3589 79.7418 90.2034C78.5793 90.1038 77.0918 89.4027 75.2792 88.1C73.4667 86.7973 71.7271 84.4118 70.0604 80.9435C68.4979 77.6245 67.2249 75.378 66.2416 74.2039C65.2583 73.0298 64.5395 72.4905 64.0853 72.586C63.8686 72.6286 63.6671 72.7276 63.5013 72.873C63.3355 73.0184 63.2114 73.2049 63.1416 73.4136C62.8657 74.0952 62.6564 74.8017 62.5166 75.5232C62.3941 76.2697 62.3439 77.0261 62.3665 77.7822C62.3665 78.8339 62.4166 80.0162 62.5166 81.3231C62.6091 82.564 62.7992 83.7958 63.0853 85.0071C63.2711 85.95 63.6429 86.8468 64.1791 87.6457C63.7791 87.8946 63.0603 88.324 62.029 88.9276C60.917 89.5648 59.7524 90.1061 58.5477 90.5456C57.3504 91.0044 56.0805 91.2468 54.7977 91.2613C53.1659 91.2703 51.5747 90.7553 50.2601 89.7926C49.0476 88.8633 48.3163 87.0172 48.0663 84.2541C48.0163 83.8061 47.9913 82.5262 47.9913 80.4145V51.1351C47.9913 47.5175 48.0038 44.1985 48.0288 41.1783C48.0538 38.158 48.0663 34.8391 48.0663 31.2214C48.9952 31.1083 49.9328 31.0833 50.8664 31.1467C52.318 31.2214 53.7596 31.4297 55.1727 31.769C56.6915 32.1014 58.1473 32.6728 59.4853 33.4617C60.7571 34.1937 61.7237 35.3549 62.2103 36.735C63.1686 38.5978 64.0499 40.2676 64.8541 41.7446C65.6583 43.2215 66.5291 44.8146 67.4666 46.5239C68.4 48.2373 69.3062 49.9196 70.1854 51.5707C71.0667 53.2261 71.8542 54.6823 72.5292 55.9269C73.2042 57.1715 73.6792 58.0614 73.9292 58.5592C74.5344 59.7204 75.3725 60.7456 76.3917 61.5712C77.1299 62.1106 78.009 62.4261 78.923 62.4797C80.7856 62.4797 82.5752 61.0484 84.2919 58.1858C84.5419 57.7295 85.046 56.7628 85.8044 55.2859C86.5627 53.809 87.4461 52.0395 88.4544 49.9776C89.4628 47.9033 90.5045 45.7958 91.5795 43.655C92.6545 41.5143 93.6503 39.4939 94.567 37.5938C95.4712 35.7103 96.5129 33.5882 97.6921 31.2276C98.0421 31.1778 98.5608 31.1405 99.2421 31.1156C99.9876 31.0939 100.734 31.1313 101.473 31.2276C102.998 31.3502 104.506 31.6275 105.973 32.0553C107.488 32.4718 108.902 33.1894 110.13 34.1649C110.714 34.6305 111.195 35.2126 111.54 35.8738C111.886 36.535 112.089 37.2607 112.136 38.0045C112.236 38.8592 112.311 40.2531 112.361 42.1864C112.411 44.1197 112.436 46.4015 112.436 49.0318V57.4266C112.436 60.3888 112.424 63.2929 112.399 66.1389C112.374 68.9849 112.348 71.6214 112.323 74.0484C112.298 76.4587 112.286 78.4294 112.286 79.9602L112.236 82.7544Z" fill="#413000"/>
<path d="M143.848 47.066C144.339 46.9419 144.855 46.946 145.344 47.0779C145.833 47.2098 146.28 47.465 146.642 47.8189C147.59 48.6877 148.371 49.721 148.948 50.8682C149.619 52.1266 150.189 53.4354 150.654 54.7825C151.104 56.1143 151.584 57.6845 152.092 59.4934C149.996 59.8693 147.933 60.4104 145.923 61.1114C144.072 61.8012 142.33 62.7505 140.748 63.9304C139.692 64.7269 138.728 65.6368 137.873 66.6436C136.874 67.8503 136.082 69.2128 135.529 70.6762C134.77 72.7493 134.287 74.9126 134.092 77.1108C133.938 78.512 133.913 79.9242 134.017 81.33C134.117 82.7862 134.167 84.0142 134.167 85.014C134.159 85.6776 134.3 86.3344 134.579 86.937L135.148 87.8766C134.064 88.7277 132.851 89.4019 131.554 89.8742C129.745 90.6154 127.804 90.9857 125.848 90.9633C123.829 90.9633 122.341 90.3409 121.385 89.0092C120.429 87.6775 119.948 85.8977 119.948 83.589C119.948 83.0351 119.948 81.8154 119.91 79.936C119.873 78.0567 119.86 75.779 119.835 73.1218C119.81 70.4646 119.785 67.7015 119.76 64.8389C119.735 61.9764 119.71 59.3004 119.685 56.8174C119.66 54.3345 119.623 51.5341 119.573 48.4226C120.435 48.2892 121.306 48.2144 122.179 48.1986C123.529 48.1528 124.88 48.2027 126.223 48.3479C127.632 48.4855 129.011 48.8403 130.31 49.3996C131.106 49.71 131.928 49.9495 132.767 50.1152C133.76 50.3368 134.774 50.4516 135.792 50.4575C136.539 50.5095 137.286 50.3521 137.948 50.0032C138.866 49.3217 139.841 48.718 140.86 48.1986C141.809 47.7084 142.812 47.3284 143.848 47.066V47.066Z" fill="#413000"/>
<path d="M44.2435 50.9278L47.7937 48.4034C48.2339 48.2669 49.3757 47.8 50.4214 47.0246C51.7284 46.0552 51.7194 45.682 52.4656 45.1015C53.2119 44.5209 55.2652 42.971 57.8973 41.7788C60.5294 40.5866 60.5249 40.4 61.642 39.4359C62.7591 38.4717 64.0842 38.2488 64.4641 38.2385C64.844 38.2281 66.5851 39.4878 67.7338 39.83C68.8825 40.1721 67.5799 41.3281 67.806 42.8158C68.032 44.3035 66.7114 44.713 65.7978 46.2318C64.8842 47.7506 63.5726 48.5333 63.0118 48.9221C62.451 49.3109 60.5651 49.9225 59.0907 51.8301C57.6162 53.7376 56.3002 54.3337 55.1785 55.1113C54.0569 55.8888 52.5464 56.3035 48.942 56.5885C45.3376 56.8735 46.0748 55.9197 45.4914 55.3754C45.0247 54.94 44.465 52.2289 44.2435 50.9278Z" fill="#F05133" stroke="black"/>
<path d="M63.6528 36.1275L63.8373 36.4505L64.1994 36.3663C66.4483 35.843 68.3478 35.7207 69.8266 35.9737C71.2994 36.2256 72.3158 36.8402 72.8908 37.7643C73.4967 38.7381 73.5814 39.9221 73.1936 41.2848C72.8037 42.6547 71.9442 44.1676 70.7216 45.7299C68.2784 48.852 64.4642 52.0715 60.4019 54.6074C56.3397 57.1434 51.7739 59.1551 47.8994 59.9769C45.9607 60.3881 44.2261 60.4946 42.8264 60.2418C41.4342 59.9903 40.4103 59.3926 39.8044 58.4188C39.2293 57.4947 39.1261 56.31 39.5491 54.8745C39.9739 53.4333 40.9202 51.7791 42.38 49.9871L42.615 49.6986L42.4068 49.3905C38.3838 43.4361 33.9353 37.6473 29.1933 32.2657L29.1931 32.2656C29.1806 32.2514 29.1351 32.1994 29.0878 32.1429C29.0641 32.1146 29.0417 32.0872 29.0235 32.0639C29.006 32.0416 28.9993 32.0318 28.9992 32.0319C28.9992 32.0319 28.9995 32.0323 29.0001 32.0332C28.7594 31.6464 28.8071 31.0575 29.3694 30.1729C29.916 29.313 30.8548 28.3337 32.0263 27.3136C34.3617 25.28 37.5053 23.1833 39.9136 21.6799C41.4069 20.7477 44.5963 18.7966 47.6385 17.4177C49.1639 16.7263 50.6201 16.1938 51.792 15.995C53.0142 15.7877 53.6877 15.9791 53.9725 16.3906C54.0025 16.4339 54.0301 16.4818 54.055 16.5349C56.8456 23.3042 60.0863 29.8823 63.6528 36.1275ZM65.6459 42.5479L65.7578 42.3037L65.6163 42.0755C65.3959 41.72 65.1943 41.3731 64.9887 41.0194C64.8342 40.7536 64.6774 40.4839 64.5088 40.2039L64.131 39.5764L63.6848 40.1577C62.7179 41.4171 61.131 42.7819 59.5363 43.9844C57.9501 45.1804 56.3912 46.1901 55.5077 46.7417C54.6241 47.2932 53.0325 48.2503 51.2617 49.1499C49.4816 50.0542 47.5593 50.88 46.0046 51.1947L45.2871 51.3399L45.683 51.9561C45.8597 52.231 46.0324 52.4907 46.2026 52.7467C46.429 53.0874 46.6512 53.4215 46.8728 53.7764L47.015 54.0041L47.2831 54.0111C47.6065 54.0195 48.0752 53.9321 48.639 53.7722C49.2171 53.6083 49.9379 53.3556 50.7833 53.0034C52.4749 52.2987 54.6825 51.1888 57.2698 49.5737C59.8571 47.9585 61.8242 46.4623 63.201 45.2515C63.889 44.6464 64.4331 44.1096 64.8346 43.662C65.2263 43.2253 65.511 42.8424 65.6459 42.5479ZM30.9134 30.2743L29.816 31.5239L31.4193 31.0874C33.3043 30.5742 37.1246 28.9274 42.3813 25.6458C47.6381 22.3642 50.7968 19.6543 52.0871 18.1853L53.1845 16.9358L51.5812 17.3723C49.6962 17.8854 45.8759 19.5322 40.6192 22.8138C35.3624 26.0954 32.2037 28.8052 30.9134 30.2743Z" fill="#050100" stroke="black"/>
</svg>
