<svg id="Layer_5" enable-background="new 0 0 64 64" height="512" viewBox="0 0 64 64" width="512" xmlns="http://www.w3.org/2000/svg"><g><g><g><path d="m40 43c-9.374 0-17-7.626-17-17s7.626-17 17-17 17 7.626 17 17-7.626 17-17 17zm0-29c-6.617 0-12 5.383-12 12s5.383 12 12 12 12-5.383 12-12-5.383-12-12-12z" fill="#f0bc5e"/></g></g><g><path d="m42.485 48.455c-1.401-.935-3.029-1.509-4.706-1.661l-7.901-.718-.322-2.252c1.296-.568 2.515-1.323 3.606-2.272-.664-.293-1.3-.635-1.917-1.008-2.081 1.588-4.605 2.456-7.245 2.456-6.617 0-12-5.383-12-12v-10h.597c4.093 0 8.112-1.324 11.404-3.741.33.241.675.472 1.029.697.319-.592.68-1.156 1.064-1.703-.515-.328-1.014-.669-1.469-1.033l-.625-.501-.625.5c-3.047 2.438-6.875 3.781-10.778 3.781h-2.597v2c-1.122 0-2.169.315-3.069.854-.602-1.47-.931-3.049-.931-4.639 0-6.735 5.48-12.215 12.215-12.215h8.135c-.222.627-.35 1.298-.35 2 0 2.483 1.516 4.618 3.67 5.529.74-.569 1.519-1.087 2.347-1.53-.006 0-.012 0-.018 0-2.206 0-4-1.794-4-4s1.794-4 4-4c4.047 0 7.636 2.431 9.189 6.06.758.053 1.507.137 2.234.286-1.576-4.942-6.178-8.345-11.422-8.345-1.771 0-3.36.776-4.46 2h-9.325c-7.838 0-14.215 6.377-14.215 14.215 0 2.069.482 4.119 1.354 5.994-.845 1.034-1.354 2.354-1.354 3.791 0 3.309 2.691 6 6 6h.16c.702 4.873 3.909 8.943 8.281 10.843l-.319 2.233-7.901.718c-1.677.152-3.305.727-4.706 1.661-2.827 1.885-4.515 5.038-4.515 8.436v6.109h46v-6.109c0-3.398-1.687-6.551-4.515-8.436zm-36.485-21.455c0-2.206 1.794-4 4-4v8c-2.206 0-4-1.794-4-4zm18 18c1.243 0 2.462-.168 3.635-.487l.313 2.188-3.948 4.737-3.947-4.737.314-2.196c1.161.313 2.375.495 3.633.495zm21 16h-6v-6h-2v6h-26v-6h-2v6h-6v-4.109c0-2.727 1.355-5.259 3.624-6.771 1.125-.75 2.431-1.211 3.777-1.333l8.166-.743 5.433 6.519 5.433-6.519 8.166.743c1.346.122 2.652.583 3.777 1.333 2.269 1.512 3.624 4.044 3.624 6.771z"/><path d="m21 26c0-1.654-1.346-3-3-3s-3 1.346-3 3 1.346 3 3 3 3-1.346 3-3zm-3 1c-.551 0-1-.449-1-1s.449-1 1-1 1 .449 1 1-.449 1-1 1z"/><path d="m38 6h-2v1c0 1.056-.433 2.065-1.174 2.811.886-.284 1.807-.482 2.75-.618.272-.693.424-1.435.424-2.193z"/><path d="m40 29c1.654 0 3-1.346 3-3s-1.346-3-3-3-3 1.346-3 3 1.346 3 3 3zm0-4c.551 0 1 .449 1 1s-.449 1-1 1-1-.449-1-1 .449-1 1-1z"/><path d="m61.671 41.258-6.89-6.891c-.338.594-.715 1.161-1.12 1.708l6.596 6.597c.479.479.743 1.116.743 1.793 0 1.397-1.138 2.535-2.536 2.535-.678 0-1.314-.264-1.793-.742l-6.596-6.597c-.547.405-1.114.782-1.708 1.12l6.89 6.891c.857.856 1.995 1.328 3.207 1.328 2.501 0 4.536-2.034 4.536-4.535 0-1.211-.472-2.351-1.329-3.207z"/><path d="m24 40c1.589 0 3.051-.762 3.977-1.993-.49-.491-.938-1.021-1.366-1.568-.52.949-1.514 1.561-2.611 1.561-1.654 0-3-1.346-3-3h4.604c-.402-.64-.763-1.307-1.078-2h-5.526v2c0 2.757 2.243 5 5 5z"/><path d="m27 26c0 7.168 5.832 13 13 13s13-5.832 13-13-5.832-13-13-13-13 5.832-13 13zm2.414-1c1.43-1.43 3.126-2.488 4.97-3.161-.865 1.165-1.384 2.602-1.384 4.161s.519 2.996 1.384 4.161c-1.844-.673-3.541-1.732-4.97-3.161-.263-.263-.414-.628-.414-1s.151-.737.414-1zm21.586 1c0 .372-.151.737-.414 1-1.43 1.43-3.126 2.488-4.97 3.161.865-1.165 1.384-2.602 1.384-4.161s-.519-2.996-1.384-4.161c1.844.673 3.541 1.732 4.97 3.161.263.263.414.628.414 1zm-6 0c0 2.757-2.243 5-5 5s-5-2.243-5-5 2.243-5 5-5 5 2.243 5 5zm-5 11c-4.698 0-8.706-2.966-10.279-7.118 2.688 2.013 5.931 3.118 9.35 3.118h1.857c3.419 0 6.662-1.105 9.351-3.118-1.573 4.152-5.581 7.118-10.279 7.118zm10.279-14.882c-2.688-2.013-5.931-3.118-9.35-3.118h-1.857c-3.419 0-6.662 1.105-9.351 3.118 1.573-4.152 5.581-7.118 10.279-7.118s8.706 2.966 10.279 7.118z"/></g></g></svg>