<svg width="192" height="192" viewBox="0 0 192 192" fill="none" xmlns="http://www.w3.org/2000/svg">
<path d="M96 184C144.601 184 184 144.601 184 96C184 47.3989 144.601 8 96 8C47.3989 8 8 47.3989 8 96C8 144.601 47.3989 184 96 184Z" fill="#FFD782"/>
<path d="M96 192C114.987 192 133.548 186.37 149.335 175.821C165.122 165.272 177.426 150.279 184.692 132.738C191.958 115.196 193.86 95.8935 190.155 77.2714C186.451 58.6492 177.308 41.5436 163.882 28.1178C150.456 14.6919 133.351 5.54884 114.729 1.84466C96.1065 -1.85952 76.8041 0.0415955 59.2624 7.30761C41.7207 14.5736 26.7275 26.8782 16.1789 42.6653C5.63031 58.4524 0 77.013 0 96C0.0275287 121.452 10.1506 145.854 28.1481 163.852C46.1457 181.849 70.5477 191.973 96 192ZM96 16C111.823 16 127.29 20.692 140.446 29.4825C153.602 38.273 163.855 50.7673 169.91 65.3854C175.965 80.0035 177.55 96.0888 174.463 111.607C171.376 127.126 163.757 141.38 152.569 152.569C141.38 163.757 127.126 171.376 111.607 174.463C96.0888 177.55 80.0034 175.965 65.3853 169.91C50.7672 163.855 38.2729 153.602 29.4824 140.446C20.6919 127.29 16 111.823 16 96C16.0233 74.7899 24.4593 54.4551 39.4572 39.4572C54.455 24.4594 74.7898 16.0233 96 16Z" fill="black"/>
<path d="M53.656 101.656L64 91.312L74.344 101.656L85.656 90.344L75.312 80L85.656 69.656L74.344 58.344L64 68.688L53.656 58.344L42.344 69.656L52.688 80L42.344 90.344L53.656 101.656Z" fill="black"/>
<path d="M117.656 101.656L128 91.312L138.344 101.656L149.656 90.344L139.312 80L149.656 69.656L138.344 58.344L128 68.688L117.656 58.344L106.344 69.656L116.688 80L106.344 90.344L117.656 101.656Z" fill="black"/>
<path d="M48.408 141.472L63.608 146.528C63.656 146.344 70.064 128 96 128C121.496 128 128.168 145.84 128.408 146.528L143.608 141.472C143.2 140.264 133.336 112 96 112C58.664 112 48.8 140.264 48.408 141.472Z" fill="black"/>
</svg>
