<svg id="Capa_1" enable-background="new 0 0 512.007 512.007" height="512" viewBox="0 0 512.007 512.007" width="512" xmlns="http://www.w3.org/2000/svg"><g><ellipse cx="256.004" cy="156.501" fill="#8de1ce" rx="148.796" ry="131.314"/><path d="m381.918 226.485c-235.395-10.255-216.714-147.274-179.396-192.551-55.752 18.959-95.314 66.683-95.314 122.567 0 72.523 66.618 131.314 148.795 131.314 53.024-.001 99.563-24.481 125.915-61.33z" fill="#58d1b4"/><g><g fill="#fff"><ellipse cx="177.645" cy="125.321" rx="28.913" ry="23.025"/><ellipse cx="334.362" cy="125.321" rx="28.913" ry="23.025"/></g></g><path d="m441.511 486.82h-371.015c-20.266 0-36.695-16.429-36.695-36.695v-248.306c0-20.266 16.429-36.695 36.695-36.695h371.016c20.266 0 36.695 16.429 36.695 36.695v248.307c-.001 20.265-16.43 36.694-36.696 36.694z" fill="#8daee1"/><path d="m437.404 376.336c-8.373-16.145-2.072-36.02 14.073-44.393 17.448-9.049 22.145-13.197 26.73-27.584v85.799c-15.077 6.439-33.017 1.19-40.803-13.822z" fill="#6a95d6"/><path d="m74.604 376.336c8.373-16.145 2.072-36.02-14.072-44.393-17.448-9.049-22.145-13.197-26.73-27.584v85.799c15.075 6.439 33.015 1.19 40.802-13.822z" fill="#6a95d6"/><path d="m30.21 358.385c-16.594-9.527-24.638-24.881-22.313-51.645 1.322-15.218 10.019-27.333 25.904-32.374 4.585 14.387 9.282 18.535 26.73 27.584 16.144 8.373 22.445 28.248 14.072 44.393-8.414 16.223-28.692 21.055-44.393 12.042z" fill="#8de1ce"/><path d="m481.797 358.385c16.594-9.527 24.638-24.881 22.313-51.645-1.322-15.218-10.019-27.333-25.904-32.374-4.585 14.387-9.282 18.535-26.73 27.584-16.144 8.373-22.445 28.248-14.072 44.393 8.415 16.223 28.692 21.055 44.393 12.042z" fill="#8de1ce"/><path d="m511.582 306.09c-1.482-17.056-10.816-30.234-25.876-36.893v-67.379c0-24.369-19.825-44.194-44.194-44.194h-29.234c.24-24.328-6.742-47.868-19.393-68.201-2.189-3.517-6.815-4.595-10.33-2.405-3.518 2.188-4.595 6.813-2.406 10.33 11.764 18.905 17.358 39.844 17.129 60.276h-282.551c-.959-66.663 60.81-124.938 141.277-124.938 38.97 0 75.266 13.615 102.2 38.338 3.051 2.8 7.794 2.597 10.597-.454 2.801-3.052 2.598-7.796-.454-10.597-29.709-27.27-69.607-42.288-112.343-42.288-85.524 0-157.019 61.956-156.274 139.938h-29.234c-24.369 0-44.194 19.826-44.194 44.194v67.379c-15.06 6.659-24.394 19.837-25.876 36.893-2.468 28.407 5.757 47.063 25.876 58.695v85.341c0 20.505 13.907 38.174 33.818 42.968 4.042.972 8.081-1.522 9.048-5.536.969-4.027-1.51-8.078-5.536-9.047-13.147-3.165-22.33-14.837-22.33-28.385v-80.168c16.359 2.292 32.288-5.374 39.96-20.162 10.263-19.79 2.513-44.24-17.277-54.504-15.944-8.268-19.072-11.173-22.683-22.109v-71.364c0-16.098 13.097-29.194 29.194-29.194h371.016c16.098 0 29.194 13.097 29.194 29.194v71.364c-3.611 10.936-6.738 13.841-22.683 22.11-19.79 10.264-27.54 34.714-17.276 54.505 7.683 14.812 23.634 22.448 39.959 20.161v80.168c0 16.098-13.097 29.195-29.194 29.195h-343.733c-4.143 0-7.5 3.358-7.5 7.5s3.357 7.5 7.5 7.5h343.732c24.369 0 44.194-19.826 44.194-44.195v-85.341c20.119-11.632 28.345-30.287 25.877-58.695zm-454.504 2.517c12.448 6.456 17.323 21.835 10.868 34.283-6.421 12.376-21.96 15.904-34.001 8.991-14.982-8.601-20.538-21.907-18.576-44.492.664-7.642 3.779-17.265 14.158-23.075 4.989 11.129 11.96 16.208 27.551 24.293zm420.984 43.274c-12.058 6.922-27.587 3.375-34-8.991-6.456-12.448-1.581-27.827 10.867-34.282 15.591-8.086 22.562-13.164 27.551-24.294 10.379 5.81 13.494 15.434 14.158 23.075 1.962 22.584-3.593 35.89-18.576 44.492zm-307.066-137.279c4.143 0 7.5-3.358 7.5-7.5s-3.357-7.5-7.5-7.5h-37.058c-4.143 0-7.5 3.358-7.5 7.5v91.433c0 4.142 3.357 7.5 7.5 7.5s7.5-3.358 7.5-7.5v-39.083h26.613c4.143 0 7.5-3.358 7.5-7.5s-3.357-7.5-7.5-7.5h-26.613v-29.85zm-61.286 124.375c-3.468 2.265-4.444 6.912-2.18 10.38l29.805 45.647-.116 47.382c-.01 4.143 3.34 7.508 7.482 7.519h.018c4.134 0 7.49-3.346 7.5-7.481l.116-47.409 29.567-45.419c2.26-3.472 1.278-8.118-2.193-10.377s-8.118-1.278-10.377 2.194l-24.501 37.636-24.74-37.891c-2.267-3.471-6.912-4.446-10.381-2.181zm138.273-32.943c29.529 0 53.554-24.024 53.554-53.554s-24.024-53.554-53.554-53.554-53.553 24.024-53.553 53.554 24.024 53.554 53.553 53.554zm0-92.107c21.259 0 38.554 17.295 38.554 38.554s-17.295 38.554-38.554 38.554c-21.258 0-38.553-17.295-38.553-38.554s17.295-38.554 38.553-38.554zm16.964-102.503c-2.258 2.591-5.518 4.078-8.943 4.078-3.426 0-6.686-1.486-8.943-4.078-2.721-3.123-7.459-3.448-10.581-.727-3.123 2.721-3.449 7.459-.728 10.582 5.108 5.861 12.489 9.223 20.252 9.223s15.145-3.362 20.252-9.223c2.722-3.123 2.396-7.86-.728-10.582-3.122-2.722-7.861-2.397-10.581.727zm-91.714-11.158c0 4.142 3.357 7.5 7.5 7.5s7.5-3.358 7.5-7.5c0-3.453 2.809-6.262 6.262-6.262s6.263 2.809 6.263 6.262c0 4.142 3.357 7.5 7.5 7.5s7.5-3.358 7.5-7.5c0-11.724-9.538-21.262-21.263-21.262-11.724.001-21.262 9.539-21.262 21.262zm70.178 349.638c30.919 0 56.073-25.155 56.073-56.074s-25.154-56.074-56.073-56.074-56.074 25.155-56.074 56.074c0 30.92 25.155 56.074 56.074 56.074zm0-97.148c22.647 0 41.073 18.426 41.073 41.074s-18.426 41.074-41.073 41.074c-22.648 0-41.074-18.426-41.074-41.074s18.425-41.074 41.074-41.074zm52.839-252.49c0 4.142 3.357 7.5 7.5 7.5s7.5-3.358 7.5-7.5c0-3.453 2.81-6.262 6.263-6.262s6.262 2.809 6.262 6.262c0 4.142 3.357 7.5 7.5 7.5s7.5-3.358 7.5-7.5c0-11.724-9.538-21.262-21.262-21.262-11.725.001-21.263 9.539-21.263 21.262zm23.061 311.839c0 13.154 6.117 23.457 18.702 31.498 12.574 8.033 28.913 8.1 41.366 1.827 18.543-9.338 22.435-23.315 22.435-33.396v-66.778c0-4.142-3.357-7.5-7.5-7.5s-7.5 3.358-7.5 7.5v66.778c0 8.771-4.507 15.126-14.183 20-7.781 3.919-18.433 4.109-26.543-1.071-8.256-5.275-11.778-10.915-11.778-18.858v-66.848c0-4.142-3.357-7.5-7.5-7.5s-7.5 3.358-7.5 7.5v66.848zm66.258-181.741c0-17.334-14.71-31.438-32.792-31.438-1.591 0-26.07 0-24.506 0-4.143 0-7.5 3.358-7.5 7.5v92.107c0 4.142 3.357 7.5 7.5 7.5s7.5-3.358 7.5-7.5v-36.667h.036l36.632 41.622c2.74 3.113 7.48 3.408 10.585.675 3.109-2.736 3.411-7.475.675-10.585l-28.078-31.903c16.754-1.386 29.948-14.895 29.948-31.311zm-32.792 16.438c-3.895 0-11.362.035-17.006.065v-32.94h17.006c9.645 0 17.792 7.527 17.792 16.438 0 8.91-8.147 16.437-17.792 16.437z"/></g></svg>