<svg id="icons" enable-background="new 0 0 64 64" height="512" viewBox="0 0 64 64" width="512" xmlns="http://www.w3.org/2000/svg"><path d="m18.98 46h.02v14h-17.979v-14z" fill="#e6e9ed"/><path d="m18.98 44.01v1.99h-17.959-.021v-2-.01c0-.55.44-.99 1-.99h.01 15.95c.57 0 1.01.44 1.021 1v.01z" fill="#ccd1d9"/><path d="m40.98 47.02v1.98h-17.97-.01v-2c0-.55.44-1 .99-1h.02 15.95c.561 0 1.01.45 1.021 1v.02z" fill="#ccd1d9"/><path d="m62.98 46h.02v14h-17.99v-14z" fill="#e6e9ed"/><path d="m62.98 44.01v1.99h-17.97-.01v-2-.01c0-.55.44-.99.99-.99h.02 15.95c.57 0 1.01.44 1.021 1v.01z" fill="#ccd1d9"/><path d="m40.98 49h.02v14h-17.99v-14z" fill="#e6e9ed"/><path d="m50 19.01c0 4.41-3.59 7.99-8 7.99h-21.5c-3.59 0-6.5-2.91-6.5-6.5v-4c0 3.59 2.91 6.5 6.5 6.5h21.5c4.41 0 8-3.58 8-8z" fill="#ccd1d9"/><path d="m42 7c4.41 0 8 3.58 8 8s-3.59 8-8 8h-21.5c-3.59 0-6.5-2.91-6.5-6.5s2.91-6.5 6.5-6.5h.68c.94-5.11 5.42-9 10.82-9 4.271 0 7.98 2.44 9.8 6z" fill="#e6e9ed"/><path d="m63 60.998h-17.982c-.553 0-1-.447-1-1v-14.002c0-.553.447-1 1-1h17.982c.553 0 1 .447 1 1v14.002c0 .553-.447 1-1 1zm-16.982-2h15.982v-12.002h-15.982z"/><path d="m44.999 44.995c-.552 0-.997-.45-.997-1.003 0-1.1.895-1.994 1.995-1.994.553 0 1 .447 1 1s-.447 1-1 1c0 .553-.445.997-.998.997z"/><path d="m45 47.998c-.553 0-1-.447-1-1v-3.002c0-.553.447-1 1-1s1 .447 1 1v3.002c0 .553-.447 1-1 1z"/><path d="m62.984 45.014c-.553 0-1-.447-1-1 0-.008-.007-.016-.018-.016-.553 0-1-.447-1-1s.447-1 1-1c1.112 0 2.018.904 2.018 2.016 0 .552-.447 1-1 1z"/><path d="m62.982 47.998c-.553 0-1-.447-1-1v-3.002c0-.553.447-1 1-1s1 .447 1 1v3.002c0 .553-.447 1-1 1z"/><path d="m61.967 43.998h-15.951c-.553 0-1-.447-1-1s.447-1 1-1h15.951c.553 0 1 .447 1 1s-.447 1-1 1z"/><path d="m58.998 50.998h-10c-.553 0-1-.447-1-1s.447-1 1-1h10c.553 0 1 .447 1 1s-.447 1-1 1z"/><path d="m58.998 53.998h-10c-.553 0-1-.447-1-1s.447-1 1-1h10c.553 0 1 .447 1 1s-.447 1-1 1z"/><path d="m55.995 56.998h-3.994c-.553 0-1-.447-1-1s.447-1 1-1h3.994c.553 0 1 .447 1 1s-.447 1-1 1z"/><path d="m41 64.001h-17.982c-.553 0-1-.447-1-1v-14.002c0-.553.447-1 1-1h17.982c.553 0 1 .447 1 1v14.002c0 .553-.447 1-1 1zm-16.982-2h15.982v-12.002h-15.982z"/><path d="m22.999 47.998c-.552 0-.997-.45-.997-1.003 0-1.1.895-1.994 1.995-1.994.553 0 1 .447 1 1s-.447 1-1 1c0 .553-.445.997-.998.997z"/><path d="m23 51.001c-.553 0-1-.447-1-1v-3.002c0-.553.447-1 1-1s1 .447 1 1v3.002c0 .553-.447 1-1 1z"/><path d="m40.984 48.017c-.553 0-1-.447-1-1 0-.008-.007-.016-.018-.016-.553 0-1-.447-1-1s.447-1 1-1c1.112 0 2.018.904 2.018 2.016 0 .552-.447 1-1 1z"/><path d="m40.982 51.001c-.553 0-1-.447-1-1v-3.002c0-.553.447-1 1-1s1 .447 1 1v3.002c0 .553-.447 1-1 1z"/><path d="m39.967 47.001h-15.951c-.553 0-1-.447-1-1s.447-1 1-1h15.951c.553 0 1 .447 1 1s-.447 1-1 1z"/><path d="m36.998 54.001h-10c-.553 0-1-.447-1-1s.447-1 1-1h10c.553 0 1 .447 1 1s-.447 1-1 1z"/><path d="m36.998 57.001h-10c-.553 0-1-.447-1-1s.447-1 1-1h10c.553 0 1 .447 1 1s-.447 1-1 1z"/><path d="m33.995 60.001h-3.994c-.553 0-1-.447-1-1s.447-1 1-1h3.994c.553 0 1 .447 1 1s-.447 1-1 1z"/><path d="m19.002 60.998h-17.982c-.553 0-1-.447-1-1v-14.002c0-.553.447-1 1-1h17.982c.553 0 1 .447 1 1v14.002c0 .553-.447 1-1 1zm-16.982-2h15.982v-12.002h-15.982z"/><path d="m1.001 44.995c-.552 0-.997-.45-.997-1.003 0-1.1.895-1.994 1.995-1.994.553 0 1 .447 1 1s-.447 1-1 1c0 .553-.445.997-.998.997z"/><path d="m1.002 47.998c-.553 0-1-.447-1-1v-3.002c0-.553.447-1 1-1s1 .447 1 1v3.002c0 .553-.447 1-1 1z"/><path d="m18.986 45.014c-.553 0-1-.447-1-1 0-.008-.007-.016-.018-.016-.553 0-1-.447-1-1s.447-1 1-1c1.112 0 2.018.904 2.018 2.016 0 .552-.447 1-1 1z"/><path d="m18.984 47.998c-.553 0-1-.447-1-1v-3.002c0-.553.447-1 1-1s1 .447 1 1v3.002c0 .553-.447 1-1 1z"/><path d="m17.969 43.998h-15.951c-.553 0-1-.447-1-1s.447-1 1-1h15.951c.553 0 1 .447 1 1s-.448 1-1 1z"/><path d="m15 50.998h-10c-.553 0-1-.447-1-1s.447-1 1-1h10c.553 0 1 .447 1 1s-.447 1-1 1z"/><path d="m15 53.998h-10c-.553 0-1-.447-1-1s.447-1 1-1h10c.553 0 1 .447 1 1s-.447 1-1 1z"/><path d="m11.997 56.998h-3.994c-.553 0-1-.447-1-1s.447-1 1-1h3.994c.553 0 1 .447 1 1s-.447 1-1 1z"/><path d="m42.001 23.999h-21.5c-.553 0-1-.447-1-1s.447-1 1-1h21.5c.553 0 1 .447 1 1s-.447 1-1 1z"/><path d="m43.001 13.003c-.553 0-1-.447-1-1 0-5.514-4.486-10-10-10s-10 4.486-10 10c0 .553-.447 1-1 1s-1-.447-1-1c0-6.617 5.383-12 12-12s12 5.383 12 12c0 .553-.447 1-1 1z"/><path d="m42.001 23.999c-.553 0-1-.447-1-1s.447-1 1-1c3.859 0 7-3.139 7-6.997 0-3.859-3.141-6.999-7-6.999-.553 0-1-.447-1-1s.447-1 1-1c4.963 0 9 4.037 9 8.999 0 4.961-4.037 8.997-9 8.997z"/><path d="m20.501 23.999c-4.136 0-7.5-3.364-7.5-7.499 0-4.134 3.364-7.497 7.5-7.497.553 0 1 .447 1 1s-.447 1-1 1c-3.032 0-5.5 2.466-5.5 5.497 0 3.032 2.468 5.499 5.5 5.499.553 0 1 .447 1 1s-.447 1-1 1z"/><path d="m42.001 28.003h-21.5c-.553 0-1-.447-1-1s.447-1 1-1h21.5c.553 0 1 .447 1 1s-.447 1-1 1z"/><path d="m42.001 28.003c-.553 0-1-.447-1-1s.447-1 1-1c3.859 0 7-3.14 7-6.998 0-.553.447-1 1-1s1 .447 1 1c0 4.962-4.037 8.998-9 8.998z"/><path d="m20.501 28.003c-4.136 0-7.5-3.364-7.5-7.499 0-.553.447-1 1-1s1 .447 1 1c0 3.032 2.468 5.499 5.5 5.499.553 0 1 .447 1 1s-.447 1-1 1z"/><path d="m21.183 11.003h-.682c-.553 0-1-.447-1-1s.447-1 1-1h.682c.553 0 1 .447 1 1s-.448 1-1 1z"/><path d="m42.001 8.003h-.199c-.553 0-1-.447-1-1s.447-1 1-1h.199c.553 0 1 .447 1 1s-.447 1-1 1z"/><path d="m14.001 21.504c-.553 0-1-.447-1-1v-4.004c0-.553.447-1 1-1s1 .447 1 1v4.004c0 .553-.447 1-1 1z"/><path d="m50.001 20.005c-.553 0-1-.447-1-1v-4.003c0-.553.447-1 1-1s1 .447 1 1v4.003c0 .553-.447 1-1 1z"/><path d="m32.009 43.002c-.553 0-1-.447-1-1v-10.999c0-.553.447-1 1-1s1 .447 1 1v10.999c0 .553-.447 1-1 1z"/><path d="m54.001 40.002c-.553 0-1-.447-1-1v-4c0-.553.447-1 1-1s1 .447 1 1v4c0 .553-.447 1-1 1z"/><path d="m54.001 36.002h-16c-.553 0-1-.447-1-1s.447-1 1-1h16c.553 0 1 .447 1 1s-.447 1-1 1z"/><path d="m38.001 36.002c-.553 0-1-.447-1-1v-3.999c0-.553.447-1 1-1s1 .447 1 1v3.999c0 .553-.447 1-1 1z"/><path d="m9.974 40.002c-.553 0-1-.447-1-1v-4c0-.553.447-1 1-1s1 .447 1 1v4c0 .553-.448 1-1 1z"/><path d="m25.974 36.002h-16c-.553 0-1-.447-1-1s.447-1 1-1h16c.553 0 1 .447 1 1s-.448 1-1 1z"/><path d="m25.974 36.002c-.553 0-1-.447-1-1v-3.999c0-.553.447-1 1-1s1 .447 1 1v3.999c0 .553-.448 1-1 1z"/></svg>