<svg id="icons" enable-background="new 0 0 64 64" height="512" viewBox="0 0 64 64" width="512" xmlns="http://www.w3.org/2000/svg"><path d="m50.98 3v2h-35-3v-2c0-1.11.899-2 2-2h34c1.1 0 2 .89 2 2z" fill="#aab2bd"/><path d="m15.98 28.98v.02h-2.98l-.02-.02v-7.98-16h3z" fill="#545c66"/><path d="m50.98 28.98v.02h-35v-.02-23.98h35v16z" fill="#656d78"/><path d="m35.98 33.99c6.63 0 12 5.38 12 12 0 6.63-5.37 12-12 12-6.631 0-12-5.37-12-12 0-6.62 5.37-12 12-12z" fill="#e6e9ed"/><path d="m59 29h-8.02v-.02-7.98h.02z" fill="#3679ce"/><path d="m12.98 21v7.98l-7.98-7.98z" fill="#3679ce"/><path d="m13 29v34l-8-8v-34l7.98 7.98z" fill="#4a89dc"/><path d="m59 29v34h-46v-34h2.98 35zm-11.02 16.99c0-6.62-5.37-12-12-12-6.631 0-12 5.38-12 12 0 6.63 5.369 12 12 12 6.63 0 12-5.37 12-12z" fill="#5d9cec"/><path d="m59.002 63.998h-45.998c-.553 0-1-.447-1-1v-33.993c0-.552.447-1 1-1h45.998c.553 0 1 .448 1 1v33.993c0 .553-.447 1-1 1zm-44.998-2h43.998v-31.993h-43.998z"/><path d="m59.002 30.005c-.256 0-.512-.098-.707-.293l-8.004-8.002c-.391-.39-.391-1.023 0-1.414s1.023-.391 1.414 0l8.004 8.002c.391.39.391 1.023 0 1.414-.195.195-.451.293-.707.293z"/><path d="m13.002 30.005c-.256 0-.512-.098-.707-.293l-8.004-8.002c-.391-.39-.391-1.023 0-1.414s1.023-.391 1.414 0l8.004 8.002c.391.39.391 1.023 0 1.414-.195.195-.451.293-.707.293z"/><path d="m13.002 63.999c-.256 0-.512-.098-.707-.293l-8.004-8.003c-.391-.391-.391-1.023 0-1.414s1.023-.391 1.414 0l8.004 8.003c.391.391.391 1.023 0 1.414-.195.195-.451.293-.707.293z"/><path d="m12.986 22.003h-7.988c-.553 0-1-.448-1-1s.447-1 1-1h7.988c.553 0 1 .448 1 1s-.447 1-1 1z"/><path d="m4.998 55.996c-.553 0-1-.447-1-1v-33.993c0-.552.447-1 1-1s1 .448 1 1v33.993c0 .553-.447 1-1 1z"/><path d="m16.017 4.002c-.553 0-1.005-.448-1.005-1s.442-1 .994-1h.011c.552 0 1 .448 1 1s-.449 1-1 1z"/><path d="m19.017 4.002c-.553 0-1.005-.448-1.005-1s.442-1 .994-1h.011c.552 0 1 .448 1 1s-.449 1-1 1z"/><path d="m22.017 4.002c-.553 0-1.005-.448-1.005-1s.442-1 .994-1h.011c.552 0 1 .448 1 1s-.449 1-1 1z"/><path d="m50.98 29.982c-.553 0-1-.448-1-1v-22.98h-35.994v22.98c0 .552-.447 1-1 1s-1-.448-1-1v-23.98c0-.552.447-1 1-1h37.994c.553 0 1 .448 1 1v23.98c0 .553-.447 1-1 1z"/><path d="" style="fill:none;stroke:#000;stroke-width:2;stroke-linecap:round;stroke-linejoin:round;stroke-miterlimit:10"/><path d="m12.986 4.002c-.553 0-1-.448-1-1 0-1.655 1.346-3.001 3-3.001.553 0 1 .448 1 1s-.447 1-1 1c-.552 0-1 .449-1 1.001s-.447 1-1 1z"/><path d="m12.986 6.002c-.553 0-1-.448-1-1v-2c0-.552.447-1 1-1s1 .448 1 1v2c0 .552-.447 1-1 1z"/><path d="m50.98 4.002c-.553 0-1-.448-1-1s-.448-1.001-1-1.001c-.553 0-1-.448-1-1s.447-1 1-1c1.654 0 3 1.346 3 3.001 0 .552-.447 1-1 1z"/><path d="m50.98 6.002c-.553 0-1-.448-1-1v-2c0-.552.447-1 1-1s1 .448 1 1v2c0 .552-.447 1-1 1z"/><path d="m48.98 2.001h-33.994c-.553 0-1-.448-1-1s.447-1 1-1h33.994c.553 0 1 .448 1 1s-.447 1-1 1z"/><path d="m15.986 29.982c-.553 0-1-.448-1-1v-23.98c0-.552.447-1 1-1s1 .448 1 1v23.98c0 .553-.447 1-1 1z"/><path d="m42.992 10.002h-23.006c-.553 0-1-.448-1-1s.447-1 1-1h23.006c.553 0 1 .448 1 1s-.447 1-1 1z"/><path d="m38.992 14.002h-17.006c-.553 0-1-.448-1-1s.447-1 1-1h17.006c.553 0 1 .448 1 1s-.447 1-1 1z"/><path d="m43.992 14.002h-1c-.553 0-1-.448-1-1s.447-1 1-1h1c.553 0 1 .448 1 1s-.447 1-1 1z"/><path d="m45.992 21.998h-22.006c-.553 0-1-.448-1-1s.447-1 1-1h22.006c.553 0 1 .448 1 1s-.447 1-1 1z"/><path d="m31.979 17.996h-7.992c-.553 0-1-.448-1-1s.447-1 1-1h7.992c.553 0 1 .448 1 1s-.448 1-1 1z"/><path d="m40.992 25.996h-17.006c-.553 0-1-.448-1-1s.447-1 1-1h17.006c.553 0 1 .448 1 1s-.447 1-1 1z"/><path d="m35.982 58.995c-7.168 0-13-5.832-13-13s5.832-13 13-13 13 5.832 13 13-5.832 13-13 13zm0-24c-6.065 0-11 4.935-11 11s4.935 11 11 11 11-4.935 11-11-4.934-11-11-11z"/><path d="m27.984 46.996c-.256 0-.512-.098-.707-.293-.391-.391-.391-1.023 0-1.414l3-3.001c.391-.391 1.023-.391 1.414 0s.391 1.023 0 1.414l-3 3.001c-.195.195-.451.293-.707.293z"/><path d="m30.984 49.996c-.256 0-.512-.098-.707-.293l-3-3c-.391-.391-.391-1.023 0-1.414s1.023-.391 1.414 0l3 3c.391.391.391 1.023 0 1.414-.195.195-.451.293-.707.293z"/><path d="m43.992 46.996c-.256 0-.512-.098-.707-.293l-3-3.001c-.391-.391-.391-1.023 0-1.414s1.023-.391 1.414 0l3 3.001c.391.391.391 1.023 0 1.414-.195.195-.451.293-.707.293z"/><path d="m40.992 49.996c-.256 0-.512-.098-.707-.293-.391-.391-.391-1.023 0-1.414l3-3c.391-.391 1.023-.391 1.414 0s.391 1.023 0 1.414l-3 3c-.195.195-.451.293-.707.293z"/><path d="m33.986 51.998c-.124 0-.25-.022-.371-.071-.513-.205-.763-.787-.558-1.3l4.002-10.004c.205-.514.792-.763 1.3-.558.513.205.763.787.558 1.3l-4.002 10.004c-.156.392-.532.629-.929.629z"/></svg>