<svg id="icons" enable-background="new 0 0 64 64" height="512" viewBox="0 0 64 64" width="512" xmlns="http://www.w3.org/2000/svg"><path d="m23 1v20h1c1.66 0 3-1.34 3-3 0-1.11.9-2 2-2s2 .89 2 2c0 3.87-3.13 7-7 7h-1v6h18 22v-30z" fill="#ccd1d9"/><path d="m19 8.5v1.37c-1.72-2.24-2.76-2.65-4-2.39v-.01l1.99-4.06c1.25 1.34 2.01 3.12 2.01 5.09z" fill="#f6bb42"/><path d="m16.99 3.41-1.99 4.06v.01c-1.87.38-4.19 2.33-10 1.65-.32-.04-.66-.09-1-.14v-.49c0-4.14 3.36-7.5 7.5-7.5 2.17 0 4.13.93 5.49 2.41z" fill="#ffce54"/><path d="m15 18.32v2.67l-1 1-2-1-2 1-1-.99v-.01-2.67-.01c.91.44 1.93.681 3 .681s2.09-.24 3-.681z" fill="#f5f7fa"/><path d="m5 11.99v-2.86c5.81.68 8.13-1.27 10-1.649 1.24-.261 2.28.149 4 2.39v2.12.009c0 2.79-1.64 5.2-4 6.31-.91.44-1.93.681-3 .681s-2.09-.24-3-.681c-2.36-1.11-4-3.52-4-6.31z" fill="#eac6bb"/><path d="m16.998 7.855v4.135.01c0 2.79-1.64 5.2-4 6.31-.621.301-1.295.499-1.999.601.328.048.661.08 1.001.08 1.07 0 2.09-.24 3-.681 2.36-1.109 4-3.52 4-6.31v-.01-2.12c-.781-1.017-1.419-1.643-2.002-2.015z" fill="#d3b1a9"/><g fill="#e6e9ed"><path d="m5 31h-4v-6c0-2.21 1.79-4 4-4h4l1 .99 2-1 2 1 1-1 8 .01h1c1.66 0 3-1.34 3-3 0-1.11.9-2 2-2s2 .89 2 2c0 3.87-3.13 7-7 7h-1-4v6z"/><path d="m43 23c1.1 0 2 .89 2 2 0 1.1-.9 2-2 2h-6c-1.11 0-2-.9-2-2 0-1.11.89-2 2-2h3z"/><path d="m43 5c1.1 0 2 .89 2 2 0 1.1-.9 2-2 2h-3-3c-1.11 0-2-.9-2-2 0-1.11.89-2 2-2z"/></g><path d="m45 16-5 3-5-3 5-3z" fill="#48cfad"/><path d="m54 18h-5v-2-2h10v4z" fill="#e6e9ed"/><path d="m54 51c5 0 7-4 7-4 0 2.79-1.64 5.2-4 6.31-.91.44-1.92.681-3 .681-1.07 0-2.09-.24-3-.681-2.36-1.109-4-3.52-4-6.31 0 0 2 4 7 4z" fill="#eac6bb"/><path d="m58 36v3c1.66 0 2.99 1.33 3 2.99v.01 4.99.01s-2 4-7 4-7-4-7-4v-.01-4.99-.01c.01-3.32 2.68-5.99 6-5.99z" fill="#965353"/><path d="m58.436 49.718c-.671 1.58-1.895 2.866-3.438 3.592-.621.301-1.292.5-1.997.601.327.048.659.08.999.08 1.08 0 2.09-.24 3-.681 2.36-1.109 4-3.52 4-6.31 0 0-.775 1.548-2.564 2.718z" fill="#d3b1a9"/><path d="m58 39v-3h-2-.002v3h.001c.001 1.104.897 2 2.001 2 .555 0 .99.436.998.99v.01 4.99.01c0 .966-.208 1.881-.563 2.718 1.79-1.17 2.565-2.718 2.565-2.718v-.01-.991-.01-3.989-.01c-.01-1.66-1.34-2.99-3-2.99z" fill="#844747"/><path d="m54 53.99c1.08 0 2.09-.24 3-.681v.011 3.67h-6v-3.67-.01c.91.44 1.93.68 3 .68z" fill="#87bcf4"/><path d="m63 59.99v3.01h-18v-3.01c0-1.65 1.34-3 3-3v.01h3v-.01h6v.01h3v-.01c1.66 0 3 1.35 3 3z" fill="#5d9cec"/><path d="m54.998 56.99h2.002v.01h-2.002z" fill="#4a89dc"/><path d="m60 56.99v.01h-1.905c1.614.053 2.903 1.373 2.903 2.99v3.01h2.002v-3.01c0-1.65-1.34-3-3-3z" fill="#4a89dc"/><path d="m48 57v-.01c-.033 0-.063.009-.097.01z" fill="#4a89dc"/><path d="m29 56.99v-2.99h6v2.99l-3 1z" fill="#eac6bb"/><path d="m41 44.04v9.96h-6-6-6v-9.96c0-4.97 4.03-9 9-9s9 4.03 9 9z" fill="#ffce54"/><path d="m32 35.04c-.339 0-.672.022-1.001.059 4.498.499 7.999 4.311 7.999 8.941v9.96h2.002v-9.96c0-4.97-4.03-9-9-9z" fill="#f6bb42"/><path d="m26 57h3v-.01l3 1 3-1v.01h3v-.01c1.66 0 3 1.35 3 3v3.01h-18v-3.01c0-1.65 1.34-3 3-3z" fill="#48cfad"/><path d="m38 56.99v.01h-1.905c1.614.053 2.903 1.373 2.903 2.99v3.01h2.002v-3.01c0-1.65-1.34-3-3-3z" fill="#37bc9b"/><path d="m13 56.99h-6v-3.67-.01c.91.44 1.93.681 3 .681 1.08 0 2.09-.24 3-.681v.011z" fill="#f5f7fa"/><path d="m19 59.99v3.01h-18v-3.01c0-1.65 1.34-3 3-3v.01h3v-.01h6v.01h3v-.01c1.66 0 3 1.35 3 3z" fill="#e6e9ed"/><path d="m4 57v-.01c-.033 0-.063.009-.097.01z" fill="#ccd1d9"/><path d="m16 56.99v.01h-1.905c1.614.053 2.903 1.373 2.903 2.99v3.01h2.002v-3.01c0-1.65-1.34-3-3-3z" fill="#ccd1d9"/><path d="m10 53.99c-1.07 0-2.09-.24-3-.681-2.36-1.109-4-3.519-4-6.309 0 0 2 4 7 4s7-4 7-4c0 2.79-1.64 5.2-4 6.31-.91.44-1.92.68-3 .68z" fill="#eac6bb"/><path d="m17 46.99v.01s-2 4-7 4-7-4-7-4v-.01-4c0-3.86 3.13-6.99 7-6.99s7 3.13 7 6.99z" fill="#656d78"/><path d="m14.436 49.718c-.671 1.58-1.895 2.866-3.438 3.592-.621.301-1.292.5-1.997.601.327.047.659.079.999.079 1.08 0 2.09-.24 3-.681 2.36-1.109 4-3.52 4-6.31 0 .001-.775 1.549-2.564 2.719z" fill="#d3b1a9"/><path d="m10 36c-.339 0-.67.032-.996.079-.002 0-.003 0-.004 0 3.394.487 5.998 3.391 5.998 6.911v4 .01c0 .966-.208 1.881-.563 2.718 1.79-1.17 2.565-2.718 2.565-2.718v-.01-4c0-3.86-3.13-6.99-7-6.99z" fill="#545c66"/><path d="m63 32h-40c-.553 0-1-.447-1-1v-6c0-.553.447-1 1-1s1 .447 1 1v5h38v-28h-38v19c0 .553-.447 1-1 1s-1-.447-1-1v-20c0-.553.447-1 1-1h40c.553 0 1 .447 1 1v30c0 .553-.447 1-1 1z"/><path d="m5 32c-.553 0-1-.447-1-1v-5c0-.553.447-1 1-1s1 .447 1 1v5c0 .553-.447 1-1 1z"/><path d="m9 22.002h-4c-.553 0-1-.447-1-1s.447-1 1-1h4c.553 0 1 .447 1 1s-.447 1-1 1z"/><path d="m1 26c-.553 0-1-.447-1-1 0-2.757 2.243-5 5-5 .553 0 1 .447 1 1s-.447 1-1 1c-1.654 0-3 1.346-3 3 0 .553-.447 1-1 1z"/><path d="m1 32c-.553 0-1-.447-1-1v-6c0-.553.447-1 1-1s1 .447 1 1v6c0 .553-.447 1-1 1z"/><path d="m19 32c-.553 0-1-.447-1-1v-6c0-.553.447-1 1-1s1 .447 1 1v6c0 .553-.447 1-1 1z"/><path d="m24 26h-5c-.553 0-1-.447-1-1s.447-1 1-1h5c.553 0 1 .447 1 1s-.447 1-1 1z"/><path d="m31 19c-.553 0-1-.447-1-1 0-.552-.448-1-1-1s-1 .448-1 1c0 .553-.447 1-1 1s-1-.447-1-1c0-1.654 1.346-3 3-3s3 1.346 3 3c0 .553-.447 1-1 1z"/><path d="m24 26c-.553 0-1-.447-1-1s.447-1 1-1c3.309 0 6-2.691 6-6 0-.553.447-1 1-1s1 .447 1 1c0 4.411-3.589 8-8 8z"/><path d="m24 22c-.553 0-1-.447-1-1s.447-1 1-1c1.103 0 2-.897 2-2 0-.553.447-1 1-1s1 .447 1 1c0 2.206-1.794 4-4 4z"/><path d="m61.002 43.001c-.553 0-1-.447-1-1 0-1.104-.898-2.001-2.002-2.001-.553 0-1-.447-1-1s.447-1 1-1c2.207 0 4.002 1.795 4.002 4.001 0 .553-.447 1-1 1z"/><path d="m58 40c-.553 0-1-.447-1-1v-3c0-.553.447-1 1-1s1 .447 1 1v3c0 .553-.447 1-1 1z"/><path d="m47 43c-.553 0-1-.447-1-1 0-3.859 3.141-7 7-7 .553 0 1 .447 1 1s-.447 1-1 1c-2.757 0-5 2.243-5 5 0 .553-.447 1-1 1z"/><path d="m58 37h-5c-.553 0-1-.447-1-1s.447-1 1-1h5c.553 0 1 .447 1 1s-.447 1-1 1z"/><path d="m54 52c-5.554 0-7.802-4.367-7.895-4.553-.247-.494-.047-1.095.447-1.342.492-.244 1.092-.048 1.34.443.075.145 1.821 3.452 6.108 3.452 4.332 0 6.088-3.413 6.105-3.447.248-.494.848-.692 1.342-.447.494.247.694.848.447 1.342-.092.185-2.34 4.552-7.894 4.552z"/><path d="m47 48c-.553 0-1-.447-1-1v-5.004c0-.553.447-1 1-1s1 .447 1 1v5.004c0 .553-.447 1-1 1z"/><path d="m61 48c-.553 0-1-.447-1-1v-5.004c0-.553.447-1 1-1s1 .447 1 1v5.004c0 .553-.447 1-1 1z"/><path d="m45 60.995c-.553 0-1-.447-1-1 0-2.205 1.794-3.999 4-3.999.553 0 1 .447 1 1s-.447 1-1 1c-1.103 0-2 .896-2 1.999 0 .553-.447 1-1 1z"/><path d="m51 58.002h-3c-.553 0-1-.447-1-1s.447-1 1-1h3c.553 0 1 .447 1 1s-.447 1-1 1z"/><path d="m45 64c-.553 0-1-.447-1-1v-3.005c0-.553.447-1 1-1s1 .447 1 1v3.005c0 .553-.447 1-1 1z"/><path d="m63 60.995c-.553 0-1-.447-1-1 0-1.103-.897-1.999-2-1.999-.553 0-1-.447-1-1s.447-1 1-1c2.206 0 4 1.794 4 3.999 0 .553-.447 1-1 1z"/><path d="m60 58.002h-3c-.553 0-1-.447-1-1s.447-1 1-1h3c.553 0 1 .447 1 1s-.447 1-1 1z"/><path d="m63 64c-.553 0-1-.447-1-1v-3.005c0-.553.447-1 1-1s1 .447 1 1v3.005c0 .553-.447 1-1 1z"/><path d="m63 64h-18c-.553 0-1-.447-1-1s.447-1 1-1h18c.553 0 1 .447 1 1s-.447 1-1 1z"/><path d="m51 58.002c-.553 0-1-.447-1-1v-3.684c0-.553.447-1 1-1s1 .447 1 1v3.684c0 .553-.447 1-1 1z"/><path d="m57 57.995c-.553 0-1-.447-1-1v-3.677c0-.553.447-1 1-1s1 .447 1 1v3.677c0 .553-.447 1-1 1z"/><path d="m54 54.992c-4.411 0-8-3.588-8-7.997 0-.553.447-1 1-1s1 .447 1 1c0 3.307 2.691 5.997 6 5.997s6-2.69 6-5.997c0-.553.447-1 1-1s1 .447 1 1c0 4.409-3.589 7.997-8 7.997z"/><path d="m57 57.995h-6c-.553 0-1-.447-1-1s.447-1 1-1h6c.553 0 1 .447 1 1s-.447 1-1 1z"/><path d="m10 52c-5.554 0-7.802-4.367-7.895-4.553-.247-.494-.047-1.095.447-1.342.492-.244 1.092-.048 1.34.443.075.145 1.821 3.452 6.108 3.452 4.332 0 6.088-3.413 6.105-3.447.247-.494.848-.692 1.342-.447.494.247.694.848.447 1.342-.092.185-2.34 4.552-7.894 4.552z"/><path d="m3 48c-.553 0-1-.447-1-1v-4.004c0-.553.447-1 1-1s1 .447 1 1v4.004c0 .553-.447 1-1 1z"/><path d="m17 48c-.553 0-1-.447-1-1v-4.004c0-.553.447-1 1-1s1 .447 1 1v4.004c0 .553-.447 1-1 1z"/><path d="m1 60.995c-.553 0-1-.447-1-1 0-2.205 1.794-3.999 4-3.999.553 0 1 .447 1 1s-.447 1-1 1c-1.103 0-2 .896-2 1.999 0 .553-.447 1-1 1z"/><path d="m7 58.002h-3c-.553 0-1-.447-1-1s.447-1 1-1h3c.553 0 1 .447 1 1s-.447 1-1 1z"/><path d="m1 64c-.553 0-1-.447-1-1v-3.005c0-.553.447-1 1-1s1 .447 1 1v3.005c0 .553-.447 1-1 1z"/><path d="m19 60.995c-.553 0-1-.447-1-1 0-1.103-.897-1.999-2-1.999-.553 0-1-.447-1-1s.447-1 1-1c2.206 0 4 1.794 4 3.999 0 .553-.447 1-1 1z"/><path d="m16 58.002h-3c-.553 0-1-.447-1-1s.447-1 1-1h3c.553 0 1 .447 1 1s-.447 1-1 1z"/><path d="m19 64c-.553 0-1-.447-1-1v-3.005c0-.553.447-1 1-1s1 .447 1 1v3.005c0 .553-.447 1-1 1z"/><path d="m19 64h-18c-.553 0-1-.447-1-1s.447-1 1-1h18c.553 0 1 .447 1 1s-.447 1-1 1z"/><path d="m7 58.002c-.553 0-1-.447-1-1v-3.684c0-.553.447-1 1-1s1 .447 1 1v3.684c0 .553-.447 1-1 1z"/><path d="m13 57.995c-.553 0-1-.447-1-1v-3.677c0-.553.447-1 1-1s1 .447 1 1v3.677c0 .553-.447 1-1 1z"/><path d="m10 54.992c-4.411 0-8-3.588-8-7.997 0-.553.447-1 1-1s1 .447 1 1c0 3.307 2.691 5.997 6 5.997s6-2.69 6-5.997c0-.553.447-1 1-1s1 .447 1 1c0 4.409-3.589 7.997-8 7.997z"/><path d="m17 43.996c-.553 0-1-.447-1-1 0-3.307-2.691-5.996-6-5.996s-6 2.689-6 5.996c0 .553-.447 1-1 1s-1-.447-1-1c0-4.409 3.589-7.996 8-7.996s8 3.587 8 7.996c0 .553-.447 1-1 1z"/><path d="m13 57.995h-6c-.553 0-1-.447-1-1s.447-1 1-1h6c.553 0 1 .447 1 1s-.447 1-1 1z"/><path d="m41 55c-.553 0-1-.447-1-1v-9.958c0-.553.447-1 1-1s1 .447 1 1v9.958c0 .553-.447 1-1 1z"/><path d="m41 55h-18c-.553 0-1-.447-1-1s.447-1 1-1h18c.553 0 1 .447 1 1s-.447 1-1 1z"/><path d="m23 55c-.553 0-1-.447-1-1v-9.958c0-.553.447-1 1-1s1 .447 1 1v9.958c0 .553-.447 1-1 1z"/><path d="m41 45.042c-.553 0-1-.447-1-1 0-4.411-3.589-8-8-8s-8 3.589-8 8c0 .553-.447 1-1 1s-1-.447-1-1c0-5.514 4.486-10 10-10s10 4.486 10 10c0 .553-.447 1-1 1z"/><path d="m23 60.995c-.553 0-1-.447-1-1 0-2.205 1.794-3.999 4-3.999.553 0 1 .447 1 1s-.447 1-1 1c-1.103 0-2 .896-2 1.999 0 .553-.447 1-1 1z"/><path d="m29 58.002h-3c-.553 0-1-.447-1-1s.447-1 1-1h3c.553 0 1 .447 1 1s-.447 1-1 1z"/><path d="m23 64c-.553 0-1-.447-1-1v-3.005c0-.553.447-1 1-1s1 .447 1 1v3.005c0 .553-.447 1-1 1z"/><path d="m41 60.995c-.553 0-1-.447-1-1 0-1.103-.897-1.999-2-1.999-.553 0-1-.447-1-1s.447-1 1-1c2.206 0 4 1.794 4 3.999 0 .553-.447 1-1 1z"/><path d="m38 58.002h-3c-.553 0-1-.447-1-1s.447-1 1-1h3c.553 0 1 .447 1 1s-.447 1-1 1z"/><path d="m41 64c-.553 0-1-.447-1-1v-3.005c0-.553.447-1 1-1s1 .447 1 1v3.005c0 .553-.447 1-1 1z"/><path d="m41 64h-18c-.553 0-1-.447-1-1s.447-1 1-1h18c.553 0 1 .447 1 1s-.447 1-1 1z"/><path d="m29 58.002c-.553 0-1-.447-1-1v-1.684c0-.553.447-1 1-1s1 .447 1 1v1.684c0 .553-.447 1-1 1z"/><path d="m35 57.995c-.553 0-1-.447-1-1v-1.677c0-.553.447-1 1-1s1 .447 1 1v1.677c0 .553-.447 1-1 1z"/><path d="m32 58.995c-.104 0-.211-.017-.316-.052l-3-1c-.523-.174-.807-.74-.632-1.265.174-.523.735-.809 1.265-.632l3 1c.523.174.807.74.632 1.265-.14.419-.53.684-.949.684z"/><path d="m32 58.995c-.419 0-.809-.265-.948-.684-.175-.524.108-1.091.632-1.265l3-1c.529-.177 1.09.108 1.265.632s-.108 1.091-.632 1.265l-3 1c-.106.036-.213.052-.317.052z"/><path d="m5 13c-.553 0-1-.447-1-1v-2.868c0-.553.447-1 1-1s1 .447 1 1v2.868c0 .553-.447 1-1 1z"/><path d="m19 13c-.553 0-1-.447-1-1v-3.501c0-.553.447-1 1-1s1 .447 1 1v3.501c0 .553-.447 1-1 1z"/><path d="m19 9.499c-.553 0-1-.447-1-1 0-3.584-2.916-6.499-6.501-6.499-3.584 0-6.499 2.915-6.499 6.499 0 .553-.447 1-1 1s-1-.447-1-1c0-4.686 3.813-8.499 8.499-8.499 4.688 0 8.501 3.813 8.501 8.499 0 .553-.447 1-1 1z"/><path d="m19.001 10.87c-.301 0-.598-.135-.795-.392-1.93-2.522-2.455-2.314-4.414-1.538-1.877.745-4.715 1.87-9.948 1.042-.545-.086-.918-.597-.831-1.143.085-.545.602-.921 1.144-.831 4.69.738 7.124-.223 8.899-.927 2.411-.956 4.027-1.359 6.738 2.181.336.438.253 1.066-.186 1.402-.181.139-.395.206-.607.206z"/><path d="m14.999 8.476c-.147 0-.298-.033-.44-.103-.495-.243-.699-.843-.456-1.338l2-4.071c.243-.496.838-.701 1.339-.457.495.243.699.843.456 1.338l-2 4.071c-.174.355-.53.56-.899.56z"/><path d="m24 22-9.001-.005c-.552 0-.999-.448-.999-1.001 0-.552.448-.999 1-.999h.001l9 .005c.552 0 .999.448.999 1.001 0 .552-.448.999-1 .999z"/><path d="m9 22.002c-.553 0-1-.447-1-1v-2.684c0-.553.447-1 1-1s1 .447 1 1v2.684c0 .553-.447 1-1 1z"/><path d="m15 21.995c-.553 0-1-.447-1-1v-2.677c0-.553.447-1 1-1s1 .447 1 1v2.677c0 .553-.447 1-1 1z"/><path d="m12 19.992c-4.411 0-8-3.588-8-7.997 0-.553.447-1 1-1s1 .447 1 1c0 3.307 2.691 5.997 6 5.997s6-2.69 6-5.997c0-.553.447-1 1-1s1 .447 1 1c0 4.409-3.589 7.997-8 7.997z"/><path d="m10.001 22.995c-.367 0-.72-.202-.896-.553-.247-.494-.047-1.095.447-1.342l2-1c.494-.245 1.095-.047 1.342.447s.047 1.095-.447 1.342l-2 1c-.143.072-.296.106-.446.106z"/><path d="m14 22.995c-.256 0-.512-.098-.707-.293-.391-.391-.391-1.023 0-1.414l1-1c.391-.391 1.023-.391 1.414 0s.391 1.023 0 1.414l-1 1c-.195.195-.451.293-.707.293z"/><path d="m10 22.995c-.256 0-.512-.098-.707-.293l-1-1c-.391-.391-.391-1.023 0-1.414s1.023-.391 1.414 0l1 1c.391.391.391 1.023 0 1.414-.195.195-.451.293-.707.293z"/><path d="m13.999 22.995c-.15 0-.303-.034-.446-.105l-2-1c-.494-.247-.694-.848-.447-1.342.248-.494.847-.692 1.342-.447l2 1c.494.247.694.848.447 1.342-.176.35-.529.552-.896.552z"/><path d="m4 9.995c-.553 0-1-.447-1-1v-.496c0-.553.447-1 1-1s1 .447 1 1v.496c0 .553-.447 1-1 1z"/><path d="m36.998 10c-1.654 0-3-1.346-3-3s1.346-3 3-3c.553 0 1 .447 1 1s-.447 1-1 1c-.552 0-1 .448-1 1s.448 1 1 1c.553 0 1 .447 1 1s-.447 1-1 1z"/><path d="m42.996 10c-.553 0-1-.447-1-1s.447-1 1-1c.552 0 1-.448 1-1s-.448-1-1-1c-.553 0-1-.447-1-1s.447-1 1-1c1.654 0 3 1.346 3 3s-1.346 3-3 3z"/><path d="m42.996 6h-5.998c-.553 0-1-.447-1-1s.447-1 1-1h5.998c.553 0 1 .447 1 1s-.447 1-1 1z"/><path d="m42.996 10h-5.998c-.553 0-1-.447-1-1s.447-1 1-1h5.998c.553 0 1 .447 1 1s-.447 1-1 1z"/><path d="m36.998 27.999c-1.654 0-3-1.346-3-3s1.346-3 3-3c.553 0 1 .447 1 1s-.447 1-1 1c-.552 0-1 .448-1 1s.448 1 1 1c.553 0 1 .447 1 1s-.447 1-1 1z"/><path d="m42.996 27.999c-.553 0-1-.447-1-1s.447-1 1-1c.552 0 1-.448 1-1s-.448-1-1-1c-.553 0-1-.447-1-1s.447-1 1-1c1.654 0 3 1.346 3 3s-1.346 3-3 3z"/><path d="m42.996 23.999h-5.998c-.553 0-1-.447-1-1s.447-1 1-1h5.998c.553 0 1 .447 1 1s-.447 1-1 1z"/><path d="m42.996 27.999h-5.998c-.553 0-1-.447-1-1s.447-1 1-1h5.998c.553 0 1 .447 1 1s-.447 1-1 1z"/><path d="m39.997 13.996c-.553 0-1-.447-1-1v-3.996c0-.553.447-1 1-1s1 .447 1 1v3.996c0 .553-.447 1-1 1z"/><path d="m39.997 20.001c-.178 0-.356-.048-.515-.143l-4.999-3c-.301-.181-.485-.506-.485-.857s.185-.677.485-.857l4.999-3c.316-.189.713-.189 1.029 0l4.999 3c.301.181.485.506.485.857s-.185.677-.485.857l-4.999 3c-.157.095-.336.143-.514.143zm-3.056-4 3.056 1.834 3.056-1.834-3.056-1.834z"/><path d="m59 19.001h-10c-.553 0-1-.447-1-1v-4.001c0-.553.447-1 1-1h10c.553 0 1 .447 1 1v4.001c0 .553-.447 1-1 1zm-9-2h8v-2.001h-8z"/><path d="m39.997 23.999c-.553 0-1-.447-1-1v-3.998c0-.553.447-1 1-1s1 .447 1 1v3.998c0 .553-.447 1-1 1z"/><path d="m49 17.001h-4.004c-.553 0-1-.447-1-1s.447-1 1-1h4.004c.553 0 1 .447 1 1s-.447 1-1 1z"/><path d="m54 26c-.553 0-1-.447-1-1v-6.999c0-.553.447-1 1-1s1 .447 1 1v6.999c0 .553-.447 1-1 1z"/><path d="m54 26h-9.004c-.553 0-1-.447-1-1s.447-1 1-1h9.004c.553 0 1 .447 1 1s-.447 1-1 1z"/></svg>