<svg id="icons" enable-background="new 0 0 64 64" height="512" viewBox="0 0 64 64" width="512" xmlns="http://www.w3.org/2000/svg"><path d="m5 50.51h16v8.98.01h-16v-.01z" fill="#656d78"/><g fill="#aab2bd"><path d="m21 50.51h-16v-1.01c0-1.11.89-2 2-2h12c1.1 0 2 .89 2 2z"/><path d="m40 49.5v1.01h-16v-1.01c0-1.11.89-2 2-2h12c1.1 0 2 .89 2 2z"/><path d="m59 50.51h-16v-1.01c0-1.11.89-2 2-2h12c1.1 0 2 .89 2 2z"/></g><path d="m24 50.51h16v8.98.01h-16v-.01z" fill="#656d78"/><path d="m43 50.51h16v8.98.01h-16v-.01z" fill="#656d78"/><path d="m43 34.5h16v3h-16z" fill="#5d9cec"/><path d="m63 8.5h-62v-2c0-1.11.89-2 2-2h58c1.1 0 2 .89 2 2z" fill="#ccd1d9"/><path d="m7 12.5h31c1.1 0 2 .89 2 2v1h-35v-1c0-1.11.89-2 2-2z" fill="#aab2bd"/><path d="m43 34.5v3h16v-3zm-38-19v28h35v-28-1c0-1.11-.9-2-2-2h-31c-1.11 0-2 .89-2 2zm0 35.01v8.98.01h-4v-51h62v51h-4v-.01-8.98-1.01c0-1.11-.9-2-2-2h-12c-1.11 0-2 .89-2 2v1.01 8.98.01h-3v-.01-8.98-1.01c0-1.11-.9-2-2-2h-12c-1.11 0-2 .89-2 2v1.01 8.98.01h-3v-.01-8.98-1.01c0-1.11-.9-2-2-2h-12c-1.11 0-2 .89-2 2z" fill="#e6e9ed"/><path d="m5 15.5h35v28h-35z" fill="#656d78"/><path d="m1 7.498c-.553 0-1-.447-1-1 0-1.654 1.346-3 3-3 .553 0 1 .447 1 1s-.447 1-1 1c-.552 0-1 .448-1 1 0 .553-.447 1-1 1z"/><path d="m63 7.498c-.553 0-1-.447-1-1 0-.552-.448-1-1-1-.553 0-1-.447-1-1s.447-1 1-1c1.654 0 3 1.346 3 3 0 .553-.447 1-1 1z"/><path d="m61 5.498h-58c-.553 0-1-.447-1-1s.447-1 1-1h58c.553 0 1 .447 1 1s-.447 1-1 1z"/><path d="m4.03 7.498c-.553 0-1.005-.447-1.005-1s.442-1 .994-1h.011c.552 0 1 .447 1 1s-.448 1-1 1z"/><path d="m7.029 7.498c-.553 0-1.005-.447-1.005-1s.442-1 .994-1h.011c.552 0 1 .447 1 1s-.448 1-1 1z"/><path d="m10.032 7.498c-.553 0-1.005-.447-1.005-1s.442-1 .994-1h.011c.552 0 1 .447 1 1s-.448 1-1 1z"/><path d="m1 60.502c-.553 0-1-.447-1-1v-53.004c0-.553.447-1 1-1s1 .447 1 1v53.004c0 .553-.447 1-1 1z"/><path d="m63 60.502c-.553 0-1-.447-1-1v-53.004c0-.553.447-1 1-1s1 .447 1 1v53.004c0 .553-.447 1-1 1z"/><path d="m63 9.498h-62c-.553 0-1-.447-1-1s.447-1 1-1h62c.553 0 1 .447 1 1s-.447 1-1 1z"/><path d="m63 60.502h-62c-.553 0-1-.447-1-1s.447-1 1-1h62c.553 0 1 .447 1 1s-.447 1-1 1z"/><path d="m21.001 60.492c-.553 0-1-.447-1-1v-7.98h-14v7.98c0 .553-.447 1-1 1s-1-.447-1-1v-8.98c0-.553.447-1 1-1h16c.553 0 1 .447 1 1v8.98c0 .553-.447 1-1 1z"/><path d="m40 60.492c-.553 0-1-.447-1-1v-7.98h-14v7.98c0 .553-.447 1-1 1s-1-.447-1-1v-8.98c0-.553.447-1 1-1h16c.553 0 1 .447 1 1v8.98c0 .553-.447 1-1 1z"/><path d="m58.999 60.492c-.553 0-1-.447-1-1v-7.98h-14v7.98c0 .553-.447 1-1 1s-1-.447-1-1v-8.98c0-.553.447-1 1-1h16c.553 0 1 .447 1 1v8.98c0 .553-.447 1-1 1z"/><path d="m58.999 22.502h-15.999c-.553 0-1-.447-1-1s.447-1 1-1h15.999c.553 0 1 .447 1 1s-.447 1-1 1z"/><path d="m58.999 19.502h-15.999c-.553 0-1-.447-1-1s.447-1 1-1h15.999c.553 0 1 .447 1 1s-.447 1-1 1z"/><path d="m50.991 25.502h-7.991c-.553 0-1-.447-1-1s.447-1 1-1h7.991c.553 0 1 .447 1 1s-.447 1-1 1z"/><path d="m50.991 30.5h-7.991c-.553 0-1-.447-1-1s.447-1 1-1h7.991c.553 0 1 .447 1 1s-.447 1-1 1z"/><path d="m59 38.498h-16c-.553 0-1-.447-1-1v-3c0-.553.447-1 1-1h16c.553 0 1 .447 1 1v3c0 .553-.447 1-1 1zm-15-2h14v-1h-14z"/><path d="m55 29.502h-.999c-.553 0-1-.447-1-1s.447-1 1-1h.999c.553 0 1 .447 1 1s-.447 1-1 1z"/><path d="m55.001 31.5c-.367 0-.72-.202-.896-.553l-.999-1.998c-.247-.494-.047-1.095.447-1.342.494-.246 1.095-.047 1.342.447l.999 1.998c.247.494.047 1.095-.447 1.342-.143.072-.296.106-.446.106z"/><path d="m55 31.5h-.999c-.553 0-1-.447-1-1s.447-1 1-1h.999c.553 0 1 .447 1 1s-.447 1-1 1z"/><path d="m40 44.498h-34.999c-.553 0-1-.447-1-1v-27.998c0-.553.447-1 1-1h34.999c.553 0 1 .447 1 1v27.998c0 .553-.447 1-1 1zm-33.999-2h32.999v-25.998h-32.999z"/><path d="m5.001 15.498c-.553 0-1-.447-1-1 0-1.654 1.346-3 2.999-3 .553 0 1 .447 1 1s-.447 1-1 1c-.551 0-.999.448-.999 1 0 .553-.447 1-1 1z"/><path d="m40 15.498c-.553 0-1-.447-1-1 0-.552-.448-1-1-1-.553 0-1-.447-1-1s.447-1 1-1c1.654 0 3 1.346 3 3 0 .553-.447 1-1 1z"/><path d="m38 13.498h-31c-.553 0-1-.447-1-1s.447-1 1-1h31c.553 0 1 .447 1 1s-.447 1-1 1z"/><path d="m40 16.5c-.553 0-1-.447-1-1v-1.002c0-.553.447-1 1-1s1 .447 1 1v1.002c0 .553-.447 1-1 1z"/><path d="m5.001 16.5c-.553 0-1-.447-1-1v-1.002c0-.553.447-1 1-1s1 .447 1 1v1.002c0 .553-.447 1-1 1z"/><path d="m18.994 20.502h-9.994c-.553 0-1-.447-1-1s.447-1 1-1h9.994c.553 0 1 .447 1 1s-.447 1-1 1z"/><path d="m21.994 24.502h-10.994c-.553 0-1-.447-1-1s.447-1 1-1h10.994c.553 0 1 .447 1 1s-.447 1-1 1z"/><path d="m19 36.506h-8c-.553 0-1-.447-1-1s.447-1 1-1h8c.553 0 1 .447 1 1s-.447 1-1 1z"/><path d="m27.994 24.502h-2c-.553 0-1-.447-1-1s.447-1 1-1h2c.553 0 1 .447 1 1s-.447 1-1 1z"/><path d="m14 40.494h-5c-.553 0-1-.447-1-1s.447-1 1-1h5c.553 0 1 .447 1 1s-.447 1-1 1z"/><path d="m16 28.502h-3c-.553 0-1-.447-1-1s.447-1 1-1h3c.553 0 1 .447 1 1s-.447 1-1 1z"/><path d="m31.994 28.502h-11.994c-.553 0-1-.447-1-1s.447-1 1-1h11.994c.553 0 1 .447 1 1s-.447 1-1 1z"/><path d="m26.994 32.502h-13.994c-.553 0-1-.447-1-1s.447-1 1-1h13.994c.553 0 1 .447 1 1s-.447 1-1 1z"/><path d="m33.994 32.502h-3c-.553 0-1-.447-1-1s.447-1 1-1h3c.553 0 1 .447 1 1s-.447 1-1 1z"/><path d="m5 50.498c-.553 0-1-.447-1-1 0-1.654 1.346-3 3-3 .553 0 1 .447 1 1s-.447 1-1 1c-.552 0-1 .448-1 1 0 .553-.447 1-1 1z"/><path d="m21 50.498c-.553 0-1-.447-1-1 0-.552-.448-1-1-1-.553 0-1-.447-1-1s.447-1 1-1c1.654 0 3 1.346 3 3 0 .553-.447 1-1 1z"/><path d="m19 48.498h-12c-.553 0-1-.447-1-1s.447-1 1-1h12c.553 0 1 .447 1 1s-.447 1-1 1z"/><path d="m21 51.512c-.553 0-1-.447-1-1v-1.014c0-.553.447-1 1-1s1 .447 1 1v1.014c0 .552-.447 1-1 1z"/><path d="m5 51.512c-.553 0-1-.447-1-1v-1.014c0-.553.447-1 1-1s1 .447 1 1v1.014c0 .552-.447 1-1 1z"/><path d="m24 50.498c-.553 0-1-.447-1-1 0-1.654 1.346-3 3-3 .553 0 1 .447 1 1s-.447 1-1 1c-.552 0-1 .448-1 1 0 .553-.447 1-1 1z"/><path d="m40 50.498c-.553 0-1-.447-1-1 0-.552-.448-1-1-1-.553 0-1-.447-1-1s.447-1 1-1c1.654 0 3 1.346 3 3 0 .553-.447 1-1 1z"/><path d="m38 48.498h-12c-.553 0-1-.447-1-1s.447-1 1-1h12c.553 0 1 .447 1 1s-.447 1-1 1z"/><path d="m40 51.512c-.553 0-1-.447-1-1v-1.014c0-.553.447-1 1-1s1 .447 1 1v1.014c0 .552-.447 1-1 1z"/><path d="m24 51.512c-.553 0-1-.447-1-1v-1.014c0-.553.447-1 1-1s1 .447 1 1v1.014c0 .552-.447 1-1 1z"/><path d="m43 50.498c-.553 0-1-.447-1-1 0-1.654 1.346-3 3-3 .553 0 1 .447 1 1s-.447 1-1 1c-.552 0-1 .448-1 1 0 .553-.447 1-1 1z"/><path d="m59 50.498c-.553 0-1-.447-1-1 0-.552-.448-1-1-1-.553 0-1-.447-1-1s.447-1 1-1c1.654 0 3 1.346 3 3 0 .553-.447 1-1 1z"/><path d="m57 48.498h-12c-.553 0-1-.447-1-1s.447-1 1-1h12c.553 0 1 .447 1 1s-.447 1-1 1z"/><path d="m59 51.512c-.553 0-1-.447-1-1v-1.014c0-.553.447-1 1-1s1 .447 1 1v1.014c0 .552-.447 1-1 1z"/><path d="m43 51.512c-.553 0-1-.447-1-1v-1.014c0-.553.447-1 1-1s1 .447 1 1v1.014c0 .552-.447 1-1 1z"/><path d="m12.001 54.498h-4.001c-.553 0-1-.447-1-1s.447-1 1-1h4.001c.553 0 1 .447 1 1s-.447 1-1 1z"/><path d="m15 57.498h-6c-.553 0-1-.447-1-1s.447-1 1-1h6c.553 0 1 .447 1 1s-.447 1-1 1z"/><path d="m30 54.498h-3c-.553 0-1-.447-1-1s.447-1 1-1h3c.553 0 1 .447 1 1s-.447 1-1 1z"/><path d="m35.001 57.498h-7.001c-.553 0-1-.447-1-1s.447-1 1-1h7.001c.553 0 1 .447 1 1s-.447 1-1 1z"/><path d="m50.001 54.498h-4.001c-.553 0-1-.447-1-1s.447-1 1-1h4.001c.553 0 1 .447 1 1s-.447 1-1 1z"/><path d="m53 57.498h-6c-.553 0-1-.447-1-1s.447-1 1-1h6c.553 0 1 .447 1 1s-.447 1-1 1z"/></svg>