<svg id="icons" enable-background="new 0 0 64 64" height="512" viewBox="0 0 64 64" width="512" xmlns="http://www.w3.org/2000/svg"><path d="m25 53.995h14v3h-14z" fill="#545c66"/><g fill="#656d78"><path d="m25 56.995h14v-3h20 4v4c0 1.109-.89 2-2 2h-58c-1.1 0-2-.891-2-2v-4h4 20z"/><path d="m14 19.505v2.49h-9v-1c0-1.11.9-2 2-2h7 .02c-.01.17-.02.34-.02.51z"/><path d="m59 20.995v1h-9v-3h7c1.11 0 2 .89 2 2z"/></g><path d="m14 19.505c0 3.58 2.91 6.49 6.5 6.49h21.5c4.42 0 8-3.58 8-7.99v.99 3 .01c0 4.42-3.58 8-8 8h-21.5c-3.59 0-6.5-2.91-6.5-6.5v-1.51z" fill="#ccd1d9"/><path d="m14 21.995v1.51c0 3.59 2.91 6.5 6.5 6.5h21.5c4.42 0 8-3.58 8-8v-.01h9v32h-20-14-20v-32z" fill="#5d9cec"/><path d="m21.18 13.005c.94-5.12 5.431-9 10.82-9 4.28 0 7.98 2.44 9.8 6h.2c4.42 0 8 3.58 8 8 0 4.41-3.58 7.99-8 7.99h-21.5c-3.59 0-6.5-2.91-6.5-6.49 0-.17.01-.34.02-.51.261-3.351 3.061-5.99 6.48-5.99z" fill="#e6e9ed"/><path d="m3.001 61c-1.654 0-3-1.346-3-3 0-.553.447-1 1-1s1 .447 1 1c0 .552.448 1 1 1 .553 0 1 .447 1 1s-.447 1-1 1z"/><path d="m5.001 21.996c-.553 0-1-.447-1-1 0-1.654 1.346-3 3-3 .553 0 1 .447 1 1s-.447 1-1 1c-.552 0-1 .448-1 1 0 .553-.447 1-1 1z"/><path d="m1.001 59c-.553 0-1-.447-1-1v-4.002c0-.553.447-1 1-1s1 .447 1 1v4.002c0 .553-.447 1-1 1z"/><path d="m61.001 61c-.553 0-1-.447-1-1s.447-1 1-1c.552 0 1-.448 1-1 0-.553.447-1 1-1s1 .447 1 1c0 1.654-1.346 3-3 3z"/><path d="m63.001 59c-.553 0-1-.447-1-1v-4.002c0-.553.447-1 1-1s1 .447 1 1v4.002c0 .553-.447 1-1 1z"/><path d="m63.001 54.998h-62c-.553 0-1-.447-1-1s.447-1 1-1h62c.553 0 1 .447 1 1s-.447 1-1 1z"/><path d="m61.001 61h-58c-.553 0-1-.447-1-1s.447-1 1-1h58c.553 0 1 .447 1 1s-.447 1-1 1z"/><path d="m5.001 54.994c-.553 0-1-.447-1-1v-32.998c0-.553.447-1 1-1s1 .447 1 1v32.998c0 .553-.447 1-1 1z"/><path d="m59.001 21.996c-.553 0-1-.447-1-1 0-.552-.448-1-1-1-.553 0-1-.447-1-1s.447-1 1-1c1.654 0 3 1.346 3 3 0 .553-.447 1-1 1z"/><path d="m59.001 54.994c-.553 0-1-.447-1-1v-32.998c0-.553.447-1 1-1s1 .447 1 1v32.998c0 .553-.447 1-1 1z"/><path d="m57.001 19.996h-6.996c-.553 0-1-.447-1-1s.447-1 1-1h6.996c.553 0 1 .447 1 1s-.447 1-1 1z"/><path d="m14 19.996h-6.999c-.553 0-1-.447-1-1s.447-1 1-1h6.999c.553 0 1 .447 1 1s-.447 1-1 1z"/><path d="m59.001 22.998h-8.997c-.553 0-1-.447-1-1s.447-1 1-1h8.997c.553 0 1 .447 1 1s-.447 1-1 1z"/><path d="m14 22.998h-8.999c-.553 0-1-.447-1-1s.447-1 1-1h8.999c.553 0 1 .447 1 1s-.447 1-1 1z"/><path d="m25.002 57.996c-.553 0-1-.447-1-1v-3.002c0-.553.447-1 1-1s1 .447 1 1v3.002c0 .553-.447 1-1 1z"/><path d="m39.001 57.996h-13.999c-.553 0-1-.447-1-1s.447-1 1-1h13.999c.553 0 1 .447 1 1s-.447 1-1 1z"/><path d="m39.001 57.996c-.553 0-1-.447-1-1v-2.998c0-.553.447-1 1-1s1 .447 1 1v2.998c0 .553-.447 1-1 1z"/><path d="m42.004 27h-21.5c-.553 0-1-.447-1-1s.447-1 1-1h21.5c.553 0 1 .447 1 1s-.447 1-1 1z"/><path d="m43.004 16.004c-.553 0-1-.447-1-1 0-5.514-4.486-10-10-10s-10 4.486-10 10c0 .553-.447 1-1 1s-1-.447-1-1c0-6.617 5.383-12 12-12s12 5.383 12 12c0 .553-.447 1-1 1z"/><path d="m42.004 27c-.553 0-1-.447-1-1s.447-1 1-1c3.859 0 7-3.139 7-6.996 0-3.859-3.141-7-7-7-.553 0-1-.447-1-1s.447-1 1-1c4.963 0 9 4.037 9 9 0 4.961-4.037 8.996-9 8.996z"/><path d="m20.504 27c-4.136 0-7.5-3.363-7.5-7.498s3.364-7.498 7.5-7.498c.553 0 1 .447 1 1s-.447 1-1 1c-3.032 0-5.5 2.467-5.5 5.498s2.468 5.498 5.5 5.498c.553 0 1 .447 1 1s-.447 1-1 1z"/><path d="m42.004 31.004h-21.5c-.553 0-1-.447-1-1s.447-1 1-1h21.5c.553 0 1 .447 1 1s-.447 1-1 1z"/><path d="m42.004 31.004c-.553 0-1-.447-1-1s.447-1 1-1c3.859 0 7-3.14 7-6.998 0-.553.447-1 1-1s1 .447 1 1c0 4.962-4.037 8.998-9 8.998z"/><path d="m20.504 31.004c-4.136 0-7.5-3.363-7.5-7.498 0-.553.447-1 1-1s1 .447 1 1c0 3.031 2.468 5.498 5.5 5.498.553 0 1 .447 1 1s-.447 1-1 1z"/><path d="m21.186 14.004h-.682c-.553 0-1-.447-1-1s.447-1 1-1h.682c.553 0 1 .447 1 1s-.448 1-1 1z"/><path d="m42.004 11.004h-.199c-.553 0-1-.447-1-1s.447-1 1-1h.199c.553 0 1 .447 1 1s-.447 1-1 1z"/><path d="m14.004 24.506c-.553 0-1-.447-1-1v-4.004c0-.553.447-1 1-1s1 .447 1 1v4.004c0 .553-.447 1-1 1z"/><path d="m50.004 23.006c-.553 0-1-.447-1-1v-4.002c0-.553.447-1 1-1s1 .447 1 1v4.002c0 .553-.447 1-1 1z"/><path d="m27.001 48.006c-.553 0-1-.447-1-1v-11.002c0-.553.447-1 1-1s1 .447 1 1v11.002c0 .553-.447 1-1 1z"/><path d="m27.001 48.006c-.256 0-.512-.098-.707-.293-.391-.391-.391-1.023 0-1.414l2-2c.391-.391 1.023-.391 1.414 0s.391 1.023 0 1.414l-2 2c-.195.195-.451.293-.707.293z"/><path d="m27.001 48.006c-.256 0-.512-.098-.707-.293l-2-2c-.391-.391-.391-1.023 0-1.414s1.023-.391 1.414 0l2 2c.391.391.391 1.023 0 1.414-.195.195-.451.293-.707.293z"/><path d="m37.002 48.006c-.553 0-1-.447-1-1v-11.002c0-.553.447-1 1-1s1 .447 1 1v11.002c0 .553-.447 1-1 1z"/><path d="m35.002 39.004c-.256 0-.512-.098-.707-.293-.391-.391-.391-1.023 0-1.414l2-2c.391-.391 1.023-.391 1.414 0s.391 1.023 0 1.414l-2 2c-.195.195-.451.293-.707.293z"/><path d="m39.002 39.004c-.256 0-.512-.098-.707-.293l-2-2c-.391-.391-.391-1.023 0-1.414s1.023-.391 1.414 0l2 2c.391.391.391 1.023 0 1.414-.195.195-.451.293-.707.293z"/></svg>