<svg height="512pt" viewBox="0 0 512 512.004" width="512pt" xmlns="http://www.w3.org/2000/svg"><path d="m328.199219 154.191406 29.613281 29.613282-9.871094 19.742187 9.871094 19.742187-9.871094 19.742188 9.871094 19.742188-9.871094 19.742187 9.871094 19.742187-9.871094 19.742188 9.871094 19.742188-5.355469 10.710937 9.03125-4.515625 19.742188 9.871094 19.742187-9.871094 19.742188 9.871094 19.742187-9.871094 19.742188 9.871094 29.613281-29.613282-9.871094-19.742187 9.871094-19.742187-9.871094-19.742188 9.871094-19.742188-9.871094-19.742187 9.871094-19.742187-9.871094-19.742188 9.871094-19.742188-9.871094-19.742187 9.871094-19.742187-9.871094-19.742188 9.871094-19.746094-9.871094-19.742187 9.871094-19.738281-29.613281-29.617188-19.742188 9.871094-19.742187-9.871094-19.742188 9.871094-19.742187-9.871094-19.742188 9.871094-19.742187-9.871094-19.742188 9.871094-19.742187-9.871094-19.742188 9.871094-19.742187-9.871094-19.746094 9.871094-19.738281-9.871094-19.746094 9.871094-19.742187-9.871094-29.613282 29.617188 9.871094 19.738281-9.871094 19.742187 9.871094 19.746094-9.871094 19.742188 9.871094 19.742187-4.515625 9.03125 10.710937-5.355469 19.742188 9.871094 19.746094-9.871094 19.738281 9.871094 19.746094-9.871094 19.742187 9.871094 19.742188-9.871094 19.742187 9.871094zm0 0" fill="#aae2c9" fill-rule="evenodd"/><path d="m51.804688 154.191406 19.742187 9.871094 19.742187-9.871094 19.742188 9.871094 19.742188-9.871094 19.742187 9.871094 19.742187-9.871094 19.742188 9.871094 19.746094-9.871094 19.738281 9.871094 19.746094-9.871094 19.742187 9.871094 19.742188-9.871094 19.742187 9.871094 19.742188-9.871094 29.613281 29.613282-9.871094 19.742187 9.871094 19.742187-9.871094 19.742188 9.871094 19.742188-9.871094 19.742187 9.871094 19.742187-9.871094 19.742188 9.871094 19.742188-9.871094 19.742187 9.871094 19.742187-9.871094 19.742188 9.871094 19.742188-9.871094 19.742187 9.871094 19.742187-29.613281 29.613282-19.742188-9.871094-19.742187 9.871094-19.742188-9.871094-19.742187 9.871094-19.746094-9.871094-19.738281 9.871094-19.746094-9.871094-19.742188 9.871094-19.742187-9.871094-19.742187 9.871094-19.742188-9.871094-19.742188 9.871094-19.742187-9.871094-19.742187 9.871094-29.613282-29.613282 9.871094-19.742187-9.871094-19.742187 9.871094-19.742188-9.871094-19.742188 9.871094-19.742187-9.871094-19.742187 9.871094-19.742188-9.871094-19.742188 9.871094-19.742187-9.871094-19.742187 9.871094-19.742188-9.871094-19.742188 9.871094-19.742187-9.871094-19.742187zm0 0" fill="#ff9256" fill-rule="evenodd"/><path d="m495.992188 140.769531h6.011718c5.519532 0 10-4.476562 10-9.996093 0-5.523438-4.480468-10-10-10h-6.011718l-4.871094-9.742188 4.871094-9.742188h6.011718c5.519532 0 10-4.480468 10-10 0-5.523437-4.480468-10-10-10h-6.011718l-4.871094-9.746093 7.636718-15.269531c1.925782-3.847657 1.171876-8.5-1.871093-11.542969l-29.617188-29.613281c-3.042969-3.042969-7.691406-3.796876-11.542969-1.875l-15.269531 7.636718-9.742187-4.871094v-6.007812c0-5.523438-4.476563-10-10-10-5.523438 0-10 4.476562-10 10v6.007812l-9.742188 4.871094-9.742187-4.871094v-6.007812c0-5.523438-4.480469-10-10-10-5.523438 0-10 4.476562-10 10v6.007812l-9.742188 4.871094-9.742187-4.871094v-6.007812c0-5.523438-4.476563-10-10-10-5.523438 0-10 4.476562-10 10v6.007812l-9.742188 4.871094-9.742187-4.871094v-6.007812c0-5.523438-4.480469-10-10-10-5.523438 0-10 4.476562-10 10v6.007812l-9.742188 4.871094-9.742187-4.871094v-6.007812c0-5.523438-4.476563-10-10-10-5.523438 0-10 4.476562-10 10v6.007812l-9.742188 4.871094-9.742187-4.871094v-6.007812c0-5.523438-4.476563-10-10-10-5.523438 0-10 4.476562-10 10v6.007812l-14.214844 7.109376c-4.941406 2.46875-6.941406 8.476562-4.472656 13.414062 2.472656 4.941406 8.476562 6.941406 13.417969 4.472656l5.269531-2.632812v5.714844c0 5.523437 4.476562 10 10 10 5.523437 0 10-4.476563 10-10v-5.714844l5.269531 2.632812c2.816406 1.410156 6.128906 1.40625 8.945312 0l5.269532-2.632812v5.714844c0 5.523437 4.480468 10 10 10 5.523437 0 10-4.476563 10-10v-5.714844l5.269531 2.632812c2.816406 1.40625 6.128906 1.40625 8.945313 0l5.269531-2.632812v5.714844c0 5.523437 4.480469 10 10 10 5.523437 0 10-4.476563 10-10v-5.714844l5.269531 2.632812c2.816406 1.410156 6.128906 1.40625 8.945312 0l5.273438-2.632812v5.714844c0 5.523437 4.476562 10 10 10 5.519531 0 10-4.476563 10-10v-5.714844l5.269531 2.632812c2.816407 1.40625 6.128907 1.40625 8.945313 0l5.269531-2.632812v5.714844c0 5.523437 4.476563 10 10 10 5.519531 0 10-4.476563 10-10v-5.714844l5.269531 2.632812c2.816406 1.410156 6.128906 1.40625 8.945313 0l5.269531-2.632812v5.714844c0 5.523437 4.480469 10 10 10 5.523438 0 10-4.476563 10-10v-5.714844l5.269531 2.632812c2.816407 1.40625 6.128907 1.40625 8.945313 0l13.296875-6.648437 19.417969 19.421875-6.644532 13.296875c-1.410156 2.8125-1.410156 6.128906 0 8.945312l2.632813 5.269531h-5.714844c-5.523437 0-10 4.476563-10 10 0 5.523438 4.476563 10 10 10h5.714844l-2.632813 5.269532c-1.410156 2.816406-1.410156 6.128906 0 8.945312l2.632813 5.269532h-5.714844c-5.523437 0-10 4.476562-10 10 0 5.523437 4.476563 10 10 10h5.714844l-2.632813 5.269531c-1.410156 2.816406-1.410156 6.128906 0 8.945312l2.632813 5.269531h-5.714844c-5.523437 0-10 4.480469-10 10 0 5.523438 4.476563 10 10 10h5.714844l-2.632813 5.269532c-1.410156 2.816406-1.410156 6.132812 0 8.945312l2.632813 5.273438h-5.714844c-5.523437 0-10 4.476562-10 10 0 5.519531 4.476563 10 10 10h5.714844l-2.632813 5.269531c-1.410156 2.8125-1.410156 6.128906 0 8.945313l2.632813 5.269531h-5.714844c-5.523437 0-10 4.476562-10 10 0 5.523437 4.476563 10 10 10h5.714844l-2.636719 5.269531c-1.40625 2.816406-1.40625 6.128906 0 8.945312l2.636719 5.269532h-5.714844c-5.523437 0-10 4.480468-10 10 0 5.523437 4.476563 10 10 10h5.714844l-2.636719 5.269531c-1.40625 2.816406-1.40625 6.128906 0 8.945313l6.648438 13.296874-19.421876 19.421876-13.292968-6.648438c-2.816406-1.410156-6.128906-1.410156-8.945313 0l-5.269531 2.632812v-5.714843c0-5.523438-4.476562-10-10-10s-10 4.476562-10 10v5.714843l-5.269531-2.636718c-2.816407-1.40625-6.128907-1.40625-8.945313 0l-15.269531 7.636718-13.621094-6.808593c-.171875-.875-.445312-1.734375-.855469-2.546875l-7.632812-15.273438 4.871094-9.742187h6.007812c5.523438 0 10-4.476563 10-10 0-5.519531-4.476562-10-10-10h-6.007812l-4.871094-9.742188 4.871094-9.742187h6.007812c5.523438 0 10-4.476563 10-10 0-5.519532-4.476562-10-10-10h-6.007812l-4.871094-9.742188 4.871094-9.742187h6.007812c5.523438 0 10-4.476563 10-10 0-5.523438-4.476562-10-10-10h-6.007812l-4.871094-9.742188 7.632812-15.269531c1.925782-3.851562 1.171876-8.5-1.871093-11.542969l-29.613281-29.613281c-3.042969-3.042969-7.691407-3.796875-11.542969-1.875l-15.269531 7.636719-9.742188-4.871094v-6.007813c0-5.523437-4.476562-10-10-10s-10 4.476563-10 10v6.007813l-9.742188 4.871094-9.742187-4.871094v-6.007813c0-5.523437-4.476563-10-10-10s-10 4.476563-10 10v6.007813l-9.742187 4.871094-9.742188-4.871094v-6.007813c0-5.523437-4.476562-10-10-10s-10 4.476563-10 10v6.007813l-9.742188 4.871094-15.273437-7.636719c-.8125-.40625-1.671875-.679688-2.546875-.855469l-6.808594-13.617187 7.632813-15.273438c1.40625-2.8125 1.410156-6.128906 0-8.941406l-2.636719-5.269531h5.71875c5.523438 0 10-4.480469 10-10 0-5.523438-4.476562-10-10-10h-5.71875l2.636719-5.273438c2.46875-4.9375.464843-10.945312-4.472657-13.414062-4.941406-2.472657-10.945312-.46875-13.417968 4.472656l-7.105469 14.214844h-6.007813c-5.523437 0-10 4.476562-10 10 0 5.519531 4.476563 10 10 10h6.007813l4.871094 9.742187-7.636719 15.269532c-1.40625 2.816406-1.40625 6.128906 0 8.945312l7.636719 15.269531-.789063 1.578125-1.578125.789063-9.742187-4.871094v-6.007813c0-5.523437-4.476563-10-10-10-5.523438 0-10 4.476563-10 10v6.007813l-9.742188 4.871094-9.742187-4.871094v-6.007813c0-5.523437-4.476563-10-10-10-5.523438 0-10 4.476563-10 10v6.007813l-9.742188 4.871094-15.269531-7.632813c-3.851562-1.925781-8.5-1.171875-11.542969 1.871094l-29.617187 29.613281c-3.042969 3.042969-3.796875 7.691407-1.871094 11.542969l7.632812 15.269531-4.871093 9.742188h-6.007813c-5.523437 0-9.99999975 4.480469-9.99999975 10 0 5.523437 4.47656275 10 9.99999975 10h6.007813l4.871093 9.742187-4.871093 9.742188h-6.007813c-5.523437 0-9.99999975 4.480468-9.99999975 10 0 5.523437 4.47656275 10 9.99999975 10h6.007813l4.871093 9.742187-4.871093 9.742188h-6.007813c-5.523437 0-9.99999975 4.480469-9.99999975 10 0 5.523437 4.47656275 10 9.99999975 10h6.007813l4.871093 9.742187-4.871093 9.742188h-6.007813c-5.523437 0-9.99999975 4.480468-9.99999975 10 0 5.523437 4.47656275 10 9.99999975 10h6.007813l4.871093 9.742187-4.871093 9.742188h-6.007813c-5.523437 0-9.99999975 4.480469-9.99999975 10 0 5.523437 4.47656275 10 9.99999975 10h6.007813l4.871093 9.742187-4.871093 9.742188h-6.007813c-5.523437 0-9.99999975 4.480468-9.99999975 10 0 5.523437 4.47656275 10 9.99999975 10h6.007813l4.871093 9.742187-7.636718 15.273438c-1.925782 3.847656-1.167969 8.496093 1.875 11.542969l29.613281 29.613281c1.917969 1.917969 4.476563 2.929687 7.074219 2.929687 1.515625 0 3.046875-.347656 4.46875-1.058594l15.269531-7.632812 9.742187 4.871094v6.007812c0 5.523438 4.476563 10 10 10 5.523438 0 10-4.476562 10-10v-6.007812l9.742188-4.871094 9.742188 4.871094v6.007812c0 5.523438 4.476562 10 10 10 5.523437 0 10-4.476562 10-10v-6.007812l9.742187-4.871094 9.742187 4.871094v6.007812c0 5.523438 4.476563 10 10 10 5.523438 0 10-4.476562 10-10v-6.007812l9.742188-4.871094 9.742188 4.871094v6.007812c0 5.523438 4.476562 10 10 10 5.523437 0 10-4.476562 10-10v-6.007812l9.742187-4.871094 9.742187 4.871094v6.007812c0 5.523438 4.476563 10 10 10 5.523438 0 10-4.476562 10-10v-6.007812l9.742188-4.871094 9.742188 4.871094v6.007812c0 5.523438 4.480468 10 10 10 5.523437 0 10-4.476562 10-10v-6.011718l9.742187-4.867188 15.273437 7.632812c3.847657 1.929688 8.5 1.171876 11.542969-1.871093l29.609375-29.613281c3.042969-3.046876 3.800782-7.695313 1.875-11.542969l-7.636718-15.273438 4.871093-9.738281h6.011719c5.519531 0 10-4.480469 10-10 0-5.523438-4.480469-10-10-10h-6.011719l-4.871093-9.746094 4.871093-9.738281h6.011719c5.519531 0 10-4.480469 10-10 0-5.523437-4.480469-10-10-10h-6.011719l-4.871093-9.746094.789062-1.578125 1.578125-.789062 15.269531 7.636718c2.816406 1.40625 6.128906 1.40625 8.945313 0l15.269531-7.636718 9.742188 4.871094v6.007812c0 5.519531 4.480468 10 10 10 5.523437 0 10-4.480469 10-10v-6.011719l9.742187-4.871093 15.273437 7.636718c1.417969.710938 2.949219 1.054688 4.46875 1.054688 2.59375 0 5.152344-1.007813 7.074219-2.929688l29.613281-29.609375c3.042969-3.046875 3.796876-7.695312 1.871094-11.546875l-7.636718-15.269531 4.871093-9.742187h6.011719c5.519531 0 10-4.476563 10-10 0-5.519532-4.480469-10-10-10h-6.007812l-4.875-9.742188 4.875-9.742188h6.007812c5.519531 0 10-4.476562 10-10 0-5.523437-4.480469-10-10-10h-6.007812l-4.875-9.742187 4.871093-9.742187h6.011719c5.519531 0 10-4.476563 10-10 0-5.519532-4.480469-10-10-10h-6.007812l-4.871094-9.742188 4.871094-9.742188h6.011718c5.519532 0 10-4.476562 10-10 0-5.523437-4.480468-10-10-10h-6.011718l-4.871094-9.742187zm-160.078126 250.457031h5.71875l-2.636718 5.273438c-1.40625 2.8125-1.40625 6.128906 0 8.941406l2.636718 5.269532h-5.71875c-5.523437 0-10 4.480468-10 10 0 5.523437 4.476563 10 10 10h5.714844l-2.632812 5.269531c-1.40625 2.816406-1.40625 6.128906 0 8.945312l6.648437 13.296875-19.421875 19.421875-13.296875-6.648437c-2.8125-1.410156-6.128906-1.410156-8.941406 0l-5.273437 2.632812v-5.714844c0-5.523437-4.476563-10-10-10-5.519532 0-10 4.476563-10 10v5.714844l-5.269532-2.632812c-2.816406-1.410156-6.128906-1.410156-8.945312 0l-5.269532 2.632812v-5.714844c0-5.523437-4.476562-10-10-10-5.523437 0-10 4.476563-10 10v5.714844l-5.269531-2.632812c-2.816406-1.410156-6.128906-1.410156-8.945312 0l-5.269531 2.632812v-5.714844c0-5.523437-4.476563-10-10-10-5.523438 0-10 4.476563-10 10v5.714844l-5.269532-2.632812c-2.8125-1.410156-6.128906-1.410156-8.945312 0l-5.269532 2.632812v-5.714844c0-5.523437-4.476562-10-10-10-5.523437 0-10 4.476563-10 10v5.714844l-5.269531-2.632812c-2.816406-1.410156-6.128906-1.410156-8.945312 0l-5.269531 2.632812v-5.714844c0-5.523437-4.476563-10-10-10-5.523438 0-10 4.476563-10 10v5.714844l-5.269532-2.632812c-2.816406-1.410156-6.128906-1.410156-8.945312 0l-5.269532 2.632812v-5.714844c0-5.523437-4.476562-10-10-10-5.523437 0-10 4.476563-10 10v5.714844l-5.269531-2.632812c-1.410156-.707032-2.941406-1.058594-4.472656-1.058594s-3.0625.351562-4.472656 1.058594l-13.292969 6.644531-19.421875-19.421875 6.648437-13.292969c1.40625-2.816406 1.40625-6.128906 0-8.945312l-2.636718-5.269531h5.71875c5.523437 0 10-4.480469 10-10 0-5.523438-4.476563-10-10-10h-5.71875l2.636718-5.273438c1.40625-2.8125 1.40625-6.125 0-8.941406l-2.636718-5.269532h5.714844c5.523437 0 10-4.480468 10-10 0-5.523437-4.476563-10-10-10h-5.714844l2.636718-5.273437c1.40625-2.8125 1.40625-6.128906 0-8.941406l-2.636718-5.269531h5.71875c5.523437 0 10-4.480469 10-10 0-5.523438-4.476563-10-10-10h-5.71875l2.636718-5.273438c1.40625-2.8125 1.40625-6.128906 0-8.941406l-2.636718-5.273438h5.714844c5.523437 0 10-4.476562 10-10 0-5.519531-4.476563-10-10-10h-5.714844l2.636718-5.269531c1.40625-2.8125 1.40625-6.128906 0-8.941406l-2.636718-5.273438h5.71875c5.523437 0 10-4.476562 10-10 0-5.519531-4.476563-10-10-10h-5.71875l2.636718-5.269531c1.40625-2.8125 1.40625-6.128906 0-8.941406l-2.636718-5.273438h5.714844c5.523437 0 10-4.476562 10-10 0-5.519531-4.476563-10-10-10h-5.714844l2.636718-5.269531c1.40625-2.8125 1.40625-6.128906 0-8.945313l-6.648437-13.292968 19.421875-19.421875 13.292969 6.648437c2.816406 1.40625 6.128906 1.40625 8.945312 0l5.269531-2.636718v5.71875c0 5.519531 4.476563 10 10 10 5.523438 0 10-4.480469 10-10v-5.71875l5.273438 2.636718c2.8125 1.40625 6.128906 1.40625 8.941406 0l5.269532-2.636718v5.71875c0 5.519531 4.476562 10 10 10 5.523437 0 10-4.480469 10-10v-5.71875l5.273437 2.636718c2.8125 1.40625 6.128906 1.40625 8.941406 0l15.269531-7.636718 15.273438 7.636718c2.8125 1.40625 6.128906 1.40625 8.941406 0l5.273438-2.636718v5.71875c0 5.519531 4.476562 10 10 10 5.519531 0 10-4.480469 10-10v-5.71875l5.269531 2.636718c2.8125 1.40625 6.128906 1.40625 8.941406 0l5.273438-2.636718v5.71875c0 5.519531 4.476562 10 10 10 5.523437 0 10-4.480469 10-10v-5.71875l5.269531 2.636718c2.8125 1.40625 6.128906 1.40625 8.941406 0l5.273438-2.636718v5.71875c0 5.519531 4.476562 10 10 10 5.519531 0 10-4.480469 10-10v-5.714844l5.269531 2.632812c2.8125 1.410156 6.128906 1.410156 8.941406 0l13.296875-6.648437 19.421875 19.421875-6.648437 13.296875c-1.40625 2.8125-1.40625 6.128906 0 8.941406l2.636718 5.273437h-5.71875c-5.523437 0-10 4.476563-10 10 0 5.519532 4.476563 9.996094 10 9.996094h5.71875l-2.636718 5.273438c-1.40625 2.816406-1.40625 6.128906 0 8.941406l2.632812 5.273438h-5.714844c-5.523437 0-10 4.476562-10 10 0 5.519531 4.476563 10 10 10h5.714844l-2.632812 5.269531c-1.40625 2.8125-1.40625 6.128906 0 8.941406l2.636718 5.273437h-5.71875c-5.523437 0-10 4.476563-10 10 0 5.519532 4.476563 10 10 10h5.71875l-2.636718 5.269532c-1.40625 2.8125-1.40625 6.128906 0 8.945312l7.636718 15.269532-7.636718 15.269531c-1.40625 2.816406-1.40625 6.128906 0 8.945312l2.636718 5.269531h-5.71875c-5.519531 0-10 4.476563-10 10 0 5.523438 4.476563 10 10 10zm0 0"/><path d="m190.003906 311.996094c-5.523437 0-10 4.480468-10 10v.007812c0 5.523438 4.476563 9.996094 10 9.996094 5.519532 0 10-4.480469 10-10.003906 0-5.523438-4.480468-10-10-10zm0 0"/><path d="m140.003906 311.996094c-5.523437 0-10 4.480468-10 10v.007812c0 5.523438 4.476563 9.996094 10 9.996094 5.523438 0 10-4.480469 10-10.003906 0-5.523438-4.476562-10-10-10zm0 0"/><path d="m90.003906 311.996094c-5.523437 0-10 4.480468-10 10v.007812c0 5.523438 4.476563 9.996094 10 9.996094 5.523438 0 10-4.480469 10-10.003906 0-5.523438-4.476562-10-10-10zm0 0"/><path d="m240 311.996094c-5.523438 0-10 4.480468-10 10v.007812c0 5.523438 4.476562 9.996094 10 9.996094s10-4.480469 10-10.003906c0-5.523438-4.476562-10-10-10zm0 0"/><path d="m290 311.996094c-5.519531 0-10 4.480468-10 10v.007812c0 5.523438 4.480469 9.996094 10 9.996094 5.523438 0 10-4.480469 10-10.003906 0-5.523438-4.476562-10-10-10zm0 0"/><path d="m190.003906 361.996094c-5.523437 0-10 4.476562-10 10v.007812c0 5.523438 4.476563 9.996094 10 9.996094 5.519532 0 10-4.480469 10-10.003906 0-5.523438-4.480468-10-10-10zm0 0"/><path d="m140.003906 361.996094c-5.523437 0-10 4.476562-10 10v.007812c0 5.523438 4.476563 9.996094 10 9.996094 5.523438 0 10-4.480469 10-10.003906 0-5.523438-4.476562-10-10-10zm0 0"/><path d="m90.003906 361.996094c-5.523437 0-10 4.476562-10 10v.007812c0 5.523438 4.476563 9.996094 10 9.996094 5.523438 0 10-4.480469 10-10.003906 0-5.523438-4.476562-10-10-10zm0 0"/><path d="m240 361.996094c-5.523438 0-10 4.476562-10 10v.007812c0 5.523438 4.476562 9.996094 10 9.996094s10-4.480469 10-10.003906c0-5.523438-4.476562-10-10-10zm0 0"/><path d="m290 361.996094c-5.519531 0-10 4.476562-10 10v.007812c0 5.523438 4.480469 9.996094 10 9.996094 5.523438 0 10-4.480469 10-10.003906 0-5.523438-4.476562-10-10-10zm0 0"/><path d="m190.003906 411.996094c-5.523437 0-10 4.476562-10 10v.007812c0 5.519532 4.476563 9.996094 10 9.996094 5.519532 0 10-4.480469 10-10.003906 0-5.523438-4.480468-10-10-10zm0 0"/><path d="m140.003906 411.996094c-5.523437 0-10 4.476562-10 10v.007812c0 5.519532 4.476563 9.996094 10 9.996094 5.523438 0 10-4.480469 10-10.003906 0-5.523438-4.476562-10-10-10zm0 0"/><path d="m90.003906 411.996094c-5.523437 0-10 4.476562-10 10v.007812c0 5.519532 4.476563 9.996094 10 9.996094 5.523438 0 10-4.480469 10-10.003906 0-5.523438-4.476562-10-10-10zm0 0"/><path d="m240 411.996094c-5.523438 0-10 4.476562-10 10v.007812c0 5.519532 4.476562 9.996094 10 9.996094s10-4.480469 10-10.003906c0-5.523438-4.476562-10-10-10zm0 0"/><path d="m290 411.996094c-5.519531 0-10 4.476562-10 10v.007812c0 5.519532 4.480469 9.996094 10 9.996094 5.523438 0 10-4.480469 10-10.003906 0-5.523438-4.476562-10-10-10zm0 0"/><path d="m190.003906 261.996094c-5.523437 0-10 4.480468-10 10v.007812c0 5.523438 4.476563 9.996094 10 9.996094 5.519532 0 10-4.480469 10-10.003906 0-5.523438-4.480468-10-10-10zm0 0"/><path d="m140.003906 261.996094c-5.523437 0-10 4.480468-10 10v.007812c0 5.523438 4.476563 9.996094 10 9.996094 5.523438 0 10-4.480469 10-10.003906 0-5.523438-4.476562-10-10-10zm0 0"/><path d="m90.003906 261.996094c-5.523437 0-10 4.480468-10 10v.007812c0 5.523438 4.476563 9.996094 10 9.996094 5.523438 0 10-4.480469 10-10.003906 0-5.523438-4.476562-10-10-10zm0 0"/><path d="m240 261.996094c-5.523438 0-10 4.480468-10 10v.007812c0 5.523438 4.476562 9.996094 10 9.996094s10-4.480469 10-10.003906c0-5.523438-4.476562-10-10-10zm0 0"/><path d="m290 261.996094c-5.519531 0-10 4.480468-10 10v.007812c0 5.523438 4.480469 9.996094 10 9.996094 5.523438 0 10-4.480469 10-10.003906 0-5.523438-4.476562-10-10-10zm0 0"/><path d="m190.003906 211.996094c-5.523437 0-10 4.480468-10 10v.007812c0 5.523438 4.476563 9.996094 10 9.996094 5.519532 0 10-4.480469 10-10.003906 0-5.523438-4.480468-10-10-10zm0 0"/><path d="m140.003906 211.996094c-5.523437 0-10 4.480468-10 10v.007812c0 5.523438 4.476563 9.996094 10 9.996094 5.523438 0 10-4.480469 10-10.003906 0-5.523438-4.476562-10-10-10zm0 0"/><path d="m90.003906 211.996094c-5.523437 0-10 4.480468-10 10v.007812c0 5.523438 4.476563 9.996094 10 9.996094 5.523438 0 10-4.480469 10-10.003906 0-5.523438-4.476562-10-10-10zm0 0"/><path d="m240 211.996094c-5.523438 0-10 4.480468-10 10v.007812c0 5.523438 4.476562 9.996094 10 9.996094s10-4.480469 10-10.003906c0-5.523438-4.476562-10-10-10zm0 0"/><path d="m290 211.996094c-5.519531 0-10 4.480468-10 10v.007812c0 5.523438 4.480469 9.996094 10 9.996094 5.523438 0 10-4.480469 10-10.003906 0-5.523438-4.476562-10-10-10zm0 0"/><path d="m168.996094 47c2.402344 0 4.808594-.859375 6.726562-2.601562l.003906-.003907c4.085938-3.714843 4.382813-10.035156.667969-14.125-3.710937-4.082031-10.039062-4.382812-14.125-.667969-4.085937 3.714844-4.390625 10.039063-.675781 14.125 1.976562 2.171876 4.683594 3.273438 7.402344 3.273438zm0 0"/></svg>