<?xml version="1.0" encoding="iso-8859-1"?>
<!-- Generator: Adobe Illustrator 19.0.0, SVG Export Plug-In . SVG Version: 6.00 Build 0)  -->
<svg version="1.1" id="Capa_1" xmlns="http://www.w3.org/2000/svg" xmlns:xlink="http://www.w3.org/1999/xlink" x="0px" y="0px"
	 viewBox="0 0 384 384" style="enable-background:new 0 0 384 384;" xml:space="preserve">
<polygon style="fill:#EFEEEE;" points="72,8 376,8 376,280 280,376 72,376 "/>
<polygon style="fill:#ABABAB;" points="280,280 376,280 280,376 "/>
<rect x="8" y="88" style="fill:#15498A;" width="256" height="128"/>
<path style="fill:#010101;" d="M64,0v80H0v144h64v160h224l96-96V0H64z M16,96h240v112H16V96z M288,361.376V288h73.376L288,361.376z
	 M368,272h-96v96H80V224h192V80H80V16h288V272z"/>
<g>
	<path style="fill:#FFFFFF;" d="M88.928,129.184H73.952V186.4H60.128v-57.216H45.152v-11.328h43.776L88.928,129.184L88.928,129.184z
		"/>
	<path style="fill:#FFFFFF;" d="M116.88,117.856l8.832,22.176l8.736-22.176h15.056l-15.92,33.888l17.072,34.656h-15.552
		l-9.888-23.232l-9.792,23.232h-15.152l17.072-34.656l-15.728-33.888L116.88,117.856z"/>
	<path style="fill:#FFFFFF;" d="M205.76,129.184h-14.992V186.4H176.96v-57.216h-14.976v-11.328h43.776V129.184z"/>
</g>
<g>
</g>
<g>
</g>
<g>
</g>
<g>
</g>
<g>
</g>
<g>
</g>
<g>
</g>
<g>
</g>
<g>
</g>
<g>
</g>
<g>
</g>
<g>
</g>
<g>
</g>
<g>
</g>
<g>
</g>
</svg>
