<svg width="376" height="24" viewBox="0 0 376 24" fill="none" xmlns="http://www.w3.org/2000/svg">
<path d="M26.3417 12.5217L173.677 12.3196L26.3417 12.5217Z" fill="#E5E5E5"/>
<path d="M26.3417 12.5217L173.677 12.3196" stroke="#D6D4CC" stroke-width="4" stroke-miterlimit="10"/>
<path d="M201.965 12.0505L349.3 11.8483L201.965 12.0505Z" fill="#E5E5E5"/>
<path d="M201.965 12.0505L349.3 11.8483" stroke="#D6D4CC" stroke-width="4" stroke-miterlimit="10"/>
<path d="M12 2C17.5228 2 22 6.47715 22 12C22 17.5228 17.5228 22 12 22C6.47715 22 2 17.5228 2 12C2 6.47715 6.47715 2 12 2Z" fill="#D6D4CC" stroke="#F05133" stroke-width="4" stroke-miterlimit="10"/>
<path d="M104 2C109.523 2 114 6.47715 114 12C114 17.5228 109.523 22 104 22C98.4772 22 94 17.5228 94 12C94 6.47715 98.4772 2 104 2Z" fill="#E5E5E5" stroke="#413000" stroke-width="4" stroke-miterlimit="10"/>
<path d="M189 2C194.523 2 199 6.47715 199 12C199 17.5228 194.523 22 189 22C183.477 22 179 17.5228 179 12C179 6.47715 183.477 2 189 2Z" fill="#E5E5E5" stroke="#D6D4CC" stroke-width="4" stroke-miterlimit="10"/>
<path d="M274 2C279.523 2 284 6.47715 284 12C284 17.5228 279.523 22 274 22C268.477 22 264 17.5228 264 12C264 6.47715 268.477 2 274 2Z" fill="#E5E5E5" stroke="#D6D4CC" stroke-width="4" stroke-miterlimit="10"/>
<path d="M364 2C369.523 2 374 6.47715 374 12C374 17.5228 369.523 22 364 22C358.477 22 354 17.5228 354 12C354 6.47715 358.477 2 364 2Z" fill="#E5E5E5" stroke="#D6D4CC" stroke-width="4" stroke-miterlimit="10"/>
</svg>
