<svg width="1273" height="84" viewBox="0 0 1273 84" fill="none" xmlns="http://www.w3.org/2000/svg">
<path d="M88 43L588.001 42.3998L88 43Z" fill="#E5E5E5"/>
<path d="M88 43L588.001 42.3998" stroke="#D6D4CC" stroke-width="4" stroke-miterlimit="10"/>
<path d="M684 41.6006L1184 41.0001L684 41.6006Z" fill="#E5E5E5"/>
<path d="M684 41.6006L1184 41.0001" stroke="#D6D4CC" stroke-width="4" stroke-miterlimit="10"/>
<path d="M40.7069 3.00012C62.0842 3.00012 79.4139 20.3257 79.4139 41.6978C79.4139 63.07 62.0842 80.3955 40.7069 80.3955C19.3297 80.3955 2 63.07 2 41.6978C2 20.3257 19.3297 3.00012 40.7069 3.00012Z" fill="#D6D4CC" stroke="#F05133" stroke-width="4" stroke-miterlimit="10"/>
<path d="M345.707 2.00012C367.084 2.00012 384.414 19.3257 384.414 40.6978C384.414 62.07 367.084 79.3955 345.707 79.3955C324.33 79.3955 307 62.07 307 40.6978C307 19.3257 324.33 2.00012 345.707 2.00012Z" fill="#E5E5E5" stroke="#413000" stroke-width="4" stroke-miterlimit="10"/>
<path d="M635.707 4.00011C657.084 4.00011 674.414 21.3256 674.414 42.6978C674.414 64.07 657.084 81.3955 635.707 81.3955C614.33 81.3955 597 64.07 597 42.6978C597 21.3256 614.33 4.00011 635.707 4.00011Z" fill="#E5E5E5" stroke="#D6D4CC" stroke-width="4" stroke-miterlimit="10"/>
<path d="M926.707 2.00012C948.084 2.00012 965.414 19.3257 965.414 40.6978C965.414 62.07 948.084 79.3955 926.707 79.3955C905.33 79.3955 888 62.07 888 40.6978C888 19.3257 905.33 2.00012 926.707 2.00012Z" fill="#E5E5E5" stroke="#D6D4CC" stroke-width="4" stroke-miterlimit="10"/>
<path d="M1231.71 3.00012C1253.08 3.00012 1270.41 20.3257 1270.41 41.6978C1270.41 63.07 1253.08 80.3955 1231.71 80.3955C1210.33 80.3955 1193 63.07 1193 41.6978C1193 20.3257 1210.33 3.00012 1231.71 3.00012Z" fill="#E5E5E5" stroke="#D6D4CC" stroke-width="4" stroke-miterlimit="10"/>
<path d="M31.8297 49.198C29.9963 49.198 28.5957 48.5233 27.6277 47.174C26.6597 45.81 26.1757 43.83 26.1757 41.234C26.1757 38.6527 26.6597 36.6873 27.6277 35.338C28.5957 33.974 29.9963 33.292 31.8297 33.292C33.663 33.292 35.0637 33.974 36.0317 35.338C36.9997 36.6873 37.4837 38.6527 37.4837 41.234C37.4837 43.8153 36.9997 45.788 36.0317 47.152C35.0637 48.516 33.663 49.198 31.8297 49.198ZM31.8297 46.976C32.827 46.976 33.553 46.5213 34.0077 45.612C34.4623 44.688 34.6897 43.2287 34.6897 41.234C34.6897 39.2247 34.4623 37.7727 34.0077 36.878C33.553 35.9687 32.827 35.514 31.8297 35.514C30.8323 35.514 30.1063 35.9687 29.6517 36.878C29.197 37.7873 28.9697 39.2393 28.9697 41.234C28.9697 43.2287 29.197 44.688 29.6517 45.612C30.1063 46.5213 30.8323 46.976 31.8297 46.976ZM41.1491 49.132C40.6797 49.132 40.2911 48.978 39.9831 48.67C39.6751 48.3473 39.5211 47.9513 39.5211 47.482C39.5211 47.0127 39.6751 46.624 39.9831 46.316C40.2911 45.9933 40.6797 45.832 41.1491 45.832C41.6184 45.832 42.0071 45.9933 42.3151 46.316C42.6231 46.624 42.7771 47.0127 42.7771 47.482C42.7771 47.9513 42.6231 48.3473 42.3151 48.67C42.0071 48.978 41.6184 49.132 41.1491 49.132ZM54.9001 46.712C55.7801 46.712 56.2201 47.086 56.2201 47.834C56.2201 48.6113 55.7801 49 54.9001 49H47.4641C46.5694 49 46.1221 48.6113 46.1221 47.834C46.1221 47.086 46.5694 46.712 47.4641 46.712H49.7521V36.68L47.6401 37.978C47.4348 38.0953 47.2514 38.154 47.0901 38.154C46.7821 38.154 46.5181 38.022 46.2981 37.758C46.0928 37.494 45.9901 37.2007 45.9901 36.878C45.9901 36.4527 46.1808 36.1227 46.5621 35.888L49.9721 33.776C50.4121 33.512 50.8301 33.38 51.2261 33.38C51.6368 33.38 51.9668 33.5047 52.2161 33.754C52.4654 34.0033 52.5901 34.348 52.5901 34.788V46.712H54.9001Z" fill="black"/>
<path d="M336.819 48.198C334.986 48.198 333.585 47.5233 332.617 46.174C331.649 44.81 331.165 42.83 331.165 40.234C331.165 37.6527 331.649 35.6873 332.617 34.338C333.585 32.974 334.986 32.292 336.819 32.292C338.652 32.292 340.053 32.974 341.021 34.338C341.989 35.6873 342.473 37.6527 342.473 40.234C342.473 42.8153 341.989 44.788 341.021 46.152C340.053 47.516 338.652 48.198 336.819 48.198ZM336.819 45.976C337.816 45.976 338.542 45.5213 338.997 44.612C339.452 43.688 339.679 42.2287 339.679 40.234C339.679 38.2247 339.452 36.7727 338.997 35.878C338.542 34.9687 337.816 34.514 336.819 34.514C335.822 34.514 335.096 34.9687 334.641 35.878C334.186 36.7873 333.959 38.2393 333.959 40.234C333.959 42.2287 334.186 43.688 334.641 44.612C335.096 45.5213 335.822 45.976 336.819 45.976ZM346.138 48.132C345.669 48.132 345.28 47.978 344.972 47.67C344.664 47.3473 344.51 46.9513 344.51 46.482C344.51 46.0127 344.664 45.624 344.972 45.316C345.28 44.9933 345.669 44.832 346.138 44.832C346.608 44.832 346.996 44.9933 347.304 45.316C347.612 45.624 347.766 46.0127 347.766 46.482C347.766 46.9513 347.612 47.3473 347.304 47.67C346.996 47.978 346.608 48.132 346.138 48.132ZM359.823 45.712C360.703 45.712 361.143 46.086 361.143 46.834C361.143 47.6113 360.703 48 359.823 48H351.463C351.082 48 350.781 47.89 350.561 47.67C350.341 47.4353 350.231 47.1493 350.231 46.812C350.231 46.372 350.4 45.976 350.737 45.624L355.753 40.234C356.369 39.5593 356.817 38.9433 357.095 38.386C357.389 37.814 357.535 37.2493 357.535 36.692C357.535 36.0027 357.337 35.4747 356.941 35.108C356.545 34.7413 355.981 34.558 355.247 34.558C354.646 34.558 354.059 34.6753 353.487 34.91C352.93 35.13 352.365 35.438 351.793 35.834C351.647 35.9367 351.5 36.0247 351.353 36.098C351.207 36.1567 351.06 36.186 350.913 36.186C350.664 36.186 350.444 36.0687 350.253 35.834C350.077 35.5993 349.989 35.3207 349.989 34.998C349.989 34.778 350.026 34.5873 350.099 34.426C350.187 34.2647 350.319 34.1107 350.495 33.964C351.141 33.4507 351.896 33.0473 352.761 32.754C353.627 32.446 354.492 32.292 355.357 32.292C356.868 32.292 358.071 32.6733 358.965 33.436C359.875 34.1987 360.329 35.2253 360.329 36.516C360.329 37.4107 360.139 38.254 359.757 39.046C359.376 39.8233 358.731 40.696 357.821 41.664L354.015 45.712H359.823Z" fill="black"/>
<path d="M626.83 49.198C624.996 49.198 623.596 48.5233 622.628 47.174C621.66 45.81 621.176 43.83 621.176 41.234C621.176 38.6527 621.66 36.6873 622.628 35.338C623.596 33.974 624.996 33.292 626.83 33.292C628.663 33.292 630.064 33.974 631.032 35.338C632 36.6873 632.484 38.6527 632.484 41.234C632.484 43.8153 632 45.788 631.032 47.152C630.064 48.516 628.663 49.198 626.83 49.198ZM626.83 46.976C627.827 46.976 628.553 46.5213 629.008 45.612C629.462 44.688 629.69 43.2287 629.69 41.234C629.69 39.2247 629.462 37.7727 629.008 36.878C628.553 35.9687 627.827 35.514 626.83 35.514C625.832 35.514 625.106 35.9687 624.652 36.878C624.197 37.7873 623.97 39.2393 623.97 41.234C623.97 43.2287 624.197 44.688 624.652 45.612C625.106 46.5213 625.832 46.976 626.83 46.976ZM636.149 49.132C635.68 49.132 635.291 48.978 634.983 48.67C634.675 48.3473 634.521 47.9513 634.521 47.482C634.521 47.0127 634.675 46.624 634.983 46.316C635.291 45.9933 635.68 45.832 636.149 45.832C636.618 45.832 637.007 45.9933 637.315 46.316C637.623 46.624 637.777 47.0127 637.777 47.482C637.777 47.9513 637.623 48.3473 637.315 48.67C637.007 48.978 636.618 49.132 636.149 49.132ZM646.292 39.078C647.26 39.078 648.111 39.2907 648.844 39.716C649.592 40.1267 650.171 40.706 650.582 41.454C650.993 42.202 651.198 43.06 651.198 44.028C651.198 45.04 650.963 45.9347 650.494 46.712C650.039 47.4893 649.387 48.098 648.536 48.538C647.7 48.9633 646.732 49.176 645.632 49.176C644.723 49.176 643.828 49.0293 642.948 48.736C642.083 48.428 641.342 48.0173 640.726 47.504C640.389 47.2107 640.22 46.866 640.22 46.47C640.22 46.1473 640.308 45.876 640.484 45.656C640.675 45.4213 640.895 45.304 641.144 45.304C641.291 45.304 641.43 45.3333 641.562 45.392C641.694 45.436 641.848 45.5167 642.024 45.634C642.611 46.0447 643.183 46.36 643.74 46.58C644.297 46.8 644.891 46.91 645.522 46.91C646.49 46.91 647.231 46.668 647.744 46.184C648.257 45.7 648.514 45.0107 648.514 44.116C648.514 43.2507 648.25 42.5687 647.722 42.07C647.209 41.5567 646.497 41.3 645.588 41.3C645.016 41.3 644.503 41.3807 644.048 41.542C643.608 41.7033 643.153 41.9747 642.684 42.356C642.405 42.5467 642.119 42.642 641.826 42.642C641.533 42.642 641.283 42.554 641.078 42.378C640.873 42.202 640.77 41.9673 640.77 41.674V34.81C640.77 34.3993 640.887 34.0767 641.122 33.842C641.357 33.6073 641.687 33.49 642.112 33.49H649.438C650.318 33.49 650.758 33.8567 650.758 34.59C650.758 35.3233 650.318 35.69 649.438 35.69H643.542V39.87C644.29 39.342 645.207 39.078 646.292 39.078Z" fill="black"/>
<path d="M917.83 48.198C915.996 48.198 914.596 47.5233 913.628 46.174C912.66 44.81 912.176 42.83 912.176 40.234C912.176 37.6527 912.66 35.6873 913.628 34.338C914.596 32.974 915.996 32.292 917.83 32.292C919.663 32.292 921.064 32.974 922.032 34.338C923 35.6873 923.484 37.6527 923.484 40.234C923.484 42.8153 923 44.788 922.032 46.152C921.064 47.516 919.663 48.198 917.83 48.198ZM917.83 45.976C918.827 45.976 919.553 45.5213 920.008 44.612C920.462 43.688 920.69 42.2287 920.69 40.234C920.69 38.2247 920.462 36.7727 920.008 35.878C919.553 34.9687 918.827 34.514 917.83 34.514C916.832 34.514 916.106 34.9687 915.652 35.878C915.197 36.7873 914.97 38.2393 914.97 40.234C914.97 42.2287 915.197 43.688 915.652 44.612C916.106 45.5213 916.832 45.976 917.83 45.976ZM927.149 48.132C926.68 48.132 926.291 47.978 925.983 47.67C925.675 47.3473 925.521 46.9513 925.521 46.482C925.521 46.0127 925.675 45.624 925.983 45.316C926.291 44.9933 926.68 44.832 927.149 44.832C927.618 44.832 928.007 44.9933 928.315 45.316C928.623 45.624 928.777 46.0127 928.777 46.482C928.777 46.9513 928.623 47.3473 928.315 47.67C928.007 47.978 927.618 48.132 927.149 48.132ZM940.944 32.49C941.325 32.49 941.619 32.6 941.824 32.82C942.029 33.0253 942.132 33.2967 942.132 33.634C942.132 33.9713 942.029 34.3233 941.824 34.69L934.806 47.428C934.513 47.9267 934.109 48.176 933.596 48.176C933.244 48.176 932.929 48.0587 932.65 47.824C932.386 47.5747 932.254 47.274 932.254 46.922C932.254 46.6727 932.327 46.4233 932.474 46.174L938.788 34.778H932.144C931.264 34.778 930.824 34.404 930.824 33.656C930.824 32.8787 931.264 32.49 932.144 32.49H940.944Z" fill="black"/>
<path d="M1227.25 46.712C1228.13 46.712 1228.57 47.086 1228.57 47.834C1228.57 48.6113 1228.13 49 1227.25 49H1219.82C1218.92 49 1218.47 48.6113 1218.47 47.834C1218.47 47.086 1218.92 46.712 1219.82 46.712H1222.1V36.68L1219.99 37.978C1219.79 38.0953 1219.6 38.154 1219.44 38.154C1219.13 38.154 1218.87 38.022 1218.65 37.758C1218.44 37.494 1218.34 37.2007 1218.34 36.878C1218.34 36.4527 1218.53 36.1227 1218.91 35.888L1222.32 33.776C1222.76 33.512 1223.18 33.38 1223.58 33.38C1223.99 33.38 1224.32 33.5047 1224.57 33.754C1224.82 34.0033 1224.94 34.348 1224.94 34.788V46.712H1227.25ZM1232.15 49.132C1231.68 49.132 1231.29 48.978 1230.98 48.67C1230.68 48.3473 1230.52 47.9513 1230.52 47.482C1230.52 47.0127 1230.68 46.624 1230.98 46.316C1231.29 45.9933 1231.68 45.832 1232.15 45.832C1232.62 45.832 1233.01 45.9933 1233.32 46.316C1233.62 46.624 1233.78 47.0127 1233.78 47.482C1233.78 47.9513 1233.62 48.3473 1233.32 48.67C1233.01 48.978 1232.62 49.132 1232.15 49.132ZM1241.48 49.198C1239.64 49.198 1238.24 48.5233 1237.28 47.174C1236.31 45.81 1235.82 43.83 1235.82 41.234C1235.82 38.6527 1236.31 36.6873 1237.28 35.338C1238.24 33.974 1239.64 33.292 1241.48 33.292C1243.31 33.292 1244.71 33.974 1245.68 35.338C1246.65 36.6873 1247.13 38.6527 1247.13 41.234C1247.13 43.8153 1246.65 45.788 1245.68 47.152C1244.71 48.516 1243.31 49.198 1241.48 49.198ZM1241.48 46.976C1242.48 46.976 1243.2 46.5213 1243.66 45.612C1244.11 44.688 1244.34 43.2287 1244.34 41.234C1244.34 39.2247 1244.11 37.7727 1243.66 36.878C1243.2 35.9687 1242.48 35.514 1241.48 35.514C1240.48 35.514 1239.75 35.9687 1239.3 36.878C1238.85 37.7873 1238.62 39.2393 1238.62 41.234C1238.62 43.2287 1238.85 44.688 1239.3 45.612C1239.75 46.5213 1240.48 46.976 1241.48 46.976Z" fill="black"/>
</svg>
