<svg width="60" height="65" viewBox="0 0 60 65" fill="none" xmlns="http://www.w3.org/2000/svg">
<g clip-path="url(#clip0)">
<path d="M7.09994 25.7339H10.0869V23.5895H7.09994V25.7339ZM13.0739 35.3841C13.0739 33.0156 11.2906 31.0952 9.09129 31.0952C6.89194 31.0952 5.1087 33.0156 5.1087 35.3841C5.1087 37.7526 6.89194 39.673 9.09129 39.673C11.2906 39.673 13.0739 37.7528 13.0739 35.3841ZM58.874 5.36133V43.9621H1.12598V5.36133H58.874ZM53.3083 39.0404C53.6867 38.6437 53.8988 38.0979 53.8957 37.5286C53.8957 35.752 52.5586 34.312 50.9088 34.312H49.9132V33.2397C49.9132 31.463 48.576 30.023 46.9262 30.023C45.2765 30.023 43.9393 31.463 43.9393 33.2397V34.312H42.9436C41.2939 34.312 39.9567 35.752 39.9567 37.5286C39.9597 38.7113 40.8499 39.6699 41.9481 39.6732H51.9046C52.4331 39.6763 52.9399 39.4479 53.3083 39.0404ZM34.9783 19.3004L31.9914 15.0115H33.9828L30.0002 9.65028L26.0176 15.0115H28.0089L25.022 19.3004H34.9783Z" fill="#86DAF1"/>
<path d="M53.8958 37.5286C53.8878 38.7091 53.0006 39.6645 51.9044 39.6731H41.9479C40.8496 39.67 39.9595 38.7113 39.9565 37.5286C39.9565 35.7519 41.2936 34.3119 42.9434 34.3119H43.9391V33.2396C43.9391 31.4629 45.2762 30.0229 46.926 30.0229C48.5758 30.0229 49.9129 31.4629 49.9129 33.2396V34.3119H50.9086C52.5586 34.3119 53.8958 35.7519 53.8958 37.5286Z" fill="#03AA6F"/>
<path d="M31.9913 15.0114L34.9783 19.3003H25.0218L28.0087 15.0114H26.0174L30.0001 9.65015L33.9827 15.0114H31.9913Z" fill="#89D84F"/>
<path d="M9.09129 39.6729C11.2908 39.6729 13.0739 37.7526 13.0739 35.3839C13.0739 33.0152 11.2908 31.095 9.09129 31.095C6.89176 31.095 5.1087 33.0152 5.1087 35.3839C5.1087 37.7526 6.89176 39.6729 9.09129 39.6729Z" fill="#DE2D5D"/>
<path d="M46.6348 9.96358L45.2267 11.48L53.1921 20.0581L54.6002 18.5417L46.6348 9.96358Z" fill="#DE2D5D"/>
<path d="M53.1899 9.96584L45.2245 18.5439L46.6326 20.0603L54.598 11.4822L53.1899 9.96584Z" fill="#DE2D5D"/>
<path d="M30.9967 20.3726H29.0053V23.5892H30.9967V20.3726Z" fill="#876225"/>
<path d="M34.9783 20.3725H25.0218C24.4722 20.3725 24.0261 19.892 24.0261 19.3002C24.0261 19.0686 24.0958 18.8424 24.2252 18.6569L26.0174 16.0835C25.4678 16.0835 25.0217 15.6042 25.0217 15.0112C25.0217 14.7678 25.0983 14.5308 25.2397 14.341L29.2223 8.97981C29.5967 8.51769 30.2479 8.46949 30.678 8.87255C30.7138 8.90574 30.7466 8.94221 30.7776 8.97981L34.7601 14.341C35.1036 14.8032 35.0349 15.4777 34.6048 15.8485C34.4285 16.0009 34.2085 16.0834 33.9824 16.0834L35.7746 18.6567C36.1041 19.1307 36.0155 19.8029 35.5755 20.1579C35.4035 20.2974 35.1934 20.3725 34.9783 20.3725ZM27.013 18.2281H32.987L31.1948 15.6547C30.8633 15.1819 30.9499 14.5095 31.389 14.1525C31.5413 14.0281 31.7235 13.9541 31.9137 13.9391L30.0001 11.3658L28.0864 13.9391C28.635 13.9842 29.0452 14.4988 29.0034 15.0896C28.9886 15.2944 28.9198 15.4907 28.8053 15.6547L27.013 18.2281Z" fill="#03AA6F"/>
<path d="M13.0739 24.6616H11.0825V23.5894C11.0825 22.9975 10.6364 22.5171 10.0869 22.5171H7.09994C6.55036 22.5171 6.10426 22.9975 6.10426 23.5894V24.6616H4.11302V26.8062H5.1087V27.8784H7.09994V26.8062H10.0869V27.8784H12.0782V26.8062H13.0739V24.6616Z" fill="#FFD24A"/>
<path d="M51.9044 40.7453H41.9478C40.2981 40.7453 38.9609 39.3053 38.9609 37.5286C38.9609 35.16 40.7442 33.2396 42.9435 33.2396C42.9435 30.8711 44.7268 28.9507 46.9261 28.9507C49.1255 28.9507 50.9087 30.8711 50.9087 33.2396C53.1081 33.2396 54.8913 35.16 54.8913 37.5286C54.8835 39.301 53.5512 40.7367 51.9044 40.7453ZM42.9435 35.384C41.8433 35.384 40.9522 36.3437 40.9522 37.5286C40.9522 38.1204 41.3983 38.6008 41.9478 38.6008H51.9044C52.1643 38.604 52.4141 38.4926 52.5954 38.292C52.7905 38.0937 52.901 37.8171 52.9001 37.5286C52.9001 36.3437 52.0089 35.384 50.9087 35.384H49.913C49.3635 35.384 48.9173 34.9036 48.9173 34.3118V33.2395C48.9173 32.0547 48.0262 31.095 46.926 31.095C45.8258 31.095 44.9346 32.0547 44.9346 33.2395V34.3118C44.9346 34.9036 44.4885 35.384 43.939 35.384H42.9435Z" fill="#03AA6F"/>
<path d="M59.8697 0H0.130417V2.14454H59.8697V0Z" fill="#454545"/>
<path d="M59.8697 47.1787H0.130417V49.3232H59.8697V47.1787Z" fill="#454545"/>
<path d="M30.9967 48.251H29.0053V64.3346H30.9967V48.251Z" fill="#454545"/>
<path d="M43.9769 64.6071L45.9008 64.0544L41.9178 47.972L39.9939 48.5246L43.9769 64.6071Z" fill="#454545"/>
<path d="M16.0284 64.6153L20.0131 48.5325L18.0891 47.9796L14.1044 64.0625L16.0284 64.6153Z" fill="#454545"/>
<path d="M36.9696 36.4563H29.9999C29.4504 36.4563 29.0043 35.9759 29.0043 35.3841V27.8783H20.0434V35.3841C20.0434 35.9759 19.5973 36.4563 19.0477 36.4563H13.0738V34.3118H18.052V26.8062C18.052 26.2143 18.4981 25.7339 19.0477 25.7339H29.9999C30.5495 25.7339 30.9956 26.2143 30.9956 26.8062V34.3119H35.9739V23.5895C35.9739 22.9976 36.42 22.5172 36.9696 22.5172H48.9175V19.3005H50.9088V23.5895C50.9088 24.1813 50.4627 24.6618 49.9132 24.6618H37.9652V35.3842C37.9652 35.976 37.5191 36.4563 36.9696 36.4563Z" fill="#055EBC"/>
<path d="M9.09129 40.7452C11.456 40.742 13.4941 38.9502 13.97 36.4562H19.0478C19.5974 36.4562 20.0435 35.9758 20.0435 35.3839V27.8782H29.0044V35.3839C29.0044 35.9758 29.4505 36.4562 30.0001 36.4562H36.9697C37.5193 36.4562 37.9654 35.9758 37.9654 35.3839V24.6615H49.9133C50.4628 24.6615 50.909 24.1811 50.909 23.5892V19.3003H48.9176V22.517H36.9696C36.42 22.517 35.9739 22.9974 35.9739 23.5892V34.3117H30.9956V26.806C30.9956 26.2142 30.5495 25.7338 29.9999 25.7338H19.0477C18.4981 25.7338 18.052 26.2142 18.052 26.806V34.3118H13.9698C13.4203 31.4104 10.7907 29.5393 8.09643 30.1311C5.40211 30.723 3.6648 33.5548 4.21438 36.4563C4.68755 38.9525 6.7266 40.7452 9.09129 40.7452ZM9.09129 32.1673C10.7411 32.1673 12.0782 33.6073 12.0782 35.3839C12.0782 37.1606 10.7411 38.6006 9.09129 38.6006C7.44151 38.6006 6.10437 37.1606 6.10437 35.3839C6.10437 33.6073 7.44151 32.1673 9.09129 32.1673Z" fill="black"/>
<path d="M46.6345 20.0585L49.9132 16.5276L53.1919 20.0585L54.5997 18.5423L51.321 15.0113L54.5997 11.4804L53.1919 9.96436L49.9132 13.4953L46.6345 9.96436L45.2265 11.4804L48.5052 15.0113L45.2265 18.5423L46.6345 20.0585Z" fill="black"/>
<path d="M25.0218 20.3725H29.0044V23.5891H30.9957V20.3725H34.9783C35.5279 20.3725 35.974 19.892 35.974 19.3002C35.974 19.0686 35.9043 18.8424 35.7749 18.6569L33.9828 16.0835C34.5323 16.0835 34.9784 15.6042 34.9784 15.0112C34.9784 14.7678 34.9018 14.5308 34.7604 14.341L30.7778 8.97981C30.4034 8.51769 29.7522 8.46949 29.3222 8.87255C29.2863 8.90574 29.2535 8.94221 29.2226 8.97981L25.24 14.341C24.8965 14.8032 24.9652 15.4777 25.3953 15.8485C25.5716 16.0009 25.7917 16.0834 26.0177 16.0834L24.2255 18.6567C23.896 19.1307 23.9846 19.803 24.4246 20.1579C24.5965 20.2974 24.8066 20.3725 25.0218 20.3725ZM28.9048 14.532C28.7485 14.1953 28.4398 13.9712 28.0913 13.9423L29.9999 11.3656L31.9136 13.939C31.365 13.984 30.9548 14.4986 30.9966 15.0895C31.0114 15.2943 31.0802 15.4905 31.1947 15.6546L32.9869 18.2279H27.0129L28.8051 15.6546C29.0332 15.3308 29.0721 14.8965 28.9048 14.532Z" fill="black"/>
<path d="M5.1087 27.8784H7.09994V26.8062H10.0869V27.8784H12.0782V26.8062H13.0739V24.6616H11.0825V23.5894C11.0825 22.9975 10.6364 22.5171 10.0869 22.5171H7.09994C6.55036 22.5171 6.10426 22.9975 6.10426 23.5894V24.6616H4.11302V26.8062H5.1087V27.8784Z" fill="black"/>
<path d="M50.9087 33.2396C50.9087 30.8711 49.1255 28.9507 46.9261 28.9507C44.7268 28.9507 42.9435 30.8711 42.9435 33.2396C40.7442 33.2396 38.9609 35.16 38.9609 37.5286C38.9609 39.3053 40.2981 40.7453 41.9478 40.7453H51.9044C53.5502 40.7367 54.8833 39.301 54.8913 37.5286C54.8914 35.1599 53.1082 33.2396 50.9087 33.2396ZM52.5954 38.292C52.4142 38.4926 52.1643 38.6041 51.9044 38.6008H41.9478C41.3983 38.6008 40.9522 38.1204 40.9522 37.5286C40.9522 36.3437 41.8433 35.384 42.9435 35.384H43.9392C44.4888 35.384 44.9349 34.9036 44.9349 34.3118V33.2395C44.9349 32.0547 45.826 31.095 46.9262 31.095C48.0264 31.095 48.9176 32.0547 48.9176 33.2395V34.3118C48.9176 34.9036 49.3637 35.384 49.9133 35.384H50.9089C52.0091 35.384 52.9003 36.3437 52.9003 37.5286C52.901 37.8171 52.7905 38.0937 52.5954 38.292Z" fill="black"/>
<path d="M59.8697 5.36109C59.8697 4.76924 59.4236 4.28882 58.874 4.28882H1.12597C0.576399 4.28882 0.130295 4.76924 0.130295 5.36109V43.9619C0.130295 44.5537 0.576399 45.0341 1.12597 45.0341H58.8739C59.4235 45.0341 59.8696 44.5537 59.8696 43.9619V5.36109H59.8697ZM57.8783 42.8896H2.12165V6.43336H57.8783V42.8896Z" fill="black"/>
<path d="M59.8697 0H0.130417V2.14454H59.8697V0Z" fill="black"/>
<path d="M59.8697 47.1787H0.130417V49.3232H17.7515L14.1034 64.058L16.027 64.6113L19.8124 49.3232H29.0044V64.3346H30.9956V49.3232H40.1876L43.973 64.6113L45.8966 64.058L42.2485 49.3232H59.8697V47.1787Z" fill="black"/>
</g>
<defs>
<clipPath id="clip0">
<rect width="60" height="64.6154" fill="white"/>
</clipPath>
</defs>
</svg>
