<svg xmlns="http://www.w3.org/2000/svg" xmlns:xlink="http://www.w3.org/1999/xlink" width="428.979" height="93.33" viewBox="0 0 428.979 93.33">
    <defs>
        <linearGradient id="linear-gradient" x1="2.551" x2="-3.594" y1="2.334" y2="-3.16" gradientUnits="objectBoundingBox">
            <stop offset="0" stop-color="#234e9c"/>
            <stop offset=".81" stop-color="#2a6db3"/>
            <stop offset="1" stop-color="#2d76ba"/>
        </linearGradient>
        <linearGradient id="linear-gradient-2" x1=".2" x2=".915" y1=".884" y2="-.428" gradientUnits="objectBoundingBox">
            <stop offset=".008" stop-color="#cbe6e7"/>
            <stop offset="1" stop-color="#0094ce"/>
        </linearGradient>
        <linearGradient id="linear-gradient-3" x1=".118" x2=".831" y1=".867" y2="-.013" gradientUnits="objectBoundingBox">
            <stop offset="0" stop-color="#cbe6e7"/>
            <stop offset=".664" stop-color="#33aad5"/>
        </linearGradient>
        <linearGradient id="linear-gradient-4" x2="1" y1=".5" y2=".5" gradientUnits="objectBoundingBox">
            <stop offset=".008" stop-color="#cbe6e7"/>
            <stop offset="1" stop-color="#afdbe0"/>
        </linearGradient>
        <linearGradient id="linear-gradient-5" x1="0" x2="1" y1=".5" y2=".5" xlink:href="#linear-gradient-4"/>
        <linearGradient id="linear-gradient-6" x1="-2.377" x2=".933" y1="-1.783" y2=".625" xlink:href="#linear-gradient-2"/>
        <linearGradient id="linear-gradient-7" x1="-2.377" x2=".933" y1="-1.783" y2=".625" xlink:href="#linear-gradient-2"/>
        <clipPath id="clip-path">
            <circle id="Elipse_1118" cx="46.665" cy="46.665" r="46.665" fill="none" transform="translate(87.149 44.685)"/>
        </clipPath>
        <style>
            .cls-7,.cls-8{fill:none}.cls-2{fill:#fff}.cls-6{opacity:.1}.cls-7{stroke:#4abed8;stroke-width:.582px;stroke-miterlimit:10}.cls-8,.cls-9{stroke-miterlimit:10;stroke:#35a8e0}.cls-9{fill:#35a8e0}.cls-10{fill:#4abed8}
        </style>
    </defs>
    <g id="Grupo_4868" transform="translate(-87.149 -44.685)">
        <g id="Grupo_4855">
            <g id="Grupo_4853">
                <path id="Trazado_149573" d="M219.933 62.617v2.06l-20.747 28.492H220v4.548h-28.062V95.94L212.9 66.951h-19.754v-4.334z" class="cls-2"/>
                <path id="Trazado_149574" d="M230.3 82.156c.64 7.318 6.324 11.653 13.287 11.653 4.263 0 9.379-1.705 11.866-4.832l3.2 2.843c-3.481 4.334-9.521 6.536-15.063 6.536-10.445 0-18.189-7.034-18.189-18.261 0-10.515 7.531-18.117 17.976-18.117s18.829 6.323 17.479 20.178zm26.076-4.05c-.142-7.674-5.9-11.866-12.931-11.866S231.228 70.5 230.3 78.106z" class="cls-2"/>
                <path id="Trazado_149575" d="M297.019 97.717V78.035c0-7.532-4.4-11.51-11.439-11.51-6.821.071-11.511 5.329-11.511 12.078v19.114h-4.76v-35.1h4.547l.142 5.9a14.116 14.116 0 0 1 12.221-6.466c9.1 0 15.632 5.4 15.632 15.916v19.75z" class="cls-2"/>
                <path id="Trazado_149576" d="M320.464 52.243v10.444h11.368v4.05h-11.368v19.825c0 4.4 1.207 7.318 5.968 7.318a12.743 12.743 0 0 0 5.115-1.351l1.492 3.98a15.821 15.821 0 0 1-6.749 1.7c-7.532.071-10.587-4.334-10.587-11.652v-19.82h-7.176v-4.05h7.173V52.74z" class="cls-2"/>
                <path id="Trazado_149577" d="M368.635 62.617h4.476v35.1h-4.4v-6.964a16.074 16.074 0 0 1-13.926 7.674c-9.948 0-17.9-7.105-17.9-18.26 0-11.084 8.029-18.048 17.976-18.048 5.4 0 11.155 2.487 13.784 7.461zm-27 17.55c0 8.312 5.968 13.784 13.358 13.784 18.118 0 18.118-27.5 0-27.5-7.393.002-13.358 5.474-13.358 13.716z" class="cls-2"/>
                <path id="Trazado_149578" d="M387.389 47.98v49.737h-2.132V47.98z" class="cls-2"/>
                <path id="Trazado_149579" d="M430.658 97.717V93.24l.426-5.045c-2.416 6.821-9.521 10.019-15.631 9.948-9.663 0-17.763-6.821-17.763-17.976 0-11.013 7.957-17.977 17.62-17.977 6.466 0 13.856 3.411 15.774 10.374l-.426-5.684v-4.263h2.132v35.1zm-30.837-17.55c0 10.018 7.176 15.916 15.7 15.916 10.657 0 15.205-7.674 15.205-16.272 0-8.241-5.187-15.56-15.489-15.56-8.524 0-15.416 5.968-15.416 15.916z" class="cls-2"/>
                <path id="Trazado_149580" d="M444.865 97.717V47.909H447V66.88l-.426 5.684c1.918-6.963 9.307-10.374 15.773-10.374 9.663 0 17.621 7.177 17.621 17.977 0 11.155-8.1 17.976-17.763 17.976-6.111.071-13.216-3.127-15.631-9.948L447 93.24v4.477zm2.061-17.906c0 8.6 4.547 16.272 15.205 16.272 8.526 0 15.7-5.685 15.7-15.916 0-9.948-6.892-15.916-15.418-15.916-10.3 0-15.487 7.319-15.487 15.56z" class="cls-2"/>
                <path id="Trazado_149581" d="M513.357 68.3c-2.984-2.842-7.034-4.192-11.653-4.192-6.111 0-11.653 1.989-11.653 7.318 0 5.827 7.319 6.324 11.724 7.248 6.111 1.207 14.353 1.918 14.353 9.8 0 7.391-7.745 9.593-14.282 9.593-6.324 0-12.576-2.629-15.134-7.176l1.7-1.208c2.985 4.547 8.527 6.395 13.5 6.395 4.476 0 12.079-1.28 12.079-7.674 0-5.9-6.679-6.608-12.647-7.745-6.821-1.279-13.429-2.416-13.429-9.237 0-6.608 6.678-9.308 13.784-9.308a18.537 18.537 0 0 1 13 4.69z" class="cls-2"/>
            </g>
            <g id="Grupo_4854">
                <path id="Trazado_149582" d="M192.514 110.823v3.871h4.365v1.066h-4.365v7.821c0 1.741.364 2.962 2.365 2.962a4.752 4.752 0 0 0 1.974-.52l.442 1.04a5.618 5.618 0 0 1-2.416.649c-2.728 0-3.612-1.61-3.612-4.131v-7.821h-2.728v-1.066h2.728v-3.741z" class="cls-2"/>
                <path id="Trazado_149583" d="M200.438 121.113a6.453 6.453 0 0 1 6.521-6.627c3.612 0 6.834 2.209 6.34 7.224h-11.562a5.05 5.05 0 0 0 5.222 4.755 6.037 6.037 0 0 0 4.625-1.949l.91.728a7.056 7.056 0 0 1-5.535 2.468 6.294 6.294 0 0 1-6.521-6.599zm11.718-.52c-.026-3.17-2.105-4.937-5.2-4.937a5.13 5.13 0 0 0-5.222 4.937z" class="cls-2"/>
                <path id="Trazado_149584" d="M228.471 125.738a6.565 6.565 0 0 1-4.676 1.922 6.548 6.548 0 1 1 0-13.1 6.675 6.675 0 0 1 4.676 1.922l-.831.806a5.442 5.442 0 0 0-3.845-1.533 5.352 5.352 0 1 0 0 10.7 5.431 5.431 0 0 0 3.819-1.585z" class="cls-2"/>
                <path id="Trazado_149585" d="M233.64 109.342v7.743a5.136 5.136 0 0 1 4.625-2.573c3.586 0 5.379 2.313 5.379 5.665v7.353H242.4v-7.353c0-2.65-1.247-4.443-4.131-4.443a4.528 4.528 0 0 0-4.573 4.755v7.041h-1.273v-18.188z" class="cls-2"/>
                <path id="Trazado_149586" d="M258.738 114.694l-7.821 18.189h-1.351l2.364-5.509-5.144-12.68h1.377l2.988 7.588 1.507 3.718 1.481-3.741 3.222-7.562z" class="cls-2"/>
                <path id="Trazado_149587" d="M273.987 110.823v3.871h4.365v1.066h-4.365v7.821c0 1.741.364 2.962 2.364 2.962a4.756 4.756 0 0 0 1.975-.52l.442 1.04a5.622 5.622 0 0 1-2.417.649c-2.728 0-3.611-1.61-3.611-4.131v-7.821h-2.729v-1.066h2.729v-3.741z" class="cls-2"/>
                <path id="Trazado_149588" d="M294.98 114.694v12.836h-1.273v-2.73a6 6 0 0 1-5.249 2.936 6.6 6.6 0 0 1 0-13.2 5.826 5.826 0 0 1 5.249 2.962v-2.806zm-11.771 6.419a5.155 5.155 0 0 0 5.249 5.378c7.145 0 7.145-10.731 0-10.731a5.133 5.133 0 0 0-5.249 5.353z" class="cls-2"/>
                <path id="Trazado_149589" d="M301.057 109.342v18.188h-1.273v-18.188z" class="cls-2"/>
                <path id="Trazado_149590" d="M305.239 121.113a6.454 6.454 0 0 1 6.522-6.627c3.612 0 6.833 2.209 6.34 7.224h-11.563a5.05 5.05 0 0 0 5.223 4.755 6.037 6.037 0 0 0 4.625-1.949l.909.728a7.055 7.055 0 0 1-5.534 2.468 6.3 6.3 0 0 1-6.522-6.599zm11.718-.52c-.026-3.17-2.1-4.937-5.2-4.937a5.131 5.131 0 0 0-5.223 4.937z" class="cls-2"/>
                <path id="Trazado_149591" d="M324 114.694v2.287a5.1 5.1 0 0 1 4.573-2.52c3.43 0 5.795 2.1 5.795 5.664v7.4h-1.274v-7.379c0-2.91-1.793-4.469-4.573-4.443a4.461 4.461 0 0 0-4.495 4.677v7.145h-1.274v-12.831z" class="cls-2"/>
                <path id="Trazado_149592" d="M341.429 110.823v3.871h4.365v1.066h-4.365v7.821c0 1.741.364 2.962 2.365 2.962a4.76 4.76 0 0 0 1.975-.52l.441 1.04a5.615 5.615 0 0 1-2.416.649c-2.728 0-3.612-1.61-3.612-4.131v-7.821h-2.728v-1.066h2.728v-3.741z" class="cls-2"/>
                <path id="Trazado_149593" d="M370.917 114.694v12.836h-1.273v-2.73a6 6 0 0 1-5.249 2.936 6.6 6.6 0 0 1 0-13.2 5.825 5.825 0 0 1 5.249 2.962v-2.806zm-11.77 6.419a5.155 5.155 0 0 0 5.248 5.378c7.146 0 7.146-10.731 0-10.731a5.132 5.132 0 0 0-5.248 5.353z" class="cls-2"/>
                <path id="Trazado_149594" d="M384.53 117.033a5.487 5.487 0 0 0-4-1.351c-2-.026-3.924.727-3.872 2.364.051 1.715 2.286 2.053 3.9 2.339 2.287.39 5.431.779 5.3 3.767-.077 2.832-3.013 3.586-5.274 3.586a6.615 6.615 0 0 1-5.612-2.572l.935-.832a5.7 5.7 0 0 0 4.7 2.183c1.559 0 3.923-.415 4-2.442.052-1.845-2.079-2.209-4.184-2.547-2.494-.415-4.963-.884-4.989-3.456-.026-2.52 2.495-3.611 5.094-3.586a6.727 6.727 0 0 1 4.78 1.715z" class="cls-2"/>
                <path id="Trazado_149595" d="M410.874 114.694v12.836H409.6v-2.73a6 6 0 0 1-5.249 2.936 6.6 6.6 0 0 1 0-13.2 5.825 5.825 0 0 1 5.249 2.964v-2.806zm-11.77 6.419a5.155 5.155 0 0 0 5.248 5.378c7.146 0 7.146-10.731 0-10.731a5.132 5.132 0 0 0-5.252 5.353z" class="cls-2"/>
                <path id="Trazado_149596" d="M432.982 117.033a5.487 5.487 0 0 0-4-1.351c-2-.026-3.924.727-3.872 2.364.051 1.715 2.286 2.053 3.9 2.339 2.287.39 5.431.779 5.3 3.767-.077 2.832-3.013 3.586-5.274 3.586a6.615 6.615 0 0 1-5.612-2.572l.935-.832a5.7 5.7 0 0 0 4.7 2.183c1.559 0 3.923-.415 4-2.442.052-1.845-2.079-2.209-4.184-2.547-2.494-.415-4.963-.884-4.989-3.456-.026-2.52 2.495-3.611 5.094-3.586a6.726 6.726 0 0 1 4.78 1.715z" class="cls-2"/>
                <path id="Trazado_149597" d="M437.762 121.113a6.453 6.453 0 0 1 6.522-6.627c3.611 0 6.833 2.209 6.339 7.224h-11.562a5.049 5.049 0 0 0 5.223 4.755 6.04 6.04 0 0 0 4.625-1.949l.909.728a7.055 7.055 0 0 1-5.534 2.468 6.294 6.294 0 0 1-6.522-6.599zm11.718-.52c-.026-3.17-2.105-4.937-5.2-4.937a5.13 5.13 0 0 0-5.223 4.937z" class="cls-2"/>
                <path id="Trazado_149598" d="M456.467 114.694l.052 2.287a4.515 4.515 0 0 1 4.261-2.416 5.01 5.01 0 0 1 2.755.753l-.572 1.039a4.135 4.135 0 0 0-2.183-.6 4.264 4.264 0 0 0-4.235 4.287v7.483h-1.273v-12.833z" class="cls-2"/>
                <path id="Trazado_149599" d="M466.391 114.694h1.4l4.677 11.355 4.677-11.355h1.4l-5.378 12.836h-1.4z" class="cls-2"/>
                <path id="Trazado_149600" d="M483.694 110.511a1.026 1.026 0 0 1-2.052 0 1.026 1.026 0 0 1 2.052 0zm-1.689 4.131v12.888h1.274v-12.888z" class="cls-2"/>
                <path id="Trazado_149601" d="M498.789 125.738a6.565 6.565 0 0 1-4.677 1.922 6.548 6.548 0 1 1 0-13.1 6.676 6.676 0 0 1 4.677 1.922l-.831.806a5.444 5.444 0 0 0-3.846-1.533 5.352 5.352 0 0 0 0 10.7 5.432 5.432 0 0 0 3.82-1.585z" class="cls-2"/>
                <path id="Trazado_149602" d="M502.528 121.113a6.453 6.453 0 0 1 6.522-6.627c3.611 0 6.833 2.209 6.339 7.224h-11.562a5.049 5.049 0 0 0 5.223 4.755 6.04 6.04 0 0 0 4.625-1.949l.909.728a7.055 7.055 0 0 1-5.534 2.468 6.294 6.294 0 0 1-6.522-6.599zm11.718-.52c-.026-3.17-2.1-4.937-5.2-4.937a5.13 5.13 0 0 0-5.223 4.937z" class="cls-2"/>
            </g>
        </g>
        <g id="Grupo_4867">
            <circle id="Elipse_1112" cx="46.665" cy="46.665" r="46.665" fill="url(#linear-gradient)" transform="translate(87.149 44.685)"/>
            <g id="Grupo_4866" opacity="0.5">
                <g id="Grupo_4865" clip-path="url(#clip-path)">
                    <g id="Grupo_4864">
                        <g id="Grupo_4859">
                            <g id="Grupo_4856" class="cls-6">
                                <path id="Trazado_149603" d="M389.431 98.775l26.445 15.435 13.844-36.892z" class="cls-7"/>
                                <path id="Trazado_149604" d="M510.4 96.336l-21.227-63.11 56.14 49.958z" class="cls-7"/>
                                <path id="Trazado_149605" d="M564.682 30.3l-45.068-45.7L598.7 27.924z" class="cls-7"/>
                                <path id="Trazado_149606" d="M527.679-99.587l34.161-13.349-13.664-50.078z" class="cls-7"/>
                                <path id="Trazado_149607" d="M599.481-91.449l27.139-52.731 46.417 18.08z" class="cls-7"/>
                                <path id="Trazado_149608" d="M399.061-42.388l36.624 54.414 35.025 3.6z" class="cls-7"/>
                                <path id="Trazado_149609" d="M486.21 202.964l39.385-7.318-18.886-56.109z" class="cls-7"/>
                                <path id="Trazado_149610" d="M407.768 184.129l56.79-21.332 8.208-77.355z" class="cls-7"/>
                                <path id="Trazado_149611" d="M302.406 151.97l35.356-19.989-61.386-44.288z" class="cls-7"/>
                                <path id="Trazado_149612" d="M290.7.812L332.853 69.6l-13.319 13.359z" class="cls-7"/>
                                <path id="Trazado_149613" d="M339.3-11.242l60.422 45.693-15.64-35.487z" class="cls-7"/>
                                <path id="Trazado_149614" d="M160.761 32.831l70.6-1.665-4.276-45.529z" class="cls-7"/>
                                <path id="Trazado_149615" d="M61.7 123.173L87.387 45.04l22.225 27.309z" class="cls-7"/>
                                <path id="Trazado_149616" d="M165.678 149.179L166.124 85l25.293 86.555z" class="cls-7"/>
                                <path id="Trazado_149617" d="M51.72 230.953l43.323-25.82 24.986 21.167z" class="cls-7"/>
                                <path id="Trazado_149618" d="M-11.9 215.778l59.342-30.354L61.7 123.173z" class="cls-7"/>
                                <path id="Trazado_149619" d="M-54.051 146.995l-12.625-86.377 33.146 59.117z" class="cls-7"/>
                                <path id="Trazado_149620" d="M-110.628 117.813l13.848 59.107 84.88 38.858z" class="cls-7"/>
                                <path id="Trazado_149621" d="M492.461-128.758l35.217 29.171-48.744 51.1z" class="cls-7"/>
                            </g>
                            <g id="Grupo_4857">
                                <path id="Línea_104" d="M0 60.614L32.076 0" class="cls-7" transform="translate(347.126 142.889)"/>
                                <path id="Trazado_149622" d="M276.376 87.693l26.03 64.276 35.356-19.989" class="cls-7"/>
                                <path id="Línea_105" d="M0 0L47.509 11.021" class="cls-7" transform="translate(254.897 140.949)"/>
                                <path id="Trazado_149623" d="M492.461-128.758l-13.526 80.267 48.744-51.1 20.739 54.444-69.483-3.348 10.235 81.717 56.142 49.958-72.545 2.259 33.942 54.095 38.6-56.353-3.385 85.525" class="cls-7"/>
                                <path id="Trazado_149624" d="M527.679-99.587l-8.065 84.192L598.7 27.924l-50.282-73.067-28.8 29.749 45.068 45.7 34.014-2.382" class="cls-7"/>
                                <path id="Trazado_149625" d="M548.176-163.013l-39.384 7.319 65.225-50.206 52.6 61.721-78.444-18.834-41.3-48.462 1.918 55.78-16.331 26.937 35.217 29.171-18.886-56.108-59.365 2.961 29.509 104.243-89.573-53.787 103.1-26.48" class="cls-7"/>
                                <path id="Trazado_149626" d="M696.624-92.029l-9.363-71.524-60.641 19.373 70 52.15 82.87-8.97-92.229-62.553-139.085.54-20.5 63.426 34.161-13.349" class="cls-7"/>
                                <path id="Trazado_149627" d="M599.481-91.449l-51.063 46.306-.242-117.87 51.3 71.564 27.144-52.731 46.417 18.08-73.556 34.651" class="cls-7"/>
                                <path id="Trazado_149628" d="M472.766 85.442l-37.081-73.415 53.485 21.2 30.444-48.62-40.679-33.1-43.25 60.518 35.025 3.6 2.056 69.819-8.208 77.356 42.151-23.26" class="cls-7"/>
                                <path id="Trazado_149629" d="M486.21 202.964l-78.442-18.835 52.6 61.722 65.232-50.206-39.385 7.318" class="cls-7"/>
                                <path id="Trazado_149630" d="M489.169 33.226l21.231 63.11 34.915-13.153 41.627 33.934-45.012 51.591 39.617 36.668-55.947-9.731-18.886-56.109 35.218 29.172-16.332 26.937" class="cls-7"/>
                                <path id="Trazado_149631" d="M472.766 85.442l-65 98.687 56.79-21.332 21.652 40.166" class="cls-7"/>
                                <path id="Línea_106" d="M0 0L25.241 46.889" class="cls-7" transform="translate(520.07 36.294)"/>
                                <path id="Trazado_149632" d="M548.176-163.013l13.664 50.078 37.641 21.486" class="cls-7"/>
                                <path id="Trazado_149633" d="M227.083-14.364l-62.328 44.957 66.6.573-23.83 53.163-52.614-53.89-27.993 63.678-12.33 78.756-52.888-49.7-14.255 62.251 67.143-12.552-62.868 58.082" class="cls-7"/>
                                <path id="Trazado_149634" d="M191.417 171.552l14.1-104.2-45.376 14.768 5.537 67.059 25.739 22.373" class="cls-7"/>
                                <path id="Trazado_149636" d="M290.7.814l-33.02-22.678 81.62 10.622-6.447 80.842L290.7.814l5.062-63.474-38.084 40.8-30.6 7.5 4.277 45.529 26.325-53.033-44.072-39.883-52.846 94.577-25.3-101.372 91.625 54.179" class="cls-7"/>
                                <path id="Trazado_149637" d="M80.6 157.483l-33.155 27.941-59.345 30.354-98.729-97.964-20.983-109.449 64.936 52.253 12.625 86.377-56.577-29.181 43.952-57.2" class="cls-7"/>
                                <path id="Trazado_149638" d="M47.445 185.424L1.193 172.066l60.5-48.893 56.763-77.046-31.069-1.087 94.75-9.987-20.15 69.677-51.771-6.882L87.387 45.04 61.7 123.173l-73.593 92.6-48.6 12.055-74.617-24.049 24.487-85.97 13.843 59.111 36.28 50.913" class="cls-7"/>
                                <path id="Trazado_149639" d="M110.216 97.848L80.6 157.483l33.989 15.39 5.443 53.43-68.31 4.652L53.8 284.9l-32.675-46.445 26.32-53.03 4.276 45.53-30.6 7.5-38.085 40.8 5.062-63.474-42.153-68.783-6.445 80.835 81.622 10.622-33.022-22.677" class="cls-7"/>
                                <path id="Trazado_149640" d="M102.461 73.66l105.669 28.609-93.543 70.6 51.09-23.694-35.78-27.31 60.083-32.212" class="cls-7"/>
                                <path id="Trazado_149641" d="M129.9 121.868l-15.31 51-19.547 32.265L120.03 226.3 53.8 284.9l-70.764-5.645" class="cls-7"/>
                                <path id="Trazado_149642" d="M290.7.814l-25.75 45.069 11.425 41.811 61.385 44.287 9.363 71.522 60.642-19.374-70.003-52.149-82.862 8.969 92.226 62.551 139.084-.539 20.5-63.427 3.688-43.2" class="cls-7"/>
                                <path id="Trazado_149643" d="M389.431 98.775l-51.669 33.205-4.909-62.38 66.87-35.144 73.044 50.99-83.336 13.329L332.853 69.6l-56.475 18.1L290.7.814l-83.175 83.515 68.853 3.364" class="cls-7"/>
                                <path id="Trazado_149644" d="M399.723 34.452l30 42.867 43.048 8.124" class="cls-7"/>
                                <path id="Trazado_149645" d="M339.3-11.242l59.762-31.146 36.623 54.414-35.962 22.426L339.3-11.242l50.13 110.017 18.337 85.354-28.567-41.24-41.44-10.909" class="cls-7"/>
                                <path id="Trazado_149646" d="M399.723 34.452l-.661-76.839 71.648 58.011 48.9-31.018 25.7 98.578L564.682 30.3l-44.612 5.994-.456-51.689" class="cls-7"/>
                                <path id="Trazado_149647" d="M276.378 87.693L254.9 140.949l-63.48 30.6" class="cls-7"/>
                                <path id="Línea_107" d="M0 0L47.372 56.62" class="cls-7" transform="translate(207.525 84.329)"/>
                                <path id="Trazado_149648" d="M464.558 162.8l-34.84-85.482-40.287 21.457 26.445 15.435 13.843-36.893" class="cls-7"/>
                                <path id="Línea_108" d="M8.108 0L0 69.918" class="cls-7" transform="translate(407.768 114.211)"/>
                                <path id="Línea_109" d="M14.224 0L0 37.451" class="cls-7" transform="translate(673.037 -163.553)"/>
                                <path id="Línea_110" d="M43.323 0L0 25.821" class="cls-7" transform="translate(51.72 205.133)"/>
                                <path id="Trazado_149649" d="M-135.114 203.784l38.334-26.864 84.88 38.858 13.093-43.712-55.244-25.072L61.7 123.173l58.3-19.366" class="cls-7"/>
                                <path id="Trazado_149650" d="M-66.676 60.618l33.146 59.117-20.521 27.26" class="cls-7"/>
                                <path id="Línea_111" d="M0 0L95.225 3.438" class="cls-7" transform="translate(-33.53 119.735)"/>
                                <path id="Trazado_149651" d="M290.7.812l28.832 82.147L332.853 69.6" class="cls-7"/>
                                <path id="Línea_112" d="M0 0L69.897 15.817" class="cls-7" transform="translate(319.534 82.959)"/>
                                <path id="Trazado_149652" d="M339.3-11.242l44.782 10.206 15.641 35.488" class="cls-7"/>
                                <path id="Línea_113" d="M0 41.351L14.979 0" class="cls-7" transform="translate(384.082 -42.388)"/>
                                <path id="Línea_114" d="M0 42.888L25.841 0" class="cls-7" transform="translate(460.369 202.964)"/>
                            </g>
                            <g id="Grupo_4858">
                                <path id="Trazado_149653" d="M507.868-210.309a1.531 1.531 0 0 0 .173-2.159 1.531 1.531 0 0 0-2.16-.173 1.534 1.534 0 0 0-.172 2.16 1.533 1.533 0 0 0 2.159.172z" class="cls-7"/>
                                <path id="Trazado_149654" d="M509.786-154.529a1.534 1.534 0 0 0 .172-2.161 1.533 1.533 0 0 0-2.159-.173 1.535 1.535 0 0 0-.172 2.162 1.532 1.532 0 0 0 2.159.172z" class="cls-7"/>
                                <path id="Trazado_149655" d="M528.672-98.422a1.53 1.53 0 0 0 .172-2.158 1.533 1.533 0 0 0-2.16-.173 1.533 1.533 0 0 0-.171 2.16 1.531 1.531 0 0 0 2.159.171z" class="cls-7"/>
                                <path id="Trazado_149656" d="M562.834-111.768a1.535 1.535 0 0 0 .172-2.161 1.533 1.533 0 0 0-2.16-.172 1.532 1.532 0 0 0-.172 2.16 1.533 1.533 0 0 0 2.16.173z" class="cls-7"/>
                                <path id="Trazado_149657" d="M549.7-43.636a1.978 1.978 0 0 0 .22-2.789 1.976 1.976 0 0 0-2.788-.222 1.977 1.977 0 0 0-.223 2.788 1.979 1.979 0 0 0 2.791.223z" class="cls-7"/>
                                <path id="Trazado_149658" d="M520.9-13.889a1.977 1.977 0 0 0 .222-2.789 1.977 1.977 0 0 0-2.788-.222 1.977 1.977 0 0 0-.223 2.787 1.979 1.979 0 0 0 2.789.224z" class="cls-7"/>
                                <path id="Trazado_149659" d="M565.884 31.713a1.852 1.852 0 1 0-2.611-.209 1.851 1.851 0 0 0 2.611.209z" class="cls-7"/>
                                <path id="Trazado_149660" d="M480.1-47.128a1.792 1.792 0 0 0 .2-2.525 1.791 1.791 0 0 0-2.525-.2 1.792 1.792 0 0 0-.2 2.526 1.792 1.792 0 0 0 2.525.199z" class="cls-7"/>
                                <path id="Trazado_149661" d="M450.589-151.372a1.789 1.789 0 0 0 .2-2.524 1.788 1.788 0 0 0-2.524-.2 1.787 1.787 0 0 0-.2 2.523 1.789 1.789 0 0 0 2.524.201z" class="cls-7"/>
                                <path id="Trazado_149662" d="M599.7 29.089a1.532 1.532 0 1 0-2.16-.172 1.53 1.53 0 0 0 2.16.172z" class="cls-7"/>
                                <path id="Trazado_149663" d="M575.011-204.735a1.53 1.53 0 0 0 .172-2.159 1.53 1.53 0 0 0-2.159-.173 1.531 1.531 0 0 0-.172 2.159 1.53 1.53 0 0 0 2.159.173z" class="cls-7"/>
                                <path id="Trazado_149664" d="M697.618-90.864a1.533 1.533 0 0 0 .172-2.16 1.532 1.532 0 0 0-2.159-.172 1.532 1.532 0 0 0-.174 2.159 1.533 1.533 0 0 0 2.161.173z" class="cls-7"/>
                                <path id="Trazado_149665" d="M674.03-124.937a1.53 1.53 0 0 0 .173-2.159 1.533 1.533 0 0 0-2.16-.173 1.533 1.533 0 0 0-.172 2.16 1.53 1.53 0 0 0 2.159.172z" class="cls-7"/>
                                <path id="Trazado_149666" d="M780.484-99.834a1.534 1.534 0 0 0 .172-2.16 1.534 1.534 0 0 0-2.16-.171 1.533 1.533 0 0 0-.172 2.16 1.532 1.532 0 0 0 2.16.171z" class="cls-7"/>
                                <path id="Trazado_149667" d="M549.636-161.3a2.252 2.252 0 0 0 .253-3.173 2.249 2.249 0 0 0-3.172-.252 2.249 2.249 0 0 0-.253 3.171 2.251 2.251 0 0 0 3.172.254z" class="cls-7"/>
                                <path id="Trazado_149668" d="M688.72-161.841a2.252 2.252 0 0 0 .254-3.171 2.252 2.252 0 0 0-3.173-.255 2.25 2.25 0 0 0-.253 3.172 2.251 2.251 0 0 0 3.172.254z" class="cls-7"/>
                                <path id="Trazado_149669" d="M627.995-142.565a2.12 2.12 0 0 0 .24-2.991 2.121 2.121 0 0 0-2.992-.239A2.122 2.122 0 0 0 625-142.8a2.122 2.122 0 0 0 2.995.235z" class="cls-7"/>
                                <path id="Trazado_149670" d="M601.437-89.153a3.016 3.016 0 0 0 .34-4.252 3.014 3.014 0 0 0-4.251-.339 3.015 3.015 0 0 0-.34 4.252 3.016 3.016 0 0 0 4.251.339z" class="cls-7"/>
                                <path id="Trazado_149671" d="M583.5 207.672a3.015 3.015 0 1 0-4.253-.338 3.014 3.014 0 0 0 4.253.338z" class="cls-7"/>
                                <path id="Trazado_149672" d="M493.836-127.143a2.12 2.12 0 0 0 .24-2.99 2.121 2.121 0 0 0-2.992-.24 2.122 2.122 0 0 0-.238 2.992 2.12 2.12 0 0 0 2.99.238z" class="cls-7"/>
                                <path id="Trazado_149673" d="M390.573-100.859a1.864 1.864 0 0 0 .21-2.63 1.866 1.866 0 0 0-2.632-.21 1.864 1.864 0 0 0-.209 2.631 1.864 1.864 0 0 0 2.631.209z" class="cls-7"/>
                                <path id="Trazado_149674" d="M524.6 194.48a1.532 1.532 0 1 0 2.16.173 1.532 1.532 0 0 0-2.16-.173z" class="cls-7"/>
                                <path id="Trazado_149675" d="M505.715 138.371a1.532 1.532 0 1 0 2.16.173 1.53 1.53 0 0 0-2.16-.173z" class="cls-7"/>
                                <path id="Trazado_149676" d="M470.928 83.284a2.835 2.835 0 1 0 4 .32 2.835 2.835 0 0 0-4-.32z" class="cls-7"/>
                                <path id="Trazado_149677" d="M487.969 31.816a1.851 1.851 0 1 0 2.611.209 1.851 1.851 0 0 0-2.611-.209z" class="cls-7"/>
                                <path id="Trazado_149678" d="M469.581 14.3a1.74 1.74 0 1 0 2.452.2 1.741 1.741 0 0 0-2.452-.2z" class="cls-7"/>
                                <path id="Trazado_149679" d="M544.318 82.017a1.532 1.532 0 1 0 2.158.173 1.532 1.532 0 0 0-2.158-.173z" class="cls-7"/>
                                <path id="Trazado_149680" d="M509.4 95.169a1.532 1.532 0 1 0 2.159.172 1.532 1.532 0 0 0-2.159-.172z" class="cls-7"/>
                                <path id="Trazado_149681" d="M519.077 35.128a1.531 1.531 0 1 0 2.159.172 1.533 1.533 0 0 0-2.159-.172z" class="cls-7"/>
                                <path id="Trazado_149682" d="M434.691 10.86a1.531 1.531 0 1 0 2.159.172 1.532 1.532 0 0 0-2.159-.172z" class="cls-7"/>
                                <path id="Trazado_149683" d="M459.376 244.685a1.531 1.531 0 1 0 2.16.172 1.532 1.532 0 0 0-2.16-.172z" class="cls-7"/>
                                <path id="Trazado_149684" d="M336.769 130.815a1.532 1.532 0 1 0 2.159.173 1.534 1.534 0 0 0-2.159-.173z" class="cls-7"/>
                                <path id="Trazado_149685" d="M318.54 81.794a1.531 1.531 0 1 0 2.159.172 1.529 1.529 0 0 0-2.159-.172z" class="cls-7"/>
                                <path id="Trazado_149686" d="M253.9 139.784a1.531 1.531 0 1 0 2.159.17 1.531 1.531 0 0 0-2.159-.17z" class="cls-7"/>
                                <path id="Trazado_149687" d="M484.751 201.25a2.25 2.25 0 1 0 3.172.254 2.25 2.25 0 0 0-3.172-.254z" class="cls-7"/>
                                <path id="Trazado_149688" d="M463.1 161.084a2.25 2.25 0 1 0 3.172.254 2.251 2.251 0 0 0-3.172-.254z" class="cls-7"/>
                                <path id="Trazado_149689" d="M345.667 201.79a2.25 2.25 0 1 0 3.171.254 2.251 2.251 0 0 0-3.171-.254z" class="cls-7"/>
                                <path id="Trazado_149690" d="M300.946 150.257a2.25 2.25 0 1 0 3.172.254 2.253 2.253 0 0 0-3.172-.254z" class="cls-7"/>
                                <path id="Trazado_149691" d="M406.391 182.514a2.122 2.122 0 1 0 2.992.24 2.122 2.122 0 0 0-2.992-.24z" class="cls-7"/>
                                <path id="Trazado_149692" d="M377.329 140.689a2.888 2.888 0 1 0 4.071.326 2.892 2.892 0 0 0-4.071-.326z" class="cls-7"/>
                                <path id="Trazado_149693" d="M397.849 32.253a2.888 2.888 0 1 0 4.072.325 2.891 2.891 0 0 0-4.072-.325z" class="cls-7"/>
                                <path id="Trazado_149694" d="M540.549 167.093a2.122 2.122 0 1 0 2.991.238 2.123 2.123 0 0 0-2.991-.238z" class="cls-7"/>
                                <path id="Trazado_149695" d="M585.562 115.5a2.122 2.122 0 1 0 2.992.238 2.122 2.122 0 0 0-2.992-.238z" class="cls-7"/>
                                <path id="Trazado_149696" d="M295.643-61.134a1.532 1.532 0 0 0 1.648-1.406 1.53 1.53 0 0 0-1.4-1.648 1.532 1.532 0 0 0-1.65 1.406 1.531 1.531 0 0 0 1.402 1.648z" class="cls-7"/>
                                <path id="Trazado_149697" d="M257.558-20.335a1.533 1.533 0 0 0 1.648-1.406 1.532 1.532 0 0 0-1.4-1.649 1.533 1.533 0 0 0-1.65 1.4 1.536 1.536 0 0 0 1.402 1.655z" class="cls-7"/>
                                <path id="Trazado_149698" d="M231.237 32.692a1.531 1.531 0 1 0-1.4-1.648 1.531 1.531 0 0 0 1.4 1.648z" class="cls-7"/>
                                <path id="Trazado_149699" d="M264.83 47.409a1.531 1.531 0 1 0-1.4-1.648 1.531 1.531 0 0 0 1.4 1.648z" class="cls-7"/>
                                <path id="Trazado_149700" d="M207.367 86.3a1.979 1.979 0 1 0-1.814-2.13 1.978 1.978 0 0 0 1.814 2.13z" class="cls-7"/>
                                <path id="Trazado_149701" d="M165.531 151.024a1.851 1.851 0 1 0-1.7-1.993 1.852 1.852 0 0 0 1.7 1.993z" class="cls-7"/>
                                <path id="Trazado_149702" d="M160.62 34.614a1.791 1.791 0 1 0-1.643-1.927 1.79 1.79 0 0 0 1.643 1.927z" class="cls-7"/>
                                <path id="Trazado_149703" d="M213.466-59.963a1.788 1.788 0 0 0 1.926-1.643 1.788 1.788 0 0 0-1.643-1.926 1.792 1.792 0 0 0-1.928 1.642 1.792 1.792 0 0 0 1.645 1.927z" class="cls-7"/>
                                <path id="Trazado_149704" d="M191.295 173.078a1.532 1.532 0 1 0-1.4-1.649 1.534 1.534 0 0 0 1.4 1.649z" class="cls-7"/>
                                <path id="Trazado_149705" d="M339.18-9.716a1.532 1.532 0 0 0 1.648-1.405 1.532 1.532 0 0 0-1.4-1.649 1.53 1.53 0 0 0-1.649 1.406 1.531 1.531 0 0 0 1.401 1.648z" class="cls-7"/>
                                <path id="Trazado_149706" d="M383.961.491a1.533 1.533 0 0 0 1.648-1.4 1.532 1.532 0 0 0-1.4-1.649 1.532 1.532 0 0 0-1.649 1.4 1.532 1.532 0 0 0 1.401 1.649z" class="cls-7"/>
                                <path id="Trazado_149707" d="M290.523 3.054a2.249 2.249 0 1 0-2.063-2.42 2.25 2.25 0 0 0 2.063 2.42z" class="cls-7"/>
                                <path id="Trazado_149708" d="M389.252 101.019a2.251 2.251 0 1 0-2.064-2.422 2.252 2.252 0 0 0 2.064 2.422z" class="cls-7"/>
                                <path id="Trazado_149709" d="M429.54 79.559a2.249 2.249 0 1 0-2.063-2.42 2.247 2.247 0 0 0 2.063 2.42z" class="cls-7"/>
                                <path id="Trazado_149710" d="M415.723 116.137a1.932 1.932 0 1 0-1.773-2.079 1.93 1.93 0 0 0 1.773 2.079z" class="cls-7"/>
                                <path id="Trazado_149711" d="M398.883-40.145a2.248 2.248 0 0 0 2.42-2.063 2.247 2.247 0 0 0-2.062-2.421 2.249 2.249 0 0 0-2.422 2.063 2.248 2.248 0 0 0 2.064 2.421z" class="cls-7"/>
                                <path id="Trazado_149712" d="M332.685 71.711a2.122 2.122 0 1 0-1.947-2.285 2.123 2.123 0 0 0 1.947 2.285z" class="cls-7"/>
                                <path id="Trazado_149713" d="M276.137 90.7a3.015 3.015 0 1 0-2.767-3.246 3.014 3.014 0 0 0 2.767 3.246z" class="cls-7"/>
                                <path id="Trazado_149714" d="M53.564 287.9a3.016 3.016 0 1 0-2.767-3.247 3.016 3.016 0 0 0 2.767 3.247z" class="cls-7"/>
                                <path id="Trazado_149715" d="M226.913-12.248A2.122 2.122 0 0 0 229.2-14.2a2.119 2.119 0 0 0-1.947-2.282 2.122 2.122 0 0 0-2.283 1.946 2.123 2.123 0 0 0 1.943 2.288z" class="cls-7"/>
                                <path id="Trazado_149716" d="M135.309-66.681a1.865 1.865 0 0 0 2.009-1.712 1.866 1.866 0 0 0-1.712-2.01 1.866 1.866 0 0 0-2.01 1.712 1.867 1.867 0 0 0 1.713 2.01z" class="cls-7"/>
                                <path id="Trazado_149717" d="M-16.84 277.725a1.53 1.53 0 0 0-1.649 1.4 1.533 1.533 0 0 0 1.405 1.648 1.533 1.533 0 0 0 1.649-1.405 1.531 1.531 0 0 0-1.405-1.643z" class="cls-7"/>
                                <path id="Trazado_149718" d="M21.246 236.927a1.532 1.532 0 1 0 1.406 1.648 1.531 1.531 0 0 0-1.406-1.648z" class="cls-7"/>
                                <path id="Trazado_149719" d="M47.566 183.9a1.532 1.532 0 1 0 1.4 1.649 1.532 1.532 0 0 0-1.4-1.649z" class="cls-7"/>
                                <path id="Trazado_149720" d="M61.852 121.2a1.979 1.979 0 1 0 1.815 2.129 1.977 1.977 0 0 0-1.815-2.129z" class="cls-7"/>
                                <path id="Trazado_149721" d="M114.709 171.345a1.532 1.532 0 1 0 1.406 1.649 1.531 1.531 0 0 0-1.406-1.649z" class="cls-7"/>
                                <path id="Trazado_149722" d="M80.722 155.957a1.531 1.531 0 1 0 1.406 1.648 1.532 1.532 0 0 0-1.406-1.648z" class="cls-7"/>
                                <path id="Trazado_149723" d="M95.153 203.775a1.363 1.363 0 1 0 1.251 1.467 1.363 1.363 0 0 0-1.251-1.467z" class="cls-7"/>
                                <path id="Trazado_149724" d="M130.018 120.341a1.532 1.532 0 1 0 1.406 1.649 1.534 1.534 0 0 0-1.406-1.649z" class="cls-7"/>
                                <path id="Trazado_149725" d="M87.508 43.513a1.531 1.531 0 1 0 1.4 1.648 1.529 1.529 0 0 0-1.4-1.648z" class="cls-7"/>
                                <path id="Trazado_149726" d="M-60.377 226.306a1.531 1.531 0 0 0-1.648 1.4 1.532 1.532 0 0 0 1.406 1.648 1.529 1.529 0 0 0 1.648-1.4 1.53 1.53 0 0 0-1.406-1.648z" class="cls-7"/>
                                <path id="Trazado_149727" d="M-96.659 175.393a1.531 1.531 0 0 0-1.648 1.4 1.532 1.532 0 0 0 1.4 1.65 1.533 1.533 0 0 0 1.649-1.407 1.532 1.532 0 0 0-1.401-1.643z" class="cls-7"/>
                                <path id="Trazado_149728" d="M-66.554 59.091A1.532 1.532 0 0 0-68.2 60.5a1.532 1.532 0 0 0 1.4 1.646 1.533 1.533 0 0 0 1.649-1.406 1.532 1.532 0 0 0-1.403-1.649z" class="cls-7"/>
                                <path id="Trazado_149729" d="M-131.49 6.838a1.532 1.532 0 0 0-1.649 1.406 1.535 1.535 0 0 0 1.405 1.649 1.535 1.535 0 0 0 1.65-1.406 1.533 1.533 0 0 0-1.406-1.649z" class="cls-7"/>
                                <path id="Trazado_149730" d="M-11.719 213.535a2.253 2.253 0 0 0-2.423 2.065 2.25 2.25 0 0 0 2.064 2.421 2.25 2.25 0 0 0 2.422-2.063 2.251 2.251 0 0 0-2.063-2.423z" class="cls-7"/>
                                <path id="Trazado_149731" d="M1.372 169.824a2.25 2.25 0 1 0 2.063 2.421 2.249 2.249 0 0 0-2.063-2.421z" class="cls-7"/>
                                <path id="Trazado_149732" d="M-33.376 117.817a1.924 1.924 0 0 0-2.071 1.764 1.922 1.922 0 0 0 1.764 2.068 1.921 1.921 0 0 0 2.069-1.762 1.923 1.923 0 0 0-1.762-2.07z" class="cls-7"/>
                                <path id="Trazado_149733" d="M-110.449 115.571a2.25 2.25 0 0 0-2.422 2.063 2.25 2.25 0 0 0 2.063 2.422 2.249 2.249 0 0 0 2.423-2.064 2.249 2.249 0 0 0-2.064-2.421z" class="cls-7"/>
                                <path id="Trazado_149734" d="M-53.881 144.879a2.122 2.122 0 0 0-2.284 1.946 2.121 2.121 0 0 0 1.947 2.284 2.118 2.118 0 0 0 2.282-1.947 2.118 2.118 0 0 0-1.945-2.283z" class="cls-7"/>
                                <path id="Trazado_149735" d="M-134.884 200.9a2.889 2.889 0 0 0-3.11 2.649 2.891 2.891 0 0 0 2.649 3.11 2.891 2.891 0 0 0 3.11-2.651 2.888 2.888 0 0 0-2.649-3.108z" class="cls-7"/>
                                <path id="Trazado_149736" d="M51.89 228.838a2.122 2.122 0 1 0 1.946 2.285 2.121 2.121 0 0 0-1.946-2.285z" class="cls-7"/>
                                <path id="Trazado_149737" d="M120.2 224.187a2.123 2.123 0 1 0 1.946 2.284 2.123 2.123 0 0 0-1.946-2.284z" class="cls-7"/>
                            </g>
                        </g>
                        <g id="Grupo_4863">
                            <g id="Grupo_4860" class="cls-6">
                                <path id="Trazado_149738" d="M281.864 79.836l19.181 11.2 10.041-26.759z" class="cls-8"/>
                                <path id="Trazado_149739" d="M369.6 78.067l-15.4-45.775 40.72 36.235z" class="cls-8"/>
                                <path id="Trazado_149740" d="M408.977 30.172L376.288-2.973l57.364 31.42z" class="cls-8"/>
                                <path id="Trazado_149741" d="M382.137-64.04l24.778-9.682L397-110.044z" class="cls-8"/>
                                <path id="Trazado_149742" d="M434.217-58.137L453.9-96.383l33.667 13.112z" class="cls-8"/>
                                <path id="Trazado_149743" d="M288.849-22.552l26.564 39.467 25.4 2.609z" class="cls-8"/>
                                <path id="Trazado_149744" d="M352.06 155.406l28.566-5.308-13.7-40.7z" class="cls-8"/>
                                <path id="Trazado_149745" d="M295.164 141.745l41.191-15.473 5.954-56.107z" class="cls-8"/>
                                <path id="Trazado_149746" d="M218.743 118.419l25.644-14.5L199.863 71.8z" class="cls-8"/>
                                <path id="Trazado_149747" d="M210.254 8.782l30.573 49.89-9.661 9.693z" class="cls-8"/>
                                <path id="Trazado_149748" d="M245.5.039l43.825 33.142-11.341-25.74z" class="cls-8"/>
                                <path id="Trazado_149749" d="M116.006 32.005l51.205-1.205-3.1-33.023z" class="cls-8"/>
                                <path id="Trazado_149750" d="M44.152 97.532l18.634-56.671 16.12 19.808z" class="cls-8"/>
                                <path id="Trazado_149751" d="M119.572 116.395l.324-46.553 18.345 62.78z" class="cls-8"/>
                                <path id="Trazado_149752" d="M36.917 175.707l31.423-18.728 18.123 15.354z" class="cls-8"/>
                                <path id="Trazado_149753" d="M-9.227 164.7l43.042-22.016 10.337-45.152z" class="cls-8"/>
                                <path id="Trazado_149754" d="M-39.8 114.81l-9.157-62.65 24.041 42.878z" class="cls-8"/>
                                <path id="Trazado_149755" d="M-80.837 93.644l10.044 42.871L-9.227 164.7z" class="cls-8"/>
                                <path id="Trazado_149756" d="M356.594-85.2l25.543 21.16-35.354 37.061z" class="cls-8"/>
                            </g>
                            <g id="Grupo_4861">
                                <path id="Línea_115" d="M0 43.964L23.265 0" class="cls-7" transform="translate(251.179 111.832)"/>
                                <path id="Trazado_149757" d="M199.863 71.8l18.88 46.621 25.644-14.5" class="cls-7"/>
                                <path id="Trazado_149758" d="M356.594-85.2l-9.811 58.218 35.355-37.06L397.18-24.55l-50.4-2.429 7.423 59.271 40.721 36.235-52.618 1.638 24.621 39.235 28-40.874-2.455 62.033" class="cls-7"/>
                                <path id="Trazado_149759" d="M382.137-64.04l-5.85 61.066 57.364 31.42-36.472-53-20.891 21.581 32.689 33.145 24.676-1.726" class="cls-7"/>
                                <path id="Trazado_149760" d="M397-110.044l-28.566 5.308 47.309-36.416L453.9-96.383 397-110.044l-29.957-35.15 1.391 40.458-11.84 19.536 25.543 21.16-13.7-40.7-43.058 2.148 21.4 75.608-64.965-39.008 74.78-19.208" class="cls-7"/>
                                <path id="Trazado_149761" d="M504.677-58.558l-6.791-51.877L453.9-96.383l50.776 37.826 60.1-6.506-66.895-45.371-100.881.39-14.867 46 24.778-9.682" class="cls-7"/>
                                <path id="Trazado_149762" d="M434.217-58.137L397.18-24.55l-.18-85.494 37.212 51.907L453.9-96.383l33.667 13.112-53.35 25.134" class="cls-7"/>
                                <path id="Trazado_149763" d="M342.309 70.165l-26.9-53.25 38.794 15.376 22.085-35.264-29.505-24.006-31.37 43.895 25.4 2.609 1.492 50.641-5.954 56.107 30.576-16.873" class="cls-7"/>
                                <path id="Trazado_149764" d="M352.06 155.406l-56.9-13.661 38.152 44.768 47.31-36.415-28.566 5.308" class="cls-7"/>
                                <path id="Trazado_149765" d="M354.206 32.292l15.4 45.775 25.324-9.54 30.19 24.613-32.648 37.42 28.735 26.6-40.58-7.058-13.7-40.7 25.544 21.159-11.845 19.539" class="cls-7"/>
                                <path id="Trazado_149766" d="M342.309 70.165l-47.144 71.58 41.191-15.473 15.7 29.134" class="cls-7"/>
                                <path id="Línea_116" d="M0 0L18.308 34.01" class="cls-7" transform="translate(376.619 34.517)"/>
                                <path id="Trazado_149767" d="M397-110.044l9.911 36.322 27.3 15.584" class="cls-7"/>
                                <path id="Trazado_149768" d="M164.11-2.226L116.006 32l29.984-2.95 3.934 40.3L116.006 32 79.345 79.164l3.171 54.416-38.364-36.048-10.337 45.152 48.7-9.1-45.6 42.128" class="cls-7"/>
                                <path id="Trazado_149770" d="M167.212 30.8l-42.755 34.247 27.513 57.875-2.046-53.564-25.468-4.311" class="cls-7"/>
                                <path id="Trazado_149771" d="M210.255 8.783L186.3-7.666l59.2 7.7-4.676 58.633-30.569-49.884 3.671-46.039L186.3-7.666l-22.19 5.44 3.1 33.023L186.3-7.666l-31.964-28.928L116.006 32 97.652-41.523l66.458 39.3" class="cls-7"/>
                                <path id="Trazado_149772" d="M57.863 122.417l-24.048 20.267L-9.227 164.7l-71.61-71.055-15.22-79.385 47.1 37.9 9.157 62.65-41.037-21.165 31.879-41.485" class="cls-7"/>
                                <path id="Trazado_149773" d="M44.152 97.532L-9.227 164.7l-35.25 8.744L-98.6 156l17.761-62.355 10.044 42.871 26.316 36.928" class="cls-7"/>
                                <path id="Trazado_149774" d="M116.006 32l8.45 33.042L106 74.89" class="cls-7"/>
                                <path id="Trazado_149775" d="M33.815 142.684L.268 133l43.884-35.468 34.754-36.863" class="cls-7"/>
                                <path id="Trazado_149776" d="M79.345 79.164l-21.482 43.253 24.652 11.163 3.948 38.754-49.547 3.374 1.511 39.125-23.7-33.685 19.09-38.463 3.1 33.023-22.191 5.44-27.626 29.59 3.673-46.038-30.573-49.89-4.676 58.633 59.2 7.7L-9.227 164.7" class="cls-7"/>
                                <path id="Trazado_149777" d="M78.906 60.669l38.629-13.157-19.38 50.758 10.92 23.53-.615 18" class="cls-7"/>
                                <path id="Trazado_149778" d="M210.255 8.783l-18.678 32.689 8.287 30.328 44.523 32.123 6.792 51.876 43.985-14.052-50.776-37.827-60.1 6.5 66.9 45.371 100.88-.391 14.868-46 2.664-31.333" class="cls-7"/>
                                <path id="Trazado_149779" d="M281.864 79.836l-37.476 24.084-3.561-45.249 48.5-25.49 52.98 36.984-60.445 9.671-41.035-21.165L199.864 71.8l10.39-63.015-60.33 60.575 49.94 2.44" class="cls-7"/>
                                <path id="Trazado_149780" d="M289.329 33.181l21.757 31.092 31.223 5.892" class="cls-7"/>
                                <path id="Trazado_149781" d="M245.5.039l43.35-22.591 26.563 39.467-26.084 16.266L245.5.039l36.36 79.8 13.3 61.909-20.719-29.912-30.057-7.912" class="cls-7"/>
                                <path id="Trazado_149782" d="M289.329 33.181l-.479-55.733 51.967 42.076 35.471-22.5 18.639 71.5 14.05-38.355-32.358 4.345-.331-37.491" class="cls-7"/>
                                <path id="Línea_117" d="M0 0L10.217 12.762" class="cls-7" transform="translate(149.924 69.358)"/>
                                <path id="Trazado_149783" d="M336.355 126.272l-25.27-62-29.221 15.564 19.181 11.2 10.04-26.759" class="cls-7"/>
                                <path id="Línea_118" d="M5.881 0L0 50.713" class="cls-7" transform="translate(295.164 91.031)"/>
                                <path id="Línea_119" d="M10.317 0L0 27.164" class="cls-7" transform="translate(487.568 -110.435)"/>
                                <path id="Línea_120" d="M31.423 0L0 18.728" class="cls-7" transform="translate(36.917 156.979)"/>
                                <path id="Trazado_149784" d="M-98.6 156l27.8-19.485L-9.227 164.7.268 133-39.8 114.81l83.952-17.278 35.193-18.368" class="cls-7"/>
                                <path id="Trazado_149785" d="M-48.958 52.16l24.041 42.878L-39.8 114.81" class="cls-7"/>
                                <path id="Línea_121" d="M0 0L69.069 2.494" class="cls-7" transform="translate(-24.917 95.038)"/>
                                <path id="Trazado_149786" d="M210.254 8.782l20.912 59.582 9.661-9.693" class="cls-7"/>
                                <path id="Línea_122" d="M0 0L50.698 11.472" class="cls-7" transform="translate(231.166 68.364)"/>
                                <path id="Trazado_149787" d="M245.5.039l32.481 7.4 11.344 25.74" class="cls-7"/>
                                <path id="Línea_123" d="M0 29.993L10.864 0" class="cls-7" transform="translate(277.984 -22.552)"/>
                                <path id="Línea_124" d="M0 31.107L18.743 0" class="cls-7" transform="translate(333.317 155.406)"/>
                            </g>
                            <g id="Grupo_4862">
                                <path id="Trazado_149788" d="M367.768-144.348a1.111 1.111 0 0 0 .126-1.567 1.111 1.111 0 0 0-1.567-.124 1.112 1.112 0 0 0-.125 1.566 1.111 1.111 0 0 0 1.566.125z" class="cls-9"/>
                                <path id="Trazado_149789" d="M369.159-103.89a1.111 1.111 0 0 0 .125-1.567 1.112 1.112 0 0 0-1.566-.126 1.113 1.113 0 0 0-.125 1.568 1.111 1.111 0 0 0 1.566.125z" class="cls-9"/>
                                <path id="Trazado_149790" d="M382.858-63.195a1.11 1.11 0 0 0 .125-1.565 1.112 1.112 0 0 0-1.567-.125 1.112 1.112 0 0 0-.124 1.566 1.11 1.11 0 0 0 1.566.124z" class="cls-9"/>
                                <path id="Trazado_149791" d="M407.636-72.875a1.113 1.113 0 0 0 .125-1.567 1.112 1.112 0 0 0-1.566-.125A1.11 1.11 0 0 0 406.07-73a1.111 1.111 0 0 0 1.566.125z" class="cls-9"/>
                                <path id="Trazado_149792" d="M398.111-23.457a1.435 1.435 0 0 0 .16-2.024 1.435 1.435 0 0 0-2.022-.161 1.434 1.434 0 0 0-.162 2.023 1.436 1.436 0 0 0 2.024.162z" class="cls-9"/>
                                <path id="Trazado_149793" d="M377.219-1.881a1.436 1.436 0 0 0 .161-2.019 1.435 1.435 0 0 0-2.022-.161 1.434 1.434 0 0 0-.162 2.022 1.435 1.435 0 0 0 2.023.158z" class="cls-9"/>
                                <path id="Trazado_149794" d="M409.848 31.194a1.343 1.343 0 1 0-1.893-.151 1.342 1.342 0 0 0 1.893.151z" class="cls-9"/>
                                <path id="Trazado_149795" d="M347.626-25.99a1.3 1.3 0 0 0 .146-1.832 1.3 1.3 0 0 0-1.832-.146 1.3 1.3 0 0 0-.146 1.832 1.3 1.3 0 0 0 1.832.146z" class="cls-9"/>
                                <path id="Trazado_149796" d="M326.223-101.6a1.3 1.3 0 0 0 .145-1.831 1.3 1.3 0 0 0-1.831-.146 1.3 1.3 0 0 0-.146 1.83 1.3 1.3 0 0 0 1.832.147z" class="cls-9"/>
                                <path id="Trazado_149797" d="M434.372 29.291a1.111 1.111 0 1 0-1.566-.125 1.111 1.111 0 0 0 1.566.125z" class="cls-9"/>
                                <path id="Trazado_149798" d="M416.468-140.3a1.11 1.11 0 0 0 .125-1.566 1.11 1.11 0 0 0-1.566-.126 1.11 1.11 0 0 0-.124 1.566 1.11 1.11 0 0 0 1.565.126z" class="cls-9"/>
                                <path id="Trazado_149799" d="M505.4-57.713a1.111 1.111 0 0 0 .125-1.566 1.111 1.111 0 0 0-1.566-.125 1.112 1.112 0 0 0-.126 1.566 1.112 1.112 0 0 0 1.567.125z" class="cls-9"/>
                                <path id="Trazado_149800" d="M488.289-82.426a1.111 1.111 0 0 0 .125-1.566 1.111 1.111 0 0 0-1.566-.126 1.111 1.111 0 0 0-.125 1.567 1.111 1.111 0 0 0 1.566.125z" class="cls-9"/>
                                <path id="Trazado_149801" d="M565.5-64.219a1.111 1.111 0 0 0 .124-1.566 1.112 1.112 0 0 0-1.566-.125 1.112 1.112 0 0 0-.125 1.567 1.112 1.112 0 0 0 1.567.124z" class="cls-9"/>
                                <path id="Trazado_149802" d="M398.064-108.8a1.633 1.633 0 0 0 .183-2.3 1.632 1.632 0 0 0-2.3-.183 1.631 1.631 0 0 0-.183 2.3 1.633 1.633 0 0 0 2.3.183z" class="cls-9"/>
                                <path id="Trazado_149803" d="M498.943-109.194a1.633 1.633 0 0 0 .185-2.3 1.633 1.633 0 0 0-2.3-.184 1.631 1.631 0 0 0-.184 2.3 1.631 1.631 0 0 0 2.299.184z" class="cls-9"/>
                                <path id="Trazado_149804" d="M454.9-95.212a1.539 1.539 0 0 0 .174-2.17 1.539 1.539 0 0 0-2.17-.173 1.538 1.538 0 0 0-.174 2.17 1.539 1.539 0 0 0 2.17.173z" class="cls-9"/>
                                <path id="Trazado_149805" d="M435.636-56.472a2.188 2.188 0 0 0 .246-3.084 2.186 2.186 0 0 0-3.082-.244 2.187 2.187 0 0 0-.247 3.083 2.189 2.189 0 0 0 3.083.245z" class="cls-9"/>
                                <path id="Trazado_149806" d="M422.625 158.821a2.187 2.187 0 1 0-3.085-.246 2.187 2.187 0 0 0 3.085.246z" class="cls-9"/>
                                <path id="Trazado_149807" d="M357.591-84.027a1.539 1.539 0 0 0 .174-2.169 1.54 1.54 0 0 0-2.17-.174 1.54 1.54 0 0 0-.173 2.171 1.538 1.538 0 0 0 2.169.172z" class="cls-9"/>
                                <path id="Trazado_149808" d="M282.693-64.963a1.352 1.352 0 0 0 .152-1.907 1.353 1.353 0 0 0-1.909-.152 1.351 1.351 0 0 0-.152 1.908 1.352 1.352 0 0 0 1.909.151z" class="cls-9"/>
                                <path id="Trazado_149809" d="M379.9 149.253a1.111 1.111 0 1 0 1.567.124 1.111 1.111 0 0 0-1.567-.124z" class="cls-9"/>
                                <path id="Trazado_149810" d="M366.207 108.556a1.111 1.111 0 1 0 1.566.125 1.11 1.11 0 0 0-1.566-.125z" class="cls-9"/>
                                <path id="Trazado_149811" d="M340.975 68.6a2.056 2.056 0 1 0 2.9.231 2.057 2.057 0 0 0-2.9-.231z" class="cls-9"/>
                                <path id="Trazado_149812" d="M353.335 31.269a1.343 1.343 0 1 0 1.894.152 1.343 1.343 0 0 0-1.894-.152z" class="cls-9"/>
                                <path id="Trazado_149813" d="M340 18.564a1.262 1.262 0 1 0 1.778.143 1.262 1.262 0 0 0-1.778-.143z" class="cls-9"/>
                                <path id="Trazado_149814" d="M394.206 67.681a1.111 1.111 0 1 0 1.566.126 1.111 1.111 0 0 0-1.566-.126z" class="cls-9"/>
                                <path id="Trazado_149815" d="M368.881 77.221a1.111 1.111 0 1 0 1.566.124 1.111 1.111 0 0 0-1.566-.124z" class="cls-9"/>
                                <path id="Trazado_149816" d="M375.9 33.672a1.111 1.111 0 1 0 1.567.124 1.11 1.11 0 0 0-1.567-.124z" class="cls-9"/>
                                <path id="Trazado_149817" d="M314.692 16.07a1.11 1.11 0 1 0 1.566.124 1.111 1.111 0 0 0-1.566-.124z" class="cls-9"/>
                                <path id="Trazado_149818" d="M332.6 185.667a1.111 1.111 0 1 0 1.567.124 1.111 1.111 0 0 0-1.567-.124z" class="cls-9"/>
                                <path id="Trazado_149819" d="M243.667 103.075a1.111 1.111 0 1 0 1.567.125 1.112 1.112 0 0 0-1.567-.125z" class="cls-9"/>
                                <path id="Trazado_149820" d="M230.445 67.519a1.111 1.111 0 1 0 1.567.125 1.11 1.11 0 0 0-1.567-.125z" class="cls-9"/>
                                <path id="Trazado_149821" d="M183.564 109.58a1.111 1.111 0 1 0 1.565.124 1.11 1.11 0 0 0-1.565-.124z" class="cls-9"/>
                                <path id="Trazado_149822" d="M351 154.163a1.633 1.633 0 1 0 2.3.184 1.632 1.632 0 0 0-2.3-.184z" class="cls-9"/>
                                <path id="Trazado_149823" d="M335.3 125.03a1.631 1.631 0 1 0 2.3.184 1.631 1.631 0 0 0-2.3-.184z" class="cls-9"/>
                                <path id="Trazado_149824" d="M250.122 154.554a1.632 1.632 0 1 0 2.3.185 1.633 1.633 0 0 0-2.3-.185z" class="cls-9"/>
                                <path id="Trazado_149825" d="M217.684 117.177a1.632 1.632 0 1 0 2.3.184 1.633 1.633 0 0 0-2.3-.184z" class="cls-9"/>
                                <path id="Trazado_149826" d="M294.165 140.573a1.54 1.54 0 1 0 2.17.174 1.54 1.54 0 0 0-2.17-.174z" class="cls-9"/>
                                <path id="Trazado_149827" d="M273.086 110.237a2.1 2.1 0 1 0 2.953.237 2.1 2.1 0 0 0-2.953-.237z" class="cls-9"/>
                                <path id="Trazado_149828" d="M287.97 31.586a2.1 2.1 0 1 0 2.953.236 2.1 2.1 0 0 0-2.953-.236z" class="cls-9"/>
                                <path id="Trazado_149829" d="M391.473 129.388a1.539 1.539 0 1 0 2.169.172 1.54 1.54 0 0 0-2.169-.172z" class="cls-9"/>
                                <path id="Trazado_149830" d="M424.121 91.969a1.539 1.539 0 1 0 2.171.172 1.539 1.539 0 0 0-2.171-.172z" class="cls-9"/>
                                <path id="Trazado_149831" d="M213.838-36.149a1.112 1.112 0 0 0 1.2-1.02 1.11 1.11 0 0 0-1.019-1.195 1.11 1.11 0 0 0-1.2 1.019 1.111 1.111 0 0 0 1.019 1.196z" class="cls-9"/>
                                <path id="Trazado_149832" d="M186.214-6.557a1.113 1.113 0 0 0 1.2-1.019 1.112 1.112 0 0 0-1.019-1.2 1.112 1.112 0 0 0-1.2 1.019 1.113 1.113 0 0 0 1.019 1.2z" class="cls-9"/>
                                <path id="Trazado_149833" d="M167.123 31.905a1.111 1.111 0 1 0-1.018-1.2 1.111 1.111 0 0 0 1.018 1.2z" class="cls-9"/>
                                <path id="Trazado_149834" d="M191.489 42.58a1.111 1.111 0 1 0-1.019-1.2 1.112 1.112 0 0 0 1.019 1.2z" class="cls-9"/>
                                <path id="Trazado_149835" d="M115.9 33.3a1.3 1.3 0 1 0-1.191-1.4 1.3 1.3 0 0 0 1.191 1.4z" class="cls-9"/>
                                <path id="Trazado_149836" d="M154.233-35.3a1.3 1.3 0 0 0 1.4-1.192 1.3 1.3 0 0 0-1.191-1.4 1.3 1.3 0 0 0-1.4 1.192 1.3 1.3 0 0 0 1.191 1.4z" class="cls-9"/>
                                <path id="Trazado_149837" d="M245.416 1.145a1.111 1.111 0 0 0 1.2-1.018 1.113 1.113 0 0 0-1.02-1.2 1.111 1.111 0 0 0-1.2 1.02 1.111 1.111 0 0 0 1.02 1.198z" class="cls-9"/>
                                <path id="Trazado_149838" d="M277.9 8.549a1.111 1.111 0 1 0-1.019-1.2 1.112 1.112 0 0 0 1.019 1.2z" class="cls-9"/>
                                <path id="Trazado_149839" d="M210.124 10.408a1.632 1.632 0 1 0-1.5-1.756 1.632 1.632 0 0 0 1.5 1.756z" class="cls-9"/>
                                <path id="Trazado_149840" d="M281.734 81.463a1.632 1.632 0 1 0-1.5-1.756 1.633 1.633 0 0 0 1.5 1.756z" class="cls-9"/>
                                <path id="Trazado_149841" d="M310.956 65.9a1.631 1.631 0 1 0-1.5-1.755 1.63 1.63 0 0 0 1.5 1.755z" class="cls-9"/>
                                <path id="Trazado_149842" d="M300.934 92.429a1.4 1.4 0 1 0-1.286-1.508 1.4 1.4 0 0 0 1.286 1.508z" class="cls-9"/>
                                <path id="Trazado_149843" d="M288.72-20.925a1.63 1.63 0 0 0 1.755-1.5 1.63 1.63 0 0 0-1.495-1.756 1.631 1.631 0 0 0-1.757 1.5 1.631 1.631 0 0 0 1.497 1.756z" class="cls-9"/>
                                <path id="Trazado_149844" d="M240.705 60.206a1.539 1.539 0 1 0-1.412-1.657 1.539 1.539 0 0 0 1.412 1.657z" class="cls-9"/>
                                <path id="Trazado_149845" d="M199.69 73.977a2.187 2.187 0 1 0-2.007-2.354 2.186 2.186 0 0 0 2.007 2.354z" class="cls-9"/>
                                <path id="Trazado_149846" d="M38.254 217.013a2.187 2.187 0 1 0-2.007-2.355 2.187 2.187 0 0 0 2.007 2.355z" class="cls-9"/>
                                <path id="Trazado_149847" d="M163.987-.692a1.538 1.538 0 0 0 1.657-1.408 1.537 1.537 0 0 0-1.412-1.656 1.54 1.54 0 0 0-1.656 1.412 1.539 1.539 0 0 0 1.411 1.652z" class="cls-9"/>
                                <path id="Trazado_149848" d="M97.545-40.173A1.351 1.351 0 0 0 99-41.414a1.352 1.352 0 0 0-1.242-1.458A1.352 1.352 0 0 0 96.3-41.63a1.352 1.352 0 0 0 1.245 1.457z" class="cls-9"/>
                                <path id="Trazado_149849" d="M-12.812 209.631a1.11 1.11 0 0 0-1.195 1.019 1.11 1.11 0 0 0 1.019 1.2 1.112 1.112 0 0 0 1.2-1.019 1.111 1.111 0 0 0-1.024-1.2z" class="cls-9"/>
                                <path id="Trazado_149850" d="M14.813 180.039a1.111 1.111 0 1 0 1.02 1.2 1.112 1.112 0 0 0-1.02-1.2z" class="cls-9"/>
                                <path id="Trazado_149851" d="M33.9 141.577a1.111 1.111 0 1 0 1.019 1.2 1.108 1.108 0 0 0-1.019-1.2z" class="cls-9"/>
                                <path id="Trazado_149852" d="M44.265 96.1a1.435 1.435 0 1 0 1.316 1.545 1.435 1.435 0 0 0-1.316-1.545z" class="cls-9"/>
                                <path id="Trazado_149853" d="M79.452 77.826a1.343 1.343 0 1 0 1.232 1.445 1.342 1.342 0 0 0-1.232-1.445z" class="cls-9"/>
                                <path id="Trazado_149854" d="M79 59.412a1.261 1.261 0 1 0 1.158 1.357A1.263 1.263 0 0 0 79 59.412z" class="cls-9"/>
                                <path id="Trazado_149855" d="M82.6 132.472a1.111 1.111 0 1 0 1.019 1.2 1.111 1.111 0 0 0-1.019-1.2z" class="cls-9"/>
                                <path id="Trazado_149856" d="M57.952 121.311a1.111 1.111 0 1 0 1.02 1.195 1.109 1.109 0 0 0-1.02-1.195z" class="cls-9"/>
                                <path id="Trazado_149857" d="M68.419 155.994a.989.989 0 1 0 .908 1.064.99.99 0 0 0-.908-1.064z" class="cls-9"/>
                                <path id="Trazado_149858" d="M62.874 39.753a1.111 1.111 0 1 0 1.019 1.2 1.11 1.11 0 0 0-1.019-1.2z" class="cls-9"/>
                                <path id="Trazado_149859" d="M-44.39 172.336a1.11 1.11 0 0 0-1.195 1.019 1.112 1.112 0 0 0 1.02 1.2 1.109 1.109 0 0 0 1.195-1.019 1.111 1.111 0 0 0-1.02-1.2z" class="cls-9"/>
                                <path id="Trazado_149860" d="M-70.706 135.408a1.111 1.111 0 0 0-1.195 1.019 1.112 1.112 0 0 0 1.019 1.2 1.112 1.112 0 0 0 1.2-1.02 1.111 1.111 0 0 0-1.024-1.199z" class="cls-9"/>
                                <path id="Trazado_149861" d="M-48.869 51.052a1.111 1.111 0 0 0-1.2 1.02 1.11 1.11 0 0 0 1.02 1.2 1.112 1.112 0 0 0 1.2-1.02 1.112 1.112 0 0 0-1.02-1.2z" class="cls-9"/>
                                <path id="Trazado_149862" d="M-95.969 13.152a1.112 1.112 0 0 0-1.2 1.02 1.112 1.112 0 0 0 1.019 1.2 1.113 1.113 0 0 0 1.2-1.02 1.113 1.113 0 0 0-1.019-1.2z" class="cls-9"/>
                                <path id="Trazado_149863" d="M-9.1 163.073a1.634 1.634 0 0 0-1.757 1.5 1.632 1.632 0 0 0 1.5 1.756 1.631 1.631 0 0 0 1.756-1.5 1.632 1.632 0 0 0-1.499-1.756z" class="cls-9"/>
                                <path id="Trazado_149864" d="M.4 131.369a1.632 1.632 0 1 0 1.5 1.756 1.632 1.632 0 0 0-1.5-1.756z" class="cls-9"/>
                                <path id="Trazado_149865" d="M-24.805 93.648a1.393 1.393 0 0 0-1.5 1.278 1.4 1.4 0 0 0 1.279 1.5 1.4 1.4 0 0 0 1.5-1.279 1.394 1.394 0 0 0-1.279-1.499z" class="cls-9"/>
                                <path id="Trazado_149866" d="M-80.707 92.018a1.633 1.633 0 0 0-1.758 1.5 1.632 1.632 0 0 0 1.5 1.756 1.631 1.631 0 0 0 1.758-1.5 1.632 1.632 0 0 0-1.5-1.756z" class="cls-9"/>
                                <path id="Trazado_149867" d="M-39.678 113.276a1.538 1.538 0 0 0-1.656 1.411 1.539 1.539 0 0 0 1.411 1.657 1.537 1.537 0 0 0 1.656-1.412 1.536 1.536 0 0 0-1.411-1.656z" class="cls-9"/>
                                <path id="Trazado_149868" d="M-98.431 153.912a2.094 2.094 0 0 0-2.255 1.921 2.1 2.1 0 0 0 1.921 2.256 2.1 2.1 0 0 0 2.255-1.923 2.093 2.093 0 0 0-1.921-2.254z" class="cls-9"/>
                                <path id="Trazado_149869" d="M37.04 174.173a1.539 1.539 0 1 0 1.412 1.657 1.538 1.538 0 0 0-1.412-1.657z" class="cls-9"/>
                                <path id="Trazado_149870" d="M86.585 170.8A1.54 1.54 0 1 0 88 172.456a1.539 1.539 0 0 0-1.415-1.656z" class="cls-9"/>
                            </g>
                        </g>
                    </g>
                    <circle id="Elipse_1113" cx=".882" cy=".882" r=".882" class="cls-10" transform="translate(123.736 64.138)"/>
                    <circle id="Elipse_1114" cx=".882" cy=".882" r=".882" class="cls-10" transform="translate(136.164 54.239)"/>
                    <circle id="Elipse_1115" cx=".882" cy=".882" r=".882" class="cls-10" transform="translate(149.167 68.299)"/>
                    <circle id="Elipse_1116" cx=".882" cy=".882" r=".882" class="cls-10" transform="translate(159.434 81.166)"/>
                    <circle id="Elipse_1117" cx=".882" cy=".882" r=".882" class="cls-10" transform="translate(131.713 80.936)"/>
                </g>
            </g>
            <path id="Trazado_149871" fill="url(#linear-gradient-2)" d="M172.786 103.205c.183.074-1.267 4.052-3.959 8.184-5.639 8.656-15.6 9.63-16.061 9.661s-.924.048-1.391.048c0 0-.689 0-1.386-.048-23.788-1.631-28.554-6.933-28.554-6.933-6.795-7.56-.683-22.623-1.11-22.674 0 0 .072 0 .306 10.118.016 0-.187-7.013-1.654-8.024-.861-.594-.433.764-1.376 2.752-1.7 3.579 2.385 8.333 3.578 7.981 1.076-.317-.795-4.573 1.789-8.669 1.312-2.081 3.85-4.24 6.192-3.853a3.85 3.85 0 0 1 2.065 1.1 3.379 3.379 0 0 1 .825 3.165c-.44 1.324-1.785 1.293-2.89 2.339-2.576 2.439-2.039 9.019 1.1 11.009a3.556 3.556 0 0 0 3.512.353c1.06-.667.985-2.082 1.305-4.068.19-1.185 1.014-6.3 4.335-9.289.518-.467 2.774-2.5 5.124-1.929a3.233 3.233 0 0 1 1.763.988c2.1 2.707-5.243 8.454-3.929 14.5.768 3.53 4.257 6.072 7.156 6.88 2.5.7 4.516.921 8.532-.275a23.185 23.185 0 0 0 8.436-4.778c4.236-3.619 6.086-8.622 6.292-8.538z"/>
            <path id="Trazado_149872" fill="url(#linear-gradient-3)" d="M174.575 96.684a42.022 42.022 0 0 1-6.213 16.229c-11.184 17.165-30.946 19.1-31.851 19.159s-1.833.1-2.757.1-1.842-.033-2.75-.1a40.7 40.7 0 0 1-37.973-40.627A34.414 34.414 0 0 1 94.872 79.3c.925-2.605 4.381-12.34 10.9-13.083.965-.11 2.478-.378 3.518.483 1.991 1.651-.856 5.966-3.015 16.146 0 0-1.419 6.692-.818 11.29a26.818 26.818 0 0 0 1.4 5.5c.016.039.025.059.035.087.107.291 1.355 3.544 3.867 3.364a3.611 3.611 0 0 0 3.35-3.6c0-.1-.005-.2-.013-.3a22.251 22.251 0 0 1-.09-3.414c.344-4.93.583-11.6 4.1-16.131.722-.933 2.506-3.237 4.359-2.9a2.63 2.63 0 0 1 1.97 1.8 2.586 2.586 0 0 1-.558 2.143 18.937 18.937 0 0 0-3.294 10.408v.879a27.249 27.249 0 0 0 53.995 4.719z"/>
            <path id="Trazado_149873" fill="url(#linear-gradient-4)" d="M138.931 90.442a2.958 2.958 0 1 1-2.959-2.959 2.958 2.958 0 0 1 2.959 2.959z"/>
            <path id="Trazado_149874" fill="url(#linear-gradient-5)" d="M145.674 87.483a1.926 1.926 0 1 1-1.927-1.927 1.927 1.927 0 0 1 1.927 1.927z"/>
            <path id="Trazado_149875" fill="url(#linear-gradient-6)" d="M174.744 92.541c.169-.764 1.311-6.211-1.247-8.854a3.586 3.586 0 0 0-2.334-1.257 2.66 2.66 0 0 0-2.543 1.263 2.525 2.525 0 0 0 .124 2.026c.77 1.744 2.48 1.7 4.081 3.264a7.21 7.21 0 0 1 1.919 3.558z"/>
            <path id="Trazado_149876" fill="url(#linear-gradient-7)" d="M173.478 97c.078-.35.6-2.852-.572-4.066a1.652 1.652 0 0 0-1.073-.578 1.223 1.223 0 0 0-1.168.58 1.168 1.168 0 0 0 .057.931c.354.8 1.139.781 1.875 1.5a3.312 3.312 0 0 1 .881 1.633z"/>
        </g>
    </g>
</svg>
