<svg height="512" viewBox="0 0 64 64" width="512" xmlns="http://www.w3.org/2000/svg"><g id="Filled_outline" data-name="Filled outline"><path d="m19 3h26a16 16 0 0 1 16 16 0 0 0 0 1 0 0h-58a0 0 0 0 1 0 0 16 16 0 0 1 16-16z" fill="#ad6327"/><path d="m3 45h58a0 0 0 0 1 0 0 16 16 0 0 1 -16 16h-26.276a15.724 15.724 0 0 1 -15.724-15.724v-.276a0 0 0 0 1 0 0z" fill="#ad6327"/><path d="m55 31h-46a6.074 6.074 0 0 1 -6-6 6.074 6.074 0 0 1 6-6h46a6.074 6.074 0 0 1 6 6 6.074 6.074 0 0 1 -6 6z" fill="#66342e"/><path d="m54 45h-44a7.088 7.088 0 0 1 -7-7 7.088 7.088 0 0 1 7-7h44a7.088 7.088 0 0 1 7 7 7.088 7.088 0 0 1 -7 7z" fill="#995f5b"/><g fill="#f9bb4b"><path d="m42.581 19h-36.581l18 18z"/><path d="m33.677 31h20.323l-10 10z"/><path d="m10.774 45h14.226l-7 7z"/></g><path d="m62 19a17.019 17.019 0 0 0 -17-17h-26a17.019 17.019 0 0 0 -17 17 1 1 0 0 0 1 1h1.152c-.025.024-.052.045-.076.07a6.9 6.9 0 0 0 -2.076 4.93 7.087 7.087 0 0 0 3.836 6.21 8.134 8.134 0 0 0 -1.46 1.16 7.892 7.892 0 0 0 -2.376 5.63 8.008 8.008 0 0 0 2.784 6h-1.784a1 1 0 0 0 -1 1v.276a16.742 16.742 0 0 0 16.724 16.724h26.276a17.019 17.019 0 0 0 17-17 1 1 0 0 0 -1-1h-1.78c.136-.121.274-.239.4-.37a7.892 7.892 0 0 0 2.38-5.63 8.074 8.074 0 0 0 -3.833-6.778 7.031 7.031 0 0 0 1.757-1.292 6.9 6.9 0 0 0 2.076-4.93 6.985 6.985 0 0 0 -2.162-5h1.162a1 1 0 0 0 1-1zm-58 6a4.923 4.923 0 0 1 1.486-3.513 5.089 5.089 0 0 1 .892-.695l9.208 9.208h-6.586a5.067 5.067 0 0 1 -5-5zm4.447-4.968c.181-.02 31.664-.032 31.664-.032l-16.1 15.6zm51.52 25.968a15.021 15.021 0 0 1 -14.967 14h-26.276a14.742 14.742 0 0 1 -14.706-14h6.351l6.931 6.718a1 1 0 0 0 1.4-.011l6.714-6.707zm-46.723 0h9.342l-4.6 4.6zm46.756-8a6.1 6.1 0 0 1 -6 6h-44a6.081 6.081 0 0 1 -6-6 5.915 5.915 0 0 1 1.79-4.216 5.909 5.909 0 0 1 4.21-1.784h7.586l5.707 5.707a1 1 0 0 0 1.4.011l5.907-5.718h2.673l10.027 9.718a1 1 0 0 0 1.4-.011l9.686-9.686a6.083 6.083 0 0 1 5.614 5.979zm-23.853-6h15.439l-7.6 7.6zm23.853-7a5.079 5.079 0 0 1 -5 5h-22.337l10.323-10h12.014a5.067 5.067 0 0 1 5 5zm-55.967-7a15.021 15.021 0 0 1 14.967-14h26a15.021 15.021 0 0 1 14.967 14z"/><path d="m17.293 6.293-2 2a1 1 0 1 0 1.414 1.414l2-2a1 1 0 1 0 -1.414-1.414z"/><path d="m23.293 6.293-2 2a1 1 0 1 0 1.414 1.414l2-2a1 1 0 1 0 -1.414-1.414z"/><path d="m29.293 6.293-2 2a1 1 0 1 0 1.414 1.414l2-2a1 1 0 1 0 -1.414-1.414z"/><path d="m35.293 6.293-2 2a1 1 0 1 0 1.414 1.414l2-2a1 1 0 1 0 -1.414-1.414z"/><path d="m41.293 6.293-2 2a1 1 0 1 0 1.414 1.414l2-2a1 1 0 1 0 -1.414-1.414z"/><path d="m47.293 6.293-2 2a1 1 0 1 0 1.414 1.414l2-2a1 1 0 1 0 -1.414-1.414z"/><path d="m33.707 22.707a1 1 0 0 0 -1.414-1.414l-9 9a1 1 0 1 0 1.414 1.414z"/><path d="m42 56h-8a1 1 0 0 0 0 2h8a1 1 0 0 0 0-2z"/><path d="m30 56h-4a1 1 0 0 0 0 2h4a1 1 0 0 0 0-2z"/></g></svg>