<svg width="1440" height="272" viewBox="0 0 1440 272" fill="none" xmlns="http://www.w3.org/2000/svg">
<path d="M0 0L34.3 32.1C68.6 64.2 137 128.4 206 176.55C274.3 224.7 343 256.8 411 246.067C480 235.734 549 181.566 617 165.817C685.7 149.466 754 171.534 823 155.183C891.4 139.434 960 85.2656 1029 101.617C1097.1 117.366 1166 203.634 1234 203.333C1302.9 203.634 1371 117.366 1406 74.9334L1440 32.1V321H1405.7C1371.4 321 1303 321 1234 321C1165.7 321 1097 321 1029 321C960 321 891 321 823 321C754.3 321 686 321 617 321C548.6 321 480 321 411 321C342.9 321 274 321 206 321C137.1 321 69 321 34 321H0V0Z" fill="#D6D4CC"/>
</svg>
